<svg width="425" height="450" viewBox="0 0 425 450" fill="none" xmlns="http://www.w3.org/2000/svg">
<path d="M425 204.639C425 231.264 418.705 253.181 407.786 271.956C404.183 278.14 400.092 284.026 395.553 289.558C355.413 338.743 280.786 365.664 213.337 409.27C14.2402 537.984 -7.32577 331.733 1.66638 204.639C5.29346 153.356 25.2273 106.381 56.8963 70.4135C63.5473 62.8489 70.7318 55.7724 78.3943 49.2387C114.348 18.5629 160.797 0 213.337 0C303.478 0 380.455 54.4699 410.975 131.228C420.254 154.586 425.014 179.499 425 204.639Z" fill="#121D50"/>
<path d="M189.896 59L56 75.1101C60.4187 70.0937 65.1919 65.4011 70.2827 61.0684L189.896 59Z" fill="#D0CDE1"/>
<path d="M408.821 259.124C406.427 263.224 403.709 267.128 400.693 270.796L286 257L408.821 259.124Z" fill="#D0CDE1"/>
<path d="M413.38 147.212L219 122L408.701 133.215C410.523 137.789 412.085 142.462 413.38 147.212V147.212Z" fill="#D0CDE1"/>
<path d="M116.027 216.246L115.794 216.215L116.363 218.377C116.901 221.393 117.681 224.361 118.697 227.251L135.378 290.661C135.91 292.685 137.022 294.509 138.576 295.91C140.131 297.311 142.061 298.228 144.129 298.548L178.146 303.811C180.345 304.151 182.596 303.8 184.588 302.806C186.579 301.812 188.213 300.224 189.264 298.262L221.591 237.88C222.601 236.207 223.524 234.483 224.357 232.715L225.454 230.665L225.283 230.643C228.71 222.536 230.218 213.747 229.691 204.962C229.163 196.177 226.614 187.632 222.241 179.994C217.869 172.355 211.791 165.83 204.483 160.927C197.174 156.023 188.832 152.874 180.106 151.724C171.38 150.574 162.507 151.455 154.177 154.298C145.848 157.141 138.288 161.869 132.086 168.114C125.884 174.358 121.208 181.951 118.423 190.3C115.637 198.649 114.817 207.528 116.027 216.246H116.027Z" fill="#3F3D56"/>
<path d="M180.233 307.953C179.634 307.953 179.036 307.907 178.444 307.816L142.887 302.314C140.628 301.965 138.521 300.965 136.823 299.435C135.126 297.905 133.912 295.912 133.331 293.702L115.895 227.421C114.83 224.387 114.011 221.272 113.446 218.106L113.005 215.206C111.819 205.943 112.802 196.53 115.877 187.712C118.952 178.894 124.035 170.911 130.724 164.393C137.413 157.876 145.525 153.003 154.421 150.158C163.316 147.314 172.751 146.576 181.98 148.003L181.826 148.995C172.697 147.589 163.366 148.335 154.577 151.174C145.787 154.014 137.783 158.868 131.203 165.35C124.623 171.832 119.648 179.762 116.677 188.507C113.705 197.253 112.818 206.572 114.087 215.721L114.426 217.89C114.986 221.029 115.798 224.118 116.854 227.127L134.302 293.447C134.833 295.468 135.943 297.29 137.495 298.689C139.048 300.088 140.975 301.003 143.04 301.322L178.597 306.823C180.794 307.161 183.041 306.809 185.029 305.817C187.017 304.825 188.649 303.241 189.699 301.283L190.585 301.757C189.58 303.628 188.087 305.193 186.265 306.284C184.442 307.375 182.358 307.952 180.233 307.953V307.953Z" fill="#D0CDE1"/>
<path d="M189.253 230.659L167.618 289.732L168.837 290.179L190.473 231.105L189.253 230.659Z" fill="#D0CDE1"/>
<path d="M153.927 225.193L152.63 225.25L155.391 288.1L156.689 288.043L153.927 225.193Z" fill="#D0CDE1"/>
<path d="M178.396 328.327L132.833 321.278C132.664 321.253 132.501 321.195 132.354 321.106C132.208 321.018 132.08 320.902 131.979 320.764C131.877 320.626 131.804 320.469 131.763 320.303C131.722 320.137 131.715 319.964 131.741 319.795C131.767 319.626 131.826 319.463 131.915 319.317C132.005 319.171 132.122 319.044 132.26 318.943C132.399 318.843 132.556 318.77 132.722 318.73C132.889 318.691 133.061 318.684 133.23 318.711L178.793 325.76C178.962 325.785 179.125 325.843 179.272 325.932C179.418 326.02 179.546 326.136 179.648 326.274C179.749 326.412 179.822 326.569 179.863 326.735C179.904 326.901 179.912 327.074 179.885 327.243C179.859 327.412 179.8 327.575 179.711 327.721C179.622 327.867 179.504 327.994 179.366 328.095C179.228 328.195 179.071 328.268 178.904 328.308C178.738 328.347 178.565 328.354 178.396 328.327V328.327Z" fill="#3F3D56"/>
<path d="M179.564 318.651L134.001 311.603C133.663 311.548 133.359 311.362 133.157 311.084C132.955 310.807 132.872 310.461 132.924 310.122C132.976 309.783 133.161 309.478 133.437 309.275C133.714 309.071 134.059 308.985 134.399 309.036L179.961 316.084C180.3 316.139 180.604 316.325 180.805 316.602C181.007 316.88 181.091 317.226 181.039 317.565C180.986 317.904 180.802 318.209 180.525 318.412C180.249 318.616 179.904 318.702 179.564 318.651H179.564Z" fill="#3F3D56"/>
<path d="M153.03 343.633C162.068 345.031 170.173 341.127 171.134 334.914L138.406 329.851C137.445 336.064 143.992 342.235 153.03 343.633Z" fill="#3F3D56"/>
<path d="M169.408 218.213C167.464 217.912 165.855 216.376 164.974 215.346C164.684 215.008 164.403 214.658 164.121 214.307C163.094 213.029 162.124 211.821 160.774 211.192C157.794 209.801 154.282 211.744 151.241 213.827L150.507 212.756C153.85 210.465 157.748 208.348 161.323 210.015C162.947 210.772 164.059 212.156 165.133 213.493C165.407 213.834 165.68 214.174 165.96 214.501C166.877 215.572 168.705 217.307 170.665 216.907C171.491 216.666 172.258 216.26 172.922 215.712C173.427 215.335 173.961 214.998 174.519 214.704C175.65 214.162 176.917 213.966 178.159 214.142C179.401 214.317 180.564 214.856 181.5 215.691C181.834 216.007 182.151 216.342 182.448 216.693C183.032 217.359 183.584 217.987 184.302 218.216C185.363 218.555 186.485 217.949 187.674 217.308C188.9 216.646 190.167 215.962 191.604 216.131C191.651 216.136 191.698 216.142 191.745 216.15C194.303 216.545 195.482 219.374 196.149 221.486L194.911 221.877C194.004 219.007 192.9 217.58 191.452 217.421C190.423 217.299 189.387 217.859 188.291 218.45C186.916 219.192 185.494 219.96 183.907 219.453C182.846 219.116 182.147 218.32 181.471 217.55C181.205 217.235 180.922 216.934 180.624 216.649C179.878 215.996 178.958 215.574 177.976 215.436C176.994 215.297 175.993 215.447 175.095 215.868C174.598 216.132 174.122 216.435 173.671 216.772C172.865 217.43 171.93 217.909 170.926 218.179C170.426 218.281 169.912 218.292 169.408 218.213Z" fill="#D0CDE1"/>
</svg>
