<svg width="1347" height="864" viewBox="0 0 1347 864" fill="none" xmlns="http://www.w3.org/2000/svg">
<path d="M1081.98 8H834.49C826.966 8 820.867 14.0976 820.867 21.6194V24.0398C820.867 31.5616 826.966 37.6592 834.49 37.6592H1081.98C1089.5 37.6592 1095.6 31.5616 1095.6 24.0398V21.6194C1095.6 14.0976 1089.5 8 1081.98 8Z" fill="#F2F2F2"/>
<path d="M1143.52 33.2698H896.027C888.503 33.2698 882.404 39.3674 882.404 46.8892V49.3095C882.404 56.8314 888.503 62.929 896.027 62.929H1143.52C1151.04 62.929 1157.14 56.8314 1157.14 49.3095V46.8892C1157.14 39.3674 1151.04 33.2698 1143.52 33.2698Z" fill="#F2F2F2"/>
<path d="M1039.11 55.2441H791.623C784.099 55.2441 778 61.3418 778 68.8636V71.2839C778 78.8057 784.099 84.9034 791.623 84.9034H1039.11C1046.64 84.9034 1052.74 78.8057 1052.74 71.2839V68.8636C1052.74 61.3418 1046.64 55.2441 1039.11 55.2441Z" fill="#F2F2F2"/>
<path d="M791.98 451H544.49C536.966 451 530.867 457.098 530.867 464.619V467.04C530.867 474.562 536.966 480.659 544.49 480.659H791.98C799.504 480.659 805.603 474.562 805.603 467.04V464.619C805.603 457.098 799.504 451 791.98 451Z" fill="#F2F2F2"/>
<path d="M853.517 476.27H606.027C598.503 476.27 592.404 482.367 592.404 489.889V492.31C592.404 499.831 598.503 505.929 606.027 505.929H853.517C861.041 505.929 867.14 499.831 867.14 492.31V489.889C867.14 482.367 861.041 476.27 853.517 476.27Z" fill="#F2F2F2"/>
<path d="M749.113 498.23H501.623C494.099 498.23 488 504.328 488 511.85V514.27C488 521.792 494.099 527.89 501.623 527.89H749.113C756.637 527.89 762.736 521.792 762.736 514.27V511.85C762.736 504.328 756.637 498.23 749.113 498.23Z" fill="#F2F2F2"/>
<path d="M363.966 0H116.476C108.952 0 102.853 6.09763 102.853 13.6194V16.0398C102.853 23.5616 108.952 29.6592 116.476 29.6592H363.966C371.49 29.6592 377.589 23.5616 377.589 16.0398V13.6194C377.589 6.09763 371.49 0 363.966 0Z" fill="#F2F2F2"/>
<path d="M425.517 25.2698H178.027C170.503 25.2698 164.404 31.3675 164.404 38.8893V41.3096C164.404 48.8314 170.503 54.929 178.027 54.929H425.517C433.041 54.929 439.14 48.8314 439.14 41.3096V38.8893C439.14 31.3675 433.041 25.2698 425.517 25.2698Z" fill="#F2F2F2"/>
<path d="M321.113 47.2442H73.6233C66.0994 47.2442 60 53.3418 60 60.8637V63.284C60 70.8058 66.0994 76.9034 73.6233 76.9034H321.113C328.637 76.9034 334.736 70.8058 334.736 63.284V60.8637C334.736 53.3418 328.637 47.2442 321.113 47.2442Z" fill="#F2F2F2"/>
<g opacity="0.5">
<path opacity="0.5" d="M1166.1 828.844C1159.51 828.844 1007.85 894.767 832.018 721.174C736.532 626.918 643.002 616.881 577.457 627.396C537.176 633.851 500.395 653.514 471.261 681.997C447.831 704.997 391.122 736.338 258.254 727.778C53.8502 714.596 0 860.718 0 860.718H1207.77C1207.77 860.718 1172.65 828.844 1166.1 828.844Z" fill="url(#paint0_linear)"/>
</g>
<path d="M0.0547028 864C0.0547028 864 53.9049 717.878 258.309 731.06C391.177 739.661 447.899 708.279 471.261 685.293C500.341 656.755 537.107 637.146 577.348 630.692C642.893 620.176 736.437 630.213 831.909 724.469C1007.74 898.062 1159.4 832.139 1165.99 832.139C1172.59 832.139 1207.75 864 1207.75 864H0.0547028Z" fill="#F2F2F2"/>
<path opacity="0.02" d="M0.0547028 864C0.0547028 864 53.9049 717.878 258.309 731.06C391.177 739.661 447.899 708.279 471.261 685.293C500.341 656.755 537.107 637.146 577.348 630.692C642.893 620.176 736.437 630.213 831.909 724.469C1007.74 898.062 1159.4 832.139 1165.99 832.139C1172.59 832.139 1207.75 864 1207.75 864H0.0547028Z" fill="black"/>
<path d="M1262.62 202.071C1288.84 202.071 1310.1 180.822 1310.1 154.61C1310.1 128.398 1288.84 107.149 1262.62 107.149C1236.4 107.149 1215.15 128.398 1215.15 154.61C1215.15 180.822 1236.4 202.071 1262.62 202.071Z" fill="#FCCC63"/>
<path opacity="0.5" d="M1263.72 208.443C1293.14 208.443 1317 184.597 1317 155.18C1317 125.763 1293.14 101.916 1263.72 101.916C1234.29 101.916 1210.44 125.763 1210.44 155.18C1210.44 184.597 1234.29 208.443 1263.72 208.443Z" fill="url(#paint1_linear)"/>
<path d="M1262.5 100.199C1260.88 100.199 1259.33 99.5627 1258.19 98.4297C1257.04 97.2967 1256.4 95.76 1256.4 94.1576V76.0325C1256.4 74.4318 1257.05 72.8974 1258.19 71.7663C1259.33 70.6353 1260.88 70 1262.5 70C1264.12 70 1265.67 70.6353 1266.81 71.7663C1267.95 72.8974 1268.6 74.4318 1268.6 76.0325V94.1576C1268.6 94.951 1268.44 95.7367 1268.13 96.4697C1267.83 97.2027 1267.38 97.8687 1266.81 98.4298C1266.25 98.9908 1265.57 99.4358 1264.83 99.7394C1264.09 100.043 1263.3 100.199 1262.5 100.199V100.199Z" fill="#FCCC63"/>
<path d="M1262.5 239C1261.7 239 1260.91 238.844 1260.17 238.54C1259.43 238.237 1258.75 237.792 1258.19 237.232C1257.62 236.671 1257.17 236.005 1256.87 235.273C1256.56 234.54 1256.4 233.755 1256.4 232.962V214.848C1256.4 214.054 1256.56 213.268 1256.86 212.534C1257.17 211.801 1257.62 211.134 1258.18 210.572C1258.75 210.011 1259.42 209.565 1260.16 209.261C1260.9 208.957 1261.7 208.801 1262.5 208.801C1263.3 208.801 1264.1 208.957 1264.84 209.261C1265.58 209.565 1266.25 210.011 1266.82 210.572C1267.38 211.134 1267.83 211.801 1268.14 212.534C1268.44 213.268 1268.6 214.054 1268.6 214.848V232.962C1268.6 233.755 1268.44 234.54 1268.13 235.273C1267.83 236.005 1267.38 236.671 1266.81 237.232C1266.25 237.792 1265.57 238.237 1264.83 238.54C1264.09 238.844 1263.3 239 1262.5 239V239Z" fill="#FCCC63"/>
<path d="M1305.3 117.622C1304.13 117.622 1302.98 117.275 1302.01 116.624C1301.04 115.974 1300.28 115.049 1299.83 113.968C1299.38 112.886 1299.26 111.696 1299.49 110.548C1299.72 109.4 1300.28 108.345 1301.11 107.517L1313.67 94.9614C1314.78 93.8524 1316.28 93.2297 1317.85 93.2302C1319.42 93.2307 1320.93 93.8543 1322.04 94.964C1323.15 96.0736 1323.77 97.5785 1323.77 99.1478C1323.77 100.717 1323.15 102.222 1322.04 103.332L1309.48 115.888C1308.93 116.439 1308.28 116.875 1307.56 117.173C1306.84 117.47 1306.07 117.623 1305.3 117.622V117.622Z" fill="#FCCC63"/>
<path d="M1207.15 215.77C1205.98 215.77 1204.83 215.423 1203.86 214.772C1202.89 214.122 1202.13 213.198 1201.68 212.116C1201.23 211.035 1201.12 209.845 1201.34 208.697C1201.57 207.549 1202.14 206.494 1202.96 205.666L1215.52 193.112C1216.63 192.002 1218.13 191.378 1219.7 191.378C1221.27 191.378 1222.78 192.001 1223.89 193.111C1225 194.221 1225.62 195.727 1225.62 197.296C1225.62 198.866 1225 200.372 1223.89 201.482L1211.33 214.036C1210.78 214.587 1210.13 215.023 1209.41 215.321C1208.7 215.618 1207.93 215.771 1207.15 215.77V215.77Z" fill="#FCCC63"/>
<path d="M1340.95 160.598H1322.83C1321.23 160.595 1319.7 159.952 1318.57 158.809C1317.44 157.665 1316.8 156.116 1316.8 154.5C1316.8 152.884 1317.44 151.335 1318.57 150.191C1319.7 149.048 1321.23 148.405 1322.83 148.402H1340.95C1341.74 148.401 1342.53 148.558 1343.27 148.864C1344 149.169 1344.67 149.618 1345.23 150.185C1345.79 150.751 1346.24 151.424 1346.54 152.164C1346.84 152.905 1347 153.698 1347 154.5C1347 155.302 1346.84 156.095 1346.54 156.836C1346.24 157.576 1345.79 158.249 1345.23 158.815C1344.67 159.382 1344 159.83 1343.27 160.136C1342.53 160.442 1341.74 160.599 1340.95 160.598V160.598Z" fill="#FCCC63"/>
<path d="M1202.17 160.598H1184.05C1183.26 160.599 1182.47 160.442 1181.73 160.136C1181 159.83 1180.33 159.382 1179.77 158.815C1179.21 158.249 1178.76 157.576 1178.46 156.836C1178.16 156.095 1178 155.302 1178 154.5C1178 153.698 1178.16 152.905 1178.46 152.164C1178.76 151.424 1179.21 150.751 1179.77 150.185C1180.33 149.618 1181 149.169 1181.73 148.864C1182.47 148.558 1183.26 148.401 1184.05 148.402H1202.17C1203.77 148.405 1205.3 149.048 1206.43 150.191C1207.56 151.335 1208.2 152.884 1208.2 154.5C1208.2 156.116 1207.56 157.665 1206.43 158.809C1205.3 159.952 1203.77 160.595 1202.17 160.598H1202.17Z" fill="#FCCC63"/>
<path d="M1317.85 215.77C1317.08 215.771 1316.31 215.618 1315.59 215.321C1314.87 215.023 1314.22 214.587 1313.67 214.036L1301.12 201.484C1300.57 200.935 1300.13 200.282 1299.83 199.564C1299.53 198.846 1299.38 198.076 1299.38 197.299C1299.38 196.521 1299.53 195.751 1299.83 195.032C1300.13 194.314 1300.56 193.661 1301.11 193.111C1301.66 192.561 1302.31 192.125 1303.03 191.828C1303.75 191.53 1304.52 191.378 1305.3 191.378C1306.08 191.378 1306.85 191.532 1307.56 191.83C1308.28 192.129 1308.93 192.565 1309.48 193.116L1322.04 205.668C1322.86 206.496 1323.43 207.55 1323.66 208.698C1323.88 209.846 1323.77 211.036 1323.32 212.117C1322.87 213.198 1322.11 214.122 1321.14 214.772C1320.17 215.423 1319.02 215.77 1317.85 215.77V215.77Z" fill="#FCCC63"/>
<path d="M1219.7 117.622C1218.93 117.623 1218.16 117.47 1217.44 117.173C1216.72 116.875 1216.07 116.439 1215.52 115.888L1202.96 103.334C1202.41 102.784 1201.98 102.132 1201.68 101.414C1201.38 100.696 1201.23 99.9261 1201.23 99.1488C1201.23 98.3716 1201.38 97.602 1201.68 96.8839C1201.98 96.1658 1202.41 95.5133 1202.96 94.9638C1203.51 94.4142 1204.17 93.9782 1204.88 93.6807C1205.6 93.3833 1206.37 93.2302 1207.15 93.2302C1207.93 93.2302 1208.7 93.3833 1209.41 93.6807C1210.13 93.9782 1210.78 94.4142 1211.33 94.9638L1223.89 107.519C1224.72 108.346 1225.28 109.401 1225.51 110.549C1225.74 111.697 1225.62 112.887 1225.17 113.968C1224.72 115.05 1223.96 115.974 1222.99 116.624C1222.02 117.275 1220.87 117.622 1219.7 117.622V117.622Z" fill="#FCCC63"/>
<path d="M1262.5 190.797C1255.32 190.797 1248.3 188.668 1242.33 184.68C1236.37 180.692 1231.71 175.023 1228.97 168.39C1226.22 161.758 1225.5 154.46 1226.9 147.419C1228.3 140.378 1231.76 133.91 1236.83 128.834C1241.91 123.758 1248.38 120.301 1255.42 118.9C1262.46 117.5 1269.76 118.218 1276.39 120.966C1283.02 123.713 1288.69 128.365 1292.68 134.334C1296.67 140.303 1298.8 147.321 1298.8 154.5C1298.79 164.123 1294.96 173.349 1288.15 180.154C1281.35 186.959 1272.12 190.786 1262.5 190.797V190.797ZM1262.5 130.302C1257.71 130.302 1253.04 131.721 1249.06 134.38C1245.08 137.039 1241.98 140.818 1240.14 145.24C1238.31 149.661 1237.83 154.527 1238.77 159.221C1239.7 163.915 1242.01 168.227 1245.39 171.611C1248.77 174.995 1253.09 177.3 1257.78 178.233C1262.47 179.167 1267.34 178.688 1271.76 176.856C1276.18 175.025 1279.96 171.923 1282.62 167.944C1285.28 163.964 1286.7 159.286 1286.7 154.5C1286.69 148.084 1284.14 141.934 1279.6 137.397C1275.07 132.861 1268.92 130.309 1262.5 130.302V130.302Z" fill="#FCCC63"/>
<path d="M306.278 698.228H220.243V762.128H306.278V698.228Z" fill="#6C63FF"/>
<path d="M212.747 695.63L260.826 647.566C261.174 647.217 261.587 646.94 262.043 646.751C262.498 646.562 262.986 646.465 263.479 646.465C263.972 646.465 264.46 646.562 264.916 646.751C265.371 646.94 265.784 647.217 266.133 647.566L313.828 695.247C314.352 695.771 314.71 696.438 314.856 697.164C315.001 697.89 314.928 698.644 314.646 699.329C314.363 700.014 313.884 700.599 313.269 701.012C312.653 701.425 311.929 701.646 311.188 701.647L215.442 702.03C214.696 702.039 213.965 701.826 213.341 701.418C212.717 701.009 212.229 700.424 211.939 699.737C211.65 699.05 211.572 698.292 211.716 697.56C211.86 696.829 212.219 696.157 212.747 695.63V695.63Z" fill="#6C63FF"/>
<path opacity="0.05" d="M212.747 695.63L260.826 647.566C261.174 647.217 261.587 646.94 262.043 646.751C262.498 646.562 262.986 646.465 263.479 646.465C263.972 646.465 264.46 646.562 264.916 646.751C265.371 646.94 265.784 647.217 266.133 647.566L313.828 695.247C314.352 695.771 314.71 696.438 314.856 697.164C315.001 697.89 314.928 698.644 314.646 699.329C314.363 700.014 313.884 700.599 313.269 701.012C312.653 701.425 311.929 701.646 311.188 701.647L215.442 702.03C214.696 702.039 213.965 701.826 213.341 701.418C212.717 701.009 212.229 700.424 211.939 699.737C211.65 699.05 211.572 698.292 211.716 697.56C211.86 696.829 212.219 696.157 212.747 695.63V695.63Z" fill="black"/>
<path d="M262.152 733.303H263.876C266.451 733.303 268.921 734.325 270.743 736.146C272.564 737.967 273.587 740.436 273.587 743.011V762.155H252.441V743.011C252.441 740.436 253.464 737.967 255.285 736.146C257.107 734.325 259.577 733.303 262.152 733.303V733.303Z" fill="white"/>
<path d="M263.493 664.604C266.416 664.604 268.786 662.234 268.786 659.312C268.786 656.389 266.416 654.02 263.493 654.02C260.569 654.02 258.199 656.389 258.199 659.312C258.199 662.234 260.569 664.604 263.493 664.604Z" fill="white"/>
<path d="M247.161 706.392H226.973V721.762H247.161V706.392Z" fill="white"/>
<path d="M238.024 706.392H236.096V721.762H238.024V706.392Z" fill="#6C63FF"/>
<path d="M300.984 706.392H280.795V721.762H300.984V706.392Z" fill="white"/>
<path d="M291.861 706.392H289.932V721.762H291.861V706.392Z" fill="#6C63FF"/>
<g opacity="0.2">
<path opacity="0.2" d="M618.983 630.569C618.807 630.528 618.983 630.569 618.983 630.569V630.569Z" fill="url(#paint2_linear)"/>
</g>
<g opacity="0.2">
<path opacity="0.2" d="M620.967 670.278H621.131C621.165 670.266 621.195 670.243 621.217 670.214C621.238 670.185 621.251 670.151 621.254 670.114C621.265 670.06 621.265 670.005 621.254 669.95V669.814C621.117 669.485 620.803 669.048 620.625 668.665L620.543 668.46C620.535 668.369 620.535 668.277 620.543 668.186C620.543 668.186 620.543 668.104 620.543 668.063L623.497 658.368L623.566 658.136C623.566 658.136 627.327 659.749 628.298 662.976C628.858 664.542 628.887 666.247 628.38 667.831L628.312 667.995H628.38V669.773H632.484C632.771 669.636 632.388 669.28 632.005 668.925L631.909 668.829L631.663 668.569C631.594 668.49 631.534 668.403 631.485 668.309L631.417 668.145V668.05H631.294V667.899C631.806 665.524 631.69 663.055 630.956 660.739C630.222 658.422 628.896 656.337 627.108 654.69V654.69C628.098 651.74 628.098 648.547 627.108 645.597C627.491 645.323 634.946 639.935 634.891 632.962C634.913 632.588 634.913 632.214 634.891 631.84C634.891 631.84 635.534 631.307 634.891 630.336V630.254H634.823H634.371C634.077 630.283 633.792 630.377 633.537 630.528C633.537 630.528 633.113 631.895 633.537 632.251H633.428C633.428 632.251 629.01 641.823 626.055 643.19L625.85 643.067V641.823C625.853 641.768 625.853 641.713 625.85 641.658V641.658C625.853 641.608 625.853 641.558 625.85 641.508C626.182 641.336 626.482 641.109 626.739 640.838V640.838C626.837 640.735 626.929 640.625 627.013 640.51V640.51L627.122 640.346L627.232 640.154L627.314 639.977C627.372 639.848 627.422 639.715 627.464 639.58V639.416V639.211C627.464 639.211 627.464 639.101 627.464 639.047C627.464 638.978 627.464 638.91 627.464 638.828C627.464 638.436 627.394 638.047 627.259 637.679C627.259 637.579 627.218 637.479 627.136 637.378L627.067 637.228L626.972 637.064C627.045 636.973 627.133 636.895 627.232 636.831C627.421 636.725 627.631 636.66 627.847 636.64H628.38H628.49C628.568 636.609 628.641 636.567 628.709 636.517C628.813 636.43 628.934 636.364 629.064 636.326H628.257H628.134H628.025H627.902H627.792H627.683H627.574H627.464H627.355L627.136 636.23C627.249 636.275 627.369 636.303 627.491 636.312H627.956H628.039L628.121 636.243V636.134H627.97H627.874C627.688 636.159 627.5 636.159 627.314 636.134H626.917H626.739L626.575 636.066C626.8 636.147 627.048 636.136 627.265 636.035C627.482 635.934 627.649 635.75 627.731 635.526C627.812 635.301 627.801 635.053 627.7 634.836C627.599 634.619 627.415 634.452 627.19 634.37L627.341 634.274C627.498 634.139 627.597 633.948 627.615 633.741C627.633 633.656 627.633 633.567 627.615 633.481L627.519 633.563H627.437C627.178 633.746 626.864 633.833 626.548 633.81H626.438C626.159 633.738 625.889 633.637 625.631 633.509L625.399 633.427H625.33H625.139H625.029H624.879H624.154C623.132 633.461 622.159 633.87 621.418 634.575C621.248 634.744 621.092 634.927 620.953 635.122C620.854 634.121 621.039 633.111 621.487 632.21H621.405H621.159L621.035 632.442C621.1 632.112 621.226 631.797 621.405 631.512H621.323C621.504 631.309 621.605 631.046 621.605 630.774C621.605 630.501 621.504 630.239 621.323 630.035C620.68 629.065 619.49 629.817 619.49 629.817C619.394 630.133 619.33 630.458 619.298 630.788L619.107 630.705C618.888 631.444 616.453 639.922 620.475 645.337C620.469 645.451 620.469 645.565 620.475 645.679V654.813L617.739 667.339L617.206 669.704L621.049 670.333L620.967 670.278ZM621.651 640.674C621.868 640.854 622.107 641.005 622.362 641.125C622.355 641.212 622.355 641.299 622.362 641.385V642.575L622.13 642.684C621.952 642.096 621.801 641.412 621.637 640.674H621.651Z" fill="url(#paint3_linear)"/>
</g>
<path d="M634.932 632.907C634.932 632.907 635.643 632.305 634.932 631.239C634.221 630.172 632.908 631.006 632.908 631.006C632.908 631.006 632.429 632.552 632.908 632.907C633.387 633.263 634.932 632.907 634.932 632.907Z" fill="#CA7070"/>
<path d="M627.573 672.781H630.856C630.844 672.937 630.866 673.093 630.92 673.239C630.975 673.386 631.06 673.518 631.171 673.629C631.608 674.135 632.539 674.75 632.087 674.996H627.573V672.781Z" fill="#00695C"/>
<path opacity="0.2" d="M630.925 673.629C630.814 673.518 630.729 673.386 630.674 673.239C630.62 673.093 630.598 672.937 630.61 672.781H630.842C630.831 672.937 630.852 673.093 630.907 673.239C630.961 673.386 631.047 673.518 631.157 673.629C631.595 674.135 632.525 674.75 632.074 674.996H631.841C632.251 674.75 631.362 674.135 630.925 673.629Z" fill="white"/>
<path d="M615.865 672.111L618.984 672.658C618.899 673.023 618.948 673.406 619.12 673.738C619.462 674.435 620.215 675.338 619.763 675.529L615.318 674.805L615.865 672.111Z" fill="#00695C"/>
<path d="M617.37 631.458C617.37 631.458 613.855 642.547 619.75 648.687L621.459 647.32C621.459 647.32 617.972 635.218 619.927 632.374C616.481 631.293 617.37 631.458 617.37 631.458Z" fill="#00695C"/>
<path d="M619.804 632.428C619.804 632.428 620.516 631.827 619.804 630.76C619.093 629.694 617.78 630.528 617.78 630.528C617.78 630.528 617.301 632.073 617.78 632.428C618.259 632.784 619.804 632.428 619.804 632.428Z" fill="#CA7070"/>
<path opacity="0.2" d="M618.847 673.683C618.674 673.351 618.626 672.968 618.71 672.603L615.865 672.138L618.984 672.658C618.899 673.023 618.948 673.406 619.12 673.738C619.462 674.435 620.215 675.338 619.763 675.529H619.572C619.873 675.201 619.175 674.353 618.847 673.683Z" fill="white"/>
<path d="M622.595 646.732H622.868C623.714 646.732 624.4 646.046 624.4 645.2V643.313C624.4 642.467 623.714 641.782 622.868 641.782H622.595C621.749 641.782 621.063 642.467 621.063 643.313V645.2C621.063 646.046 621.749 646.732 622.595 646.732Z" fill="#CA7070"/>
<path opacity="0.2" d="M621.213 648.044C621.213 648.044 617.766 636.093 619.64 633.153H619.914H619.996C618.04 635.997 621.528 648.099 621.528 648.099L619.818 649.466L619.668 649.302L621.213 648.044Z" fill="white"/>
<path d="M622.663 643.518C624.703 643.518 626.356 641.865 626.356 639.826C626.356 637.787 624.703 636.134 622.663 636.134C620.623 636.134 618.97 637.787 618.97 639.826C618.97 641.865 620.623 643.518 622.663 643.518Z" fill="#CA7070"/>
<path opacity="0.2" d="M623.976 645.063V643.45C623.989 643.332 623.989 643.212 623.976 643.094C624.699 642.725 625.28 642.128 625.629 641.395C625.978 640.663 626.076 639.836 625.908 639.042C625.74 638.248 625.315 637.532 624.699 637.004C624.082 636.476 623.309 636.165 622.499 636.12H622.704C623.532 636.119 624.337 636.397 624.989 636.908C625.64 637.42 626.101 638.135 626.297 638.94C626.492 639.745 626.412 640.592 626.068 641.345C625.724 642.099 625.137 642.715 624.4 643.094C624.413 643.212 624.413 643.332 624.4 643.45V645.063C624.4 645.506 624.224 645.93 623.911 646.243C623.598 646.556 623.174 646.732 622.731 646.732H622.526C622.93 646.678 623.3 646.479 623.567 646.172C623.834 645.865 623.98 645.47 623.976 645.063V645.063Z" fill="white"/>
<path d="M618.915 658.232C618.915 658.232 626.042 659.038 626.301 658.232C627.418 654.946 627.418 651.384 626.301 648.099C626.301 647.614 626.206 647.134 626.02 646.686C625.835 646.238 625.563 645.831 625.22 645.488C624.877 645.145 624.47 644.874 624.022 644.688C623.574 644.502 623.093 644.407 622.608 644.407V644.407C621.629 644.407 620.69 644.796 619.997 645.488C619.304 646.181 618.915 647.12 618.915 648.099V658.232Z" fill="#00695C"/>
<path d="M618.915 658.232L615.701 673H618.915L622.253 662.06C622.253 662.06 626.356 663.852 627.491 667.421C628.18 669.221 628.18 671.213 627.491 673.013H630.952V672.849C631.523 670.217 631.392 667.48 630.571 664.914C629.75 662.348 628.268 660.044 626.274 658.232" fill="#263238"/>
<path opacity="0.2" d="M625.823 658.232C626.939 654.946 626.939 651.384 625.823 648.099C625.821 647.161 625.463 646.259 624.82 645.576C624.177 644.893 623.298 644.48 622.362 644.421H622.595C623.574 644.421 624.513 644.81 625.206 645.502C625.899 646.194 626.288 647.134 626.288 648.113C627.404 651.398 627.404 654.96 626.288 658.245C626.192 658.532 625.221 658.614 624.003 658.601C625.057 658.573 625.823 658.478 625.823 658.232Z" fill="white"/>
<path d="M626.356 648.044C626.356 648.044 635.931 641.371 634.932 632.921H632.798C632.798 632.921 627.669 643.997 624.4 645.077C621.131 646.157 626.356 648.044 626.356 648.044Z" fill="#00695C"/>
<g opacity="0.2">
<path opacity="0.2" d="M622.184 662.293L618.915 673.054H618.437L621.774 662.115L622.184 662.293Z" fill="white"/>
<path opacity="0.2" d="M625.823 658.286H626.301C628.295 660.098 629.777 662.403 630.598 664.969C631.419 667.535 631.551 670.271 630.979 672.904V673.068H630.501V672.904C631.072 670.271 630.94 667.535 630.119 664.969C629.298 662.403 627.816 660.098 625.823 658.286Z" fill="white"/>
</g>
<path opacity="0.2" d="M634.577 633.003H634.932C635.89 641.467 626.356 648.126 626.356 648.126L626.124 648.031C627.19 647.251 635.466 640.92 634.577 633.003Z" fill="white"/>
<path d="M625.604 638.172C625.4 638.648 625.257 639.149 625.18 639.662C625.085 640.186 624.886 640.686 624.594 641.133C624.303 641.579 623.925 641.962 623.484 642.26C622.974 642.536 622.408 642.691 621.829 642.711C621.392 642.766 620.948 642.728 620.526 642.601C620.105 642.474 619.714 642.26 619.38 641.973C618.993 641.552 618.732 641.031 618.628 640.469C618.444 639.633 618.473 638.764 618.712 637.943C618.951 637.121 619.392 636.372 619.996 635.765C620.609 635.172 621.377 634.764 622.212 634.588C623.046 634.411 623.914 634.473 624.715 634.767C625.003 634.908 625.306 635.018 625.617 635.095C625.864 635.143 626.118 635.128 626.358 635.052C626.597 634.975 626.813 634.84 626.985 634.657C627.024 634.781 627.033 634.912 627.012 635.04C626.99 635.168 626.938 635.289 626.861 635.393C626.784 635.497 626.683 635.581 626.566 635.639C626.45 635.696 626.322 635.726 626.192 635.724C626.465 635.856 626.762 635.932 627.065 635.948C627.367 635.965 627.671 635.921 627.956 635.82C627.795 636.16 627.511 636.427 627.161 636.567C626.81 636.707 626.42 636.708 626.069 636.572C626.74 636.871 627.468 637.02 628.203 637.009C628.052 637.009 627.751 637.296 627.56 637.351C627.323 637.372 627.085 637.372 626.849 637.351C626.584 637.353 626.325 637.431 626.105 637.577C625.884 637.723 625.71 637.929 625.604 638.172Z" fill="#263238"/>
<g opacity="0.2">
<path opacity="0.2" d="M626.096 635.738C626.371 635.868 626.668 635.942 626.972 635.956C626.576 635.984 626.18 635.908 625.823 635.738C625.938 635.738 626.053 635.714 626.159 635.668C626.265 635.622 626.36 635.554 626.438 635.47C626.517 635.385 626.577 635.285 626.614 635.175C626.652 635.066 626.667 634.95 626.657 634.835L626.849 634.671C626.887 634.791 626.896 634.919 626.877 635.044C626.857 635.169 626.809 635.287 626.737 635.39C626.664 635.494 626.568 635.579 626.457 635.639C626.346 635.699 626.223 635.733 626.096 635.738V635.738Z" fill="white"/>
<path opacity="0.2" d="M625.358 635.095C625.046 635.018 624.743 634.908 624.455 634.767C624.019 634.594 623.556 634.496 623.087 634.48C623.653 634.46 624.216 634.558 624.742 634.767C625.031 634.908 625.333 635.018 625.645 635.095H625.768C625.632 635.116 625.494 635.116 625.358 635.095V635.095Z" fill="white"/>
<path opacity="0.2" d="M627.19 637.351C627.382 637.351 627.683 637.009 627.833 637.009C627.099 637.02 626.37 636.871 625.699 636.572C625.852 636.632 626.014 636.664 626.178 636.667C626.785 636.898 627.431 637.009 628.08 636.996C627.929 636.996 627.628 637.283 627.437 637.337C627.274 637.363 627.107 637.363 626.944 637.337L627.19 637.351Z" fill="white"/>
<path opacity="0.2" d="M621.583 642.711C622.162 642.691 622.728 642.536 623.238 642.26C623.679 641.962 624.057 641.579 624.348 641.133C624.64 640.686 624.839 640.186 624.934 639.662C625.011 639.149 625.154 638.648 625.358 638.172C625.465 637.952 625.63 637.764 625.834 637.63C626.039 637.495 626.276 637.418 626.52 637.406H626.753C626.508 637.418 626.271 637.495 626.067 637.63C625.862 637.764 625.698 637.952 625.59 638.172C625.386 638.648 625.244 639.149 625.166 639.662C625.071 640.186 624.872 640.686 624.581 641.133C624.29 641.579 623.912 641.962 623.47 642.26C622.961 642.536 622.394 642.691 621.815 642.711H621.583Z" fill="white"/>
<path opacity="0.2" d="M626.383 636.681C626.635 636.664 626.879 636.583 627.092 636.447C627.305 636.311 627.48 636.123 627.601 635.902L627.874 635.82C627.744 636.098 627.531 636.331 627.264 636.485C626.998 636.639 626.69 636.707 626.383 636.681V636.681Z" fill="white"/>
</g>
<path opacity="0.2" d="M634.7 632.907C634.7 632.907 635.411 632.305 634.7 631.239C634.606 631.083 634.476 630.952 634.322 630.857C634.167 630.762 633.992 630.705 633.811 630.692C634.03 630.667 634.252 630.705 634.451 630.802C634.65 630.899 634.817 631.05 634.932 631.239C635.643 632.305 634.932 632.907 634.932 632.907C634.483 633.006 634.024 633.056 633.564 633.057C633.946 633.038 634.326 632.988 634.7 632.907Z" fill="white"/>
<path d="M651.004 619.629C651.004 619.629 647.489 630.719 653.384 636.859L655.094 635.491C655.094 635.491 651.606 623.39 653.562 620.546C650.115 619.465 651.004 619.629 651.004 619.629Z" fill="#FF5252"/>
<path d="M653.438 620.614C653.438 620.614 654.15 620.012 653.438 618.946C652.727 617.879 651.414 618.713 651.414 618.713C651.414 618.713 650.935 620.258 651.414 620.614C651.893 620.97 653.438 620.614 653.438 620.614Z" fill="#F6B9AD"/>
<path d="M656.229 634.917H656.502C657.349 634.917 658.034 634.231 658.034 633.386V631.499C658.034 630.653 657.349 629.967 656.502 629.967H656.229C655.383 629.967 654.697 630.653 654.697 631.499V633.386C654.697 634.231 655.383 634.917 656.229 634.917Z" fill="#F6B9AD"/>
<path opacity="0.2" d="M654.847 636.271C654.847 636.271 651.4 624.32 653.274 621.38H653.548H653.63C651.674 624.224 655.162 636.326 655.162 636.326L653.452 637.693L653.302 637.529L654.847 636.271Z" fill="white"/>
<path d="M656.297 631.69C658.337 631.69 659.99 630.037 659.99 627.998C659.99 625.959 658.337 624.306 656.297 624.306C654.258 624.306 652.604 625.959 652.604 627.998C652.604 630.037 654.258 631.69 656.297 631.69Z" fill="#F6B9AD"/>
<path opacity="0.2" d="M657.61 633.235V631.635C657.623 631.517 657.623 631.398 657.61 631.28C658.333 630.91 658.914 630.313 659.263 629.581C659.612 628.848 659.71 628.021 659.542 627.228C659.374 626.434 658.949 625.717 658.333 625.189C657.717 624.661 656.943 624.351 656.133 624.306H656.338C657.167 624.305 657.971 624.583 658.623 625.094C659.275 625.605 659.735 626.321 659.931 627.126C660.127 627.93 660.046 628.778 659.702 629.531C659.358 630.284 658.771 630.9 658.034 631.28C658.047 631.398 658.047 631.517 658.034 631.635V633.249C658.034 633.691 657.859 634.116 657.546 634.429C657.233 634.741 656.808 634.917 656.366 634.917H656.16C656.566 634.864 656.939 634.662 657.206 634.352C657.473 634.042 657.617 633.645 657.61 633.235V633.235Z" fill="white"/>
<path d="M652.549 646.403C652.549 646.403 659.676 647.21 659.936 646.403C660.784 643.805 658.568 640.934 659.648 639.566C659.982 639.083 660.184 638.521 660.235 637.936C660.285 637.351 660.182 636.763 659.936 636.23C659.936 635.745 659.84 635.265 659.654 634.817C659.469 634.369 659.197 633.962 658.854 633.619C658.511 633.276 658.104 633.004 657.656 632.819C657.208 632.633 656.727 632.538 656.242 632.538V632.538C655.263 632.538 654.324 632.927 653.631 633.619C652.938 634.312 652.549 635.251 652.549 636.23V646.403Z" fill="#FF5252"/>
<path opacity="0.2" d="M659.662 639.621C659.996 639.138 660.198 638.576 660.248 637.991C660.299 637.406 660.196 636.818 659.949 636.285C659.949 635.305 659.56 634.366 658.868 633.674C658.175 632.981 657.236 632.593 656.256 632.593H656.024C656.96 632.652 657.839 633.065 658.481 633.748C659.124 634.431 659.483 635.333 659.484 636.271C659.731 636.804 659.834 637.392 659.783 637.977C659.733 638.562 659.531 639.124 659.197 639.607C658.048 640.975 660.332 643.792 659.484 646.444C659.402 646.691 658.663 646.786 657.692 646.8C658.896 646.8 659.867 646.732 659.963 646.444C660.797 643.805 658.513 640.988 659.662 639.621Z" fill="white"/>
<path d="M658.417 646.171C661.165 650.516 662.234 655.712 661.427 660.789V660.953H659.211C659.655 659.115 659.655 657.198 659.211 655.36C658.79 653.219 657.591 651.31 655.846 650L653.698 660.939H651.633L653.698 646.171H658.417Z" fill="#F6B9AD"/>
<path d="M670.96 624.921C670.96 624.921 671.822 624.566 671.452 623.321C671.083 622.077 669.592 622.501 669.592 622.501C669.592 622.501 668.676 623.868 669.031 624.32C669.387 624.771 670.96 624.921 670.96 624.921Z" fill="#F6B9AD"/>
<path d="M658.308 636.872C658.308 636.872 669.373 633.29 670.946 624.921L668.895 624.292C668.895 624.292 660.688 633.386 657.296 633.454C653.904 633.522 658.308 636.872 658.308 636.872Z" fill="#FF5252"/>
<path opacity="0.2" d="M670.563 624.935L670.905 625.044C669.332 633.413 658.267 636.996 658.267 636.996L658.075 636.845C659.375 636.38 669.1 632.743 670.563 624.935Z" fill="white"/>
<g opacity="0.2">
<path opacity="0.2" d="M655.34 649.986L653.192 660.925H653.671L655.75 650.287C655.618 650.18 655.482 650.079 655.34 649.986V649.986Z" fill="white"/>
<path opacity="0.2" d="M658.417 646.171H657.939C660.686 650.516 661.756 655.712 660.948 660.789V660.953H661.385V660.789C662.206 655.717 661.15 650.521 658.417 646.171V646.171Z" fill="white"/>
</g>
<path opacity="0.2" d="M670.714 624.798C670.714 624.798 671.575 624.443 671.206 623.198C671.162 623.024 671.077 622.862 670.959 622.726C670.84 622.59 670.69 622.485 670.522 622.419C670.74 622.458 670.942 622.559 671.104 622.709C671.266 622.86 671.382 623.053 671.439 623.267C671.808 624.497 670.946 624.867 670.946 624.867C670.482 624.83 670.024 624.742 669.579 624.607C669.951 624.701 670.331 624.765 670.714 624.798V624.798Z" fill="white"/>
<path d="M652.549 646.007L648.063 655.469C650.686 655.599 653.295 655.914 655.873 656.413C660.838 657.356 663.205 655.045 663.205 655.045L660.018 646.007H652.549Z" fill="#263238"/>
<path d="M653.739 660.898C653.739 660.898 656.106 661.377 655.627 662.265H651.373L651.606 660.898H653.739Z" fill="#FF5252"/>
<path d="M661.303 660.898C661.303 660.898 663.67 661.377 663.191 662.265H658.937L659.17 660.898H661.303Z" fill="#FF5252"/>
<path d="M659.648 624.962C659.648 624.962 653.972 633.003 656.571 636.312L646.408 636.079C646.408 636.079 649.239 617.866 659.648 624.962Z" fill="#FCCC63"/>
<path opacity="0.2" d="M659.648 624.962C658.483 624.1 657.119 623.545 655.682 623.349C656.658 623.662 657.581 624.123 658.417 624.716C658.417 624.716 652.741 632.757 655.34 636.066L646.394 635.861V636.066L656.557 636.298C653.972 633.003 659.648 624.962 659.648 624.962Z" fill="white"/>
<path opacity="0.2" d="M660.018 646.007H659.306L662.507 654.991C661.183 656.078 659.515 656.66 657.802 656.632C659.77 656.825 661.736 656.236 663.273 654.991L660.018 646.007Z" fill="white"/>
<path opacity="0.2" d="M653.739 660.898H653.261C653.261 660.898 655.627 661.377 655.148 662.265H655.627C656.106 661.363 653.739 660.898 653.739 660.898Z" fill="white"/>
<path opacity="0.2" d="M661.303 660.898H660.825C660.825 660.898 663.191 661.377 662.712 662.265H663.191C663.67 661.363 661.303 660.898 661.303 660.898Z" fill="white"/>
<path d="M1158.95 582.919L1150.7 536.843L1176.83 535.567V582.919H1194.72L1212.6 532.033" stroke="#B3B3B3" stroke-miterlimit="10"/>
<path d="M1189.23 578.101H1164.44C1151.53 578.101 1141.07 588.561 1141.07 601.464V605.623C1141.07 618.527 1151.53 628.987 1164.44 628.987H1189.23C1202.14 628.987 1212.6 618.527 1212.6 605.623V601.464C1212.6 588.561 1202.14 578.101 1189.23 578.101Z" fill="#6C63FF"/>
<path opacity="0.05" d="M1187.84 578.101H1167.21C1160.47 578.121 1154.01 580.808 1149.24 585.575C1144.47 590.342 1141.78 596.802 1141.76 603.544V603.544C1141.76 604.126 1141.76 604.691 1141.83 605.255C1142.28 598.828 1145.15 592.811 1149.86 588.411C1154.57 584.01 1160.77 581.553 1167.21 581.533H1187.84C1194.29 581.553 1200.49 584.01 1205.19 588.411C1209.9 592.811 1212.77 598.828 1213.22 605.255C1213.22 604.691 1213.29 604.117 1213.29 603.544C1213.27 596.802 1210.58 590.342 1205.82 585.575C1201.05 580.808 1194.59 578.121 1187.84 578.101V578.101Z" fill="black"/>
<path d="M1285.35 440.393C1285.35 499.153 1236.24 546.787 1183.96 546.787C1131.69 546.787 1078.11 499.153 1078.11 440.393C1078.11 381.634 1131.69 334 1183.97 334C1236.26 334 1285.35 381.634 1285.35 440.393Z" fill="url(#paint4_linear)"/>
<path d="M1280.49 440.393C1280.49 496.406 1233.69 541.806 1183.85 541.806C1134.01 541.806 1082.94 496.406 1082.94 440.393C1082.94 384.381 1134.03 339.015 1183.86 339.015C1233.69 339.015 1280.49 384.373 1280.49 440.393Z" fill="#6C63FF"/>
<path d="M1190.8 545.366H1168.38V553.197H1190.8V545.366Z" fill="#6C63FF"/>
<g opacity="0.2">
<path opacity="0.2" d="M1183.86 338.63C1182.67 338.63 1181.49 338.63 1180.3 338.715C1228.78 340.812 1273.38 385.365 1273.38 440.043C1273.38 494.72 1228.78 539.273 1180.33 541.37C1181.52 541.421 1182.71 541.455 1183.9 541.455C1233.73 541.455 1280.53 496.055 1280.53 440.043C1280.53 384.03 1233.69 338.63 1183.86 338.63Z" fill="black"/>
</g>
<g opacity="0.2">
<path opacity="0.2" d="M1088.65 440.393C1088.65 385.186 1138.3 340.264 1187.42 339.015C1186.71 339.015 1186 339.015 1185.29 339.015C1135.46 339.015 1084.38 384.415 1084.38 440.428C1084.38 496.44 1135.45 541.84 1185.28 541.84C1185.99 541.84 1186.7 541.84 1187.41 541.84C1138.28 540.505 1088.65 495.627 1088.65 440.393Z" fill="white"/>
</g>
<path d="M1212.87 527.574H1148.45V548.567H1212.87V527.574Z" fill="#6C63FF"/>
<path opacity="0.2" d="M1148.45 346.366C1148.45 346.366 1071.93 433.812 1148.45 534.421L1173.72 534.335C1173.72 534.335 1103.96 451.219 1170.52 340.068L1158.08 342.9L1148.45 346.366Z" fill="white"/>
<path opacity="0.2" d="M1215 345.006C1215 345.006 1291.53 433.787 1215 534.395L1189.73 534.309C1189.73 534.309 1259.49 450.441 1192.94 339.315L1205.39 341.805L1215 345.006Z" fill="white"/>
<defs>
<linearGradient id="paint0_linear" x1="603.938" y1="860.705" x2="603.938" y2="624.06" gradientUnits="userSpaceOnUse">
<stop stop-color="#808080" stop-opacity="0.25"/>
<stop offset="0.54" stop-color="#808080" stop-opacity="0.12"/>
<stop offset="1" stop-color="#808080" stop-opacity="0.1"/>
</linearGradient>
<linearGradient id="paint1_linear" x1="22443" y1="17391.2" x2="22443" y2="101.916" gradientUnits="userSpaceOnUse">
<stop stop-color="#808080" stop-opacity="0.25"/>
<stop offset="0.54" stop-color="#808080" stop-opacity="0.12"/>
<stop offset="1" stop-color="#808080" stop-opacity="0.1"/>
</linearGradient>
<linearGradient id="paint2_linear" x1="3427.23" y1="641.962" x2="3427.23" y2="641.961" gradientUnits="userSpaceOnUse">
<stop stop-color="#808080" stop-opacity="0.25"/>
<stop offset="0.54" stop-color="#808080" stop-opacity="0.12"/>
<stop offset="1" stop-color="#808080" stop-opacity="0.1"/>
</linearGradient>
<linearGradient id="paint3_linear" x1="-47524" y1="27728.4" x2="-47524" y2="26509.8" gradientUnits="userSpaceOnUse">
<stop stop-color="#808080" stop-opacity="0.25"/>
<stop offset="0.54" stop-color="#808080" stop-opacity="0.12"/>
<stop offset="1" stop-color="#808080" stop-opacity="0.1"/>
</linearGradient>
<linearGradient id="paint4_linear" x1="189797" y1="96679.7" x2="189797" y2="43772.3" gradientUnits="userSpaceOnUse">
<stop stop-color="#808080" stop-opacity="0.25"/>
<stop offset="0.54" stop-color="#808080" stop-opacity="0.12"/>
<stop offset="1" stop-color="#808080" stop-opacity="0.1"/>
</linearGradient>
</defs>
</svg>
