<svg width="1440" height="480" viewBox="0 0 1440 480" fill="none" xmlns="http://www.w3.org/2000/svg">
<path d="M1385.46 94.8844C568.711 139.348 652.348 -75.3259 -38.2414 28.8845C-163.719 47.8192 -410.037 296.83 -103.189 403.695C385.55 573.905 829.901 402.305 1479.37 429.052C1576.25 426.505 1809.39 71.8058 1385.46 94.8844Z" fill="#6C63FF" fill-opacity="0.76"/>
<path d="M968.183 346.308C958.752 262.377 892.44 276.704 942.521 183.239C985.162 103.661 1018.68 183.239 1107.5 151.194C1127.86 152.934 1229.65 98.8352 1270.3 174.117C1296.33 222.326 1274.78 268.786 1246.25 329.845C1210.6 406.169 1161.55 356.676 1107.5 390.019C1066.99 415.008 976.6 421.212 968.183 346.308Z" fill="white" fill-opacity="0.29"/>
</svg>
