<svg width="50" height="50" viewBox="0 0 50 50" fill="none" xmlns="http://www.w3.org/2000/svg">
<path d="M25 0C11.2152 0 0 11.2141 0 25C0 38.7859 11.2152 50 25 50C38.7848 50 50 38.7859 50 25C50 11.2141 38.7848 0 25 0ZM17.3913 35.8696H13.0435V19.5652H17.3913V35.8696ZM15.2174 16.3043C14.0163 16.3043 13.0435 15.3315 13.0435 14.1304C13.0435 12.9293 14.0163 11.9565 15.2174 11.9565C16.4185 11.9565 17.3913 12.9293 17.3913 14.1304C17.3913 15.3315 16.4185 16.3043 15.2174 16.3043ZM38.0435 35.8696H33.6957V30.4348V27.7174C33.6957 25.625 31.9837 23.913 29.8913 23.913C27.7989 23.913 26.087 25.625 26.087 27.7174V35.8696H21.7391V19.5652H26.087V21.5391C27.3565 20.3196 29.0783 19.5652 30.9783 19.5652C34.8804 19.5652 38.0435 22.7283 38.0435 26.6304V35.8696Z" fill="#0B2A3B"/>
</svg>
