<svg width="50" height="50" viewBox="0 0 50 50" fill="none" xmlns="http://www.w3.org/2000/svg">
<ellipse cx="25" cy="24.5067" rx="25" ry="24.5067" fill="#286F6C"/>
<path d="M29.2453 29.8186L28.5245 30.5624C28.5245 30.5624 26.8113 32.3306 22.1349 27.5044C17.4587 22.6782 19.1718 20.9101 19.1718 20.9101L19.6257 20.4417C20.7439 19.2877 20.8493 17.4351 19.8738 16.0826L17.8782 13.3159C16.6708 11.6418 14.3377 11.4207 12.9538 12.849L10.4699 15.4125C9.78365 16.1207 9.3238 17.0387 9.37957 18.0571C9.52223 20.6625 10.658 26.2681 16.9954 32.8087C23.7159 39.7445 30.0217 40.0201 32.6004 39.7707C33.416 39.6917 34.1253 39.2606 34.6969 38.6707L36.945 36.3506C38.4625 34.7845 38.0346 32.0997 36.093 31.0042L33.0696 29.2983C31.7947 28.5789 30.2417 28.7902 29.2453 29.8186Z" fill="white"/>
<path d="M25.6107 10.167C25.7155 9.53269 26.3271 9.10241 26.9742 9.20509C27.0143 9.21261 27.1432 9.23622 27.2107 9.25096C27.3458 9.28045 27.5341 9.32582 27.769 9.39288C28.2387 9.52698 28.8948 9.7479 29.6822 10.1018C31.2589 10.8104 33.357 12.0498 35.5342 14.1841C37.7114 16.3183 38.9758 18.3751 39.6986 19.9206C40.0597 20.6925 40.285 21.3357 40.4218 21.7961C40.4901 22.0263 40.5365 22.211 40.5666 22.3433C40.5816 22.4095 40.5927 22.4626 40.6003 22.5019L40.6095 22.5503C40.7141 23.1846 40.2792 23.8091 39.6321 23.9118C38.9869 24.0142 38.3791 23.5859 38.2718 22.9547C38.2685 22.9376 38.2593 22.8921 38.2496 22.8492C38.23 22.7632 38.1963 22.627 38.1428 22.4468C38.0357 22.0864 37.8497 21.5507 37.5408 20.8903C36.924 19.5713 35.8146 17.7498 33.8556 15.8295C31.8968 13.9092 30.0386 12.8218 28.693 12.217C28.0193 11.9143 27.4729 11.732 27.1051 11.627C26.9214 11.5745 26.6903 11.5225 26.6027 11.5034C25.9586 11.3982 25.5063 10.7995 25.6107 10.167Z" fill="white"/>
<path fill-rule="evenodd" clip-rule="evenodd" d="M25.9687 15.5181C26.1488 14.9004 26.8056 14.5426 27.4359 14.7191L27.1099 15.8377C27.4359 14.7191 27.4359 14.7191 27.4359 14.7191L27.4383 14.7198L27.4406 14.7205L27.4459 14.722L27.4582 14.7256L27.4895 14.7351C27.5133 14.7426 27.5432 14.7523 27.5786 14.7647C27.6497 14.7894 27.7437 14.8246 27.8589 14.873C28.0894 14.9698 28.4043 15.1194 28.7914 15.3439C29.5658 15.7932 30.6231 16.5396 31.8652 17.7572C33.1074 18.9748 33.8687 20.0112 34.3271 20.7704C34.5561 21.1497 34.7086 21.4585 34.8075 21.6845C34.8569 21.7974 34.8928 21.8895 34.9179 21.9591C34.9306 21.994 34.9404 22.0232 34.9482 22.0466L34.9578 22.0773L34.9615 22.0893L34.963 22.0944L34.9637 22.0968C34.9637 22.0968 34.9645 22.0991 33.8233 22.4187L34.9645 22.0991C35.1445 22.7168 34.7795 23.3607 34.1494 23.5372C33.5245 23.7122 32.8734 23.3621 32.6868 22.7539L32.681 22.7372C32.6726 22.7139 32.6552 22.668 32.6259 22.601C32.5673 22.4671 32.4612 22.248 32.2846 21.9555C31.9317 21.3711 31.2945 20.4881 30.1868 19.4024C29.0793 18.3167 28.1785 17.692 27.5824 17.3462C27.284 17.173 27.0606 17.069 26.9238 17.0116C26.8555 16.9828 26.8087 16.9657 26.7849 16.9575L26.7678 16.9517C26.1475 16.7689 25.7902 16.1307 25.9687 15.5181Z" fill="white"/>
</svg>
