<svg width="72" height="72" viewBox="0 0 72 72" fill="none" xmlns="http://www.w3.org/2000/svg">
<path d="M36.8372 66.9767C54.4076 66.9767 68.6512 52.7331 68.6512 35.1628C68.6512 17.5924 54.4076 3.34882 36.8372 3.34882C19.2668 3.34882 5.02325 17.5924 5.02325 35.1628C5.02325 52.7331 19.2668 66.9767 36.8372 66.9767Z" stroke="#3F3D56" stroke-width="2"/>
<path d="M12.2632 41.25C11.6879 40.9792 11.4001 40.5731 11.4001 40.0315C11.4001 39.8623 11.4255 39.6931 11.4763 39.5238C11.6117 38.9146 11.8571 38.0431 12.2124 36.9092C12.5848 35.7754 12.9148 34.9208 13.2024 34.3454C13.3209 34.1423 13.414 33.9308 13.4817 33.7108C13.5494 33.4908 13.5917 33.3469 13.6086 33.2792C13.6932 32.9746 13.744 32.7969 13.7609 32.7461L13.7355 32.4923C13.7355 32.4246 13.7525 32.3569 13.7863 32.2892C13.8202 32.2215 13.8794 32.1454 13.964 32.0608C14.2009 31.8577 14.4548 31.46 14.7255 30.8677L15.6901 28.1008L15.9947 27.2377C16.0117 27.17 16.0455 27.0516 16.0963 26.8823C16.1471 26.7131 16.1724 26.5946 16.1724 26.5269C16.1724 26.4592 16.1555 26.4254 16.1217 26.4254C15.9863 26.4592 15.7155 26.4846 15.3094 26.5015C15.1063 26.5354 14.954 26.5608 14.8524 26.5777C14.7509 26.5777 14.6747 26.5861 14.624 26.6031H14.4463C14.1248 26.6031 13.964 26.4846 13.964 26.2477C14.0147 25.9431 14.1163 25.6554 14.2686 25.3846C14.4378 25.1138 14.6409 24.97 14.8778 24.9531L15.8678 24.7246C16.0201 24.6908 16.2317 24.6738 16.5024 24.6738C16.7394 24.6738 16.9847 24.6992 17.2386 24.75C17.4417 24.6146 17.5517 24.4962 17.5686 24.3946C17.6363 24.1069 17.7886 23.8785 18.0255 23.7092C18.2625 23.54 18.5078 23.4554 18.7617 23.4554C18.9647 23.4554 19.134 23.5146 19.2694 23.6331C19.4048 23.7346 19.4724 23.8954 19.4724 24.1154C19.4724 24.2169 19.464 24.2931 19.4471 24.3438C19.4471 24.3608 19.4471 24.3946 19.4471 24.4454C19.4471 24.4792 19.4978 24.4962 19.5994 24.4962C19.7686 24.4962 20.2679 24.4031 21.0971 24.2169C21.2325 24.2 21.4609 24.1831 21.7824 24.1662C22.1209 24.1323 22.4002 24.1154 22.6201 24.1154C22.9417 24.1154 23.1871 24.1408 23.3563 24.1915C23.5086 24.1577 23.644 24.1408 23.7624 24.1408C23.8809 24.1408 23.9825 24.1323 24.0671 24.1154C24.3548 24.1154 24.5325 24.09 24.6001 24.0392C24.7524 24.0731 24.9217 24.1069 25.1078 24.1408C25.3109 24.1577 25.4548 24.1831 25.5394 24.2169C25.624 24.2508 25.7002 24.2931 25.7678 24.3438C25.8186 24.4116 25.844 24.4708 25.844 24.5215C25.844 24.5723 25.8355 24.6061 25.8186 24.6231L25.7678 24.5977C25.7848 24.5977 25.8101 24.6146 25.844 24.6485C25.8947 24.6654 25.9455 24.6992 25.9963 24.75C26.1317 24.8177 26.1994 24.9869 26.1994 25.2577C26.1994 25.4608 26.1655 25.6638 26.0978 25.8669C26.0809 25.9685 26.0386 26.0446 25.9709 26.0954C25.9201 26.1292 25.7848 26.1546 25.5647 26.1715C25.3448 26.1715 25.0571 26.1631 24.7017 26.1462C24.0586 26.0616 23.5255 26.0192 23.1024 26.0192C22.5101 26.0192 21.5963 26.1038 20.3609 26.2731C20.0563 26.29 19.7686 26.3323 19.4978 26.4C19.244 26.4677 19.0832 26.51 19.0155 26.5269C18.9309 26.5269 18.804 26.6538 18.6347 26.9077C18.4655 27.1615 18.3132 27.4831 18.1778 27.8723C18.0763 28.0246 17.7632 28.7608 17.2386 30.0808C16.8324 31.0284 16.6294 31.5023 16.6294 31.5023C16.8324 31.57 17.2217 31.6038 17.7971 31.6038C18.5586 31.6038 19.6671 31.5361 21.1224 31.4008C21.7824 31.2654 22.2309 31.2146 22.4678 31.2485C22.6201 31.2654 22.7471 31.3754 22.8486 31.5785C22.9671 31.7646 23.0263 31.9762 23.0263 32.2131C23.0263 32.3823 22.9925 32.5346 22.9247 32.67C22.8571 32.8054 22.764 32.9069 22.6455 32.9746C22.2901 33.1946 21.554 33.3638 20.4371 33.4823C19.6925 33.55 18.6686 33.5838 17.3655 33.5838C16.6717 33.5838 16.2571 33.5669 16.1217 33.5331C16.0878 33.55 16.0371 33.6008 15.9694 33.6854C15.9186 33.77 15.8932 33.8715 15.8932 33.99C15.5886 34.5485 15.1571 35.5385 14.5986 36.96C14.0571 38.3815 13.7863 39.2446 13.7863 39.5492C13.6679 39.8538 13.5748 40.2008 13.5071 40.59C13.4902 40.6577 13.4648 40.7507 13.4309 40.8692C13.3971 40.9877 13.3632 41.0639 13.3294 41.0977C13.2786 41.3515 13.1094 41.4785 12.8217 41.4785C12.5848 41.4785 12.3986 41.4023 12.2632 41.25ZM23.6494 40.0823C23.5986 39.9808 23.4548 39.8454 23.2179 39.6761C22.981 39.5069 22.8625 39.4054 22.8625 39.3715C22.8625 39.3038 22.8202 39.2108 22.7356 39.0923C22.6679 38.9569 22.6002 38.8385 22.5325 38.7369C22.3971 38.6015 22.4902 38.1615 22.8117 37.4169C23.1333 36.6723 23.5648 35.7923 24.1063 34.7769C24.2079 34.6754 24.3348 34.4977 24.4871 34.2438C24.6563 33.99 24.7663 33.8461 24.8171 33.8123C24.8171 33.7446 24.8425 33.6854 24.8933 33.6346C24.944 33.5669 25.0032 33.5331 25.0709 33.5331L25.274 33.1269C25.3417 32.9746 25.6717 32.6108 26.264 32.0354C26.8563 31.46 27.3217 31.0708 27.6602 30.8677C27.9817 30.6477 28.3286 30.5377 28.7009 30.5377C29.1071 30.5377 29.454 30.6562 29.7417 30.8931L30.4271 31.4769C30.9348 31.9 31.2225 32.1454 31.2902 32.2131L32.2294 33.0508L31.7979 34.32C31.6456 34.7769 31.5694 35.2085 31.5694 35.6146C31.5694 36.2577 31.7471 36.8585 32.1025 37.4169C32.1871 37.6031 32.2971 37.7469 32.4325 37.8485C32.5848 37.95 32.7794 38.0177 33.0163 38.0515C33.3887 38.1192 33.5748 38.3054 33.5748 38.61C33.5748 38.9823 33.5071 39.2615 33.3717 39.4477C33.2363 39.6338 33.0755 39.7523 32.8894 39.8031C32.6186 39.8369 32.4325 39.8538 32.3309 39.8538C31.8402 39.8538 31.3917 39.7269 30.9856 39.4731C30.5794 39.2192 30.224 38.7877 29.9194 38.1785C29.8517 38.0769 29.7587 37.8908 29.6402 37.62C29.5386 37.3492 29.4794 37.1631 29.4625 37.0615C29.344 37.2308 29.1494 37.4507 28.8786 37.7215C27.1355 39.4815 25.7225 40.3615 24.6394 40.3615C24.2671 40.3615 23.9371 40.2684 23.6494 40.0823ZM25.0456 37.9754C25.3163 38.0092 25.8409 37.7046 26.6194 37.0615C26.704 36.9938 26.7971 36.9177 26.8986 36.8331C27.0002 36.7315 27.1102 36.63 27.2286 36.5285C27.7025 36.1392 28.0663 35.8177 28.3202 35.5638C28.591 35.2931 28.8617 34.9715 29.1325 34.5992L29.6909 33.6854C29.5217 33.3131 29.3694 33.0677 29.234 32.9492C29.0987 32.8139 28.9632 32.7461 28.8279 32.7461C28.4894 32.7461 28.0663 33.0508 27.5586 33.66C27.0509 34.2523 26.4417 35.1577 25.7309 36.3762C25.5448 36.6808 25.3925 37.0023 25.274 37.3408C25.1555 37.6623 25.0794 37.8738 25.0456 37.9754ZM37.2375 28.5323C37.1021 28.3631 37.0344 28.1262 37.0344 27.8215C37.0344 27.5508 37.0852 27.2715 37.1867 26.9838C37.2883 26.6792 37.4237 26.4169 37.5929 26.1969C37.8298 25.9092 38.1767 25.7654 38.6337 25.7654C38.9383 25.7654 39.1921 25.8415 39.3952 25.9938C39.6321 26.4 39.7506 26.7469 39.7506 27.0346C39.7506 27.2885 39.6829 27.5085 39.5475 27.6946C39.2598 28.0162 38.9552 28.2615 38.6337 28.4308C38.3121 28.6 38.016 28.6846 37.7452 28.6846C37.5252 28.6846 37.356 28.6338 37.2375 28.5323ZM33.4806 45.9208C33.1252 46.2932 32.6683 46.4792 32.1098 46.4792C31.5006 46.4792 30.9845 46.2591 30.5614 45.8192C30.2398 45.4131 30.0029 44.9985 29.8506 44.5754C29.6983 44.1523 29.6221 43.7715 29.6221 43.4331C29.6221 43.1623 29.6729 42.9423 29.7744 42.7731C29.876 42.6208 30.0198 42.5446 30.206 42.5446C30.3583 42.5446 30.5698 42.6208 30.8406 42.7731C31.0944 42.9254 31.2214 43.0861 31.2214 43.2554C31.2214 43.56 31.2552 43.7969 31.3229 43.9661C31.3737 44.1354 31.5006 44.2284 31.7037 44.2454C31.7544 44.2623 31.8221 44.2708 31.9067 44.2708C32.2283 44.2708 32.5414 44.0339 32.846 43.56C33.1337 43.1877 33.4637 42.4938 33.836 41.4785C34.2252 40.48 34.4452 39.9131 34.496 39.7777C34.6313 39.3038 34.7498 38.7792 34.8514 38.2038C34.9698 37.6284 35.046 37.2646 35.0798 37.1123L35.4098 35.3354C35.4606 34.9462 35.5283 34.5738 35.6129 34.2185C35.7144 33.8631 35.7737 33.6431 35.7906 33.5585C35.7906 33.1354 35.8498 32.8054 35.9683 32.5685C35.9683 32.3484 36.0021 32.0777 36.0698 31.7562C36.1544 31.4177 36.1967 31.2061 36.1967 31.1215C36.2645 31.0538 36.4506 31.0792 36.7552 31.1977C37.0598 31.2992 37.2798 31.4177 37.4152 31.5531C37.6183 31.7731 37.7621 31.9846 37.8467 32.1877C37.9483 32.3738 37.9991 32.7038 37.9991 33.1777C37.9991 33.4654 37.9737 33.8546 37.9229 34.3454C37.9229 34.5485 37.8383 35.0646 37.6691 35.8938C37.4998 36.7231 37.3391 37.4423 37.1867 38.0515C37.1021 38.3731 37.0429 38.5846 37.0091 38.6861C36.9075 39.0415 36.8398 39.3208 36.806 39.5238C36.789 39.6592 36.6791 40.0061 36.476 40.5646C36.2729 41.0554 36.1544 41.4023 36.1206 41.6054C36.0698 41.9608 35.8667 42.5108 35.5114 43.2554C35.3929 43.56 35.0798 44.0339 34.5721 44.6769C34.0814 45.32 33.7175 45.7346 33.4806 45.9208ZM41.7278 40.0823C41.5925 40.0823 41.3978 40.0485 41.144 39.9808C40.9071 39.9131 40.7632 39.8538 40.7124 39.8031C40.6109 39.7185 40.5094 39.5915 40.4078 39.4223C40.3063 39.2362 40.2555 39.0246 40.2555 38.7877C40.2555 38.4154 40.3909 38.0261 40.6617 37.62C40.7632 37.4169 41.017 36.7146 41.4232 35.5131L41.9309 34.1169C41.9647 33.8292 41.9478 33.6262 41.8801 33.5077C41.8124 33.3723 41.6686 33.2962 41.4486 33.2792C41.2625 33.2792 41.127 33.22 41.0424 33.1015C40.9578 32.9662 40.9155 32.7546 40.9155 32.4669C40.9663 31.9762 41.1609 31.6208 41.4994 31.4008C41.7701 31.2654 42.1424 31.1977 42.6163 31.1977C43.0394 31.1977 43.3186 31.2569 43.454 31.3754C43.5893 31.4769 43.7078 31.7054 43.8094 32.0608C43.9109 32.4161 43.987 32.7462 44.0378 33.0508C44.1224 33 44.3424 32.7715 44.6978 32.3654L45.2563 31.7815C45.544 31.5785 45.874 31.3838 46.2461 31.1977C46.6186 31.0116 46.8808 30.9185 47.0331 30.9185C47.2024 30.9185 47.4226 31.0031 47.6931 31.1723C47.964 31.3416 48.1417 31.5023 48.2261 31.6546C48.48 32.1285 48.6069 32.5177 48.6069 32.8223C48.6069 33.0592 48.5478 33.2454 48.4292 33.3808C47.9723 33.9562 47.4646 34.2438 46.9061 34.2438C46.7709 34.2438 46.6611 34.2354 46.5761 34.2185C46.4917 34.2015 46.3901 34.0831 46.2715 33.8631C46.1532 33.6431 46.0855 33.4739 46.0686 33.3554C46.0686 33.3046 45.9417 33.4061 45.6878 33.66C45.4509 33.8969 45.2986 34.0492 45.2309 34.1169L44.7994 34.5738C44.5286 34.8954 44.2493 35.3184 43.9617 35.8431C43.6909 36.3677 43.2847 37.1631 42.7432 38.2292L42.4132 39.0161C42.244 39.4054 42.117 39.6846 42.0324 39.8538C41.9478 40.0061 41.8463 40.0823 41.7278 40.0823ZM53.0584 30.0554C53.0077 30.1062 52.9569 30.1315 52.9061 30.1315C52.8383 30.1315 52.7285 30.0808 52.5761 29.9792C52.4068 29.9623 52.1783 29.8185 51.8908 29.5477C51.6198 29.2769 51.4846 29.0992 51.4846 29.0146C51.4675 28.8115 51.4846 28.5239 51.5354 28.1515C51.5861 27.7623 51.6789 27.4154 51.8146 27.1108C51.9669 26.8062 52.1612 26.6454 52.3984 26.6285C52.5166 26.6454 52.6777 26.6877 52.8808 26.7554C53.0838 26.8062 53.3123 26.8823 53.5661 26.9838C53.8874 27.6269 54.0485 28.1769 54.0485 28.6338C54.0485 29.3108 53.7184 29.7846 53.0584 30.0554ZM50.7231 40.59C50.3169 40.59 49.9615 40.3785 49.6569 39.9554C49.3689 39.5323 49.1912 39.0077 49.1238 38.3815C49.1912 37.7554 49.242 37.2984 49.2761 37.0108C49.4621 36.1815 49.6906 35.2085 49.9615 34.0915C50.2491 32.9577 50.4184 32.3315 50.4692 32.2131C50.5537 32.0608 50.6889 31.9846 50.8754 31.9846C51.0614 31.9846 51.2645 32.0608 51.4846 32.2131C51.7214 32.3484 51.9161 32.5431 52.0685 32.7969C52.2037 32.9831 52.2715 33.1946 52.2715 33.4315C52.2715 33.7869 52.1021 34.5315 51.7638 35.6654C51.5266 36.5115 51.3743 37.1123 51.3069 37.4677C51.2391 37.8231 51.2137 38.2038 51.2308 38.61C51.1629 39.3715 51.0951 39.8962 51.0277 40.1838C50.9598 40.4715 50.8583 40.6069 50.7231 40.59ZM61.8235 39.8538C61.5697 39.8538 61.3158 39.7861 61.062 39.6508C60.8081 39.5154 60.6051 39.3123 60.4528 39.0415L60.3258 38.7877C60.1228 38.2123 60.0212 37.6538 60.0212 37.1123V35.9954C60.0212 35.8092 60.0041 35.7161 59.9705 35.7161C59.8348 35.7161 59.2509 36.2662 58.2189 37.3661C57.4911 38.1277 56.8564 38.72 56.3151 39.1431C55.7903 39.5492 55.4266 39.7523 55.2235 39.7523C55.1557 39.7523 54.9951 39.6931 54.7412 39.5746C54.4874 39.4392 54.3263 39.3377 54.2589 39.27C54.1403 39.1515 54.0641 39.0077 54.0305 38.8385C53.9963 38.6692 53.9797 38.3477 53.9797 37.8738C53.9797 37.3323 54.0895 36.7231 54.3097 36.0461C54.5294 35.3523 54.9018 34.43 55.4266 33.2792C55.5618 33.0423 55.6971 32.7546 55.8328 32.4162C56.2218 31.5361 56.5855 30.9269 56.9243 30.5885C57.0595 30.5885 57.1528 30.5969 57.2035 30.6138C57.4232 30.6308 57.6771 30.7323 57.9651 30.9185C58.2697 31.1046 58.4557 31.35 58.5235 31.6546C58.5235 31.9423 58.4811 32.23 58.3966 32.5177C58.3117 32.8054 58.1174 33.1607 57.8128 33.5838C57.6263 33.8377 57.3812 34.3877 57.0766 35.2338C56.9917 35.3692 56.8735 35.5808 56.7212 35.8685C56.5855 36.1392 56.5181 36.2915 56.5181 36.3254C56.5348 36.3423 56.5855 36.3084 56.6705 36.2238C56.7549 36.1223 56.8394 36.0292 56.9243 35.9446L57.6097 35.2592C58.9463 33.9223 59.9788 33.2369 60.7066 33.2031C61.0786 33.2031 61.4086 33.3977 61.6966 33.7869C61.9841 34.1761 62.1281 34.6416 62.1281 35.1831C62.1281 35.2846 62.1111 35.5723 62.0774 36.0461V37.4931C62.4665 37.3915 62.7628 37.2984 62.9658 37.2138C63.3886 37.0615 63.8289 36.9684 64.2858 36.9346C64.2517 37.2223 64.0911 37.6031 63.8035 38.0769C63.5326 38.5508 63.2109 38.9654 62.8389 39.3208C62.4664 39.6761 62.1281 39.8538 61.8235 39.8538Z" fill="#3F3D56"/>
<path d="M42.1237 46.9477C42.1237 46.9662 42.1075 46.9754 42.0752 46.9754C42.0521 46.9754 42.0245 46.9662 41.9921 46.9477C41.9598 46.9293 41.9345 46.9039 41.916 46.8716C41.8791 46.7931 41.8606 46.6962 41.8606 46.5808L41.8675 46.297C42.0106 45.457 42.1791 44.6123 42.3729 43.7631C42.4375 43.537 42.4906 43.3223 42.5321 43.1193C42.5783 42.9162 42.606 42.787 42.6152 42.7316C42.6152 42.7177 42.6014 42.7246 42.5737 42.7523C42.5506 42.7754 42.5275 42.8054 42.5045 42.8423C42.4814 42.8746 42.4721 42.8977 42.4768 42.9116L42.3037 43.1677C42.276 43.1954 42.2114 43.3016 42.1098 43.4862C42.0406 43.6339 41.9783 43.7493 41.9229 43.8323L41.7291 44.1993C41.586 44.4623 41.4983 44.6216 41.466 44.677C41.4198 44.7462 41.3529 44.8662 41.2652 45.037C41.2191 45.1477 41.136 45.2793 41.016 45.4316C40.9791 45.4823 40.9421 45.5377 40.9052 45.5977C40.8729 45.6577 40.8521 45.697 40.8429 45.7154C40.8429 45.7385 40.7945 45.817 40.6975 45.9508C40.6052 46.0846 40.5198 46.1954 40.4414 46.2831C40.3352 46.3939 40.2475 46.4746 40.1783 46.5254C40.1091 46.5716 40.0445 46.5946 39.9845 46.5946C39.906 46.5946 39.8206 46.5508 39.7283 46.4631C39.6683 46.3985 39.6245 46.3223 39.5968 46.2346C39.5737 46.147 39.5621 46.0385 39.5621 45.9093C39.5621 45.7939 39.5783 45.6 39.6106 45.3277C39.6152 45.3046 39.6591 45.0577 39.7421 44.587C39.8298 44.1116 39.8829 43.8508 39.9014 43.8046C39.906 43.777 39.9083 43.7446 39.9083 43.7077C39.9083 43.6662 39.9014 43.6454 39.8875 43.6454C39.8737 43.6454 39.8483 43.6754 39.8114 43.7354C39.7975 43.7539 39.7145 43.8831 39.5621 44.1231C39.4145 44.3631 39.2552 44.67 39.0845 45.0439C38.8168 45.5377 38.6183 45.9093 38.4891 46.1585C38.3598 46.4031 38.2652 46.5785 38.2052 46.6846C38.1268 46.837 38.0806 46.92 38.0668 46.9339C37.9975 46.9339 37.9098 46.8762 37.8037 46.7608C37.7898 46.7331 37.7829 46.7077 37.7829 46.6846C37.7829 46.6523 37.7968 46.5993 37.8245 46.5254C37.8568 46.4516 37.9006 46.3546 37.956 46.2346C38.0991 45.9531 38.1937 45.7939 38.2398 45.757C38.2952 45.6831 38.3275 45.6023 38.3368 45.5146C38.3968 45.4316 38.4821 45.2816 38.5929 45.0646C38.6621 44.9539 38.7429 44.8154 38.8352 44.6493C38.9321 44.4831 39.0175 44.3239 39.0914 44.1716L39.2852 43.8323C39.4652 43.5185 39.6083 43.2762 39.7145 43.1054C39.8252 42.9346 39.9083 42.8216 39.9637 42.7662C40.0375 42.6785 40.0745 42.6093 40.0745 42.5585C40.0745 42.4616 40.0929 42.3739 40.1298 42.2954C40.1714 42.2123 40.2129 42.1754 40.2545 42.1846C40.3098 42.1846 40.3537 42.1916 40.386 42.2054C40.4229 42.2146 40.4598 42.2423 40.4968 42.2885C40.506 42.3023 40.5198 42.3254 40.5383 42.3577C40.5614 42.3854 40.5775 42.4177 40.5868 42.4546C40.6006 42.487 40.6075 42.5285 40.6075 42.5793C40.6075 42.6346 40.6006 42.7039 40.5868 42.787C40.5821 42.847 40.5637 42.9831 40.5314 43.1954C40.5129 43.297 40.5037 43.3593 40.5037 43.3823C40.3837 43.747 40.2752 44.2039 40.1783 44.7531C40.086 45.2977 40.0398 45.6808 40.0398 45.9023C40.0398 45.9531 40.0445 45.9877 40.0537 46.0062C40.086 46.0293 40.1137 46.0316 40.1368 46.0131C40.1645 45.9946 40.2037 45.9346 40.2545 45.8331C40.3145 45.7223 40.416 45.5793 40.5591 45.4039C40.5683 45.39 40.6583 45.2377 40.8291 44.947C41.2537 44.25 41.6668 43.5508 42.0683 42.8493L42.2483 42.5654C42.3175 42.4546 42.3845 42.3531 42.4491 42.2608C42.5137 42.1639 42.5645 42.1016 42.6014 42.0739C42.6475 42.037 42.6914 42.0185 42.7329 42.0185C42.8206 42.0185 42.8991 42.0716 42.9683 42.1777C43.0375 42.2839 43.0721 42.4177 43.0721 42.5793C43.0721 42.7039 43.0468 42.8954 42.996 43.1539C42.9452 43.4077 42.8783 43.6639 42.7952 43.9223C42.7675 44.0516 42.7283 44.2131 42.6775 44.407C42.6268 44.6008 42.5737 44.7762 42.5183 44.9331C42.5091 45.0116 42.4906 45.1108 42.4629 45.2308C42.4583 45.2539 42.4445 45.3254 42.4214 45.4454C42.4029 45.5608 42.3983 45.6393 42.4075 45.6808C42.3383 45.8054 42.3037 46.0546 42.3037 46.4285L42.2829 46.5877C42.2737 46.717 42.2645 46.8046 42.2552 46.8508C42.246 46.897 42.2321 46.9177 42.2137 46.9131C42.2045 46.9085 42.1906 46.9062 42.1721 46.9062C42.1398 46.9062 42.1237 46.92 42.1237 46.9477ZM43.271 46.3662C43.2572 46.3385 43.2341 46.3108 43.2018 46.2831C43.1741 46.2508 43.1603 46.23 43.1603 46.2208C43.1603 46.17 43.1487 46.1308 43.1256 46.1031C43.1164 46.0939 43.1118 46.0731 43.1118 46.0408C43.1118 45.967 43.1464 45.8423 43.2156 45.667C43.2895 45.487 43.3841 45.2931 43.4995 45.0854C43.5272 45.0577 43.5618 45.0093 43.6033 44.94C43.6495 44.8708 43.6795 44.8316 43.6933 44.8223C43.6933 44.8039 43.7003 44.7877 43.7141 44.7739C43.7279 44.7554 43.7441 44.7462 43.7626 44.7462V44.7046C43.7626 44.6631 43.8387 44.5639 43.991 44.407C44.1433 44.2454 44.2679 44.1346 44.3649 44.0746C44.4803 43.9962 44.5979 43.957 44.7179 43.957C44.801 43.957 44.8726 43.98 44.9326 44.0262C44.9556 44.0539 45.0618 44.1531 45.251 44.3239L45.5072 44.5523L45.3826 44.8985C45.341 45.0231 45.3203 45.1362 45.3203 45.2377C45.3203 45.4131 45.371 45.5816 45.4726 45.7431C45.4956 45.7939 45.5418 45.8423 45.611 45.8885C45.6803 45.9346 45.7495 45.9623 45.8187 45.9716C45.9203 45.99 45.971 46.0408 45.971 46.1239C45.971 46.2162 45.9295 46.2716 45.8464 46.29C45.8279 46.2946 45.8003 46.297 45.7633 46.297C45.491 46.297 45.2556 46.1054 45.0572 45.7223C45.0387 45.6946 45.0133 45.6439 44.981 45.57C44.9533 45.4962 44.9372 45.4454 44.9326 45.4177C44.9049 45.4546 44.8703 45.4985 44.8287 45.5493C44.7872 45.6 44.7479 45.6439 44.711 45.6808C44.2079 46.1839 43.811 46.4354 43.5203 46.4354C43.4279 46.4354 43.3449 46.4123 43.271 46.3662ZM43.5203 45.9785C43.5203 46.0016 43.5433 46.0085 43.5895 45.9993C43.6403 45.99 43.7003 45.967 43.7695 45.93C43.8433 45.8931 43.9172 45.8446 43.991 45.7846C44.3879 45.4431 44.6741 45.1454 44.8495 44.8916L45.0018 44.6423C44.9556 44.5454 44.9072 44.4762 44.8564 44.4346C44.8056 44.3885 44.7595 44.3654 44.7179 44.3654C44.621 44.3654 44.4687 44.4877 44.261 44.7323C44.0533 44.9723 43.8641 45.2562 43.6933 45.5839C43.6518 45.6623 43.6149 45.7431 43.5826 45.8262C43.5503 45.9046 43.5295 45.9554 43.5203 45.9785ZM46.4525 46.2416C46.3832 46.2416 46.3301 46.2254 46.2932 46.1931C46.2563 46.1608 46.2309 46.1354 46.2171 46.117C46.2078 46.0985 46.2032 46.0754 46.2032 46.0477C46.2032 46.0293 46.2194 45.9439 46.2517 45.7916L46.314 45.5631C46.3601 45.3739 46.4017 45.217 46.4386 45.0923C46.4571 44.977 46.4917 44.8546 46.5425 44.7254C46.5978 44.5962 46.6301 44.5177 46.6394 44.49C46.6763 44.3562 46.7478 44.1485 46.854 43.867L47.0617 43.3062C47.2232 42.8677 47.3201 42.6 47.3525 42.5031L47.4632 42.1985C47.4632 42.1246 47.5001 42.0877 47.574 42.0877C47.6386 42.0877 47.6917 42.1246 47.7332 42.1985C47.7794 42.2677 47.8025 42.3485 47.8025 42.4408C47.8025 42.51 47.7886 42.577 47.7609 42.6416C47.6963 42.78 47.6248 42.9554 47.5463 43.1677C47.4725 43.3754 47.424 43.5116 47.4009 43.5762C47.244 44.0193 47.1309 44.3146 47.0617 44.4623C47.0617 44.4808 47.0548 44.5131 47.0409 44.5593C47.0271 44.6054 47.0109 44.647 46.9925 44.6839L46.9163 44.8362C46.9163 44.85 46.8909 44.947 46.8401 45.127C46.7755 45.3254 46.7363 45.4708 46.7225 45.5631C46.7455 45.5216 46.794 45.4593 46.8678 45.3762C46.9417 45.2885 47.0109 45.217 47.0755 45.1616C47.3294 44.9446 47.4863 44.8154 47.5463 44.7739C47.6017 44.7416 47.6478 44.7116 47.6848 44.6839C47.7217 44.6562 47.7471 44.6377 47.7609 44.6285C47.7609 44.6054 47.7863 44.5939 47.8371 44.5939C47.8555 44.5939 47.8648 44.5916 47.8648 44.587C47.8694 44.5823 47.8717 44.5708 47.8717 44.5523C47.8717 44.52 47.9248 44.4923 48.0309 44.4693C48.1371 44.4416 48.2317 44.4277 48.3148 44.4277C48.3701 44.4277 48.414 44.4393 48.4463 44.4623C48.4786 44.4854 48.5201 44.5362 48.5709 44.6146C48.6494 44.7254 48.6886 44.8454 48.6886 44.9746C48.6886 45.0485 48.6748 45.1246 48.6471 45.2031C48.6471 45.24 48.6401 45.2977 48.6263 45.3762C48.6171 45.45 48.6125 45.5146 48.6125 45.57L48.5709 45.7916H48.6817C48.714 45.7916 48.744 45.7962 48.7717 45.8054C48.804 45.8146 48.8248 45.8216 48.834 45.8262C48.8755 45.877 48.9125 45.9023 48.9448 45.9023C48.9863 45.9023 49.0071 45.9185 49.0071 45.9508C49.0071 45.9693 48.9978 45.9923 48.9794 46.02C48.9609 46.0477 48.9355 46.0708 48.9032 46.0893C48.7832 46.1631 48.6817 46.2 48.5986 46.2C48.5201 46.2 48.4394 46.1631 48.3563 46.0893C48.2548 45.9877 48.204 45.8654 48.204 45.7223C48.204 45.6485 48.2178 45.5608 48.2455 45.4593L48.2663 45.2377C48.2755 45.127 48.2801 45.0577 48.2801 45.03C48.2801 44.9239 48.2548 44.8708 48.204 44.8708C48.1394 44.8708 48.0148 44.9285 47.8301 45.0439C47.6501 45.1546 47.4632 45.2954 47.2694 45.4662C47.0755 45.6323 46.9209 45.8008 46.8055 45.9716C46.7363 46.0593 46.6763 46.1262 46.6255 46.1723C46.5794 46.2139 46.5355 46.237 46.494 46.2416H46.4525ZM51.4431 44.047C51.48 44.1208 51.4985 44.2016 51.4985 44.2893C51.4985 44.4277 51.4615 44.5523 51.3877 44.6631C51.3415 44.7277 51.3 44.8246 51.2631 44.9539C51.2308 45.0831 51.1985 45.2562 51.1661 45.4731C51.1246 45.6485 51.0738 45.9185 51.0138 46.2831C50.94 46.477 50.8938 46.6223 50.8754 46.7193C50.8708 46.747 50.8477 46.8046 50.8061 46.8923C50.7692 46.98 50.7392 47.0493 50.7161 47.1C50.5361 47.4739 50.3308 47.76 50.1 47.9585C49.8692 48.157 49.6177 48.2654 49.3454 48.2839C49.2715 48.2931 49.2277 48.2977 49.2138 48.2977C49.1723 48.2977 49.1331 48.2908 49.0961 48.277C49.0638 48.2631 49.0269 48.2446 48.9854 48.2216C48.9669 48.2123 48.9415 48.1962 48.9092 48.1731C48.8769 48.15 48.8538 48.1316 48.84 48.1177C48.8308 48.1085 48.8261 48.097 48.8261 48.0831C48.8261 48.06 48.84 48.037 48.8677 48.0139C48.8954 47.9908 48.9392 47.9793 48.9992 47.9793C49.0315 47.9977 49.0869 48.007 49.1654 48.007C49.2438 48.007 49.29 47.9977 49.3038 47.9793C49.3131 47.97 49.3408 47.9539 49.3869 47.9308C49.4331 47.9123 49.4861 47.8962 49.5461 47.8823C49.6892 47.8131 49.8161 47.7231 49.9269 47.6123C50.0423 47.5062 50.1485 47.37 50.2454 47.2039C50.3608 47.0285 50.4369 46.8693 50.4738 46.7262C50.5154 46.6293 50.5615 46.4908 50.6123 46.3108C50.6677 46.1262 50.7115 45.96 50.7438 45.8123L50.6538 45.8954C50.6308 45.9231 50.5731 45.9646 50.4808 46.02C50.3885 46.0708 50.3331 46.0962 50.3146 46.0962C50.31 46.0962 50.3031 46.0985 50.2938 46.1031C50.2846 46.1077 50.28 46.117 50.28 46.1308C50.28 46.1493 50.22 46.1793 50.1 46.2208C49.98 46.2577 49.9038 46.2762 49.8715 46.2762C49.8254 46.2762 49.7746 46.2531 49.7192 46.207C49.6685 46.1562 49.6315 46.1077 49.6085 46.0616C49.5946 46.0293 49.5761 45.9923 49.5531 45.9508C49.53 45.9093 49.5115 45.87 49.4977 45.8331C49.4838 45.7916 49.4769 45.7454 49.4769 45.6946C49.4769 45.6346 49.4815 45.5885 49.4908 45.5562C49.5461 45.3485 49.6385 45.0554 49.7677 44.677C49.9015 44.2985 50.0031 44.0562 50.0723 43.95C50.1092 43.8993 50.1531 43.8739 50.2038 43.8739C50.2731 43.8739 50.3285 43.9108 50.37 43.9846C50.4115 44.04 50.4323 44.0862 50.4323 44.1231C50.4323 44.1508 50.4208 44.19 50.3977 44.2408C50.3746 44.2916 50.3446 44.3516 50.3077 44.4208C50.2892 44.4716 50.2661 44.527 50.2385 44.587C50.2108 44.647 50.1969 44.6839 50.1969 44.6977C50.1923 44.7162 50.1785 44.7739 50.1554 44.8708C50.1323 44.9631 50.1115 45.0093 50.0931 45.0093C50.0608 45.037 50.0261 45.1431 49.9892 45.3277C49.9523 45.5123 49.9338 45.6554 49.9338 45.757C49.9338 45.8077 49.9408 45.8331 49.9546 45.8331C50.2269 45.8331 50.5223 45.63 50.8408 45.2239C50.8823 45.0208 50.9192 44.85 50.9515 44.7116C51.0115 44.4762 51.0577 44.2662 51.09 44.0816C51.1177 44.017 51.1385 43.98 51.1523 43.9708C51.1661 43.957 51.1961 43.95 51.2423 43.95C51.2977 43.95 51.3369 43.9546 51.36 43.9639C51.3831 43.9731 51.4108 44.0008 51.4431 44.047ZM53.4425 46.6016C53.4101 46.62 53.3663 46.6131 53.3109 46.5808C53.2601 46.5485 53.2094 46.5 53.1586 46.4354C53.1217 46.3754 53.0986 46.3131 53.0894 46.2485C53.0848 46.1839 53.0825 46.05 53.0825 45.847C53.0825 45.8008 53.0732 45.7777 53.0548 45.7777C53.0409 45.7777 53.0086 45.8008 52.9578 45.847C52.9071 45.8885 52.8448 45.9462 52.7709 46.02C52.6509 46.1354 52.5401 46.2254 52.4386 46.29C52.3371 46.3546 52.254 46.3846 52.1894 46.38C52.1386 46.38 52.0832 46.3454 52.0232 46.2762C51.9678 46.207 51.924 46.1262 51.8917 46.0339C51.8778 45.9785 51.8709 45.9139 51.8709 45.84C51.8709 45.6462 51.9101 45.4108 51.9886 45.1339C52.0717 44.857 52.1663 44.6193 52.2725 44.4208C52.3832 44.2177 52.4801 44.1162 52.5632 44.1162C52.6325 44.1162 52.6971 44.1923 52.7571 44.3446C52.7709 44.3723 52.7778 44.3954 52.7778 44.4139C52.7778 44.4462 52.7594 44.4785 52.7225 44.5108C52.6532 44.5985 52.5725 44.7554 52.4801 44.9816C52.3878 45.2077 52.314 45.4177 52.2586 45.6116C52.2078 45.8054 52.1986 45.9023 52.2309 45.9023C52.2955 45.9023 52.3717 45.877 52.4594 45.8262C52.5471 45.7754 52.6348 45.7085 52.7225 45.6254C52.8101 45.5377 52.8886 45.4454 52.9578 45.3485C53.0271 45.247 53.1125 45.1108 53.214 44.94C53.4078 44.6308 53.514 44.4508 53.5325 44.4C53.6017 44.2708 53.6501 44.1877 53.6778 44.1508C53.7101 44.1093 53.7494 44.0816 53.7955 44.0677H53.8925C53.9201 44.0723 53.9525 44.0931 53.9894 44.13C54.0217 44.1439 54.0401 44.16 54.0448 44.1785C54.054 44.1923 54.0586 44.2131 54.0586 44.2408L53.9478 44.497L53.8855 44.6423C53.8809 44.6608 53.8555 44.7139 53.8094 44.8016C53.7032 45.037 53.6225 45.2262 53.5671 45.3693C53.5117 45.5123 53.4701 45.66 53.4425 45.8123C53.4378 45.8354 53.4355 45.8746 53.4355 45.93C53.4355 46.0685 53.4494 46.1654 53.4771 46.2208C53.5186 46.3039 53.5601 46.3639 53.6017 46.4008C53.6248 46.4193 53.6363 46.4377 53.6363 46.4562C53.6363 46.4885 53.6086 46.5208 53.5532 46.5531C53.5025 46.5854 53.4655 46.6016 53.4425 46.6016ZM55.9218 46.5946C55.8895 46.6085 55.8618 46.6154 55.8388 46.6154C55.8203 46.6154 55.7972 46.6062 55.7695 46.5877C55.7418 46.5693 55.7072 46.5439 55.6657 46.5116C55.6334 46.4608 55.6126 46.4146 55.6034 46.3731C55.5988 46.3316 55.5965 46.2485 55.5965 46.1239C55.6103 45.9946 55.6634 45.7662 55.7557 45.4385C55.848 45.1062 55.9149 44.8916 55.9565 44.7946C55.9749 44.7346 55.9841 44.6839 55.9841 44.6423C55.9841 44.6054 55.9726 44.5823 55.9495 44.5731C55.9265 44.5593 55.8803 44.5477 55.8111 44.5385C55.6403 44.52 55.4811 44.5731 55.3334 44.6977C55.1903 44.8223 55.0357 45.0162 54.8695 45.2793C54.7218 45.51 54.648 45.7108 54.648 45.8816C54.648 45.9139 54.6526 45.9439 54.6618 45.9716C54.6757 46.0085 54.7126 46.027 54.7726 46.027C54.8141 46.027 54.8649 46.0177 54.9249 45.9993C54.9895 45.9808 55.0449 45.9577 55.0911 45.93C55.1188 45.9162 55.2065 45.877 55.3541 45.8123C55.3818 45.8123 55.4003 45.8216 55.4095 45.84C55.4234 45.8539 55.4303 45.8839 55.4303 45.93C55.4303 45.967 55.4534 45.9946 55.4995 46.0131C55.518 46.0362 55.4903 46.08 55.4165 46.1446C55.3426 46.2046 55.2341 46.2762 55.0911 46.3593C54.9757 46.3916 54.8718 46.4077 54.7795 46.4077C54.6872 46.4077 54.5972 46.3777 54.5095 46.3177C54.3572 46.23 54.2811 46.0731 54.2811 45.847C54.2811 45.6946 54.3203 45.5054 54.3988 45.2793C54.4772 45.0946 54.5626 44.94 54.6549 44.8154C54.7518 44.6862 54.8765 44.5431 55.0288 44.3862C55.0518 44.3631 55.098 44.3331 55.1672 44.2962C55.2411 44.2546 55.3218 44.22 55.4095 44.1923C55.5572 44.1462 55.6795 44.1231 55.7765 44.1231C55.8595 44.1231 55.9334 44.1439 55.998 44.1854L56.088 44.1993C56.1249 44.1993 56.1526 44.1831 56.1711 44.1508C56.1941 44.1185 56.2288 44.0446 56.2749 43.9293L56.448 43.4723C56.4849 43.3754 56.5403 43.2277 56.6141 43.0293C56.6926 42.8308 56.7641 42.6554 56.8288 42.5031C56.8611 42.4431 56.8865 42.3808 56.9049 42.3162C56.928 42.2516 56.9465 42.2123 56.9603 42.1985H57.0918C57.1149 42.1985 57.1495 42.217 57.1957 42.2539C57.2418 42.2862 57.2718 42.3277 57.2857 42.3785C57.2857 42.4293 57.2649 42.5285 57.2234 42.6762C57.1818 42.8193 57.1241 42.9785 57.0503 43.1539C57.0134 43.2462 56.9834 43.3154 56.9603 43.3616C56.7988 43.7446 56.688 44.0308 56.628 44.22L56.5034 44.5385C56.448 44.6539 56.4157 44.7393 56.4065 44.7946C56.3741 44.9285 56.3372 45.0462 56.2957 45.1477C56.2541 45.2446 56.2311 45.3 56.2265 45.3139L56.1641 45.5008C56.0857 45.727 56.0326 45.8862 56.0049 45.9785C55.9818 46.0662 55.9703 46.1562 55.9703 46.2485C55.9703 46.3408 55.9749 46.417 55.9841 46.477C55.9841 46.5277 55.9634 46.567 55.9218 46.5946ZM58.9098 46.747C58.7945 46.7746 58.716 46.7239 58.6745 46.5946C58.6098 46.4146 58.5775 46.2254 58.5775 46.027C58.5775 45.9716 58.5798 45.9323 58.5845 45.9093L58.5983 45.7639L58.3283 45.9785C58.1806 46.1077 58.0329 46.2046 57.8852 46.2693C57.7421 46.3339 57.6106 46.3662 57.4906 46.3662C57.4121 46.3523 57.336 46.32 57.2621 46.2693C57.1929 46.2139 57.1421 46.1493 57.1098 46.0754C57.0914 46.0385 57.0821 45.9831 57.0821 45.9093C57.0821 45.7385 57.1283 45.5377 57.2206 45.307C57.3129 45.0716 57.4283 44.8777 57.5668 44.7254C57.7652 44.4254 57.9868 44.2754 58.2314 44.2754C58.3468 44.2754 58.4621 44.31 58.5775 44.3793C58.6929 44.4254 58.7598 44.4485 58.7783 44.4485C58.806 44.4485 58.8268 44.437 58.8406 44.4139C58.8545 44.3908 58.8683 44.3493 58.8821 44.2893C58.9329 44.077 58.9814 43.8993 59.0275 43.7562C59.1291 43.4516 59.2168 43.207 59.2906 43.0223C59.3645 42.8377 59.4545 42.6346 59.5606 42.4131C59.6068 42.3162 59.646 42.2539 59.6783 42.2262C59.7152 42.1939 59.7545 42.18 59.796 42.1846C59.8975 42.1846 59.976 42.2539 60.0314 42.3923C60.0452 42.4246 60.0522 42.457 60.0522 42.4893C60.0522 42.5216 60.0383 42.5654 60.0106 42.6208C59.8906 42.8285 59.7429 43.1677 59.5675 43.6385C59.3921 44.1093 59.256 44.5177 59.1591 44.8639C59.1175 45.0162 59.0806 45.2354 59.0483 45.5216C59.0206 45.8077 59.0068 46.0454 59.0068 46.2346C59.0068 46.3177 59.0114 46.3777 59.0206 46.4146C59.0437 46.4931 59.0552 46.5623 59.0552 46.6223C59.0552 46.6685 59.0437 46.6985 59.0206 46.7123C58.9975 46.7308 58.9606 46.7423 58.9098 46.747ZM57.7398 45.9785C57.846 45.9554 57.9752 45.8862 58.1275 45.7708C58.1552 45.7523 58.2221 45.7039 58.3283 45.6254C58.4345 45.547 58.5152 45.4639 58.5706 45.3762C58.626 45.2885 58.6652 45.1893 58.6883 45.0785C58.6929 44.9954 58.6837 44.9285 58.6606 44.8777C58.6421 44.8223 58.6029 44.7693 58.5429 44.7185C58.4968 44.6862 58.4391 44.67 58.3698 44.67C58.2452 44.67 58.1298 44.7208 58.0237 44.8223C57.8991 44.9331 57.7883 45.0762 57.6914 45.2516C57.5945 45.427 57.5206 45.63 57.4698 45.8608C57.456 45.9485 57.5021 45.9923 57.6083 45.9923C57.6637 45.9923 57.7075 45.9877 57.7398 45.9785ZM60.9628 43.6523C60.8751 43.6523 60.7851 43.6062 60.6928 43.5139C60.6051 43.417 60.5612 43.3177 60.5612 43.2162C60.5612 43.1931 60.5889 43.14 60.6443 43.057C60.6997 42.9739 60.7274 42.9277 60.7274 42.9185C60.7597 42.9185 60.7874 42.9208 60.8105 42.9254C60.8335 42.93 60.8612 42.9393 60.8935 42.9531C60.9351 43.0454 60.9997 43.14 61.0874 43.237C61.1151 43.2739 61.1405 43.3085 61.1635 43.3408C61.1866 43.3731 61.1981 43.4008 61.1981 43.4239C61.1981 43.5023 61.1935 43.5554 61.1843 43.5831C61.1797 43.6108 61.1612 43.6293 61.1289 43.6385C61.1012 43.6477 61.0458 43.6523 60.9628 43.6523ZM59.9451 46.2762C59.9312 46.2762 59.9128 46.2716 59.8897 46.2623C59.8666 46.2531 59.8505 46.2462 59.8412 46.2416C59.8412 46.2277 59.8343 46.2046 59.8205 46.1723C59.8112 46.1354 59.8066 46.1123 59.8066 46.1031C59.7697 46.0846 59.7512 46.0616 59.7512 46.0339C59.7512 46.0108 59.7581 45.9785 59.772 45.937C59.832 45.8308 59.9381 45.5908 60.0905 45.217C60.2428 44.8385 60.3281 44.6146 60.3466 44.5454C60.3466 44.527 60.3535 44.5039 60.3674 44.4762C60.3812 44.4485 60.3974 44.4254 60.4158 44.407C60.4343 44.3885 60.4551 44.3793 60.4781 44.3793C60.5289 44.3793 60.5751 44.4139 60.6166 44.4831C60.6628 44.5523 60.6858 44.6285 60.6858 44.7116C60.6858 44.767 60.6328 44.9262 60.5266 45.1893C60.4251 45.4477 60.3097 45.7085 60.1805 45.9716C60.162 46.0085 60.1343 46.0616 60.0974 46.1308C60.0651 46.2 60.0397 46.2416 60.0212 46.2554C60.0028 46.2693 59.9774 46.2762 59.9451 46.2762ZM63.2511 46.5323C63.1818 46.5323 63.1103 46.4793 63.0365 46.3731C62.9672 46.2623 62.9326 46.1539 62.9326 46.0477C62.9326 45.9739 62.9488 45.8423 62.9811 45.6531C63.018 45.4593 63.0618 45.27 63.1126 45.0854C63.1403 45.0023 63.1541 44.9423 63.1541 44.9054C63.1541 44.8823 63.1449 44.8708 63.1265 44.8708C63.108 44.8708 63.0526 44.8985 62.9603 44.9539C62.8126 45.0323 62.7111 45.1039 62.6557 45.1685C62.6326 45.187 62.5957 45.2193 62.5449 45.2654C62.4942 45.3116 62.448 45.3485 62.4065 45.3762C62.3188 45.4454 62.2011 45.547 62.0534 45.6808C61.9103 45.81 61.7926 45.9208 61.7003 46.0131C61.6726 46.0639 61.6334 46.0893 61.5826 46.0893C61.5688 46.0893 61.548 46.0846 61.5203 46.0754C61.4649 46.0616 61.4165 46.0316 61.3749 45.9854C61.3334 45.9346 61.3126 45.8816 61.3126 45.8262C61.3126 45.757 61.3518 45.6116 61.4303 45.39C61.5134 45.1685 61.6149 44.9262 61.7349 44.6631C61.7534 44.6308 61.7695 44.5846 61.7834 44.5246C61.7972 44.46 61.8041 44.4 61.8041 44.3446C61.8041 44.3123 61.8111 44.2754 61.8249 44.2339C61.8388 44.1923 61.8549 44.1623 61.8734 44.1439C61.8872 44.1208 61.908 44.1093 61.9357 44.1093C61.9957 44.1093 62.0465 44.1439 62.088 44.2131C62.1618 44.2823 62.1988 44.37 62.1988 44.4762C62.1988 44.5639 62.1734 44.677 62.1226 44.8154C62.0903 44.88 62.0649 44.9331 62.0465 44.9746C62.0326 45.0116 62.0234 45.037 62.0188 45.0508C62.0326 45.0508 62.0926 45.0185 62.1988 44.9539L62.3718 44.85L62.5795 44.6908C62.6857 44.6077 62.7457 44.5662 62.7595 44.5662C62.778 44.5662 62.8011 44.5593 62.8288 44.5454C62.8565 44.5316 62.8795 44.5154 62.898 44.497C62.9118 44.4831 62.9234 44.4739 62.9326 44.4693C62.9465 44.4646 62.9557 44.4623 62.9603 44.4623C62.9649 44.4623 62.9765 44.46 62.9949 44.4554C63.0134 44.4508 63.0295 44.4416 63.0434 44.4277C63.0618 44.4093 63.0941 44.4 63.1403 44.4C63.2049 44.4 63.2695 44.4208 63.3341 44.4623C63.3988 44.5039 63.4311 44.55 63.4311 44.6008C63.4311 44.6146 63.4357 44.6285 63.4449 44.6423C63.4541 44.6516 63.4611 44.6585 63.4657 44.6631C63.4841 44.6631 63.5003 44.6885 63.5141 44.7393C63.528 44.7854 63.5349 44.8431 63.5349 44.9123C63.5349 45.0139 63.5234 45.0993 63.5003 45.1685C63.5003 45.2193 63.4911 45.2839 63.4726 45.3623C63.4541 45.4408 63.4426 45.4916 63.438 45.5146L63.3965 45.6946C63.3365 45.8793 63.3065 46.0316 63.3065 46.1516C63.3065 46.2439 63.3249 46.3154 63.3618 46.3662C63.3711 46.3846 63.3757 46.4031 63.3757 46.4216C63.3757 46.4493 63.3641 46.4746 63.3411 46.4977C63.3226 46.5208 63.2926 46.5323 63.2511 46.5323Z" fill="#3F3D56"/>
</svg>
