<svg width="650" height="495" viewBox="0 0 650 495" fill="none" xmlns="http://www.w3.org/2000/svg">
<path d="M80.2208 384.953C63.0965 232.772 -57.3013 258.75 33.6284 89.28C111.048 -55.0103 171.896 89.28 333.167 31.1762C370.137 34.3301 554.943 -63.7604 628.748 72.7405C676.011 160.152 636.883 244.391 585.095 355.104C520.361 493.494 431.3 403.753 333.167 464.21C259.622 509.519 95.5035 520.769 80.2208 384.953Z" fill="#8F88FF"/>
<path d="M521.441 328.379C520.982 345.526 518.106 362.522 512.9 378.868C512.781 379.247 512.657 379.621 512.532 380H480.659C480.693 379.66 480.727 379.281 480.761 378.868C482.886 354.461 495.139 205.915 480.489 180.512C481.77 182.573 523.912 250.828 521.441 328.379Z" fill="#E6E6E6"/>
<path d="M519.049 378.868C518.783 379.247 518.505 379.626 518.222 380H494.311C494.493 379.677 494.703 379.298 494.946 378.868C498.896 371.746 510.588 350.453 521.441 328.379C533.105 304.657 543.805 280.035 542.903 271.124C543.181 273.134 551.251 334.402 519.049 378.868Z" fill="#E6E6E6"/>
<path d="M153.37 354.406C153.596 362.825 155.007 371.17 157.563 379.195C157.622 379.381 157.683 379.565 157.744 379.751H173.393C173.377 379.584 173.36 379.398 173.343 379.195C172.3 367.212 166.284 294.28 173.477 281.807C172.848 282.819 152.157 316.331 153.37 354.406Z" fill="#E6E6E6"/>
<path d="M154.544 379.195C154.675 379.381 154.811 379.568 154.951 379.751H166.69C166.601 379.593 166.498 379.406 166.378 379.195C164.439 375.698 158.699 365.244 153.37 354.406C147.644 342.759 142.39 330.671 142.833 326.296C142.696 327.282 138.734 357.364 154.544 379.195Z" fill="#E6E6E6"/>
<path d="M452.74 379.956H289.368C288.566 379.955 287.797 379.636 287.23 379.069C286.663 378.503 286.343 377.735 286.343 376.933V336.45C286.343 335.649 286.663 334.881 287.23 334.314C287.797 333.747 288.566 333.429 289.368 333.428H452.74C453.542 333.429 454.311 333.747 454.878 334.314C455.445 334.881 455.764 335.649 455.765 336.45V376.933C455.764 377.735 455.445 378.503 454.878 379.069C454.311 379.636 453.542 379.955 452.74 379.956V379.956ZM289.368 334.637C288.887 334.637 288.425 334.828 288.085 335.168C287.745 335.508 287.553 335.969 287.553 336.45V376.933C287.553 377.414 287.745 377.875 288.085 378.215C288.425 378.555 288.887 378.746 289.368 378.747H452.74C453.221 378.746 453.682 378.555 454.023 378.215C454.363 377.875 454.554 377.414 454.555 376.933V336.45C454.554 335.969 454.363 335.508 454.023 335.168C453.682 334.828 453.221 334.637 452.74 334.637H289.368Z" fill="#E6E6E6"/>
<path d="M314.753 367.449C321.559 367.449 327.076 361.938 327.076 355.138C327.076 348.339 321.559 342.827 314.753 342.827C307.946 342.827 302.429 348.339 302.429 355.138C302.429 361.938 307.946 367.449 314.753 367.449Z" fill="#E6E6E6"/>
<path d="M343.215 346.931C342.671 346.932 342.149 347.148 341.765 347.533C341.38 347.918 341.164 348.439 341.164 348.983C341.164 349.526 341.38 350.048 341.765 350.432C342.149 350.817 342.671 351.034 343.215 351.035H440.045C440.59 351.035 441.112 350.818 441.498 350.434C441.883 350.049 442.099 349.527 442.099 348.983C442.099 348.439 441.883 347.917 441.498 347.532C441.112 347.147 440.59 346.931 440.045 346.931H343.215Z" fill="#E6E6E6"/>
<path d="M343.215 359.242C342.67 359.242 342.148 359.458 341.762 359.843C341.377 360.228 341.161 360.75 341.161 361.294C341.161 361.838 341.377 362.36 341.762 362.745C342.148 363.13 342.67 363.346 343.215 363.346H384.881C385.426 363.346 385.948 363.13 386.334 362.745C386.719 362.36 386.935 361.838 386.935 361.294C386.935 360.75 386.719 360.228 386.334 359.843C385.948 359.458 385.426 359.242 384.881 359.242H343.215Z" fill="#E6E6E6"/>
<path d="M493.545 319.944H330.173C329.371 319.943 328.602 319.624 328.035 319.058C327.468 318.491 327.148 317.723 327.148 316.922V276.438C327.148 275.637 327.468 274.869 328.035 274.302C328.602 273.736 329.371 273.417 330.173 273.416H493.545C494.347 273.417 495.116 273.736 495.683 274.302C496.25 274.869 496.569 275.637 496.57 276.438V316.922C496.569 317.723 496.25 318.491 495.683 319.058C495.116 319.624 494.347 319.943 493.545 319.944V319.944ZM330.173 274.625C329.692 274.625 329.23 274.817 328.89 275.157C328.55 275.497 328.358 275.958 328.358 276.438V316.922C328.358 317.403 328.55 317.864 328.89 318.203C329.23 318.543 329.692 318.735 330.173 318.735H493.545C494.026 318.735 494.487 318.543 494.828 318.203C495.168 317.864 495.359 317.403 495.36 316.922V276.438C495.359 275.958 495.168 275.497 494.828 275.157C494.487 274.817 494.026 274.625 493.545 274.625H330.173Z" fill="#E6E6E6"/>
<path d="M355.558 307.438C362.364 307.438 367.881 301.926 367.881 295.127C367.881 288.328 362.364 282.816 355.558 282.816C348.751 282.816 343.234 288.328 343.234 295.127C343.234 301.926 348.751 307.438 355.558 307.438Z" fill="#E6E6E6"/>
<path d="M384.02 286.919C383.476 286.92 382.954 287.137 382.57 287.522C382.185 287.906 381.969 288.428 381.969 288.971C381.969 289.515 382.185 290.036 382.57 290.421C382.954 290.806 383.476 291.022 384.02 291.023H480.85C481.395 291.023 481.917 290.807 482.303 290.422C482.688 290.037 482.904 289.515 482.904 288.971C482.904 288.427 482.688 287.905 482.303 287.52C481.917 287.136 481.395 286.919 480.85 286.919H384.02Z" fill="#E6E6E6"/>
<path d="M384.02 299.23C383.475 299.23 382.953 299.447 382.567 299.831C382.182 300.216 381.966 300.738 381.966 301.282C381.966 301.826 382.182 302.348 382.567 302.733C382.953 303.118 383.475 303.334 384.02 303.334H425.686C426.231 303.334 426.753 303.118 427.139 302.733C427.524 302.348 427.74 301.826 427.74 301.282C427.74 300.738 427.524 300.216 427.139 299.831C426.753 299.447 426.231 299.23 425.686 299.23H384.02Z" fill="#E6E6E6"/>
<path d="M461.807 218.604H298.436C297.634 218.603 296.865 218.284 296.297 217.717C295.73 217.151 295.411 216.383 295.41 215.581V76.0223C295.411 75.221 295.73 74.4528 296.297 73.8862C296.865 73.3197 297.634 73.0009 298.436 73H461.807C462.61 73.0009 463.378 73.3197 463.946 73.8862C464.513 74.4528 464.832 75.221 464.833 76.0223V215.581C464.832 216.383 464.513 217.151 463.946 217.717C463.378 218.284 462.61 218.603 461.807 218.604V218.604ZM298.436 74.2089C297.954 74.2094 297.493 74.4006 297.153 74.7406C296.812 75.0806 296.621 75.5415 296.62 76.0223V215.581C296.621 216.062 296.812 216.523 297.153 216.863C297.493 217.203 297.954 217.394 298.436 217.395H461.807C462.289 217.394 462.75 217.203 463.09 216.863C463.431 216.523 463.622 216.062 463.623 215.581V76.0223C463.622 75.5415 463.431 75.0805 463.09 74.7406C462.75 74.4006 462.289 74.2094 461.807 74.2089L298.436 74.2089Z" fill="#E6E6E6"/>
<path d="M323.82 206.097C330.627 206.097 336.144 200.586 336.144 193.786C336.144 186.987 330.627 181.475 323.82 181.475C317.014 181.475 311.496 186.987 311.496 193.786C311.496 200.586 317.014 206.097 323.82 206.097Z" fill="#E6E6E6"/>
<path d="M352.283 185.579C351.738 185.579 351.215 185.795 350.83 186.18C350.445 186.565 350.229 187.087 350.229 187.631C350.229 188.175 350.445 188.697 350.83 189.082C351.215 189.467 351.738 189.683 352.283 189.683H449.113C449.658 189.683 450.18 189.467 450.565 189.082C450.951 188.697 451.167 188.175 451.167 187.631C451.167 187.087 450.951 186.565 450.565 186.18C450.18 185.795 449.658 185.579 449.113 185.579H352.283Z" fill="#E6E6E6"/>
<path d="M352.283 197.89C351.738 197.89 351.215 198.106 350.83 198.491C350.445 198.876 350.229 199.398 350.229 199.942C350.229 200.486 350.445 201.008 350.83 201.393C351.215 201.778 351.738 201.994 352.283 201.994H393.949C394.494 201.994 395.016 201.778 395.401 201.393C395.787 201.008 396.003 200.486 396.003 199.942C396.003 199.398 395.787 198.876 395.401 198.491C395.016 198.106 394.494 197.89 393.949 197.89H352.283Z" fill="#E6E6E6"/>
<path d="M194.172 233.103L195.973 247.427C196.119 248.593 196.537 249.708 197.193 250.684C197.848 251.66 198.723 252.469 199.748 253.047C200.773 253.624 201.919 253.954 203.094 254.01C204.269 254.066 205.441 253.846 206.516 253.368V253.368C207.469 252.945 208.324 252.328 209.026 251.557C209.729 250.786 210.263 249.878 210.596 248.89C210.929 247.903 211.053 246.857 210.96 245.818C210.867 244.78 210.56 243.773 210.057 242.859L202.483 229.103L200.007 169.958L183.992 173.689L194.172 233.103Z" fill="#FFB8B8"/>
<path d="M254.157 365.88L241.689 367.013L234.321 264.54L234.038 290.866L206.835 363.333L196.067 354.841L213.919 282.657L205.418 242.46H260.958L254.157 365.88Z" fill="#2F2E41"/>
<path d="M266.521 379.729L243.343 379.164C242.398 379.233 241.45 379.088 240.57 378.739C239.689 378.391 238.899 377.848 238.258 377.151C237.618 376.455 237.143 375.622 236.87 374.716C236.597 373.81 236.532 372.854 236.681 371.92L237.631 365.958C237.812 364.821 238.373 363.779 239.222 363C240.072 362.222 241.16 361.754 242.31 361.671V361.671C246.266 365.761 250.358 365.157 254.558 360.796L264.113 370.479L265.54 370.288C266.669 370.136 267.814 370.394 268.768 371.016C269.722 371.637 270.422 372.579 270.738 373.672C270.935 374.351 270.978 375.066 270.863 375.763C270.749 376.461 270.479 377.124 270.075 377.705C269.671 378.285 269.142 378.768 268.527 379.118C267.912 379.469 267.227 379.677 266.521 379.729V379.729Z" fill="#2F2E41"/>
<path d="M213.727 378.963L190.482 370.202C189.535 369.845 188.681 369.279 187.984 368.546C187.287 367.812 186.765 366.931 186.457 365.967C186.149 365.004 186.063 363.984 186.206 362.982C186.348 361.981 186.716 361.025 187.281 360.186L190.885 354.83C191.572 353.809 192.586 353.049 193.76 352.676C194.934 352.303 196.2 352.337 197.352 352.774V352.774C199.348 358.517 203.589 359.769 209.625 357.425L215.554 368.911L217.024 369.366C218.187 369.726 219.181 370.491 219.827 371.522C220.473 372.553 220.727 373.781 220.543 374.983C220.428 375.73 220.148 376.442 219.723 377.067C219.297 377.692 218.738 378.215 218.084 378.596C217.431 378.978 216.701 379.209 215.947 379.272C215.193 379.336 214.434 379.23 213.727 378.963Z" fill="#2F2E41"/>
<path d="M234.321 114.511C242.459 114.511 249.057 107.921 249.057 99.7911C249.057 91.6616 242.459 85.0713 234.321 85.0713C226.183 85.0713 219.586 91.6616 219.586 99.7911C219.586 107.921 226.183 114.511 234.321 114.511Z" fill="#FFB8B8"/>
<path d="M236.022 126.966L210.518 126.4C217.526 118.655 221.783 110.575 222.42 102.056H236.022V126.966Z" fill="#FFB8B8"/>
<path d="M262.658 250.386C238.584 244.216 215.996 240.057 202.017 247.556C204.466 221.846 201.634 189.028 193.234 154.727C190.505 143.586 192.356 133.547 202.301 127.815L215.619 120.172L236.022 120.739L246.667 126.622C251.872 129.22 256.086 133.444 258.669 138.653C261.253 143.862 262.063 149.771 260.979 155.482C255.259 185.549 258.35 217.999 262.658 250.386Z" fill="#3F3D56"/>
<path d="M267.759 232.27L269.756 246.567C269.919 247.731 269.806 248.917 269.428 250.03C269.049 251.143 268.415 252.152 267.577 252.976C266.738 253.8 265.718 254.417 264.598 254.777C263.478 255.136 262.289 255.229 261.127 255.048V255.048C260.096 254.887 259.11 254.514 258.23 253.953C257.351 253.391 256.598 252.654 256.02 251.787C255.441 250.92 255.048 249.942 254.867 248.916C254.686 247.889 254.72 246.836 254.967 245.824L258.691 230.571L245.656 172.824L262.091 172.258L267.759 232.27Z" fill="#FFB8B8"/>
<path d="M207.685 178.486L181.048 176.787C183.129 150.611 189.052 136.301 198.05 131.495L207.685 142.818V178.486Z" fill="#3F3D56"/>
<path d="M244.523 94.6958C239.331 93.0367 236.637 103.671 228.937 110.265C227.187 111.764 222.82 105.919 221.286 107.717L218.807 100.178C215.865 91.2331 221.166 81.4819 230.384 79.5165C230.628 79.4643 230.875 79.4175 231.124 79.376C235.144 78.7069 239.27 79.5455 242.709 81.7307C246.148 83.9159 248.657 87.2935 249.754 91.2145C249.829 91.5002 249.845 91.7981 249.802 92.0903C249.758 92.3825 249.656 92.6628 249.501 92.9144C249.346 93.1659 249.142 93.3835 248.9 93.5538C248.658 93.7242 248.385 93.8438 248.096 93.9055L244.523 94.6958Z" fill="#2F2E41"/>
<path d="M267.759 173.39L242.822 179.052L241.689 138.289L255.857 138.855L267.759 173.39Z" fill="#3F3D56"/>
<path d="M540.376 378.868H122V380H540.376V378.868Z" fill="#3F3D56"/>
<path d="M500.623 169.927H337.251C336.449 169.926 335.68 169.608 335.113 169.041C334.545 168.474 334.226 167.706 334.225 166.905V95.2834C334.226 94.4821 334.545 93.7139 335.113 93.1473C335.68 92.5808 336.449 92.262 337.251 92.2611H500.623C501.425 92.2621 502.194 92.5808 502.761 93.1473C503.328 93.7139 503.647 94.4821 503.648 95.2834V166.905C503.647 167.706 503.328 168.474 502.761 169.041C502.194 169.608 501.425 169.926 500.623 169.927Z" fill="#6C63FF"/>
<path d="M370.522 117.225C370.251 117.225 369.984 117.278 369.734 117.381C369.485 117.483 369.258 117.634 369.067 117.825C368.876 118.016 368.724 118.242 368.621 118.491C368.517 118.74 368.464 119.007 368.464 119.277C368.464 119.547 368.517 119.814 368.621 120.063C368.724 120.312 368.876 120.539 369.067 120.729C369.258 120.92 369.485 121.071 369.734 121.174C369.984 121.277 370.251 121.329 370.522 121.329H467.352C467.897 121.329 468.419 121.113 468.804 120.728C469.189 120.343 469.406 119.821 469.406 119.277C469.406 118.733 469.189 118.211 468.804 117.826C468.419 117.441 467.897 117.225 467.352 117.225H370.522Z" fill="white"/>
<path d="M370.522 129.114C370.251 129.114 369.984 129.167 369.734 129.27C369.485 129.372 369.258 129.524 369.067 129.714C368.876 129.905 368.724 130.131 368.621 130.38C368.517 130.629 368.464 130.896 368.464 131.166C368.464 131.436 368.517 131.703 368.621 131.952C368.724 132.201 368.876 132.428 369.067 132.618C369.258 132.809 369.485 132.96 369.734 133.063C369.984 133.166 370.251 133.219 370.522 133.218H467.352C467.897 133.218 468.419 133.002 468.804 132.617C469.189 132.232 469.406 131.71 469.406 131.166C469.406 130.622 469.189 130.1 468.804 129.715C468.419 129.331 467.897 129.114 467.352 129.114H370.522Z" fill="white"/>
<path d="M370.522 140.859C369.977 140.859 369.454 141.075 369.069 141.46C368.684 141.845 368.468 142.367 368.468 142.911C368.468 143.455 368.684 143.977 369.069 144.362C369.454 144.747 369.977 144.963 370.522 144.963H412.188C412.733 144.963 413.255 144.747 413.64 144.362C414.026 143.977 414.242 143.455 414.242 142.911C414.242 142.367 414.026 141.845 413.64 141.46C413.255 141.075 412.733 140.859 412.188 140.859H370.522Z" fill="white"/>
</svg>
