<svg width="231" height="329" viewBox="0 0 231 329" fill="none" xmlns="http://www.w3.org/2000/svg">
<path d="M89.9867 277.066L80.8013 225.78L109.892 224.36V277.066H129.797L149.702 220.426" stroke="#B3B3B3" stroke-miterlimit="10"/>
<path d="M123.689 271.703H96.0943C81.7279 271.703 70.0817 283.346 70.0817 297.709V302.338C70.0817 316.701 81.7279 328.344 96.0943 328.344H123.689C138.055 328.344 149.701 316.701 149.701 302.338V297.709C149.701 283.346 138.055 271.703 123.689 271.703Z" fill="#121D50"/>
<path opacity="0.05" d="M122.145 271.703H99.1815C91.6754 271.726 84.4833 274.717 79.1756 280.023C73.868 285.329 70.8761 292.52 70.8535 300.024V300.024C70.8535 300.671 70.8535 301.3 70.9298 301.929C71.4349 294.775 74.6281 288.077 79.8683 283.179C85.1085 278.281 92.0079 275.546 99.1815 275.523H122.145C129.319 275.546 136.218 278.281 141.458 283.179C146.699 288.077 149.892 294.775 150.397 301.929C150.397 301.3 150.473 300.662 150.473 300.024C150.451 292.52 147.459 285.329 142.151 280.023C136.843 274.717 129.651 271.726 122.145 271.703V271.703Z" fill="black"/>
<path d="M230.674 118.424C230.674 183.828 176.019 236.849 117.829 236.849C59.6385 236.849 0 183.828 0 118.424C0 53.0204 59.6385 0 117.838 0C176.038 0 230.674 53.0204 230.674 118.424Z" fill="url(#paint0_linear)"/>
<path d="M225.272 118.424C225.272 180.77 173.18 231.305 117.705 231.305C62.2303 231.305 5.38354 180.77 5.38354 118.424C5.38354 56.0782 62.2493 5.58209 117.714 5.58209C173.18 5.58209 225.272 56.0686 225.272 118.424Z" fill="#121D50"/>
<path d="M125.432 235.267H100.478V243.983H125.432V235.267Z" fill="#121D50"/>
<g opacity="0.2">
<path opacity="0.2" d="M117.715 5.15344C116.39 5.15344 115.075 5.15343 113.751 5.24869C167.71 7.5825 217.354 57.1736 217.354 118.034C217.354 178.894 167.71 228.485 113.789 230.819C115.113 230.876 116.438 230.914 117.753 230.914C173.218 230.914 225.319 180.38 225.319 118.034C225.319 55.6876 173.18 5.15344 117.715 5.15344Z" fill="black"/>
</g>
<g opacity="0.2">
<path opacity="0.2" d="M11.739 118.424C11.739 56.9736 67.004 6.97285 121.678 5.58209C120.887 5.58209 120.096 5.58209 119.306 5.58209C63.8405 5.58209 6.98425 56.1163 6.98425 118.462C6.98425 180.809 63.831 231.343 119.296 231.343C120.087 231.343 120.878 231.343 121.669 231.343C66.9754 229.857 11.739 179.904 11.739 118.424Z" fill="white"/>
</g>
<path d="M150.006 215.463H78.2952V238.83H150.006V215.463Z" fill="#121D50"/>
<path opacity="0.2" d="M78.2952 13.7647C78.2952 13.7647 -6.87964 111.099 78.2952 223.084L106.423 222.989C106.423 222.989 28.7758 130.474 102.86 6.75378L89.0147 9.90681L78.2952 13.7647Z" fill="white"/>
<path opacity="0.2" d="M152.379 12.2502C152.379 12.2502 237.554 111.07 152.379 223.055L124.251 222.96C124.251 222.96 201.898 129.608 127.815 5.91553L141.679 8.68751L152.379 12.2502Z" fill="white"/>
<defs>
<linearGradient id="paint0_linear" x1="210059" y1="107240" x2="210059" y2="48350.3" gradientUnits="userSpaceOnUse">
<stop stop-color="#808080" stop-opacity="0.25"/>
<stop offset="0.54" stop-color="#808080" stop-opacity="0.12"/>
<stop offset="1" stop-color="#808080" stop-opacity="0.1"/>
</linearGradient>
</defs>
</svg>
