<svg width="340" height="222" viewBox="0 0 340 222" fill="none" xmlns="http://www.w3.org/2000/svg">
<path d="M189.392 0.151978H0.115601V98.5039H189.392V0.151978Z" fill="#F2F2F2"/>
<path d="M189.277 0H0V11.4017H189.277V0Z" fill="#E6E6E6"/>
<path d="M185.849 16.0246H4.39594V93.3196H185.849V16.0246Z" fill="white"/>
<path d="M17.9361 7.55778C18.9887 7.55778 19.842 6.71336 19.842 5.67171C19.842 4.63007 18.9887 3.78564 17.9361 3.78564C16.8836 3.78564 16.0303 4.63007 16.0303 5.67171C16.0303 6.71336 16.8836 7.55778 17.9361 7.55778Z" fill="white"/>
<path d="M25.1704 7.55778C26.223 7.55778 27.0762 6.71336 27.0762 5.67171C27.0762 4.63007 26.223 3.78564 25.1704 3.78564C24.1178 3.78564 23.2645 4.63007 23.2645 5.67171C23.2645 6.71336 24.1178 7.55778 25.1704 7.55778Z" fill="white"/>
<path d="M10.683 7.55778C11.7356 7.55778 12.5889 6.71336 12.5889 5.67171C12.5889 4.63007 11.7356 3.78564 10.683 3.78564C9.63044 3.78564 8.77716 4.63007 8.77716 5.67171C8.77716 6.71336 9.63044 7.55778 10.683 7.55778Z" fill="white"/>
<path d="M149.427 38.6755H45.0852V43.2776H149.427V38.6755Z" fill="#F2F2F2"/>
<path d="M82.2878 50.1807H45.0852V54.7827H82.2878V50.1807Z" fill="#F2F2F2"/>
<path d="M119.2 61.6856H45.0852V66.2877H119.2V61.6856Z" fill="#F2F2F2"/>
<path d="M221.092 128.961H42.9719V221.516H221.092V128.961Z" fill="#F2F2F2"/>
<path d="M220.984 128.818H42.863V139.548H220.984V128.818Z" fill="#E6E6E6"/>
<path d="M217.759 143.278H46.7276V216.803H217.759V143.278Z" fill="white"/>
<path d="M59.7419 135.93C60.7325 135.93 61.5355 135.136 61.5355 134.155C61.5355 133.175 60.7325 132.38 59.7419 132.38C58.7514 132.38 57.9484 133.175 57.9484 134.155C57.9484 135.136 58.7514 135.93 59.7419 135.93Z" fill="white"/>
<path d="M66.5499 135.93C67.5405 135.93 68.3435 135.136 68.3435 134.155C68.3435 133.175 67.5405 132.38 66.5499 132.38C65.5594 132.38 64.7564 133.175 64.7564 134.155C64.7564 135.136 65.5594 135.93 66.5499 135.93Z" fill="white"/>
<path d="M52.9164 135.93C53.9069 135.93 54.7099 135.136 54.7099 134.155C54.7099 133.175 53.9069 132.38 52.9164 132.38C51.9259 132.38 51.1229 133.175 51.1229 134.155C51.1229 135.136 51.9259 135.93 52.9164 135.93Z" fill="white"/>
<path d="M340 40.5618H128.718V150.348H340V40.5618Z" fill="#E6E6E6"/>
<path d="M339.871 40.392H128.589V53.1193H339.871V40.392Z" fill="#121D50"/>
<path d="M334.917 57.0286H133.461V144.221H334.917V57.0286Z" fill="white"/>
<path d="M148.61 48.8286C149.785 48.8286 150.738 47.886 150.738 46.7232C150.738 45.5605 149.785 44.6179 148.61 44.6179C147.435 44.6179 146.483 45.5605 146.483 46.7232C146.483 47.886 147.435 48.8286 148.61 48.8286Z" fill="white"/>
<path d="M156.686 48.8286C157.861 48.8286 158.813 47.886 158.813 46.7232C158.813 45.5605 157.861 44.6179 156.686 44.6179C155.511 44.6179 154.558 45.5605 154.558 46.7232C154.558 47.886 155.511 48.8286 156.686 48.8286Z" fill="white"/>
<path d="M140.514 48.8286C141.689 48.8286 142.641 47.886 142.641 46.7232C142.641 45.5605 141.689 44.6179 140.514 44.6179C139.339 44.6179 138.387 45.5605 138.387 46.7232C138.387 47.886 139.339 48.8286 140.514 48.8286Z" fill="white"/>
<path d="M311.527 79.4797H157.062V86.2925H311.527V79.4797Z" fill="#E6E6E6"/>
<path d="M212.136 96.5115H157.062V103.324H212.136V96.5115Z" fill="#E6E6E6"/>
<path d="M266.78 113.543H157.062V120.356H266.78V113.543Z" fill="#E6E6E6"/>
<path d="M194.422 165.101H77.9496V170.238H194.422V165.101Z" fill="#F2F2F2"/>
<path d="M119.477 177.943H77.9496V183.081H119.477V177.943Z" fill="#F2F2F2"/>
<path d="M160.681 190.786H77.9496V195.923H160.681V190.786Z" fill="#F2F2F2"/>
</svg>
