<?xml version="1.0" standalone="no"?>
<!DOCTYPE svg PUBLIC "-//W3C//DTD SVG 1.1//EN" "http://www.w3.org/Graphics/SVG/1.1/DTD/svg11.dtd" >
<svg xmlns="http://www.w3.org/2000/svg" xmlns:xlink="http://www.w3.org/1999/xlink" version="1.1">
<metadata>
Created by FontForge 20201107 at Tue Jan 23 19:03:46 2024
 By 
Copyright (c) 2017 by Lee, Hyun-Seung. All rights reserved.
</metadata>
<defs>
<font id="CarosExtraBold" horiz-adv-x="830" >
  <font-face 
    font-family="Caros ExtraBold"
    font-weight="700"
    font-stretch="normal"
    units-per-em="2048"
    panose-1="2 11 8 3 3 3 2 2 2 4"
    ascent="1638"
    descent="-410"
    x-height="1061"
    cap-height="1434"
    bbox="-831 -544 2573 2086"
    underline-thickness="49"
    underline-position="-423"
    unicode-range="U+0009-FB04"
  />
<missing-glyph horiz-adv-x="1024" 
d="M922 0h-820v1536h820v-1536zM369 252h286v1031h-286v-1031z" />
    <glyph glyph-name="ff" unicode="ff" horiz-adv-x="1548" 
d="M1505 1483v-248q-45 6 -97 6q-136 0 -136 -123v-57h233v-285h-233v-776h-330v776h-420v-776h-329v776h-157v285h157v62q0 372 415 372q110 0 209 -26l-33 -245q-68 17 -127 17q-135 0 -135 -123v-57h420v62q0 184 103.5 278t305.5 94q82 0 154 -12z" />
    <glyph glyph-name="fi" unicode="fi" horiz-adv-x="1401" 
d="M193 1061v61q0 371 422 371q91 0 178 -20q-10 -168 -14 -245q-67 13 -120 13q-138 0 -138 -123v-57h750v-1061h-330v776h-420v-776h-328v776h-157v285h157zM919 1337q0 76 54 128t133 52t133.5 -52t54.5 -128t-54 -127.5t-134 -51.5q-79 0 -133 51.5t-54 127.5z" />
    <glyph glyph-name="fl" unicode="fl" horiz-adv-x="1380" 
d="M921 0v1151q-108 90 -264 90q-136 0 -136 -123v-57h254v-285h-254v-776h-328v776h-170v285h170v61q0 182 101 275.5t299 93.5q204 0 328 -102v106h328v-1495h-328z" />
    <glyph glyph-name="ffi" unicode="ffi" horiz-adv-x="2151" 
d="M193 1061v61q0 373 414 373q109 0 209 -27l-32 -245q-74 18 -128 18q-135 0 -135 -123v-57h421v61q0 189 106.5 280t319.5 91q78 0 143 -10v-248q-48 6 -102 6q-138 0 -138 -123v-57h749v-1061h-329v776h-420v-776h-329v776h-421v-776h-328v776h-157v285h157zM1667 1337
q0 76 54.5 128t133.5 52q80 0 134.5 -52t54.5 -128t-54.5 -127.5t-134.5 -51.5t-134 51.5t-54 127.5z" />
    <glyph glyph-name="ffl" unicode="ffl" horiz-adv-x="2128" 
d="M1670 0v1151q-106 90 -263 90q-136 0 -136 -123v-57h236v-285h-236v-776h-329v776h-421v-776h-328v776h-157v285h157v61q0 188 107 279.5t321 91.5q138 0 262 -54q-8 -39 -27 -115.5t-28 -114.5q-88 32 -172 32q-135 0 -135 -123v-57h421v61q0 182 101 275.5t299 93.5
q88 0 176 -24.5t152 -77.5v106h329v-1495h-329z" />
    <glyph glyph-name=".notdef" horiz-adv-x="1024" 
d="M922 0h-820v1536h820v-1536zM369 252h286v1031h-286v-1031z" />
    <glyph glyph-name=".null" horiz-adv-x="0" 
 />
    <glyph glyph-name=".null" horiz-adv-x="0" 
 />
    <glyph glyph-name="nonmarkingreturn" horiz-adv-x="682" 
 />
    <glyph glyph-name="CR" unicode="&#x9;" horiz-adv-x="0" 
 />
    <glyph glyph-name="space" unicode=" " horiz-adv-x="620" 
 />
    <glyph glyph-name="exclam" unicode="!" horiz-adv-x="644" 
d="M197 444l-44 990h339l-45 -990h-250zM120 163q0 79 58 133t145 54q86 0 143.5 -54t57.5 -133t-57.5 -133.5t-143.5 -54.5q-87 0 -145 54.5t-58 133.5z" />
    <glyph glyph-name="quotedbl" unicode="&#x22;" horiz-adv-x="1015" 
d="M186 936l-44 498h318l-44 -498h-230zM600 936l-44 498h317l-44 -498h-229z" />
    <glyph glyph-name="numbersign" unicode="#" horiz-adv-x="1427" 
d="M63 562h206l53 300h-183v255h226l55 317h308l-54 -317h217l54 317h309l-55 -317h164v-255h-207l-52 -300h183v-255h-226l-52 -307h-310l53 307h-216l-54 -307h-308l52 307h-163v255zM631 862l-52 -300h217l51 300h-216z" />
    <glyph glyph-name="dollar" unicode="$" horiz-adv-x="1228" 
d="M110 273l140 155q88 -85 175.5 -126.5t190.5 -41.5q90 0 146.5 40.5t56.5 106.5q0 67 -58 113.5t-210 78.5q-206 44 -320 155.5t-114 274.5q0 188 136.5 308.5t353.5 120.5q218 0 361 -116t161 -328h-331q-11 78 -56.5 121t-118.5 43q-72 0 -118 -34t-46 -88
q0 -64 56 -110t190 -77q456 -106 456 -446q0 -196 -144.5 -322t-384.5 -126q-145 0 -278.5 74t-243.5 224zM790 1369h-347v273h347v-273zM464 61h346v-270h-346v270z" />
    <glyph glyph-name="percent" unicode="%" horiz-adv-x="1888" 
d="M478 47l740 1434l184 -104l-737 -1433zM1290 355q0 -53 34.5 -89.5t88.5 -36.5t88.5 36.5t34.5 89.5t-34.5 90t-88.5 37t-88.5 -36.5t-34.5 -90.5zM1023 355q0 156 112 263.5t278 107.5t278 -107.5t112 -263.5q0 -155 -112 -262t-278 -107t-278 107t-112 262zM352 1078
q0 -53 34.5 -90t88.5 -37t88.5 37t34.5 90t-34.5 89.5t-88.5 36.5t-88.5 -36.5t-34.5 -89.5zM85 1078q0 155 112 262.5t278 107.5t278 -107.5t112 -262.5q0 -156 -112 -263t-278 -107t-278 107t-112 263z" />
    <glyph glyph-name="ampersand" unicode="&#x26;" horiz-adv-x="1530" 
d="M1097 1070h-312q-32 134 -146 134q-49 0 -82 -31t-33 -74q0 -49 40 -110.5t136 -154.5l298 -286q41 92 56 218l302 -43q-23 -224 -129 -399l169 -164l-202 -200l-159 153q-181 -138 -413 -138q-224 0 -372.5 115.5t-148.5 288.5q0 247 245 411q-77 88 -107 157.5
t-30 148.5q0 154 124.5 258t304.5 104q193 0 315.5 -106t143.5 -282zM622 236q116 0 212 74l-296 285q-116 -87 -116 -195q0 -71 55.5 -117.5t144.5 -46.5z" />
    <glyph glyph-name="quotesingle" unicode="'" horiz-adv-x="622" 
d="M198 936l-45 498h318l-45 -498h-228z" />
    <glyph glyph-name="parenleft" unicode="(" horiz-adv-x="890" 
d="M208 624q0 275 103.5 526t289.5 432l226 -156q-136 -162 -208 -369.5t-72 -432.5t72 -432.5t208 -369.5l-226 -156q-186 181 -289.5 432.5t-103.5 525.5z" />
    <glyph glyph-name="parenright" unicode=")" horiz-adv-x="890" 
d="M683 624q0 -274 -103.5 -525.5t-289.5 -432.5l-228 156q136 162 209 370t73 432q0 225 -73 432t-209 370l228 156q186 -181 289.5 -432t103.5 -526z" />
    <glyph glyph-name="asterisk" unicode="*" horiz-adv-x="1159" 
d="M106 792l136 240l217 -143l-19 258h278l-19 -258l217 143l136 -240l-236 -113l236 -113l-136 -240l-217 143l19 -258h-278l19 258l-217 -143l-136 240l236 113z" />
    <glyph glyph-name="plus" unicode="+" horiz-adv-x="1200" 
d="M438 205v330h-319v288h319v331h323v-331h319v-288h-319v-330h-323z" />
    <glyph glyph-name="comma" unicode="," horiz-adv-x="620" 
d="M116 179q0 66 54.5 119.5t143.5 53.5q83 0 137.5 -55.5t54.5 -145.5q0 -151 -94.5 -280.5t-281.5 -194.5l-72 103q78 47 118 84t47 72t-8.5 65.5t-55.5 73.5q-43 46 -43 105z" />
    <glyph glyph-name="hyphen" unicode="-" horiz-adv-x="864" 
d="M745 530h-626v299h626v-299z" />
    <glyph glyph-name="period" unicode="." horiz-adv-x="620" 
d="M115 164q0 80 55.5 134t139.5 54t140 -54t56 -134t-56 -134.5t-140 -54.5t-139.5 54.5t-55.5 134.5z" />
    <glyph glyph-name="slash" unicode="/" horiz-adv-x="1013" 
d="M1001 1479l-700 -1823l-289 116l701 1822z" />
    <glyph glyph-name="zero" unicode="0" horiz-adv-x="1241" 
d="M104 717q0 216 57.5 381.5t176 262.5t283.5 97t283 -97t175.5 -262.5t57.5 -381.5t-57.5 -382t-175.5 -263t-283 -97t-283.5 97.5t-176 263t-57.5 381.5zM432 717q0 -208 47.5 -324.5t141.5 -116.5t141 116t47 325q0 208 -47 323.5t-141 115.5t-141.5 -115.5
t-47.5 -323.5z" />
    <glyph glyph-name="one" unicode="1" horiz-adv-x="1241" 
d="M564 1434h296v-1434h-337v1118l-225 -122l-125 227z" />
    <glyph glyph-name="two" unicode="2" horiz-adv-x="1241" 
d="M912 629l-309 -338h487v-291h-908v270l476 521q60 66 86 116t26 105q0 66 -42.5 108.5t-109.5 42.5t-112 -46t-49 -122h-318q7 204 142 333.5t349 129.5q205 0 339.5 -115.5t134.5 -298.5q0 -112 -47.5 -211.5t-144.5 -203.5z" />
    <glyph glyph-name="three" unicode="3" horiz-adv-x="1241" 
d="M555 264q89 0 148 58.5t59 143.5t-59 143.5t-148 58.5q-37 0 -70 -13l-129 162l295 330h-475v287h856v-282l-273 -288q159 -39 251 -157t92 -279q0 -90 -36.5 -172t-102.5 -144.5t-166 -99.5t-218 -37q-138 0 -258.5 71.5t-207.5 207.5l161 157q123 -147 281 -147z" />
    <glyph glyph-name="four" unicode="4" horiz-adv-x="1241" 
d="M71 251v275l602 908h313v-895h154v-288h-154v-251h-328v251h-587zM365 537h293v445z" />
    <glyph glyph-name="five" unicode="5" horiz-adv-x="1241" 
d="M595 -25q-291 0 -474 273l161 159q137 -142 285 -142q86 0 148.5 59.5t62.5 144.5q0 88 -60 146.5t-149 58.5q-46 0 -87 -19.5t-65 -50.5l-243 33l94 797h795v-287h-490l-29 -241q57 16 108 16q126 0 232 -58t169 -164t63 -237q0 -213 -142.5 -350.5t-378.5 -137.5z" />
    <glyph glyph-name="six" unicode="6" horiz-adv-x="1241" 
d="M982 1434l-345 -526q37 6 84 6q106 0 203.5 -55t161.5 -160t64 -234q0 -139 -72.5 -252t-193 -175.5t-262.5 -62.5q-144 0 -266 62.5t-194.5 175.5t-72.5 252q0 141 72 253l466 716h355zM824 467q0 90 -59 150.5t-145 60.5q-87 0 -146.5 -60.5t-59.5 -150.5t59.5 -150
t146.5 -60q86 0 145 60t59 150z" />
    <glyph glyph-name="seven" unicode="7" horiz-adv-x="1241" 
d="M160 1434h934v-263l-482 -1171h-358l477 1141h-571v293z" />
    <glyph glyph-name="eight" unicode="8" horiz-adv-x="1241" 
d="M422 443q0 -83 57.5 -139t141.5 -56t141 55.5t57 139.5t-57 140t-141 56t-141.5 -56t-57.5 -140zM1077 1056q0 -87 -44.5 -163t-117.5 -115q105 -43 165.5 -139t60.5 -209q0 -193 -149.5 -324t-370.5 -131t-371 131t-150 324q0 113 60.5 209t165.5 139q-73 39 -117.5 115
t-44.5 163q0 169 130.5 285.5t326.5 116.5t326 -116t130 -286zM471 1046q0 -60 43 -103.5t107 -43.5q63 0 106 43.5t43 103.5q0 61 -42.5 102.5t-106.5 41.5t-107 -42t-43 -102z" />
    <glyph glyph-name="nine" unicode="9" horiz-adv-x="1241" 
d="M257 -2l345 525q-38 -6 -84 -6q-106 1 -203.5 56t-161.5 160t-64 234q0 139 72.5 252t193 175t262.5 62q144 0 266 -62.5t194.5 -175t72.5 -251.5q0 -141 -72 -253l-466 -716h-355zM415 965q0 -90 59.5 -150.5t145.5 -60.5q87 0 146 60.5t59 150.5t-59 150t-146 60
q-86 0 -145.5 -60.5t-59.5 -149.5z" />
    <glyph glyph-name="colon" unicode=":" horiz-adv-x="620" 
d="M115 164q0 80 55.5 134t139.5 54t140 -54t56 -134t-56 -134.5t-140 -54.5t-139.5 54.5t-55.5 134.5zM115 897q0 80 55.5 134t139.5 54t140 -54t56 -134t-56 -134t-140 -54t-139.5 54t-55.5 134z" />
    <glyph glyph-name="semicolon" unicode=";" horiz-adv-x="620" 
d="M115 897q0 80 55.5 134t139.5 54t140 -54t56 -134t-56 -134t-140 -54t-139.5 54t-55.5 134zM117 179q0 66 54.5 119.5t143.5 53.5q83 0 137 -55.5t54 -145.5q0 -98 -38 -186.5t-124.5 -166.5t-212.5 -122l-73 103q78 47 118 84t47.5 72t-8 66t-55.5 73q-43 46 -43 105z
" />
    <glyph glyph-name="less" unicode="&#x3c;" horiz-adv-x="1200" 
d="M117 578v202l853 470l125 -208l-565 -363l565 -365l-125 -206z" />
    <glyph glyph-name="equal" unicode="=" horiz-adv-x="1200" 
d="M1081 776h-962v285h962v-285zM1081 299h-962v284h962v-284z" />
    <glyph glyph-name="greater" unicode="&#x3e;" horiz-adv-x="1200" 
d="M1081 780v-202l-853 -470l-125 206l565 365l-565 363l125 208z" />
    <glyph glyph-name="question" unicode="?" horiz-adv-x="1141" 
d="M705 443h-339q0 174 51.5 262.5t207.5 177.5q56 32 76.5 66t20.5 86q0 51 -39.5 86.5t-102.5 35.5q-80 0 -127 -49.5t-47 -132.5h-328q0 223 142.5 352.5t368.5 129.5q109 0 199 -35t149 -94.5t91.5 -137t32.5 -164.5q0 -111 -51.5 -193t-165.5 -153q-56 -35 -82.5 -60.5
t-41.5 -67.5t-15 -109zM345 163q0 79 58 133t144 54q87 0 145 -54t58 -133q0 -80 -58 -134t-145 -54q-86 0 -144 54t-58 134z" />
    <glyph glyph-name="at" unicode="@" horiz-adv-x="1991" 
d="M517 550q0 190 111 318t281 128q149 0 248 -99v80h277v-538q0 -52 26 -79.5t65 -27.5q72 0 123 74.5t51 200.5q0 131 -56.5 252t-151.5 209t-226 141t-273 53q-191 0 -351.5 -92.5t-253.5 -253t-93 -353.5q0 -194 93 -353.5t259.5 -252t372.5 -92.5q267 0 485 151
l89 -178q-263 -170 -574 -170q-201 0 -378 69t-302.5 187.5t-197.5 284.5t-72 354q0 187 72.5 353.5t196 285t294 187.5t360.5 69q197 0 371.5 -68t296.5 -183.5t193 -273t71 -331.5q0 -226 -122.5 -362t-332.5 -136q-94 0 -167 35t-110 99q-102 -135 -283 -135
q-170 0 -281 128.5t-111 318.5zM796 550q0 -90 52 -148.5t128 -58.5q77 0 128.5 58t51.5 149q0 90 -51.5 148t-128.5 58q-75 0 -127.5 -58.5t-52.5 -147.5z" />
    <glyph glyph-name="A" unicode="A" horiz-adv-x="1422" 
d="M524 1434h373l498 -1434h-355l-93 299h-473l-93 -299h-354zM552 564h317l-158 513z" />
    <glyph glyph-name="B" unicode="B" horiz-adv-x="1288" 
d="M771 0h-620v1434h555q199 0 316 -106.5t117 -281.5q0 -102 -48.5 -179t-128.5 -111q110 -30 179.5 -120.5t69.5 -216.5q0 -184 -122.5 -301.5t-317.5 -117.5zM823 1013q0 70 -39.5 109t-103.5 39h-201v-297h201q64 0 103.5 39.5t39.5 109.5zM876 437q0 74 -43 119.5
t-111 45.5h-243v-330h243q68 0 111 45.5t43 119.5z" />
    <glyph glyph-name="C" unicode="C" horiz-adv-x="1551" 
d="M1272 512l186 -139q-224 -398 -643 -398q-208 0 -377.5 98t-265.5 268t-96 376q0 208 93.5 377.5t260.5 266.5t375 97q257 0 436 -140.5t234 -391.5h-358q-32 113 -114.5 175t-194.5 62q-170 0 -280.5 -127t-110.5 -319t117 -320t294 -128q143 0 250 59.5t194 183.5z" />
    <glyph glyph-name="D" unicode="D" horiz-adv-x="1479" 
d="M150 1434h534q214 0 377 -88.5t252.5 -251.5t89.5 -377q0 -324 -197.5 -520.5t-521.5 -196.5h-534v1434zM664 1139h-175v-845h101q53 0 104 3q170 9 269 116.5t99 303.5q0 204 -107.5 313t-290.5 109z" />
    <glyph glyph-name="E" unicode="E" horiz-adv-x="1179" 
d="M151 0v1434h913v-287h-575v-285h526v-282h-526v-293h593v-287h-931z" />
    <glyph glyph-name="F" unicode="F" horiz-adv-x="1110" 
d="M151 0v1434h892v-291h-554v-307h505v-291h-505v-545h-338z" />
    <glyph glyph-name="G" unicode="G" horiz-adv-x="1576" 
d="M773 770h728v-53q0 -344 -189 -543t-505 -199q-147 0 -282 58t-233.5 156.5t-157 236.5t-58.5 291q0 154 57 291.5t154.5 236t233 156t286.5 57.5q257 0 435.5 -131.5t242.5 -378.5h-365q-84 216 -317 216q-161 0 -273 -127.5t-112 -319.5t112.5 -320t279.5 -128
q126 0 216 69t117 181h-370v251z" />
    <glyph glyph-name="H" unicode="H" horiz-adv-x="1455" 
d="M151 0v1434h338v-568h477v568h340v-1434h-340v574h-477v-574h-338z" />
    <glyph glyph-name="I" unicode="I" horiz-adv-x="651" 
d="M156 1434h339v-1434h-339v1434z" />
    <glyph glyph-name="J" unicode="J" horiz-adv-x="959" 
d="M481 477v957h340v-977q0 -237 -117.5 -359.5t-313.5 -122.5q-96 0 -190 30.5t-169 86.5l84 227q92 -49 186 -49q86 0 133 52.5t47 154.5z" />
    <glyph glyph-name="K" unicode="K" horiz-adv-x="1292" 
d="M873 1434h340q0 -549 -252 -728l362 -706h-370l-310 608q-15 -1 -51 -1h-103v-607h-338v1434h338v-535h67q172 0 244.5 119.5t72.5 415.5z" />
    <glyph glyph-name="L" unicode="L" horiz-adv-x="1072" 
d="M151 0v1434h338v-1141h552v-293h-890z" />
    <glyph glyph-name="M" unicode="M" horiz-adv-x="1842" 
d="M1014 223h-186l-363 686v-909h-314v1434h351l419 -808l419 808h352v-1434h-316v909z" />
    <glyph glyph-name="N" unicode="N" horiz-adv-x="1455" 
d="M151 0v1434h355l484 -921v921h316v-1434h-357l-484 921v-921h-314z" />
    <glyph glyph-name="O" unicode="O" horiz-adv-x="1699" 
d="M418 717q0 -190 124.5 -318.5t307.5 -128.5t307.5 128.5t124.5 318.5t-124.5 318t-307.5 128t-307.5 -128t-124.5 -318zM76 717q0 206 101.5 376t279 267.5t393.5 97.5t393.5 -97.5t279 -267.5t101.5 -376q0 -154 -60 -291.5t-162.5 -236.5t-246 -156.5t-305.5 -57.5
t-305.5 57.5t-246 156.5t-162.5 236.5t-60 291.5z" />
    <glyph glyph-name="P" unicode="P" horiz-adv-x="1243" 
d="M680 479h-191v-479h-339v1434h530q225 0 365.5 -134t140.5 -344q0 -211 -140.5 -344t-365.5 -133zM850 956q0 94 -55 150.5t-152 56.5h-154v-414h154q97 0 152 56t55 151z" />
    <glyph glyph-name="Q" unicode="Q" horiz-adv-x="1699" 
d="M837 469l237 206l563 -645l-238 -205zM418 717q0 -190 124.5 -318.5t307.5 -128.5t307.5 128.5t124.5 318.5t-124.5 318t-307.5 128t-307.5 -128t-124.5 -318zM76 717q0 206 101.5 376t279 267.5t393.5 97.5t393.5 -97.5t279 -267.5t101.5 -376q0 -154 -60 -291.5
t-162.5 -236.5t-246 -156.5t-305.5 -57.5t-305.5 57.5t-246 156.5t-162.5 236.5t-60 291.5z" />
    <glyph glyph-name="R" unicode="R" horiz-adv-x="1276" 
d="M150 1434h530q225 0 365.5 -129t140.5 -338q0 -151 -75.5 -261.5t-209.5 -160.5l323 -545h-368l-286 500h-85v-500h-335v1434zM645 1163h-160v-408h160q96 0 150.5 55.5t54.5 147.5q0 93 -54.5 149t-150.5 56z" />
    <glyph glyph-name="S" unicode="S" horiz-adv-x="1228" 
d="M110 273l140 155q88 -85 175.5 -126.5t190.5 -41.5q90 0 146.5 40.5t56.5 106.5q0 67 -58 113.5t-210 78.5q-206 44 -320 155.5t-114 274.5q0 188 136.5 308.5t353.5 120.5q218 0 361 -116t161 -328h-331q-11 78 -56.5 121t-118.5 43q-72 0 -118 -34t-46 -88
q0 -64 56 -110t190 -77q456 -106 456 -446q0 -196 -144.5 -322t-384.5 -126q-145 0 -278.5 74t-243.5 224z" />
    <glyph glyph-name="T" unicode="T" horiz-adv-x="1145" 
d="M403 0v1141h-352v293h1044v-293h-353v-1141h-339z" />
    <glyph glyph-name="U" unicode="U" horiz-adv-x="1377" 
d="M1239 1434v-958q0 -143 -74 -258t-199.5 -178t-277.5 -63t-277.5 63t-199.5 178t-74 258v958h340v-955q0 -92 60 -150t151 -58t151.5 58t60.5 150v955h339z" />
    <glyph glyph-name="V" unicode="V" horiz-adv-x="1422" 
d="M379 1434l332 -1043l331 1043h353l-498 -1434h-373l-497 1434h352z" />
    <glyph glyph-name="W" unicode="W" horiz-adv-x="2030" 
d="M846 1434h338l242 -978l226 978h351l-387 -1434h-345l-256 974l-255 -974h-345l-387 1434h351l225 -978z" />
    <glyph glyph-name="X" unicode="X" horiz-adv-x="1332" 
d="M1312 0h-370l-276 502l-277 -502h-369l433 733l-410 701h370l253 -468l253 468h369l-409 -701z" />
    <glyph glyph-name="Y" unicode="Y" horiz-adv-x="1346" 
d="M395 1434l278 -549l278 549h368l-476 -867v-567h-339v567l-476 867h367z" />
    <glyph glyph-name="Z" unicode="Z" horiz-adv-x="1255" 
d="M109 272l624 869h-594v293h998v-273l-625 -868h645v-293h-1048v272z" />
    <glyph glyph-name="bracketleft" unicode="[" horiz-adv-x="890" 
d="M202 -287v1823h652v-293h-313v-1237h313v-293h-652z" />
    <glyph glyph-name="backslash" unicode="\" horiz-adv-x="1013" 
d="M712 -344l-700 1823l288 115l701 -1822z" />
    <glyph glyph-name="bracketright" unicode="]" horiz-adv-x="890" 
d="M689 1536v-1823h-653v293h314v1237h-314v293h653z" />
    <glyph glyph-name="asciicircum" unicode="^" horiz-adv-x="1282" 
d="M493 1442h297l353 -550l-174 -127l-328 400l-328 -400l-174 127z" />
    <glyph glyph-name="underscore" unicode="_" horiz-adv-x="1024" 
d="M0 -416v279h1024v-279h-1024z" />
    <glyph glyph-name="grave" unicode="`" horiz-adv-x="880" 
d="M166 1417l207 162l240 -364l-145 -112z" />
    <glyph glyph-name="a" unicode="a" horiz-adv-x="1350" 
d="M62 530q0 154 63 281t178 200.5t258 73.5q204 0 337 -141v117h324v-1061h-324v117q-134 -142 -337 -142q-143 0 -258 73.5t-178 200.5t-63 281zM389 530q0 -114 73 -190t180 -76q108 0 182 76.5t74 189.5t-74 190t-182 77q-107 0 -180 -77t-73 -190z" />
    <glyph glyph-name="b" unicode="b" horiz-adv-x="1350" 
d="M1288 530q0 -154 -63 -281t-177.5 -200.5t-257.5 -73.5q-205 0 -337 142v-117h-324v1495h324v-551q131 141 337 141q143 0 257.5 -73.5t177.5 -200.5t63 -281zM962 530q0 113 -73.5 190t-180.5 77t-181 -77t-74 -190t74 -189.5t181 -76.5t180.5 76.5t73.5 189.5z" />
    <glyph glyph-name="c" unicode="c" horiz-adv-x="1210" 
d="M959 415l163 -129q-164 -311 -483 -311q-161 0 -294 73.5t-208 201t-75 280.5t73.5 280.5t202 201t284.5 73.5q206 0 345.5 -110t180.5 -296h-340q-48 118 -186 118q-97 0 -165 -77t-68 -190q0 -116 73 -191t197 -75q176 0 300 151z" />
    <glyph glyph-name="d" unicode="d" horiz-adv-x="1350" 
d="M62 530q0 154 63 281t178 200.5t258 73.5q204 0 337 -141v551h324v-1495h-324v117q-134 -142 -337 -142q-143 0 -258 73.5t-178 200.5t-63 281zM389 530q0 -114 73 -190t180 -76q108 0 182 76.5t74 189.5t-74 190t-182 77q-107 0 -180 -77t-73 -190z" />
    <glyph glyph-name="e" unicode="e" horiz-adv-x="1266" 
d="M392 439q18 -101 93 -158.5t193 -57.5q198 0 343 129l139 -155q-200 -222 -486 -222q-135 0 -250 43t-194 117.5t-123.5 176.5t-44.5 218q0 154 76 281t209.5 200.5t296.5 73.5q119 0 224 -42t178.5 -114.5t116 -171.5t42.5 -209q0 -57 -15 -109h-798zM640 838
q-90 0 -154.5 -51t-88.5 -140h473q-20 89 -80 140t-150 51z" />
    <glyph glyph-name="f" unicode="f" horiz-adv-x="798" 
d="M756 1483v-248q-45 6 -98 6q-136 0 -136 -123v-57h234v-285h-234v-776h-329v776h-170v285h170v62q0 184 103 278t305 94q83 0 155 -12z" />
    <glyph glyph-name="g" unicode="g" horiz-adv-x="1350" 
d="M62 530q0 154 63 281t178 200.5t258 73.5q204 0 337 -141v117h324v-993q0 -252 -152.5 -397.5t-417.5 -145.5q-294 0 -506 228l135 171q150 -129 334 -129q129 0 206 67t77 185v79q-134 -140 -337 -140q-143 0 -258 73t-178 197t-63 274zM389 530q0 -114 73 -190t180 -76
q108 0 182 76.5t74 189.5t-74 190t-182 77q-107 0 -180 -77t-73 -190z" />
    <glyph glyph-name="h" unicode="h" horiz-adv-x="1261" 
d="M752 1085q175 0 288 -116t113 -303v-666h-329v613q0 79 -49 131.5t-122 52.5q-83 0 -139 -59.5t-56 -164.5v-573h-329v1495h329v-546q113 136 294 136z" />
    <glyph glyph-name="i" unicode="i" horiz-adv-x="589" 
d="M130 0v1061h329v-1061h-329zM106 1338q0 76 54.5 128t134.5 52q79 0 133.5 -52t54.5 -128t-54 -127.5t-134 -51.5t-134.5 51.5t-54.5 127.5z" />
    <glyph glyph-name="j" unicode="j" horiz-adv-x="589" 
d="M130 -74v1135h329v-1167q0 -179 -99 -274t-280 -95q-65 0 -117 14v271h56q57 0 84 27t27 89zM106 1338q0 76 54.5 128t134.5 52q79 0 133.5 -52t54.5 -128t-54 -127.5t-134 -51.5t-134.5 51.5t-54.5 127.5z" />
    <glyph glyph-name="k" unicode="k" horiz-adv-x="1132" 
d="M727 1061h329q0 -401 -201 -542l268 -519h-357l-216 438h-92v-438h-329v1495h329v-775h66q203 0 203 341z" />
    <glyph glyph-name="l" unicode="l" horiz-adv-x="589" 
d="M130 0v1495h329v-1495h-329z" />
    <glyph glyph-name="m" unicode="m" horiz-adv-x="1923" 
d="M1422 1085q167 0 279.5 -117t112.5 -302v-666h-329v613q0 74 -45 129t-116 55q-78 0 -133 -60t-55 -164v-573h-329v613q0 80 -44.5 132t-116.5 52q-78 0 -133 -59t-55 -161v-577h-329v1061h329v-110q112 130 285 130q112 0 201.5 -52t140.5 -148q56 95 143.5 149.5
t193.5 54.5z" />
    <glyph glyph-name="n" unicode="n" horiz-adv-x="1261" 
d="M752 1085q175 0 288 -116t113 -303v-666h-329v613q0 72 -50.5 128t-120.5 56q-83 0 -139 -59.5t-56 -164.5v-573h-329v1061h329v-112q113 136 294 136z" />
    <glyph glyph-name="o" unicode="o" horiz-adv-x="1311" 
d="M62 530q0 115 45.5 217.5t124 176.5t189 117.5t235.5 43.5t235.5 -43.5t189 -117.5t124 -176.5t45.5 -217.5t-45.5 -217.5t-124 -176.5t-189 -117.5t-235.5 -43.5t-235.5 43.5t-189 117.5t-124 176.5t-45.5 217.5zM389 530q0 -114 76 -190t191 -76t191.5 76t76.5 190
t-77 190.5t-191 76.5t-190.5 -76.5t-76.5 -190.5z" />
    <glyph glyph-name="p" unicode="p" horiz-adv-x="1350" 
d="M1288 530q0 -154 -63 -281t-177.5 -200.5t-257.5 -73.5q-205 0 -337 142v-592h-324v1536h324v-117q131 141 337 141q143 0 257.5 -73.5t177.5 -200.5t63 -281zM962 530q0 113 -73.5 190t-180.5 77t-181 -77t-74 -190t74 -189.5t181 -76.5t180.5 76.5t73.5 189.5z" />
    <glyph glyph-name="q" unicode="q" horiz-adv-x="1350" 
d="M62 530q0 154 63 281t178 200.5t258 73.5q204 0 337 -141v117h324v-1536h-324v592q-134 -142 -337 -142q-143 0 -258 73.5t-178 200.5t-63 281zM389 530q0 -114 73 -190t180 -76q108 0 182 76.5t74 189.5t-74 190t-182 77q-107 0 -180 -77t-73 -190z" />
    <glyph glyph-name="r" unicode="r" horiz-adv-x="860" 
d="M665 797q-87 0 -147 -63.5t-60 -170.5v-563h-329v1061h329v-120q111 144 280 144q43 0 79 -16l-23 -296q-70 24 -129 24z" />
    <glyph glyph-name="s" unicode="s" horiz-adv-x="975" 
d="M77 200l120 143q127 -118 275 -118q61 0 95 23t34 62q0 40 -37 66t-126 45q-167 35 -255 124t-88 222q0 139 110 228.5t283 89.5q183 0 290.5 -94t130.5 -252h-284q-9 45 -40 71t-78 26q-44 0 -72.5 -20t-28.5 -53q0 -76 155 -109q358 -75 358 -346q0 -145 -117.5 -239
t-309.5 -94q-237 0 -415 225z" />
    <glyph glyph-name="t" unicode="t" horiz-adv-x="821" 
d="M526 776v-392q0 -64 32.5 -94t104.5 -30q62 0 107 6v-242q-81 -49 -208 -49q-171 0 -268 99t-97 276v426h-174v285h174v258l329 49v-307h232v-285h-232z" />
    <glyph glyph-name="u" unicode="u" horiz-adv-x="1261" 
d="M509 -25q-175 0 -288 116t-113 303v667h328v-615q0 -75 50 -129t121 -54q85 0 140.5 61.5t55.5 170.5v566h329v-1061h-329v111q-114 -136 -294 -136z" />
    <glyph glyph-name="v" unicode="v" horiz-adv-x="1118" 
d="M756 1061h343l-359 -1061h-363l-359 1061h343l197 -687z" />
    <glyph glyph-name="w" unicode="w" horiz-adv-x="1650" 
d="M664 1061h323l155 -664l156 664h334l-311 -1061h-339l-157 620l-156 -620h-339l-312 1061h334l157 -664z" />
    <glyph glyph-name="x" unicode="x" horiz-adv-x="1118" 
d="M1099 0h-351l-190 336l-188 -336h-352l324 541l-297 520h351l162 -318l163 318h351l-298 -520z" />
    <glyph glyph-name="y" unicode="y" horiz-adv-x="1118" 
d="M550 -475h-345l192 475l-379 1061h343l196 -643l199 643h343z" />
    <glyph glyph-name="z" unicode="z" horiz-adv-x="1056" 
d="M83 0v252l463 526h-436v283h839v-252l-464 -526h485v-283h-887z" />
    <glyph glyph-name="braceleft" unicode="{" horiz-adv-x="890" 
d="M121 479v291q87 0 136.5 46t49.5 128v250q0 146 105.5 244t265.5 98h176v-293h-84q-54 0 -88.5 -33.5t-34.5 -85.5v-259q0 -94 -47 -155.5t-137 -84.5q89 -23 136.5 -85t47.5 -156v-259q0 -52 34.5 -85.5t88.5 -33.5h84v-293h-176q-160 0 -265.5 98t-105.5 244v249
q0 82 -49.5 128.5t-136.5 46.5z" />
    <glyph glyph-name="bar" unicode="|" horiz-adv-x="679" 
d="M180 -287v1823h320v-1823h-320z" />
    <glyph glyph-name="braceright" unicode="}" horiz-adv-x="890" 
d="M770 770v-291q-87 0 -136.5 -46.5t-49.5 -128.5v-249q0 -146 -105.5 -244t-265.5 -98h-177v293h84q55 0 89.5 33t34.5 86v259q0 95 47 156.5t137 84.5q-184 48 -184 240v259q0 53 -34.5 86t-89.5 33h-84v293h177q160 0 265.5 -98t105.5 -244v-250q0 -82 49.5 -128
t136.5 -46z" />
    <glyph glyph-name="asciitilde" unicode="~" horiz-adv-x="1200" 
d="M587 523q-35 29 -52.5 42.5t-44 27t-47.5 13.5q-64 0 -85 -128l-308 60q26 178 108 273t213 95q132 0 241 -89q35 -29 52.5 -42.5t44 -27t47.5 -13.5q64 0 85 128l308 -59q-26 -178 -108 -273.5t-213 -95.5q-132 0 -241 89z" />
    <glyph glyph-name="uni00A0" unicode="&#xa0;" horiz-adv-x="620" 
 />
    <glyph glyph-name="exclamdown" unicode="&#xa1;" horiz-adv-x="644" 
d="M153 -373l27 989h285l27 -989h-339zM120 898q0 79 58 133t145 54q86 0 143.5 -54t57.5 -133t-57.5 -133t-143.5 -54q-87 0 -145 54t-58 133z" />
    <glyph glyph-name="cent" unicode="&#xa2;" horiz-adv-x="1210" 
d="M959 415l163 -129q-164 -311 -483 -311q-161 0 -294 73.5t-208 201t-75 280.5t73.5 280.5t202 201t284.5 73.5q206 0 345.5 -110t180.5 -296h-340q-48 118 -186 118q-97 0 -165 -77t-68 -190q0 -116 73 -191t197 -75q176 0 300 151zM776 977h-305v273h305v-273zM492 61
h305v-243h-305v243z" />
    <glyph glyph-name="sterling" unicode="&#xa3;" horiz-adv-x="1199" 
d="M301 549h-172v224h118q-71 149 -71 274q0 172 134.5 291.5t329.5 119.5q196 0 331 -120.5t152 -332.5h-328q-11 77 -51 117.5t-100 40.5q-56 0 -91.5 -38t-35.5 -95t51 -187l27 -70h308v-224h-262q-5 -169 -124 -255h584v-294h-966v280q163 76 166 269z" />
    <glyph glyph-name="currency" unicode="&#xa4;" horiz-adv-x="1308" 
d="M162 668q0 123 66 230l-175 177l186 180l182 -183q109 53 233 53q125 0 234 -53l182 183l185 -180l-175 -177q67 -108 67 -230q0 -123 -67 -231l175 -177l-185 -180l-182 183q-109 -53 -234 -53q-124 0 -233 53l-182 -183l-186 180l175 177q-66 107 -66 231zM463 668
q0 -83 55 -139.5t136 -56.5q82 0 137 56.5t55 139.5t-55 139t-137 56t-136.5 -56t-54.5 -139z" />
    <glyph glyph-name="yen" unicode="&#xa5;" horiz-adv-x="1346" 
d="M162 512h341v61l-13 21h-328v164h238l-373 676h367l279 -553l278 553h367l-374 -676h240v-164h-331l-10 -21v-61h341v-164h-341v-348h-340v348h-341v164z" />
    <glyph glyph-name="brokenbar" unicode="&#xa6;" horiz-adv-x="679" 
d="M180 717v819h320v-819h-320zM180 -287v819h320v-819h-320z" />
    <glyph glyph-name="section" unicode="&#xa7;" horiz-adv-x="1051" 
d="M553 1219q-44 0 -69 -21.5t-25 -55.5q0 -37 49.5 -67.5t177.5 -72.5q161 -53 232 -129.5t71 -199.5q0 -86 -53 -153.5t-146 -108.5q200 -91 200 -285q0 -146 -117.5 -238.5t-329.5 -92.5q-145 0 -266 69.5t-208 191.5l143 119q139 -139 299 -139q58 0 87.5 21.5
t29.5 56.5q0 39 -36 66t-140 59q-183 55 -269 136.5t-86 216.5q0 186 185 267q-186 94 -186 280q0 143 122 231t325 88q187 0 302 -92t142 -256h-312q-13 46 -44 77.5t-78 31.5zM549 499q52 17 81 52t29 80q0 94 -124 137q-52 -18 -81 -53t-29 -80q0 -94 124 -136z" />
    <glyph glyph-name="dieresis" unicode="&#xa8;" horiz-adv-x="880" 
d="M69 1323q0 69 47 116.5t117 47.5t118 -47.5t48 -116.5t-48 -116.5t-118 -47.5t-117 47.5t-47 116.5zM481 1323q0 69 48 116.5t118 47.5t117.5 -47.5t47.5 -116.5t-47.5 -116.5t-117.5 -47.5t-118 47.5t-48 116.5z" />
    <glyph glyph-name="copyright" unicode="&#xa9;" horiz-adv-x="1646" 
d="M82 717q0 153 58 290t157 236t236 157t290 58t290.5 -58t236.5 -157t157 -236t58 -290t-58 -290.5t-157 -236.5t-236.5 -157t-290.5 -58t-290 58t-236 157t-157 236.5t-58 290.5zM217 717q0 -169 80.5 -310.5t220 -223t305.5 -81.5t306 81.5t220.5 223t80.5 310.5
q0 127 -47.5 241t-128.5 195.5t-193.5 129.5t-237.5 48q-166 0 -305.5 -81t-220 -222.5t-80.5 -310.5zM414 715q0 175 113.5 289.5t290.5 114.5q171 0 272.5 -91.5t120.5 -228.5h-237q-12 48 -51.5 76.5t-93.5 28.5q-69 0 -120 -52t-51 -137q0 -89 55.5 -141.5t144.5 -52.5
q125 0 210 103l134 -93q-121 -225 -365 -225q-186 0 -304.5 116t-118.5 293z" />
    <glyph glyph-name="ordfeminine" unicode="&#xaa;" horiz-adv-x="951" 
d="M55 1061q0 164 99 276.5t245 112.5q128 0 212 -95v79h254v-746h-254v78q-84 -94 -212 -94q-146 0 -245 112.5t-99 276.5zM311 1061q0 -69 43 -115.5t107 -46.5t106.5 46.5t42.5 115.5t-42.5 115.5t-106.5 46.5t-107 -46.5t-43 -115.5z" />
    <glyph glyph-name="guillemotleft" unicode="&#xab;" horiz-adv-x="1328" 
d="M86 546v185l528 344l100 -155l-341 -282l341 -280l-100 -156zM624 546v185l528 344l99 -155l-341 -282l341 -280l-99 -156z" />
    <glyph glyph-name="logicalnot" unicode="&#xac;" horiz-adv-x="1200" 
d="M758 225v311h-639v287h962v-598h-323z" />
    <glyph glyph-name="uni00AD" unicode="&#xad;" horiz-adv-x="864" 
d="M745 530h-626v299h626v-299z" />
    <glyph glyph-name="registered" unicode="&#xae;" horiz-adv-x="1646" 
d="M82 717q0 153 58 290t157 236t236 157t290 58t290.5 -58t236.5 -157t157 -236t58 -290t-58 -290.5t-157 -236.5t-236.5 -157t-290.5 -58t-290 58t-236 157t-157 236.5t-58 290.5zM217 717q0 -169 80.5 -310.5t220 -223t305.5 -81.5t306 81.5t220.5 223t80.5 310.5
q0 127 -47.5 241t-128.5 195.5t-193.5 129.5t-237.5 48q-166 0 -305.5 -81t-220 -222.5t-80.5 -310.5zM555 1110h311q122 0 202.5 -74t80.5 -188q0 -75 -36.5 -134t-100.5 -91l160 -301h-233l-136 265h-35v-265h-213v788zM842 931h-74v-181h74q42 0 68 25t26 65t-26 65.5
t-68 25.5z" />
    <glyph glyph-name="macron" unicode="&#xaf;" horiz-adv-x="880" 
d="M113 1198v242h655v-242h-655z" />
    <glyph glyph-name="degree" unicode="&#xb0;" horiz-adv-x="827" 
d="M106 1166q0 123 89 207.5t219 84.5t218.5 -84.5t88.5 -207.5t-88.5 -206.5t-218.5 -83.5t-219 83.5t-89 206.5zM317 1166q0 -41 27.5 -68.5t69.5 -27.5t69 27.5t27 68.5q0 42 -27 70t-69 28t-69.5 -28t-27.5 -70z" />
    <glyph glyph-name="plusminus" unicode="&#xb1;" horiz-adv-x="1200" 
d="M1080 0h-961v273h961v-273zM438 351v317h-319v273h319v316h323v-316h319v-273h-319v-317h-323z" />
    <glyph glyph-name="twosuperior" unicode="&#xb2;" 
d="M613 889l-191 -207h310v-219h-640v196l322 351q38 41 54.5 73.5t16.5 67.5q0 40 -24 65t-63 25q-40 0 -68.5 -32t-29.5 -83h-234q5 145 96.5 238.5t243.5 93.5q145 0 240.5 -80t95.5 -206q0 -142 -129 -283z" />
    <glyph glyph-name="threesuperior" unicode="&#xb3;" 
d="M489 778q0 51 -33 86t-84 35q-30 0 -54 -12l-100 124l185 207h-302v216h606v-203l-172 -182q103 -32 161 -111.5t58 -185.5q0 -138 -101 -226t-260 -88q-97 0 -182 51t-148 146l117 118q92 -97 192 -97q51 0 84 35t33 87z" />
    <glyph glyph-name="acute" unicode="&#xb4;" horiz-adv-x="880" 
d="M250 1215l239 364l207 -162l-302 -314z" />
    <glyph glyph-name="mu" unicode="&#xb5;" horiz-adv-x="1282" 
d="M128 -475v1536h329v-617q0 -78 49.5 -129.5t121.5 -51.5q83 0 139 59.5t56 163.5v575h329v-1061h-329v111q-105 -126 -299 -126q-32 0 -67 6v-466h-329z" />
    <glyph glyph-name="paragraph" unicode="&#xb6;" horiz-adv-x="1211" 
d="M562 549h-51q-192 0 -323.5 127.5t-131.5 314.5t131.5 315t323.5 128h551v-1702h-203v1499h-94v-1499h-203v817z" />
    <glyph glyph-name="periodcentered" unicode="&#xb7;" horiz-adv-x="620" 
d="M115 669q0 80 55.5 134t139.5 54t140 -54t56 -134t-56 -134.5t-140 -54.5t-139.5 54.5t-55.5 134.5z" />
    <glyph glyph-name="cedilla" unicode="&#xb8;" horiz-adv-x="880" 
d="M516 -300q0 31 -25.5 53.5t-62.5 22.5q-20 0 -40 -5l-55 57v172h203v-95q97 -11 150.5 -71.5t53.5 -137.5q0 -99 -85 -163.5t-215 -64.5q-118 0 -203.5 60t-109.5 173h196q23 -74 105 -74q41 0 64.5 20t23.5 53z" />
    <glyph glyph-name="onesuperior" unicode="&#xb9;" 
d="M379 1434h223v-971h-263v722l-141 -78l-95 178z" />
    <glyph glyph-name="ordmasculine" unicode="&#xba;" horiz-adv-x="951" 
d="M59 1061q0 163 121 276t295 113q175 0 296 -113t121 -276t-121 -276t-296 -113q-174 0 -295 113t-121 276zM315 1061q0 -69 46 -115.5t114 -46.5q69 0 114.5 46.5t45.5 115.5t-45.5 115.5t-114.5 46.5q-68 0 -114 -46.5t-46 -115.5z" />
    <glyph glyph-name="guillemotright" unicode="&#xbb;" horiz-adv-x="1328" 
d="M1241 731v-185l-528 -344l-100 156l341 280l-341 282l100 155zM703 731v-185l-528 -344l-99 156l341 280l-341 282l99 155z" />
    <glyph glyph-name="onequarter" unicode="&#xbc;" horiz-adv-x="1996" 
d="M549 51l699 1434l198 -106l-698 -1433zM379 1434h223v-971h-263v722l-141 -78l-95 178zM1199 164v193l411 614h235v-596h102v-211h-102v-164h-247v164h-399zM1431 374h167v253z" />
    <glyph glyph-name="onehalf" unicode="&#xbd;" horiz-adv-x="1996" 
d="M549 51l699 1434l198 -106l-698 -1433zM379 1434h223v-971h-263v722l-141 -78l-95 178zM1781 426l-192 -207h311v-219h-640v197l321 350q39 42 55.5 74t16.5 67q0 40 -24 65t-63 25q-40 0 -69 -31.5t-30 -82.5h-234q5 145 96.5 238t243.5 93q145 0 241 -79.5t96 -205.5
q0 -143 -129 -284z" />
    <glyph glyph-name="threequarters" unicode="&#xbe;" horiz-adv-x="1996" 
d="M549 51l699 1434l198 -106l-698 -1433zM1199 164v193l411 614h235v-596h102v-211h-102v-164h-247v164h-399zM1431 374h167v253zM489 778q0 51 -33 86t-84 35q-30 0 -54 -12l-100 124l185 207h-302v216h606v-203l-172 -182q103 -32 161 -111.5t58 -185.5q0 -138 -101 -226
t-260 -88q-97 0 -182 51t-148 146l117 118q92 -97 192 -97q51 0 84 35t33 87z" />
    <glyph glyph-name="questiondown" unicode="&#xbf;" horiz-adv-x="1141" 
d="M437 616h339q0 -119 -21.5 -192t-75.5 -129.5t-161 -117.5q-57 -32 -77.5 -66t-20.5 -86q0 -49 39.5 -85t102.5 -36q80 0 127 49.5t47 131.5h328q0 -222 -142.5 -351.5t-368.5 -129.5q-106 0 -195.5 34t-149.5 91.5t-93.5 134t-33.5 161.5q0 110 51.5 196.5t166.5 158.5
q80 50 109 94.5t29 141.5zM798 897q0 -79 -58.5 -133t-144.5 -54q-87 0 -145 54t-58 133q0 80 58 134t145 54q86 0 144.5 -54t58.5 -134z" />
    <glyph glyph-name="Agrave" unicode="&#xc0;" horiz-adv-x="1422" 
d="M524 1434h373l498 -1434h-355l-93 299h-473l-93 -299h-354zM552 564h317l-158 513zM414 1816l207 162l240 -364l-145 -112z" />
    <glyph glyph-name="Aacute" unicode="&#xc1;" horiz-adv-x="1422" 
d="M524 1434h373l498 -1434h-355l-93 299h-473l-93 -299h-354zM552 564h317l-158 513zM540 1615l239 363l207 -161l-302 -315z" />
    <glyph glyph-name="Acircumflex" unicode="&#xc2;" horiz-adv-x="1422" 
d="M524 1434h373l498 -1434h-355l-93 299h-473l-93 -299h-354zM552 564h317l-158 513zM555 1895h312l214 -291l-145 -111l-226 227l-224 -227l-145 111z" />
    <glyph glyph-name="Atilde" unicode="&#xc3;" horiz-adv-x="1422" 
d="M524 1434h373l498 -1434h-355l-93 299h-473l-93 -299h-354zM552 564h317l-158 513zM723 1592q-68 37 -93 37q-41 0 -57 -74l-252 50q44 241 225 241q75 0 154 -44q68 -37 94 -37q40 0 56 74l253 -49q-44 -242 -225 -242q-76 0 -155 44z" />
    <glyph glyph-name="Adieresis" unicode="&#xc4;" horiz-adv-x="1422" 
d="M524 1434h373l498 -1434h-355l-93 299h-473l-93 -299h-354zM552 564h317l-158 513zM340 1704q0 69 47.5 116.5t117.5 47.5t118 -47.5t48 -116.5t-48 -116.5t-118 -47.5t-117.5 47.5t-47.5 116.5zM753 1704q0 69 48 116.5t118 47.5t117 -47.5t47 -116.5t-47 -116.5
t-117 -47.5t-118 47.5t-48 116.5z" />
    <glyph glyph-name="Aring" unicode="&#xc5;" horiz-adv-x="1422" 
d="M524 1434h373l498 -1434h-355l-93 299h-473l-93 -299h-354zM552 564h317l-158 513zM647 1726q0 -27 18 -45t46 -18t46.5 18t18.5 45t-18.5 45t-46.5 18t-46 -18t-18 -45zM470 1726q0 94 69 157.5t172 63.5t172.5 -63.5t69.5 -157.5t-69.5 -157t-172.5 -63t-172 63
t-69 157z" />
    <glyph glyph-name="AE" unicode="&#xc6;" horiz-adv-x="1925" 
d="M365 0h-360l775 1434h1028v-287h-563v-285h514v-282h-514v-293h582v-287h-916v299h-394zM911 1077l-263 -512h263v512z" />
    <glyph glyph-name="Ccedilla" unicode="&#xc7;" horiz-adv-x="1551" 
d="M895 -300q0 31 -25.5 53.5t-63.5 22.5q-19 0 -39 -5l-55 57v155q-137 17 -255 80.5t-201.5 159.5t-131.5 224t-48 270q0 155 56 292t153 235.5t234 156t293 57.5q255 0 431.5 -140.5t232.5 -390.5h-359q-31 112 -113.5 174t-194.5 62q-169 0 -280 -127.5t-111 -318.5
t116.5 -319t294.5 -128q142 0 249.5 59.5t193.5 183.5l187 -140q-199 -348 -545 -390v-78q96 -11 150.5 -71.5t54.5 -137.5q0 -99 -85 -163.5t-216 -64.5q-118 0 -203 60t-109 173h195q10 -36 38 -55t67 -19q41 0 65 20t24 53z" />
    <glyph glyph-name="Egrave" unicode="&#xc8;" horiz-adv-x="1179" 
d="M151 0v1434h913v-287h-575v-285h526v-282h-526v-293h593v-287h-931zM278 1816l207 162l240 -364l-145 -112z" />
    <glyph glyph-name="Eacute" unicode="&#xc9;" horiz-adv-x="1179" 
d="M151 0v1434h913v-287h-575v-285h526v-282h-526v-293h593v-287h-931zM447 1614l239 364l207 -162l-302 -314z" />
    <glyph glyph-name="Ecircumflex" unicode="&#xca;" horiz-adv-x="1179" 
d="M151 0v1434h913v-287h-575v-285h526v-282h-526v-293h593v-287h-931zM447 1895h313l214 -290l-146 -112l-225 227l-224 -227l-146 112z" />
    <glyph glyph-name="Edieresis" unicode="&#xcb;" horiz-adv-x="1179" 
d="M151 0v1434h913v-287h-575v-285h526v-282h-526v-293h593v-287h-931zM228 1704q0 69 47 116.5t117 47.5t118 -47.5t48 -116.5t-48 -116.5t-118 -47.5t-117 47.5t-47 116.5zM640 1704q0 69 48 116.5t118 47.5t117.5 -47.5t47.5 -116.5t-47.5 -116.5t-117.5 -47.5t-118 47.5
t-48 116.5z" />
    <glyph glyph-name="Igrave" unicode="&#xcc;" horiz-adv-x="651" 
d="M156 1434h339v-1434h-339v1434zM27 1817l206 161l241 -363l-145 -113z" />
    <glyph glyph-name="Iacute" unicode="&#xcd;" horiz-adv-x="651" 
d="M156 1434h339v-1434h-339v1434zM160 1614l239 364l207 -162l-302 -314z" />
    <glyph glyph-name="Icircumflex" unicode="&#xce;" horiz-adv-x="651" 
d="M156 1434h339v-1434h-339v1434zM169 1895h312l214 -291l-145 -111l-226 227l-224 -227l-145 111z" />
    <glyph glyph-name="Idieresis" unicode="&#xcf;" horiz-adv-x="651" 
d="M156 1434h339v-1434h-339v1434zM-46 1704q0 69 47.5 116.5t117.5 47.5t118 -47.5t48 -116.5t-48 -116.5t-118 -47.5t-117.5 47.5t-47.5 116.5zM367 1704q0 69 47.5 116.5t117.5 47.5t117.5 -47.5t47.5 -116.5t-47.5 -116.5t-117.5 -47.5t-117.5 47.5t-47.5 116.5z" />
    <glyph glyph-name="Eth" unicode="&#xd0;" horiz-adv-x="1518" 
d="M188 1434h535q214 0 377 -88.5t252.5 -251.5t89.5 -377q0 -324 -197.5 -520.5t-521.5 -196.5h-535v612h-174v207h174v615zM702 1139h-174v-320h234v-207h-234v-318h101q53 0 104 3q170 9 269 116.5t99 303.5q0 204 -108 313t-291 109z" />
    <glyph glyph-name="Ntilde" unicode="&#xd1;" horiz-adv-x="1455" 
d="M151 0v1434h355l484 -921v921h316v-1434h-357l-484 921v-921h-314zM739 1592q-68 37 -93 37q-40 0 -56 -74l-253 50q44 241 225 241q76 0 155 -44q68 -37 93 -37q40 0 56 74l253 -49q-44 -242 -225 -242q-76 0 -155 44z" />
    <glyph glyph-name="Ograve" unicode="&#xd2;" horiz-adv-x="1699" 
d="M418 717q0 -190 124.5 -318.5t307.5 -128.5t307.5 128.5t124.5 318.5t-124.5 318t-307.5 128t-307.5 -128t-124.5 -318zM76 717q0 206 101.5 376t279 267.5t393.5 97.5t393.5 -97.5t279 -267.5t101.5 -376q0 -154 -60 -291.5t-162.5 -236.5t-246 -156.5t-305.5 -57.5
t-305.5 57.5t-246 156.5t-162.5 236.5t-60 291.5zM531 1816l207 162l240 -364l-145 -112z" />
    <glyph glyph-name="Oacute" unicode="&#xd3;" horiz-adv-x="1699" 
d="M418 717q0 -190 124.5 -318.5t307.5 -128.5t307.5 128.5t124.5 318.5t-124.5 318t-307.5 128t-307.5 -128t-124.5 -318zM76 717q0 206 101.5 376t279 267.5t393.5 97.5t393.5 -97.5t279 -267.5t101.5 -376q0 -154 -60 -291.5t-162.5 -236.5t-246 -156.5t-305.5 -57.5
t-305.5 57.5t-246 156.5t-162.5 236.5t-60 291.5zM704 1614l239 364l207 -162l-302 -314z" />
    <glyph glyph-name="Ocircumflex" unicode="&#xd4;" horiz-adv-x="1699" 
d="M418 717q0 -190 124.5 -318.5t307.5 -128.5t307.5 128.5t124.5 318.5t-124.5 318t-307.5 128t-307.5 -128t-124.5 -318zM76 717q0 206 101.5 376t279 267.5t393.5 97.5t393.5 -97.5t279 -267.5t101.5 -376q0 -154 -60 -291.5t-162.5 -236.5t-246 -156.5t-305.5 -57.5
t-305.5 57.5t-246 156.5t-162.5 236.5t-60 291.5zM694 1895h312l214 -291l-145 -111l-226 227l-224 -227l-145 111z" />
    <glyph glyph-name="Otilde" unicode="&#xd5;" horiz-adv-x="1699" 
d="M418 717q0 -190 124.5 -318.5t307.5 -128.5t307.5 128.5t124.5 318.5t-124.5 318t-307.5 128t-307.5 -128t-124.5 -318zM76 717q0 206 101.5 376t279 267.5t393.5 97.5t393.5 -97.5t279 -267.5t101.5 -376q0 -154 -60 -291.5t-162.5 -236.5t-246 -156.5t-305.5 -57.5
t-305.5 57.5t-246 156.5t-162.5 236.5t-60 291.5zM861 1592q-68 37 -93 37q-40 0 -56 -74l-253 50q44 241 225 241q76 0 155 -44q68 -37 93 -37q40 0 56 74l253 -49q-44 -242 -225 -242q-76 0 -155 44z" />
    <glyph glyph-name="Odieresis" unicode="&#xd6;" horiz-adv-x="1699" 
d="M418 717q0 -190 124.5 -318.5t307.5 -128.5t307.5 128.5t124.5 318.5t-124.5 318t-307.5 128t-307.5 -128t-124.5 -318zM76 717q0 206 101.5 376t279 267.5t393.5 97.5t393.5 -97.5t279 -267.5t101.5 -376q0 -154 -60 -291.5t-162.5 -236.5t-246 -156.5t-305.5 -57.5
t-305.5 57.5t-246 156.5t-162.5 236.5t-60 291.5zM478 1704q0 69 47.5 116.5t117.5 47.5t118 -47.5t48 -116.5t-48 -116.5t-118 -47.5t-117.5 47.5t-47.5 116.5zM891 1704q0 69 48 116.5t118 47.5t117.5 -47.5t47.5 -116.5t-47.5 -116.5t-117.5 -47.5t-118 47.5t-48 116.5z
" />
    <glyph glyph-name="multiply" unicode="&#xd7;" horiz-adv-x="1200" 
d="M599 887l274 272l211 -211l-272 -271l272 -270l-211 -211l-274 271l-273 -271l-211 211l272 270l-272 271l211 211z" />
    <glyph glyph-name="Oslash" unicode="&#xd8;" horiz-adv-x="1699" 
d="M76 717q0 206 101.5 376t279 267.5t393.5 97.5q194 0 368 -86l143 184l157 -121l-136 -174q114 -102 178 -243t64 -301q0 -154 -60 -291.5t-162.5 -236.5t-246 -156.5t-305.5 -57.5q-208 0 -389 97l-150 -194l-157 121l146 188q-106 102 -165 238.5t-59 291.5zM1282 717
q0 163 -98 285l-532 -685q88 -47 198 -47q183 0 307.5 128.5t124.5 318.5zM418 717q0 -152 84 -268l525 676q-82 38 -177 38q-183 0 -307.5 -128t-124.5 -318z" />
    <glyph glyph-name="Ugrave" unicode="&#xd9;" horiz-adv-x="1377" 
d="M1239 1434v-958q0 -143 -74 -258t-199.5 -178t-277.5 -63t-277.5 63t-199.5 178t-74 258v958h340v-955q0 -92 60 -150t151 -58t151.5 58t60.5 150v955h339zM364 1816l207 162l240 -364l-145 -112z" />
    <glyph glyph-name="Uacute" unicode="&#xda;" horiz-adv-x="1377" 
d="M1239 1434v-958q0 -143 -74 -258t-199.5 -178t-277.5 -63t-277.5 63t-199.5 178t-74 258v958h340v-955q0 -92 60 -150t151 -58t151.5 58t60.5 150v955h339zM551 1614l239 364l207 -162l-302 -314z" />
    <glyph glyph-name="Ucircumflex" unicode="&#xdb;" horiz-adv-x="1377" 
d="M1239 1434v-958q0 -143 -74 -258t-199.5 -178t-277.5 -63t-277.5 63t-199.5 178t-74 258v958h340v-955q0 -92 60 -150t151 -58t151.5 58t60.5 150v955h339zM533 1895h312l214 -291l-145 -111l-226 227l-224 -227l-145 111z" />
    <glyph glyph-name="Udieresis" unicode="&#xdc;" horiz-adv-x="1377" 
d="M1239 1434v-958q0 -143 -74 -258t-199.5 -178t-277.5 -63t-277.5 63t-199.5 178t-74 258v958h340v-955q0 -92 60 -150t151 -58t151.5 58t60.5 150v955h339zM317 1704q0 69 47.5 116.5t117.5 47.5t118 -47.5t48 -116.5t-48 -116.5t-118 -47.5t-117.5 47.5t-47.5 116.5z
M730 1704q0 69 48 116.5t118 47.5t117.5 -47.5t47.5 -116.5t-47.5 -116.5t-117.5 -47.5t-118 47.5t-48 116.5z" />
    <glyph glyph-name="Yacute" unicode="&#xdd;" horiz-adv-x="1346" 
d="M395 1434l278 -549l278 549h368l-476 -867v-567h-339v567l-476 867h367zM536 1614l239 364l207 -162l-302 -314z" />
    <glyph glyph-name="Thorn" unicode="&#xde;" horiz-adv-x="1243" 
d="M680 240h-191v-240h-339v1434h339v-241h191q225 0 365.5 -133t140.5 -343q0 -211 -140.5 -344t-365.5 -133zM850 717q0 94 -55 150.5t-152 56.5h-154v-415h154q97 0 152 56.5t55 151.5z" />
    <glyph glyph-name="germandbls" unicode="&#xdf;" horiz-adv-x="1270" 
d="M502 99l75 214q81 -47 158 -47q70 0 109.5 54t39.5 148q0 77 -57 137.5t-134 60.5q-30 0 -63 -14l-88 166l166 336h-248v-1154h-323v1434h880v-273l-160 -296q151 -29 243 -151.5t92 -297.5q0 -211 -109.5 -323t-280.5 -112q-84 0 -164 30.5t-136 87.5z" />
    <glyph glyph-name="agrave" unicode="&#xe0;" horiz-adv-x="1350" 
d="M62 530q0 154 63 281t178 200.5t258 73.5q204 0 337 -141v117h324v-1061h-324v117q-134 -142 -337 -142q-143 0 -258 73.5t-178 200.5t-63 281zM389 530q0 -114 73 -190t180 -76q108 0 182 76.5t74 189.5t-74 190t-182 77q-107 0 -180 -77t-73 -190zM365 1485l207 162
l240 -364l-145 -112z" />
    <glyph glyph-name="aacute" unicode="&#xe1;" horiz-adv-x="1350" 
d="M62 530q0 154 63 281t178 200.5t258 73.5q204 0 337 -141v117h324v-1061h-324v117q-134 -142 -337 -142q-143 0 -258 73.5t-178 200.5t-63 281zM389 530q0 -114 73 -190t180 -76q108 0 182 76.5t74 189.5t-74 190t-182 77q-107 0 -180 -77t-73 -190zM495 1283l239 364
l207 -162l-302 -314z" />
    <glyph glyph-name="acircumflex" unicode="&#xe2;" horiz-adv-x="1350" 
d="M62 530q0 154 63 281t178 200.5t258 73.5q204 0 337 -141v117h324v-1061h-324v117q-134 -142 -337 -142q-143 0 -258 73.5t-178 200.5t-63 281zM389 530q0 -114 73 -190t180 -76q108 0 182 76.5t74 189.5t-74 190t-182 77q-107 0 -180 -77t-73 -190zM518 1564h312
l214 -291l-145 -111l-226 227l-224 -227l-145 111z" />
    <glyph glyph-name="atilde" unicode="&#xe3;" horiz-adv-x="1350" 
d="M62 530q0 154 63 281t178 200.5t258 73.5q204 0 337 -141v117h324v-1061h-324v117q-134 -142 -337 -142q-143 0 -258 73.5t-178 200.5t-63 281zM389 530q0 -114 73 -190t180 -76q108 0 182 76.5t74 189.5t-74 190t-182 77q-107 0 -180 -77t-73 -190zM672 1255
q-68 37 -93 37q-42 0 -57 -73l-253 49q44 241 226 241q75 0 154 -44q68 -37 93 -37q41 0 57 74l253 -49q-44 -242 -226 -242q-75 0 -154 44z" />
    <glyph glyph-name="adieresis" unicode="&#xe4;" horiz-adv-x="1350" 
d="M62 530q0 154 63 281t178 200.5t258 73.5q204 0 337 -141v117h324v-1061h-324v117q-134 -142 -337 -142q-143 0 -258 73.5t-178 200.5t-63 281zM389 530q0 -114 73 -190t180 -76q108 0 182 76.5t74 189.5t-74 190t-182 77q-107 0 -180 -77t-73 -190zM281 1372
q0 69 47 116.5t117 47.5t118 -47.5t48 -116.5t-48 -116.5t-118 -47.5t-117 47.5t-47 116.5zM693 1372q0 69 48 116.5t118 47.5t117.5 -47.5t47.5 -116.5t-47.5 -116.5t-117.5 -47.5t-118 47.5t-48 116.5z" />
    <glyph glyph-name="aring" unicode="&#xe5;" horiz-adv-x="1350" 
d="M62 530q0 154 63 281t178 200.5t258 73.5q204 0 337 -141v117h324v-1061h-324v117q-134 -142 -337 -142q-143 0 -258 73.5t-178 200.5t-63 281zM389 530q0 -114 73 -190t180 -76q108 0 182 76.5t74 189.5t-74 190t-182 77q-107 0 -180 -77t-73 -190zM591 1394
q0 -27 18 -45t46 -18t46.5 18t18.5 45t-18.5 45t-46.5 18t-46 -18t-18 -45zM414 1394q0 94 69 157.5t172 63.5t172.5 -63.5t69.5 -157.5t-69.5 -157t-172.5 -63t-172 63t-69 157z" />
    <glyph glyph-name="ae" unicode="&#xe6;" horiz-adv-x="2123" 
d="M1233 439q17 -101 92 -158.5t193 -57.5q198 0 343 129l139 -155q-180 -222 -449 -222q-100 0 -188 40t-141 107v-122h-324v117q-134 -142 -337 -142q-143 0 -258 73.5t-178 200.5t-63 281t63 281t178 200.5t258 73.5q204 0 337 -141v117h324v-119q103 143 306 143
q150 0 269 -72t183.5 -194.5t64.5 -270.5q0 -57 -15 -109h-797zM389 530q0 -114 73 -190t180 -76q108 0 182 76.5t74 189.5t-74 190t-182 77q-107 0 -180 -77t-73 -190zM1480 838q-88 0 -153.5 -52t-88.5 -139h473q-20 89 -80.5 140t-150.5 51z" />
    <glyph glyph-name="ccedilla" unicode="&#xe7;" horiz-adv-x="1210" 
d="M715 -300q0 31 -25.5 53.5t-63.5 22.5q-18 0 -40 -5l-56 57v157q-206 35 -337 187t-131 358q0 153 73.5 280.5t202 201t284.5 73.5q206 0 345.5 -110t180.5 -296h-340q-48 118 -186 118q-97 0 -165 -77t-68 -190q0 -116 73 -191t197 -75q176 0 300 151l163 -129
q-138 -262 -388 -302v-79q96 -11 150.5 -71.5t54.5 -137.5q0 -99 -85.5 -163.5t-215.5 -64.5q-118 0 -203 60t-109 173h195q10 -36 38 -55t67 -19q41 0 65 20t24 53z" />
    <glyph glyph-name="egrave" unicode="&#xe8;" horiz-adv-x="1266" 
d="M392 439q18 -101 93 -158.5t193 -57.5q198 0 343 129l139 -155q-200 -222 -486 -222q-135 0 -250 43t-194 117.5t-123.5 176.5t-44.5 218q0 154 76 281t209.5 200.5t296.5 73.5q119 0 224 -42t178.5 -114.5t116 -171.5t42.5 -209q0 -57 -15 -109h-798zM640 838
q-90 0 -154.5 -51t-88.5 -140h473q-20 89 -80 140t-150 51zM325 1485l207 162l240 -364l-145 -112z" />
    <glyph glyph-name="eacute" unicode="&#xe9;" horiz-adv-x="1266" 
d="M392 439q18 -101 93 -158.5t193 -57.5q198 0 343 129l139 -155q-200 -222 -486 -222q-135 0 -250 43t-194 117.5t-123.5 176.5t-44.5 218q0 154 76 281t209.5 200.5t296.5 73.5q119 0 224 -42t178.5 -114.5t116 -171.5t42.5 -209q0 -57 -15 -109h-798zM640 838
q-90 0 -154.5 -51t-88.5 -140h473q-20 89 -80 140t-150 51zM481 1283l239 364l207 -162l-302 -314z" />
    <glyph glyph-name="ecircumflex" unicode="&#xea;" horiz-adv-x="1266" 
d="M392 439q18 -101 93 -158.5t193 -57.5q198 0 343 129l139 -155q-200 -222 -486 -222q-135 0 -250 43t-194 117.5t-123.5 176.5t-44.5 218q0 154 76 281t209.5 200.5t296.5 73.5q119 0 224 -42t178.5 -114.5t116 -171.5t42.5 -209q0 -57 -15 -109h-798zM640 838
q-90 0 -154.5 -51t-88.5 -140h473q-20 89 -80 140t-150 51zM477 1564h313l214 -291l-146 -112l-225 228l-224 -228l-146 112z" />
    <glyph glyph-name="edieresis" unicode="&#xeb;" horiz-adv-x="1266" 
d="M392 439q18 -101 93 -158.5t193 -57.5q198 0 343 129l139 -155q-200 -222 -486 -222q-135 0 -250 43t-194 117.5t-123.5 176.5t-44.5 218q0 154 76 281t209.5 200.5t296.5 73.5q119 0 224 -42t178.5 -114.5t116 -171.5t42.5 -209q0 -57 -15 -109h-798zM640 838
q-90 0 -154.5 -51t-88.5 -140h473q-20 89 -80 140t-150 51zM263 1372q0 69 47 116.5t117 47.5t118 -47.5t48 -116.5t-48 -116.5t-118 -47.5t-117 47.5t-47 116.5zM675 1372q0 69 48 116.5t118 47.5t117.5 -47.5t47.5 -116.5t-47.5 -116.5t-117.5 -47.5t-118 47.5t-48 116.5z
" />
    <glyph glyph-name="igrave" unicode="&#xec;" horiz-adv-x="589" 
d="M-14 1485l207 162l240 -364l-145 -113zM130 0v1061h329v-1061h-329z" />
    <glyph glyph-name="iacute" unicode="&#xed;" horiz-adv-x="589" 
d="M139 1283l240 364l207 -162l-302 -315zM130 0v1061h329v-1061h-329z" />
    <glyph glyph-name="icircumflex" unicode="&#xee;" horiz-adv-x="589" 
d="M130 0v1061h329v-1061h-329zM137 1564h313l214 -291l-146 -112l-225 228l-224 -228l-146 112z" />
    <glyph glyph-name="idieresis" unicode="&#xef;" horiz-adv-x="589" 
d="M-77 1372q0 69 47.5 116.5t117.5 47.5t118 -47.5t48 -116.5t-48 -116.5t-118 -47.5t-117.5 47.5t-47.5 116.5zM336 1372q0 69 48 116.5t118 47.5t117.5 -47.5t47.5 -116.5t-47.5 -116.5t-117.5 -47.5t-118 47.5t-48 116.5zM130 0v1061h329v-1061h-329z" />
    <glyph glyph-name="eth" unicode="&#xf0;" horiz-adv-x="1284" 
d="M334 1028l-79 142l179 86q-71 42 -177 87l153 208q65 -28 157.5 -78t138.5 -82l194 94l79 -148l-127 -60q171 -153 265 -348.5t94 -408.5q0 -151 -73.5 -275.5t-205.5 -197t-295 -72.5q-159 0 -291 69.5t-208 190t-76 265.5q0 143 78.5 263.5t200 186.5t253.5 66
q97 0 165 -45q-65 98 -167 180zM387 509q0 -104 72.5 -174.5t179.5 -70.5q106 0 179 70.5t73 174.5t-73 174.5t-179 70.5q-107 0 -179.5 -70.5t-72.5 -174.5z" />
    <glyph glyph-name="ntilde" unicode="&#xf1;" horiz-adv-x="1261" 
d="M752 1085q175 0 288 -116t113 -303v-666h-329v613q0 72 -50.5 128t-120.5 56q-83 0 -139 -59.5t-56 -164.5v-573h-329v1061h329v-112q113 136 294 136zM652 1255q-68 37 -93 37q-41 0 -56 -73l-253 49q44 241 225 241q76 0 155 -44q68 -37 93 -37q40 0 56 74l253 -49
q-44 -242 -225 -242q-76 0 -155 44z" />
    <glyph glyph-name="ograve" unicode="&#xf2;" horiz-adv-x="1311" 
d="M62 530q0 115 45.5 217.5t124 176.5t189 117.5t235.5 43.5t235.5 -43.5t189 -117.5t124 -176.5t45.5 -217.5t-45.5 -217.5t-124 -176.5t-189 -117.5t-235.5 -43.5t-235.5 43.5t-189 117.5t-124 176.5t-45.5 217.5zM389 530q0 -114 76 -190t191 -76t191.5 76t76.5 190
t-77 190.5t-191 76.5t-190.5 -76.5t-76.5 -190.5zM336 1485l207 162l240 -364l-145 -112z" />
    <glyph glyph-name="oacute" unicode="&#xf3;" horiz-adv-x="1311" 
d="M62 530q0 115 45.5 217.5t124 176.5t189 117.5t235.5 43.5t235.5 -43.5t189 -117.5t124 -176.5t45.5 -217.5t-45.5 -217.5t-124 -176.5t-189 -117.5t-235.5 -43.5t-235.5 43.5t-189 117.5t-124 176.5t-45.5 217.5zM389 530q0 -114 76 -190t191 -76t191.5 76t76.5 190
t-77 190.5t-191 76.5t-190.5 -76.5t-76.5 -190.5zM514 1283l239 364l207 -162l-302 -314z" />
    <glyph glyph-name="ocircumflex" unicode="&#xf4;" horiz-adv-x="1311" 
d="M62 530q0 115 45.5 217.5t124 176.5t189 117.5t235.5 43.5t235.5 -43.5t189 -117.5t124 -176.5t45.5 -217.5t-45.5 -217.5t-124 -176.5t-189 -117.5t-235.5 -43.5t-235.5 43.5t-189 117.5t-124 176.5t-45.5 217.5zM389 530q0 -114 76 -190t191 -76t191.5 76t76.5 190
t-77 190.5t-191 76.5t-190.5 -76.5t-76.5 -190.5zM500 1564h312l214 -291l-145 -111l-226 227l-224 -227l-145 111z" />
    <glyph glyph-name="otilde" unicode="&#xf5;" horiz-adv-x="1311" 
d="M62 530q0 115 45.5 217.5t124 176.5t189 117.5t235.5 43.5t235.5 -43.5t189 -117.5t124 -176.5t45.5 -217.5t-45.5 -217.5t-124 -176.5t-189 -117.5t-235.5 -43.5t-235.5 43.5t-189 117.5t-124 176.5t-45.5 217.5zM389 530q0 -114 76 -190t191 -76t191.5 76t76.5 190
t-77 190.5t-191 76.5t-190.5 -76.5t-76.5 -190.5zM668 1255q-68 37 -94 37q-41 0 -56 -73l-253 49q44 241 225 241q76 0 155 -44q68 -37 93 -37q41 0 57 74l253 -49q-44 -242 -226 -242q-75 0 -154 44z" />
    <glyph glyph-name="odieresis" unicode="&#xf6;" horiz-adv-x="1311" 
d="M62 530q0 115 45.5 217.5t124 176.5t189 117.5t235.5 43.5t235.5 -43.5t189 -117.5t124 -176.5t45.5 -217.5t-45.5 -217.5t-124 -176.5t-189 -117.5t-235.5 -43.5t-235.5 43.5t-189 117.5t-124 176.5t-45.5 217.5zM389 530q0 -114 76 -190t191 -76t191.5 76t76.5 190
t-77 190.5t-191 76.5t-190.5 -76.5t-76.5 -190.5zM285 1372q0 69 47.5 116.5t117.5 47.5t117.5 -47.5t47.5 -116.5t-47.5 -116.5t-117.5 -47.5t-117.5 47.5t-47.5 116.5zM697 1372q0 69 48 116.5t118 47.5t117.5 -47.5t47.5 -116.5t-47.5 -116.5t-117.5 -47.5t-118 47.5
t-48 116.5z" />
    <glyph glyph-name="divide" unicode="&#xf7;" horiz-adv-x="1200" 
d="M1081 540h-962v279h962v-279zM412 1093q0 76 53 128.5t131 52.5t131 -52.5t53 -128.5q0 -77 -53 -130t-131 -53t-131 53t-53 130zM412 267q0 77 53 130t131 53t131 -53t53 -130t-53 -129.5t-131 -52.5t-131 52.5t-53 129.5z" />
    <glyph glyph-name="oslash" unicode="&#xf8;" horiz-adv-x="1311" 
d="M62 530q0 115 45.5 217.5t124 176.5t189 117.5t235.5 43.5q148 0 270 -58l117 151l146 -113l-110 -140q81 -76 126 -178t45 -217t-45.5 -217.5t-124 -176.5t-189 -117.5t-235.5 -43.5q-143 0 -272 59l-118 -152l-145 113l110 141q-80 76 -124.5 177.5t-44.5 216.5z
M931 530q0 82 -44 148l-318 -407q42 -14 87 -14q117 0 196 78.5t79 194.5zM382 530q0 -82 42 -146l316 404q-46 16 -84 16q-117 0 -195.5 -79t-78.5 -195z" />
    <glyph glyph-name="ugrave" unicode="&#xf9;" horiz-adv-x="1261" 
d="M509 -25q-175 0 -288 116t-113 303v667h328v-615q0 -75 50 -129t121 -54q85 0 140.5 61.5t55.5 170.5v566h329v-1061h-329v111q-114 -136 -294 -136zM290 1485l207 162l240 -364l-145 -112z" />
    <glyph glyph-name="uacute" unicode="&#xfa;" horiz-adv-x="1261" 
d="M509 -25q-175 0 -288 116t-113 303v667h328v-615q0 -75 50 -129t121 -54q85 0 140.5 61.5t55.5 170.5v566h329v-1061h-329v111q-114 -136 -294 -136zM481 1283l239 364l207 -162l-302 -314z" />
    <glyph glyph-name="ucircumflex" unicode="&#xfb;" horiz-adv-x="1261" 
d="M509 -25q-175 0 -288 116t-113 303v667h328v-615q0 -75 50 -129t121 -54q85 0 140.5 61.5t55.5 170.5v566h329v-1061h-329v111q-114 -136 -294 -136zM464 1564h312l214 -291l-145 -111l-226 227l-224 -227l-145 111z" />
    <glyph glyph-name="udieresis" unicode="&#xfc;" horiz-adv-x="1261" 
d="M509 -25q-175 0 -288 116t-113 303v667h328v-615q0 -75 50 -129t121 -54q85 0 140.5 61.5t55.5 170.5v566h329v-1061h-329v111q-114 -136 -294 -136zM249 1372q0 69 47.5 116.5t117.5 47.5t118 -47.5t48 -116.5t-48 -116.5t-118 -47.5t-117.5 47.5t-47.5 116.5zM662 1372
q0 69 47.5 116.5t117.5 47.5t117.5 -47.5t47.5 -116.5t-47.5 -116.5t-117.5 -47.5t-117.5 47.5t-47.5 116.5z" />
    <glyph glyph-name="yacute" unicode="&#xfd;" horiz-adv-x="1118" 
d="M550 -475h-345l192 475l-379 1061h343l196 -643l199 643h343zM416 1283l239 364l207 -162l-302 -314z" />
    <glyph glyph-name="thorn" unicode="&#xfe;" horiz-adv-x="1350" 
d="M1288 530q0 -154 -63 -281t-177.5 -200.5t-257.5 -73.5q-205 0 -337 142v-592h-324v1970h324v-551q131 141 337 141q143 0 257.5 -73.5t177.5 -200.5t63 -281zM962 530q0 113 -73.5 190t-180.5 77t-181 -77t-74 -190t74 -189.5t181 -76.5t180.5 76.5t73.5 189.5z" />
    <glyph glyph-name="ydieresis" unicode="&#xff;" horiz-adv-x="1118" 
d="M550 -475h-345l192 475l-379 1061h343l196 -643l199 643h343zM187 1372q0 69 47 116.5t117 47.5t118 -47.5t48 -116.5t-48 -116.5t-118 -47.5t-117 47.5t-47 116.5zM599 1372q0 69 48 116.5t118 47.5t117.5 -47.5t47.5 -116.5t-47.5 -116.5t-117.5 -47.5t-118 47.5
t-48 116.5z" />
    <glyph glyph-name="Amacron" unicode="&#x100;" horiz-adv-x="1422" 
d="M524 1434h373l498 -1434h-355l-93 299h-473l-93 -299h-354zM552 564h317l-158 513zM384 1580v242h655v-242h-655z" />
    <glyph glyph-name="amacron" unicode="&#x101;" horiz-adv-x="1350" 
d="M62 530q0 154 63 281t178 200.5t258 73.5q204 0 337 -141v117h324v-1061h-324v117q-134 -142 -337 -142q-143 0 -258 73.5t-178 200.5t-63 281zM389 530q0 -114 73 -190t180 -76q108 0 182 76.5t74 189.5t-74 190t-182 77q-107 0 -180 -77t-73 -190zM330 1248v242h655
v-242h-655z" />
    <glyph glyph-name="Abreve" unicode="&#x102;" horiz-adv-x="1422" 
d="M524 1434h373l498 -1434h-355l-93 299h-473l-93 -299h-354zM552 564h317l-158 513zM712 1524q-150 0 -261 91t-116 230h263q1 -49 34 -81.5t80 -32.5t79.5 32.5t33.5 81.5h264q-5 -139 -116 -230t-261 -91z" />
    <glyph glyph-name="abreve" unicode="&#x103;" horiz-adv-x="1350" 
d="M62 530q0 154 63 281t178 200.5t258 73.5q204 0 337 -141v117h324v-1061h-324v117q-134 -142 -337 -142q-143 0 -258 73.5t-178 200.5t-63 281zM389 530q0 -114 73 -190t180 -76q108 0 182 76.5t74 189.5t-74 190t-182 77q-107 0 -180 -77t-73 -190zM657 1192
q-150 0 -260.5 91t-115.5 230h263q1 -49 33.5 -81.5t79.5 -32.5t80 32.5t34 81.5h263q-5 -139 -116 -230t-261 -91z" />
    <glyph glyph-name="Aogonek" unicode="&#x104;" horiz-adv-x="1422" 
d="M1182 0h-142l-93 299h-473l-93 -299h-354l497 1434h373l498 -1434q-183 -143 -183 -246q0 -46 21.5 -71.5t54.5 -25.5q36 0 59.5 26.5t26.5 75.5h219q-13 -135 -96 -209t-218 -74q-121 0 -208.5 68.5t-87.5 175.5q0 74 53.5 148.5t145.5 131.5zM552 564h317l-158 513z
" />
    <glyph glyph-name="aogonek" unicode="&#x105;" horiz-adv-x="1350" 
d="M62 530q0 154 63 281t178 200.5t258 73.5q204 0 337 -141v117h324v-1061q-184 -142 -184 -247q0 -45 22 -70.5t55 -25.5q36 0 59.5 26.5t26.5 74.5h218q-13 -135 -95.5 -209t-218.5 -74q-121 0 -208 69t-87 176q0 73 53 147.5t145 132.5h-110v117q-134 -142 -337 -142
q-143 0 -258 73.5t-178 200.5t-63 281zM389 530q0 -114 73 -190t180 -76q108 0 182 76.5t74 189.5t-74 190t-182 77q-107 0 -180 -77t-73 -190z" />
    <glyph glyph-name="Cacute" unicode="&#x106;" horiz-adv-x="1551" 
d="M1272 512l186 -139q-224 -398 -643 -398q-208 0 -377.5 98t-265.5 268t-96 376q0 208 93.5 377.5t260.5 266.5t375 97q257 0 436 -140.5t234 -391.5h-358q-32 113 -114.5 175t-194.5 62q-170 0 -280.5 -127t-110.5 -319t117 -320t294 -128q143 0 250 59.5t194 183.5z
M634 1614l239 364l207 -162l-302 -314z" />
    <glyph glyph-name="cacute" unicode="&#x107;" horiz-adv-x="1210" 
d="M959 415l163 -129q-164 -311 -483 -311q-161 0 -294 73.5t-208 201t-75 280.5t73.5 280.5t202 201t284.5 73.5q206 0 345.5 -110t180.5 -296h-340q-48 118 -186 118q-97 0 -165 -77t-68 -190q0 -116 73 -191t197 -75q176 0 300 151zM447 1283l239 364l207 -162l-302 -314
z" />
    <glyph glyph-name="Ccircumflex" unicode="&#x108;" horiz-adv-x="1551" 
d="M1272 512l186 -139q-224 -398 -643 -398q-208 0 -377.5 98t-265.5 268t-96 376q0 208 93.5 377.5t260.5 266.5t375 97q257 0 436 -140.5t234 -391.5h-358q-32 113 -114.5 175t-194.5 62q-170 0 -280.5 -127t-110.5 -319t117 -320t294 -128q143 0 250 59.5t194 183.5z
M645 1895h312l214 -291l-145 -111l-226 227l-224 -227l-145 111z" />
    <glyph glyph-name="ccircumflex" unicode="&#x109;" horiz-adv-x="1210" 
d="M959 415l163 -129q-164 -311 -483 -311q-161 0 -294 73.5t-208 201t-75 280.5t73.5 280.5t202 201t284.5 73.5q206 0 345.5 -110t180.5 -296h-340q-48 118 -186 118q-97 0 -165 -77t-68 -190q0 -116 73 -191t197 -75q176 0 300 151zM451 1564h312l214 -291l-145 -111
l-226 227l-224 -227l-145 111z" />
    <glyph glyph-name="Cdotaccent" unicode="&#x10a;" horiz-adv-x="1551" 
d="M1272 512l186 -139q-224 -398 -643 -398q-208 0 -377.5 98t-265.5 268t-96 376q0 208 93.5 377.5t260.5 266.5t375 97q257 0 436 -140.5t234 -391.5h-358q-32 113 -114.5 175t-194.5 62q-170 0 -280.5 -127t-110.5 -319t117 -320t294 -128q143 0 250 59.5t194 183.5z
M628 1703q0 71 49.5 120t121.5 49t121.5 -49t49.5 -120t-49.5 -120t-121.5 -49t-121.5 49t-49.5 120z" />
    <glyph glyph-name="cdotaccent" unicode="&#x10b;" horiz-adv-x="1210" 
d="M959 415l163 -129q-164 -311 -483 -311q-161 0 -294 73.5t-208 201t-75 280.5t73.5 280.5t202 201t284.5 73.5q206 0 345.5 -110t180.5 -296h-340q-48 118 -186 118q-97 0 -165 -77t-68 -190q0 -116 73 -191t197 -75q176 0 300 151zM453 1371q0 71 49.5 120t121.5 49
t121.5 -49t49.5 -120t-49.5 -120t-121.5 -49t-121.5 49t-49.5 120z" />
    <glyph glyph-name="Ccaron" unicode="&#x10c;" horiz-adv-x="1551" 
d="M1272 512l186 -139q-224 -398 -643 -398q-208 0 -377.5 98t-265.5 268t-96 376q0 208 93.5 377.5t260.5 266.5t375 97q257 0 436 -140.5t234 -391.5h-358q-32 113 -114.5 175t-194.5 62q-170 0 -280.5 -127t-110.5 -319t117 -320t294 -128q143 0 250 59.5t194 183.5z
M957 1545h-312l-214 291l146 112l224 -228l225 228l145 -112z" />
    <glyph glyph-name="ccaron" unicode="&#x10d;" horiz-adv-x="1210" 
d="M959 415l163 -129q-164 -311 -483 -311q-161 0 -294 73.5t-208 201t-75 280.5t73.5 280.5t202 201t284.5 73.5q206 0 345.5 -110t180.5 -296h-340q-48 118 -186 118q-97 0 -165 -77t-68 -190q0 -116 73 -191t197 -75q176 0 300 151zM764 1193h-312l-214 291l145 111
l224 -227l226 227l145 -111z" />
    <glyph glyph-name="Dcaron" unicode="&#x10e;" horiz-adv-x="1479" 
d="M150 1434h534q214 0 377 -88.5t252.5 -251.5t89.5 -377q0 -324 -197.5 -520.5t-521.5 -196.5h-534v1434zM664 1139h-175v-845h101q53 0 104 3q170 9 269 116.5t99 303.5q0 204 -107.5 313t-290.5 109zM835 1545h-312l-214 291l145 111l224 -227l226 227l145 -111z" />
    <glyph glyph-name="dcaron" unicode="&#x10f;" horiz-adv-x="1724" 
d="M62 530q0 154 63 281t178 200.5t258 73.5q204 0 337 -141v551h324v-1495h-324v117q-134 -142 -337 -142q-143 0 -258 73.5t-178 200.5t-63 281zM389 530q0 -114 73 -190t180 -76q108 0 182 76.5t74 189.5t-74 190t-182 77q-107 0 -180 -77t-73 -190zM1342 1363
q0 60 49.5 108.5t130.5 48.5q75 0 124 -51t49 -133q0 -88 -34 -168t-112.5 -150.5t-192.5 -109.5l-66 93q70 43 106 76.5t43 65t-7.5 59.5t-50.5 66q-39 40 -39 95z" />
    <glyph glyph-name="Dcroat" unicode="&#x110;" horiz-adv-x="1518" 
d="M188 1434h535q214 0 377 -88.5t252.5 -251.5t89.5 -377q0 -324 -197.5 -520.5t-521.5 -196.5h-535v612h-174v207h174v615zM702 1139h-174v-320h234v-207h-234v-318h101q53 0 104 3q170 9 269 116.5t99 303.5q0 204 -108 313t-291 109z" />
    <glyph glyph-name="dcroat" unicode="&#x111;" horiz-adv-x="1379" 
d="M616 1171v187h282v137h323v-137h137v-187h-137v-1171h-323v117q-136 -142 -338 -142q-216 0 -357.5 160t-141.5 395q0 154 63.5 280.5t178 200.5t257.5 74q202 0 338 -142v228h-282zM388 530q0 -114 73.5 -190.5t180.5 -76.5t181.5 77t74.5 190q0 112 -74.5 189.5
t-181.5 77.5t-180.5 -77.5t-73.5 -189.5z" />
    <glyph glyph-name="Emacron" unicode="&#x112;" horiz-adv-x="1179" 
d="M151 0v1434h913v-287h-575v-285h526v-282h-526v-293h593v-287h-931zM273 1580v242h656v-242h-656z" />
    <glyph glyph-name="emacron" unicode="&#x113;" horiz-adv-x="1266" 
d="M392 439q18 -101 93 -158.5t193 -57.5q198 0 343 129l139 -155q-200 -222 -486 -222q-135 0 -250 43t-194 117.5t-123.5 176.5t-44.5 218q0 154 76 281t209.5 200.5t296.5 73.5q119 0 224 -42t178.5 -114.5t116 -171.5t42.5 -209q0 -57 -15 -109h-798zM640 838
q-90 0 -154.5 -51t-88.5 -140h473q-20 89 -80 140t-150 51zM306 1248v242h656v-242h-656z" />
    <glyph glyph-name="Ebreve" unicode="&#x114;" horiz-adv-x="1179" 
d="M151 0v1434h913v-287h-575v-285h526v-282h-526v-293h593v-287h-931zM605 1524q-150 0 -261 91t-116 230h264q1 -49 33.5 -81.5t79.5 -32.5t80 32.5t34 81.5h263q-5 -139 -116 -230t-261 -91z" />
    <glyph glyph-name="ebreve" unicode="&#x115;" horiz-adv-x="1266" 
d="M392 439q18 -101 93 -158.5t193 -57.5q198 0 343 129l139 -155q-200 -222 -486 -222q-135 0 -250 43t-194 117.5t-123.5 176.5t-44.5 218q0 154 76 281t209.5 200.5t296.5 73.5q119 0 224 -42t178.5 -114.5t116 -171.5t42.5 -209q0 -57 -15 -109h-798zM640 838
q-90 0 -154.5 -51t-88.5 -140h473q-20 89 -80 140t-150 51zM634 1192q-150 0 -261 91t-116 230h263q1 -49 34 -81.5t80 -32.5t80 32.5t34 81.5h263q-5 -139 -116 -230t-261 -91z" />
    <glyph glyph-name="Edotaccent" unicode="&#x116;" horiz-adv-x="1179" 
d="M151 0v1434h913v-287h-575v-285h526v-282h-526v-293h593v-287h-931zM441 1703q0 71 49.5 120t121.5 49t121.5 -49t49.5 -120t-49.5 -120t-121.5 -49t-121.5 49t-49.5 120z" />
    <glyph glyph-name="edotaccent" unicode="&#x117;" horiz-adv-x="1266" 
d="M392 439q18 -101 93 -158.5t193 -57.5q198 0 343 129l139 -155q-200 -222 -486 -222q-135 0 -250 43t-194 117.5t-123.5 176.5t-44.5 218q0 154 76 281t209.5 200.5t296.5 73.5q119 0 224 -42t178.5 -114.5t116 -171.5t42.5 -209q0 -57 -15 -109h-798zM640 838
q-90 0 -154.5 -51t-88.5 -140h473q-20 89 -80 140t-150 51zM463 1371q0 71 49.5 120t121.5 49t121.5 -49t49.5 -120t-49.5 -120t-121.5 -49t-121.5 49t-49.5 120z" />
    <glyph glyph-name="Eogonek" unicode="&#x118;" horiz-adv-x="1179" 
d="M151 0v1434h913v-287h-575v-285h526v-282h-526v-293h593v-287h-157q-183 -143 -183 -247q0 -45 22 -70.5t54 -25.5q36 0 59.5 26.5t27.5 74.5h218q-13 -135 -96 -209t-218 -74q-121 0 -208.5 69t-87.5 176q0 73 53.5 147.5t145.5 132.5h-561z" />
    <glyph glyph-name="eogonek" unicode="&#x119;" horiz-adv-x="1266" 
d="M392 439q18 -101 93 -158.5t193 -57.5q198 0 343 129l139 -155q-160 -178 -375 -212q-162 -131 -162 -232q0 -45 21 -70.5t54 -25.5q36 0 59.5 26.5t26.5 74.5h220q-14 -135 -97 -209t-218 -74q-121 0 -208.5 69t-87.5 176q0 68 46 137.5t126 125.5q-227 32 -365 183.5
t-138 363.5q0 154 76 281t209.5 200.5t296.5 73.5q119 0 224 -42t178.5 -114.5t116 -171.5t42.5 -209q0 -57 -15 -109h-798zM640 838q-90 0 -154.5 -51t-88.5 -140h473q-20 89 -80 140t-150 51z" />
    <glyph glyph-name="Ecaron" unicode="&#x11a;" horiz-adv-x="1179" 
d="M151 0v1434h913v-287h-575v-285h526v-282h-526v-293h593v-287h-931zM760 1545h-312l-214 291l145 111l224 -227l226 227l145 -111z" />
    <glyph glyph-name="ecaron" unicode="&#x11b;" horiz-adv-x="1266" 
d="M392 439q18 -101 93 -158.5t193 -57.5q198 0 343 129l139 -155q-200 -222 -486 -222q-135 0 -250 43t-194 117.5t-123.5 176.5t-44.5 218q0 154 76 281t209.5 200.5t296.5 73.5q119 0 224 -42t178.5 -114.5t116 -171.5t42.5 -209q0 -57 -15 -109h-798zM640 838
q-90 0 -154.5 -51t-88.5 -140h473q-20 89 -80 140t-150 51zM790 1193h-312l-214 291l145 111l224 -227l226 227l145 -111z" />
    <glyph glyph-name="Gcircumflex" unicode="&#x11c;" horiz-adv-x="1576" 
d="M773 770h728v-53q0 -344 -189 -543t-505 -199q-147 0 -282 58t-233.5 156.5t-157 236.5t-58.5 291q0 154 57 291.5t154.5 236t233 156t286.5 57.5q257 0 435.5 -131.5t242.5 -378.5h-365q-84 216 -317 216q-161 0 -273 -127.5t-112 -319.5t112.5 -320t279.5 -128
q126 0 216 69t117 181h-370v251zM645 1895h312l214 -290l-145 -112l-225 227l-224 -227l-146 112z" />
    <glyph glyph-name="gcircumflex" unicode="&#x11d;" horiz-adv-x="1350" 
d="M62 530q0 154 63 281t178 200.5t258 73.5q204 0 337 -141v117h324v-993q0 -252 -152.5 -397.5t-417.5 -145.5q-294 0 -506 228l135 171q150 -129 334 -129q129 0 206 67t77 185v79q-134 -140 -337 -140q-143 0 -258 73t-178 197t-63 274zM389 530q0 -114 73 -190t180 -76
q108 0 182 76.5t74 189.5t-74 190t-182 77q-107 0 -180 -77t-73 -190zM518 1564h312l214 -291l-145 -112l-225 228l-224 -228l-146 112z" />
    <glyph glyph-name="Gbreve" unicode="&#x11e;" horiz-adv-x="1576" 
d="M773 770h728v-53q0 -344 -189 -543t-505 -199q-147 0 -282 58t-233.5 156.5t-157 236.5t-58.5 291q0 154 57 291.5t154.5 236t233 156t286.5 57.5q257 0 435.5 -131.5t242.5 -378.5h-365q-84 216 -317 216q-161 0 -273 -127.5t-112 -319.5t112.5 -320t279.5 -128
q126 0 216 69t117 181h-370v251zM801 1524q-150 0 -261 91.5t-116 230.5h264q1 -49 33.5 -82t79.5 -33t80 33t34 82h263q-5 -139 -116 -230.5t-261 -91.5z" />
    <glyph glyph-name="gbreve" unicode="&#x11f;" horiz-adv-x="1350" 
d="M62 530q0 154 63 281t178 200.5t258 73.5q204 0 337 -141v117h324v-993q0 -252 -152.5 -397.5t-417.5 -145.5q-294 0 -506 228l135 171q150 -129 334 -129q129 0 206 67t77 185v79q-134 -140 -337 -140q-143 0 -258 73t-178 197t-63 274zM389 530q0 -114 73 -190t180 -76
q108 0 182 76.5t74 189.5t-74 190t-182 77q-107 0 -180 -77t-73 -190zM657 1192q-150 0 -261 91.5t-116 230.5h264q1 -49 33.5 -82t79.5 -33t80 33t34 82h263q-5 -139 -116 -230.5t-261 -91.5z" />
    <glyph glyph-name="Gdotaccent" unicode="&#x120;" horiz-adv-x="1576" 
d="M773 770h728v-53q0 -344 -189 -543t-505 -199q-147 0 -282 58t-233.5 156.5t-157 236.5t-58.5 291q0 154 57 291.5t154.5 236t233 156t286.5 57.5q257 0 435.5 -131.5t242.5 -378.5h-365q-84 216 -317 216q-161 0 -273 -127.5t-112 -319.5t112.5 -320t279.5 -128
q126 0 216 69t117 181h-370v251zM628 1703q0 71 49.5 120t121.5 49t121.5 -49t49.5 -120t-49.5 -120t-121.5 -49t-121.5 49t-49.5 120z" />
    <glyph glyph-name="gdotaccent" unicode="&#x121;" horiz-adv-x="1350" 
d="M62 530q0 154 63 281t178 200.5t258 73.5q204 0 337 -141v117h324v-993q0 -252 -152.5 -397.5t-417.5 -145.5q-294 0 -506 228l135 171q150 -129 334 -129q129 0 206 67t77 185v79q-134 -140 -337 -140q-143 0 -258 73t-178 197t-63 274zM389 530q0 -114 73 -190t180 -76
q108 0 182 76.5t74 189.5t-74 190t-182 77q-107 0 -180 -77t-73 -190zM482 1371q0 71 49.5 120t121.5 49t121.5 -49t49.5 -120t-49.5 -120t-121.5 -49t-121.5 49t-49.5 120z" />
    <glyph glyph-name="Gcommaaccent" unicode="&#x122;" horiz-adv-x="1576" 
d="M773 770h728v-53q0 -344 -189 -543t-505 -199q-147 0 -282 58t-233.5 156.5t-157 236.5t-58.5 291q0 154 57 291.5t154.5 236t233 156t286.5 57.5q257 0 435.5 -131.5t242.5 -378.5h-365q-84 216 -317 216q-161 0 -273 -127.5t-112 -319.5t112.5 -320t279.5 -128
q126 0 216 69t117 181h-370v251zM543 -432l240 363l207 -161l-302 -314z" />
    <glyph glyph-name="gcommaaccent" unicode="&#x123;" horiz-adv-x="1350" 
d="M62 530q0 154 63 281t178 200.5t258 73.5q204 0 337 -141v117h324v-993q0 -252 -152.5 -397.5t-417.5 -145.5q-294 0 -506 228l135 171q150 -129 334 -129q129 0 206 67t77 185v79q-134 -140 -337 -140q-143 0 -258 73t-178 197t-63 274zM389 530q0 -114 73 -190t180 -76
q108 0 182 76.5t74 189.5t-74 190t-182 77q-107 0 -180 -77t-73 -190zM940 1501l-241 -363l-206 161l302 314z" />
    <glyph glyph-name="Hcircumflex" unicode="&#x124;" horiz-adv-x="1455" 
d="M151 0v1434h338v-568h477v568h340v-1434h-340v574h-477v-574h-338zM572 1895h312l214 -291l-145 -111l-226 227l-224 -227l-145 111z" />
    <glyph glyph-name="hcircumflex" unicode="&#x125;" horiz-adv-x="1261" 
d="M752 1085q175 0 288 -116t113 -303v-666h-329v613q0 79 -49 131.5t-122 52.5q-83 0 -139 -59.5t-56 -164.5v-573h-329v1495h329v-546q113 136 294 136zM137 1957h312l214 -291l-145 -111l-226 227l-224 -227l-145 111z" />
    <glyph glyph-name="Hbar" unicode="&#x126;" horiz-adv-x="1471" 
d="M159 0v1047h-123v201h123v186h339v-186h476v186h340v-186h123v-201h-123v-1047h-340v580h-476v-580h-339zM498 862h476v185h-476v-185z" />
    <glyph glyph-name="hbar" unicode="&#x127;" horiz-adv-x="1287" 
d="M481 1495v-137h281v-187h-281v-222q114 136 294 136q176 0 289 -116t113 -303v-666h-329v613q0 72 -50.5 128t-120.5 56q-87 0 -141.5 -70t-54.5 -199v-528h-328v1171h-133v187h133v137h328z" />
    <glyph glyph-name="Itilde" unicode="&#x128;" horiz-adv-x="651" 
d="M156 1434h339v-1434h-339v1434zM337 1592q-68 37 -93 37q-41 0 -57 -74l-253 50q44 241 226 241q75 0 154 -44q68 -37 94 -37q40 0 56 74l253 -49q-44 -242 -225 -242q-76 0 -155 44z" />
    <glyph glyph-name="itilde" unicode="&#x129;" horiz-adv-x="589" 
d="M306 1255q-68 37 -93 37q-41 0 -56 -73l-253 49q44 241 225 241q76 0 155 -44q68 -37 93 -37q40 0 56 74l253 -49q-44 -242 -225 -242q-76 0 -155 44zM130 0v1061h329v-1061h-329z" />
    <glyph glyph-name="Imacron" unicode="&#x12a;" horiz-adv-x="651" 
d="M156 1434h339v-1434h-339v1434zM-2 1580v242h655v-242h-655z" />
    <glyph glyph-name="imacron" unicode="&#x12b;" horiz-adv-x="589" 
d="M-33 1248v242h656v-242h-656zM130 0v1061h329v-1061h-329z" />
    <glyph glyph-name="Ibreve" unicode="&#x12c;" horiz-adv-x="651" 
d="M156 1434h339v-1434h-339v1434zM326 1524q-150 0 -261 91t-116 230h263q1 -49 34 -81.5t80 -32.5t79.5 32.5t33.5 81.5h263q-5 -139 -115.5 -230t-260.5 -91z" />
    <glyph glyph-name="ibreve" unicode="&#x12d;" horiz-adv-x="589" 
d="M295 1192q-150 0 -261 91t-116 230h263q1 -49 34 -81.5t80 -32.5t80 32.5t34 81.5h263q-5 -139 -116 -230t-261 -91zM130 0v1061h329v-1061h-329z" />
    <glyph glyph-name="Iogonek" unicode="&#x12e;" horiz-adv-x="651" 
d="M282 0h-126v1434h340v-1434q-183 -141 -183 -247q0 -45 21.5 -70.5t54.5 -25.5q36 0 59.5 26.5t26.5 74.5h218q-13 -135 -95.5 -209t-218.5 -74q-121 0 -208 69t-87 176q0 73 53 147.5t145 132.5z" />
    <glyph glyph-name="iogonek" unicode="&#x12f;" horiz-adv-x="589" 
d="M130 0v1061h329v-1061q-183 -143 -183 -247q0 -45 22 -70.5t54 -25.5q36 0 59.5 26.5t27.5 74.5h218q-13 -135 -95.5 -209t-218.5 -74q-121 0 -208.5 69t-87.5 176q0 73 53.5 147.5t145.5 132.5h-116zM106 1338q0 76 54.5 128t134.5 52q79 0 133.5 -52t54.5 -128
t-54 -127.5t-134 -51.5t-134.5 51.5t-54.5 127.5z" />
    <glyph glyph-name="Idotaccent" unicode="&#x130;" horiz-adv-x="651" 
d="M156 1434h339v-1434h-339v1434zM154 1703q0 71 49.5 120t121.5 49t121.5 -49t49.5 -120t-49.5 -120t-121.5 -49t-121.5 49t-49.5 120z" />
    <glyph glyph-name="dotlessi" unicode="&#x131;" horiz-adv-x="589" 
d="M130 0v1061h329v-1061h-329z" />
    <glyph glyph-name="IJ" unicode="&#x132;" horiz-adv-x="1568" 
d="M156 1434h339v-1434h-339v1434zM1092 477v957h340v-977q0 -236 -118 -359t-314 -123q-96 0 -190 30.5t-169 86.5l84 227q92 -49 186 -49q86 0 133.5 52.5t47.5 154.5z" />
    <glyph glyph-name="ij" unicode="&#x133;" horiz-adv-x="1179" 
d="M130 0v1061h329v-1061h-329zM106 1338q0 76 54.5 128t134.5 52q79 0 133.5 -52t54.5 -128t-54 -127.5t-134 -51.5t-134.5 51.5t-54.5 127.5zM720 -74v1135h329v-1167q0 -179 -99 -274t-280 -95q-64 0 -117 14v271h56q57 0 84 27t27 89zM696 1338q0 76 54.5 128t134.5 52
q79 0 133.5 -52t54.5 -128t-54 -127.5t-134 -51.5t-134.5 51.5t-54.5 127.5z" />
    <glyph glyph-name="Jcircumflex" unicode="&#x134;" horiz-adv-x="959" 
d="M481 477v957h340v-977q0 -237 -117.5 -359.5t-313.5 -122.5q-96 0 -190 30.5t-169 86.5l84 227q92 -49 186 -49q86 0 133 52.5t47 154.5zM496 1895h312l214 -291l-145 -111l-226 227l-224 -227l-145 111z" />
    <glyph glyph-name="jcircumflex" unicode="&#x135;" horiz-adv-x="589" 
d="M130 -74v1135h329v-1167q0 -179 -99 -274t-280 -95q-62 0 -117 11v274h56q57 0 84 27t27 89zM138 1564h313l214 -291l-146 -112l-225 228l-224 -228l-146 112z" />
    <glyph glyph-name="Kcommaaccent" unicode="&#x136;" horiz-adv-x="1292" 
d="M873 1434h340q0 -549 -252 -728l362 -706h-370l-310 608q-15 -1 -51 -1h-103v-607h-338v1434h338v-535h67q172 0 244.5 119.5t72.5 415.5zM397 -432l241 363l207 -161l-302 -314z" />
    <glyph glyph-name="kcommaaccent" unicode="&#x137;" horiz-adv-x="1132" 
d="M727 1061h329q0 -401 -201 -542l268 -519h-357l-216 438h-92v-438h-329v1495h329v-775h66q203 0 203 341zM282 -432l240 363l207 -161l-302 -314z" />
    <glyph glyph-name="kgreenlandic" unicode="&#x138;" horiz-adv-x="1132" 
d="M727 1061h330q0 -401 -201 -542l268 -519h-358l-213 438h-94v-438h-330v1061h330v-340h65q203 0 203 340z" />
    <glyph glyph-name="Lacute" unicode="&#x139;" horiz-adv-x="1072" 
d="M151 0v1434h338v-1141h552v-293h-890zM207 1614l239 364l207 -162l-302 -314z" />
    <glyph glyph-name="lacute" unicode="&#x13a;" horiz-adv-x="589" 
d="M130 0v1495h329v-1495h-329zM134 1676l239 364l207 -162l-302 -314z" />
    <glyph glyph-name="Lcommaaccent" unicode="&#x13b;" horiz-adv-x="1072" 
d="M151 0v1434h338v-1141h552v-293h-890zM315 -432l241 363l207 -161l-302 -314z" />
    <glyph glyph-name="lcommaaccent" unicode="&#x13c;" horiz-adv-x="589" 
d="M130 0v1495h329v-1495h-329zM10 -432l241 363l207 -161l-302 -314z" />
    <glyph glyph-name="Lcaron" unicode="&#x13d;" horiz-adv-x="1081" 
d="M151 0v1434h338v-1141h552v-293h-890zM663 1302q0 60 49 108t130 48q75 0 124 -50.5t49 -132.5q0 -88 -34 -168t-112.5 -150.5t-192.5 -109.5l-66 93q70 43 106 76t43 65t-7.5 59.5t-50.5 65.5q-38 39 -38 96z" />
    <glyph glyph-name="lcaron" unicode="&#x13e;" horiz-adv-x="962" 
d="M130 0v1495h329v-1495h-329zM581 1363q0 60 49.5 108.5t129.5 48.5q75 0 124 -51t49 -133q0 -88 -34 -168t-112.5 -150.5t-192.5 -109.5l-66 93q70 43 106.5 76.5t43 65t-7.5 59.5t-50 66q-39 40 -39 95z" />
    <glyph glyph-name="Ldot" unicode="&#x13f;" horiz-adv-x="1074" 
d="M151 0v1434h338v-1141h552v-293h-890zM638 790q0 71 49.5 119.5t121.5 48.5t121.5 -48.5t49.5 -119.5t-49.5 -120t-121.5 -49t-121.5 49t-49.5 120z" />
    <glyph glyph-name="ldot" unicode="&#x140;" horiz-adv-x="936" 
d="M130 0v1495h329v-1495h-329zM562 769q0 71 49.5 120t121.5 49t121.5 -49t49.5 -120t-49.5 -120t-121.5 -49t-121.5 49t-49.5 120z" />
    <glyph glyph-name="Lslash" unicode="&#x141;" horiz-adv-x="1097" 
d="M176 0v508l-96 -49l-93 182l189 95v698h340v-523l263 135l94 -180l-357 -183v-390h551v-293h-891z" />
    <glyph glyph-name="lslash" unicode="&#x142;" horiz-adv-x="663" 
d="M696 841l-200 -101v-740h-329v575l-102 -50l-92 183l194 96v691h329v-527l105 52z" />
    <glyph glyph-name="Nacute" unicode="&#x143;" horiz-adv-x="1455" 
d="M151 0v1434h355l484 -921v921h316v-1434h-357l-484 921v-921h-314zM582 1614l239 364l207 -162l-302 -314z" />
    <glyph glyph-name="nacute" unicode="&#x144;" horiz-adv-x="1261" 
d="M752 1085q175 0 288 -116t113 -303v-666h-329v613q0 72 -50.5 128t-120.5 56q-83 0 -139 -59.5t-56 -164.5v-573h-329v1061h329v-112q113 136 294 136zM490 1283l239 364l207 -162l-302 -314z" />
    <glyph glyph-name="Ncommaaccent" unicode="&#x145;" horiz-adv-x="1456" 
d="M151 0v1434h355l484 -921v921h316v-1434h-357l-484 921v-921h-314zM460 -432l240 363l207 -161l-302 -314z" />
    <glyph glyph-name="ncommaaccent" unicode="&#x146;" horiz-adv-x="1261" 
d="M752 1085q175 0 288 -116t113 -303v-666h-329v613q0 72 -50.5 128t-120.5 56q-83 0 -139 -59.5t-56 -164.5v-573h-329v1061h329v-112q113 136 294 136zM365 -432l240 363l207 -161l-302 -314z" />
    <glyph glyph-name="Ncaron" unicode="&#x147;" horiz-adv-x="1456" 
d="M151 0v1434h355l484 -921v921h316v-1434h-357l-484 921v-921h-314zM884 1545h-313l-214 291l146 112l224 -228l225 228l146 -112z" />
    <glyph glyph-name="ncaron" unicode="&#x148;" horiz-adv-x="1261" 
d="M752 1085q175 0 288 -116t113 -303v-666h-329v613q0 72 -50.5 128t-120.5 56q-83 0 -139 -59.5t-56 -164.5v-573h-329v1061h329v-112q113 136 294 136zM785 1193h-312l-214 291l145 111l225 -227l225 227l145 -111z" />
    <glyph glyph-name="napostrophe" unicode="&#x149;" horiz-adv-x="1527" 
d="M1018 1085q175 0 288 -116t113 -303v-666h-328v613q0 72 -50.5 128t-120.5 56q-83 0 -139.5 -59.5t-56.5 -164.5v-573h-329v1061h329v-112q113 136 294 136zM53 1363q0 60 49.5 108.5t129.5 48.5q75 0 124.5 -51t49.5 -133q0 -88 -34 -168t-112.5 -150.5t-192.5 -109.5
l-66 93q70 43 106 76.5t43 65t-7.5 59.5t-50.5 66q-39 40 -39 95z" />
    <glyph glyph-name="Eng" unicode="&#x14a;" horiz-adv-x="1455" 
d="M989 -98v107l-524 915v-924h-315v1434h322l517 -899v899h316v-1537q0 -180 -112.5 -276t-318.5 -96q-67 0 -120 12v248q44 -6 100 -6q135 0 135 123z" />
    <glyph glyph-name="eng" unicode="&#x14b;" horiz-adv-x="1261" 
d="M752 1085q175 0 287.5 -116t112.5 -303v-768q0 -181 -112 -277t-319 -96q-61 0 -131 12v248q40 -6 96 -6q64 0 101 31.5t37 91.5v711q0 72 -50.5 128t-120.5 56q-83 0 -139 -59.5t-56 -164.5v-573h-329v1061h329v-112q113 136 294 136z" />
    <glyph glyph-name="Omacron" unicode="&#x14c;" horiz-adv-x="1699" 
d="M418 717q0 -190 124.5 -318.5t307.5 -128.5t307.5 128.5t124.5 318.5t-124.5 318t-307.5 128t-307.5 -128t-124.5 -318zM76 717q0 206 101.5 376t279 267.5t393.5 97.5t393.5 -97.5t279 -267.5t101.5 -376q0 -154 -60 -291.5t-162.5 -236.5t-246 -156.5t-305.5 -57.5
t-305.5 57.5t-246 156.5t-162.5 236.5t-60 291.5zM523 1580v242h655v-242h-655z" />
    <glyph glyph-name="omacron" unicode="&#x14d;" horiz-adv-x="1311" 
d="M62 530q0 115 45.5 217.5t124 176.5t189 117.5t235.5 43.5t235.5 -43.5t189 -117.5t124 -176.5t45.5 -217.5t-45.5 -217.5t-124 -176.5t-189 -117.5t-235.5 -43.5t-235.5 43.5t-189 117.5t-124 176.5t-45.5 217.5zM389 530q0 -114 76 -190t191 -76t191.5 76t76.5 190
t-77 190.5t-191 76.5t-190.5 -76.5t-76.5 -190.5zM329 1248v242h655v-242h-655z" />
    <glyph glyph-name="Obreve" unicode="&#x14e;" horiz-adv-x="1699" 
d="M418 717q0 -190 124.5 -318.5t307.5 -128.5t307.5 128.5t124.5 318.5t-124.5 318t-307.5 128t-307.5 -128t-124.5 -318zM76 717q0 206 101.5 376t279 267.5t393.5 97.5t393.5 -97.5t279 -267.5t101.5 -376q0 -154 -60 -291.5t-162.5 -236.5t-246 -156.5t-305.5 -57.5
t-305.5 57.5t-246 156.5t-162.5 236.5t-60 291.5zM850 1524q-150 0 -261 91t-116 230h263q1 -49 34 -81.5t80 -32.5t80 32.5t34 81.5h263q-5 -139 -116 -230t-261 -91z" />
    <glyph glyph-name="obreve" unicode="&#x14f;" horiz-adv-x="1311" 
d="M62 530q0 115 45.5 217.5t124 176.5t189 117.5t235.5 43.5t235.5 -43.5t189 -117.5t124 -176.5t45.5 -217.5t-45.5 -217.5t-124 -176.5t-189 -117.5t-235.5 -43.5t-235.5 43.5t-189 117.5t-124 176.5t-45.5 217.5zM389 530q0 -114 76 -190t191 -76t191.5 76t76.5 190
t-77 190.5t-191 76.5t-190.5 -76.5t-76.5 -190.5zM656 1192q-150 0 -260.5 91t-115.5 230h263q1 -49 33.5 -81.5t79.5 -32.5t80 32.5t34 81.5h263q-5 -139 -116 -230t-261 -91z" />
    <glyph glyph-name="Ohungarumlaut" unicode="&#x150;" horiz-adv-x="1699" 
d="M418 717q0 -190 124.5 -318.5t307.5 -128.5t307.5 128.5t124.5 318.5t-124.5 318t-307.5 128t-307.5 -128t-124.5 -318zM76 717q0 206 101.5 376t279 267.5t393.5 97.5t393.5 -97.5t279 -267.5t101.5 -376q0 -154 -60 -291.5t-162.5 -236.5t-246 -156.5t-305.5 -57.5
t-305.5 57.5t-246 156.5t-162.5 236.5t-60 291.5zM536 1615l239 363l194 -151l-302 -315zM907 1615l240 363l193 -151l-302 -315z" />
    <glyph glyph-name="ohungarumlaut" unicode="&#x151;" horiz-adv-x="1311" 
d="M62 530q0 115 45.5 217.5t124 176.5t189 117.5t235.5 43.5t235.5 -43.5t189 -117.5t124 -176.5t45.5 -217.5t-45.5 -217.5t-124 -176.5t-189 -117.5t-235.5 -43.5t-235.5 43.5t-189 117.5t-124 176.5t-45.5 217.5zM389 530q0 -114 76 -190t191 -76t191.5 76t76.5 190
t-77 190.5t-191 76.5t-190.5 -76.5t-76.5 -190.5zM327 1283l239 364l194 -152l-302 -314zM698 1283l240 364l194 -152l-303 -314z" />
    <glyph glyph-name="OE" unicode="&#x152;" horiz-adv-x="1873" 
d="M860 292v849q-189 0 -317 -120.5t-128 -303.5q0 -181 129.5 -303t315.5 -122zM1776 0h-927q-159 0 -302 55.5t-246.5 151t-164 228.5t-60.5 282q0 148 60.5 281.5t164 228.5t246.5 151t302 56h908v-287h-563v-286h514v-281h-514v-294h582v-286z" />
    <glyph glyph-name="oe" unicode="&#x153;" horiz-adv-x="2208" 
d="M62 530q0 115 45.5 217.5t124 176.5t189 117.5t235.5 43.5q144 0 268.5 -66t201.5 -174q73 107 196 173.5t264 66.5q119 0 224 -42t178.5 -114.5t116 -171.5t42.5 -209q0 -57 -15 -109h-798q18 -100 94 -158t185 -58q210 0 340 132l145 -151q-197 -229 -489 -229
q-153 0 -281 65.5t-203 174.5q-77 -108 -201.5 -174t-267.5 -66q-125 0 -235.5 43.5t-189 117.5t-124 176.5t-45.5 217.5zM389 530q0 -114 76 -190t191 -76t191.5 76t76.5 190t-77 190.5t-191 76.5t-190.5 -76.5t-76.5 -190.5zM1582 838q-90 0 -155 -51t-88 -140h473
q-20 89 -80 140t-150 51z" />
    <glyph glyph-name="Racute" unicode="&#x154;" horiz-adv-x="1276" 
d="M150 1434h530q225 0 365.5 -129t140.5 -338q0 -151 -75.5 -261.5t-209.5 -160.5l323 -545h-368l-286 500h-85v-500h-335v1434zM645 1163h-160v-408h160q96 0 150.5 55.5t54.5 147.5q0 93 -54.5 149t-150.5 56zM463 1614l239 364l207 -162l-302 -314z" />
    <glyph glyph-name="racute" unicode="&#x155;" horiz-adv-x="860" 
d="M665 797q-87 0 -147 -63.5t-60 -170.5v-563h-329v1061h329v-120q111 144 280 144q43 0 79 -16l-23 -296q-70 24 -129 24zM257 1283l239 364l207 -162l-302 -314z" />
    <glyph glyph-name="Rcommaaccent" unicode="&#x156;" horiz-adv-x="1276" 
d="M150 1434h530q225 0 365.5 -129t140.5 -338q0 -151 -75.5 -261.5t-209.5 -160.5l323 -545h-368l-286 500h-85v-500h-335v1434zM645 1163h-160v-408h160q96 0 150.5 55.5t54.5 147.5q0 93 -54.5 149t-150.5 56zM349 -432l241 363l207 -161l-302 -314z" />
    <glyph glyph-name="rcommaaccent" unicode="&#x157;" horiz-adv-x="860" 
d="M665 797q-87 0 -147 -63.5t-60 -170.5v-563h-329v1061h329v-120q111 144 280 144q43 0 79 -16l-23 -296q-70 24 -129 24zM9 -432l241 363l207 -161l-302 -314z" />
    <glyph glyph-name="Rcaron" unicode="&#x158;" horiz-adv-x="1276" 
d="M150 1434h530q225 0 365.5 -129t140.5 -338q0 -151 -75.5 -261.5t-209.5 -160.5l323 -545h-368l-286 500h-85v-500h-335v1434zM645 1163h-160v-408h160q96 0 150.5 55.5t54.5 147.5q0 93 -54.5 149t-150.5 56zM773 1545h-312l-214 291l145 112l224 -228l226 228l145 -112
z" />
    <glyph glyph-name="rcaron" unicode="&#x159;" horiz-adv-x="860" 
d="M665 797q-87 0 -147 -63.5t-60 -170.5v-563h-329v1061h329v-120q111 144 280 144q43 0 79 -16l-23 -296q-70 24 -129 24zM580 1193h-313l-214 291l146 111l224 -227l225 227l146 -111z" />
    <glyph glyph-name="Sacute" unicode="&#x15a;" horiz-adv-x="1228" 
d="M110 273l140 155q88 -85 175.5 -126.5t190.5 -41.5q90 0 146.5 40.5t56.5 106.5q0 67 -58 113.5t-210 78.5q-206 44 -320 155.5t-114 274.5q0 188 136.5 308.5t353.5 120.5q218 0 361 -116t161 -328h-331q-11 78 -56.5 121t-118.5 43q-72 0 -118 -34t-46 -88
q0 -64 56 -110t190 -77q456 -106 456 -446q0 -196 -144.5 -322t-384.5 -126q-145 0 -278.5 74t-243.5 224zM445 1614l239 364l207 -162l-302 -314z" />
    <glyph glyph-name="sacute" unicode="&#x15b;" horiz-adv-x="975" 
d="M77 200l120 143q127 -118 275 -118q61 0 95 23t34 62q0 40 -37 66t-126 45q-167 35 -255 124t-88 222q0 139 110 228.5t283 89.5q183 0 290.5 -94t130.5 -252h-284q-9 45 -40 71t-78 26q-44 0 -72.5 -20t-28.5 -53q0 -76 155 -109q358 -75 358 -346q0 -145 -117.5 -239
t-309.5 -94q-237 0 -415 225zM315 1283l239 364l207 -162l-302 -314z" />
    <glyph glyph-name="Scircumflex" unicode="&#x15c;" horiz-adv-x="1228" 
d="M110 273l140 155q88 -85 175.5 -126.5t190.5 -41.5q90 0 146.5 40.5t56.5 106.5q0 67 -58 113.5t-210 78.5q-206 44 -320 155.5t-114 274.5q0 188 136.5 308.5t353.5 120.5q218 0 361 -116t161 -328h-331q-11 78 -56.5 121t-118.5 43q-72 0 -118 -34t-46 -88
q0 -64 56 -110t190 -77q456 -106 456 -446q0 -196 -144.5 -322t-384.5 -126q-145 0 -278.5 74t-243.5 224zM455 1895h312l214 -291l-145 -111l-226 227l-224 -227l-145 111z" />
    <glyph glyph-name="scircumflex" unicode="&#x15d;" horiz-adv-x="975" 
d="M77 200l120 143q127 -118 275 -118q61 0 95 23t34 62q0 40 -37 66t-126 45q-167 35 -255 124t-88 222q0 139 110 228.5t283 89.5q183 0 290.5 -94t130.5 -252h-284q-9 45 -40 71t-78 26q-44 0 -72.5 -20t-28.5 -53q0 -76 155 -109q358 -75 358 -346q0 -145 -117.5 -239
t-309.5 -94q-237 0 -415 225zM321 1564h312l214 -291l-145 -111l-226 227l-224 -227l-145 111z" />
    <glyph glyph-name="Scedilla" unicode="&#x15e;" horiz-adv-x="1228" 
d="M713 -300q0 31 -25.5 53.5t-62.5 22.5q-20 0 -40 -5l-56 57v157q-242 45 -419 288l140 155q88 -85 175.5 -126.5t190.5 -41.5q90 0 146.5 40.5t56.5 106.5q0 67 -58 113.5t-210 78.5q-206 44 -320 155.5t-114 274.5q0 188 136.5 308.5t353.5 120.5q218 0 361 -116
t161 -328h-331q-11 78 -56.5 121t-118.5 43q-72 0 -118 -34t-46 -88q0 -64 56 -110t190 -77q456 -106 456 -446q0 -173 -115.5 -293.5t-313.5 -146.5v-78q97 -11 151 -71.5t54 -137.5q0 -99 -85 -163.5t-215 -64.5q-118 0 -203.5 60t-109.5 173h195q23 -74 106 -74
q41 0 64.5 20t23.5 53z" />
    <glyph glyph-name="scedilla" unicode="&#x15f;" horiz-adv-x="975" 
d="M578 -300q0 31 -25.5 53.5t-63.5 22.5q-19 0 -39 -5l-56 57v158q-182 40 -317 214l120 143q127 -118 275 -118q61 0 95 23t34 62q0 40 -37 66t-126 45q-167 35 -255 124t-88 222q0 139 110 228.5t283 89.5q183 0 290.5 -94t130.5 -252h-284q-9 45 -40 71t-78 26
q-44 0 -72.5 -20t-28.5 -53q0 -76 155 -109q358 -75 358 -346q0 -124 -86.5 -211.5t-235.5 -111.5v-80q97 -11 151 -71.5t54 -137.5q0 -99 -85 -163.5t-215 -64.5q-118 0 -204 60t-110 173h196q23 -74 105 -74q41 0 65 20t24 53z" />
    <glyph glyph-name="Scaron" unicode="&#x160;" horiz-adv-x="1228" 
d="M110 273l140 155q88 -85 175.5 -126.5t190.5 -41.5q90 0 146.5 40.5t56.5 106.5q0 67 -58 113.5t-210 78.5q-206 44 -320 155.5t-114 274.5q0 188 136.5 308.5t353.5 120.5q218 0 361 -116t161 -328h-331q-11 78 -56.5 121t-118.5 43q-72 0 -118 -34t-46 -88
q0 -64 56 -110t190 -77q456 -106 456 -446q0 -196 -144.5 -322t-384.5 -126q-145 0 -278.5 74t-243.5 224zM757 1545h-313l-214 291l146 112l224 -228l225 228l146 -112z" />
    <glyph glyph-name="scaron" unicode="&#x161;" horiz-adv-x="975" 
d="M77 200l120 143q127 -118 275 -118q61 0 95 23t34 62q0 40 -37 66t-126 45q-167 35 -255 124t-88 222q0 139 110 228.5t283 89.5q183 0 290.5 -94t130.5 -252h-284q-9 45 -40 71t-78 26q-44 0 -72.5 -20t-28.5 -53q0 -76 155 -109q358 -75 358 -346q0 -145 -117.5 -239
t-309.5 -94q-237 0 -415 225zM633 1193h-312l-215 291l146 111l224 -227l225 227l146 -111z" />
    <glyph glyph-name="Tcommaaccent" unicode="&#x162;" horiz-adv-x="1145" 
d="M403 0v1141h-352v293h1044v-293h-353v-1141h-65v-95q96 -11 150.5 -71.5t54.5 -137.5q0 -99 -85.5 -163.5t-215.5 -64.5q-119 0 -204.5 60t-108.5 173h196q10 -36 38 -55t66 -19q41 0 65 20t24 53q0 31 -25.5 53.5t-63.5 22.5q-18 0 -40 -5l-55 57v172h-70z" />
    <glyph glyph-name="tcommaaccent" unicode="&#x163;" horiz-adv-x="821" 
d="M504 -300q0 31 -25.5 53.5t-63.5 22.5q-23 0 -40 -4l-54 57v220q-124 101 -124 301v426h-161v285h161v257l328 50v-307h233v-285h-233v-393q0 -124 137 -124q62 0 108 6v-241q-82 -48 -211 -48q-18 0 -36 2v-72q97 -11 151 -72t54 -138q0 -99 -85.5 -163.5t-215.5 -64.5
q-118 0 -203 60t-109 173h195q10 -35 38.5 -54.5t66.5 -19.5q41 0 65 20t24 53z" />
    <glyph glyph-name="Tcaron" unicode="&#x164;" horiz-adv-x="1145" 
d="M403 0v1141h-352v293h1044v-293h-353v-1141h-339zM728 1545h-312l-214 291l145 111l224 -227l226 227l145 -111z" />
    <glyph glyph-name="tcaron" unicode="&#x165;" horiz-adv-x="1206" 
d="M526 776v-392q0 -64 32.5 -94t104.5 -30q62 0 107 6v-242q-81 -49 -208 -49q-171 0 -268 99t-97 276v426h-174v285h174v258l329 49v-307h232v-285h-232zM823 1363q0 60 49.5 108.5t129.5 48.5q75 0 124.5 -51t49.5 -133q0 -88 -34 -168t-112.5 -150.5t-192.5 -109.5
l-66 93q70 43 106 76.5t43 65t-7.5 59.5t-50.5 66q-39 40 -39 95z" />
    <glyph glyph-name="Tbar" unicode="&#x166;" horiz-adv-x="1145" 
d="M403 0v593h-225v212h225v336h-352v293h1044v-293h-353v-336h226v-212h-226v-593h-339z" />
    <glyph glyph-name="tbar" unicode="&#x167;" horiz-adv-x="821" 
d="M526 791v-164h189v-187h-189v-70q0 -64 32.5 -94t104.5 -30q61 0 107 6v-235q-79 -42 -208 -42q-171 0 -268 96t-97 272v97h-127v187h127v164h-167v270h167v258l329 49v-307h232v-270h-232z" />
    <glyph glyph-name="Utilde" unicode="&#x168;" horiz-adv-x="1377" 
d="M1239 1434v-958q0 -143 -74 -258t-199.5 -178t-277.5 -63t-277.5 63t-199.5 178t-74 258v958h340v-955q0 -92 60 -150t151 -58t151.5 58t60.5 150v955h339zM701 1592q-68 37 -94 37q-40 0 -56 -74l-253 50q44 241 225 241q76 0 155 -44q68 -37 93 -37q41 0 57 74l252 -49
q-44 -242 -225 -242q-75 0 -154 44z" />
    <glyph glyph-name="utilde" unicode="&#x169;" horiz-adv-x="1261" 
d="M509 -25q-175 0 -288 116t-113 303v667h328v-615q0 -75 50 -129t121 -54q85 0 140.5 61.5t55.5 170.5v566h329v-1061h-329v111q-114 -136 -294 -136zM632 1255q-68 37 -93 37q-42 0 -57 -73l-253 49q44 241 226 241q75 0 154 -44q68 -37 93 -37q41 0 57 74l253 -49
q-44 -242 -226 -242q-75 0 -154 44z" />
    <glyph glyph-name="Umacron" unicode="&#x16a;" horiz-adv-x="1377" 
d="M1239 1434v-958q0 -143 -74 -258t-199.5 -178t-277.5 -63t-277.5 63t-199.5 178t-74 258v958h340v-955q0 -92 60 -150t151 -58t151.5 58t60.5 150v955h339zM362 1580v242h655v-242h-655z" />
    <glyph glyph-name="umacron" unicode="&#x16b;" horiz-adv-x="1261" 
d="M509 -25q-175 0 -288 116t-113 303v667h328v-615q0 -75 50 -129t121 -54q85 0 140.5 61.5t55.5 170.5v566h329v-1061h-329v111q-114 -136 -294 -136zM293 1248v242h655v-242h-655z" />
    <glyph glyph-name="Ubreve" unicode="&#x16c;" horiz-adv-x="1377" 
d="M1239 1434v-958q0 -143 -74 -258t-199.5 -178t-277.5 -63t-277.5 63t-199.5 178t-74 258v958h340v-955q0 -92 60 -150t151 -58t151.5 58t60.5 150v955h339zM689 1524q-150 0 -261 91t-116 230h263q1 -49 34 -81.5t80 -32.5t80 32.5t34 81.5h263q-5 -139 -116 -230
t-261 -91z" />
    <glyph glyph-name="ubreve" unicode="&#x16d;" horiz-adv-x="1261" 
d="M509 -25q-175 0 -288 116t-113 303v667h328v-615q0 -75 50 -129t121 -54q85 0 140.5 61.5t55.5 170.5v566h329v-1061h-329v111q-114 -136 -294 -136zM621 1192q-150 0 -261 91t-116 230h263q1 -49 34 -81.5t80 -32.5t79.5 32.5t33.5 81.5h263q-5 -139 -115.5 -230
t-260.5 -91z" />
    <glyph glyph-name="Uring" unicode="&#x16e;" horiz-adv-x="1377" 
d="M1239 1434v-958q0 -143 -74 -258t-199.5 -178t-277.5 -63t-277.5 63t-199.5 178t-74 258v958h340v-955q0 -92 60 -150t151 -58t151.5 58t60.5 150v955h339zM625 1725q0 -27 18 -44.5t46 -17.5t46.5 18t18.5 44q0 27 -18.5 45.5t-46.5 18.5t-46 -18.5t-18 -45.5zM447 1725
q0 94 69.5 158t172.5 64t172.5 -64t69.5 -158t-69.5 -157t-172.5 -63t-172.5 63t-69.5 157z" />
    <glyph glyph-name="uring" unicode="&#x16f;" horiz-adv-x="1261" 
d="M509 -25q-175 0 -288 116t-113 303v667h328v-615q0 -75 50 -129t121 -54q85 0 140.5 61.5t55.5 170.5v566h329v-1061h-329v111q-114 -136 -294 -136zM553 1394q0 -27 18 -45t46 -18t46.5 18t18.5 45t-18.5 45t-46.5 18t-46 -18t-18 -45zM376 1394q0 94 69 157.5t172 63.5
t172.5 -63.5t69.5 -157.5t-69.5 -157t-172.5 -63t-172 63t-69 157z" />
    <glyph glyph-name="Uhungarumlaut" unicode="&#x170;" horiz-adv-x="1377" 
d="M1239 1434v-958q0 -143 -74 -258t-199.5 -178t-277.5 -63t-277.5 63t-199.5 178t-74 258v958h340v-955q0 -92 60 -150t151 -58t151.5 58t60.5 150v955h339zM387 1628l240 364l193 -152l-302 -314zM759 1628l239 364l194 -152l-302 -314z" />
    <glyph glyph-name="uhungarumlaut" unicode="&#x171;" horiz-adv-x="1261" 
d="M509 -25q-175 0 -288 116t-113 303v667h328v-615q0 -75 50 -129t121 -54q85 0 140.5 61.5t55.5 170.5v566h329v-1061h-329v111q-114 -136 -294 -136zM313 1289l240 364l193 -152l-302 -314zM685 1289l240 364l193 -152l-302 -314z" />
    <glyph glyph-name="Uogonek" unicode="&#x172;" horiz-adv-x="1377" 
d="M1239 1434v-958q0 -188 -121 -320.5t-311 -166.5q-167 -133 -167 -235q0 -46 21.5 -71.5t54.5 -25.5q36 0 59.5 26.5t26.5 75.5h219q-14 -135 -97 -209t-218 -74q-121 0 -208 68.5t-87 175.5q0 69 46.5 139t128.5 127q-196 30 -322.5 164t-126.5 326v958h340v-955
q0 -92 60 -150t151 -58t151.5 58t60.5 150v955h339z" />
    <glyph glyph-name="uogonek" unicode="&#x173;" horiz-adv-x="1261" 
d="M509 -25q-175 0 -288 116t-113 303v667h328v-615q0 -72 50.5 -127.5t120.5 -55.5q85 0 140.5 61.5t55.5 170.5v566h329v-1061q-183 -143 -183 -246q0 -45 22 -71t54 -26q36 0 59.5 26.5t27.5 75.5h218q-13 -135 -95.5 -209t-218.5 -74q-121 0 -208 68.5t-87 175.5
q0 74 53 148.5t145 131.5h-116v111q-114 -136 -294 -136z" />
    <glyph glyph-name="Wcircumflex" unicode="&#x174;" horiz-adv-x="2030" 
d="M846 1434h338l242 -978l226 978h351l-387 -1434h-345l-256 974l-255 -974h-345l-387 1434h351l225 -978zM858 1895h312l214 -291l-145 -111l-226 227l-224 -227l-145 111z" />
    <glyph glyph-name="wcircumflex" unicode="&#x175;" horiz-adv-x="1650" 
d="M664 1061h323l155 -664l156 664h334l-311 -1061h-339l-157 620l-156 -620h-339l-312 1061h334l157 -664zM669 1564h312l214 -291l-145 -111l-226 227l-224 -227l-145 111z" />
    <glyph glyph-name="Ycircumflex" unicode="&#x176;" horiz-adv-x="1346" 
d="M395 1434l278 -549l278 549h368l-476 -867v-567h-339v567l-476 867h367zM516 1895h312l214 -290l-145 -112l-225 227l-225 -227l-145 112z" />
    <glyph glyph-name="ycircumflex" unicode="&#x177;" horiz-adv-x="1118" 
d="M550 -475h-345l192 475l-379 1061h343l196 -643l199 643h343zM401 1564h313l214 -291l-146 -112l-225 228l-224 -228l-146 112z" />
    <glyph glyph-name="Ydieresis" unicode="&#x178;" horiz-adv-x="1346" 
d="M395 1434l278 -549l278 549h368l-476 -867v-567h-339v567l-476 867h367zM301 1704q0 69 47 116.5t117 47.5t118 -47.5t48 -116.5t-48 -116.5t-118 -47.5t-117 47.5t-47 116.5zM713 1704q0 69 48 116.5t118 47.5t117.5 -47.5t47.5 -116.5t-47.5 -116.5t-117.5 -47.5
t-118 47.5t-48 116.5z" />
    <glyph glyph-name="Zacute" unicode="&#x179;" horiz-adv-x="1255" 
d="M109 272l624 869h-594v293h998v-273l-625 -868h645v-293h-1048v272zM455 1614l239 364l207 -162l-302 -314z" />
    <glyph glyph-name="zacute" unicode="&#x17a;" horiz-adv-x="1056" 
d="M83 0v252l463 526h-436v283h839v-252l-464 -526h485v-283h-887zM350 1283l239 364l207 -162l-302 -314z" />
    <glyph glyph-name="Zdotaccent" unicode="&#x17b;" horiz-adv-x="1255" 
d="M109 272l624 869h-594v293h998v-273l-625 -868h645v-293h-1048v272zM464 1703q0 71 49.5 120t121.5 49t121.5 -49t49.5 -120t-49.5 -120t-121.5 -49t-121.5 49t-49.5 120z" />
    <glyph glyph-name="zdotaccent" unicode="&#x17c;" horiz-adv-x="1056" 
d="M83 0v252l463 526h-436v283h839v-252l-464 -526h485v-283h-887zM358 1371q0 71 49.5 120t121.5 49t121.5 -49t49.5 -120t-49.5 -120t-121.5 -49t-121.5 49t-49.5 120z" />
    <glyph glyph-name="Zcaron" unicode="&#x17d;" horiz-adv-x="1255" 
d="M109 272l624 869h-594v293h998v-273l-625 -868h645v-293h-1048v272zM783 1545h-312l-214 291l145 112l225 -228l225 228l145 -112z" />
    <glyph glyph-name="zcaron" unicode="&#x17e;" horiz-adv-x="1056" 
d="M83 0v252l463 526h-436v283h839v-252l-464 -526h485v-283h-887zM675 1193h-313l-214 291l146 111l224 -227l225 227l146 -111z" />
    <glyph glyph-name="longs" unicode="&#x17f;" horiz-adv-x="796" 
d="M756 1483v-248q-45 6 -98 6q-136 0 -136 -123v-1118h-329v776h-157v285h157v62q0 184 103 278t305 94q83 0 155 -12z" />
    <glyph glyph-name="uni0191" unicode="&#x191;" horiz-adv-x="1110" 
d="M489 545v-638q0 -179 -114 -280.5t-313 -101.5q-88 0 -145 12v283q44 -6 98 -6q136 0 136 127v1493h892v-291h-554v-307h505v-291h-505z" />
    <glyph glyph-name="florin" unicode="&#x192;" horiz-adv-x="798" 
d="M193 -98v874h-157v285h157v61q0 192 108 282t327 90q50 0 127 -11v-248q-45 6 -98 6q-136 0 -136 -123v-57h234v-285h-234v-878q0 -181 -112 -277t-320 -96q-58 0 -130 12v248q43 -6 97 -6q137 0 137 123z" />
    <glyph glyph-name="Aringacute" unicode="&#x1fa;" horiz-adv-x="1422" 
d="M479 1494q0 90 66.5 151.5t165.5 61.5q98 0 164 -61.5t66 -151.5q0 -76 -51 -135h30q234 -672 475 -1359h-355l-93 299h-473l-93 -299h-354l476 1359h26q-50 58 -50 135zM869 564q-52 171 -158 513l-159 -513h317zM560 1849l234 237l153 -178q-36 -23 -131 -85.5
t-147 -95.5zM645 1494q0 -28 19 -47t47 -19t46 19t18 47t-18 47t-46 19t-47 -19t-19 -47z" />
    <glyph glyph-name="aringacute" unicode="&#x1fb;" horiz-adv-x="1350" 
d="M61 530q0 154 63.5 280.5t178 200.5t257.5 74q202 0 338 -142v118h323v-1061h-323v117q-136 -142 -338 -142q-216 0 -357.5 160t-141.5 395zM388 530q0 -114 73.5 -190.5t180.5 -76.5t181.5 77t74.5 190q0 112 -74.5 189.5t-181.5 77.5t-180.5 -77.5t-73.5 -189.5z
M416 1356q0 90 66 151.5t165 61.5q98 0 164.5 -61.5t66.5 -151.5t-66.5 -151.5t-164.5 -61.5t-164.5 61.5t-66.5 151.5zM493 1710l234 236l153 -179l-278 -180zM582 1356q0 -28 18.5 -47t46.5 -19t46.5 19t18.5 47t-18.5 46.5t-46.5 18.5t-46.5 -18.5t-18.5 -46.5z" />
    <glyph glyph-name="AEacute" unicode="&#x1fc;" horiz-adv-x="1925" 
d="M365 0h-360l775 1434h1028v-287h-563v-285h514v-282h-514v-293h582v-287h-916v299h-394zM911 1077l-263 -512h263v512zM801 1614l239 364l207 -162l-302 -314z" />
    <glyph glyph-name="aeacute" unicode="&#x1fd;" horiz-adv-x="2094" 
d="M1233 439q17 -101 92 -158.5t193 -57.5q198 0 343 129l139 -155q-180 -222 -449 -222q-100 0 -188 40t-141 107v-122h-324v117q-134 -142 -337 -142q-143 0 -258 73.5t-178 200.5t-63 281t63 281t178 200.5t258 73.5q204 0 337 -141v117h324v-119q103 143 306 143
q150 0 269 -72t183.5 -194.5t64.5 -270.5q0 -57 -15 -109h-797zM389 530q0 -114 73 -190t180 -76q108 0 182 76.5t74 189.5t-74 190t-182 77q-107 0 -180 -77t-73 -190zM1480 838q-88 0 -153.5 -52t-88.5 -139h473q-20 89 -80.5 140t-150.5 51zM874 1283l240 364l207 -162
l-302 -315z" />
    <glyph glyph-name="Oslashacute" unicode="&#x1fe;" horiz-adv-x="1699" 
d="M703 1615l240 363l207 -161l-302 -315zM76 717q0 206 101.5 376t279 267.5t393.5 97.5q194 0 368 -86l143 184l157 -121l-136 -174q114 -102 178 -243t64 -301q0 -154 -60 -291.5t-162.5 -236.5t-246 -156.5t-305.5 -57.5q-208 0 -389 97l-150 -194l-157 121l146 188
q-106 102 -165 238.5t-59 291.5zM1282 717q0 163 -98 285l-532 -685q88 -47 198 -47q183 0 307.5 128.5t124.5 318.5zM418 717q0 -152 84 -268l525 676q-82 38 -177 38q-183 0 -307.5 -128t-124.5 -318z" />
    <glyph glyph-name="oslashacute" unicode="&#x1ff;" horiz-adv-x="1311" 
d="M514 1283l240 364l207 -162l-303 -315zM62 530q0 115 45.5 217.5t124 176.5t189 117.5t235.5 43.5q148 0 270 -58l117 151l146 -113l-110 -140q81 -76 126 -178t45 -217t-45.5 -217.5t-124 -176.5t-189 -117.5t-235.5 -43.5q-143 0 -272 59l-118 -152l-145 113l110 141
q-80 76 -124.5 177.5t-44.5 216.5zM931 530q0 82 -44 148l-318 -407q42 -14 87 -14q117 0 196 78.5t79 194.5zM382 530q0 -82 42 -146l316 404q-46 16 -84 16q-117 0 -195.5 -79t-78.5 -195z" />
    <glyph glyph-name="Scommaaccent" unicode="&#x218;" horiz-adv-x="1228" 
d="M110 273l140 155q88 -85 175.5 -126.5t190.5 -41.5q90 0 146.5 40.5t56.5 106.5q0 67 -58 113.5t-210 78.5q-206 44 -320 155.5t-114 274.5q0 188 136.5 308.5t353.5 120.5q218 0 361 -116t161 -328h-331q-11 78 -56.5 121t-118.5 43q-72 0 -118 -34t-46 -88
q0 -64 56 -110t190 -77q456 -106 456 -446q0 -196 -144.5 -322t-384.5 -126q-145 0 -278.5 74t-243.5 224zM376 -432l240 363l207 -161l-302 -314z" />
    <glyph glyph-name="scommaaccent" unicode="&#x219;" horiz-adv-x="975" 
d="M77 200l120 143q127 -118 275 -118q61 0 95 23t34 62q0 40 -37 66t-126 45q-167 35 -255 124t-88 222q0 139 110 228.5t283 89.5q183 0 290.5 -94t130.5 -252h-284q-9 45 -40 71t-78 26q-44 0 -72.5 -20t-28.5 -53q0 -76 155 -109q358 -75 358 -346q0 -145 -117.5 -239
t-309.5 -94q-237 0 -415 225zM241 -432l240 363l207 -161l-302 -314z" />
    <glyph glyph-name="uni021A" unicode="&#x21a;" horiz-adv-x="1145" 
d="M403 0v1141h-352v293h1044v-293h-353v-1141h-339zM319 -432l241 363l207 -161l-302 -314z" />
    <glyph glyph-name="uni021B" unicode="&#x21b;" horiz-adv-x="821" 
d="M526 776v-392q0 -64 32.5 -94t104.5 -30q62 0 107 6v-242q-81 -49 -208 -49q-171 0 -268 99t-97 276v426h-174v285h174v258l329 49v-307h232v-285h-232zM169 -432l241 363l206 -161l-302 -314z" />
    <glyph glyph-name="dotlessj" unicode="&#x237;" horiz-adv-x="589" 
d="M130 -74v1135h329v-1167q0 -179 -99 -274t-280 -95q-62 0 -117 11v274h56q57 0 84 27t27 89z" />
    <glyph glyph-name="apostrophe" unicode="&#x2bc;" horiz-adv-x="880" 
d="M273 1363q0 60 49.5 108.5t130.5 48.5q75 0 124 -51t49 -133q0 -88 -34 -168t-112.5 -150.5t-192.5 -109.5l-66 93q70 43 106 76.5t43 65t-7.5 59.5t-50.5 66q-39 40 -39 95z" />
    <glyph glyph-name="circumflex" unicode="&#x2c6;" horiz-adv-x="880" 
d="M284 1496h312l214 -291l-145 -111l-226 227l-224 -227l-145 111z" />
    <glyph glyph-name="caron" unicode="&#x2c7;" horiz-adv-x="880" 
d="M596 1146h-312l-214 291l145 111l224 -227l226 227l145 -111z" />
    <glyph glyph-name="uni02C9" unicode="&#x2c9;" horiz-adv-x="880" 
d="M113 1198v242h655v-242h-655z" />
    <glyph glyph-name="breve" unicode="&#x2d8;" horiz-adv-x="880" 
d="M440 1153q-150 0 -261 91.5t-116 230.5h264q1 -49 33.5 -82t79.5 -33t80 33t34 82h263q-5 -139 -116 -230.5t-261 -91.5z" />
    <glyph glyph-name="dotaccent" unicode="&#x2d9;" horiz-adv-x="880" 
d="M269 1322q0 71 49.5 120t121.5 49t121.5 -49t49.5 -120t-49.5 -120t-121.5 -49t-121.5 49t-49.5 120z" />
    <glyph glyph-name="ring" unicode="&#x2da;" horiz-adv-x="880" 
d="M376 1316q0 -27 18 -45t46 -18t46.5 18t18.5 45t-18.5 45t-46.5 18t-46 -18t-18 -45zM199 1316q0 94 69 157.5t172 63.5t172.5 -63.5t69.5 -157.5t-69.5 -157t-172.5 -63t-172 63t-69 157z" />
    <glyph glyph-name="ogonek" unicode="&#x2db;" horiz-adv-x="880" 
d="M347 0h213q-182 -142 -182 -247q0 -45 22 -70.5t54 -25.5q36 0 59.5 26.5t27.5 74.5h218q-13 -135 -96.5 -209t-218.5 -74q-121 0 -208.5 69t-87.5 176q0 73 53.5 147.5t145.5 132.5z" />
    <glyph glyph-name="tilde" unicode="&#x2dc;" horiz-adv-x="880" 
d="M452 1208q-68 37 -94 37q-40 0 -56 -74l-253 50q44 241 225 241q76 0 155 -44q68 -37 93 -37q41 0 57 74l252 -49q-44 -242 -225 -242q-75 0 -154 44z" />
    <glyph glyph-name="hungarumlaut" unicode="&#x2dd;" horiz-adv-x="880" 
d="M76 1215l239 364l194 -152l-302 -314zM447 1215l240 364l194 -152l-302 -314z" />
    <glyph glyph-name="gravecomb" unicode="&#x300;" horiz-adv-x="0" 
d="M-715 1417l207 162l241 -364l-146 -112z" />
    <glyph glyph-name="acutecomb" unicode="&#x301;" horiz-adv-x="0" 
d="M-631 1215l240 364l207 -162l-302 -314z" />
    <glyph glyph-name="uni0302" unicode="&#x302;" horiz-adv-x="0" 
d="M-597 1496h312l214 -291l-145 -111l-225 227l-225 -227l-145 111z" />
    <glyph glyph-name="tildecomb" unicode="&#x303;" horiz-adv-x="0" 
d="M-429 1208q-68 37 -93 37q-41 0 -57 -74l-252 50q44 241 225 241q75 0 154 -44q68 -37 94 -37q40 0 56 74l253 -49q-44 -242 -225 -242q-76 0 -155 44z" />
    <glyph glyph-name="uni0304" unicode="&#x304;" horiz-adv-x="0" 
d="M-768 1199v242h655v-242h-655z" />
    <glyph glyph-name="uni0306" unicode="&#x306;" horiz-adv-x="0" 
d="M-440 1153q-150 0 -261 91.5t-116 230.5h263q1 -49 34 -82t80 -33t79.5 33t33.5 82h264q-5 -139 -116 -230.5t-261 -91.5z" />
    <glyph glyph-name="uni0307" unicode="&#x307;" horiz-adv-x="0" 
d="M-611 1322q0 71 49.5 120t121.5 49t121.5 -49t49.5 -120t-49.5 -120t-121.5 -49t-121.5 49t-49.5 120z" />
    <glyph glyph-name="uni0308" unicode="&#x308;" horiz-adv-x="0" 
d="M-812 1323q0 69 47.5 116.5t117.5 47.5t118 -47.5t48 -116.5t-48 -116.5t-118 -47.5t-117.5 47.5t-47.5 116.5zM-399 1323q0 69 48 116.5t118 47.5t117 -47.5t47 -116.5t-47 -116.5t-117 -47.5t-118 47.5t-48 116.5z" />
    <glyph glyph-name="uni030A" unicode="&#x30a;" horiz-adv-x="0" 
d="M-505 1316q0 -27 18.5 -45t46.5 -18t46 18t18 45t-18 45t-46 18t-46.5 -18t-18.5 -45zM-682 1316q0 94 69.5 157.5t172.5 63.5t172 -63.5t69 -157.5t-69 -157t-172 -63t-172.5 63t-69.5 157z" />
    <glyph glyph-name="uni030C" unicode="&#x30c;" horiz-adv-x="0" 
d="M-285 1146h-312l-214 291l145 111l225 -227l225 227l145 -111z" />
    <glyph glyph-name="uni0327" unicode="&#x327;" horiz-adv-x="0" 
d="M-358 -300q0 31 -25.5 53.5t-62.5 22.5q-20 0 -40 -5l-56 57v172h203v-95q97 -11 151 -71.5t54 -137.5q0 -99 -85 -163.5t-215 -64.5q-118 0 -204 60t-110 173h196q23 -74 106 -74q41 0 64.5 20t23.5 53z" />
    <glyph glyph-name="tonos" unicode="&#x384;" horiz-adv-x="880" 
d="M391 1103l-145 112l240 364l207 -162z" />
    <glyph glyph-name="dieresistonos" unicode="&#x385;" horiz-adv-x="880" 
d="M90 1169q0 63 45 106t112 43q66 0 111 -43t45 -106t-44.5 -106t-111.5 -43t-112 43t-45 106zM476 1169q0 63 45 106t112 43t112 -43t45 -106t-45 -106t-112 -43t-112 43t-45 106zM305 1401l205 259l170 -160l-255 -210z" />
    <glyph glyph-name="Alphatonos" unicode="&#x386;" horiz-adv-x="1542" 
d="M644 1434h373l497 -1434h-354l-93 299h-473l-93 -299h-355zM672 564h317l-159 513zM213 1041l-145 113l240 364l207 -162z" />
    <glyph glyph-name="anoteleia" unicode="&#x387;" horiz-adv-x="620" 
d="M115 669q0 80 55.5 134t139.5 54t140 -54t56 -134t-56 -134.5t-140 -54.5t-139.5 54.5t-55.5 134.5z" />
    <glyph glyph-name="Epsilontonos" unicode="&#x388;" horiz-adv-x="1605" 
d="M578 0v1434h913v-287h-575v-285h526v-282h-526v-293h593v-287h-931zM213 1041l-145 113l240 364l207 -162z" />
    <glyph glyph-name="Etatonos" unicode="&#x389;" horiz-adv-x="1882" 
d="M578 0v1434h338v-568h477v568h340v-1434h-340v574h-477v-574h-338zM213 1041l-145 113l240 364l207 -162z" />
    <glyph glyph-name="Iotatonos" unicode="&#x38a;" horiz-adv-x="1073" 
d="M578 1434h338v-1434h-338v1434zM213 1041l-145 113l240 364l207 -162z" />
    <glyph glyph-name="Omicrontonos" unicode="&#x38c;" horiz-adv-x="1982" 
d="M700 717q0 -190 125 -318.5t308 -128.5t307.5 128.5t124.5 318.5t-124.5 318t-307.5 128t-308 -128t-125 -318zM358 717q0 154 60 291.5t163 236t246.5 156t305.5 57.5q216 0 393.5 -97.5t279 -267.5t101.5 -376q0 -154 -60 -291.5t-162.5 -236.5t-246 -156.5
t-305.5 -57.5t-305.5 57.5t-246.5 156.5t-163 236.5t-60 291.5zM213 1041l-145 113l240 364l207 -162z" />
    <glyph glyph-name="Upsilontonos" unicode="&#x38e;" horiz-adv-x="1869" 
d="M920 1434l277 -549l279 549h367l-476 -867v-567h-339v567l-476 867h368zM213 1041l-145 113l240 364l207 -162z" />
    <glyph glyph-name="Omegatonos" unicode="&#x38f;" horiz-adv-x="1957" 
d="M213 1041l-145 113l240 364l207 -162zM1532 749q0 174 -117 294t-287 120t-286.5 -120t-116.5 -294q0 -153 83.5 -278.5t231.5 -194.5v-276h-634v295h258q-138 89 -209 213.5t-71 275.5q0 186 98 340.5t269 244t377 89.5t377 -89.5t269.5 -244t98.5 -340.5
q0 -151 -71 -275.5t-209 -213.5h258v-295h-634v276q148 69 231.5 194.5t83.5 278.5z" />
    <glyph glyph-name="iotadieresistonos" unicode="&#x390;" horiz-adv-x="638" 
d="M130 307v754h329v-676q0 -98 98 -98h39v-282q-48 -5 -107 -5q-184 0 -271.5 77t-87.5 230zM-54 1307q0 63 44.5 105.5t111.5 42.5t112 -43t45 -105q0 -63 -45 -106.5t-112 -43.5t-111.5 43.5t-44.5 106.5zM332 1307q0 63 44.5 105.5t111.5 42.5t112 -42.5t45 -105.5
t-45 -106.5t-112 -43.5t-111.5 43.5t-44.5 106.5zM161 1538l205 259l170 -160l-255 -210z" />
    <glyph glyph-name="Alpha" unicode="&#x391;" horiz-adv-x="1422" 
d="M524 1434h373l498 -1434h-355l-93 299h-473l-93 -299h-354zM552 564h317l-158 513z" />
    <glyph glyph-name="Beta" unicode="&#x392;" horiz-adv-x="1288" 
d="M771 0h-620v1434h555q199 0 316 -106.5t117 -281.5q0 -102 -48.5 -179t-128.5 -111q110 -30 179.5 -120.5t69.5 -216.5q0 -184 -122.5 -301.5t-317.5 -117.5zM823 1013q0 70 -39.5 109t-103.5 39h-201v-297h201q64 0 103.5 39.5t39.5 109.5zM876 437q0 74 -43 119.5
t-111 45.5h-243v-330h243q68 0 111 45.5t43 119.5z" />
    <glyph glyph-name="Gamma" unicode="&#x393;" horiz-adv-x="1073" 
d="M151 0v1434h891v-293h-553v-1141h-338z" />
    <glyph glyph-name="uni0394" unicode="&#x394;" horiz-adv-x="1422" 
d="M897 1434l499 -1434h-1368l497 1434h372zM712 1077l-253 -796h505z" />
    <glyph glyph-name="Epsilon" unicode="&#x395;" horiz-adv-x="1179" 
d="M151 0v1434h913v-287h-575v-285h526v-282h-526v-293h593v-287h-931z" />
    <glyph glyph-name="Zeta" unicode="&#x396;" horiz-adv-x="1255" 
d="M109 272l624 869h-594v293h998v-273l-625 -868h645v-293h-1048v272z" />
    <glyph glyph-name="Eta" unicode="&#x397;" horiz-adv-x="1455" 
d="M151 0v1434h338v-568h477v568h340v-1434h-340v574h-477v-574h-338z" />
    <glyph glyph-name="Theta" unicode="&#x398;" horiz-adv-x="1699" 
d="M575 583v268h549v-268h-549zM76 717q0 206 101.5 376t279 267.5t393.5 97.5t393.5 -97.5t279 -267.5t101.5 -376q0 -154 -60 -291.5t-162.5 -236.5t-246 -156.5t-305.5 -57.5t-305.5 57.5t-246 156.5t-162.5 236.5t-60 291.5zM408 717q0 -193 128 -325t314 -132t314 132
t128 325t-128 325t-314 132t-314 -132t-128 -325z" />
    <glyph glyph-name="Iota" unicode="&#x399;" horiz-adv-x="651" 
d="M156 1434h339v-1434h-339v1434z" />
    <glyph glyph-name="Kappa" unicode="&#x39a;" horiz-adv-x="1292" 
d="M873 1434h340q0 -549 -252 -728l362 -706h-370l-310 608q-15 -1 -51 -1h-103v-607h-338v1434h338v-535h67q172 0 244.5 119.5t72.5 415.5z" />
    <glyph glyph-name="Lambda" unicode="&#x39b;" horiz-adv-x="1422" 
d="M1395 0h-355l-329 1062l-330 -1062h-354l497 1434h373z" />
    <glyph glyph-name="Mu" unicode="&#x39c;" horiz-adv-x="1766" 
d="M1014 223h-186l-363 686v-909h-314v1434h351l419 -808l419 808h352v-1434h-316v909z" />
    <glyph glyph-name="Nu" unicode="&#x39d;" horiz-adv-x="1455" 
d="M151 0v1434h355l484 -921v921h316v-1434h-357l-484 921v-921h-314z" />
    <glyph glyph-name="Xi" unicode="&#x39e;" horiz-adv-x="1193" 
d="M119 1147v287h956v-287h-956zM97 0v287h1000v-287h-1000zM1008 580h-828v282h828v-282z" />
    <glyph glyph-name="Omicron" unicode="&#x39f;" horiz-adv-x="1699" 
d="M418 717q0 -190 124.5 -318.5t307.5 -128.5t307.5 128.5t124.5 318.5t-124.5 318t-307.5 128t-307.5 -128t-124.5 -318zM76 717q0 206 101.5 376t279 267.5t393.5 97.5t393.5 -97.5t279 -267.5t101.5 -376q0 -154 -60 -291.5t-162.5 -236.5t-246 -156.5t-305.5 -57.5
t-305.5 57.5t-246 156.5t-162.5 236.5t-60 291.5z" />
    <glyph glyph-name="Pi" unicode="&#x3a0;" horiz-adv-x="1401" 
d="M1252 1434v-1434h-340v1141h-423v-1141h-338v1434h1101z" />
    <glyph glyph-name="Rho" unicode="&#x3a1;" horiz-adv-x="1243" 
d="M680 479h-191v-479h-339v1434h530q225 0 365.5 -134t140.5 -344q0 -211 -140.5 -344t-365.5 -133zM850 956q0 94 -55 150.5t-152 56.5h-154v-414h154q97 0 152 56t55 151z" />
    <glyph glyph-name="Sigma" unicode="&#x3a3;" horiz-adv-x="1210" 
d="M109 316l345 403l-345 398v317h993v-291h-613l308 -336v-178l-310 -338h615v-291h-993v316z" />
    <glyph glyph-name="Tau" unicode="&#x3a4;" horiz-adv-x="1145" 
d="M403 0v1141h-352v293h1044v-293h-353v-1141h-339z" />
    <glyph glyph-name="Upsilon" unicode="&#x3a5;" horiz-adv-x="1346" 
d="M395 1434l278 -549l278 549h368l-476 -867v-567h-339v567l-476 867h367z" />
    <glyph glyph-name="Phi" unicode="&#x3a6;" horiz-adv-x="1593" 
d="M637 0v197q-161 0 -294.5 68t-210.5 187t-77 263t77 263t210.5 187t294.5 68v201h318v-201q161 0 294.5 -68t210.5 -187t77 -263t-77 -263t-210.5 -187t-294.5 -68v-197h-318zM1215 715q0 98 -75 166t-185 68v-470q110 0 185 68.5t75 167.5zM377 715q0 -99 75 -167.5
t185 -68.5v470q-110 0 -185 -68t-75 -166z" />
    <glyph glyph-name="Chi" unicode="&#x3a7;" horiz-adv-x="1332" 
d="M1312 0h-370l-276 502l-277 -502h-369l433 733l-410 701h370l253 -468l253 468h369l-409 -701z" />
    <glyph glyph-name="Psi" unicode="&#x3a8;" horiz-adv-x="1442" 
d="M872 1434v-804q71 34 112.5 101.5t41.5 151.5v551h303v-563q0 -197 -127.5 -346.5t-329.5 -194.5v-330h-302v330q-202 45 -329 194.5t-127 346.5v563h303v-551q0 -84 41.5 -151.5t111.5 -101.5v804h302z" />
    <glyph glyph-name="uni03A9" unicode="&#x3a9;" horiz-adv-x="1658" 
d="M1233 749q0 174 -117 294t-287 120t-286.5 -120t-116.5 -294q0 -153 83.5 -278.5t231.5 -194.5v-276h-635v295h259q-138 89 -209 213.5t-71 275.5q0 186 98 340.5t269 244t377 89.5t377 -89.5t269.5 -244t98.5 -340.5q0 -151 -71 -275.5t-209 -213.5h258v-295h-634v276
q148 69 231.5 194.5t83.5 278.5z" />
    <glyph glyph-name="Iotadieresis" unicode="&#x3aa;" horiz-adv-x="651" 
d="M156 1434h339v-1434h-339v1434zM-46 1704q0 69 47 116.5t117 47.5t118 -47.5t48 -116.5t-48 -116.5t-118 -47.5t-117 47.5t-47 116.5zM366 1704q0 69 48 116.5t118 47.5t117.5 -47.5t47.5 -116.5t-47.5 -116.5t-117.5 -47.5t-118 47.5t-48 116.5z" />
    <glyph glyph-name="Upsilondieresis" unicode="&#x3ab;" horiz-adv-x="1346" 
d="M395 1434l278 -549l278 549h368l-476 -867v-567h-339v567l-476 867h367zM301 1704q0 69 47.5 116.5t117.5 47.5t118 -47.5t48 -116.5t-48 -116.5t-118 -47.5t-117.5 47.5t-47.5 116.5zM714 1704q0 69 48 116.5t118 47.5t117 -47.5t47 -116.5t-47 -116.5t-117 -47.5
t-118 47.5t-48 116.5z" />
    <glyph glyph-name="alphatonos" unicode="&#x3ac;" horiz-adv-x="1421" 
d="M495 1283l239 364l207 -162l-302 -315zM61 530q0 153 65.5 280.5t181.5 201t258 73.5q98 0 184 -36t147 -100v112h325v-677q0 -98 98 -98h39v-282q-56 -4 -103 -4q-243 0 -313 152q-66 -84 -161.5 -130.5t-211.5 -46.5q-144 0 -261 73.5t-182.5 200.5t-65.5 281zM388 530
q0 -114 73.5 -190.5t180.5 -76.5t181 77t74 190q0 112 -74 189.5t-181 77.5t-180.5 -77.5t-73.5 -189.5z" />
    <glyph glyph-name="epsilontonos" unicode="&#x3ad;" horiz-adv-x="993" 
d="M315 1283l240 364l207 -162l-302 -315zM376 322q0 -47 40 -78t100 -31q139 0 253 117l154 -143q-82 -104 -181 -158t-233 -54q-196 0 -324.5 92.5t-128.5 232.5q0 88 58 152t149 93q-75 28 -123 96t-48 147q0 126 117.5 211.5t293.5 85.5q165 0 271 -92t127 -245h-287
q-10 46 -40.5 72t-71.5 26q-44 0 -72 -23.5t-28 -60.5q0 -39 35 -69.5t81 -30.5h153v-244h-151q-62 0 -103 -25t-41 -71z" />
    <glyph glyph-name="etatonos" unicode="&#x3ae;" horiz-adv-x="1261" 
d="M752 1085q175 0 288 -116t113 -303v-1141h-329v1088q0 79 -49 131.5t-122 52.5q-83 0 -139 -59.5t-56 -164.5v-573h-329v1061h329v-112q113 136 294 136zM489 1283l240 364l207 -162l-302 -315z" />
    <glyph glyph-name="iotatonos" unicode="&#x3af;" horiz-adv-x="638" 
d="M130 307v754h329v-676q0 -98 98 -98h39v-282q-48 -5 -107 -5q-184 0 -271.5 77t-87.5 230zM139 1283l240 364l207 -162l-302 -315z" />
    <glyph glyph-name="upsilondieresistonos" unicode="&#x3b0;" horiz-adv-x="1199" 
d="M599 -25q-206 0 -348 128.5t-142 314.5v643h329v-626q0 -73 46 -122t115 -49t115.5 49t46.5 122v626h329v-643q0 -186 -142 -314.5t-349 -128.5zM249 1307q0 63 45 105.5t112 42.5q66 0 111 -42.5t45 -105.5t-45 -106.5t-111 -43.5q-67 0 -112 43.5t-45 106.5zM635 1307
q0 63 45 105.5t112 42.5t111.5 -42.5t44.5 -105.5t-44.5 -106.5t-111.5 -43.5t-112 43.5t-45 106.5zM464 1538l205 259l170 -160l-255 -210z" />
    <glyph glyph-name="alpha" unicode="&#x3b1;" horiz-adv-x="1421" 
d="M61 530q0 153 65.5 280.5t181.5 201t258 73.5q98 0 184 -36t147 -100v112h325v-677q0 -98 98 -98h39v-282q-56 -4 -103 -4q-243 0 -313 152q-66 -84 -161.5 -130.5t-211.5 -46.5q-144 0 -261 73.5t-182.5 200.5t-65.5 281zM388 530q0 -114 73.5 -190.5t180.5 -76.5
t181 77t74 190q0 112 -74 189.5t-181 77.5t-180.5 -77.5t-73.5 -189.5z" />
    <glyph glyph-name="beta" unicode="&#x3b2;" horiz-adv-x="1250" 
d="M503 99l75 214q81 -47 158 -47q70 0 109.5 54t39.5 148q0 77 -57 137.5t-134 60.5q-30 0 -63 -14l-88 166l166 336h-248v-1629h-323v1909h880v-273l-160 -296q151 -29 243 -151.5t92 -297.5q0 -211 -109.5 -323t-280.5 -112q-84 0 -164 30.5t-136 87.5z" />
    <glyph glyph-name="gamma" unicode="&#x3b3;" horiz-adv-x="1118" 
d="M394 -475v476l-376 1060h344l198 -653l197 653h343l-376 -1060v-476h-330z" />
    <glyph glyph-name="delta" unicode="&#x3b4;" horiz-adv-x="1174" 
d="M387 455q0 -85 57.5 -142.5t141.5 -57.5t142 57.5t58 142.5q0 84 -58 141t-142 57t-141.5 -57t-57.5 -141zM469 920l-264 268v246h774v-286h-369l371 -378q61 -63 96 -144.5t35 -170.5q0 -136 -72.5 -247t-193 -172t-262.5 -61q-104 0 -199.5 36.5t-167 99t-114 152.5
t-42.5 192q0 172 116 301t292 164z" />
    <glyph glyph-name="epsilon" unicode="&#x3b5;" horiz-adv-x="993" 
d="M376 322q0 -47 40 -78t100 -31q139 0 253 117l154 -143q-82 -104 -181 -158t-233 -54q-196 0 -324.5 92.5t-128.5 232.5q0 88 58 152t149 93q-75 28 -123 96t-48 147q0 126 117.5 211.5t293.5 85.5q165 0 271 -92t127 -245h-287q-10 46 -40.5 72t-71.5 26
q-44 0 -72 -23.5t-28 -60.5q0 -39 35 -69.5t81 -30.5h153v-244h-151q-62 0 -103 -25t-41 -71z" />
    <glyph glyph-name="zeta" unicode="&#x3b6;" horiz-adv-x="979" 
d="M56 374q0 100 49.5 195.5t135.5 199.5l315 379h-395v286h770v-266l-429 -533q-112 -139 -112 -250q0 -126 133 -195l237 -124q84 -44 127.5 -117.5t43.5 -164.5q0 -129 -95 -259h-325q86 114 86 219q0 46 -23.5 83t-64.5 58l-191 97q-125 63 -193.5 164.5t-68.5 227.5z
" />
    <glyph glyph-name="eta" unicode="&#x3b7;" horiz-adv-x="1261" 
d="M752 1085q175 0 288 -116t113 -303v-1141h-329v1088q0 79 -49 131.5t-122 52.5q-83 0 -139 -59.5t-56 -164.5v-573h-329v1061h329v-112q113 136 294 136z" />
    <glyph glyph-name="theta" unicode="&#x3b8;" horiz-adv-x="1324" 
d="M57 717q0 151 45.5 287.5t124.5 236.5t192 158.5t243 58.5q173 0 312 -100t215.5 -269t76.5 -372t-76.5 -372.5t-215.5 -269.5t-312 -100q-130 0 -243 59t-192 159t-124.5 236.5t-45.5 287.5zM662 1181q-101 0 -172.5 -94t-93.5 -239h532q-22 146 -93.5 239.5
t-172.5 93.5zM662 252q101 0 172.5 94t93.5 240h-532q22 -146 93.5 -240t172.5 -94z" />
    <glyph glyph-name="iota" unicode="&#x3b9;" horiz-adv-x="638" 
d="M130 307v754h329v-676q0 -98 98 -98h39v-282q-48 -5 -107 -5q-184 0 -271.5 77t-87.5 230z" />
    <glyph glyph-name="kappa" unicode="&#x3ba;" horiz-adv-x="1132" 
d="M727 1061h330q0 -401 -201 -542l268 -519h-358l-213 438h-94v-438h-330v1061h330v-340h65q203 0 203 340z" />
    <glyph glyph-name="lambda" unicode="&#x3bb;" horiz-adv-x="1118" 
d="M395 1042l-184 453h344l544 -1495h-343l-200 618l-195 -618h-343z" />
    <glyph glyph-name="uni03BC" unicode="&#x3bc;" horiz-adv-x="1282" 
d="M128 -475v1536h329v-617q0 -78 49.5 -129.5t121.5 -51.5q83 0 139 59.5t56 163.5v575h329v-1061h-329v111q-105 -126 -299 -126q-32 0 -67 6v-466h-329z" />
    <glyph glyph-name="nu" unicode="&#x3bd;" horiz-adv-x="1118" 
d="M756 1061h343l-359 -1061h-363l-359 1061h343l197 -687z" />
    <glyph glyph-name="xi" unicode="&#x3be;" horiz-adv-x="990" 
d="M392 382q0 -73 41 -128.5t121 -85.5q11 -4 145 -56q109 -43 171.5 -125t62.5 -188q0 -142 -95 -274h-324q86 112 86 217q0 46 -25 82.5t-70 53.5l-129 47q-145 53 -231.5 175t-86.5 265q0 136 78.5 247t204.5 161q-107 44 -163 129.5t-56 191.5q0 154 123.5 259
t304.5 105q189 0 302 -106t113 -287h-280q0 56 -33.5 91.5t-86.5 35.5q-56 0 -92 -40.5t-36 -103.5t41 -108t103 -45h221v-268h-172q-99 0 -168.5 -70t-69.5 -175z" />
    <glyph glyph-name="omicron" unicode="&#x3bf;" horiz-adv-x="1311" 
d="M62 530q0 115 45.5 217.5t124 176.5t189 117.5t235.5 43.5t235.5 -43.5t189 -117.5t124 -176.5t45.5 -217.5t-45.5 -217.5t-124 -176.5t-189 -117.5t-235.5 -43.5t-235.5 43.5t-189 117.5t-124 176.5t-45.5 217.5zM389 530q0 -114 76 -190t191 -76t191.5 76t76.5 190
t-77 190.5t-191 76.5t-190.5 -76.5t-76.5 -190.5z" />
    <glyph glyph-name="pi" unicode="&#x3c0;" horiz-adv-x="1197" 
d="M486 772v-772h-325v772h-122v289h1118v-289h-122v-772h-325v772h-224z" />
    <glyph glyph-name="rho" unicode="&#x3c1;" horiz-adv-x="1330" 
d="M109 -475v1005q0 114 44 216.5t120 177t184 118t231 43.5q163 0 296.5 -74t208.5 -201t75 -280q0 -151 -75 -279t-202 -202t-276 -74q-175 0 -283 104v-554h-323zM432 530v-130q37 -63 103 -99.5t143 -36.5q111 0 187 76t76 190t-72.5 190.5t-181.5 76.5
q-110 0 -182.5 -76.5t-72.5 -190.5z" />
    <glyph glyph-name="sigma1" unicode="&#x3c2;" horiz-adv-x="1114" 
d="M393 530q0 -102 51 -180t148 -123l215 -98q109 -50 166.5 -136.5t57.5 -193.5q0 -142 -90 -274h-324q86 114 86 217q0 99 -99 146l-203 93q-161 73 -250 216t-89 333q0 115 45.5 217.5t124 176.5t189 117.5t235.5 43.5q242 0 411 -148l-157 -239q-125 99 -250 99
q-114 0 -190.5 -76.5t-76.5 -190.5z" />
    <glyph glyph-name="sigma" unicode="&#x3c3;" horiz-adv-x="1366" 
d="M62 518q0 149 77 274t211 197t294 72h678v-289h-222q59 -52 92.5 -127t33.5 -158q0 -98 -44.5 -191.5t-120.5 -164t-185.5 -113.5t-231.5 -43q-160 0 -294 72t-211 196.5t-77 274.5zM387 518q0 -107 74.5 -180.5t182.5 -73.5t182 73.5t74 180.5t-74 180.5t-182 73.5
t-182.5 -73.5t-74.5 -180.5z" />
    <glyph glyph-name="tau" unicode="&#x3c4;" horiz-adv-x="1015" 
d="M332 369v403h-295v289h941v-289h-316v-359q0 -68 28.5 -98.5t89.5 -30.5h47v-282q-54 -4 -105 -4q-204 0 -297 89t-93 282z" />
    <glyph glyph-name="upsilon" unicode="&#x3c5;" horiz-adv-x="1199" 
d="M599 -25q-206 0 -348 128.5t-142 314.5v643h329v-626q0 -73 46 -122t115 -49t115.5 49t46.5 122v626h329v-643q0 -186 -142 -314.5t-349 -128.5z" />
    <glyph glyph-name="phi" unicode="&#x3c6;" horiz-adv-x="1444" 
d="M272 967l197 -199q-52 -45 -82.5 -107.5t-30.5 -130.5q0 -100 63 -174t163 -94v823h213q123 0 232.5 -43.5t187.5 -117.5t123 -176.5t45 -217.5q0 -215 -146 -370t-369 -179v-456h-286v456q-225 23 -372.5 178t-147.5 371q0 133 56.5 246.5t153.5 190.5zM1090 530
q0 99 -62.5 173t-159.5 94v-535q98 22 160 95.5t62 172.5z" />
    <glyph glyph-name="chi" unicode="&#x3c7;" horiz-adv-x="1112" 
d="M1082 1061l-324 -749l345 -787h-347l-200 495l-199 -495h-348l345 787l-324 749h348l178 -451l179 451h347z" />
    <glyph glyph-name="psi" unicode="&#x3c8;" horiz-adv-x="1422" 
d="M855 1061v-773q75 30 120 92t45 142v539h293v-563q0 -188 -128 -328t-330 -179v-466h-289v466q-201 39 -329 179t-128 328v563h292v-539q0 -80 45 -142t120 -92v773h289z" />
    <glyph glyph-name="omega" unicode="&#x3c9;" horiz-adv-x="1660" 
d="M992 838v-267q0 -132 37 -220t103 -88q60 0 98.5 73t38.5 184q0 132 -50 274t-128 267h325q182 -284 182 -541q0 -151 -58 -276.5t-158.5 -197t-221.5 -71.5q-107 0 -195.5 58t-135.5 149q-45 -91 -133.5 -149t-195.5 -58q-121 0 -222 71.5t-159 197t-58 276.5
q0 256 183 541h325q-78 -125 -128 -267t-50 -274q0 -107 40 -182t97 -75q65 0 102.5 88t37.5 220v267h324z" />
    <glyph glyph-name="iotadieresis" unicode="&#x3ca;" horiz-adv-x="638" 
d="M130 307v754h329v-676q0 -98 98 -98h39v-282q-48 -5 -107 -5q-184 0 -271.5 77t-87.5 230zM-77 1372q0 69 47.5 116.5t117.5 47.5t118 -47.5t48 -116.5t-48 -116.5t-118 -47.5t-117.5 47.5t-47.5 116.5zM336 1372q0 69 48 116.5t118 47.5t117.5 -47.5t47.5 -116.5
t-47.5 -116.5t-117.5 -47.5t-118 47.5t-48 116.5z" />
    <glyph glyph-name="upsilondieresis" unicode="&#x3cb;" horiz-adv-x="1199" 
d="M599 -25q-206 0 -348 128.5t-142 314.5v643h329v-626q0 -73 46 -122t115 -49t115.5 49t46.5 122v626h329v-643q0 -186 -142 -314.5t-349 -128.5zM227 1372q0 69 47.5 116.5t117.5 47.5t118 -47.5t48 -116.5t-48 -116.5t-118 -47.5t-117.5 47.5t-47.5 116.5zM640 1372
q0 69 48 116.5t118 47.5t117.5 -47.5t47.5 -116.5t-47.5 -116.5t-117.5 -47.5t-118 47.5t-48 116.5z" />
    <glyph glyph-name="omicrontonos" unicode="&#x3cc;" horiz-adv-x="1311" 
d="M62 530q0 115 45.5 217.5t124 176.5t189 117.5t235.5 43.5t235.5 -43.5t189 -117.5t124 -176.5t45.5 -217.5t-45.5 -217.5t-124 -176.5t-189 -117.5t-235.5 -43.5t-235.5 43.5t-189 117.5t-124 176.5t-45.5 217.5zM389 530q0 -114 76 -190t191 -76t191.5 76t76.5 190
t-77 190.5t-191 76.5t-190.5 -76.5t-76.5 -190.5zM514 1283l239 364l207 -162l-302 -314z" />
    <glyph glyph-name="upsilontonos" unicode="&#x3cd;" horiz-adv-x="1199" 
d="M450 1283l239 364l207 -162l-302 -315zM599 -25q-206 0 -348 128.5t-142 314.5v643h329v-626q0 -73 46 -122t115 -49t115.5 49t46.5 122v626h329v-643q0 -186 -142 -314.5t-349 -128.5z" />
    <glyph glyph-name="omegatonos" unicode="&#x3ce;" horiz-adv-x="1660" 
d="M694 1283l240 364l207 -162l-302 -315zM992 838v-267q0 -132 37 -220t103 -88q60 0 98.5 73t38.5 184q0 132 -50 274t-128 267h325q182 -284 182 -541q0 -151 -58 -276.5t-158.5 -197t-221.5 -71.5q-107 0 -195.5 58t-135.5 149q-45 -91 -133.5 -149t-195.5 -58
q-121 0 -222 71.5t-159 197t-58 276.5q0 256 183 541h325q-78 -125 -128 -267t-50 -274q0 -107 40 -182t97 -75q65 0 102.5 88t37.5 220v267h324z" />
    <glyph glyph-name="uni0400" unicode="&#x400;" horiz-adv-x="1179" 
d="M151 0v1434h913v-287h-575v-285h526v-282h-526v-293h593v-287h-931zM278 1816l207 162l240 -364l-145 -112z" />
    <glyph glyph-name="afii10023" unicode="&#x401;" horiz-adv-x="1179" 
d="M151 0v1434h913v-287h-575v-285h526v-282h-526v-293h593v-287h-931zM241 1704q0 69 47 116.5t117 47.5t118 -47.5t48 -116.5t-48 -116.5t-118 -47.5t-117 47.5t-47 116.5zM653 1704q0 69 48 116.5t118 47.5t117.5 -47.5t47.5 -116.5t-47.5 -116.5t-117.5 -47.5t-118 47.5
t-48 116.5z" />
    <glyph glyph-name="afii10051" unicode="&#x402;" horiz-adv-x="1491" 
d="M1014 922q185 0 299.5 -117t114.5 -304v-102q0 -170 -122 -286.5t-300 -116.5q-71 0 -111 4v280h45q65 0 107.5 41t42.5 103v43q0 63 -39.5 108t-113.5 45q-86 0 -141 -53t-55 -149v-418h-340v1147h-350v287h1042v-287h-352v-345q106 120 273 120z" />
    <glyph glyph-name="afii10052" unicode="&#x403;" horiz-adv-x="1073" 
d="M151 0v1434h891v-293h-553v-1141h-338zM417 1640l239 364l207 -162l-302 -314z" />
    <glyph glyph-name="afii10053" unicode="&#x404;" horiz-adv-x="1551" 
d="M1272 512l186 -139q-224 -398 -646 -398q-154 0 -291 57.5t-234.5 156.5t-154 236.5t-56.5 291.5q0 155 56 292t153 235.5t234 156t293 57.5q255 0 431.5 -140.5t231.5 -391.5h-358q-32 113 -114.5 175t-194.5 62q-137 0 -239.5 -88t-135.5 -229h605v-259h-605
q36 -142 143 -230t252 -88q143 0 250 59.5t194 183.5z" />
    <glyph glyph-name="afii10054" unicode="&#x405;" horiz-adv-x="1228" 
d="M110 273l140 155q88 -85 175.5 -126.5t190.5 -41.5q90 0 146.5 40.5t56.5 106.5q0 67 -58 113.5t-210 78.5q-206 44 -320 155.5t-114 274.5q0 188 136.5 308.5t353.5 120.5q218 0 361 -116t161 -328h-331q-11 78 -56.5 121t-118.5 43q-72 0 -118 -34t-46 -88
q0 -64 56 -110t190 -77q456 -106 456 -446q0 -196 -144.5 -322t-384.5 -126q-145 0 -278.5 74t-243.5 224z" />
    <glyph glyph-name="afii10055" unicode="&#x406;" horiz-adv-x="651" 
d="M156 1434h339v-1434h-339v1434z" />
    <glyph glyph-name="afii10056" unicode="&#x407;" horiz-adv-x="651" 
d="M156 1434h339v-1434h-339v1434zM-46 1704q0 69 47 116.5t117 47.5t118 -47.5t48 -116.5t-48 -116.5t-118 -47.5t-117 47.5t-47 116.5zM366 1704q0 69 48 116.5t118 47.5t117.5 -47.5t47.5 -116.5t-47.5 -116.5t-117.5 -47.5t-118 47.5t-48 116.5z" />
    <glyph glyph-name="afii10057" unicode="&#x408;" horiz-adv-x="959" 
d="M481 477v957h340v-977q0 -237 -117.5 -359.5t-313.5 -122.5q-96 0 -190 30.5t-169 86.5l84 227q92 -49 186 -49q86 0 133 52.5t47 154.5z" />
    <glyph glyph-name="afii10058" unicode="&#x409;" horiz-adv-x="2087" 
d="M1298 1434v-510h222q227 0 369.5 -129.5t142.5 -332.5t-142.5 -332.5t-369.5 -129.5h-561v1141h-390v-756q0 -202 -111 -295.5t-330 -93.5q-41 0 -97 4v289h57q71 0 106 37.5t35 122.5v985h1069zM1690 462q0 86 -52.5 135t-144.5 49h-195v-370h195q93 0 145 49.5
t52 136.5z" />
    <glyph glyph-name="afii10059" unicode="&#x40a;" horiz-adv-x="2083" 
d="M1294 1434v-510h223q226 0 368.5 -129.5t142.5 -332.5t-142.5 -332.5t-368.5 -129.5h-562v574h-466v-574h-338v1434h338v-568h466v568h339zM1686 462q0 86 -52 135t-145 49h-195v-370h195q93 0 145 49.5t52 136.5z" />
    <glyph glyph-name="afii10060" unicode="&#x40b;" horiz-adv-x="1538" 
d="M1032 922q175 0 285.5 -116.5t110.5 -303.5v-502h-338v450q0 74 -43 128.5t-113 54.5q-77 0 -135 -61t-58 -171v-401h-340v1147h-350v287h1042v-287h-352v-357q110 132 291 132z" />
    <glyph glyph-name="afii10061" unicode="&#x40c;" horiz-adv-x="1292" 
d="M873 1434h340q0 -549 -252 -728l362 -706h-370l-310 608q-15 -1 -51 -1h-103v-607h-338v1434h338v-535h67q172 0 244.5 119.5t72.5 415.5zM479 1614l239 364l207 -162l-302 -314z" />
    <glyph glyph-name="uni040D" unicode="&#x40d;" horiz-adv-x="1455" 
d="M424 1817l207 161l240 -363l-145 -113zM1306 1434v-1434h-316v921l-484 -921h-355v1434h314v-921l484 921h357z" />
    <glyph glyph-name="afii10062" unicode="&#x40e;" horiz-adv-x="1346" 
d="M676 1524q-150 0 -261 91t-116 230h263q1 -49 34 -81.5t80 -32.5t80 32.5t34 81.5h263q-5 -139 -116 -230t-261 -91zM1319 1434l-561 -1201q-109 -233 -354 -233h-210v293h135q84 0 122 78l41 84l-464 979h363l285 -654l279 654h364z" />
    <glyph glyph-name="afii10145" unicode="&#x40f;" horiz-adv-x="1401" 
d="M912 292v1142h339v-1434h-381v-287h-340v287h-380v1434h339v-1142h423z" />
    <glyph glyph-name="afii10017" unicode="&#x410;" horiz-adv-x="1422" 
d="M524 1434h373l498 -1434h-355l-93 299h-473l-93 -299h-354zM552 564h317l-158 513z" />
    <glyph glyph-name="afii10018" unicode="&#x411;" horiz-adv-x="1284" 
d="M489 923h222q226 0 368.5 -129.5t142.5 -332.5t-142.5 -332t-368.5 -129h-561v1434h940v-278h-601v-233zM881 461q0 91 -55.5 137.5t-155.5 46.5h-181v-369h181q100 0 155.5 47t55.5 138z" />
    <glyph glyph-name="afii10019" unicode="&#x412;" horiz-adv-x="1288" 
d="M771 0h-620v1434h555q199 0 316 -106.5t117 -281.5q0 -102 -48.5 -179t-128.5 -111q110 -30 179.5 -120.5t69.5 -216.5q0 -184 -122.5 -301.5t-317.5 -117.5zM823 1013q0 70 -39.5 109t-103.5 39h-201v-297h201q64 0 103.5 39.5t39.5 109.5zM876 437q0 74 -43 119.5
t-111 45.5h-243v-330h243q68 0 111 45.5t43 119.5z" />
    <glyph glyph-name="afii10020" unicode="&#x413;" horiz-adv-x="1073" 
d="M151 0v1434h891v-293h-553v-1141h-338z" />
    <glyph glyph-name="afii10021" unicode="&#x414;" horiz-adv-x="1399" 
d="M1349 272v-559h-330v287h-638v-287h-330v559h104q162 371 162 921v241h902v-1162h130zM502 272h387v889h-246q0 -237 -35 -471t-106 -418z" />
    <glyph glyph-name="afii10022" unicode="&#x415;" horiz-adv-x="1179" 
d="M151 0v1434h913v-287h-575v-285h526v-282h-526v-293h593v-287h-931z" />
    <glyph glyph-name="afii10024" unicode="&#x416;" horiz-adv-x="1890" 
d="M1464 1434h340q0 -553 -256 -731l363 -703h-371l-310 607q-7 0 -21.5 -0.5t-21.5 -0.5h-73v-606h-339v606h-73q-8 0 -22.5 0.5t-21.5 0.5l-309 -607h-368l359 703q-254 178 -254 731h339q0 -296 73 -415.5t245 -119.5h32v535h339v-535h33q114 0 181.5 49t101.5 166.5
t34 319.5z" />
    <glyph glyph-name="afii10025" unicode="&#x417;" horiz-adv-x="1103" 
d="M328 1039h-266q3 187 127.5 303t330.5 116q193 0 320 -110t127 -271q0 -99 -55 -187.5t-147 -129.5q121 -44 196 -139t75 -217q0 -193 -143 -311t-361 -118q-140 0 -265 68t-217 209l145 138q70 -76 144 -110.5t163 -34.5q81 0 139.5 51.5t58.5 133.5q0 90 -61 139
t-170 49h-154v272h159q70 0 124.5 49.5t54.5 112.5q0 59 -45 97.5t-113 38.5q-70 0 -116.5 -40.5t-50.5 -108.5z" />
    <glyph glyph-name="afii10026" unicode="&#x418;" horiz-adv-x="1455" 
d="M1306 1434v-1434h-316v921l-484 -921h-355v1434h314v-921l484 921h357z" />
    <glyph glyph-name="afii10027" unicode="&#x419;" horiz-adv-x="1455" 
d="M728 1524q-150 0 -261 91t-116 230h263q1 -49 34 -81.5t80 -32.5t80 32.5t34 81.5h263q-5 -139 -116 -230t-261 -91zM1306 1434v-1434h-316v921l-484 -921h-355v1434h314v-921l484 921h357z" />
    <glyph glyph-name="afii10028" unicode="&#x41a;" horiz-adv-x="1292" 
d="M873 1434h340q0 -549 -252 -728l362 -706h-370l-310 608q-15 -1 -51 -1h-103v-607h-338v1434h338v-535h67q172 0 244.5 119.5t72.5 415.5z" />
    <glyph glyph-name="afii10029" unicode="&#x41b;" horiz-adv-x="1482" 
d="M568 1141v-757q0 -202 -111 -295t-330 -93q-40 0 -96 4v288h57q71 0 106 37t35 122v987h1103v-1434h-339v1141h-425z" />
    <glyph glyph-name="afii10030" unicode="&#x41c;" horiz-adv-x="1766" 
d="M1014 223h-186l-363 686v-909h-314v1434h351l419 -808l419 808h352v-1434h-316v909z" />
    <glyph glyph-name="afii10031" unicode="&#x41d;" horiz-adv-x="1455" 
d="M151 0v1434h338v-568h477v568h340v-1434h-340v574h-477v-574h-338z" />
    <glyph glyph-name="afii10032" unicode="&#x41e;" horiz-adv-x="1699" 
d="M418 717q0 -190 124.5 -318.5t307.5 -128.5t307.5 128.5t124.5 318.5t-124.5 318t-307.5 128t-307.5 -128t-124.5 -318zM76 717q0 206 101.5 376t279 267.5t393.5 97.5t393.5 -97.5t279 -267.5t101.5 -376q0 -154 -60 -291.5t-162.5 -236.5t-246 -156.5t-305.5 -57.5
t-305.5 57.5t-246 156.5t-162.5 236.5t-60 291.5z" />
    <glyph glyph-name="afii10033" unicode="&#x41f;" horiz-adv-x="1401" 
d="M1252 1434v-1434h-340v1141h-423v-1141h-338v1434h1101z" />
    <glyph glyph-name="afii10034" unicode="&#x420;" horiz-adv-x="1243" 
d="M680 479h-191v-479h-339v1434h530q225 0 365.5 -134t140.5 -344q0 -211 -140.5 -344t-365.5 -133zM850 956q0 94 -55 150.5t-152 56.5h-154v-414h154q97 0 152 56t55 151z" />
    <glyph glyph-name="afii10035" unicode="&#x421;" horiz-adv-x="1551" 
d="M1272 512l186 -139q-224 -398 -643 -398q-208 0 -377.5 98t-265.5 268t-96 376q0 208 93.5 377.5t260.5 266.5t375 97q257 0 436 -140.5t234 -391.5h-358q-32 113 -114.5 175t-194.5 62q-170 0 -280.5 -127t-110.5 -319t117 -320t294 -128q143 0 250 59.5t194 183.5z" />
    <glyph glyph-name="afii10036" unicode="&#x422;" horiz-adv-x="1145" 
d="M403 0v1141h-352v293h1044v-293h-353v-1141h-339z" />
    <glyph glyph-name="afii10037" unicode="&#x423;" horiz-adv-x="1346" 
d="M1319 1434l-561 -1201q-109 -233 -354 -233h-210v293h135q84 0 122 78l41 84l-464 979h363l285 -654l279 654h364z" />
    <glyph glyph-name="afii10038" unicode="&#x424;" horiz-adv-x="1593" 
d="M637 0v197q-161 0 -294.5 68t-210.5 187t-77 263t77 263t210.5 187t294.5 68v201h318v-201q161 0 294.5 -68t210.5 -187t77 -263t-77 -263t-210.5 -187t-294.5 -68v-197h-318zM1215 715q0 98 -75 166t-185 68v-470q110 0 185 68.5t75 167.5zM377 715q0 -99 75 -167.5
t185 -68.5v470q-110 0 -185 -68t-75 -166z" />
    <glyph glyph-name="afii10039" unicode="&#x425;" horiz-adv-x="1332" 
d="M1312 0h-370l-276 502l-277 -502h-369l433 733l-410 701h370l253 -468l253 468h369l-409 -701z" />
    <glyph glyph-name="afii10040" unicode="&#x426;" horiz-adv-x="1431" 
d="M1067 0h-917v1434h339v-1142h423v1142h339v-1142h128v-579h-312v287z" />
    <glyph glyph-name="afii10041" unicode="&#x427;" horiz-adv-x="1326" 
d="M1176 0h-340v623q-52 -63 -136 -98t-174 -35q-178 0 -297.5 117t-119.5 302v525h338v-472q0 -78 52 -130.5t126 -52.5q86 0 148.5 62t62.5 169v424h340v-1434z" />
    <glyph glyph-name="afii10042" unicode="&#x428;" horiz-adv-x="2022" 
d="M1532 293v1141h340v-1434h-1721v1434h338v-1141h353v1141h339v-1141h351z" />
    <glyph glyph-name="afii10043" unicode="&#x429;" horiz-adv-x="2051" 
d="M1687 0h-1537v1434h339v-1142h352v1142h340v-1142h351v1142h339v-1142h129v-579h-313v287z" />
    <glyph glyph-name="afii10044" unicode="&#x42a;" horiz-adv-x="1500" 
d="M711 923h221q227 0 369.5 -129.5t142.5 -332.5q0 -202 -142.5 -331.5t-369.5 -129.5h-560v1156h-321v278h660v-511zM1102 461q0 90 -55.5 137t-155.5 47h-180v-369h180q101 0 156 47t55 138z" />
    <glyph glyph-name="afii10045" unicode="&#x42b;" horiz-adv-x="1817" 
d="M150 1434h339v-511h222q226 0 368.5 -129.5t142.5 -332.5t-142.5 -332t-368.5 -129h-561v1434zM881 461q0 90 -55.5 137t-155.5 47h-181v-369h181q100 0 155.5 47.5t55.5 137.5zM1327 1434h340v-1434h-340v1434z" />
    <glyph glyph-name="afii10046" unicode="&#x42c;" horiz-adv-x="1278" 
d="M151 1434h338v-510h222q226 0 369 -129.5t143 -332.5t-143 -332.5t-369 -129.5h-560v1434zM881 462q0 86 -52 135t-145 49h-195v-370h195q93 0 145 49.5t52 136.5z" />
    <glyph glyph-name="afii10047" unicode="&#x42d;" horiz-adv-x="1551" 
d="M92 373l187 139q87 -124 194 -183.5t248 -59.5q145 0 252.5 88t143.5 230h-605v259h605q-33 141 -136 229t-240 88q-108 0 -193 -63.5t-115 -173.5h-357q55 251 231 391.5t431 140.5q156 0 293 -57.5t234 -156t153.5 -235.5t56.5 -292q0 -154 -57 -291.5t-154.5 -236.5
t-234.5 -156.5t-291 -57.5q-221 0 -379 102t-267 296z" />
    <glyph glyph-name="afii10048" unicode="&#x42e;" horiz-adv-x="2234" 
d="M489 574v-574h-338v1434h338v-568h149q34 170 139.5 304.5t266 211t347.5 76.5q159 0 301.5 -57.5t245 -156t162 -236t59.5 -291.5t-59.5 -291.5t-162 -236.5t-245 -156.5t-301.5 -57.5q-188 0 -349.5 77.5t-267 213.5t-139.5 308h-146zM963 717q0 -190 123.5 -318.5
t304.5 -128.5q180 0 303.5 128.5t123.5 318.5q0 189 -123.5 317.5t-303.5 128.5t-304 -128.5t-124 -317.5z" />
    <glyph glyph-name="afii10049" unicode="&#x42f;" horiz-adv-x="1276" 
d="M596 1434h530v-1434h-335v500h-85l-286 -500h-368l323 545q-134 50 -209.5 160.5t-75.5 261.5q0 209 140.5 338t365.5 129zM791 1163h-160q-96 0 -150.5 -56t-54.5 -149q0 -92 54.5 -147.5t150.5 -55.5h160v408z" />
    <glyph glyph-name="afii10065" unicode="&#x430;" horiz-adv-x="1350" 
d="M62 530q0 154 63 281t178 200.5t258 73.5q204 0 337 -141v117h324v-1061h-324v117q-134 -142 -337 -142q-143 0 -258 73.5t-178 200.5t-63 281zM389 530q0 -114 73 -190t180 -76q108 0 182 76.5t74 189.5t-74 190t-182 77q-107 0 -180 -77t-73 -190z" />
    <glyph glyph-name="afii10066" unicode="&#x431;" horiz-adv-x="1269" 
d="M449 887q108 92 261 92q213 0 356 -143.5t143 -353.5q0 -217 -160 -362t-402 -145q-118 0 -220.5 40t-180 116.5t-122 196.5t-44.5 270q0 236 43 394.5t144.5 265.5t257.5 161.5t394 75.5l48 -289q-145 -15 -237 -36.5t-152 -60t-88 -90t-41 -132.5zM409 552
q1 -142 66.5 -215t171.5 -73q103 0 170 60.5t67 152.5q0 91 -65 152t-162 61q-77 0 -141 -37.5t-107 -100.5z" />
    <glyph glyph-name="afii10067" unicode="&#x432;" horiz-adv-x="1076" 
d="M622 0h-493v1061h460q153 0 257 -84.5t104 -209.5q0 -67 -38 -122.5t-102 -81.5q83 -21 136 -91.5t53 -156.5q0 -133 -108.5 -224t-268.5 -91zM577 438h-153v-202h153q51 0 84 28.5t33 72.5t-33 72.5t-84 28.5zM424 651h131q45 0 74 24.5t29 62.5t-29 62t-74 24h-131
v-173z" />
    <glyph glyph-name="afii10068" unicode="&#x433;" horiz-adv-x="872" 
d="M829 772h-370v-772h-330v1061h700v-289z" />
    <glyph glyph-name="afii10069" unicode="&#x434;" horiz-adv-x="1173" 
d="M1130 240v-457h-297v217h-493v-217h-297v457h102q138 295 138 821h731v-821h116zM463 240h256v580h-149q0 -146 -28 -302t-79 -278z" />
    <glyph glyph-name="afii10070" unicode="&#x435;" horiz-adv-x="1266" 
d="M392 439q18 -101 93 -158.5t193 -57.5q198 0 343 129l139 -155q-200 -222 -486 -222q-135 0 -250 43t-194 117.5t-123.5 176.5t-44.5 218q0 154 76 281t209.5 200.5t296.5 73.5q119 0 224 -42t178.5 -114.5t116 -171.5t42.5 -209q0 -57 -15 -109h-798zM640 838
q-90 0 -154.5 -51t-88.5 -140h473q-20 89 -80 140t-150 51z" />
    <glyph glyph-name="afii10072" unicode="&#x436;" horiz-adv-x="1677" 
d="M76 1061h330q0 -340 201 -340h67v340h330v-340h65q203 0 203 340h330q0 -401 -201 -542l268 -519h-358l-213 438h-94v-438h-330v438h-94l-213 -438h-359l267 519q-199 141 -199 542z" />
    <glyph glyph-name="afii10073" unicode="&#x437;" horiz-adv-x="993" 
d="M611 322q0 46 -40.5 71t-103.5 25h-151v244h154q50 0 83 30t33 70q0 37 -28 60.5t-72 23.5q-41 0 -72 -26t-40 -72h-288q21 154 127 245.5t271 91.5q176 0 294 -85.5t118 -211.5q0 -79 -48 -147t-123 -96q91 -29 149 -93t58 -152q0 -140 -129 -232.5t-325 -92.5
q-133 0 -232 54t-180 158l153 143q114 -117 252 -117q56 0 98 32.5t42 76.5z" />
    <glyph glyph-name="afii10074" unicode="&#x438;" horiz-adv-x="1282" 
d="M1153 1061v-1061h-319v593l-416 -593h-289v1061h320v-593l415 593h289z" />
    <glyph glyph-name="afii10075" unicode="&#x439;" horiz-adv-x="1282" 
d="M641 1192q-150 0 -261 91t-116 230h263q1 -49 34 -81.5t80 -32.5t80 32.5t34 81.5h263q-5 -139 -116 -230t-261 -91zM1153 1061v-1061h-319v593l-416 -593h-289v1061h320v-593l415 593h289z" />
    <glyph glyph-name="afii10076" unicode="&#x43a;" horiz-adv-x="1132" 
d="M727 1061h330q0 -401 -201 -542l268 -519h-358l-213 438h-94v-438h-330v1061h330v-340h65q203 0 203 340z" />
    <glyph glyph-name="afii10077" unicode="&#x43b;" horiz-adv-x="1288" 
d="M1159 1061v-1061h-330v777h-278v-445q0 -150 -110.5 -245t-278.5 -95q-71 0 -119 8v283h53q56 0 90.5 32.5t34.5 87.5v658h938z" />
    <glyph glyph-name="afii10078" unicode="&#x43c;" horiz-adv-x="1418" 
d="M457 1061l252 -488l253 488h326v-1061h-306v627l-182 -337h-183l-181 337v-627h-307v1061h328z" />
    <glyph glyph-name="afii10079" unicode="&#x43d;" horiz-adv-x="1282" 
d="M1152 1061v-1061h-329v407h-365v-407h-329v1061h329v-371h365v371h329z" />
    <glyph glyph-name="afii10080" unicode="&#x43e;" horiz-adv-x="1311" 
d="M62 530q0 115 45.5 217.5t124 176.5t189 117.5t235.5 43.5t235.5 -43.5t189 -117.5t124 -176.5t45.5 -217.5t-45.5 -217.5t-124 -176.5t-189 -117.5t-235.5 -43.5t-235.5 43.5t-189 117.5t-124 176.5t-45.5 217.5zM389 530q0 -114 76 -190t191 -76t191.5 76t76.5 190
t-77 190.5t-191 76.5t-190.5 -76.5t-76.5 -190.5z" />
    <glyph glyph-name="afii10081" unicode="&#x43f;" horiz-adv-x="1282" 
d="M1152 1061v-1061h-329v777h-365v-777h-329v1061h1023z" />
    <glyph glyph-name="afii10082" unicode="&#x440;" horiz-adv-x="1350" 
d="M1288 530q0 -154 -63 -281t-177.5 -200.5t-257.5 -73.5q-205 0 -337 142v-592h-324v1536h324v-117q131 141 337 141q143 0 257.5 -73.5t177.5 -200.5t63 -281zM962 530q0 113 -73.5 190t-180.5 77t-181 -77t-74 -190t74 -189.5t181 -76.5t180.5 76.5t73.5 189.5z" />
    <glyph glyph-name="afii10083" unicode="&#x441;" horiz-adv-x="1210" 
d="M959 415l163 -129q-164 -311 -483 -311q-161 0 -294 73.5t-208 201t-75 280.5t73.5 280.5t202 201t284.5 73.5q206 0 345.5 -110t180.5 -296h-340q-48 118 -186 118q-97 0 -165 -77t-68 -190q0 -116 73 -191t197 -75q176 0 300 151z" />
    <glyph glyph-name="afii10084" unicode="&#x442;" horiz-adv-x="1007" 
d="M338 772h-295v289h921v-289h-296v-772h-330v772z" />
    <glyph glyph-name="afii10085" unicode="&#x443;" horiz-adv-x="1118" 
d="M550 -475h-345l192 475l-379 1061h343l196 -643l199 643h343z" />
    <glyph glyph-name="afii10086" unicode="&#x444;" horiz-adv-x="2119" 
d="M2056 530q0 -154 -63 -281t-177 -200.5t-257 -73.5q-206 0 -338 142v-592h-323v592q-136 -142 -338 -142q-216 0 -357.5 160t-141.5 395q0 154 63.5 280.5t178 200.5t257.5 74q202 0 338 -142v552h323v-552q132 142 338 142q143 0 257 -74t177 -200.5t63 -280.5z
M1730 530q0 112 -73 189.5t-180 77.5t-181.5 -77.5t-74.5 -189.5q0 -114 74 -190.5t182 -76.5q107 0 180 76.5t73 190.5zM388 530q0 -114 73.5 -190.5t180.5 -76.5t181.5 77t74.5 190q0 112 -74.5 189.5t-181.5 77.5t-180.5 -77.5t-73.5 -189.5z" />
    <glyph glyph-name="afii10087" unicode="&#x445;" horiz-adv-x="1118" 
d="M1099 0h-351l-190 336l-188 -336h-352l324 541l-297 520h351l162 -318l163 318h351l-298 -520z" />
    <glyph glyph-name="afii10088" unicode="&#x446;" horiz-adv-x="1324" 
d="M1152 1061v-778h128v-570h-305v287h-846v1061h329v-778h365v778h329z" />
    <glyph glyph-name="afii10089" unicode="&#x447;" horiz-adv-x="1154" 
d="M1024 0h-330v401q-96 -117 -249 -117q-173 0 -273 110t-100 306v361h328v-327q0 -72 33 -119t96 -47q165 0 165 245v248h330v-1061z" />
    <glyph glyph-name="afii10090" unicode="&#x448;" horiz-adv-x="1639" 
d="M1510 1061v-1061h-1381v1061h315v-778h219v778h313v-778h219v778h315z" />
    <glyph glyph-name="afii10091" unicode="&#x449;" horiz-adv-x="1680" 
d="M1332 0h-1203v1061h315v-778h219v778h313v-778h218v778h315v-778h128v-570h-305v287z" />
    <glyph glyph-name="afii10092" unicode="&#x44a;" horiz-adv-x="1262" 
d="M890 370q0 58 -40 95.5t-100 37.5h-138v-267h138q60 0 100 38t40 96zM1204 370q0 -156 -116 -263t-287 -107h-503v797h-255v264h569v-322h189q171 0 287 -106.5t116 -262.5z" />
    <glyph glyph-name="afii10093" unicode="&#x44b;" horiz-adv-x="1584" 
d="M721 370q0 58 -40 95.5t-100 37.5h-137v-267h137q60 0 100 38t40 96zM1036 370q0 -156 -117 -263t-288 -107h-502v1061h315v-322h187q171 0 288 -106.5t117 -262.5zM1126 0v1061h329v-1061h-329z" />
    <glyph glyph-name="afii10094" unicode="&#x44c;" horiz-adv-x="1093" 
d="M721 370q0 58 -40 95.5t-100 37.5h-137v-267h137q60 0 100 38t40 96zM1036 370q0 -156 -117 -263t-288 -107h-502v1061h315v-322h187q171 0 288 -106.5t117 -262.5z" />
    <glyph glyph-name="afii10095" unicode="&#x44d;" horiz-adv-x="1209" 
d="M88 282l157 122q127 -150 304 -150q96 0 165 46.5t97 125.5h-399v205h400q-27 78 -88 127t-137 49q-143 0 -193 -117h-332q43 182 182 288.5t343 106.5q156 0 285 -73.5t202 -201t73 -280.5q0 -154 -75.5 -281t-208 -200.5t-294.5 -73.5q-317 0 -481 307z" />
    <glyph glyph-name="afii10096" unicode="&#x44e;" horiz-adv-x="1799" 
d="M1143 1085q125 0 235.5 -43.5t189 -117.5t124 -176.5t45.5 -217.5t-45.5 -217.5t-124 -176.5t-189 -117.5t-235.5 -43.5q-212 0 -369 115t-205 297h-116v-387h-324v1061h324v-385h117q49 180 206 294.5t367 114.5zM1143 263q115 0 191.5 76.5t76.5 190.5q0 113 -77 190
t-191 77t-190.5 -77t-76.5 -190q0 -114 76 -190.5t191 -76.5z" />
    <glyph glyph-name="afii10097" unicode="&#x44f;" horiz-adv-x="1150" 
d="M88 713q0 148 114 248t281 100h538v-1061h-304v351h-58l-266 -351h-342l292 385q-116 36 -185.5 124.5t-69.5 203.5zM717 823h-186q-54 0 -92 -32t-38 -78q0 -50 37 -81.5t93 -31.5h186v223z" />
    <glyph glyph-name="uni0450" unicode="&#x450;" horiz-adv-x="1266" 
d="M392 439q18 -101 93 -158.5t193 -57.5q198 0 343 129l139 -155q-200 -222 -486 -222q-135 0 -250 43t-194 117.5t-123.5 176.5t-44.5 218q0 154 76 281t209.5 200.5t296.5 73.5q119 0 224 -42t178.5 -114.5t116 -171.5t42.5 -209q0 -57 -15 -109h-798zM640 838
q-90 0 -154.5 -51t-88.5 -140h473q-20 89 -80 140t-150 51zM325 1485l207 162l240 -364l-145 -112z" />
    <glyph glyph-name="afii10071" unicode="&#x451;" horiz-adv-x="1266" 
d="M392 439q18 -101 93 -158.5t193 -57.5q198 0 343 129l139 -155q-200 -222 -486 -222q-135 0 -250 43t-194 117.5t-123.5 176.5t-44.5 218q0 154 76 281t209.5 200.5t296.5 73.5q119 0 224 -42t178.5 -114.5t116 -171.5t42.5 -209q0 -57 -15 -109h-798zM640 838
q-90 0 -154.5 -51t-88.5 -140h473q-20 89 -80 140t-150 51zM262 1372q0 69 47.5 116.5t117.5 47.5t118 -47.5t48 -116.5t-48 -116.5t-118 -47.5t-117.5 47.5t-47.5 116.5zM675 1372q0 69 48 116.5t118 47.5t117.5 -47.5t47.5 -116.5t-47.5 -116.5t-117.5 -47.5t-118 47.5
t-48 116.5z" />
    <glyph glyph-name="afii10099" unicode="&#x452;" horiz-adv-x="1287" 
d="M481 1495v-137h281v-187h-281v-222q114 136 294 136q176 0 289 -116t113 -303v-769q0 -180 -112.5 -276t-320.5 -96q-70 0 -130 12v248q42 -6 98 -6q72 0 104 34.5t32 105.5v694q0 72 -50.5 128t-120.5 56q-85 0 -140.5 -61.5t-55.5 -170.5v-565h-328v1171h-133v187h133
v137h328z" />
    <glyph glyph-name="afii10100" unicode="&#x453;" horiz-adv-x="872" 
d="M263 1283l240 364l207 -162l-302 -315zM829 772h-370v-772h-330v1061h700v-289z" />
    <glyph glyph-name="afii10101" unicode="&#x454;" horiz-adv-x="1209" 
d="M965 404l156 -122q-164 -307 -481 -307q-162 0 -294.5 73.5t-208 200.5t-75.5 281q0 153 73.5 280.5t202.5 201t285 73.5q204 0 342.5 -106.5t181.5 -288.5h-332q-50 117 -192 117q-76 0 -138 -49t-88 -127h401v-205h-400q29 -79 97 -125.5t165 -46.5q178 0 305 150z" />
    <glyph glyph-name="afii10102" unicode="&#x455;" horiz-adv-x="975" 
d="M77 200l120 143q127 -118 275 -118q61 0 95 23t34 62q0 40 -37 66t-126 45q-167 35 -255 124t-88 222q0 139 110 228.5t283 89.5q183 0 290.5 -94t130.5 -252h-284q-9 45 -40 71t-78 26q-44 0 -72.5 -20t-28.5 -53q0 -76 155 -109q358 -75 358 -346q0 -145 -117.5 -239
t-309.5 -94q-237 0 -415 225z" />
    <glyph glyph-name="afii10103" unicode="&#x456;" horiz-adv-x="589" 
d="M130 0v1061h329v-1061h-329zM106 1338q0 76 54.5 128t134.5 52q79 0 133.5 -52t54.5 -128t-54 -127.5t-134 -51.5t-134.5 51.5t-54.5 127.5z" />
    <glyph glyph-name="afii10104" unicode="&#x457;" horiz-adv-x="589" 
d="M-77 1372q0 69 47.5 116.5t117.5 47.5t118 -47.5t48 -116.5t-48 -116.5t-118 -47.5t-117.5 47.5t-47.5 116.5zM336 1372q0 69 48 116.5t118 47.5t117.5 -47.5t47.5 -116.5t-47.5 -116.5t-117.5 -47.5t-118 47.5t-48 116.5zM130 0v1061h329v-1061h-329z" />
    <glyph glyph-name="afii10105" unicode="&#x458;" horiz-adv-x="589" 
d="M130 -74v1135h329v-1167q0 -179 -99 -274t-280 -95q-65 0 -117 14v271h56q57 0 84 27t27 89zM106 1338q0 76 54.5 128t134.5 52q79 0 133.5 -52t54.5 -128t-54 -127.5t-134 -51.5t-134.5 51.5t-54.5 127.5z" />
    <glyph glyph-name="afii10106" unicode="&#x459;" horiz-adv-x="1772" 
d="M1310 0h-503v782h-257v-451q0 -149 -110.5 -244t-278.5 -95q-71 0 -118 8v283h53q56 0 90.5 32t34.5 87v659h901v-323h188q171 0 287.5 -107t116.5 -262t-116.5 -262t-287.5 -107zM1399 369q0 58 -39.5 95.5t-99.5 37.5h-138v-266h138q60 0 99.5 37.5t39.5 95.5z" />
    <glyph glyph-name="afii10107" unicode="&#x45a;" horiz-adv-x="1766" 
d="M1709 370q0 -156 -116.5 -263t-287.5 -107h-503v407h-343v-407h-330v1061h330v-371h343v371h315v-322h188q171 0 287.5 -107t116.5 -262zM1394 370q0 57 -40.5 95t-100.5 38h-136v-267h136q60 0 100.5 38t40.5 96z" />
    <glyph glyph-name="afii10108" unicode="&#x45b;" horiz-adv-x="1287" 
d="M481 1495v-137h281v-187h-281v-222q114 136 294 136q176 0 289 -116t113 -303v-666h-329v613q0 72 -50.5 128t-120.5 56q-87 0 -141.5 -70t-54.5 -199v-528h-328v1171h-133v187h133v137h328z" />
    <glyph glyph-name="afii10109" unicode="&#x45c;" horiz-adv-x="1132" 
d="M381 1283l240 364l206 -162l-302 -315zM727 1061h330q0 -401 -201 -542l268 -519h-358l-213 438h-94v-438h-330v1061h330v-340h65q203 0 203 340z" />
    <glyph glyph-name="uni045D" unicode="&#x45d;" horiz-adv-x="1282" 
d="M332 1485l207 162l240 -364l-145 -113zM1153 1061v-1061h-319v593l-416 -593h-289v1061h320v-593l415 593h289z" />
    <glyph glyph-name="afii10110" unicode="&#x45e;" horiz-adv-x="1118" 
d="M550 -475h-345l192 475l-379 1061h343l196 -643l199 643h343zM558 1192q-150 0 -261 91.5t-116 230.5h264q1 -49 33.5 -82t79.5 -33t80 33t34 82h263q-5 -139 -116 -230.5t-261 -91.5z" />
    <glyph glyph-name="afii10193" unicode="&#x45f;" horiz-adv-x="1283" 
d="M806 0v-287h-330v287h-347v1061h329v-778h366v778h329v-1061h-347z" />
    <glyph glyph-name="afii10050" unicode="&#x490;" horiz-adv-x="1076" 
d="M732 1434v286h314v-579h-557v-1141h-339v1434h582z" />
    <glyph glyph-name="afii10098" unicode="&#x491;" horiz-adv-x="875" 
d="M527 1061v287h306v-576h-375v-772h-329v1061h398z" />
    <glyph glyph-name="Wgrave" unicode="&#x1e80;" horiz-adv-x="2030" 
d="M846 1434h338l242 -978l226 978h351l-387 -1434h-345l-256 974l-255 -974h-345l-387 1434h351l225 -978zM695 1816l207 162l240 -364l-145 -112z" />
    <glyph glyph-name="wgrave" unicode="&#x1e81;" horiz-adv-x="1650" 
d="M664 1061h323l155 -664l156 664h334l-311 -1061h-339l-157 620l-156 -620h-339l-312 1061h334l157 -664zM497 1485l206 162l241 -364l-145 -113z" />
    <glyph glyph-name="Wacute" unicode="&#x1e82;" horiz-adv-x="2030" 
d="M846 1434h338l242 -978l226 978h351l-387 -1434h-345l-256 974l-255 -974h-345l-387 1434h351l225 -978zM875 1614l239 364l207 -162l-302 -314z" />
    <glyph glyph-name="wacute" unicode="&#x1e83;" horiz-adv-x="1650" 
d="M664 1061h323l155 -664l156 664h334l-311 -1061h-339l-157 620l-156 -620h-339l-312 1061h334l157 -664zM685 1283l240 364l207 -162l-303 -315z" />
    <glyph glyph-name="Wdieresis" unicode="&#x1e84;" horiz-adv-x="2030" 
d="M846 1434h338l242 -978l226 978h351l-387 -1434h-345l-256 974l-255 -974h-345l-387 1434h351l225 -978zM643 1704q0 69 47 116.5t117 47.5t118 -47.5t48 -116.5t-48 -116.5t-118 -47.5t-117 47.5t-47 116.5zM1055 1704q0 69 48 116.5t118 47.5t117.5 -47.5t47.5 -116.5
t-47.5 -116.5t-117.5 -47.5t-118 47.5t-48 116.5z" />
    <glyph glyph-name="wdieresis" unicode="&#x1e85;" horiz-adv-x="1650" 
d="M664 1061h323l155 -664l156 664h334l-311 -1061h-339l-157 620l-156 -620h-339l-312 1061h334l157 -664zM454 1372q0 69 47 116.5t117 47.5t118 -47.5t48 -116.5t-48 -116.5t-118 -47.5t-117 47.5t-47 116.5zM866 1372q0 69 48 116.5t118 47.5t117.5 -47.5t47.5 -116.5
t-47.5 -116.5t-117.5 -47.5t-118 47.5t-48 116.5z" />
    <glyph glyph-name="Ygrave" unicode="&#x1ef2;" horiz-adv-x="1346" 
d="M395 1434l278 -549l278 549h368l-476 -867v-567h-339v567l-476 867h367zM351 1816l207 162l240 -364l-145 -112z" />
    <glyph glyph-name="ygrave" unicode="&#x1ef3;" horiz-adv-x="1118" 
d="M550 -475h-345l192 475l-379 1061h343l196 -643l199 643h343zM228 1485l207 162l241 -364l-146 -113z" />
    <glyph glyph-name="thinspace" unicode="&#x2009;" horiz-adv-x="409" 
 />
    <glyph glyph-name="uni2010" unicode="&#x2010;" horiz-adv-x="864" 
d="M745 530h-626v299h626v-299z" />
    <glyph glyph-name="figuredash" unicode="&#x2012;" horiz-adv-x="1228" 
d="M1126 530h-1024v299h1024v-299z" />
    <glyph glyph-name="endash" unicode="&#x2013;" horiz-adv-x="1024" 
d="M1024 530h-1024v299h1024v-299z" />
    <glyph glyph-name="emdash" unicode="&#x2014;" horiz-adv-x="2048" 
d="M2048 530h-2048v299h2048v-299z" />
    <glyph glyph-name="afii00208" unicode="&#x2015;" horiz-adv-x="2048" 
d="M1843 530h-1638v299h1638v-299z" />
    <glyph glyph-name="uni2016" unicode="&#x2016;" horiz-adv-x="1033" 
d="M156 -287v1823h300v-1823h-300zM578 -287v1823h300v-1823h-300z" />
    <glyph glyph-name="underscoredbl" unicode="&#x2017;" horiz-adv-x="1228" 
d="M102 -501v229h1024v-229h-1024zM102 -197v229h1024v-229h-1024z" />
    <glyph glyph-name="quoteleft" unicode="&#x2018;" horiz-adv-x="620" 
d="M505 1160q0 -66 -54.5 -119.5t-144.5 -53.5q-83 0 -137 56t-54 146q0 151 94 280t281 194l72 -102q-78 -47 -118 -84t-47 -72t9 -65.5t56 -73.5q43 -46 43 -106z" />
    <glyph glyph-name="quoteright" unicode="&#x2019;" horiz-adv-x="620" 
d="M116 1422q0 66 54.5 119.5t143.5 53.5q83 0 137.5 -55.5t54.5 -145.5q0 -151 -94.5 -280t-281.5 -194l-72 102q78 47 118 84t47 72t-8.5 65.5t-55.5 73.5q-43 46 -43 105z" />
    <glyph glyph-name="quotesinglbase" unicode="&#x201a;" horiz-adv-x="620" 
d="M116 179q0 66 54.5 119.5t143.5 53.5q83 0 137.5 -55.5t54.5 -145.5q0 -151 -94.5 -280.5t-281.5 -194.5l-72 103q78 47 118 84t47 72t-8.5 65.5t-55.5 73.5q-43 46 -43 105z" />
    <glyph glyph-name="quotereversed" unicode="&#x201b;" horiz-adv-x="620" 
d="M506 1422q0 -61 -43 -105q-40 -42 -56 -73t-9 -66t47 -72t118 -84l-71 -103q-187 65 -281.5 194t-94.5 280q0 90 54 145.5t137 55.5q90 0 144.5 -53.5t54.5 -118.5z" />
    <glyph glyph-name="quotedblleft" unicode="&#x201c;" horiz-adv-x="1056" 
d="M468 1160q0 -66 -54.5 -119.5t-144.5 -53.5q-83 0 -137 56t-54 146q0 151 94.5 280t281.5 194l71 -102q-78 -47 -118 -84t-47 -72t9 -65.5t56 -73.5q43 -46 43 -106zM918 1160q0 -66 -54.5 -119.5t-144.5 -53.5q-83 0 -137.5 56t-54.5 146q0 151 94.5 280t281.5 194
l72 -102q-78 -47 -118 -84t-47 -72t8.5 -65.5t55.5 -73.5q44 -47 44 -106z" />
    <glyph glyph-name="quotedblright" unicode="&#x201d;" horiz-adv-x="1056" 
d="M140 1422q0 66 54.5 119.5t144.5 53.5q83 0 137 -55.5t54 -145.5q0 -151 -94 -280t-281 -194l-72 102q78 47 118 84t47 72t-9 65.5t-56 73.5q-43 46 -43 105zM589 1422q0 66 54.5 119.5t143.5 53.5q83 0 137.5 -55.5t54.5 -145.5q0 -151 -94.5 -280t-281.5 -194l-72 102
q78 47 118 84t47 72t-8.5 65.5t-55.5 73.5q-43 46 -43 105z" />
    <glyph glyph-name="quotedblbase" unicode="&#x201e;" horiz-adv-x="1056" 
d="M556 179q0 66 54.5 119.5t144.5 53.5q83 0 137 -55.5t54 -145.5q0 -151 -94.5 -280.5t-281.5 -194.5l-71 103q78 47 118 84t47 72t-9 65.5t-56 73.5q-43 46 -43 105zM116 179q0 66 54.5 119.5t143.5 53.5q83 0 137.5 -55.5t54.5 -145.5q0 -151 -94.5 -280.5
t-281.5 -194.5l-72 103q78 47 118 84t47 72t-8.5 65.5t-55.5 73.5q-43 46 -43 105z" />
    <glyph glyph-name="uni201F" unicode="&#x201f;" horiz-adv-x="1056" 
d="M942 1422q0 -61 -43 -105q-40 -42 -56 -73t-9 -66t47 -72t118 -84l-71 -103q-187 65 -281.5 194t-94.5 280q0 90 54 145.5t137 55.5q90 0 144.5 -53.5t54.5 -118.5zM485 1422q0 -61 -43 -105q-40 -42 -56 -73t-8.5 -66t47.5 -72t118 -84l-72 -103q-187 65 -281.5 194
t-94.5 280q0 90 54.5 145.5t137.5 55.5q90 0 144 -53t54 -119z" />
    <glyph glyph-name="dagger" unicode="&#x2020;" horiz-adv-x="1158" 
d="M412 -268v1188h-300v283h300v329h333v-329h301v-283h-301v-1188h-333z" />
    <glyph glyph-name="daggerdbl" unicode="&#x2021;" horiz-adv-x="1158" 
d="M112 59v283h300v578h-300v283h300v329h333v-329h301v-283h-301v-578h301v-283h-301v-327h-333v327h-300z" />
    <glyph glyph-name="bullet" unicode="&#x2022;" horiz-adv-x="819" 
d="M109 680q0 124 88 211.5t213 87.5t213 -87.5t88 -211.5q0 -125 -88 -212t-213 -87t-213 87t-88 212z" />
    <glyph glyph-name="onedotenleader" unicode="&#x2024;" horiz-adv-x="620" 
d="M115 164q0 80 55.5 134t139.5 54t140 -54t56 -134t-56 -134.5t-140 -54.5t-139.5 54.5t-55.5 134.5z" />
    <glyph glyph-name="twodotenleader" unicode="&#x2025;" horiz-adv-x="1241" 
d="M735 164q0 80 56 134t140 54t139.5 -54t55.5 -134t-55.5 -134.5t-139.5 -54.5t-140 54.5t-56 134.5zM115 164q0 80 55.5 134t139.5 54t140 -54t56 -134t-56 -134.5t-140 -54.5t-139.5 54.5t-55.5 134.5z" />
    <glyph glyph-name="ellipsis" unicode="&#x2026;" horiz-adv-x="1861" 
d="M1370 164q0 80 56 134t140 54t139.5 -54t55.5 -134t-55.5 -134.5t-139.5 -54.5t-140 54.5t-56 134.5zM735 164q0 80 56 134t140 54t139.5 -54t55.5 -134t-55.5 -134.5t-139.5 -54.5t-140 54.5t-56 134.5zM104 164q0 80 56 134t140 54t140 -54t56 -134t-56 -134.5
t-140 -54.5t-140 54.5t-56 134.5z" />
    <glyph glyph-name="perthousand" unicode="&#x2030;" horiz-adv-x="2658" 
d="M349 1078q0 -54 32.5 -90t83.5 -36t83.5 36t32.5 90t-32.5 90t-83.5 36t-83.5 -36t-32.5 -90zM85 1078q0 156 110 263t270 107t270 -107t110 -263t-109.5 -262.5t-270.5 -106.5t-270.5 106.5t-109.5 262.5zM1256 355q0 -54 33 -90t84 -36t83.5 36t32.5 90t-32.5 90
t-83.5 36t-84 -36t-33 -90zM992 355q0 156 110 263t271 107q160 0 270 -107t110 -263t-109.5 -262.5t-270.5 -106.5t-271 106.5t-110 262.5zM2078 355q0 -54 32.5 -90t82.5 -36q51 0 83.5 36t32.5 90t-32.5 90t-83.5 36q-50 0 -82.5 -36t-32.5 -90zM1814 355
q0 156 109.5 263t269.5 107t270 -107t110 -263t-109.5 -262.5t-270.5 -106.5q-160 0 -269.5 106.5t-109.5 262.5zM456 45l738 1434l186 -96l-737 -1433z" />
    <glyph glyph-name="minute" unicode="&#x2032;" horiz-adv-x="641" 
d="M133 1192l241 363l207 -161l-303 -315z" />
    <glyph glyph-name="second" unicode="&#x2033;" horiz-adv-x="1078" 
d="M570 1192l241 363l207 -161l-303 -315zM133 1192l241 363l207 -161l-303 -315z" />
    <glyph glyph-name="guilsinglleft" unicode="&#x2039;" horiz-adv-x="790" 
d="M86 546v185l528 344l100 -155l-341 -282l341 -280l-100 -156z" />
    <glyph glyph-name="guilsinglright" unicode="&#x203a;" horiz-adv-x="790" 
d="M703 731v-185l-528 -344l-99 156l341 280l-341 282l99 155z" />
    <glyph glyph-name="exclamdbl" unicode="&#x203c;" horiz-adv-x="1158" 
d="M711 444l-44 990h339l-44 -990h-251zM634 163q0 79 58 133t145 54q86 0 143.5 -54t57.5 -133t-57.5 -133.5t-143.5 -54.5q-87 0 -145 54.5t-58 133.5zM197 444l-44 990h339l-45 -990h-250zM120 163q0 79 58 133t145 54q86 0 143.5 -54t57.5 -133t-57.5 -133.5
t-143.5 -54.5q-87 0 -145 54.5t-58 133.5z" />
    <glyph glyph-name="uni203E" unicode="&#x203e;" horiz-adv-x="880" 
d="M113 1198v242h655v-242h-655z" />
    <glyph glyph-name="fraction" unicode="&#x2044;" horiz-adv-x="338" 
d="M-281 51l700 1434l197 -106l-698 -1433z" />
    <glyph glyph-name="zerosuperior" unicode="&#x2070;" 
d="M51 948q0 227 95.5 368.5t268.5 141.5t268.5 -141.5t95.5 -368.5t-95.5 -368.5t-268.5 -141.5t-268.5 141.5t-95.5 368.5zM306 948q0 -133 27.5 -208t81.5 -75t81 74.5t27 208.5t-27 209t-81 75t-81.5 -75.5t-27.5 -208.5z" />
    <glyph glyph-name="uni2071" unicode="&#x2071;" 
d="M291 463v686h247v-686h-247zM273 1322q0 56 41 94t101 38t100.5 -38t40.5 -94q0 -55 -40.5 -92.5t-100.5 -37.5t-101 37.5t-41 92.5z" />
    <glyph glyph-name="foursuperior" unicode="&#x2074;" 
d="M32 627v193l410 614h236v-596h101v-211h-101v-164h-247v164h-399zM263 837h168v253z" />
    <glyph glyph-name="fivesuperior" unicode="&#x2075;" 
d="M400 438q-221 0 -357 197l127 125q49 -53 95.5 -78.5t108.5 -25.5q50 0 88 37t38 86q0 53 -34.5 88t-86.5 35q-26 0 -51 -13.5t-39 -34.5l-192 25q10 93 65 555h565v-217h-328l-16 -125q11 1 36 1q142 0 242.5 -88t100.5 -230q0 -147 -100 -242t-262 -95z" />
    <glyph glyph-name="sixsuperior" unicode="&#x2076;" 
d="M684 1434l-215 -332q130 -11 222.5 -100t92.5 -226q0 -145 -108 -241.5t-260 -96.5q-155 0 -264 96t-109 242q0 99 50 175l315 483h276zM532 778q0 54 -34 89.5t-84 35.5t-84.5 -35.5t-34.5 -89.5t34.5 -90t84.5 -36t84 36t34 90z" />
    <glyph glyph-name="sevensuperior" unicode="&#x2077;" 
d="M88 1434h658v-190l-321 -781h-280l316 750h-373v221z" />
    <glyph glyph-name="eightsuperior" unicode="&#x2078;" 
d="M301 764q0 -51 33 -85t81 -34t81 34t33 85t-33 85t-81 34t-81 -34t-33 -85zM737 1175q0 -55 -26 -104.5t-70 -80.5q64 -34 101 -98.5t37 -135.5q0 -135 -104.5 -226.5t-259.5 -91.5t-260 91.5t-105 226.5q0 71 37 135t102 99q-44 31 -70 80.5t-26 104.5q0 119 92 201
t230 82q139 0 230.5 -82t91.5 -201zM333 1169q0 -36 23.5 -61.5t58.5 -25.5t59 25.5t24 61.5t-23.5 60t-59.5 24t-59 -24t-23 -60z" />
    <glyph glyph-name="ninesuperior" unicode="&#x2079;" 
d="M145 463l215 331q-130 11 -223 99.5t-93 225.5q0 145 109 242t261 97q155 0 263.5 -96.5t108.5 -242.5q0 -99 -50 -175l-315 -481h-276zM297 1117q0 -54 34 -89.5t85 -35.5q50 0 84 35.5t34 89.5t-34 90t-84 36q-51 0 -85 -36t-34 -90z" />
    <glyph glyph-name="uni207A" unicode="&#x207a;" 
d="M541 836v-218h-252v218h-215v223h215v217h252v-217h215v-223h-215z" />
    <glyph glyph-name="uni207B" unicode="&#x207b;" 
d="M757 837h-683v223h683v-223z" />
    <glyph glyph-name="uni207C" unicode="&#x207c;" 
d="M757 673h-683v218h683v-218zM757 1005h-683v219h683v-219z" />
    <glyph glyph-name="uni207D" unicode="&#x207d;" 
d="M274 947q0 170 65 330t181 283l179 -119q-171 -215 -171 -494q0 -277 171 -492l-179 -119q-116 123 -181 282.5t-65 328.5z" />
    <glyph glyph-name="uni207E" unicode="&#x207e;" 
d="M556 947q0 -169 -65 -328.5t-181 -282.5l-179 119q170 214 170 492q0 280 -170 494l179 119q116 -123 181 -283t65 -330z" />
    <glyph glyph-name="uni207F" unicode="&#x207f;" 
d="M334 834v-371h-245v686h245v-68q23 37 67.5 59.5t95.5 22.5q105 0 176.5 -77.5t71.5 -197.5v-425h-244v398q0 39 -23 64.5t-59 25.5q-34 0 -59.5 -30t-25.5 -87z" />
    <glyph glyph-name="zeroinferior" unicode="&#x2080;" 
d="M51 217q0 227 95.5 368.5t268.5 141.5t268.5 -141.5t95.5 -368.5t-95.5 -368.5t-268.5 -141.5t-268.5 141.5t-95.5 368.5zM306 217q0 -133 27.5 -208.5t81.5 -75.5t81 75t27 209t-27 209t-81 75t-81.5 -75.5t-27.5 -208.5z" />
    <glyph glyph-name="oneinferior" unicode="&#x2081;" 
d="M379 702h223v-970h-263v722l-141 -78l-95 178z" />
    <glyph glyph-name="twoinferior" unicode="&#x2082;" 
d="M613 158l-191 -207h310v-219h-640v196l322 351q38 41 54.5 73.5t16.5 67.5q0 40 -24 65t-63 25q-40 0 -68.5 -32t-29.5 -83h-234q5 145 96.5 238.5t243.5 93.5q145 0 240.5 -80t95.5 -206q0 -142 -129 -283z" />
    <glyph glyph-name="threeinferior" unicode="&#x2083;" 
d="M489 47q0 51 -33 86t-84 35q-30 0 -54 -12l-100 124l185 206h-302v216h606v-202l-172 -183q103 -32 161 -111.5t58 -185.5q0 -138 -101 -225.5t-260 -87.5q-97 0 -182 51t-148 146l117 118q92 -97 192 -97q51 0 84 35t33 87z" />
    <glyph glyph-name="fourinferior" unicode="&#x2084;" 
d="M32 -104v193l410 613h236v-596h101v-210h-101v-164h-247v164h-399zM263 105h168v253z" />
    <glyph glyph-name="fiveinferior" unicode="&#x2085;" 
d="M400 -293q-221 0 -357 197l127 125q49 -53 95.5 -78.5t108.5 -25.5q50 0 88 37t38 86q0 53 -34.5 88t-86.5 35q-26 0 -51 -13.5t-39 -34.5l-192 24q10 93 65 555h565v-217h-328l-16 -125q11 1 36 1q142 0 242.5 -87.5t100.5 -229.5q0 -147 -100 -242t-262 -95z" />
    <glyph glyph-name="sixinferior" unicode="&#x2086;" 
d="M684 702l-215 -331q130 -11 222.5 -100t92.5 -226q0 -145 -108 -241.5t-260 -96.5q-155 0 -264 96t-109 242q0 99 50 175l315 482h276zM532 47q0 54 -34 89.5t-84 35.5t-84.5 -35.5t-34.5 -89.5t34.5 -90t84.5 -36t84 36t34 90z" />
    <glyph glyph-name="seveninferior" unicode="&#x2087;" 
d="M88 702h658v-189l-321 -781h-280l316 750h-373v220z" />
    <glyph glyph-name="eightinferior" unicode="&#x2088;" 
d="M301 33q0 -51 33 -85t81 -34t81 34t33 85t-33 85t-81 34t-81 -34t-33 -85zM737 443q0 -55 -26 -104t-70 -80q64 -34 101 -98.5t37 -135.5q0 -135 -104.5 -226.5t-259.5 -91.5t-260 91.5t-105 226.5q0 71 37 135t102 99q-45 31 -70.5 80t-25.5 104q0 119 92 201.5
t230 82.5q139 0 230.5 -82.5t91.5 -201.5zM333 438q0 -36 23.5 -61.5t58.5 -25.5t59 25.5t24 61.5t-23.5 60t-59.5 24t-59 -24t-23 -60z" />
    <glyph glyph-name="nineinferior" unicode="&#x2089;" 
d="M145 -268l215 330q-130 11 -223 100t-93 226q0 145 109 242t261 97q155 0 263.5 -96.5t108.5 -242.5q0 -99 -50 -175l-315 -481h-276zM297 386q0 -54 34 -89.5t85 -35.5q50 0 84 35.5t34 89.5t-34 90t-84 36q-51 0 -85 -36t-34 -90z" />
    <glyph glyph-name="uni208A" unicode="&#x208a;" 
d="M541 104v-217h-252v217h-215v224h215v217h252v-217h215v-224h-215z" />
    <glyph glyph-name="uni208B" unicode="&#x208b;" 
d="M757 105h-683v224h683v-224z" />
    <glyph glyph-name="uni208C" unicode="&#x208c;" 
d="M757 -58h-683v218h683v-218zM757 273h-683v220h683v-220z" />
    <glyph glyph-name="uni208D" unicode="&#x208d;" 
d="M274 216q0 169 65 329t181 283l179 -118q-171 -215 -171 -494q0 -277 171 -492l-179 -119q-116 123 -181 282.5t-65 328.5z" />
    <glyph glyph-name="uni208E" unicode="&#x208e;" 
d="M556 216q0 -169 -65 -328.5t-181 -282.5l-179 119q170 214 170 492q0 280 -170 494l179 118q116 -123 181 -283t65 -329z" />
    <glyph glyph-name="uni2090" unicode="&#x2090;" 
d="M523 66q0 61 -37 103.5t-90 42.5t-90 -42.5t-37 -103.5q0 -62 37 -104.5t90 -42.5t90 42.5t37 104.5zM30 66q0 151 88.5 254.5t213.5 103.5q116 0 191 -81v67h240v-689h-240v67q-75 -81 -191 -81q-125 0 -213.5 104t-88.5 255z" />
    <glyph glyph-name="uni2091" unicode="&#x2091;" 
d="M295 -4q13 -49 51.5 -78t91.5 -29q121 0 217 75l102 -106q-137 -151 -323 -151q-167 0 -274.5 103.5t-107.5 255.5t106.5 255t263.5 103q153 0 254.5 -100.5t101.5 -247.5q0 -38 -10 -80h-473zM419 241q-43 0 -74.5 -23.5t-45.5 -65.5h233q-24 89 -113 89z" />
    <glyph glyph-name="uni2092" unicode="&#x2092;" 
d="M40 66q0 152 107 255t268 103t268.5 -103t107.5 -255t-107.5 -255.5t-268.5 -103.5t-268 103.5t-107 255.5zM280 66q0 -62 38.5 -105t96.5 -43t96.5 43t38.5 105t-38.5 104.5t-96.5 42.5t-96.5 -42.5t-38.5 -104.5z" />
    <glyph glyph-name="uni2093" unicode="&#x2093;" 
d="M70 410h265l78 -166l79 166h265l-194 -336l210 -353h-264l-95 187l-95 -187h-266l210 353z" />
    <glyph glyph-name="uni2094" unicode="&#x2094;" 
d="M62 135h473q-13 49 -51.5 78t-91.5 29q-121 0 -217 -75l-101 106q137 151 322 151q167 0 274.5 -103t107.5 -255t-106 -255.5t-263 -103.5q-153 0 -255 100.5t-102 247.5q0 38 10 80zM412 -110q43 0 74 24t45 66h-233q11 -42 41 -66t73 -24z" />
    <glyph glyph-name="uni20A0" unicode="&#x20a0;" horiz-adv-x="1627" 
d="M603 432q-151 0 -275.5 67.5t-195.5 185t-71 259.5t71 260t195.5 186t275.5 68q109 0 199 -31.5t151 -85t101 -118t60 -137.5h-290q-76 114 -216 114q-102 0 -171.5 -73.5t-69.5 -182.5q0 -108 69.5 -182t171.5 -74q117 0 213 78v227h670v-237h-381v-143h348v-228h-348
v-148h393v-237h-682v500q-94 -68 -218 -68z" />
    <glyph glyph-name="colonmonetary" unicode="&#x20a1;" horiz-adv-x="1551" 
d="M1272 512l186 -139q-208 -371 -587 -396l-31 -186h-187l35 195q-32 5 -97 21l-38 -216h-186l52 294q-159 98 -251 264.5t-92 367.5q0 277 161.5 477.5t420.5 249.5l36 198h187l-34 -185q43 -3 99 -11l35 196h186l-45 -251q135 -65 226 -183.5t127 -281.5h-358
q-20 67 -56 115l-136 -765q203 33 347 236zM645 312q49 -24 94 -33l155 873q-44 11 -86 11q-2 0 -6 -0.5t-6 -0.5zM417 717q0 -144 68 -255l113 637q-85 -58 -133 -158.5t-48 -223.5z" />
    <glyph glyph-name="uni20A2" unicode="&#x20a2;" horiz-adv-x="1432" 
d="M1272 512l186 -139q-224 -398 -646 -398q-154 0 -291 57.5t-234.5 156.5t-154 236.5t-56.5 291.5q0 155 56 292t153 235.5t234 156t293 57.5q255 0 431.5 -140.5t231.5 -391.5h-358q-32 113 -114.5 175t-194.5 62q-168 0 -279.5 -127.5t-111.5 -318.5q0 -144 69.5 -256
t185.5 -159v554h274v-79q68 93 163 93q51 0 97 -23l-23 -221q-51 23 -89 23q-53 0 -100.5 -43t-47.5 -122v-202q193 39 326 230z" />
    <glyph glyph-name="franc" unicode="&#x20a3;" horiz-adv-x="1150" 
d="M854 442h-303v-442h-340v442h-176v160h176v84h-176v160h176v588h893v-291h-553v-297h303v-160h-303v-84h303v-160z" />
    <glyph glyph-name="lira" unicode="&#x20a4;" horiz-adv-x="1199" 
d="M286 455h-211v153h218q-4 24 -18 79h-200v154h139q-41 107 -41 206q0 173 134.5 292t330.5 119q187 0 315.5 -109.5t154.5 -299.5h-320q-19 56 -58 85t-92 29q-57 0 -92.5 -37.5t-35.5 -94.5q0 -73 49 -190h319v-154h-263q12 -48 16 -79h247v-153h-257
q-22 -104 -109 -170h587v-285h-967v270q60 29 100 77t54 108z" />
    <glyph glyph-name="uni20A6" unicode="&#x20a6;" horiz-adv-x="1512" 
d="M179 0v1434h356l484 -921v921h315v-1434h-356l-484 921v-921h-315zM1168 783v165h334v-165h-334zM359 948v-165h-340v165h340zM1164 497v165h338v-165h-338zM354 662v-165h-335v165h335z" />
    <glyph glyph-name="peseta" unicode="&#x20a7;" horiz-adv-x="1243" 
d="M35 1029h115v405h530q204 0 340 -111.5t161 -293.5h61v-146h-61q-25 -182 -161.5 -293t-339.5 -111h-191v-479h-339v883h-115v146zM489 1163v-134h351q-19 63 -70.5 98.5t-126.5 35.5h-154zM489 749h154q76 0 127 35.5t70 98.5h-351v-134z" />
    <glyph glyph-name="uni20A9" unicode="&#x20a9;" horiz-adv-x="2069" 
d="M865 1434h338l243 -978l225 978h351l-387 -1434h-345l-256 974l-255 -974h-345l-387 1434h351l226 -978zM1732 763v165h333v-165h-333zM1654 928v-165h-1635v165h1635zM1727 506v165h338v-165h-338zM1650 671v-165h-1631v165h1631z" />
    <glyph glyph-name="afii57636" unicode="&#x20aa;" horiz-adv-x="1811" 
d="M151 0v1434h577q223 0 375 -139t152 -341v-417h-292v382q0 105 -69.5 174.5t-175.5 69.5h-276v-1163h-291zM1661 1434v-1434h-577q-223 0 -375.5 138.5t-152.5 340.5v418h293v-383q0 -105 69.5 -174.5t176.5 -69.5h274v1164h292z" />
    <glyph glyph-name="dong" unicode="&#x20ab;" horiz-adv-x="1388" 
d="M616 1171v187h282v137h323v-137h137v-187h-137v-1171h-323v117q-136 -142 -338 -142q-216 0 -357.5 160t-141.5 395q0 154 63.5 280.5t178 200.5t257.5 74q202 0 338 -142v228h-282zM388 530q0 -114 73.5 -190.5t180.5 -76.5t181.5 77t74.5 190q0 112 -74.5 189.5
t-181.5 77.5t-180.5 -77.5t-73.5 -189.5zM358 -388v241h762v-241h-762z" />
    <glyph glyph-name="Euro" unicode="&#x20ac;" horiz-adv-x="1618" 
d="M20 663h124q-1 18 -1 54q0 8 0.5 26t0.5 27h-124v164h153q67 234 259 379t448 145q255 0 431 -140.5t231 -391.5h-357q-32 113 -114.5 175t-194.5 62q-114 0 -206 -62t-139 -167h481l-45 -164h-480q-3 -27 -3 -53q0 -29 3 -54h455l-44 -164h-364q51 -106 147 -168
t215 -62q143 0 249 59.5t194 183.5l187 -139q-224 -398 -646 -398q-254 0 -446.5 145.5t-260.5 378.5h-153v164z" />
    <glyph glyph-name="ruble" unicode="&#x20bd;" horiz-adv-x="1243" 
d="M35 749h115v685h530q225 0 365.5 -134t140.5 -344q0 -211 -140.5 -344t-365.5 -133h-191v-99h351v-167h-351v-213h-339v213h-115v167h115v99h-115v270zM850 956q0 94 -55 150.5t-152 56.5h-154v-414h154q97 0 152 56t55 151z" />
    <glyph glyph-name="afii61248" unicode="&#x2105;" horiz-adv-x="2167" 
d="M1626 216q82 0 137 55.5t55 137.5q0 81 -55 136t-137 55q-81 0 -135.5 -55t-54.5 -136q0 -82 54.5 -137.5t135.5 -55.5zM1626 843q197 0 332 -126t135 -308q0 -183 -134.5 -308.5t-332.5 -125.5t-332.5 125.5t-134.5 308.5q0 182 135 308t332 126zM805 -50
q-29 15 -97.5 49.5t-105.5 53.5l700 1434l202 -105zM72 1026q0 186 125.5 309.5t307.5 123.5q183 0 292 -98t129 -244h-261q-10 38 -50 63t-94 25q-81 0 -127.5 -51.5t-46.5 -127.5q0 -93 55 -144.5t146 -51.5q127 0 218 99l142 -101q-129 -238 -383 -238q-196 0 -324.5 124
t-128.5 312z" />
    <glyph glyph-name="uni2109" unicode="&#x2109;" horiz-adv-x="1697" 
d="M738 0v1434h893v-291h-554v-307h505v-291h-505v-545h-339zM41 1166q0 123 88.5 207.5t218.5 84.5t218.5 -84.5t88.5 -207.5t-88.5 -206.5t-218.5 -83.5t-218.5 83.5t-88.5 206.5zM252 1166q0 -41 27 -68.5t69 -27.5t69 27.5t27 68.5q0 42 -27 70t-69 28t-69 -28t-27 -70z
" />
    <glyph glyph-name="afii61289" unicode="&#x2113;" horiz-adv-x="1172" 
d="M141 231l-86 252q105 39 221 87v520q0 156 119 262t293 106t293.5 -106t119.5 -262v-48q0 -353 -517 -624v-64q0 -49 29 -79t75 -30q115 0 170 126l241 -142q-49 -117 -160 -185.5t-249 -68.5q-158 0 -272 86.5t-134 221.5q-75 -29 -143 -52zM584 1076v-344
q112 74 160.5 152.5t48.5 180.5v9q0 51 -29.5 84.5t-75.5 33.5t-75 -32t-29 -84z" />
    <glyph glyph-name="afii61352" unicode="&#x2116;" horiz-adv-x="2275" 
d="M151 0v1434h291l434 -853v853h304v-1434h-293l-433 853v-853h-303zM2141 0h-819v252h819v-252zM1586 740q0 -62 42 -103.5t104 -41.5t103 41.5t41 103.5t-41 103.5t-103 41.5t-104 -41.5t-42 -103.5zM1302 740q0 166 124.5 281.5t305.5 115.5t305.5 -115.5t124.5 -281.5
q0 -167 -124.5 -282t-305.5 -115t-305.5 115t-124.5 282z" />
    <glyph glyph-name="uni2117" unicode="&#x2117;" horiz-adv-x="1646" 
d="M887 569h-110v-247h-222v788h332q127 0 213 -77.5t86 -192.5t-86 -193t-213 -78zM963 840q0 37 -27 61.5t-68 24.5h-91v-172h91q41 0 68 24.5t27 61.5zM82 717q0 153 58 290t157 236t236 157t290 58t290.5 -58t236.5 -157t157 -236t58 -290t-58 -290.5t-157 -236.5
t-236.5 -157t-290.5 -58t-290 58t-236 157t-157 236.5t-58 290.5zM217 717q0 -169 80.5 -310.5t220 -223t305.5 -81.5t306 81.5t220.5 223t80.5 310.5q0 127 -47.5 241t-128.5 195.5t-193.5 129.5t-237.5 48q-166 0 -305.5 -81t-220 -222.5t-80.5 -310.5z" />
    <glyph glyph-name="uni2120" unicode="&#x2120;" horiz-adv-x="1634" 
d="M1181 805h-109l-132 251v-380h-213v758h204l195 -383l195 383h205v-758h-214v378zM66 833l91 95q90 -89 202 -89q36 0 59 16t23 43q0 26 -24 43t-87 30q-121 26 -184 89.5t-63 157.5q0 101 79.5 164.5t201.5 63.5q123 0 200.5 -66.5t91.5 -179.5h-194q-6 31 -30.5 50.5
t-58.5 19.5q-29 0 -48 -13t-19 -34q0 -32 24.5 -51.5t83.5 -32.5q133 -30 194 -89t61 -152q0 -104 -82 -169t-217 -65q-176 0 -304 169z" />
    <glyph glyph-name="uni2121" unicode="&#x2121;" horiz-adv-x="2318" 
d="M1134 439q12 -100 65.5 -158t132.5 -58q88 0 153 29.5t130 94.5l145 -147q-168 -225 -430 -225q-149 0 -267 74t-181.5 200t-63.5 281q0 154 64 281t176.5 200.5t250.5 73.5q135 0 244 -72t170 -194.5t61 -270.5q0 -53 -14 -109h-636zM378 0v1141h-327v293h976v-293h-327
v-1141h-322zM1855 0v1495h314v-1495h-314zM1306 838q-63 0 -108 -51t-60 -140h327q-13 89 -55 140t-104 51z" />
    <glyph glyph-name="trademark" unicode="&#x2122;" horiz-adv-x="1607" 
d="M230 676v569h-181v189h591v-189h-181v-569h-229zM1152 805h-108l-132 251v-380h-213v758h204l196 -383l194 383h204v-758h-213v378z" />
    <glyph glyph-name="Omega" unicode="&#x2126;" horiz-adv-x="1658" 
d="M1233 749q0 174 -117 294t-287 120t-286.5 -120t-116.5 -294q0 -153 83.5 -278.5t231.5 -194.5v-276h-635v295h259q-138 89 -209 213.5t-71 275.5q0 186 98 340.5t269 244t377 89.5t377 -89.5t269.5 -244t98.5 -340.5q0 -151 -71 -275.5t-209 -213.5h258v-295h-634v276
q148 69 231.5 194.5t83.5 278.5z" />
    <glyph glyph-name="estimated" unicode="&#x212e;" horiz-adv-x="1646" 
d="M1565 632h-1146v-310q164 -177 404 -177q139 0 260 65t200 182l149 -102q-104 -149 -264.5 -232t-344.5 -83q-153 0 -290 58t-236 157t-157 236.5t-58 290.5t58 290t157 236t236 157t290 58t290.5 -58t236.5 -157t157 -236t58 -290v-85zM823 1286q-242 0 -404 -175v-311
h808v311q-77 83 -181 129t-223 46z" />
    <glyph glyph-name="onethird" unicode="&#x2153;" horiz-adv-x="1996" 
d="M549 51l699 1434l198 -106l-698 -1433zM379 1434h223v-971h-263v722l-141 -78l-95 178zM1657 315q0 51 -33.5 86t-84.5 35q-29 0 -53 -12l-101 124l186 207h-302v216h605v-203l-172 -182q103 -32 161 -111.5t58 -185.5q0 -138 -100.5 -226t-259.5 -88q-97 0 -182 51
t-148 146l117 118q91 -96 191 -96q51 0 84.5 34.5t33.5 86.5z" />
    <glyph glyph-name="twothirds" unicode="&#x2154;" horiz-adv-x="1996" 
d="M549 51l699 1434l198 -106l-698 -1433zM613 889l-191 -207h310v-219h-640v196l322 351q38 41 54.5 73.5t16.5 67.5q0 40 -24 65t-63 25q-40 0 -68.5 -32t-29.5 -83h-234q5 145 96.5 238.5t243.5 93.5q145 0 240.5 -80t95.5 -206q0 -142 -129 -283zM1657 315
q0 51 -33.5 86t-84.5 35q-29 0 -53 -12l-101 124l186 207h-302v216h605v-203l-172 -182q103 -32 161 -111.5t58 -185.5q0 -138 -100.5 -226t-259.5 -88q-97 0 -182 51t-148 146l117 118q91 -96 191 -96q51 0 84.5 34.5t33.5 86.5z" />
    <glyph glyph-name="onefifth" unicode="&#x2155;" horiz-adv-x="1996" 
d="M549 51l699 1434l198 -106l-698 -1433zM379 1434h223v-971h-263v722l-141 -78l-95 178zM1568 -27q-222 0 -358 197l127 125q49 -53 95.5 -78.5t108.5 -25.5q50 0 88 37t38 86q0 53 -34.5 88t-86.5 35q-26 0 -51 -13.5t-39 -34.5l-191 25q20 185 64 555h565v-217h-327
l-17 -125q11 1 36 1q142 0 242.5 -88t100.5 -230q0 -147 -99.5 -242t-261.5 -95z" />
    <glyph glyph-name="twofifths" unicode="&#x2156;" horiz-adv-x="1996" 
d="M549 51l699 1434l198 -106l-698 -1433zM613 889l-191 -207h310v-219h-640v196l322 351q38 41 54.5 73.5t16.5 67.5q0 40 -24 65t-63 25q-40 0 -68.5 -32t-29.5 -83h-234q5 145 96.5 238.5t243.5 93.5q145 0 240.5 -80t95.5 -206q0 -142 -129 -283zM1568 -27
q-222 0 -358 197l127 125q49 -53 95.5 -78.5t108.5 -25.5q50 0 88 37t38 86q0 53 -34.5 88t-86.5 35q-26 0 -51 -13.5t-39 -34.5l-191 25q20 185 64 555h565v-217h-327l-17 -125q11 1 36 1q142 0 242.5 -88t100.5 -230q0 -147 -99.5 -242t-261.5 -95z" />
    <glyph glyph-name="threefifths" unicode="&#x2157;" horiz-adv-x="1996" 
d="M549 51l699 1434l198 -106l-698 -1433zM1568 -27q-222 0 -358 197l127 125q49 -53 95.5 -78.5t108.5 -25.5q50 0 88 37t38 86q0 53 -34.5 88t-86.5 35q-26 0 -51 -13.5t-39 -34.5l-191 25q20 185 64 555h565v-217h-327l-17 -125q11 1 36 1q142 0 242.5 -88t100.5 -230
q0 -147 -99.5 -242t-261.5 -95zM489 778q0 51 -33 86t-84 35q-30 0 -54 -12l-100 124l185 207h-302v216h606v-203l-172 -182q103 -32 161 -111.5t58 -185.5q0 -138 -101 -226t-260 -88q-97 0 -182 51t-148 146l117 118q92 -97 192 -97q51 0 84 35t33 87z" />
    <glyph glyph-name="fourfifths" unicode="&#x2158;" horiz-adv-x="1996" 
d="M549 51l699 1434l198 -106l-698 -1433zM1568 -27q-222 0 -358 197l127 125q49 -53 95.5 -78.5t108.5 -25.5q50 0 88 37t38 86q0 53 -34.5 88t-86.5 35q-26 0 -51 -13.5t-39 -34.5l-191 25q20 185 64 555h565v-217h-327l-17 -125q11 1 36 1q142 0 242.5 -88t100.5 -230
q0 -147 -99.5 -242t-261.5 -95zM32 627v193l410 614h236v-596h101v-211h-101v-164h-247v164h-399zM263 837h168v253z" />
    <glyph glyph-name="onesixth" unicode="&#x2159;" horiz-adv-x="1996" 
d="M549 51l699 1434l198 -106l-698 -1433zM379 1434h223v-971h-263v722l-141 -78l-95 178zM1851 971l-215 -332q130 -11 223 -100t93 -226q0 -145 -108.5 -241.5t-260.5 -96.5q-155 0 -264 96t-109 242q0 98 51 175l314 483h276zM1700 315q0 54 -34 89.5t-85 35.5
q-50 0 -84.5 -35.5t-34.5 -89.5t34.5 -90t84.5 -36q51 0 85 36t34 90z" />
    <glyph glyph-name="fivesixths" unicode="&#x215a;" horiz-adv-x="1996" 
d="M549 51l699 1434l198 -106l-698 -1433zM1851 971l-215 -332q130 -11 223 -100t93 -226q0 -145 -108.5 -241.5t-260.5 -96.5q-155 0 -264 96t-109 242q0 98 51 175l314 483h276zM1700 315q0 54 -34 89.5t-85 35.5q-50 0 -84.5 -35.5t-34.5 -89.5t34.5 -90t84.5 -36
q51 0 85 36t34 90zM400 438q-221 0 -357 197l127 125q49 -53 95.5 -78.5t108.5 -25.5q50 0 88 37t38 86q0 53 -34.5 88t-86.5 35q-26 0 -51 -13.5t-39 -34.5l-192 25q10 93 65 555h565v-217h-328l-16 -125q11 1 36 1q142 0 242.5 -88t100.5 -230q0 -147 -100 -242t-262 -95z
" />
    <glyph glyph-name="oneeighth" unicode="&#x215b;" horiz-adv-x="1996" 
d="M549 51l699 1434l198 -106l-698 -1433zM379 1434h223v-971h-263v722l-141 -78l-95 178zM1468 299q0 -51 33 -85t81 -34t81.5 34t33.5 85t-33.5 85t-81.5 34t-81 -34t-33 -85zM1905 710q0 -55 -26.5 -104.5t-70.5 -80.5q65 -35 102 -99t37 -135q0 -135 -105 -226.5
t-260 -91.5t-259.5 91.5t-104.5 226.5q0 71 37 135t102 99q-44 31 -70 80.5t-26 104.5q0 119 91.5 201t229.5 82q139 0 231 -82t92 -201zM1500 705q0 -36 23.5 -62t58.5 -26t59 26t24 62q0 35 -23.5 59t-59.5 24t-59 -23.5t-23 -59.5z" />
    <glyph glyph-name="threeeighths" unicode="&#x215c;" horiz-adv-x="1996" 
d="M549 51l699 1434l198 -106l-698 -1433zM1468 299q0 -51 33 -85t81 -34t81.5 34t33.5 85t-33.5 85t-81.5 34t-81 -34t-33 -85zM1905 710q0 -55 -26.5 -104.5t-70.5 -80.5q65 -35 102 -99t37 -135q0 -135 -105 -226.5t-260 -91.5t-259.5 91.5t-104.5 226.5q0 71 37 135
t102 99q-44 31 -70 80.5t-26 104.5q0 119 91.5 201t229.5 82q139 0 231 -82t92 -201zM1500 705q0 -36 23.5 -62t58.5 -26t59 26t24 62q0 35 -23.5 59t-59.5 24t-59 -23.5t-23 -59.5zM489 778q0 51 -33 86t-84 35q-30 0 -54 -12l-100 124l185 207h-302v216h606v-203
l-172 -182q103 -32 161 -111.5t58 -185.5q0 -138 -101 -226t-260 -88q-97 0 -182 51t-148 146l117 118q92 -97 192 -97q51 0 84 35t33 87z" />
    <glyph glyph-name="fiveeighths" unicode="&#x215d;" horiz-adv-x="1996" 
d="M549 51l699 1434l198 -106l-698 -1433zM400 438q-221 0 -357 197l127 125q49 -53 95.5 -78.5t108.5 -25.5q50 0 88 37t38 86q0 53 -34.5 88t-86.5 35q-26 0 -51 -13.5t-39 -34.5l-192 25q10 93 65 555h565v-217h-328l-16 -125q11 1 36 1q142 0 242.5 -88t100.5 -230
q0 -147 -100 -242t-262 -95zM1468 299q0 -51 33 -85t81 -34t81.5 34t33.5 85t-33.5 85t-81.5 34t-81 -34t-33 -85zM1905 710q0 -55 -26.5 -104.5t-70.5 -80.5q65 -35 102 -99t37 -135q0 -135 -105 -226.5t-260 -91.5t-259.5 91.5t-104.5 226.5q0 71 37 135t102 99
q-44 31 -70 80.5t-26 104.5q0 119 91.5 201t229.5 82q139 0 231 -82t92 -201zM1500 705q0 -36 23.5 -62t58.5 -26t59 26t24 62q0 35 -23.5 59t-59.5 24t-59 -23.5t-23 -59.5z" />
    <glyph glyph-name="seveneighths" unicode="&#x215e;" horiz-adv-x="1996" 
d="M549 51l699 1434l198 -106l-698 -1433zM1468 299q0 -51 33 -85t81 -34t81.5 34t33.5 85t-33.5 85t-81.5 34t-81 -34t-33 -85zM1905 710q0 -55 -26.5 -104.5t-70.5 -80.5q65 -35 102 -99t37 -135q0 -135 -105 -226.5t-260 -91.5t-259.5 91.5t-104.5 226.5q0 71 37 135
t102 99q-44 31 -70 80.5t-26 104.5q0 119 91.5 201t229.5 82q139 0 231 -82t92 -201zM1500 705q0 -36 23.5 -62t58.5 -26t59 26t24 62q0 35 -23.5 59t-59.5 24t-59 -23.5t-23 -59.5zM88 1434h658v-190l-321 -781h-280l316 750h-373v221z" />
    <glyph glyph-name="uni215F" unicode="&#x215f;" horiz-adv-x="1996" 
d="M549 51l699 1434l198 -106l-698 -1433zM379 1434h223v-971h-263v722l-141 -78l-95 178z" />
    <glyph glyph-name="arrowleft" unicode="&#x2190;" horiz-adv-x="1761" 
d="M637 219l-540 461l540 461l117 -147l-273 -222h1199v-182h-1202l276 -223z" />
    <glyph glyph-name="arrowup" unicode="&#x2191;" horiz-adv-x="1761" 
d="M413 966l460 539l461 -539l-147 -117l-221 272v-1199h-182v1202l-224 -275z" />
    <glyph glyph-name="arrowright" unicode="&#x2192;" horiz-adv-x="1761" 
d="M1652 680l-539 -461l-118 148l276 223h-1201v182h1198l-273 222l118 147z" />
    <glyph glyph-name="arrowdown" unicode="&#x2193;" horiz-adv-x="1761" 
d="M1334 489l-461 -538l-461 538l147 118l222 -274v1200h182v-1201l224 275z" />
    <glyph glyph-name="arrowboth" unicode="&#x2194;" horiz-adv-x="1761" 
d="M1659 680l-540 -461l-117 148l276 223h-800l276 -223l-117 -148l-540 461l540 461l117 -147l-273 -222h794l-273 222l117 147z" />
    <glyph glyph-name="arrowupdn" unicode="&#x2195;" horiz-adv-x="1761" 
d="M871 -51l-460 538l147 118l224 -276v800l-224 -276l-147 118l460 539l461 -539l-146 -118l-222 272v-793l222 273l146 -118z" />
    <glyph glyph-name="arrowupdnbse" unicode="&#x21a8;" horiz-adv-x="1761" 
d="M504 -20h340l-433 507l147 118l224 -276v800l-224 -276l-147 118l460 539l461 -539l-146 -118l-222 272v-793l222 273l146 -118l-434 -507h346v-185h-740v185z" />
    <glyph glyph-name="partialdiff" unicode="&#x2202;" horiz-adv-x="1273" 
d="M577 952q83 0 158 -34t125 -90q-32 341 -274 341q-154 0 -280 -119l-123 254q158 154 404 154q190 0 328 -94.5t208 -261.5t70 -389q0 -174 -45.5 -315.5t-125 -233t-186 -140.5t-230.5 -49q-151 0 -276.5 65t-198 177.5t-72.5 246.5q0 133 72.5 246t191.5 177.5
t254 64.5zM606 264q208 0 248 285q-99 115 -248 115q-93 0 -155.5 -57.5t-62.5 -142.5t62.5 -142.5t155.5 -57.5z" />
    <glyph glyph-name="Delta" unicode="&#x2206;" horiz-adv-x="1422" 
d="M897 1434l499 -1434h-1368l497 1434h372zM712 1077l-253 -796h505z" />
    <glyph glyph-name="product" unicode="&#x220f;" horiz-adv-x="1401" 
d="M1252 1516v-1743h-340v1450h-423v-1450h-338v1743h1101z" />
    <glyph glyph-name="summation" unicode="&#x2211;" horiz-adv-x="1356" 
d="M109 100l486 555l-486 532v329h1138v-291h-757l423 -467v-205l-420 -490h754v-290h-1138v327z" />
    <glyph glyph-name="minus" unicode="&#x2212;" horiz-adv-x="1200" 
d="M1081 536h-962v287h962v-287z" />
    <glyph glyph-name="uni2215" unicode="&#x2215;" horiz-adv-x="338" 
d="M-281 51l700 1434l197 -106l-698 -1433z" />
    <glyph glyph-name="uni2219" unicode="&#x2219;" horiz-adv-x="620" 
d="M115 669q0 80 55.5 134t139.5 54t140 -54t56 -134t-56 -134.5t-140 -54.5t-139.5 54.5t-55.5 134.5z" />
    <glyph glyph-name="radical" unicode="&#x221a;" horiz-adv-x="1170" 
d="M716 0h-383l-313 768h342l141 -387l309 1196h337z" />
    <glyph glyph-name="infinity" unicode="&#x221e;" horiz-adv-x="1583" 
d="M330 680q0 -48 32 -77.5t80 -29.5q54 0 98 23t98 84q-54 60 -98 82.5t-98 22.5q-48 0 -80 -29t-32 -76zM791 529q-170 -177 -369 -177q-147 0 -247.5 94t-100.5 234t100.5 233.5t247.5 93.5q196 0 369 -179q175 179 368 179q148 0 248.5 -93.5t100.5 -233.5t-100.5 -234
t-248.5 -94q-198 0 -368 177zM1252 680q0 47 -32 76t-80 29q-55 0 -99 -22.5t-97 -82.5q53 -61 97.5 -84t98.5 -23q48 0 80 29.5t32 77.5z" />
    <glyph glyph-name="orthogonal" unicode="&#x221f;" horiz-adv-x="1266" 
d="M1236 293v-293h-1085v1178h338v-885h747z" />
    <glyph glyph-name="intersection" unicode="&#x2229;" horiz-adv-x="1332" 
d="M666 971q-85 0 -141.5 -65.5t-56.5 -163.5v-742h-339v758q0 139 71 255.5t194.5 183.5t271.5 67t271.5 -67t194 -183.5t70.5 -255.5v-758h-340v742q0 92 -57 160.5t-139 68.5z" />
    <glyph glyph-name="integral" unicode="&#x222b;" horiz-adv-x="882" 
d="M605 1200v-1302q0 -373 -432 -373q-60 0 -130 12v248q42 -6 97 -6q136 0 136 123v1302q0 373 433 373q59 0 131 -12v-248q-44 6 -99 6q-136 0 -136 -123z" />
    <glyph glyph-name="approxequal" unicode="&#x2248;" horiz-adv-x="1200" 
d="M587 765q-35 29 -52.5 42.5t-44 27t-47.5 13.5q-64 0 -85 -128l-308 59q26 178 108 273.5t213 95.5q132 0 241 -89q35 -29 52.5 -42.5t44 -27t47.5 -13.5q64 0 85 128l308 -60q-26 -178 -108 -273t-213 -95q-132 0 -241 89zM587 282q-35 29 -52.5 42.5t-44 27t-47.5 13.5
q-64 0 -85 -128l-308 59q26 178 108 273.5t213 95.5t241 -90q33 -28 52 -42t45 -27t47 -13q64 0 85 128l308 -60q-26 -178 -108 -273t-213 -95q-132 0 -241 89z" />
    <glyph glyph-name="notequal" unicode="&#x2260;" horiz-adv-x="1200" 
d="M1081 301h-569l-142 -274l-167 86l97 188h-181v277h323l104 199h-427v277h570l136 263l168 -86l-92 -177h180v-277h-322l-104 -199h426v-277z" />
    <glyph glyph-name="equivalence" unicode="&#x2261;" horiz-adv-x="1200" 
d="M1081 910h-962v270h962v-270zM1081 179h-962v270h962v-270zM1081 545h-962v269h962v-269z" />
    <glyph glyph-name="lessequal" unicode="&#x2264;" horiz-adv-x="1200" 
d="M119 707v232l912 352l76 -201l-591 -268l591 -267l-76 -202zM1080 0h-961v272h961v-272z" />
    <glyph glyph-name="greaterequal" unicode="&#x2265;" horiz-adv-x="1200" 
d="M1080 939v-232l-912 -354l-76 202l591 267l-591 268l76 201zM1080 0h-962v272h962v-272z" />
    <glyph glyph-name="house" unicode="&#x2302;" horiz-adv-x="1332" 
d="M441 270h449v344l-224 249l-225 -249v-344zM1208 0h-1084v713l542 590l542 -590v-713z" />
    <glyph glyph-name="revlogicalnot" unicode="&#x2310;" horiz-adv-x="1200" 
d="M442 536v-311h-323v598h962v-287h-639z" />
    <glyph glyph-name="uni2318" unicode="&#x2318;" horiz-adv-x="1675" 
d="M741 565h191v191h-191v-191zM420 940h107v109q0 49 -30 79.5t-77 30.5t-77.5 -31t-30.5 -79q0 -47 30.5 -78t77.5 -31zM1146 940h108q16 0 25 9q36 5 59 32.5t23 67.5q0 48 -30.5 79t-76.5 31q-47 0 -77.5 -30.5t-30.5 -79.5v-109zM527 382h-107q-47 0 -77.5 -31
t-30.5 -78q0 -48 30.5 -79t77.5 -31t77 30.5t30 79.5v109zM527 570v182h-107q-139 0 -232.5 85.5t-93.5 211.5q0 127 93.5 213t232.5 86t232.5 -86t93.5 -213v-109h182v109q0 127 93.5 213t232.5 86q138 0 232 -86t94 -213q0 -126 -94 -211.5t-232 -85.5h-108v-182h108
q138 0 232 -85.5t94 -211.5q0 -127 -94 -212.5t-232 -85.5q-139 0 -232.5 85.5t-93.5 212.5v109h-182v-109q0 -127 -93.5 -212.5t-232.5 -85.5t-232.5 85.5t-93.5 212.5q0 126 93.5 211.5t232.5 85.5h107zM1254 382h-108v-109q0 -49 30.5 -79.5t77.5 -30.5q46 0 76.5 31
t30.5 79q0 47 -30.5 78t-76.5 31z" />
    <glyph glyph-name="lozenge" unicode="&#x25ca;" horiz-adv-x="1196" 
d="M1118 618l-520 -940l-520 940l520 941zM815 618l-217 419l-217 -419l217 -419z" />
    <glyph glyph-name="H18533" unicode="&#x25cf;" horiz-adv-x="2048" 
d="M332 668q0 187 93 346.5t252.5 252.5t346.5 93t346.5 -93t252.5 -252.5t93 -346.5t-93 -347t-252.5 -253t-346.5 -93t-346.5 93t-252.5 253t-93 347z" />
    <glyph glyph-name="commaaccent" horiz-adv-x="880" 
d="M199 -420l240 364l207 -162l-302 -313z" />
    <glyph glyph-name="zero.tnum" horiz-adv-x="1166" 
d="M67 717q0 216 57.5 381.5t175.5 262.5t283 97t283 -97t175.5 -262.5t57.5 -381.5t-57.5 -382t-175.5 -263t-283 -97q-124 0 -223 55.5t-162.5 155.5t-97 235t-33.5 296zM394 717q0 -208 47.5 -324.5t141.5 -116.5t141 116t47 325q0 208 -47 323.5t-141 115.5
t-141.5 -115.5t-47.5 -323.5z" />
    <glyph glyph-name="one.tnum" horiz-adv-x="1011" 
d="M447 1434h296v-1434h-336v1118l-226 -122l-125 227z" />
    <glyph glyph-name="two.tnum" horiz-adv-x="1086" 
d="M825 629l-309 -338h486v-291h-907v270l476 521q60 66 86 116t26 105q0 66 -42.5 108.5t-109.5 42.5t-112 -46t-49 -122h-318q7 204 142 333.5t349 129.5q205 0 339.5 -115.5t134.5 -298.5q0 -112 -47.5 -211.5t-144.5 -203.5z" />
    <glyph glyph-name="three.tnum" horiz-adv-x="1138" 
d="M513 264q89 0 148 58.5t59 143.5t-59 143.5t-148 58.5q-37 0 -70 -13l-129 162l295 330h-475v287h856v-282l-273 -288q159 -39 251 -157t92 -279q0 -90 -36.5 -172t-102.5 -144.5t-166 -99.5t-218 -37q-138 0 -258.5 71.5t-207.5 207.5l161 157q123 -147 281 -147z" />
    <glyph glyph-name="four.tnum" horiz-adv-x="1206" 
d="M59 251v275l603 908h313v-895h153v-288h-153v-251h-328v251h-588zM353 537h294v445z" />
    <glyph glyph-name="five.tnum" horiz-adv-x="1155" 
d="M555 -25q-291 0 -474 273l161 159q137 -142 285 -142q86 0 148.5 59.5t62.5 144.5q0 88 -60 146.5t-149 58.5q-46 0 -87 -19.5t-65 -50.5l-243 33l94 797h795v-287h-489l-30 -241q57 16 108 16q126 0 232 -58t169 -164t63 -237q0 -213 -142.5 -350.5t-378.5 -137.5z" />
    <glyph glyph-name="six.tnum" horiz-adv-x="1216" 
d="M970 1434l-345 -526q37 6 84 6q106 0 203.5 -55t161.5 -160t64 -234q0 -139 -72.5 -252t-193.5 -175.5t-263 -62.5q-144 0 -265.5 62.5t-194 175.5t-72.5 252q0 143 71 253l466 716h356zM812 467q0 90 -59.5 150.5t-145.5 60.5q-87 0 -146.5 -60.5t-59.5 -150.5
t59.5 -150t146.5 -60q86 0 145.5 60.5t59.5 149.5z" />
    <glyph glyph-name="seven.tnum" horiz-adv-x="1026" 
d="M51 1434h934v-263l-481 -1171h-359l478 1141h-572v293z" />
    <glyph glyph-name="eight.tnum" horiz-adv-x="1196" 
d="M399 443q0 -83 57.5 -139t141.5 -56t141.5 56t57.5 139q0 84 -57.5 140t-141.5 56t-141.5 -56t-57.5 -140zM1055 1056q0 -87 -44.5 -163t-117.5 -115q105 -43 165 -139t60 -209q0 -193 -149.5 -324t-370.5 -131t-370.5 131t-149.5 324q0 113 60 209t165 139
q-73 39 -117.5 115t-44.5 163q0 169 130.5 285.5t326.5 116.5t326.5 -116.5t130.5 -285.5zM449 1046q0 -60 43 -103.5t106 -43.5q64 0 107 43.5t43 103.5t-43 102t-107 42t-106.5 -41.5t-42.5 -102.5z" />
    <glyph glyph-name="nine.tnum" horiz-adv-x="1216" 
d="M245 -2l345 525q-38 -6 -84 -6q-106 1 -203.5 56t-161.5 160t-64 234q0 139 72.5 252t193 175t262.5 62q144 0 266 -62.5t194.5 -175t72.5 -251.5q0 -141 -72 -253l-466 -716h-355zM402 965q0 -90 59.5 -150.5t145.5 -60.5q87 0 146.5 60.5t59.5 150.5t-59.5 150
t-146.5 60q-86 0 -145.5 -60.5t-59.5 -149.5z" />
    <glyph glyph-name="parenleft.case" horiz-adv-x="890" 
d="M208 716q0 275 103.5 526t289.5 432l226 -155q-136 -162 -208 -370t-72 -433t72 -432.5t208 -369.5l-226 -156q-186 181 -289.5 432.5t-103.5 525.5z" />
    <glyph glyph-name="parenright.case" horiz-adv-x="890" 
d="M683 716q0 -274 -103.5 -525.5t-289.5 -432.5l-228 156q136 162 209 370t73 432q0 225 -73 433t-209 370l228 155q186 -181 289.5 -432t103.5 -526z" />
    <glyph glyph-name="hyphen.case" horiz-adv-x="864" 
d="M745 580h-626v299h626v-299z" />
    <glyph glyph-name="at.case" horiz-adv-x="1991" 
d="M517 730q0 190 111 318.5t281 128.5q148 0 248 -100v80h277v-537q0 -52 26 -80t65 -28q72 0 123 74.5t51 200.5q0 131 -56.5 252t-151.5 209t-226 141t-273 53q-191 0 -351.5 -92.5t-253.5 -253t-93 -353.5q0 -194 93 -353.5t259.5 -252t372.5 -92.5q266 0 485 152
l89 -179q-263 -170 -574 -170q-201 0 -378 69t-302.5 187.5t-197.5 284.5t-72 354q0 187 72.5 353.5t196 285t294 187.5t360.5 69q197 0 371.5 -68t296.5 -183.5t193 -273t71 -331.5q0 -226 -122 -361.5t-333 -135.5q-94 0 -167 34.5t-110 98.5q-101 -134 -283 -134
q-170 0 -281 128t-111 318zM796 730q0 -90 52 -148.5t128 -58.5q77 0 128.5 58t51.5 149q0 90 -51.5 148t-128.5 58q-75 0 -127.5 -58.5t-52.5 -147.5z" />
    <glyph glyph-name="bracketleft.case" horiz-adv-x="890" 
d="M202 -195v1823h652v-293h-313v-1237h313v-293h-652z" />
    <glyph glyph-name="bracketright.case" horiz-adv-x="890" 
d="M689 1628v-1823h-653v293h314v1237h-314v293h653z" />
    <glyph glyph-name="braceleft.case" horiz-adv-x="890" 
d="M121 571v291q87 0 136.5 46t49.5 128v250q0 146 105.5 244t265.5 98h176v-293h-84q-54 0 -88.5 -33t-34.5 -85v-260q0 -94 -47 -155.5t-137 -84.5q89 -23 136.5 -85t47.5 -156v-259q0 -52 34.5 -85.5t88.5 -33.5h84v-293h-176q-160 0 -265.5 98t-105.5 244v249
q0 82 -49.5 128.5t-136.5 46.5z" />
    <glyph glyph-name="braceright.case" horiz-adv-x="890" 
d="M770 862v-291q-87 0 -136.5 -46.5t-49.5 -128.5v-249q0 -146 -105.5 -244t-265.5 -98h-177v293h84q55 0 89.5 33t34.5 86v259q0 95 47 156.5t137 84.5q-184 48 -184 240v260q0 52 -34.5 85t-89.5 33h-84v293h177q160 0 265.5 -98t105.5 -244v-250q0 -82 49.5 -128
t136.5 -46z" />
    <glyph glyph-name="exclamdown.case" horiz-adv-x="644" 
d="M153 0l44 989h250l45 -989h-339zM120 1271q0 79 58 133t145 54q86 0 143.5 -54t57.5 -133t-57.5 -133.5t-143.5 -54.5q-87 0 -145 54.5t-58 133.5z" />
    <glyph glyph-name="guillemotleft.case" horiz-adv-x="1328" 
d="M86 595v185l528 344l100 -155l-341 -282l341 -279l-100 -157zM624 595v185l528 344l99 -155l-341 -282l341 -279l-99 -157z" />
    <glyph glyph-name="periodcentered.case" horiz-adv-x="620" 
d="M115 722q0 80 55.5 134t139.5 54t140 -54t56 -134t-56 -134t-140 -54t-139.5 54t-55.5 134z" />
    <glyph glyph-name="guillemotright.case" horiz-adv-x="1328" 
d="M1241 780v-185l-528 -344l-100 157l341 279l-341 282l100 155zM703 780v-185l-528 -344l-99 157l341 279l-341 282l99 155z" />
    <glyph glyph-name="questiondown.case" horiz-adv-x="1141" 
d="M437 989h339q0 -119 -21.5 -192t-75.5 -129.5t-161 -117.5q-57 -32 -77.5 -66.5t-20.5 -86.5q0 -49 39.5 -85t102.5 -36q80 0 127 50t47 132h328q0 -222 -142.5 -352t-368.5 -130q-106 0 -195.5 34t-149.5 91.5t-93.5 134t-33.5 161.5q0 110 51.5 197t166.5 159
q80 50 109 94.5t29 141.5zM798 1270q0 -79 -58.5 -133.5t-144.5 -54.5q-87 0 -145 54.5t-58 133.5q0 80 58 134t145 54q86 0 144.5 -54t58.5 -134z" />
    <glyph glyph-name="endash.case" horiz-adv-x="1024" 
d="M1024 580h-1024v299h1024v-299z" />
    <glyph glyph-name="emdash.case" horiz-adv-x="2048" 
d="M2048 580h-2048v299h2048v-299z" />
    <glyph glyph-name="bullet.case" horiz-adv-x="819" 
d="M109 729q0 124 88 211.5t213 87.5t213 -87.5t88 -211.5q0 -125 -88 -212t-213 -87t-213 87t-88 212z" />
    <glyph glyph-name="guilsinglleft.case" horiz-adv-x="790" 
d="M86 595v185l528 344l100 -155l-341 -282l341 -279l-100 -157z" />
    <glyph glyph-name="guilsinglright.case" horiz-adv-x="790" 
d="M703 780v-185l-528 -344l-99 157l341 279l-341 282l99 155z" />
    <glyph glyph-name="zero.numerator" 
d="M51 948q0 227 95.5 368.5t268.5 141.5t268.5 -141.5t95.5 -368.5t-95.5 -368.5t-268.5 -141.5t-268.5 141.5t-95.5 368.5zM306 948q0 -133 27.5 -208t81.5 -75t81 74.5t27 208.5t-27 209t-81 75t-81.5 -75.5t-27.5 -208.5z" />
    <glyph glyph-name="one.numerator" 
d="M379 1434h223v-971h-263v722l-141 -78l-95 178z" />
    <glyph glyph-name="two.numerator" 
d="M613 889l-191 -207h310v-219h-640v196l322 351q38 41 54.5 73.5t16.5 67.5q0 40 -24 65t-63 25q-40 0 -68.5 -32t-29.5 -83h-234q5 145 96.5 238.5t243.5 93.5q145 0 240.5 -80t95.5 -206q0 -142 -129 -283z" />
    <glyph glyph-name="three.numerator" 
d="M489 778q0 51 -33 86t-84 35q-30 0 -54 -12l-100 124l185 207h-302v216h606v-203l-172 -182q103 -32 161 -111.5t58 -185.5q0 -138 -101 -226t-260 -88q-97 0 -182 51t-148 146l117 118q92 -97 192 -97q51 0 84 35t33 87z" />
    <glyph glyph-name="four.numerator" 
d="M32 627v193l410 614h236v-596h101v-211h-101v-164h-247v164h-399zM263 837h168v253z" />
    <glyph glyph-name="five.numerator" 
d="M400 438q-221 0 -357 197l127 125q49 -53 95.5 -78.5t108.5 -25.5q50 0 88 37t38 86q0 53 -34.5 88t-86.5 35q-26 0 -51 -13.5t-39 -34.5l-192 25q10 93 65 555h565v-217h-328l-16 -125q11 1 36 1q142 0 242.5 -88t100.5 -230q0 -147 -100 -242t-262 -95z" />
    <glyph glyph-name="six.numerator" 
d="M684 1434l-215 -332q130 -11 222.5 -100t92.5 -226q0 -145 -108 -241.5t-260 -96.5q-155 0 -264 96t-109 242q0 99 50 175l315 483h276zM532 778q0 54 -34 89.5t-84 35.5t-84.5 -35.5t-34.5 -89.5t34.5 -90t84.5 -36t84 36t34 90z" />
    <glyph glyph-name="seven.numerator" 
d="M88 1434h658v-190l-321 -781h-280l316 750h-373v221z" />
    <glyph glyph-name="eight.numerator" 
d="M301 764q0 -51 33 -85t81 -34t81 34t33 85t-33 85t-81 34t-81 -34t-33 -85zM737 1175q0 -55 -26 -104.5t-70 -80.5q64 -34 101 -98.5t37 -135.5q0 -135 -104.5 -226.5t-259.5 -91.5t-260 91.5t-105 226.5q0 71 37 135t102 99q-44 31 -70 80.5t-26 104.5q0 119 92 201
t230 82q139 0 230.5 -82t91.5 -201zM333 1169q0 -36 23.5 -61.5t58.5 -25.5t59 25.5t24 61.5t-23.5 60t-59.5 24t-59 -24t-23 -60z" />
    <glyph glyph-name="nine.numerator" 
d="M145 463l215 331q-130 11 -223 99.5t-93 225.5q0 145 109 242t261 97q155 0 263.5 -96.5t108.5 -242.5q0 -99 -50 -175l-315 -481h-276zM297 1117q0 -54 34 -89.5t85 -35.5q50 0 84 35.5t34 89.5t-34 90t-84 36q-51 0 -85 -36t-34 -90z" />
    <glyph glyph-name="zero.denominator" 
d="M51 485q0 227 95.5 368.5t268.5 141.5t268.5 -141.5t95.5 -368.5t-95.5 -368.5t-268.5 -141.5t-268.5 141.5t-95.5 368.5zM306 485q0 -133 27.5 -208t81.5 -75t81 74.5t27 208.5t-27 209t-81 75t-81.5 -75.5t-27.5 -208.5z" />
    <glyph glyph-name="one.denominator" 
d="M379 971h223v-971h-263v722l-141 -78l-95 178z" />
    <glyph glyph-name="two.denominator" 
d="M613 426l-191 -207h310v-219h-640v197l322 350q38 41 54.5 73.5t16.5 67.5q0 40 -24 65t-63 25q-40 0 -68.5 -31.5t-29.5 -82.5h-234q5 145 96.5 238t243.5 93q145 0 240.5 -79.5t95.5 -205.5q0 -143 -129 -284z" />
    <glyph glyph-name="three.denominator" 
d="M489 315q0 51 -33 86t-84 35q-30 0 -54 -12l-100 124l185 207h-302v216h606v-203l-172 -182q103 -32 161 -111.5t58 -185.5q0 -138 -101 -226t-260 -88q-97 0 -182 51t-148 146l117 118q91 -96 192 -96q51 0 84 34.5t33 86.5z" />
    <glyph glyph-name="four.denominator" 
d="M32 164v193l410 614h236v-596h101v-211h-101v-164h-247v164h-399zM263 374h168v253z" />
    <glyph glyph-name="five.denominator" 
d="M400 -25q-221 0 -357 197l127 125q48 -52 95 -77.5t109 -25.5q50 0 88 36.5t38 85.5q0 53 -34.5 88t-86.5 35q-26 0 -51 -13.5t-39 -34.5l-192 25q10 93 65 555h565v-217h-328l-16 -125q11 1 36 1q142 0 242.5 -88t100.5 -230q0 -147 -100 -242t-262 -95z" />
    <glyph glyph-name="six.denominator" 
d="M684 971l-215 -332q130 -11 222.5 -100t92.5 -226q0 -145 -108 -241.5t-260 -96.5q-155 0 -264 96t-109 242q0 99 50 175l315 483h276zM532 315q0 54 -34 89.5t-84 35.5t-84.5 -35.5t-34.5 -89.5t34.5 -90t84.5 -36t84 36t34 90z" />
    <glyph glyph-name="seven.denominator" 
d="M88 971h658v-190l-321 -781h-280l316 751h-373v220z" />
    <glyph glyph-name="eight.denominator" 
d="M301 301q0 -51 33 -85t81 -34t81 34t33 85t-33 85t-81 34t-81 -34t-33 -85zM737 712q0 -55 -26 -104.5t-70 -80.5q64 -34 101 -98.5t37 -135.5q0 -135 -104.5 -226.5t-259.5 -91.5t-260 91.5t-105 226.5q0 71 37 135t102 99q-44 31 -70 80.5t-26 104.5q0 119 92 201
t230 82q139 0 230.5 -82t91.5 -201zM333 707q0 -36 23.5 -61.5t58.5 -25.5t59 25.5t24 61.5t-23.5 60t-59.5 24t-59 -24t-23 -60z" />
    <glyph glyph-name="nine.denominator" 
d="M145 0l215 331q-130 11 -223 99.5t-93 225.5q0 145 109 242t261 97q155 0 263.5 -96.5t108.5 -242.5q0 -99 -50 -175l-315 -481h-276zM297 654q0 -54 34 -89.5t85 -35.5q50 0 84 35.5t34 89.5t-34 90t-84 36q-51 0 -85 -36t-34 -90z" />
    <glyph glyph-name="dollar_osf" horiz-adv-x="1085" 
d="M87 228l135 161q143 -132 310 -132q68 0 107 25.5t39 69.5q0 45 -41 74.5t-142 50.5q-189 40 -288 140t-99 250q0 157 123.5 258t319.5 101q206 0 327 -106t147 -284h-320q-11 52 -45.5 80t-88.5 28q-50 0 -81.5 -22t-31.5 -60q0 -42 40.5 -72t134.5 -50
q402 -84 402 -390q0 -163 -132 -269t-349 -106q-270 0 -467 253zM692 1110h-305v273h305v-273zM408 61h305v-243h-305v243z" />
    <glyph glyph-name="zero_osf" horiz-adv-x="1028" 
d="M49 550q0 259 123 416.5t342 157.5t341.5 -157.5t122.5 -416.5q0 -260 -122.5 -417.5t-341.5 -157.5t-342 157.5t-123 417.5zM368 550q0 -146 38.5 -226t107.5 -80t107 79.5t38 226.5q0 145 -38 225t-107 80t-107.5 -80t-38.5 -225z" />
    <glyph glyph-name="one_osf" horiz-adv-x="896" 
d="M410 1100h281v-1100h-332v793l-199 -99l-116 228z" />
    <glyph glyph-name="two_osf" horiz-adv-x="955" 
d="M736 467l-219 -202h373v-265h-820v238l416 386q49 46 70.5 78.5t21.5 65.5q0 40 -31.5 64t-83.5 24q-56 0 -92.5 -34t-41.5 -89h-298q7 174 130 282.5t307 108.5q188 0 311 -92.5t123 -238.5q0 -174 -166 -326z" />
    <glyph glyph-name="three_osf" horiz-adv-x="1024" 
d="M635 218q0 72 -50 121.5t-124 49.5q-34 0 -66 -15l-128 160l255 285h-413v281h792v-270l-236 -248q139 -40 219 -147.5t80 -251.5q0 -110 -60.5 -206t-168 -154.5t-235.5 -58.5q-274 0 -437 279l146 144q64 -73 123 -106.5t130 -33.5q74 0 123.5 49.5t49.5 121.5z" />
    <glyph glyph-name="four_osf" horiz-adv-x="1083" 
d="M40 15v259l548 826h298v-808h138v-277h-138v-226h-317v226h-529zM336 292h233v358z" />
    <glyph glyph-name="five_osf" horiz-adv-x="1037" 
d="M508 -236q-273 0 -452 260l153 157q67 -69 128 -101t135 -32q73 0 126 50t53 121q0 74 -50.5 123t-126.5 49q-40 0 -75.5 -17t-56.5 -45l-234 30l87 741h735v-280h-442l-24 -191q35 8 82 8q118 0 216 -52.5t157 -150.5t59 -220q0 -195 -131 -322.5t-339 -127.5z" />
    <glyph glyph-name="six_osf" horiz-adv-x="1094" 
d="M894 1313q-196 -302 -294 -452q117 -6 214.5 -58t158.5 -150t61 -225t-66.5 -232t-177.5 -163t-242 -58q-202 0 -345.5 130t-143.5 323q0 132 67 235l423 650h345zM721 430q0 75 -51 126t-124 51q-72 0 -122.5 -51t-50.5 -126t50.5 -126.5t122.5 -51.5q73 0 124 51.5
t51 126.5z" />
    <glyph glyph-name="seven_osf" horiz-adv-x="918" 
d="M32 1100h862v-248l-437 -1063h-345l429 1026h-509v285z" />
    <glyph glyph-name="eight_osf" horiz-adv-x="1076" 
d="M370 409q0 -70 49 -118t120 -48q70 0 119 48t49 118q0 69 -49 116.5t-119 47.5q-71 0 -120 -47.5t-49 -116.5zM961 962q0 -74 -37 -142t-96 -108q88 -43 138.5 -129.5t50.5 -186.5q0 -179 -137.5 -300t-340.5 -121q-204 0 -342 121t-138 300q0 100 50.5 186.5
t138.5 129.5q-59 40 -95.5 108t-36.5 142q0 158 120.5 266.5t302.5 108.5q181 0 301.5 -108.5t120.5 -266.5zM414 952q0 -50 35.5 -86t89.5 -36q53 0 88.5 36t35.5 86q0 51 -35.5 86t-88.5 35q-54 0 -89.5 -35t-35.5 -86z" />
    <glyph glyph-name="nine_osf" horiz-adv-x="1094" 
d="M200 -211q57 89 164.5 252.5t129.5 196.5q-181 9 -308 126.5t-127 306.5q0 127 66.5 232t178 163t242.5 58q202 0 345 -130t143 -323q0 -133 -66 -235l-423 -647h-345zM373 669q0 -75 50.5 -126t123.5 -51q72 0 122.5 51t50.5 126t-50.5 126.5t-122.5 51.5t-123 -51.5
t-51 -126.5z" />
    <glyph glyph-name="cent_osf" horiz-adv-x="1299" 
d="M1055 470l183 -145q-187 -350 -545 -350q-181 0 -330.5 83t-234 226.5t-84.5 316.5q0 129 48.5 245t132 199t200.5 132t249 49q232 0 389 -124.5t204 -333.5h-383q-52 132 -210 132q-109 0 -185.5 -86.5t-76.5 -212.5q0 -131 83 -215.5t222 -84.5q198 0 338 169z
M827 1110h-325v273h325v-273zM522 61h326v-243h-326v243z" />
    <glyph glyph-name="sterling_osf" horiz-adv-x="1060" 
d="M803 450h-225q-3 -106 -73 -179h464v-271h-845v253q57 27 92.5 72.5t40.5 100.5q6 13 7 24h-145v209h92q-53 111 -53 209q0 150 117.5 252.5t289.5 102.5q181 0 296 -114t120 -274h-287q-7 55 -41.5 84.5t-82.5 29.5q-43 0 -70.5 -26t-27.5 -67q0 -19 7 -45.5t13.5 -43.5
t22.5 -56t21 -52h267v-209z" />
    <glyph glyph-name="yen_osf" horiz-adv-x="1178" 
d="M14 1198h350l225 -427l225 427h349l-322 -552h194v-152h-283l-4 -8v-51h287v-151h-287v-284h-319v284h-288v151h288v51l-5 8h-283v152h195z" />
    <glyph glyph-name="florin_osf" horiz-adv-x="756" 
d="M514 566v-469q0 -156 -99 -239t-283 -83q-67 0 -130 13v243q54 -8 102 -8q96 0 96 79v464h-126v273h126v50q0 156 99 239t283 83q67 0 130 -13v-243q-61 9 -103 9q-95 0 -95 -80v-45h198v-273h-198z" />
    <glyph glyph-name="Euro_osf" horiz-adv-x="1376" 
d="M20 553h96q-1 15 -1 46v25h-95l11 151h107q57 198 222.5 323t383.5 125q219 0 371.5 -117t202.5 -323h-321q-28 70 -100 119t-160 49q-85 0 -157.5 -48t-112.5 -128h388l-57 -151h-371q-1 -8 -1 -25q0 -18 2 -46h352l-58 -153h-242q44 -72 117 -113t166 -41
q197 0 360 195l169 -130q-91 -165 -228 -250.5t-304 -85.5q-218 0 -385 117.5t-230 307.5h-125v153z" />
    <glyph glyph-name="zero.tnum_osf" horiz-adv-x="1116" 
d="M93 550q0 259 123 416.5t342 157.5t341.5 -157.5t122.5 -416.5q0 -260 -122.5 -417.5t-341.5 -157.5t-342 157.5t-123 417.5zM412 550q0 -146 38.5 -226t107.5 -80t107 79.5t38 226.5q0 145 -38 225t-107 80t-107.5 -80t-38.5 -225z" />
    <glyph glyph-name="one.tnum_osf" horiz-adv-x="1116" 
d="M505 1100h281v-1100h-331v793l-200 -99l-116 228z" />
    </font>
</defs>
</svg>
