<?xml version="1.0" standalone="no"?>
<!DOCTYPE svg PUBLIC "-//W3C//DTD SVG 1.1//EN" "http://www.w3.org/Graphics/SVG/1.1/DTD/svg11.dtd" >
<svg xmlns="http://www.w3.org/2000/svg" xmlns:xlink="http://www.w3.org/1999/xlink" version="1.1">
<metadata>
Created by FontForge 20201107 at Tue Jan 23 19:03:48 2024
 By 
Copyright (c) 2017 by Hyun-Seung Lee. All rights reserved.
</metadata>
<defs>
<font id="CarosThin-Italic" horiz-adv-x="786" >
  <font-face 
    font-family="Caros Thin"
    font-weight="100"
    font-style="italic"
    font-stretch="normal"
    units-per-em="2048"
    panose-1="2 11 4 3 3 3 2 2 2 4"
    ascent="1638"
    descent="-410"
    x-height="1061"
    cap-height="1434"
    bbox="-857 -532 2435.33 2010"
    underline-thickness="49"
    underline-position="-423"
    slope="-11"
    unicode-range="U+0009-FB04"
  />
<missing-glyph horiz-adv-x="1024" 
d="M860 0h-696v1536h696v-1536zM209 41h606v1454h-606v-1454z" />
    <glyph glyph-name="ff" unicode="ff" horiz-adv-x="1437" 
d="M1574 1487l-8 -41q-35 8 -95 8q-137 0 -219.5 -82.5t-111.5 -232.5l-16 -78h367l-8 -41h-367l-197 -1020h-46l198 1020h-651l-198 -1020h-45l198 1020h-230l9 41h229l15 80q33 167 134.5 260.5t260.5 93.5q79 0 143 -24l-17 -38q-59 21 -134 21q-142 0 -227.5 -82.5
t-114.5 -232.5l-15 -78h651l16 80q33 167 131.5 260.5t252.5 93.5q43 0 95 -8z" />
    <glyph glyph-name="fi" unicode="fi" horiz-adv-x="1257" 
d="M420 1020l-198 -1020h-45l198 1020h-230l9 41h229l15 80q33 167 134.5 260.5t260.5 93.5q60 0 105 -8l-8 -41q-32 8 -105 8q-142 0 -227.5 -82.5t-114.5 -232.5l-15 -78h696l-205 -1061h-46l198 1020h-651zM1111 1380q4 23 22.5 38.5t41.5 15.5t35 -15.5t8 -38.5t-23 -38
t-42 -15t-35 15t-7 38z" />
    <glyph glyph-name="fl" unicode="fl" horiz-adv-x="1257" 
d="M125 1020l8 41h250l15 80q33 167 131.5 260.5t252.5 93.5q217 0 348 -170l33 170h45l-289 -1495h-46l248 1276q-144 178 -346 178q-137 0 -220 -82.5t-112 -232.5l-15 -78h367l-9 -41h-366l-198 -1020h-45l198 1020h-250z" />
    <glyph glyph-name="ffi" unicode="ffi" horiz-adv-x="1953" 
d="M383 1061l15 80q33 167 134.5 260.5t260.5 93.5q79 0 143 -24l-17 -38q-59 21 -134 21q-142 0 -227.5 -82.5t-114.5 -232.5l-15 -78h651l16 80q33 167 134 260.5t260 93.5q60 0 105 -8l-8 -41q-32 8 -104 8q-142 0 -227.5 -82.5t-114.5 -232.5l-16 -78h697l-206 -1061
h-45l197 1020h-651l-197 -1020h-46l198 1020h-651l-198 -1020h-45l198 1020h-230l9 41h229zM1807 1380q4 23 22.5 38.5t41.5 15.5t35 -15.5t8 -38.5t-23 -38t-42 -15t-35 15t-7 38z" />
    <glyph glyph-name="ffl" unicode="ffl" horiz-adv-x="1953" 
d="M1570 0l248 1276q-144 178 -347 178q-137 0 -219.5 -82.5t-111.5 -232.5l-16 -78h367l-8 -41h-367l-197 -1020h-46l198 1020h-651l-198 -1020h-45l198 1020h-230l9 41h229l15 80q33 167 134.5 260.5t260.5 93.5q79 0 143 -24l-17 -38q-59 21 -134 21q-142 0 -227.5 -82.5
t-114.5 -232.5l-15 -78h651l16 80q33 167 131.5 260.5t252.5 93.5q217 0 348 -170l33 170h45l-290 -1495h-45z" />
    <glyph glyph-name=".notdef" horiz-adv-x="1024" 
d="M860 0h-696v1536h696v-1536zM209 41h606v1454h-606v-1454z" />
    <glyph glyph-name=".null" horiz-adv-x="0" 
 />
    <glyph glyph-name=".null" horiz-adv-x="0" 
 />
    <glyph glyph-name="nonmarkingreturn" horiz-adv-x="682" 
 />
    <glyph glyph-name="CR" unicode="&#x9;" horiz-adv-x="0" 
 />
    <glyph glyph-name="space" unicode=" " horiz-adv-x="589" 
 />
    <glyph glyph-name="exclam" unicode="!" horiz-adv-x="614" 
d="M254 373l207 1061h45l-207 -1061h-45zM157 29q5 23 22.5 38t40.5 15t35 -15t8 -38q-5 -23 -22.5 -38.5t-40.5 -15.5t-35.5 15.5t-7.5 38.5z" />
    <glyph glyph-name="quotedbl" unicode="&#x22;" horiz-adv-x="927" 
d="M659 854l113 580h45l-112 -580h-46zM350 854l113 580h45l-113 -580h-45z" />
    <glyph glyph-name="numbersign" unicode="#" horiz-adv-x="1355" 
d="M1349 975h-259l-193 -524h273l-8 -41h-280l-149 -410h-49l149 410h-461l-149 -410h-49l149 410h-252l8 41h259l192 524h-273l7 41h281l153 418h50l-154 -418h461l153 418h49l-153 -418h252zM580 975l-193 -524h461l192 524h-460z" />
    <glyph glyph-name="dollar" unicode="$" horiz-adv-x="1167" 
d="M63 203l40 35q53 -94 151 -156t218 -66l137 708q-191 45 -281.5 142t-63.5 234q30 154 166.5 256t321.5 102l35 184h46l-36 -186q147 -13 239.5 -104t102.5 -240h-45q-11 129 -93 211t-213 92l-128 -657q211 -49 304.5 -151.5t63.5 -254.5q-30 -157 -176 -263.5
t-343 -112.5l-36 -185h-45l36 185q-134 5 -239.5 68t-161.5 159zM983 348q26 136 -60.5 229.5t-270.5 136.5l-135 -698q176 8 307 101t159 231zM310 1104q-24 -122 59 -207.5t248 -128.5l127 649q-168 -2 -288 -91.5t-146 -221.5z" />
    <glyph glyph-name="percent" unicode="%" horiz-adv-x="1798" 
d="M409 10l1019 1435l33 -23l-1017 -1434zM268 1104q-15 -76 8 -144.5t84.5 -113.5t148.5 -45q131 0 232.5 92t124.5 211q15 76 -7.5 144.5t-83.5 113.5t-148 45q-131 0 -233.5 -92t-125.5 -211zM223 1104q27 136 144 240t267 104q100 0 170.5 -50t97 -128t9.5 -166
q-27 -137 -143.5 -240.5t-266.5 -103.5q-100 0 -170.5 50t-97.5 128t-10 166zM1005 330q-15 -76 7.5 -144.5t84 -113.5t148.5 -45q131 0 233 92t125 211q15 76 -7.5 144.5t-84 113.5t-148.5 45q-131 0 -233 -92t-125 -211zM959 330q27 136 144 240t267 104q100 0 170.5 -50
t97.5 -128t10 -166q-27 -136 -144 -240t-267 -104q-100 0 -170.5 50t-97.5 128t-10 166z" />
    <glyph glyph-name="ampersand" unicode="&#x26;" horiz-adv-x="1455" 
d="M1089 1174h-49q-9 121 -83.5 182t-192.5 61q-125 0 -228 -81.5t-125 -194.5q-11 -54 8 -107t51 -93.5t99 -113.5l463 -506q141 175 214 400l46 -6q-77 -239 -230 -425l260 -284l-33 -31l-258 279q-118 -132 -259 -205.5t-287 -73.5q-184 0 -288.5 115.5t-73.5 276.5
q25 128 133.5 240t271.5 191q-25 28 -41 45.5t-36 41.5t-32 42t-25 40t-19 41t-10.5 41t-4 45t5.5 47q26 131 143.5 224t261.5 93q147 0 227 -73t91 -211zM494 16q134 0 265.5 71t242.5 198l-443 480q-160 -75 -264 -179t-127 -219q-27 -141 68 -246t258 -105z" />
    <glyph glyph-name="quotesingle" unicode="'" horiz-adv-x="624" 
d="M353 854l113 580h45l-113 -580h-45z" />
    <glyph glyph-name="parenleft" unicode="(" horiz-adv-x="825" 
d="M297 625q54 278 208 532.5t362 419.5l25 -29q-204 -163 -351 -409t-199 -514q-52 -269 -0.5 -515t192.5 -409l-37 -29q-143 165 -198.5 420.5t-1.5 532.5z" />
    <glyph glyph-name="parenright" unicode=")" horiz-adv-x="825" 
d="M565 625q-54 -278 -208 -533t-362 -420l-25 29q204 163 351 409.5t199 514.5q52 269 1 514.5t-192 408.5l37 29q144 -165 198.5 -419.5t0.5 -532.5z" />
    <glyph glyph-name="asterisk" unicode="*" horiz-adv-x="1101" 
d="M247 926l320 -209l78 416h45l-82 -416l401 209l15 -39l-402 -207l321 -207l-30 -39l-319 209l-79 -416h-45l83 416l-401 -209l-16 39l404 207l-323 207z" />
    <glyph glyph-name="plus" unicode="+" horiz-adv-x="1138" 
d="M485 215l87 444h-428l8 41h428l87 445h45l-87 -445h428l-7 -41h-429l-87 -444h-45z" />
    <glyph glyph-name="comma" unicode="," horiz-adv-x="589" 
d="M141 32q5 25 24 41.5t44 16.5q26 0 38.5 -18.5t5.5 -51.5q-13 -67 -50.5 -127t-126.5 -137l-27 30q69 64 88.5 114t3.5 98q-5 17 0 34z" />
    <glyph glyph-name="hyphen" unicode="-" horiz-adv-x="798" 
d="M708 659h-566l8 41h565z" />
    <glyph glyph-name="period" unicode="." horiz-adv-x="589" 
d="M141 33q4 25 24 41t45 16t38 -16t8 -41q-4 -25 -24 -41.5t-45 -16.5t-38 16.5t-8 41.5z" />
    <glyph glyph-name="slash" unicode="/" horiz-adv-x="907" 
d="M1019 1527l-1054 -1823l-41 20l1054 1822z" />
    <glyph glyph-name="zero" unicode="0" horiz-adv-x="1179" 
d="M166 717q31 159 86 292.5t130.5 234.5t175.5 157.5t212 56.5q90 0 158.5 -37t109.5 -103.5t60.5 -159t16 -204t-27.5 -237.5q-42 -213 -124 -378t-207 -264.5t-274 -99.5q-90 0 -158.5 37t-109.5 104t-60.5 159.5t-16 204t28.5 237.5zM211 717q-31 -144 -28 -272t33 -223
t100.5 -150.5t173.5 -55.5q137 0 251 96.5t188 251.5t113 353q31 144 28 271.5t-33 223t-100.5 150.5t-173.5 55t-194.5 -55t-160 -151.5t-118.5 -221.5t-79 -272z" />
    <glyph glyph-name="one" unicode="1" horiz-adv-x="1179" 
d="M838 1434h45l-279 -1434h-45l269 1386l-406 -212l-12 38z" />
    <glyph glyph-name="two" unicode="2" horiz-adv-x="1179" 
d="M870 709l-713 -668h739l-7 -41h-801l7 41l744 692q196 184 233 369q25 131 -60.5 223t-238.5 92q-146 0 -259.5 -92t-159.5 -238l-45 2q48 160 175 264.5t296 104.5q172 0 269 -103.5t68 -252.5q-39 -198 -247 -393z" />
    <glyph glyph-name="three" unicode="3" horiz-adv-x="1179" 
d="M932 414q33 168 -69.5 282.5t-281.5 114.5q-80 0 -139 -20l-17 28l630 574h-690l8 41h743l-8 -41l-602 -549q37 8 83 8q202 0 313 -126.5t75 -311.5t-196 -312t-362 -127q-134 0 -225.5 58.5t-134.5 161.5l37 30q37 -95 123.5 -152t207.5 -57q179 0 325.5 115t179.5 283z
" />
    <glyph glyph-name="four" unicode="4" horiz-adv-x="1179" 
d="M51 352l8 41l910 1041h45l-203 -1041h215l-8 -41h-215l-68 -352h-45l68 352h-707zM117 393h649l187 965z" />
    <glyph glyph-name="five" unicode="5" horiz-adv-x="1179" 
d="M443 -25q-122 0 -214.5 59t-141.5 152l35 31q43 -92 130 -146.5t200 -54.5q177 0 318 115.5t175 288.5t-63 288t-274 115q-105 0 -198.5 -48.5t-154.5 -125.5l-28 4l238 781h670l-9 -41h-628l-207 -662q62 60 148 96.5t182 36.5q191 0 298.5 -127t70.5 -317
q-24 -126 -105.5 -228t-198 -159.5t-243.5 -57.5z" />
    <glyph glyph-name="six" unicode="6" horiz-adv-x="1179" 
d="M911 1434l-540 -650q133 88 283 88q126 0 220 -59t135 -162t17 -227q-37 -189 -195.5 -319t-350.5 -130q-94 0 -172.5 35t-128 94.5t-69 143t-1.5 176.5q24 126 110 233l639 777h53zM154 424q-33 -170 64 -289t270 -119t316.5 119t176.5 289t-64.5 288.5t-270.5 118.5
t-316 -118.5t-176 -288.5z" />
    <glyph glyph-name="seven" unicode="7" horiz-adv-x="1179" 
d="M354 1434h832l-8 -41l-873 -1393h-53l872 1393h-778z" />
    <glyph glyph-name="eight" unicode="8" horiz-adv-x="1179" 
d="M362 1110q-25 -129 56 -218t225 -89t259 89t140 218q26 129 -54.5 218t-224.5 89t-259.5 -89t-141.5 -218zM148 389q-30 -155 69 -264t273 -109t315 109t171 264t-68.5 264t-272.5 109q-114 0 -219.5 -50t-176.5 -136t-91 -187zM1087 1110q-22 -112 -111.5 -204
t-217.5 -122q148 -38 219 -146.5t44 -248.5q-33 -172 -189.5 -293t-349.5 -121t-302.5 121t-76.5 293q27 139 141 248t276 147q-117 30 -171 122t-32 204q29 148 159.5 248t293.5 100t254.5 -100t62.5 -248z" />
    <glyph glyph-name="nine" unicode="9" horiz-adv-x="1179" 
d="M342 0l540 649q-133 -88 -284 -88q-126 0 -220 59t-135 162.5t-17 227.5q37 189 195.5 318.5t350.5 129.5q126 0 220 -59t135 -162t17 -227q-24 -125 -111 -234l-638 -776h-53zM1099 1010q33 170 -64 288.5t-270 118.5t-317 -118.5t-177 -288.5t64.5 -289t270.5 -119
t316.5 119t176.5 289z" />
    <glyph glyph-name="colon" unicode=":" horiz-adv-x="589" 
d="M141 33q4 25 24 41t45 16t38 -16t8 -41q-4 -25 -24 -41.5t-45 -16.5t-38 16.5t-8 41.5zM335 1028q4 25 23.5 41t44.5 16t38 -16t9 -41q-5 -25 -24.5 -41t-44.5 -16t-38 16t-8 41z" />
    <glyph glyph-name="semicolon" unicode=";" horiz-adv-x="589" 
d="M335 1028q4 25 23.5 41t44.5 16t38 -16t9 -41q-5 -25 -24.5 -41t-44.5 -16t-38 16t-8 41zM141 32q5 25 24 41.5t44 16.5q26 0 38.5 -18.5t5.5 -51.5q-13 -67 -50.5 -127t-126.5 -137l-27 30q69 64 88.5 114t3.5 98q-5 17 0 34z" />
    <glyph glyph-name="less" unicode="&#x3c;" horiz-adv-x="1138" 
d="M182 696l922 502l18 -38l-888 -480l701 -480l-33 -38l-727 502z" />
    <glyph glyph-name="equal" unicode="=" horiz-adv-x="1138" 
d="M1093 905h-902l9 41h901zM997 414h-901l8 41h902z" />
    <glyph glyph-name="greater" unicode="&#x3e;" horiz-adv-x="1138" 
d="M295 1198l727 -502l-7 -32l-922 -502l-18 38l889 480l-702 480z" />
    <glyph glyph-name="question" unicode="?" horiz-adv-x="1085" 
d="M464 393h-45q29 147 98 235.5t209 164.5q77 42 118 68t81 63t60.5 80t32.5 103q27 136 -58 223t-253 87q-150 0 -275.5 -69.5t-185.5 -210.5h-45q64 158 203.5 239.5t309.5 81.5q184 0 281.5 -97.5t67.5 -253.5q-23 -115 -89 -189.5t-215 -148.5q-135 -69 -201.5 -153.5
t-93.5 -222.5zM323 29q5 23 22.5 38t40.5 15t35 -15t8 -38q-5 -23 -22.5 -38.5t-40.5 -15.5t-35.5 15.5t-7.5 38.5z" />
    <glyph glyph-name="at" unicode="@" horiz-adv-x="1906" 
d="M1013 946q-147 0 -264.5 -113t-149.5 -282q-33 -169 40.5 -282t219.5 -113q147 0 265 113.5t150 281.5q21 111 -4.5 201t-92.5 142t-164 52zM1405 115q-83 0 -131 73.5t-33 167.5q-61 -105 -161.5 -173t-215.5 -68q-166 0 -256 125.5t-54 310.5t175 310.5t305 125.5
q111 0 182.5 -62.5t97.5 -164.5l40 207h45l-113 -578q-19 -99 19 -166t108 -67q126 0 239 136.5t151 330.5q32 165 -3.5 312t-125.5 252.5t-232 167.5t-316 62q-230 0 -443 -113.5t-361 -309.5t-194 -431q-25 -119 -15.5 -229t42.5 -204.5t96 -172t144.5 -133t188 -85.5
t226.5 -30q140 0 287 43t276 125l11 -39q-273 -170 -581 -170q-127 0 -238.5 31.5t-198 89t-152.5 138.5t-101.5 180.5t-45.5 215t16 240.5q36 185 136.5 351t240.5 285t316.5 189t357.5 70q183 0 333 -64.5t244.5 -175.5t132.5 -266t4 -329q-27 -139 -95 -256
t-160.5 -184.5t-187.5 -67.5z" />
    <glyph glyph-name="A" unicode="A" horiz-adv-x="1351" 
d="M1122 0l-91 442h-745l-261 -442h-54l858 1434h45l302 -1434h-54zM841 1376l-531 -893h713z" />
    <glyph glyph-name="B" unicode="B" horiz-adv-x="1230" 
d="M557 0h-463l279 1434h442q176 0 265 -102t59 -255q-25 -128 -119.5 -219t-215.5 -113q146 -16 228.5 -112t52.5 -250q-32 -167 -180.5 -275t-347.5 -108zM1040 383q29 150 -67.5 245t-281.5 95h-411l-134 -682h412q186 0 319.5 95t162.5 247zM288 764h393q156 0 271 87.5
t142 225.5q27 139 -54 227.5t-237 88.5h-393z" />
    <glyph glyph-name="C" unicode="C" horiz-adv-x="1575" 
d="M1576 988h-49q-40 192 -185.5 310.5t-356.5 118.5q-140 0 -277 -55.5t-245 -149.5t-186 -223.5t-106 -271.5q-37 -190 21 -351t196 -255.5t325 -94.5q190 0 366.5 98t296.5 263l33 -27q-127 -172 -314 -273.5t-390 -101.5q-150 0 -273.5 57t-199 157t-107.5 235.5
t1 292.5q40 206 168 376t313 267.5t385 97.5q231 0 388.5 -129t195.5 -341z" />
    <glyph glyph-name="D" unicode="D" horiz-adv-x="1385" 
d="M373 1434h434q201 0 335 -92t182.5 -254t8.5 -371q-62 -318 -282 -517.5t-523 -199.5h-434zM799 1393h-389l-264 -1352h390q282 0 487.5 188.5t264.5 487.5q38 196 -7 349t-170 240t-312 87z" />
    <glyph glyph-name="E" unicode="E" horiz-adv-x="1122" 
d="M94 0l279 1434h770l-8 -41h-725l-127 -652h665l-8 -41h-666l-128 -659h744l-7 -41h-789z" />
    <glyph glyph-name="F" unicode="F" horiz-adv-x="1036" 
d="M94 0l279 1434h749l-8 -41h-704l-126 -650h645l-8 -41h-646l-136 -702h-45z" />
    <glyph glyph-name="G" unicode="G" horiz-adv-x="1624" 
d="M1567 693q-44 -201 -173 -365.5t-311 -258.5t-378 -94q-150 0 -273.5 57t-199 157t-107.5 235.5t1 292.5q40 206 168 376t313 267.5t385 97.5q221 0 376 -118.5t201 -314.5h-51q-48 177 -190.5 284.5t-342.5 107.5q-140 0 -277 -55.5t-245 -149.5t-186 -223.5
t-106 -271.5q-37 -190 21 -351t196 -255.5t325 -94.5q176 0 341.5 84.5t285.5 230t170 321.5h-629l8 41h678z" />
    <glyph glyph-name="H" unicode="H" horiz-adv-x="1384" 
d="M94 0l279 1434h45l-135 -693h901l135 693h45l-279 -1434h-45l136 700h-902l-135 -700h-45z" />
    <glyph glyph-name="I" unicode="I" horiz-adv-x="565" 
d="M436 1434h45l-278 -1434h-45z" />
    <glyph glyph-name="J" unicode="J" horiz-adv-x="888" 
d="M642 397l202 1037h45l-202 -1037q-40 -206 -156 -314t-286 -108q-70 0 -141.5 19t-123.5 51l24 43q47 -32 115.5 -52t129.5 -20q151 0 254 98t139 283z" />
    <glyph glyph-name="K" unicode="K" horiz-adv-x="1185" 
d="M1192 1434h47q-59 -306 -207 -487t-362 -229l372 -718h-57l-368 708q-56 -8 -108 -8h-235l-135 -700h-45l279 1434h45l-135 -693h232q164 0 299 75t234 232.5t144 385.5z" />
    <glyph glyph-name="L" unicode="L" horiz-adv-x="1054" 
d="M94 0l279 1434h45l-272 -1393h744l-7 -41h-789z" />
    <glyph glyph-name="M" unicode="M" horiz-adv-x="1839" 
d="M878 244h-27l-453 1093l-259 -1337h-45l279 1434h43l461 -1125l899 1125h43l-279 -1434h-45l259 1337z" />
    <glyph glyph-name="N" unicode="N" horiz-adv-x="1404" 
d="M94 0l279 1434h41l662 -1352l263 1352h45l-278 -1434h-41l-664 1352l-262 -1352h-45z" />
    <glyph glyph-name="O" unicode="O" horiz-adv-x="1624" 
d="M171 717q-37 -190 21 -351t196 -255.5t325 -94.5t361.5 94.5t294.5 255.5t158 351q20 116 9 220.5t-57.5 192.5t-116.5 151.5t-167.5 99.5t-209.5 36q-140 0 -277 -55.5t-245 -149.5t-186 -223.5t-106 -271.5zM126 717q40 206 168 376t313 267.5t385 97.5q120 0 224 -37
t179 -103.5t125 -159t62 -204t-10 -237.5q-30 -154 -113 -292t-198.5 -236.5t-260.5 -156t-295 -57.5t-273.5 57t-199 157t-107.5 235.5t1 292.5z" />
    <glyph glyph-name="P" unicode="P" horiz-adv-x="1148" 
d="M594 602h-338l-117 -602h-45l279 1434h383q216 0 327.5 -114t74.5 -302t-192.5 -302t-371.5 -114zM1113 1018q32 169 -68 272t-297 103h-338l-146 -750h338q197 0 337.5 103t173.5 272z" />
    <glyph glyph-name="Q" unicode="Q" horiz-adv-x="1624" 
d="M126 717q40 206 168 376t313 267.5t385 97.5q120 0 224 -37t179 -103.5t125 -159t62 -204t-10 -237.5q-33 -168 -127 -313.5t-230 -249.5l169 -230l-38 -30l-171 231q-223 -150 -470 -150q-150 0 -273.5 57t-199 157t-107.5 235.5t1 292.5zM171 717q-37 -190 21 -351
t196 -255.5t325 -94.5q227 0 437 142l-271 368l39 31l273 -371q128 98 217 236.5t119 294.5q20 116 9 220.5t-57.5 192.5t-116.5 151.5t-167.5 99.5t-209.5 36q-140 0 -277 -55.5t-245 -149.5t-186 -223.5t-106 -271.5z" />
    <glyph glyph-name="R" unicode="R" horiz-adv-x="1187" 
d="M256 602l-117 -602h-45l279 1434h383q216 0 327.5 -114t74.5 -302q-33 -173 -170 -285t-331 -129l322 -604h-53l-320 602h-350zM1113 1018q32 169 -68 272t-297 103h-338l-146 -750h338q197 0 337.5 103t173.5 272z" />
    <glyph glyph-name="S" unicode="S" horiz-adv-x="1167" 
d="M63 203l40 35q55 -97 158.5 -159.5t228.5 -62.5q185 0 325 94t168 238q27 139 -65 234t-287 137q-201 43 -297.5 141.5t-69.5 239.5q30 154 166.5 256t321.5 102q165 0 271 -93t116 -253h-45q-12 139 -104 222t-239 83q-170 0 -292.5 -90t-148.5 -223q-25 -129 68 -216.5
t275 -127.5q215 -47 310 -150.5t65 -257.5q-31 -161 -184.5 -269t-357.5 -108q-141 0 -252.5 64t-170.5 164z" />
    <glyph glyph-name="T" unicode="T" horiz-adv-x="1089" 
d="M420 0l270 1393h-452l8 41h950l-8 -41h-453l-270 -1393h-45z" />
    <glyph glyph-name="U" unicode="U" horiz-adv-x="1331" 
d="M1331 1434l-186 -955q-43 -224 -205.5 -363t-381.5 -139q-218 0 -326.5 139t-65.5 363l186 955h45l-186 -955q-39 -203 60 -332t295 -129t345.5 129t188.5 332l186 955h45z" />
    <glyph glyph-name="V" unicode="V" horiz-adv-x="1343" 
d="M580 57l817 1377h53l-858 -1434h-45l-301 1434h53z" />
    <glyph glyph-name="W" unicode="W" horiz-adv-x="1900" 
d="M1155 1434l133 -1371l670 1371h49l-702 -1434h-58l-133 1370l-665 -1370h-58l-145 1434h49l137 -1371l666 1371h57z" />
    <glyph glyph-name="X" unicode="X" horiz-adv-x="1251" 
d="M-36 0l672 729l-375 705h57l354 -665l613 665h57l-649 -705l389 -729h-57l-368 690l-635 -690h-58z" />
    <glyph glyph-name="Y" unicode="Y" horiz-adv-x="1298" 
d="M303 1434l367 -799l678 799h57l-722 -846l-114 -588h-45l114 588l-392 846h57z" />
    <glyph glyph-name="Z" unicode="Z" horiz-adv-x="1192" 
d="M33 41l1139 1352h-845l8 41h895l-8 -41l-1140 -1352h897l-7 -41h-946z" />
    <glyph glyph-name="bracketleft" unicode="[" horiz-adv-x="825" 
d="M104 -287l355 1823h483l-8 -41h-438l-338 -1741h438l-8 -41h-484z" />
    <glyph glyph-name="backslash" unicode="\" horiz-adv-x="907" 
d="M620 -296l-346 1823l50 19l345 -1822z" />
    <glyph glyph-name="bracketright" unicode="]" horiz-adv-x="825" 
d="M758 1536l-355 -1823h-483l8 41h439l338 1741h-439l8 41h484z" />
    <glyph glyph-name="asciicircum" unicode="^" horiz-adv-x="1218" 
d="M761 1434h49l190 -374l-48 -28l-177 352l-314 -352l-36 28z" />
    <glyph glyph-name="underscore" unicode="_" horiz-adv-x="1024" 
d="M-160 -299l8 41h1023l-8 -41h-1023z" />
    <glyph glyph-name="grave" unicode="`" horiz-adv-x="825" 
d="M414 1509l224 -329l-39 -28l-225 330z" />
    <glyph glyph-name="a" unicode="a" horiz-adv-x="1282" 
d="M87 530q22 113 82 215.5t143 176.5t186.5 118t209.5 44q158 0 265.5 -92t137.5 -243l60 312h46l-206 -1061h-45l60 312q-89 -151 -232 -243t-301 -92q-141 0 -245 74t-147 201t-14 278zM133 530q-27 -141 11.5 -259t133 -186.5t224.5 -68.5t250.5 68.5t204.5 186.5
t111 259t-11 259.5t-132 187.5t-224 69t-251 -69t-205.5 -187.5t-111.5 -259.5z" />
    <glyph glyph-name="b" unicode="b" horiz-adv-x="1282" 
d="M1195 530q-29 -151 -122 -278t-225.5 -201t-273.5 -74q-158 0 -266 92t-136 243l-60 -312h-45l289 1495h45l-144 -746q87 151 231 243t302 92q141 0 244.5 -74t146.5 -201.5t14 -278.5zM1149 530q27 141 -11.5 259.5t-132.5 187.5t-224 69q-97 0 -192 -41t-170 -110
t-130 -164.5t-75 -200.5q-27 -141 11.5 -259t132.5 -186.5t224 -68.5q97 0 192 40.5t170 109.5t130 164t75 200z" />
    <glyph glyph-name="c" unicode="c" horiz-adv-x="1190" 
d="M1013 275l30 -26q-96 -125 -233 -199.5t-288 -74.5q-115 0 -208 45t-148 121t-79 177t0 212q22 110 83 211.5t146.5 177.5t196 121t225.5 45q154 0 264 -77t155 -206h-52q-45 110 -143.5 176t-231.5 66q-139 0 -268 -71.5t-216.5 -189.5t-113.5 -253t15 -253
t142.5 -189.5t240.5 -71.5t267 70.5t216 188.5z" />
    <glyph glyph-name="d" unicode="d" horiz-adv-x="1282" 
d="M87 530q22 113 82 215.5t143 176.5t186.5 118t209.5 44q158 0 265.5 -92t137.5 -243l144 746h45l-289 -1495h-45l60 312q-89 -151 -232 -243t-301 -92q-141 0 -245 74t-147 201t-14 278zM133 530q-27 -141 11.5 -259t133 -186.5t224.5 -68.5t250.5 68.5t204.5 186.5
t111 259t-11 259.5t-132 187.5t-224 69t-251 -69t-205.5 -187.5t-111.5 -259.5z" />
    <glyph glyph-name="e" unicode="e" horiz-adv-x="1215" 
d="M131 524q-25 -136 14.5 -251.5t140.5 -186t244 -70.5q117 0 228 52t201 145l27 -31q-91 -95 -213 -151t-251 -56q-157 0 -267.5 76t-153.5 202.5t-14 276.5q29 149 121.5 276t230 203t287.5 76q145 0 249 -70t145.5 -189.5t13.5 -262.5q-3 -15 -12 -39h-991zM718 1044
q-195 0 -361 -141t-217 -338h949q33 208 -71.5 343.5t-299.5 135.5z" />
    <glyph glyph-name="f" unicode="f" horiz-adv-x="741" 
d="M878 1487l-9 -41q-35 8 -94 8q-137 0 -220 -82.5t-112 -232.5l-15 -78h367l-9 -41h-366l-198 -1020h-45l198 1020h-250l8 41h250l15 80q33 167 131.5 260.5t252.5 93.5q44 0 96 -8z" />
    <glyph glyph-name="g" unicode="g" horiz-adv-x="1282" 
d="M87 530q22 113 82 215.5t143 176.5t186.5 118t209.5 44q158 0 265.5 -92t137.5 -243l60 312h46l-213 -1096q-37 -194 -192.5 -317t-360.5 -123q-260 0 -403 205l38 34q57 -91 151 -144.5t222 -53.5q186 0 325.5 111t173.5 288l68 347q-89 -151 -232 -243t-301 -92
q-141 0 -245 74t-147 201t-14 278zM133 530q-27 -141 11.5 -259t133 -186.5t224.5 -68.5t250.5 68.5t204.5 186.5t111 259t-11 259.5t-132 187.5t-224 69t-251 -69t-205.5 -187.5t-111.5 -259.5z" />
    <glyph glyph-name="h" unicode="h" horiz-adv-x="1199" 
d="M744 1085q188 0 277.5 -119.5t53.5 -306.5l-128 -659h-45l127 655q21 109 -4.5 196.5t-100.5 140t-188 52.5q-167 0 -318.5 -124t-183.5 -285l-122 -635h-45l289 1495h45l-134 -692q76 123 208 202.5t269 79.5z" />
    <glyph glyph-name="i" unicode="i" horiz-adv-x="518" 
d="M134 0l206 1061h45l-206 -1061h-45zM372 1380q4 23 22 38.5t41 15.5t35 -15.5t8 -38.5t-22.5 -38t-41.5 -15t-35 15t-7 38z" />
    <glyph glyph-name="j" unicode="j" horiz-adv-x="518" 
d="M89 -229l251 1290h45l-251 -1290q-22 -115 -97.5 -180.5t-168.5 -65.5q-37 0 -73 4l8 41q38 -4 73 -4q76 0 134.5 53.5t78.5 151.5zM372 1380q4 23 22 38.5t41 15.5t35 -15.5t8 -38.5t-22.5 -38t-41.5 -15t-35 15t-7 38z" />
    <glyph glyph-name="k" unicode="k" horiz-adv-x="1020" 
d="M975 1061h45q-39 -201 -158.5 -325t-295.5 -156l320 -580h-60l-315 572q-33 -3 -67 -3h-222l-110 -569h-45l289 1495h45l-172 -885h225q202 0 340.5 116.5t180.5 334.5z" />
    <glyph glyph-name="l" unicode="l" horiz-adv-x="518" 
d="M134 0l290 1495h45l-290 -1495h-45z" />
    <glyph glyph-name="m" unicode="m" horiz-adv-x="1870" 
d="M1457 1085q93 0 159 -32t99 -89t42.5 -135t-10.5 -170l-128 -659h-45l127 655q18 81 11 151.5t-34 123.5t-85.5 83.5t-143.5 30.5q-163 0 -296 -121.5t-165 -287.5l-123 -635h-45l127 655q18 81 11 151.5t-34 123.5t-85.5 83.5t-143.5 30.5q-163 0 -296 -121.5
t-165 -287.5l-122 -635h-45l205 1061h45l-47 -243q70 119 186 193t247 74q151 0 226.5 -80t76.5 -220q67 132 189.5 216t261.5 84z" />
    <glyph glyph-name="n" unicode="n" horiz-adv-x="1199" 
d="M744 1085q188 0 277.5 -119.5t53.5 -306.5l-128 -659h-45l127 655q21 109 -4.5 196.5t-100.5 140t-188 52.5q-167 0 -318.5 -124t-183.5 -285l-122 -635h-45l205 1061h45l-50 -258q76 123 208 202.5t269 79.5z" />
    <glyph glyph-name="o" unicode="o" horiz-adv-x="1259" 
d="M530 16q104 0 205.5 42t180.5 112.5t135 164.5t76 195q26 135 -15 253t-142 189.5t-240 71.5t-268 -71.5t-216.5 -189.5t-113.5 -253t15 -253t142.5 -189.5t240.5 -71.5zM738 1085q115 0 208 -45t148 -121t78.5 -177t-0.5 -212q-21 -110 -82 -211.5t-146.5 -177.5
t-196 -121t-225.5 -45t-208 45t-148 121t-79 177t0 212q22 110 83 211.5t146.5 177.5t196 121t225.5 45z" />
    <glyph glyph-name="p" unicode="p" horiz-adv-x="1282" 
d="M1195 530q-29 -151 -122 -278t-225.5 -201t-273.5 -74q-158 0 -266 92t-136 243l-154 -787h-45l299 1536h45l-60 -312q87 151 231 243t302 92q141 0 244.5 -74t146.5 -201.5t14 -278.5zM1149 530q27 141 -11.5 259.5t-132.5 187.5t-224 69q-97 0 -192 -41t-170 -110
t-130 -164.5t-75 -200.5q-27 -141 11.5 -259t132.5 -186.5t224 -68.5q97 0 192 40.5t170 109.5t130 164t75 200z" />
    <glyph glyph-name="q" unicode="q" horiz-adv-x="1282" 
d="M87 530q22 113 82 215.5t143 176.5t186.5 118t209.5 44q158 0 265.5 -92t137.5 -243l60 312h46l-299 -1536h-46l154 787q-89 -151 -232 -243t-301 -92q-141 0 -245 74t-147 201t-14 278zM133 530q-27 -141 11.5 -259t133 -186.5t224.5 -68.5t250.5 68.5t204.5 186.5
t111 259t-11 259.5t-132 187.5t-224 69t-251 -69t-205.5 -187.5t-111.5 -259.5z" />
    <glyph glyph-name="r" unicode="r" horiz-adv-x="758" 
d="M827 1078l-15 -41q-42 7 -76 7q-167 0 -318.5 -124t-183.5 -285l-122 -635h-45l205 1061h45l-50 -258q76 123 208 202.5t269 79.5q47 0 83 -7z" />
    <glyph glyph-name="s" unicode="s" horiz-adv-x="925" 
d="M13 152l34 36q45 -80 129.5 -126t196.5 -46q146 0 246.5 68.5t121.5 177.5q20 100 -56 171t-224 99q-160 30 -234.5 103t-54.5 174q22 115 135 195.5t261 80.5q57 0 105.5 -12.5t90.5 -39t68.5 -74.5t31.5 -113h-45q-10 101 -81.5 149.5t-177.5 48.5q-131 0 -227.5 -69
t-115.5 -166q-17 -82 53 -145t212 -91q166 -31 247 -111t57 -200q-25 -126 -138.5 -206.5t-282.5 -80.5q-236 0 -352 177z" />
    <glyph glyph-name="t" unicode="t" horiz-adv-x="754" 
d="M429 1020l-140 -721q-55 -283 208 -283q57 0 105 9l-8 -41q-70 -9 -106 -9q-152 0 -213 83t-31 241l140 721h-258l8 41h258l59 303l46 4l-60 -307h355l-9 -41h-354z" />
    <glyph glyph-name="u" unicode="u" horiz-adv-x="1199" 
d="M456 -25q-188 0 -278 119.5t-53 306.5l128 660h45l-128 -655q-21 -109 5 -196.5t101 -140.5t188 -53q167 0 318.5 124.5t182.5 285.5l124 635h45l-206 -1061h-45l49 258q-77 -124 -208.5 -203.5t-267.5 -79.5z" />
    <glyph glyph-name="v" unicode="v" horiz-adv-x="1036" 
d="M1091 1061l-653 -1061h-45l-240 1061h53l222 -995l609 995h54z" />
    <glyph glyph-name="w" unicode="w" horiz-adv-x="1548" 
d="M855 1061h45l125 -977l524 977h54l-571 -1061h-45l-126 977l-505 -977h-45l-158 1061h53l143 -977z" />
    <glyph glyph-name="x" unicode="x" horiz-adv-x="1036" 
d="M-53 0l546 547l-314 514h58l291 -478l479 478h57l-514 -514l335 -547h-58l-313 511l-510 -511h-57z" />
    <glyph glyph-name="y" unicode="y" horiz-adv-x="1056" 
d="M103 -475l308 493l-258 1043h53l243 -981l609 981h53l-954 -1536h-54z" />
    <glyph glyph-name="z" unicode="z" horiz-adv-x="1005" 
d="M6 0l7 41l897 979h-680l9 41h737l-8 -41l-897 -979h727l-7 -41h-785z" />
    <glyph glyph-name="braceleft" unicode="{" horiz-adv-x="825" 
d="M183 604l8 41q101 0 182 65t100 160l73 375q24 123 121.5 207t217.5 84h69l-8 -41h-69q-101 0 -183.5 -72.5t-102.5 -177.5l-73 -375q-18 -92 -81 -155.5t-151 -89.5q78 -26 116.5 -90t19.5 -156l-73 -375q-20 -105 34.5 -177.5t155.5 -72.5h69l-8 -41h-70
q-120 0 -185 84t-41 207l73 375q19 95 -37 160t-157 65z" />
    <glyph glyph-name="bar" unicode="|" horiz-adv-x="645" 
d="M141 -287l355 1823h45l-355 -1823h-45z" />
    <glyph glyph-name="braceright" unicode="}" horiz-adv-x="825" 
d="M679 645l-8 -41q-101 0 -181.5 -64.5t-100.5 -160.5l-73 -375q-24 -123 -121.5 -207t-217.5 -84h-69l8 41h70q101 0 183 72.5t102 177.5l73 375q19 92 82 156t151 90q-78 26 -116.5 89.5t-20.5 155.5l73 375q20 105 -34 177.5t-155 72.5h-70l8 41h70q120 0 185 -84
t41 -207l-73 -375q-19 -95 37 -160t157 -65z" />
    <glyph glyph-name="asciitilde" unicode="~" horiz-adv-x="1138" 
d="M813 506q-42 0 -78 12.5t-65.5 37t-48.5 46t-43 53.5q-32 40 -55 65t-65 50t-85 25q-176 0 -258 -240l-42 10q42 128 121.5 199.5t186.5 71.5q42 0 78 -12.5t65.5 -37.5t48.5 -46.5t43 -53.5q30 -39 54 -64.5t65.5 -50t84.5 -24.5q177 0 259 239l42 -10
q-42 -128 -121.5 -199t-186.5 -71z" />
    <glyph glyph-name="uni00A0" unicode="&#xa0;" horiz-adv-x="589" 
 />
    <glyph glyph-name="exclamdown" unicode="&#xa1;" horiz-adv-x="614" 
d="M110 -373l205 1061h45l-205 -1061h-45zM351 1032q4 23 23 38t42 15t35 -15t7 -38q-4 -23 -22 -38t-42 -15q-23 0 -35 15t-8 38z" />
    <glyph glyph-name="cent" unicode="&#xa2;" horiz-adv-x="1190" 
d="M1013 275l30 -26q-93 -121 -224.5 -195t-276.5 -78l-32 -164h-45l32 164q-145 6 -249.5 84t-146.5 202t-14 268q43 220 222.5 382t402.5 172l32 165h46l-32 -164q146 -5 250.5 -81.5t148.5 -201.5h-52q-43 106 -136 171.5t-219 70.5l-200 -1028q133 5 255.5 75.5
t207.5 183.5zM132 530q-25 -131 13 -246t133 -188t227 -80l200 1027q-134 -7 -257.5 -79.5t-207 -187.5t-108.5 -246z" />
    <glyph glyph-name="sterling" unicode="&#xa3;" horiz-adv-x="1140" 
d="M344 631h-175l8 41h160q-6 31 -14 61q-52 173 -26 314q34 172 176 291.5t312 119.5q85 0 154 -32.5t109 -84t57 -114.5t7 -125h-43q12 75 -18 147t-102.5 120t-170.5 48q-152 0 -279 -107.5t-157 -262.5q-23 -123 23 -294q9 -31 19 -81h471l-8 -41h-457q17 -111 1 -199
q-22 -110 -94.5 -213.5t-170.5 -177.5h799l-7 -41h-865l7 39q112 79 188.5 183t97.5 210q15 85 -2 199z" />
    <glyph glyph-name="currency" unicode="&#xa4;" horiz-adv-x="1241" 
d="M207 668q34 171 170 296l-165 203l37 31l165 -203q149 115 319 115q173 0 275 -115l244 203l25 -31l-245 -203q89 -126 55 -296q-34 -172 -169 -297l164 -203l-35 -31l-166 203q-147 -115 -320 -115t-274 115l-244 -203l-26 31l245 203q-89 128 -55 297zM252 668
q-32 -167 60 -284.5t257 -117.5t303 117.5t170 284.5q33 167 -59.5 284t-257.5 117t-302.5 -117t-170.5 -284z" />
    <glyph glyph-name="yen" unicode="&#xa5;" horiz-adv-x="1298" 
d="M303 1434l359 -783h21l665 783h57l-668 -783h386l-8 -41h-414l-18 -22l-28 -142h428l-8 -40h-428l-78 -406h-45l78 406h-428l8 40h428l28 142l-11 22h-413l8 41h386l-362 783h57z" />
    <glyph glyph-name="brokenbar" unicode="&#xa6;" horiz-adv-x="645" 
d="M337 717l159 819h45l-159 -819h-45zM141 -287l160 819h45l-160 -819h-45z" />
    <glyph glyph-name="section" unicode="&#xa7;" horiz-adv-x="1001" 
d="M912 639q-22 -114 -110 -180t-224 -86q137 -48 192 -116.5t35 -170.5q-27 -138 -147.5 -214.5t-293.5 -76.5q-107 0 -203.5 42.5t-164.5 121.5l29 25q65 -73 160.5 -112.5t193.5 -39.5q152 0 257 70t128 184q20 105 -51 168t-245 111q-167 45 -243.5 117t-54.5 184
q19 98 105 171.5t207 96.5q-123 43 -176 103.5t-34 156.5q23 119 134 191.5t272 72.5q63 0 116 -13t98.5 -40.5t72.5 -77.5t31 -119h-45q-3 60 -28 103t-67 66t-89.5 33.5t-103.5 10.5q-140 0 -235 -62.5t-115 -164.5q-18 -93 51.5 -149t237.5 -103q188 -52 260.5 -119.5
t49.5 -183.5zM573 907q-6 0 -8 2q-132 -1 -233 -71.5t-121 -171.5q-18 -94 50 -157t228 -108q154 0 257 63t125 175q20 104 -50 161.5t-248 106.5z" />
    <glyph glyph-name="dieresis" unicode="&#xa8;" horiz-adv-x="825" 
d="M342 1323q4 25 24 41t45 16t38 -16t8 -41t-24.5 -41t-44.5 -16t-38 16t-8 41zM678 1323q4 25 23.5 41t44.5 16t38 -16t9 -41q-5 -25 -24.5 -41t-44.5 -16t-38 16t-8 41z" />
    <glyph glyph-name="copyright" unicode="&#xa9;" horiz-adv-x="1624" 
d="M1115 556l36 -25q-118 -212 -343 -212q-163 0 -275 114.5t-112 281.5t112 281t275 114q116 0 212 -67t128 -171h-50q-28 81 -110.5 139t-179.5 58q-144 0 -243 -103.5t-99 -250.5t99 -251t243 -104q95 0 176 52.5t131 143.5zM71 717q0 153 58 290t157 236t236 157t290 58
t290 -58t236 -157t157 -236t58 -290t-58 -290.5t-157 -236.5t-236 -157t-290 -58t-290 58t-236 157t-157 236.5t-58 290.5zM116 717q0 -192 92.5 -353t252.5 -254.5t351 -93.5t351 93.5t252.5 254.5t92.5 353q0 143 -54.5 273t-147.5 223.5t-222 148.5t-272 55t-272 -55
t-222 -148.5t-147.5 -223.5t-54.5 -273z" />
    <glyph glyph-name="ordfeminine" unicode="&#xaa;" horiz-adv-x="905" 
d="M177 1061q32 164 156.5 276.5t280.5 112.5q109 0 180.5 -57.5t94.5 -155.5l39 197h45l-146 -746h-45l38 197q-61 -98 -155 -155.5t-202 -57.5q-156 0 -237 112.5t-49 276.5zM222 1061q-29 -148 41.5 -248t207.5 -100q133 0 241 96t140 238l3 14q29 148 -41.5 248
t-207.5 100t-246 -100t-138 -248z" />
    <glyph glyph-name="guillemotleft" unicode="&#xab;" horiz-adv-x="1262" 
d="M130 627l5 24l576 339l15 -33l-547 -318l423 -318l-28 -33zM632 627l5 24l575 339l16 -33l-547 -318l423 -318l-28 -33z" />
    <glyph glyph-name="logicalnot" unicode="&#xac;" horiz-adv-x="1138" 
d="M922 256l78 403h-856l8 41h901l-86 -444h-45z" />
    <glyph glyph-name="uni00AD" unicode="&#xad;" horiz-adv-x="798" 
d="M708 659h-566l8 41h565z" />
    <glyph glyph-name="registered" unicode="&#xae;" horiz-adv-x="1624" 
d="M71 717q0 153 58 290t157 236t236 157t290 58t290 -58t236 -157t157 -236t58 -290t-58 -290.5t-157 -236.5t-236 -157t-290 -58t-290 58t-236 157t-157 236.5t-58 290.5zM116 717q0 -192 92.5 -353t252.5 -254.5t351 -93.5t351 93.5t252.5 254.5t92.5 353
q0 143 -54.5 273t-147.5 223.5t-222 148.5t-272 55t-272 -55t-222 -148.5t-147.5 -223.5t-54.5 -273zM816 646h-165v-313h-45v766h209q117 0 189.5 -62.5t72.5 -164.5q0 -90 -57.5 -149.5t-153.5 -73.5l231 -316h-54zM1033 872q0 83 -60 134.5t-158 51.5h-164v-371h164
q98 0 158 50.5t60 134.5z" />
    <glyph glyph-name="macron" unicode="&#xaf;" horiz-adv-x="825" 
d="M297 1302l7 40h533l-8 -40h-532z" />
    <glyph glyph-name="degree" unicode="&#xb0;" 
d="M127 1182q0 111 77.5 188.5t188.5 77.5t188.5 -77.5t77.5 -188.5t-77.5 -189t-188.5 -78t-188.5 78t-77.5 189zM172 1182q0 -94 64.5 -160t156.5 -66t156.5 66t64.5 160t-64.5 159.5t-156.5 65.5t-156.5 -65.5t-64.5 -159.5z" />
    <glyph glyph-name="plusminus" unicode="&#xb1;" horiz-adv-x="1138" 
d="M500 287l86 444h-428l8 41h428l86 445h45l-86 -445h428l-8 -41h-428l-86 -444h-45zM918 0h-902l8 41h901z" />
    <glyph glyph-name="twosuperior" unicode="&#xb2;" 
d="M631 943l-474 -439h495l-8 -41h-559l7 37l507 468q134 124 157 244q17 85 -40 145t-159 60q-99 0 -181.5 -61.5t-115.5 -171.5h-43q37 128 134.5 201t212.5 73q120 0 188.5 -72t48.5 -174q-26 -134 -170 -269z" />
    <glyph glyph-name="threesuperior" unicode="&#xb3;" 
d="M681 739q22 109 -47.5 185t-186.5 76q-50 0 -97 -14l-15 27l420 380h-462l8 41h519l-7 -37l-396 -358q12 2 39 2q138 0 216.5 -88t53.5 -214q-25 -127 -136.5 -214t-250.5 -87q-93 0 -156.5 41.5t-95.5 112.5l36 33q27 -67 84.5 -106.5t138.5 -39.5q118 0 215.5 74.5
t119.5 185.5z" />
    <glyph glyph-name="acute" unicode="&#xb4;" horiz-adv-x="825" 
d="M437 1180l354 329l29 -27l-354 -330z" />
    <glyph glyph-name="mu" unicode="&#xb5;" horiz-adv-x="1218" 
d="M475 -25q-128 0 -212.5 58.5t-114.5 159.5l-130 -668h-45l299 1536h45l-128 -655q-21 -109 5 -196.5t101 -140.5t188 -53q167 0 318.5 124.5t182.5 285.5l124 635h45l-206 -1061h-45l49 258q-77 -124 -208.5 -203.5t-267.5 -79.5z" />
    <glyph glyph-name="paragraph" unicode="&#xb6;" horiz-adv-x="1152" 
d="M648 549h-82q-192 0 -323 127.5t-131 314.5t131 315t323 128h387v-1702h-45v1661h-215v-1661h-45v817z" />
    <glyph glyph-name="periodcentered" unicode="&#xb7;" horiz-adv-x="589" 
d="M266 679q5 25 24.5 41t44.5 16t38 -16t8 -41q-4 -25 -24 -41t-45 -16t-38 16t-8 41z" />
    <glyph glyph-name="cedilla" unicode="&#xb8;" horiz-adv-x="825" 
d="M233 -190q-16 0 -32 -6l-11 17l36 179h45l-29 -152q90 0 148 -54t41 -138q-15 -79 -91.5 -133.5t-172.5 -54.5q-90 0 -143 49t-57 135h45q0 -65 45.5 -104.5t117.5 -39.5q76 0 138 43.5t73 104.5q12 62 -32.5 108t-120.5 46z" />
    <glyph glyph-name="onesuperior" unicode="&#xb9;" 
d="M627 1434h39l-190 -971h-45l179 920l-270 -138l-13 36z" />
    <glyph glyph-name="ordmasculine" unicode="&#xba;" horiz-adv-x="905" 
d="M177 1061q31 162 164 275.5t291 113.5t246 -113t57 -276q-31 -162 -164 -275.5t-291 -113.5t-246 113t-57 276zM222 1061q-28 -146 49.5 -247t216.5 -101t256.5 101t145.5 247t-49.5 247t-216.5 101t-256.5 -101t-145.5 -247z" />
    <glyph glyph-name="guillemotright" unicode="&#xbb;" horiz-adv-x="1262" 
d="M1175 651l-6 -24l-575 -339l-15 33l547 318l-424 318l28 33zM673 651l-5 -24l-576 -339l-15 33l548 318l-424 318l27 33z" />
    <glyph glyph-name="onequarter" unicode="&#xbc;" horiz-adv-x="1898" 
d="M627 1434h39l-190 -971h-45l179 920l-270 -138l-13 36zM1104 233l7 37l620 701h42l-136 -697h147l-8 -41h-147l-45 -233h-45l45 233h-480zM1169 274h423l120 617zM478 10l981 1434l34 -21l-978 -1433z" />
    <glyph glyph-name="onehalf" unicode="&#xbd;" horiz-adv-x="1898" 
d="M1653 480l-474 -439h495l-7 -41h-559l6 37l507 468q134 124 157 245q17 85 -40 144.5t-159 59.5q-99 0 -181.5 -61.5t-115.5 -171.5h-43q37 128 134.5 201t212.5 73q120 0 188.5 -72t48.5 -173q-27 -137 -170 -270zM627 1434h39l-190 -971h-45l179 920l-270 -138l-13 36z
M478 10l981 1434l34 -21l-978 -1433z" />
    <glyph glyph-name="threequarters" unicode="&#xbe;" horiz-adv-x="1898" 
d="M681 739q22 109 -47.5 185t-186.5 76q-50 0 -97 -14l-15 27l420 380h-462l8 41h519l-7 -37l-396 -358q12 2 39 2q138 0 216.5 -88t53.5 -214q-25 -127 -136.5 -214t-250.5 -87q-93 0 -156.5 41.5t-95.5 112.5l36 33q27 -67 84.5 -106.5t138.5 -39.5q118 0 215.5 74.5
t119.5 185.5zM478 10l981 1434l34 -21l-978 -1433zM1104 233l7 37l620 701h42l-136 -697h147l-8 -41h-147l-45 -233h-45l45 233h-480zM1169 274h423l120 617z" />
    <glyph glyph-name="questiondown" unicode="&#xbf;" horiz-adv-x="1085" 
d="M622 668h45q-28 -146 -97.5 -235t-210.5 -165q-148 -80 -208 -140t-82 -174q-27 -136 58 -223t253 -87q150 0 275 69.5t185 210.5h45q-64 -158 -203.5 -239.5t-309.5 -81.5q-184 0 -281.5 97.5t-66.5 253.5q22 114 88 189t215 149q135 69 201.5 153.5t93.5 222.5z
M763 1032q-4 -23 -22 -38t-42 -15q-23 0 -35 15t-8 38t23 38t42 15t35 -15t7 -38z" />
    <glyph glyph-name="Agrave" unicode="&#xc0;" horiz-adv-x="1351" 
d="M1122 0l-91 442h-745l-261 -442h-54l858 1434h45l302 -1434h-54zM841 1376l-531 -893h713zM740 1898l225 -329l-39 -28l-226 330z" />
    <glyph glyph-name="Aacute" unicode="&#xc1;" horiz-adv-x="1351" 
d="M1122 0l-91 442h-745l-261 -442h-54l858 1434h45l302 -1434h-54zM841 1376l-531 -893h713zM716 1569l353 329l30 -27l-355 -330z" />
    <glyph glyph-name="Acircumflex" unicode="&#xc2;" horiz-adv-x="1351" 
d="M1122 0l-91 442h-745l-261 -442h-54l858 1434h45l302 -1434h-54zM841 1376l-531 -893h713zM1151 1544l-218 305l-337 -305l-24 26l350 316h36l225 -316z" />
    <glyph glyph-name="Atilde" unicode="&#xc3;" horiz-adv-x="1351" 
d="M1122 0l-91 442h-745l-261 -442h-54l858 1434h45l302 -1434h-54zM841 1376l-531 -893h713zM885 1676q-22 33 -35.5 50.5t-36.5 34.5t-47 17q-89 0 -156 -171l-43 9q82 203 207 203q47 0 80.5 -29t66.5 -81q20 -32 34 -50t37 -34.5t47 -16.5q88 0 155 171l43 -10
q-80 -202 -206 -202q-47 0 -80.5 29t-65.5 80z" />
    <glyph glyph-name="Adieresis" unicode="&#xc4;" horiz-adv-x="1351" 
d="M1122 0l-91 442h-745l-261 -442h-54l858 1434h45l302 -1434h-54zM841 1376l-531 -893h713zM679 1704q4 25 24 41t45 16t38 -16t8 -41q-4 -25 -24 -41t-45 -16t-38 16t-8 41zM1015 1704q4 25 23.5 41t44.5 16t38 -16t8 -41q-4 -25 -23.5 -41t-44.5 -16t-38 16t-8 41z" />
    <glyph glyph-name="Aring" unicode="&#xc5;" horiz-adv-x="1351" 
d="M1122 0l-91 442h-745l-261 -442h-54l858 1434h45l302 -1434h-54zM841 1376l-531 -893h713zM712 1726q16 82 84 137.5t150 55.5t128.5 -56t30.5 -137q-15 -81 -83.5 -136.5t-150.5 -55.5t-128 55t-31 137zM757 1726q-12 -64 23.5 -107.5t98.5 -43.5t116 43.5t65 107.5
q13 64 -23 108t-99 44t-115.5 -44t-65.5 -108z" />
    <glyph glyph-name="AE" unicode="&#xc6;" horiz-adv-x="1880" 
d="M27 0h-56l1142 1434h788l-9 -41h-714l-127 -652h655l-8 -41h-656l-128 -659h734l-8 -41h-778l85 442h-570zM410 483h545l177 908z" />
    <glyph glyph-name="Ccedilla" unicode="&#xc7;" horiz-adv-x="1575" 
d="M697 -190q-16 0 -32 -6l-11 17l31 155q-117 3 -217.5 41.5t-173 105t-120.5 158.5t-59 201.5t11 234.5q40 206 168 376t313 267.5t385 97.5q231 0 388.5 -129t195.5 -341h-49q-40 192 -185.5 310.5t-356.5 118.5q-140 0 -277 -55.5t-245 -149.5t-186 -223.5t-106 -271.5
q-37 -190 21 -351t196 -255.5t325 -94.5q190 0 366.5 98t296.5 263l33 -27q-124 -167 -303.5 -267.5t-375.5 -106.5l-24 -128q90 0 148 -54t41 -138q-15 -79 -91.5 -133.5t-172.5 -54.5q-90 0 -143 49t-57 135h45q0 -65 45.5 -104.5t117.5 -39.5q76 0 138 43.5t73 104.5
q12 62 -32.5 108t-120.5 46z" />
    <glyph glyph-name="Egrave" unicode="&#xc8;" horiz-adv-x="1122" 
d="M94 0l279 1434h770l-8 -41h-725l-127 -652h665l-8 -41h-666l-128 -659h744l-7 -41h-789zM650 1898l224 -329l-38 -28l-226 330z" />
    <glyph glyph-name="Eacute" unicode="&#xc9;" horiz-adv-x="1122" 
d="M94 0l279 1434h770l-8 -41h-725l-127 -652h665l-8 -41h-666l-128 -659h744l-7 -41h-789zM685 1569l353 329l30 -27l-354 -330z" />
    <glyph glyph-name="Ecircumflex" unicode="&#xca;" horiz-adv-x="1122" 
d="M94 0l279 1434h770l-8 -41h-725l-127 -652h665l-8 -41h-666l-128 -659h744l-7 -41h-789zM1057 1544l-218 305l-337 -305l-24 26l349 316h37l225 -316z" />
    <glyph glyph-name="Edieresis" unicode="&#xcb;" horiz-adv-x="1122" 
d="M94 0l279 1434h770l-8 -41h-725l-127 -652h665l-8 -41h-666l-128 -659h744l-7 -41h-789zM574 1704q4 25 24 41t45 16t38 -16t8 -41q-4 -25 -23.5 -41t-44.5 -16t-38 16t-9 41zM910 1704q4 25 24 41t45 16t38 -16t8 -41q-4 -25 -24 -41t-45 -16t-38 16t-8 41z" />
    <glyph glyph-name="Igrave" unicode="&#xcc;" horiz-adv-x="565" 
d="M436 1434h45l-278 -1434h-45zM346 1898l224 -329l-39 -28l-225 330z" />
    <glyph glyph-name="Iacute" unicode="&#xcd;" horiz-adv-x="565" 
d="M436 1434h45l-278 -1434h-45zM396 1569l354 329l29 -27l-354 -330z" />
    <glyph glyph-name="Icircumflex" unicode="&#xce;" horiz-adv-x="565" 
d="M436 1434h45l-278 -1434h-45zM758 1544l-218 305l-337 -305l-24 26l349 316h37l225 -316z" />
    <glyph glyph-name="Idieresis" unicode="&#xcf;" horiz-adv-x="565" 
d="M436 1434h45l-278 -1434h-45zM286 1704q4 25 23.5 41t44.5 16t38 -16t8 -41q-4 -25 -23.5 -41t-44.5 -16t-38 16t-8 41zM622 1704q4 25 23.5 41t44.5 16t38 -16t8 -41q-4 -25 -23.5 -41t-44.5 -16t-38 16t-8 41z" />
    <glyph glyph-name="Eth" unicode="&#xd0;" horiz-adv-x="1453" 
d="M440 1434h434q201 0 335.5 -92t183 -254t8.5 -371q-62 -318 -282 -517.5t-523 -199.5h-434l135 696h-195l8 41h194zM866 1393h-389l-128 -656h385l-7 -41h-385l-128 -655h389q282 0 488 188.5t265 487.5q38 196 -7.5 349t-170.5 240t-312 87z" />
    <glyph glyph-name="Ntilde" unicode="&#xd1;" horiz-adv-x="1404" 
d="M911 1676q-17 25 -26 38t-25 30.5t-32.5 25.5t-34.5 8q-89 0 -156 -171l-43 9q82 203 207 203q33 0 62 -18t45.5 -38t38.5 -54q20 -31 34.5 -49.5t37.5 -35t47 -16.5q88 0 155 171l43 -10q-80 -202 -206 -202q-47 0 -81 29.5t-66 79.5zM94 0l279 1434h41l662 -1352
l263 1352h45l-278 -1434h-41l-664 1352l-262 -1352h-45z" />
    <glyph glyph-name="Ograve" unicode="&#xd2;" horiz-adv-x="1624" 
d="M171 717q-37 -190 21 -351t196 -255.5t325 -94.5t361.5 94.5t294.5 255.5t158 351q20 116 9 220.5t-57.5 192.5t-116.5 151.5t-167.5 99.5t-209.5 36q-140 0 -277 -55.5t-245 -149.5t-186 -223.5t-106 -271.5zM126 717q40 206 168 376t313 267.5t385 97.5q120 0 224 -37
t179 -103.5t125 -159t62 -204t-10 -237.5q-30 -154 -113 -292t-198.5 -236.5t-260.5 -156t-295 -57.5t-273.5 57t-199 157t-107.5 235.5t1 292.5zM860 1898l224 -329l-38 -28l-226 330z" />
    <glyph glyph-name="Oacute" unicode="&#xd3;" horiz-adv-x="1624" 
d="M171 717q-37 -190 21 -351t196 -255.5t325 -94.5t361.5 94.5t294.5 255.5t158 351q20 116 9 220.5t-57.5 192.5t-116.5 151.5t-167.5 99.5t-209.5 36q-140 0 -277 -55.5t-245 -149.5t-186 -223.5t-106 -271.5zM126 717q40 206 168 376t313 267.5t385 97.5q120 0 224 -37
t179 -103.5t125 -159t62 -204t-10 -237.5q-30 -154 -113 -292t-198.5 -236.5t-260.5 -156t-295 -57.5t-273.5 57t-199 157t-107.5 235.5t1 292.5zM944 1569l353 329l30 -27l-354 -330z" />
    <glyph glyph-name="Ocircumflex" unicode="&#xd4;" horiz-adv-x="1624" 
d="M171 717q-37 -190 21 -351t196 -255.5t325 -94.5t361.5 94.5t294.5 255.5t158 351q20 116 9 220.5t-57.5 192.5t-116.5 151.5t-167.5 99.5t-209.5 36q-140 0 -277 -55.5t-245 -149.5t-186 -223.5t-106 -271.5zM126 717q40 206 168 376t313 267.5t385 97.5q120 0 224 -37
t179 -103.5t125 -159t62 -204t-10 -237.5q-30 -154 -113 -292t-198.5 -236.5t-260.5 -156t-295 -57.5t-273.5 57t-199 157t-107.5 235.5t1 292.5zM1287 1544l-218 305l-337 -305l-23 26l349 316h37l224 -316z" />
    <glyph glyph-name="Otilde" unicode="&#xd5;" horiz-adv-x="1624" 
d="M171 717q-37 -190 21 -351t196 -255.5t325 -94.5t361.5 94.5t294.5 255.5t158 351q20 116 9 220.5t-57.5 192.5t-116.5 151.5t-167.5 99.5t-209.5 36q-140 0 -277 -55.5t-245 -149.5t-186 -223.5t-106 -271.5zM126 717q40 206 168 376t313 267.5t385 97.5q120 0 224 -37
t179 -103.5t125 -159t62 -204t-10 -237.5q-30 -154 -113 -292t-198.5 -236.5t-260.5 -156t-295 -57.5t-273.5 57t-199 157t-107.5 235.5t1 292.5zM1021 1676q-22 33 -35.5 50.5t-36.5 34.5t-47 17q-89 0 -156 -171l-43 9q82 203 207 203q47 0 80.5 -29t66.5 -81
q20 -31 34.5 -49.5t37.5 -35t47 -16.5q87 0 154 171l43 -10q-80 -202 -206 -202q-47 0 -80.5 29t-65.5 80z" />
    <glyph glyph-name="Odieresis" unicode="&#xd6;" horiz-adv-x="1624" 
d="M171 717q-37 -190 21 -351t196 -255.5t325 -94.5t361.5 94.5t294.5 255.5t158 351q20 116 9 220.5t-57.5 192.5t-116.5 151.5t-167.5 99.5t-209.5 36q-140 0 -277 -55.5t-245 -149.5t-186 -223.5t-106 -271.5zM126 717q40 206 168 376t313 267.5t385 97.5q120 0 224 -37
t179 -103.5t125 -159t62 -204t-10 -237.5q-30 -154 -113 -292t-198.5 -236.5t-260.5 -156t-295 -57.5t-273.5 57t-199 157t-107.5 235.5t1 292.5zM815 1704q4 25 24 41t45 16t38 -16t8 -41q-4 -25 -24 -41t-45 -16t-38 16t-8 41zM1151 1704q4 25 24 41t45 16t38 -16t8 -41
q-4 -25 -24 -41t-45 -16t-38 16t-8 41z" />
    <glyph glyph-name="multiply" unicode="&#xd7;" horiz-adv-x="1138" 
d="M128 298l437 375l-292 375l38 32l292 -375l439 375l24 -32l-438 -375l293 -375l-37 -33l-293 375l-438 -375z" />
    <glyph glyph-name="Oslash" unicode="&#xd8;" horiz-adv-x="1624" 
d="M126 717q40 206 168 376t313 267.5t385 97.5q243 0 404 -142l188 191l30 -26l-190 -192q102 -103 141.5 -251.5t6.5 -320.5q-30 -154 -113 -292t-198.5 -236.5t-260.5 -156t-295 -57.5q-253 0 -419 155l-202 -206l-30 27l205 208q-94 102 -130 246.5t-3 311.5zM1527 717
q30 159 -6.5 298.5t-130.5 237.5l-1069 -1088q154 -149 392 -149q187 0 361.5 94.5t294.5 255.5t158 351zM171 717q-30 -153 3 -288.5t119 -234.5l1069 1087q-154 136 -377 136q-140 0 -277 -55.5t-245 -149.5t-186 -223.5t-106 -271.5z" />
    <glyph glyph-name="Ugrave" unicode="&#xd9;" horiz-adv-x="1331" 
d="M714 1898l224 -329l-39 -28l-225 330zM1331 1434l-186 -955q-43 -224 -205.5 -363t-381.5 -139q-218 0 -326.5 139t-65.5 363l186 955h45l-186 -955q-39 -203 60 -332t295 -129t345.5 129t188.5 332l186 955h45z" />
    <glyph glyph-name="Uacute" unicode="&#xda;" horiz-adv-x="1331" 
d="M794 1569l353 329l30 -27l-355 -330zM1331 1434l-186 -955q-43 -224 -205.5 -363t-381.5 -139q-218 0 -326.5 139t-65.5 363l186 955h45l-186 -955q-39 -203 60 -332t295 -129t345.5 129t188.5 332l186 955h45z" />
    <glyph glyph-name="Ucircumflex" unicode="&#xdb;" horiz-adv-x="1331" 
d="M1141 1544l-218 305l-337 -305l-24 26l349 316h37l224 -316zM1331 1434l-186 -955q-43 -224 -205.5 -363t-381.5 -139q-218 0 -326.5 139t-65.5 363l186 955h45l-186 -955q-39 -203 60 -332t295 -129t345.5 129t188.5 332l186 955h45z" />
    <glyph glyph-name="Udieresis" unicode="&#xdc;" horiz-adv-x="1331" 
d="M669 1704q4 25 23.5 41t44.5 16t38 -16t8 -41q-4 -25 -23.5 -41t-44.5 -16t-38 16t-8 41zM1005 1704q4 25 23.5 41t44.5 16t38 -16t8 -41q-4 -25 -23.5 -41t-44.5 -16t-38 16t-8 41zM1331 1434l-186 -955q-43 -224 -205.5 -363t-381.5 -139q-218 0 -326.5 139t-65.5 363
l186 955h45l-186 -955q-39 -203 60 -332t295 -129t345.5 129t188.5 332l186 955h45z" />
    <glyph glyph-name="Yacute" unicode="&#xdd;" horiz-adv-x="1298" 
d="M303 1434l367 -799l678 799h57l-722 -846l-114 -588h-45l114 588l-392 846h57zM788 1569l354 329l29 -27l-354 -330z" />
    <glyph glyph-name="Thorn" unicode="&#xde;" horiz-adv-x="1148" 
d="M536 301h-338l-59 -301h-45l279 1434h45l-60 -301h338q216 0 328 -114t76 -302q-37 -188 -192.5 -302t-371.5 -114zM1055 717q32 169 -68.5 272t-297.5 103h-338l-146 -750h338q197 0 338 103t174 272z" />
    <glyph glyph-name="germandbls" unicode="&#xdf;" horiz-adv-x="1210" 
d="M264 50l27 40q93 -74 230 -74q179 0 325.5 115t179.5 283t-69.5 282.5t-281.5 114.5q-79 0 -138 -20l-18 28l384 574h-514l-270 -1393h-45l278 1434h613l-9 -41l-370 -553q45 12 97 12q202 0 313 -126.5t75 -311.5t-196 -312t-362 -127q-150 0 -249 75z" />
    <glyph glyph-name="agrave" unicode="&#xe0;" horiz-adv-x="1282" 
d="M87 530q22 113 82 215.5t143 176.5t186.5 118t209.5 44q158 0 265.5 -92t137.5 -243l60 312h46l-206 -1061h-45l60 312q-89 -151 -232 -243t-301 -92q-141 0 -245 74t-147 201t-14 278zM133 530q-27 -141 11.5 -259t133 -186.5t224.5 -68.5t250.5 68.5t204.5 186.5
t111 259t-11 259.5t-132 187.5t-224 69t-251 -69t-205.5 -187.5t-111.5 -259.5zM629 1567l224 -330l-39 -28l-225 330z" />
    <glyph glyph-name="aacute" unicode="&#xe1;" horiz-adv-x="1282" 
d="M87 530q22 113 82 215.5t143 176.5t186.5 118t209.5 44q158 0 265.5 -92t137.5 -243l60 312h46l-206 -1061h-45l60 312q-89 -151 -232 -243t-301 -92q-141 0 -245 74t-147 201t-14 278zM133 530q-27 -141 11.5 -259t133 -186.5t224.5 -68.5t250.5 68.5t204.5 186.5
t111 259t-11 259.5t-132 187.5t-224 69t-251 -69t-205.5 -187.5t-111.5 -259.5zM663 1237l353 330l30 -28l-355 -330z" />
    <glyph glyph-name="acircumflex" unicode="&#xe2;" horiz-adv-x="1282" 
d="M87 530q22 113 82 215.5t143 176.5t186.5 118t209.5 44q158 0 265.5 -92t137.5 -243l60 312h46l-206 -1061h-45l60 312q-89 -151 -232 -243t-301 -92q-141 0 -245 74t-147 201t-14 278zM133 530q-27 -141 11.5 -259t133 -186.5t224.5 -68.5t250.5 68.5t204.5 186.5
t111 259t-11 259.5t-132 187.5t-224 69t-251 -69t-205.5 -187.5t-111.5 -259.5zM1032 1212l-218 306l-337 -306l-22 26l348 316h37l225 -316z" />
    <glyph glyph-name="atilde" unicode="&#xe3;" horiz-adv-x="1282" 
d="M87 530q22 113 82 215.5t143 176.5t186.5 118t209.5 44q158 0 265.5 -92t137.5 -243l60 312h46l-206 -1061h-45l60 312q-89 -151 -232 -243t-301 -92q-141 0 -245 74t-147 201t-14 278zM133 530q-27 -141 11.5 -259t133 -186.5t224.5 -68.5t250.5 68.5t204.5 186.5
t111 259t-11 259.5t-132 187.5t-224 69t-251 -69t-205.5 -187.5t-111.5 -259.5zM771 1345q-21 32 -35 50t-37 34.5t-47 16.5q-89 0 -154 -171l-44 9q82 203 206 203q47 0 80.5 -29t66.5 -81q20 -31 34.5 -49.5t37.5 -35t47 -16.5q87 0 154 171l43 -9q-81 -203 -205 -203
q-47 0 -81 29.5t-66 80.5z" />
    <glyph glyph-name="adieresis" unicode="&#xe4;" horiz-adv-x="1282" 
d="M87 530q22 113 82 215.5t143 176.5t186.5 118t209.5 44q158 0 265.5 -92t137.5 -243l60 312h46l-206 -1061h-45l60 312q-89 -151 -232 -243t-301 -92q-141 0 -245 74t-147 201t-14 278zM133 530q-27 -141 11.5 -259t133 -186.5t224.5 -68.5t250.5 68.5t204.5 186.5
t111 259t-11 259.5t-132 187.5t-224 69t-251 -69t-205.5 -187.5t-111.5 -259.5zM560 1372q4 25 24 41.5t45 16.5t38 -16.5t8 -41.5q-4 -25 -24 -41t-45 -16t-38 16t-8 41zM896 1372q4 25 24 41.5t45 16.5t38 -16.5t8 -41.5q-4 -25 -24 -41t-45 -16t-38 16t-8 41z" />
    <glyph glyph-name="aring" unicode="&#xe5;" horiz-adv-x="1282" 
d="M87 530q22 113 82 215.5t143 176.5t186.5 118t209.5 44q158 0 265.5 -92t137.5 -243l60 312h46l-206 -1061h-45l60 312q-89 -151 -232 -243t-301 -92q-141 0 -245 74t-147 201t-14 278zM133 530q-27 -141 11.5 -259t133 -186.5t224.5 -68.5t250.5 68.5t204.5 186.5
t111 259t-11 259.5t-132 187.5t-224 69t-251 -69t-205.5 -187.5t-111.5 -259.5zM593 1395q16 81 84 136.5t150 55.5t128.5 -55.5t30.5 -136.5q-15 -81 -83 -137t-150 -56t-128.5 55.5t-31.5 137.5zM638 1395q-12 -64 23.5 -108t98.5 -44t116 44t65 108q13 64 -23 107.5
t-99 43.5t-115.5 -43.5t-65.5 -107.5z" />
    <glyph glyph-name="ae" unicode="&#xe6;" horiz-adv-x="2196" 
d="M1112 524q-25 -136 14.5 -251.5t140.5 -186t244 -70.5q117 0 228 52t201 145l27 -31q-91 -95 -213 -151t-251 -56q-172 0 -286.5 90t-147.5 238l-58 -303h-45l60 312q-89 -151 -232 -243t-301 -92q-141 0 -245 74t-147 201t-14 278q22 113 82 215.5t143 176.5t186.5 118
t209.5 44q158 0 265.5 -92t137.5 -243l60 312h46l-60 -304q90 147 237.5 237.5t312.5 90.5q145 0 249 -70t145.5 -189.5t13.5 -262.5q-3 -15 -12 -39h-991zM133 530q-27 -141 11.5 -259t133 -186.5t224.5 -68.5t250.5 68.5t204.5 186.5t111 259t-11 259.5t-132 187.5
t-224 69t-251 -69t-205.5 -187.5t-111.5 -259.5zM1699 1044q-195 0 -361 -141t-217 -338h949q33 208 -71.5 343.5t-299.5 135.5z" />
    <glyph glyph-name="ccedilla" unicode="&#xe7;" horiz-adv-x="1190" 
d="M510 -190q-17 0 -33 -6l-10 17l31 155q-146 6 -250.5 83.5t-146.5 202t-14 268.5q22 110 83 211.5t146.5 177.5t196 121t225.5 45q154 0 264 -77t155 -206h-52q-45 110 -143.5 176t-231.5 66q-139 0 -268 -71.5t-216.5 -189.5t-113.5 -253t15 -253t142.5 -189.5
t240.5 -71.5t267 70.5t216 188.5l30 -26q-93 -121 -224 -194.5t-276 -78.5l-25 -128q91 0 149 -54t41 -138q-15 -79 -92 -133.5t-173 -54.5q-90 0 -142.5 49t-56.5 135h45q0 -65 45.5 -104.5t117.5 -39.5q76 0 138 43.5t73 104.5q12 62 -32.5 108t-120.5 46z" />
    <glyph glyph-name="egrave" unicode="&#xe8;" horiz-adv-x="1215" 
d="M131 524q-25 -136 14.5 -251.5t140.5 -186t244 -70.5q117 0 228 52t201 145l27 -31q-91 -95 -213 -151t-251 -56q-157 0 -267.5 76t-153.5 202.5t-14 276.5q29 149 121.5 276t230 203t287.5 76q145 0 249 -70t145.5 -189.5t13.5 -262.5q-3 -15 -12 -39h-991zM718 1044
q-195 0 -361 -141t-217 -338h949q33 208 -71.5 343.5t-299.5 135.5zM682 1567l224 -330l-39 -28l-225 330z" />
    <glyph glyph-name="eacute" unicode="&#xe9;" horiz-adv-x="1215" 
d="M131 524q-25 -136 14.5 -251.5t140.5 -186t244 -70.5q117 0 228 52t201 145l27 -31q-91 -95 -213 -151t-251 -56q-157 0 -267.5 76t-153.5 202.5t-14 276.5q29 149 121.5 276t230 203t287.5 76q145 0 249 -70t145.5 -189.5t13.5 -262.5q-3 -15 -12 -39h-991zM718 1044
q-195 0 -361 -141t-217 -338h949q33 208 -71.5 343.5t-299.5 135.5zM667 1237l353 330l30 -28l-355 -330z" />
    <glyph glyph-name="ecircumflex" unicode="&#xea;" horiz-adv-x="1215" 
d="M131 524q-25 -136 14.5 -251.5t140.5 -186t244 -70.5q117 0 228 52t201 145l27 -31q-91 -95 -213 -151t-251 -56q-157 0 -267.5 76t-153.5 202.5t-14 276.5q29 149 121.5 276t230 203t287.5 76q145 0 249 -70t145.5 -189.5t13.5 -262.5q-3 -15 -12 -39h-991zM718 1044
q-195 0 -361 -141t-217 -338h949q33 208 -71.5 343.5t-299.5 135.5zM1018 1212l-218 306l-337 -306l-23 26l348 316h37l226 -316z" />
    <glyph glyph-name="edieresis" unicode="&#xeb;" horiz-adv-x="1215" 
d="M131 524q-25 -136 14.5 -251.5t140.5 -186t244 -70.5q117 0 228 52t201 145l27 -31q-91 -95 -213 -151t-251 -56q-157 0 -267.5 76t-153.5 202.5t-14 276.5q29 149 121.5 276t230 203t287.5 76q145 0 249 -70t145.5 -189.5t13.5 -262.5q-3 -15 -12 -39h-991zM718 1044
q-195 0 -361 -141t-217 -338h949q33 208 -71.5 343.5t-299.5 135.5zM546 1372q5 25 24 41.5t44 16.5t38 -16.5t8 -41.5q-4 -25 -23.5 -41t-44.5 -16t-38 16t-8 41zM882 1372q5 25 24 41.5t44 16.5t38 -16.5t8 -41.5q-4 -25 -23.5 -41t-44.5 -16t-38 16t-8 41z" />
    <glyph glyph-name="igrave" unicode="&#xec;" horiz-adv-x="518" 
d="M134 0l206 1061h45l-206 -1061h-45zM334 1567l224 -330l-39 -28l-225 330z" />
    <glyph glyph-name="iacute" unicode="&#xed;" horiz-adv-x="518" 
d="M134 0l206 1061h45l-206 -1061h-45zM307 1237l353 330l30 -28l-354 -330z" />
    <glyph glyph-name="icircumflex" unicode="&#xee;" horiz-adv-x="518" 
d="M134 0l206 1061h45l-206 -1061h-45zM670 1212l-218 306l-337 -306l-23 26l348 316h37l225 -316z" />
    <glyph glyph-name="idieresis" unicode="&#xef;" horiz-adv-x="518" 
d="M134 0l206 1061h45l-206 -1061h-45zM198 1372q5 25 24 41.5t44 16.5t38 -16.5t8 -41.5q-4 -25 -23.5 -41t-44.5 -16t-38 16t-8 41zM534 1372q5 25 24 41.5t44 16.5t38 -16.5t8 -41.5q-4 -25 -23.5 -41t-44.5 -16t-38 16t-8 41z" />
    <glyph glyph-name="eth" unicode="&#xf0;" horiz-adv-x="1220" 
d="M379 1107l-10 38l397 174q-109 83 -231 143l27 40q136 -66 252 -163l282 125l9 -37l-260 -114q175 -161 245.5 -376t22.5 -462q-27 -137 -118 -252t-223 -181.5t-274 -66.5t-248.5 66.5t-153 181.5t-19.5 252q26 137 117 252t223.5 181.5t274.5 66.5q151 0 259.5 -80
t144.5 -213q-18 194 -86 342t-210 268zM684 934q-196 0 -360.5 -134t-201.5 -325q-25 -125 18 -230.5t140 -167t226 -61.5q196 0 360 134t202 325q24 125 -18.5 230.5t-139.5 167t-226 61.5z" />
    <glyph glyph-name="ntilde" unicode="&#xf1;" horiz-adv-x="1199" 
d="M744 1085q188 0 277.5 -119.5t53.5 -306.5l-128 -659h-45l127 655q21 109 -4.5 196.5t-100.5 140t-188 52.5q-167 0 -318.5 -124t-183.5 -285l-122 -635h-45l205 1061h45l-50 -258q76 123 208 202.5t269 79.5zM753 1345q-21 32 -35 50t-37 34.5t-47 16.5q-90 0 -155 -171
l-44 9q82 203 207 203q33 0 62 -18t45.5 -38t38.5 -54q20 -31 34.5 -49.5t37.5 -35t47 -16.5q88 0 155 171l43 -9q-81 -203 -206 -203q-47 0 -80.5 29.5t-65.5 80.5z" />
    <glyph glyph-name="ograve" unicode="&#xf2;" horiz-adv-x="1259" 
d="M705 1567l224 -330l-39 -28l-225 330zM530 16q104 0 205.5 42t180.5 112.5t135 164.5t76 195q26 135 -15 253t-142 189.5t-240 71.5t-268 -71.5t-216.5 -189.5t-113.5 -253t15 -253t142.5 -189.5t240.5 -71.5zM738 1085q115 0 208 -45t148 -121t78.5 -177t-0.5 -212
q-21 -110 -82 -211.5t-146.5 -177.5t-196 -121t-225.5 -45t-208 45t-148 121t-79 177t0 212q22 110 83 211.5t146.5 177.5t196 121t225.5 45z" />
    <glyph glyph-name="oacute" unicode="&#xf3;" horiz-adv-x="1259" 
d="M681 1237l353 330l30 -28l-354 -330zM530 16q104 0 205.5 42t180.5 112.5t135 164.5t76 195q26 135 -15 253t-142 189.5t-240 71.5t-268 -71.5t-216.5 -189.5t-113.5 -253t15 -253t142.5 -189.5t240.5 -71.5zM738 1085q115 0 208 -45t148 -121t78.5 -177t-0.5 -212
q-21 -110 -82 -211.5t-146.5 -177.5t-196 -121t-225.5 -45t-208 45t-148 121t-79 177t0 212q22 110 83 211.5t146.5 177.5t196 121t225.5 45z" />
    <glyph glyph-name="ocircumflex" unicode="&#xf4;" horiz-adv-x="1259" 
d="M1040 1212l-218 306l-337 -306l-22 26l348 316h37l225 -316zM530 16q104 0 205.5 42t180.5 112.5t135 164.5t76 195q26 135 -15 253t-142 189.5t-240 71.5t-268 -71.5t-216.5 -189.5t-113.5 -253t15 -253t142.5 -189.5t240.5 -71.5zM738 1085q115 0 208 -45t148 -121
t78.5 -177t-0.5 -212q-21 -110 -82 -211.5t-146.5 -177.5t-196 -121t-225.5 -45t-208 45t-148 121t-79 177t0 212q22 110 83 211.5t146.5 177.5t196 121t225.5 45z" />
    <glyph glyph-name="otilde" unicode="&#xf5;" horiz-adv-x="1259" 
d="M774 1345q-21 32 -35 50t-37 34.5t-47 16.5q-89 0 -154 -171l-44 9q82 203 207 203q33 0 62 -18t45.5 -38t38.5 -54q20 -31 34.5 -49.5t37.5 -35t47 -16.5q87 0 154 171l43 -9q-81 -203 -205 -203q-47 0 -81 29.5t-66 80.5zM530 16q104 0 205.5 42t180.5 112.5t135 164.5
t76 195q26 135 -15 253t-142 189.5t-240 71.5t-268 -71.5t-216.5 -189.5t-113.5 -253t15 -253t142.5 -189.5t240.5 -71.5zM738 1085q115 0 208 -45t148 -121t78.5 -177t-0.5 -212q-21 -110 -82 -211.5t-146.5 -177.5t-196 -121t-225.5 -45t-208 45t-148 121t-79 177t0 212
q22 110 83 211.5t146.5 177.5t196 121t225.5 45z" />
    <glyph glyph-name="odieresis" unicode="&#xf6;" horiz-adv-x="1259" 
d="M568 1372q4 25 24 41.5t45 16.5t38 -16.5t8 -41.5q-4 -25 -24 -41t-45 -16t-38 16t-8 41zM904 1372q4 25 24 41.5t45 16.5t38 -16.5t8 -41.5q-4 -25 -24 -41t-45 -16t-38 16t-8 41zM530 16q104 0 205.5 42t180.5 112.5t135 164.5t76 195q26 135 -15 253t-142 189.5
t-240 71.5t-268 -71.5t-216.5 -189.5t-113.5 -253t15 -253t142.5 -189.5t240.5 -71.5zM738 1085q115 0 208 -45t148 -121t78.5 -177t-0.5 -212q-21 -110 -82 -211.5t-146.5 -177.5t-196 -121t-225.5 -45t-208 45t-148 121t-79 177t0 212q22 110 83 211.5t146.5 177.5
t196 121t225.5 45z" />
    <glyph glyph-name="divide" unicode="&#xf7;" horiz-adv-x="1138" 
d="M1046 659h-902l8 41h901zM466 293q4 25 24 41t45 16t38 -16t8 -41q-4 -25 -24 -41t-45 -16t-38 16t-8 41zM616 1067q4 25 24 41t45 16t38 -16t8 -41q-4 -25 -23.5 -41t-44.5 -16t-38 16t-9 41z" />
    <glyph glyph-name="oslash" unicode="&#xf8;" horiz-adv-x="1259" 
d="M738 1085q188 0 311 -115l166 165l27 -27l-167 -165q69 -78 95 -186t2 -227q-21 -110 -82 -211.5t-146.5 -177.5t-196 -121t-225.5 -45q-190 0 -311 116l-170 -167l-27 27l170 167q-69 78 -94.5 185t-2.5 227q22 110 83 211.5t146.5 177.5t196 121t225.5 45zM530 16
q104 0 205.5 42t180.5 112.5t135 164.5t76 195q22 108 -2 207t-86 171l-794 -783q112 -109 285 -109zM132 530q-21 -108 2 -206.5t84 -170.5l796 783q-111 108 -284 108q-139 0 -268 -71.5t-216.5 -189.5t-113.5 -253z" />
    <glyph glyph-name="ugrave" unicode="&#xf9;" horiz-adv-x="1199" 
d="M456 -25q-188 0 -278 119.5t-53 306.5l128 660h45l-128 -655q-21 -109 5 -196.5t101 -140.5t188 -53q167 0 318.5 124.5t182.5 285.5l124 635h45l-206 -1061h-45l49 258q-77 -124 -208.5 -203.5t-267.5 -79.5zM674 1567l224 -330l-39 -28l-225 330z" />
    <glyph glyph-name="uacute" unicode="&#xfa;" horiz-adv-x="1199" 
d="M456 -25q-188 0 -278 119.5t-53 306.5l128 660h45l-128 -655q-21 -109 5 -196.5t101 -140.5t188 -53q167 0 318.5 124.5t182.5 285.5l124 635h45l-206 -1061h-45l49 258q-77 -124 -208.5 -203.5t-267.5 -79.5zM640 1237l353 330l30 -28l-354 -330z" />
    <glyph glyph-name="ucircumflex" unicode="&#xfb;" horiz-adv-x="1199" 
d="M456 -25q-188 0 -278 119.5t-53 306.5l128 660h45l-128 -655q-21 -109 5 -196.5t101 -140.5t188 -53q167 0 318.5 124.5t182.5 285.5l124 635h45l-206 -1061h-45l49 258q-77 -124 -208.5 -203.5t-267.5 -79.5zM1010 1212l-218 306l-337 -306l-23 26l348 316h37l225 -316z
" />
    <glyph glyph-name="udieresis" unicode="&#xfc;" horiz-adv-x="1199" 
d="M456 -25q-188 0 -278 119.5t-53 306.5l128 660h45l-128 -655q-21 -109 5 -196.5t101 -140.5t188 -53q167 0 318.5 124.5t182.5 285.5l124 635h45l-206 -1061h-45l49 258q-77 -124 -208.5 -203.5t-267.5 -79.5zM528 1372q4 25 24 41.5t45 16.5t38 -16.5t8 -41.5
q-4 -25 -24 -41t-45 -16t-38 16t-8 41zM864 1372q4 25 24 41.5t45 16.5t38 -16.5t8 -41.5q-4 -25 -24 -41t-45 -16t-38 16t-8 41z" />
    <glyph glyph-name="yacute" unicode="&#xfd;" horiz-adv-x="1056" 
d="M103 -475l308 493l-258 1043h53l243 -981l609 981h53l-954 -1536h-54zM598 1237l353 330l30 -28l-354 -330z" />
    <glyph glyph-name="thorn" unicode="&#xfe;" horiz-adv-x="1282" 
d="M1195 530q-29 -151 -122 -278t-225.5 -201t-273.5 -74q-158 0 -266 92t-136 243l-154 -787h-45l383 1970h45l-144 -746q87 151 231 243t302 92q141 0 244.5 -74t146.5 -201.5t14 -278.5zM1149 530q27 141 -11.5 259.5t-132.5 187.5t-224 69q-97 0 -192 -41t-170 -110
t-130 -164.5t-75 -200.5q-27 -141 11.5 -259t132.5 -186.5t224 -68.5q97 0 192 40.5t170 109.5t130 164t75 200z" />
    <glyph glyph-name="ydieresis" unicode="&#xff;" horiz-adv-x="1056" 
d="M467 1372q4 25 24 41.5t45 16.5t38 -16.5t8 -41.5q-4 -25 -24 -41t-45 -16t-38 16t-8 41zM803 1372q5 25 24 41.5t44 16.5t38.5 -16.5t8.5 -41.5q-4 -25 -24 -41t-45 -16t-38 16t-8 41zM103 -475l308 493l-258 1043h53l243 -981l609 981h53l-954 -1536h-54z" />
    <glyph glyph-name="Amacron" unicode="&#x100;" horiz-adv-x="1351" 
d="M1122 0l-91 442h-745l-261 -442h-54l858 1434h45l302 -1434h-54zM841 1376l-531 -893h713zM633 1680l8 41h533l-9 -41h-532z" />
    <glyph glyph-name="amacron" unicode="&#x101;" horiz-adv-x="1282" 
d="M87 530q22 113 82 215.5t143 176.5t186.5 118t209.5 44q158 0 265.5 -92t137.5 -243l60 312h46l-206 -1061h-45l60 312q-89 -151 -232 -243t-301 -92q-141 0 -245 74t-147 201t-14 278zM133 530q-27 -141 11.5 -259t133 -186.5t224.5 -68.5t250.5 68.5t204.5 186.5
t111 259t-11 259.5t-132 187.5t-224 69t-251 -69t-205.5 -187.5t-111.5 -259.5zM526 1349l9 41h532l-8 -41h-533z" />
    <glyph glyph-name="Abreve" unicode="&#x102;" horiz-adv-x="1351" 
d="M1122 0l-91 442h-745l-261 -442h-54l858 1434h45l302 -1434h-54zM841 1376l-531 -893h713zM871 1534q-128 0 -191.5 85t-44.5 216h45q-16 -114 35 -187t164 -73t192.5 73t108.5 187h45q-31 -130 -128.5 -215.5t-225.5 -85.5z" />
    <glyph glyph-name="abreve" unicode="&#x103;" horiz-adv-x="1282" 
d="M87 530q22 113 82 215.5t143 176.5t186.5 118t209.5 44q158 0 265.5 -92t137.5 -243l60 312h46l-206 -1061h-45l60 312q-89 -151 -232 -243t-301 -92q-141 0 -245 74t-147 201t-14 278zM133 530q-27 -141 11.5 -259t133 -186.5t224.5 -68.5t250.5 68.5t204.5 186.5
t111 259t-11 259.5t-132 187.5t-224 69t-251 -69t-205.5 -187.5t-111.5 -259.5zM762 1202q-128 0 -192 85.5t-45 215.5h45q-16 -114 35 -187t164 -73t192.5 73t108.5 187h45q-31 -131 -128 -216t-225 -85z" />
    <glyph glyph-name="Aogonek" unicode="&#x104;" horiz-adv-x="1351" 
d="M1122 0l-91 442h-745l-261 -442h-54l858 1434h45l302 -1434q-55 -38 -80.5 -56.5t-65 -50.5t-58.5 -54t-36 -51.5t-23 -59.5q-13 -66 21.5 -111t97.5 -45q70 0 121.5 41t65.5 115h46q-19 -94 -84.5 -145.5t-156.5 -51.5q-82 0 -127 57t-29 140q16 79 79.5 140t174.5 132z
M841 1376l-531 -893h713z" />
    <glyph glyph-name="aogonek" unicode="&#x105;" horiz-adv-x="1282" 
d="M87 530q22 113 82 215.5t143 176.5t186.5 118t209.5 44q158 0 265.5 -92t137.5 -243l60 312h46l-206 -1061q-67 -47 -99.5 -71t-74 -61t-61.5 -70t-27 -70q-13 -66 21 -111t97 -45q70 0 121.5 41t65.5 115h46q-19 -94 -84.5 -145.5t-156.5 -51.5q-82 0 -127 57t-29 140
q7 34 26 66.5t40.5 56.5t59.5 54t64 47.5t73 47.5l60 312q-89 -151 -232 -243t-301 -92q-141 0 -245 74t-147 201t-14 278zM133 530q-27 -141 11.5 -259t133 -186.5t224.5 -68.5t250.5 68.5t204.5 186.5t111 259t-11 259.5t-132 187.5t-224 69t-251 -69t-205.5 -187.5
t-111.5 -259.5z" />
    <glyph glyph-name="Cacute" unicode="&#x106;" horiz-adv-x="1575" 
d="M1576 988h-49q-40 192 -185.5 310.5t-356.5 118.5q-140 0 -277 -55.5t-245 -149.5t-186 -223.5t-106 -271.5q-37 -190 21 -351t196 -255.5t325 -94.5q190 0 366.5 98t296.5 263l33 -27q-127 -172 -314 -273.5t-390 -101.5q-150 0 -273.5 57t-199 157t-107.5 235.5
t1 292.5q40 206 168 376t313 267.5t385 97.5q231 0 388.5 -129t195.5 -341zM889 1569l353 329l30 -27l-354 -330z" />
    <glyph glyph-name="cacute" unicode="&#x107;" horiz-adv-x="1190" 
d="M1013 275l30 -26q-96 -125 -233 -199.5t-288 -74.5q-115 0 -208 45t-148 121t-79 177t0 212q22 110 83 211.5t146.5 177.5t196 121t225.5 45q154 0 264 -77t155 -206h-52q-45 110 -143.5 176t-231.5 66q-139 0 -268 -71.5t-216.5 -189.5t-113.5 -253t15 -253
t142.5 -189.5t240.5 -71.5t267 70.5t216 188.5zM655 1237l354 330l29 -28l-354 -330z" />
    <glyph glyph-name="Ccircumflex" unicode="&#x108;" horiz-adv-x="1575" 
d="M1576 988h-49q-40 192 -185.5 310.5t-356.5 118.5q-140 0 -277 -55.5t-245 -149.5t-186 -223.5t-106 -271.5q-37 -190 21 -351t196 -255.5t325 -94.5q190 0 366.5 98t296.5 263l33 -27q-127 -172 -314 -273.5t-390 -101.5q-150 0 -273.5 57t-199 157t-107.5 235.5
t1 292.5q40 206 168 376t313 267.5t385 97.5q231 0 388.5 -129t195.5 -341zM1252 1544l-218 305l-337 -305l-23 26l349 316h37l224 -316z" />
    <glyph glyph-name="ccircumflex" unicode="&#x109;" horiz-adv-x="1190" 
d="M1013 275l30 -26q-96 -125 -233 -199.5t-288 -74.5q-115 0 -208 45t-148 121t-79 177t0 212q22 110 83 211.5t146.5 177.5t196 121t225.5 45q154 0 264 -77t155 -206h-52q-45 110 -143.5 176t-231.5 66q-139 0 -268 -71.5t-216.5 -189.5t-113.5 -253t15 -253
t142.5 -189.5t240.5 -71.5t267 70.5t216 188.5zM1006 1212l-219 306l-336 -306l-23 26l348 316h37l225 -316z" />
    <glyph glyph-name="Cdotaccent" unicode="&#x10a;" horiz-adv-x="1575" 
d="M1576 988h-49q-40 192 -185.5 310.5t-356.5 118.5q-140 0 -277 -55.5t-245 -149.5t-186 -223.5t-106 -271.5q-37 -190 21 -351t196 -255.5t325 -94.5q190 0 366.5 98t296.5 263l33 -27q-127 -172 -314 -273.5t-390 -101.5q-150 0 -273.5 57t-199 157t-107.5 235.5
t1 292.5q40 206 168 376t313 267.5t385 97.5q231 0 388.5 -129t195.5 -341zM952 1704q4 25 24 41t45 16t38 -16t8 -41q-4 -25 -24 -41t-45 -16t-38 16t-8 41z" />
    <glyph glyph-name="cdotaccent" unicode="&#x10b;" horiz-adv-x="1190" 
d="M1013 275l30 -26q-96 -125 -233 -199.5t-288 -74.5q-115 0 -208 45t-148 121t-79 177t0 212q22 110 83 211.5t146.5 177.5t196 121t225.5 45q154 0 264 -77t155 -206h-52q-45 110 -143.5 176t-231.5 66q-139 0 -268 -71.5t-216.5 -189.5t-113.5 -253t15 -253
t142.5 -189.5t240.5 -71.5t267 70.5t216 188.5zM718 1372q5 25 24 41.5t44 16.5t38.5 -16.5t8.5 -41.5q-4 -25 -24 -41t-45 -16t-38 16t-8 41z" />
    <glyph glyph-name="Ccaron" unicode="&#x10c;" horiz-adv-x="1575" 
d="M1576 988h-49q-40 192 -185.5 310.5t-356.5 118.5q-140 0 -277 -55.5t-245 -149.5t-186 -223.5t-106 -271.5q-37 -190 21 -351t196 -255.5t325 -94.5q190 0 366.5 98t296.5 263l33 -27q-127 -172 -314 -273.5t-390 -101.5q-150 0 -273.5 57t-199 157t-107.5 235.5
t1 292.5q40 206 168 376t313 267.5t385 97.5q231 0 388.5 -129t195.5 -341zM984 1591l336 305l23 -25l-348 -317h-37l-225 317l32 25z" />
    <glyph glyph-name="ccaron" unicode="&#x10d;" horiz-adv-x="1190" 
d="M1013 275l30 -26q-96 -125 -233 -199.5t-288 -74.5q-115 0 -208 45t-148 121t-79 177t0 212q22 110 83 211.5t146.5 177.5t196 121t225.5 45q154 0 264 -77t155 -206h-52q-45 110 -143.5 176t-231.5 66q-139 0 -268 -71.5t-216.5 -189.5t-113.5 -253t15 -253
t142.5 -189.5t240.5 -71.5t267 70.5t216 188.5zM742 1239l337 305l23 -25l-348 -317h-37l-225 317l32 25z" />
    <glyph glyph-name="Dcaron" unicode="&#x10e;" horiz-adv-x="1385" 
d="M373 1434h434q201 0 335 -92t182.5 -254t8.5 -371q-62 -318 -282 -517.5t-523 -199.5h-434zM799 1393h-389l-264 -1352h390q282 0 487.5 188.5t264.5 487.5q38 196 -7 349t-170 240t-312 87zM881 1591l336 305l23 -25l-348 -317h-37l-225 317l32 25z" />
    <glyph glyph-name="dcaron" unicode="&#x10f;" horiz-adv-x="1570" 
d="M87 530q22 113 82 215.5t143 176.5t186.5 118t209.5 44q158 0 265.5 -92t137.5 -243l144 746h45l-289 -1495h-45l60 312q-89 -151 -232 -243t-301 -92q-141 0 -245 74t-147 201t-14 278zM133 530q-27 -141 11.5 -259t133 -186.5t224.5 -68.5t250.5 68.5t204.5 186.5
t111 259t-11 259.5t-132 187.5t-224 69t-251 -69t-205.5 -187.5t-111.5 -259.5zM1568 1461q5 25 24 42t43 17q26 0 38.5 -18t6.5 -52q-12 -66 -50 -126.5t-127 -137.5l-27 29q69 64 88.5 114t3.5 98q-3 19 0 34z" />
    <glyph glyph-name="Dcroat" unicode="&#x110;" horiz-adv-x="1453" 
d="M440 1434h434q201 0 335.5 -92t183 -254t8.5 -371q-62 -318 -282 -517.5t-523 -199.5h-434l135 696h-195l8 41h194zM866 1393h-389l-128 -656h385l-7 -41h-385l-128 -655h389q282 0 488 188.5t265 487.5q38 196 -7.5 349t-170.5 240t-312 87z" />
    <glyph glyph-name="dcroat" unicode="&#x111;" horiz-adv-x="1348" 
d="M781 1246l9 41h425l40 208h45l-39 -208h184l-8 -41h-185l-241 -1246h-45l60 312q-89 -151 -232 -243t-301 -92q-141 0 -245 74t-147 201t-14 278q22 113 82 215.5t143 176.5t186.5 118t209.5 44q158 0 265.5 -92t137.5 -243l96 497h-426zM133 530q-27 -141 11.5 -259
t133 -186.5t224.5 -68.5t250.5 68.5t204.5 186.5t111 259t-11 259.5t-132 187.5t-224 69t-251 -69t-205.5 -187.5t-111.5 -259.5z" />
    <glyph glyph-name="Emacron" unicode="&#x112;" horiz-adv-x="1122" 
d="M94 0l279 1434h770l-8 -41h-725l-127 -652h665l-8 -41h-666l-128 -659h744l-7 -41h-789zM528 1680l9 41h532l-8 -41h-533z" />
    <glyph glyph-name="emacron" unicode="&#x113;" horiz-adv-x="1215" 
d="M131 524q-25 -136 14.5 -251.5t140.5 -186t244 -70.5q117 0 228 52t201 145l27 -31q-91 -95 -213 -151t-251 -56q-157 0 -267.5 76t-153.5 202.5t-14 276.5q29 149 121.5 276t230 203t287.5 76q145 0 249 -70t145.5 -189.5t13.5 -262.5q-3 -15 -12 -39h-991zM718 1044
q-195 0 -361 -141t-217 -338h949q33 208 -71.5 343.5t-299.5 135.5zM500 1349l8 41h532l-8 -41h-532z" />
    <glyph glyph-name="Ebreve" unicode="&#x114;" horiz-adv-x="1122" 
d="M94 0l279 1434h770l-8 -41h-725l-127 -652h665l-8 -41h-666l-128 -659h744l-7 -41h-789zM757 1534q-128 0 -192 85.5t-45 215.5h45q-16 -114 35 -187t164 -73t192.5 73t108.5 187h45q-31 -131 -128 -216t-225 -85z" />
    <glyph glyph-name="ebreve" unicode="&#x115;" horiz-adv-x="1215" 
d="M131 524q-25 -136 14.5 -251.5t140.5 -186t244 -70.5q117 0 228 52t201 145l27 -31q-91 -95 -213 -151t-251 -56q-157 0 -267.5 76t-153.5 202.5t-14 276.5q29 149 121.5 276t230 203t287.5 76q145 0 249 -70t145.5 -189.5t13.5 -262.5q-3 -15 -12 -39h-991zM718 1044
q-195 0 -361 -141t-217 -338h949q33 208 -71.5 343.5t-299.5 135.5zM738 1202q-128 0 -191.5 85t-44.5 216h45q-16 -114 34.5 -187t163.5 -73t193 73t109 187h45q-31 -130 -128.5 -215.5t-225.5 -85.5z" />
    <glyph glyph-name="Edotaccent" unicode="&#x116;" horiz-adv-x="1122" 
d="M94 0l279 1434h770l-8 -41h-725l-127 -652h665l-8 -41h-666l-128 -659h744l-7 -41h-789zM749 1704q4 25 23.5 41t44.5 16t38 -16t8 -41q-4 -25 -23.5 -41t-44.5 -16t-38 16t-8 41z" />
    <glyph glyph-name="edotaccent" unicode="&#x117;" horiz-adv-x="1215" 
d="M131 524q-25 -136 14.5 -251.5t140.5 -186t244 -70.5q117 0 228 52t201 145l27 -31q-91 -95 -213 -151t-251 -56q-157 0 -267.5 76t-153.5 202.5t-14 276.5q29 149 121.5 276t230 203t287.5 76q145 0 249 -70t145.5 -189.5t13.5 -262.5q-3 -15 -12 -39h-991zM718 1044
q-195 0 -361 -141t-217 -338h949q33 208 -71.5 343.5t-299.5 135.5zM714 1372q5 25 24 41.5t44 16.5t38 -16.5t8 -41.5q-4 -25 -23.5 -41t-44.5 -16t-38 16t-8 41z" />
    <glyph glyph-name="Eogonek" unicode="&#x118;" horiz-adv-x="1122" 
d="M94 0l279 1434h770l-8 -41h-725l-127 -652h665l-8 -41h-666l-128 -659h744l-7 -41h-171q-67 -47 -99.5 -71t-74 -61t-61.5 -70t-27 -70q-13 -66 21 -111t97 -45q70 0 121.5 41t65.5 115h46q-19 -94 -84.5 -145.5t-156.5 -51.5q-82 0 -127 57t-29 140q16 79 79 139
t177 133h-566z" />
    <glyph glyph-name="eogonek" unicode="&#x119;" horiz-adv-x="1215" 
d="M131 524q-25 -136 14.5 -251.5t140.5 -186t244 -70.5q117 0 228 52t201 145l27 -31q-86 -89 -199 -144t-234 -62q-108 -77 -161.5 -130.5t-65.5 -117.5q-13 -66 21 -111t97 -45q70 0 121.5 41t65.5 115h46q-19 -94 -84.5 -145.5t-156.5 -51.5q-82 0 -126.5 57t-28.5 140
q14 71 68.5 128t149.5 120q-150 5 -255 82t-145 201t-12 271q29 149 121.5 276t230 203t287.5 76q145 0 249 -70t145.5 -189.5t13.5 -262.5q-3 -15 -12 -39h-991zM718 1044q-195 0 -361 -141t-217 -338h949q33 208 -71.5 343.5t-299.5 135.5z" />
    <glyph glyph-name="Ecaron" unicode="&#x11a;" horiz-adv-x="1122" 
d="M94 0l279 1434h770l-8 -41h-725l-127 -652h665l-8 -41h-666l-128 -659h744l-7 -41h-789zM783 1591l336 305l24 -25l-348 -317h-37l-226 317l32 25z" />
    <glyph glyph-name="ecaron" unicode="&#x11b;" horiz-adv-x="1215" 
d="M131 524q-25 -136 14.5 -251.5t140.5 -186t244 -70.5q117 0 228 52t201 145l27 -31q-91 -95 -213 -151t-251 -56q-157 0 -267.5 76t-153.5 202.5t-14 276.5q29 149 121.5 276t230 203t287.5 76q145 0 249 -70t145.5 -189.5t13.5 -262.5q-3 -15 -12 -39h-991zM718 1044
q-195 0 -361 -141t-217 -338h949q33 208 -71.5 343.5t-299.5 135.5zM745 1239l337 305l23 -25l-348 -317h-37l-225 317l32 25z" />
    <glyph glyph-name="Gcircumflex" unicode="&#x11c;" horiz-adv-x="1624" 
d="M1567 693q-44 -201 -173 -365.5t-311 -258.5t-378 -94q-150 0 -273.5 57t-199 157t-107.5 235.5t1 292.5q40 206 168 376t313 267.5t385 97.5q221 0 376 -118.5t201 -314.5h-51q-48 177 -190.5 284.5t-342.5 107.5q-140 0 -277 -55.5t-245 -149.5t-186 -223.5
t-106 -271.5q-37 -190 21 -351t196 -255.5t325 -94.5q176 0 341.5 84.5t285.5 230t170 321.5h-629l8 41h678zM1252 1544l-218 305l-337 -305l-23 26l349 316h37l224 -316z" />
    <glyph glyph-name="gcircumflex" unicode="&#x11d;" horiz-adv-x="1282" 
d="M87 530q22 113 82 215.5t143 176.5t186.5 118t209.5 44q158 0 265.5 -92t137.5 -243l60 312h46l-213 -1096q-37 -194 -192.5 -317t-360.5 -123q-260 0 -403 205l38 34q57 -91 151 -144.5t222 -53.5q186 0 325.5 111t173.5 288l68 347q-89 -151 -232 -243t-301 -92
q-141 0 -245 74t-147 201t-14 278zM133 530q-27 -141 11.5 -259t133 -186.5t224.5 -68.5t250.5 68.5t204.5 186.5t111 259t-11 259.5t-132 187.5t-224 69t-251 -69t-205.5 -187.5t-111.5 -259.5zM1052 1212l-218 306l-337 -306l-23 26l348 316h37l225 -316z" />
    <glyph glyph-name="Gbreve" unicode="&#x11e;" horiz-adv-x="1624" 
d="M1567 693q-44 -201 -173 -365.5t-311 -258.5t-378 -94q-150 0 -273.5 57t-199 157t-107.5 235.5t1 292.5q40 206 168 376t313 267.5t385 97.5q221 0 376 -118.5t201 -314.5h-51q-48 177 -190.5 284.5t-342.5 107.5q-140 0 -277 -55.5t-245 -149.5t-186 -223.5
t-106 -271.5q-37 -190 21 -351t196 -255.5t325 -94.5q176 0 341.5 84.5t285.5 230t170 321.5h-629l8 41h678zM973 1534q-128 0 -192 85.5t-45 215.5h45q-16 -114 35 -187t164 -73t192.5 73t108.5 187h45q-31 -131 -128 -216t-225 -85z" />
    <glyph glyph-name="gbreve" unicode="&#x11f;" horiz-adv-x="1282" 
d="M87 530q22 113 82 215.5t143 176.5t186.5 118t209.5 44q158 0 265.5 -92t137.5 -243l60 312h46l-213 -1096q-37 -194 -192.5 -317t-360.5 -123q-260 0 -403 205l38 34q57 -91 151 -144.5t222 -53.5q186 0 325.5 111t173.5 288l68 347q-89 -151 -232 -243t-301 -92
q-141 0 -245 74t-147 201t-14 278zM133 530q-27 -141 11.5 -259t133 -186.5t224.5 -68.5t250.5 68.5t204.5 186.5t111 259t-11 259.5t-132 187.5t-224 69t-251 -69t-205.5 -187.5t-111.5 -259.5zM753 1202q-128 0 -192 85.5t-45 215.5h45q-16 -114 35 -187t164 -73t192.5 73
t108.5 187h45q-31 -131 -128 -216t-225 -85z" />
    <glyph glyph-name="Gdotaccent" unicode="&#x120;" horiz-adv-x="1624" 
d="M1567 693q-44 -201 -173 -365.5t-311 -258.5t-378 -94q-150 0 -273.5 57t-199 157t-107.5 235.5t1 292.5q40 206 168 376t313 267.5t385 97.5q221 0 376 -118.5t201 -314.5h-51q-48 177 -190.5 284.5t-342.5 107.5q-140 0 -277 -55.5t-245 -149.5t-186 -223.5
t-106 -271.5q-37 -190 21 -351t196 -255.5t325 -94.5q176 0 341.5 84.5t285.5 230t170 321.5h-629l8 41h678zM947 1704q4 25 24 41t45 16t38 -16t8 -41q-4 -25 -24 -41t-45 -16t-38 16t-8 41z" />
    <glyph glyph-name="gdotaccent" unicode="&#x121;" horiz-adv-x="1282" 
d="M87 530q22 113 82 215.5t143 176.5t186.5 118t209.5 44q158 0 265.5 -92t137.5 -243l60 312h46l-213 -1096q-37 -194 -192.5 -317t-360.5 -123q-260 0 -403 205l38 34q57 -91 151 -144.5t222 -53.5q186 0 325.5 111t173.5 288l68 347q-89 -151 -232 -243t-301 -92
q-141 0 -245 74t-147 201t-14 278zM133 530q-27 -141 11.5 -259t133 -186.5t224.5 -68.5t250.5 68.5t204.5 186.5t111 259t-11 259.5t-132 187.5t-224 69t-251 -69t-205.5 -187.5t-111.5 -259.5zM728 1372q4 25 24 41.5t45 16.5t38 -16.5t8 -41.5q-4 -25 -24 -41t-45 -16
t-38 16t-8 41z" />
    <glyph glyph-name="Gcommaaccent" unicode="&#x122;" horiz-adv-x="1624" 
d="M1567 693q-44 -201 -173 -365.5t-311 -258.5t-378 -94q-150 0 -273.5 57t-199 157t-107.5 235.5t1 292.5q40 206 168 376t313 267.5t385 97.5q221 0 376 -118.5t201 -314.5h-51q-48 177 -190.5 284.5t-342.5 107.5q-140 0 -277 -55.5t-245 -149.5t-186 -223.5
t-106 -271.5q-37 -190 21 -351t196 -255.5t325 -94.5q176 0 341.5 84.5t285.5 230t170 321.5h-629l8 41h678zM392 -456l353 330l29 -28l-353 -329z" />
    <glyph glyph-name="gcommaaccent" unicode="&#x123;" horiz-adv-x="1282" 
d="M87 530q22 113 82 215.5t143 176.5t186.5 118t209.5 44q158 0 265.5 -92t137.5 -243l60 312h46l-213 -1096q-37 -194 -192.5 -317t-360.5 -123q-260 0 -403 205l38 34q57 -91 151 -144.5t222 -53.5q186 0 325.5 111t173.5 288l68 347q-89 -151 -232 -243t-301 -92
q-141 0 -245 74t-147 201t-14 278zM133 530q-27 -141 11.5 -259t133 -186.5t224.5 -68.5t250.5 68.5t204.5 186.5t111 259t-11 259.5t-132 187.5t-224 69t-251 -69t-205.5 -187.5t-111.5 -259.5zM996 1525l-353 -330l-29 28l354 329z" />
    <glyph glyph-name="Hcircumflex" unicode="&#x124;" horiz-adv-x="1384" 
d="M1167 1544l-218 305l-337 -305l-23 26l349 316h37l224 -316zM94 0l279 1434h45l-135 -693h901l135 693h45l-279 -1434h-45l136 700h-902l-135 -700h-45z" />
    <glyph glyph-name="hcircumflex" unicode="&#x125;" horiz-adv-x="1199" 
d="M744 1085q188 0 277.5 -119.5t53.5 -306.5l-128 -659h-45l127 655q21 109 -4.5 196.5t-100.5 140t-188 52.5q-167 0 -318.5 -124t-183.5 -285l-122 -635h-45l289 1495h45l-134 -692q76 123 208 202.5t269 79.5zM678 1606l-218 305l-337 -305l-23 25l349 317h36l226 -317z
" />
    <glyph glyph-name="Hbar" unicode="&#x126;" horiz-adv-x="1417" 
d="M111 0l218 1124h-144l9 41h143l52 269h45l-52 -269h901l52 269h45l-52 -269h143l-8 -41h-143l-218 -1124h-45l135 700h-901l-135 -700h-45zM299 741h901l75 383h-901z" />
    <glyph glyph-name="hbar" unicode="&#x127;" horiz-adv-x="1265" 
d="M468 1495l-40 -208h426l-8 -41h-426l-86 -443q76 123 208 202.5t269 79.5q188 0 277.5 -119.5t53.5 -306.5l-128 -659h-45l127 655q21 109 -4.5 196.5t-100.5 140t-188 52.5q-167 0 -318.5 -124t-183.5 -285l-123 -635h-45l242 1246h-185l9 41h184l40 208h45z" />
    <glyph glyph-name="Itilde" unicode="&#x128;" horiz-adv-x="565" 
d="M436 1434h45l-278 -1434h-45zM492 1676q-22 33 -35.5 50.5t-36.5 34.5t-47 17q-89 0 -156 -171l-43 9q82 203 207 203q33 0 62 -18t45.5 -38t38.5 -54q20 -31 34.5 -49.5t37.5 -35t47 -16.5q88 0 155 171l43 -10q-80 -202 -206 -202q-47 0 -80.5 29t-65.5 80z" />
    <glyph glyph-name="itilde" unicode="&#x129;" horiz-adv-x="518" 
d="M134 0l206 1061h45l-206 -1061h-45zM403 1345q-22 33 -35 50t-36 34t-47 17q-90 0 -155 -171l-44 9q82 203 207 203q33 0 62 -18t45.5 -38t38.5 -54q20 -31 34.5 -49.5t37.5 -35t47 -16.5q88 0 155 171l43 -9q-81 -203 -206 -203q-47 0 -81 29.5t-66 80.5z" />
    <glyph glyph-name="Imacron" unicode="&#x12a;" horiz-adv-x="565" 
d="M436 1434h45l-278 -1434h-45zM240 1680l8 41h532l-8 -41h-532z" />
    <glyph glyph-name="imacron" unicode="&#x12b;" horiz-adv-x="518" 
d="M134 0l206 1061h45l-206 -1061h-45zM152 1349l8 41h532l-8 -41h-532z" />
    <glyph glyph-name="Ibreve" unicode="&#x12c;" horiz-adv-x="565" 
d="M436 1434h45l-278 -1434h-45zM478 1534q-128 0 -191.5 85t-44.5 216h45q-16 -114 34.5 -187t163.5 -73t192.5 73t108.5 187h45q-31 -131 -128 -216t-225 -85z" />
    <glyph glyph-name="ibreve" unicode="&#x12d;" horiz-adv-x="518" 
d="M134 0l206 1061h45l-206 -1061h-45zM390 1202q-128 0 -191.5 85t-44.5 216h45q-16 -114 34.5 -187t163.5 -73t192.5 73t108.5 187h45q-31 -131 -128 -216t-225 -85z" />
    <glyph glyph-name="Iogonek" unicode="&#x12e;" horiz-adv-x="565" 
d="M158 0l278 1434h45l-278 -1434q-67 -47 -99.5 -71t-74 -61t-61.5 -70t-27 -70q-13 -66 21 -111t97 -45q70 0 121.5 41t65.5 115h46q-19 -94 -84.5 -145.5t-156.5 -51.5q-82 0 -126.5 57t-27.5 140q8 42 31 79.5t64.5 73t74 59t91.5 60.5z" />
    <glyph glyph-name="iogonek" unicode="&#x12f;" horiz-adv-x="518" 
d="M134 0l206 1061h45l-206 -1061q-67 -47 -99.5 -71t-74 -61t-61.5 -70t-27 -70q-13 -66 21.5 -111t97.5 -45q70 0 121 41t65 115h46q-19 -94 -84 -145.5t-156 -51.5q-82 0 -126.5 57t-28.5 140q7 34 25.5 66.5t40 57t58.5 53.5t64 47.5t73 47.5zM372 1380q4 23 22 38.5
t41 15.5t35 -15.5t8 -38.5t-22.5 -38t-41.5 -15t-35 15t-7 38z" />
    <glyph glyph-name="Idotaccent" unicode="&#x130;" horiz-adv-x="565" 
d="M436 1434h45l-278 -1434h-45zM454 1704q4 25 23.5 41t44.5 16t38 -16t8 -41q-4 -25 -23.5 -41t-44.5 -16t-38 16t-8 41z" />
    <glyph glyph-name="dotlessi" unicode="&#x131;" horiz-adv-x="518" 
d="M134 0l206 1061h45l-206 -1061h-45z" />
    <glyph glyph-name="IJ" unicode="&#x132;" horiz-adv-x="1454" 
d="M436 1434h45l-278 -1434h-45zM1207 397l202 1037h45l-202 -1037q-40 -206 -156 -314t-286 -108q-70 0 -141.5 19t-123.5 51l24 43q47 -32 115.5 -52t129.5 -20q151 0 254 98t139 283z" />
    <glyph glyph-name="ij" unicode="&#x133;" horiz-adv-x="1036" 
d="M134 0l206 1061h45l-206 -1061h-45zM372 1380q4 23 22 38.5t41 15.5t35 -15.5t8 -38.5t-22.5 -38t-41.5 -15t-35 15t-7 38zM607 -229l251 1290h45l-251 -1290q-22 -115 -97.5 -180.5t-169.5 -65.5q-37 0 -73 4l9 41q38 -4 72 -4q76 0 135 53.5t79 151.5zM890 1380
q4 23 22 38.5t41 15.5t35 -15.5t8 -38.5t-22.5 -38t-41.5 -15t-35 15t-7 38z" />
    <glyph glyph-name="Jcircumflex" unicode="&#x134;" horiz-adv-x="888" 
d="M642 397l202 1037h45l-202 -1037q-40 -206 -156 -314t-286 -108q-70 0 -141.5 19t-123.5 51l24 43q47 -32 115.5 -52t129.5 -20q151 0 254 98t139 283zM1165 1544l-218 305l-337 -305l-23 26l349 316h37l224 -316z" />
    <glyph glyph-name="jcircumflex" unicode="&#x135;" horiz-adv-x="518" 
d="M89 -229l251 1290h45l-251 -1290q-22 -115 -97.5 -180.5t-168.5 -65.5q-37 0 -73 4l8 41q38 -4 73 -4q76 0 134.5 53.5t78.5 151.5zM670 1212l-218 306l-337 -306l-23 26l348 316h37l225 -316z" />
    <glyph glyph-name="Kcommaaccent" unicode="&#x136;" horiz-adv-x="1185" 
d="M1192 1434h47q-59 -306 -207 -487t-362 -229l372 -718h-57l-368 708q-56 -8 -108 -8h-235l-135 -700h-45l279 1434h45l-135 -693h232q164 0 299 75t234 232.5t144 385.5zM205 -456l353 330l29 -28l-354 -329z" />
    <glyph glyph-name="kcommaaccent" unicode="&#x137;" horiz-adv-x="1020" 
d="M975 1061h45q-39 -201 -158.5 -325t-295.5 -156l320 -580h-60l-315 572q-33 -3 -67 -3h-222l-110 -569h-45l289 1495h45l-172 -885h225q202 0 340.5 116.5t180.5 334.5zM105 -456l354 330l28 -28l-353 -329z" />
    <glyph glyph-name="kgreenlandic" unicode="&#x138;" horiz-adv-x="1020" 
d="M975 1061h45q-39 -201 -158.5 -325t-295.5 -156l320 -580h-60l-315 572q-33 -3 -67 -3h-222l-110 -569h-45l205 1061h45l-88 -451h225q202 0 340.5 116.5t180.5 334.5z" />
    <glyph glyph-name="Lacute" unicode="&#x139;" horiz-adv-x="1054" 
d="M94 0l279 1434h45l-272 -1393h744l-7 -41h-789zM409 1569l353 329l30 -27l-355 -330z" />
    <glyph glyph-name="lacute" unicode="&#x13a;" horiz-adv-x="518" 
d="M134 0l290 1495h45l-290 -1495h-45zM374 1630l353 330l29 -28l-354 -329z" />
    <glyph glyph-name="Lcommaaccent" unicode="&#x13b;" horiz-adv-x="1054" 
d="M94 0l279 1434h45l-272 -1393h744l-7 -41h-789zM174 -456l353 330l29 -28l-353 -329z" />
    <glyph glyph-name="lcommaaccent" unicode="&#x13c;" horiz-adv-x="518" 
d="M134 0l290 1495h45l-290 -1495h-45zM-159 -456l353 330l28 -28l-352 -329z" />
    <glyph glyph-name="Lcaron" unicode="&#x13d;" horiz-adv-x="1054" 
d="M94 0l279 1434h45l-272 -1393h744l-7 -41h-789zM827 1400q5 25 24 41.5t44 16.5q26 0 39 -18t6 -51q-13 -67 -50.5 -127.5t-126.5 -137.5l-27 30q68 64 87.5 114t4.5 98q-4 15 -1 34z" />
    <glyph glyph-name="lcaron" unicode="&#x13e;" horiz-adv-x="741" 
d="M134 0l290 1495h45l-290 -1495h-45zM738 1461q5 25 24 42t44 17q26 0 38.5 -18t6.5 -52q-12 -66 -50 -126.5t-127 -137.5l-28 29q69 64 88.5 114t3.5 98q-3 19 0 34z" />
    <glyph glyph-name="Ldot" unicode="&#x13f;" horiz-adv-x="1054" 
d="M94 0l279 1434h45l-272 -1393h744l-7 -41h-789zM707 770q4 25 23.5 41t44.5 16t38 -16t8 -41t-24 -41t-44 -16t-38 16t-8 41z" />
    <glyph glyph-name="ldot" unicode="&#x140;" horiz-adv-x="754" 
d="M134 0l290 1495h45l-290 -1495h-45zM617 770q4 25 24 41t45 16t38 -16t8 -41t-24 -41t-44 -16t-38.5 16t-8.5 41z" />
    <glyph glyph-name="Lslash" unicode="&#x141;" horiz-adv-x="1091" 
d="M131 0l123 633l-169 -79l-14 36l191 89l148 755h45l-143 -732l507 238l14 -36l-530 -248l-120 -615h744l-7 -41h-789z" />
    <glyph glyph-name="lslash" unicode="&#x142;" horiz-adv-x="598" 
d="M174 0l144 746l-249 -114l9 47l250 115l136 701h45l-132 -679l250 115l-10 -47l-249 -115l-149 -769h-45z" />
    <glyph glyph-name="Nacute" unicode="&#x143;" horiz-adv-x="1404" 
d="M94 0l279 1434h41l662 -1352l263 1352h45l-278 -1434h-41l-664 1352l-262 -1352h-45zM820 1569l354 329l29 -27l-354 -330z" />
    <glyph glyph-name="nacute" unicode="&#x144;" horiz-adv-x="1199" 
d="M744 1085q188 0 277.5 -119.5t53.5 -306.5l-128 -659h-45l127 655q21 109 -4.5 196.5t-100.5 140t-188 52.5q-167 0 -318.5 -124t-183.5 -285l-122 -635h-45l205 1061h45l-50 -258q76 123 208 202.5t269 79.5zM662 1237l353 330l29 -28l-354 -330z" />
    <glyph glyph-name="Ncommaaccent" unicode="&#x145;" horiz-adv-x="1404" 
d="M94 0l279 1434h41l662 -1352l263 1352h45l-278 -1434h-41l-664 1352l-262 -1352h-45zM291 -456l353 330l29 -28l-354 -329z" />
    <glyph glyph-name="ncommaaccent" unicode="&#x146;" horiz-adv-x="1199" 
d="M744 1085q188 0 277.5 -119.5t53.5 -306.5l-128 -659h-45l127 655q21 109 -4.5 196.5t-100.5 140t-188 52.5q-167 0 -318.5 -124t-183.5 -285l-122 -635h-45l205 1061h45l-50 -258q76 123 208 202.5t269 79.5zM197 -456l353 330l29 -28l-354 -329z" />
    <glyph glyph-name="Ncaron" unicode="&#x147;" horiz-adv-x="1404" 
d="M909 1591l336 305l24 -25l-348 -317h-37l-226 317l32 25zM94 0l279 1434h41l662 -1352l263 1352h45l-278 -1434h-41l-664 1352l-262 -1352h-45z" />
    <glyph glyph-name="ncaron" unicode="&#x148;" horiz-adv-x="1199" 
d="M744 1085q188 0 277.5 -119.5t53.5 -306.5l-128 -659h-45l127 655q21 109 -4.5 196.5t-100.5 140t-188 52.5q-167 0 -318.5 -124t-183.5 -285l-122 -635h-45l205 1061h45l-50 -258q76 123 208 202.5t269 79.5zM748 1239l336 305l23 -25l-348 -317h-37l-225 317l32 25z
" />
    <glyph glyph-name="napostrophe" unicode="&#x149;" horiz-adv-x="1383" 
d="M929 1085q188 0 277.5 -119.5t53.5 -306.5l-128 -659h-46l127 655q21 109 -4.5 196.5t-100 140t-187.5 52.5q-167 0 -318.5 -124t-183.5 -285l-123 -635h-45l206 1061h45l-50 -258q76 123 208 202.5t269 79.5zM290 1461q5 25 24 42t43 17q26 0 38.5 -18t6.5 -52
q-12 -66 -50 -126.5t-127 -137.5l-27 29q69 64 88.5 114t3.5 98q-3 19 0 34z" />
    <glyph glyph-name="Eng" unicode="&#x14a;" horiz-adv-x="1404" 
d="M1384 1434l-302 -1555q-33 -167 -132 -260.5t-253 -93.5q-42 0 -94 8l8 41q33 -8 95 -8q137 0 219 82.5t112 232.5l25 126l-661 1345l-262 -1352h-45l279 1434h41l662 -1352l263 1352h45z" />
    <glyph glyph-name="eng" unicode="&#x14b;" horiz-adv-x="1199" 
d="M744 1085q188 0 277.5 -119.5t53.5 -306.5l-151 -780q-33 -167 -132 -260.5t-253 -93.5q-43 0 -95 8l9 41q33 -8 94 -8q137 0 220 82.5t112 232.5l150 774q21 109 -4.5 196.5t-100.5 140t-188 52.5q-167 0 -318.5 -124t-183.5 -285l-122 -635h-45l205 1061h45l-50 -258
q76 123 208 202.5t269 79.5z" />
    <glyph glyph-name="Omacron" unicode="&#x14c;" horiz-adv-x="1624" 
d="M171 717q-37 -190 21 -351t196 -255.5t325 -94.5t361.5 94.5t294.5 255.5t158 351q20 116 9 220.5t-57.5 192.5t-116.5 151.5t-167.5 99.5t-209.5 36q-140 0 -277 -55.5t-245 -149.5t-186 -223.5t-106 -271.5zM126 717q40 206 168 376t313 267.5t385 97.5q120 0 224 -37
t179 -103.5t125 -159t62 -204t-10 -237.5q-30 -154 -113 -292t-198.5 -236.5t-260.5 -156t-295 -57.5t-273.5 57t-199 157t-107.5 235.5t1 292.5zM769 1680l8 41h533l-8 -41h-533z" />
    <glyph glyph-name="omacron" unicode="&#x14d;" horiz-adv-x="1259" 
d="M522 1349l8 41h533l-8 -41h-533zM530 16q104 0 205.5 42t180.5 112.5t135 164.5t76 195q26 135 -15 253t-142 189.5t-240 71.5t-268 -71.5t-216.5 -189.5t-113.5 -253t15 -253t142.5 -189.5t240.5 -71.5zM738 1085q115 0 208 -45t148 -121t78.5 -177t-0.5 -212
q-21 -110 -82 -211.5t-146.5 -177.5t-196 -121t-225.5 -45t-208 45t-148 121t-79 177t0 212q22 110 83 211.5t146.5 177.5t196 121t225.5 45z" />
    <glyph glyph-name="Obreve" unicode="&#x14e;" horiz-adv-x="1624" 
d="M1008 1534q-128 0 -192 85.5t-45 215.5h45q-16 -114 35 -187t164 -73t192.5 73t108.5 187h45q-31 -131 -128 -216t-225 -85zM171 717q-37 -190 21 -351t196 -255.5t325 -94.5t361.5 94.5t294.5 255.5t158 351q20 116 9 220.5t-57.5 192.5t-116.5 151.5t-167.5 99.5
t-209.5 36q-140 0 -277 -55.5t-245 -149.5t-186 -223.5t-106 -271.5zM126 717q40 206 168 376t313 267.5t385 97.5q120 0 224 -37t179 -103.5t125 -159t62 -204t-10 -237.5q-30 -154 -113 -292t-198.5 -236.5t-260.5 -156t-295 -57.5t-273.5 57t-199 157t-107.5 235.5
t1 292.5z" />
    <glyph glyph-name="obreve" unicode="&#x14f;" horiz-adv-x="1259" 
d="M761 1202q-128 0 -192 85.5t-45 215.5h45q-16 -114 35 -187t164 -73t192.5 73t108.5 187h45q-31 -131 -128 -216t-225 -85zM530 16q104 0 205.5 42t180.5 112.5t135 164.5t76 195q26 135 -15 253t-142 189.5t-240 71.5t-268 -71.5t-216.5 -189.5t-113.5 -253t15 -253
t142.5 -189.5t240.5 -71.5zM738 1085q115 0 208 -45t148 -121t78.5 -177t-0.5 -212q-21 -110 -82 -211.5t-146.5 -177.5t-196 -121t-225.5 -45t-208 45t-148 121t-79 177t0 212q22 110 83 211.5t146.5 177.5t196 121t225.5 45z" />
    <glyph glyph-name="Ohungarumlaut" unicode="&#x150;" horiz-adv-x="1624" 
d="M171 717q-37 -190 21 -351t196 -255.5t325 -94.5t361.5 94.5t294.5 255.5t158 351q20 116 9 220.5t-57.5 192.5t-116.5 151.5t-167.5 99.5t-209.5 36q-140 0 -277 -55.5t-245 -149.5t-186 -223.5t-106 -271.5zM126 717q40 206 168 376t313 267.5t385 97.5q120 0 224 -37
t179 -103.5t125 -159t62 -204t-10 -237.5q-30 -154 -113 -292t-198.5 -236.5t-260.5 -156t-295 -57.5t-273.5 57t-199 157t-107.5 235.5t1 292.5zM807 1569l353 329l30 -27l-354 -330zM1085 1569l354 329l29 -27l-354 -330z" />
    <glyph glyph-name="ohungarumlaut" unicode="&#x151;" horiz-adv-x="1259" 
d="M530 16q104 0 205.5 42t180.5 112.5t135 164.5t76 195q26 135 -15 253t-142 189.5t-240 71.5t-268 -71.5t-216.5 -189.5t-113.5 -253t15 -253t142.5 -189.5t240.5 -71.5zM738 1085q115 0 208 -45t148 -121t78.5 -177t-0.5 -212q-21 -110 -82 -211.5t-146.5 -177.5
t-196 -121t-225.5 -45t-208 45t-148 121t-79 177t0 212q22 110 83 211.5t146.5 177.5t196 121t225.5 45zM569 1237l354 330l29 -28l-354 -330zM848 1237l353 330l30 -28l-354 -330z" />
    <glyph glyph-name="OE" unicode="&#x152;" horiz-adv-x="1809" 
d="M794 41h5l263 1352h-5q-208 0 -399 -89.5t-321 -244.5t-166 -342t33.5 -342t225.5 -244.5t364 -89.5zM1570 0h-784q-165 0 -302.5 56t-225.5 151t-124.5 228t-7.5 282t117.5 282t213.5 228t284 151t324 56h765l-8 -41h-715l-127 -652h655l-8 -41h-655l-128 -659h733z" />
    <glyph glyph-name="oe" unicode="&#x153;" horiz-adv-x="2148" 
d="M87 530q30 152 122.5 279.5t224.5 201.5t272 74q171 0 283.5 -109t126.5 -281q81 172 234 281t330 109q140 0 239 -70t137.5 -189t10.5 -263q-3 -20 -11 -39h-950q-25 -136 11.5 -251.5t133 -186t234.5 -70.5q219 0 408 197l27 -31q-92 -96 -207 -151.5t-236 -55.5
q-184 0 -297.5 109t-126.5 281q-82 -172 -237.5 -281t-326.5 -109q-140 0 -243 74t-146 201.5t-13 279.5zM132 530q-27 -141 12 -259.5t132.5 -186.5t221.5 -68q195 0 359 149.5t205 364.5q28 141 -11 259.5t-132.5 186.5t-221.5 68q-195 0 -359 -149.5t-206 -364.5z
M1672 1044q-124 0 -241.5 -66t-200 -175t-115.5 -238h907q33 208 -65 343.5t-285 135.5z" />
    <glyph glyph-name="Racute" unicode="&#x154;" horiz-adv-x="1187" 
d="M256 602l-117 -602h-45l279 1434h383q216 0 327.5 -114t74.5 -302q-33 -173 -170 -285t-331 -129l322 -604h-53l-320 602h-350zM1113 1018q32 169 -68 272t-297 103h-338l-146 -750h338q197 0 337.5 103t173.5 272zM683 1569l353 329l30 -27l-354 -330z" />
    <glyph glyph-name="racute" unicode="&#x155;" horiz-adv-x="758" 
d="M827 1078l-15 -41q-42 7 -76 7q-167 0 -318.5 -124t-183.5 -285l-122 -635h-45l205 1061h45l-50 -258q76 123 208 202.5t269 79.5q47 0 83 -7zM417 1237l353 330l30 -28l-355 -330z" />
    <glyph glyph-name="Rcommaaccent" unicode="&#x156;" horiz-adv-x="1187" 
d="M256 602l-117 -602h-45l279 1434h383q216 0 327.5 -114t74.5 -302q-33 -173 -170 -285t-331 -129l322 -604h-53l-320 602h-350zM1113 1018q32 169 -68 272t-297 103h-338l-146 -750h338q197 0 337.5 103t173.5 272zM184 -456l354 330l28 -28l-353 -329z" />
    <glyph glyph-name="rcommaaccent" unicode="&#x157;" horiz-adv-x="758" 
d="M827 1078l-15 -41q-42 7 -76 7q-167 0 -318.5 -124t-183.5 -285l-122 -635h-45l205 1061h45l-50 -258q76 123 208 202.5t269 79.5q47 0 83 -7zM-226 -456l352 330l29 -28l-353 -329z" />
    <glyph glyph-name="Rcaron" unicode="&#x158;" horiz-adv-x="1187" 
d="M256 602l-117 -602h-45l279 1434h383q216 0 327.5 -114t74.5 -302q-33 -173 -170 -285t-331 -129l322 -604h-53l-320 602h-350zM1113 1018q32 169 -68 272t-297 103h-338l-146 -750h338q197 0 337.5 103t173.5 272zM748 1591l335 305l24 -25l-348 -317h-37l-225 317
l31 25z" />
    <glyph glyph-name="rcaron" unicode="&#x159;" horiz-adv-x="758" 
d="M827 1078l-15 -41q-42 7 -76 7q-167 0 -318.5 -124t-183.5 -285l-122 -635h-45l205 1061h45l-50 -258q76 123 208 202.5t269 79.5q47 0 83 -7zM512 1239l337 305l22 -25l-348 -317h-37l-225 317l33 25z" />
    <glyph glyph-name="Sacute" unicode="&#x15a;" horiz-adv-x="1167" 
d="M63 203l40 35q55 -97 158.5 -159.5t228.5 -62.5q185 0 325 94t168 238q27 139 -65 234t-287 137q-201 43 -297.5 141.5t-69.5 239.5q30 154 166.5 256t321.5 102q165 0 271 -93t116 -253h-45q-12 139 -104 222t-239 83q-170 0 -292.5 -90t-148.5 -223q-25 -129 68 -216.5
t275 -127.5q215 -47 310 -150.5t65 -257.5q-31 -161 -184.5 -269t-357.5 -108q-141 0 -252.5 64t-170.5 164zM685 1569l353 329l30 -27l-354 -330z" />
    <glyph glyph-name="sacute" unicode="&#x15b;" horiz-adv-x="925" 
d="M13 152l34 36q45 -80 129.5 -126t196.5 -46q146 0 246.5 68.5t121.5 177.5q20 100 -56 171t-224 99q-160 30 -234.5 103t-54.5 174q22 115 135 195.5t261 80.5q57 0 105.5 -12.5t90.5 -39t68.5 -74.5t31.5 -113h-45q-10 101 -81.5 149.5t-177.5 48.5q-131 0 -227.5 -69
t-115.5 -166q-17 -82 53 -145t212 -91q166 -31 247 -111t57 -200q-25 -126 -138.5 -206.5t-282.5 -80.5q-236 0 -352 177zM478 1237l353 330l30 -28l-354 -330z" />
    <glyph glyph-name="Scircumflex" unicode="&#x15c;" horiz-adv-x="1167" 
d="M63 203l40 35q55 -97 158.5 -159.5t228.5 -62.5q185 0 325 94t168 238q27 139 -65 234t-287 137q-201 43 -297.5 141.5t-69.5 239.5q30 154 166.5 256t321.5 102q165 0 271 -93t116 -253h-45q-12 139 -104 222t-239 83q-170 0 -292.5 -90t-148.5 -223q-25 -129 68 -216.5
t275 -127.5q215 -47 310 -150.5t65 -257.5q-31 -161 -184.5 -269t-357.5 -108q-141 0 -252.5 64t-170.5 164zM1053 1544l-218 305l-337 -305l-24 26l349 316h37l224 -316z" />
    <glyph glyph-name="scircumflex" unicode="&#x15d;" horiz-adv-x="925" 
d="M13 152l34 36q45 -80 129.5 -126t196.5 -46q146 0 246.5 68.5t121.5 177.5q20 100 -56 171t-224 99q-160 30 -234.5 103t-54.5 174q22 115 135 195.5t261 80.5q57 0 105.5 -12.5t90.5 -39t68.5 -74.5t31.5 -113h-45q-10 101 -81.5 149.5t-177.5 48.5q-131 0 -227.5 -69
t-115.5 -166q-17 -82 53 -145t212 -91q166 -31 247 -111t57 -200q-25 -126 -138.5 -206.5t-282.5 -80.5q-236 0 -352 177zM858 1212l-218 306l-337 -306l-22 26l348 316h37l225 -316z" />
    <glyph glyph-name="Scedilla" unicode="&#x15e;" horiz-adv-x="1167" 
d="M421 -190q-31 0 -59 -6l-10 17l123 154q-136 3 -245 67t-167 161l40 35q55 -97 158.5 -159.5t228.5 -62.5q185 0 325 94t168 238q27 139 -65 234t-287 137q-201 43 -297.5 141.5t-69.5 239.5q30 154 166.5 256t321.5 102q228 0 378 -182l-35 -35q-138 176 -344 176
q-170 0 -292.5 -90t-148.5 -223q-25 -129 68 -216.5t275 -127.5q215 -47 310 -150.5t65 -257.5q-29 -154 -171.5 -260t-335.5 -116l-100 -127q105 0 159 -57t38 -136q-15 -79 -91.5 -133.5t-172.5 -54.5q-95 0 -150 55l29 38q44 -53 129 -53q76 0 138 43.5t73 104.5
q12 62 -32 108t-120 46z" />
    <glyph glyph-name="scedilla" unicode="&#x15f;" horiz-adv-x="925" 
d="M350 -190q-17 0 -33 -6l-10 17l31 155q-219 10 -325 176l34 36q45 -80 129.5 -126t196.5 -46q146 0 246.5 68.5t121.5 177.5q20 100 -56 171t-224 99q-160 30 -234.5 103t-54.5 174q22 115 135 195.5t261 80.5q57 0 105.5 -12.5t90.5 -39t68.5 -74.5t31.5 -113h-45
q-10 101 -81.5 149.5t-177.5 48.5q-131 0 -227.5 -69t-115.5 -166q-17 -82 53 -145t212 -91q166 -31 247 -111t57 -200q-24 -123 -132.5 -203t-270.5 -84l-25 -127q91 0 149 -54t41 -138q-15 -79 -91.5 -133.5t-172.5 -54.5q-90 0 -143 49t-57 135h45q0 -65 45.5 -104.5
t117.5 -39.5q76 0 138 43.5t73 104.5q12 62 -32.5 108t-120.5 46z" />
    <glyph glyph-name="Scaron" unicode="&#x160;" horiz-adv-x="1167" 
d="M63 203l40 35q55 -97 158.5 -159.5t228.5 -62.5q185 0 325 94t168 238q27 139 -65 234t-287 137q-201 43 -297.5 141.5t-69.5 239.5q30 154 166.5 256t321.5 102q165 0 271 -93t116 -253h-45q-12 139 -104 222t-239 83q-170 0 -292.5 -90t-148.5 -223q-25 -129 68 -216.5
t275 -127.5q215 -47 310 -150.5t65 -257.5q-31 -161 -184.5 -269t-357.5 -108q-141 0 -252.5 64t-170.5 164zM784 1591l336 305l24 -25l-348 -317h-37l-225 317l31 25z" />
    <glyph glyph-name="scaron" unicode="&#x161;" horiz-adv-x="925" 
d="M13 152l34 36q45 -80 129.5 -126t196.5 -46q146 0 246.5 68.5t121.5 177.5q20 100 -56 171t-224 99q-160 30 -234.5 103t-54.5 174q22 115 135 195.5t261 80.5q57 0 105.5 -12.5t90.5 -39t68.5 -74.5t31.5 -113h-45q-10 101 -81.5 149.5t-177.5 48.5q-131 0 -227.5 -69
t-115.5 -166q-17 -82 53 -145t212 -91q166 -31 247 -111t57 -200q-25 -126 -138.5 -206.5t-282.5 -80.5q-236 0 -352 177zM594 1239l337 305l22 -25l-348 -317h-37l-225 317l33 25z" />
    <glyph glyph-name="Tcommaaccent" unicode="&#x162;" horiz-adv-x="1089" 
d="M427 -190q-17 0 -33 -6l-10 17l306 1572h-452l8 41h950l-8 -41h-453l-300 -1545q91 0 149 -54t41 -138q-15 -79 -92 -133.5t-173 -54.5q-90 0 -142.5 49t-56.5 135h45q0 -65 45.5 -104.5t117.5 -39.5q76 0 138 43.5t73 104.5q12 62 -32.5 108t-120.5 46z" />
    <glyph glyph-name="tcommaaccent" unicode="&#x163;" horiz-adv-x="754" 
d="M291 -190q-17 0 -33 -6l-10 17l43 218q-82 80 -47 260l140 721h-258l8 41h258l59 303l46 4l-60 -307h355l-9 -41h-354l-140 -721q-55 -283 208 -283q57 0 105 9l-8 -41q-70 -9 -106 -9q-96 0 -158 34l-31 -161q90 0 148 -54t41 -138q-15 -79 -91.5 -133.5t-172.5 -54.5
q-90 0 -142.5 49t-56.5 135h45q0 -65 45 -104.5t117 -39.5q76 0 138 43.5t73 104.5q12 62 -32 108t-120 46z" />
    <glyph glyph-name="Tcaron" unicode="&#x164;" horiz-adv-x="1089" 
d="M752 1591l335 305l24 -25l-348 -317h-37l-225 317l31 25zM420 0l270 1393h-452l8 41h950l-8 -41h-453l-270 -1393h-45z" />
    <glyph glyph-name="tcaron" unicode="&#x165;" horiz-adv-x="931" 
d="M429 1020l-140 -721q-55 -283 208 -283q57 0 105 9l-8 -41q-70 -9 -106 -9q-152 0 -213 83t-31 241l140 721h-258l8 41h258l59 303l46 4l-60 -307h355l-9 -41h-354zM940 1461q5 25 24 42t44 17q26 0 38.5 -18t6.5 -52q-12 -66 -50 -126.5t-127 -137.5l-28 29
q69 64 88.5 114t3.5 98q-3 19 0 34z" />
    <glyph glyph-name="Tbar" unicode="&#x166;" horiz-adv-x="1089" 
d="M420 0l135 696h-315l7 41h315l128 656h-452l8 41h950l-8 -41h-453l-128 -656h316l-8 -41h-315l-135 -696h-45z" />
    <glyph glyph-name="tbar" unicode="&#x167;" horiz-adv-x="754" 
d="M429 1020l-87 -451h303l-8 -41h-303l-45 -229q-55 -283 208 -283q57 0 105 9l-8 -41q-70 -9 -106 -9q-152 0 -213 83t-31 241l45 229h-205l8 41h205l87 451h-238l9 41h237l59 303l46 4l-60 -307h355l-9 -41h-354z" />
    <glyph glyph-name="Utilde" unicode="&#x168;" horiz-adv-x="1331" 
d="M874 1676q-17 25 -26 38t-25 30.5t-32.5 25.5t-34.5 8q-89 0 -156 -171l-43 9q82 203 207 203q33 0 62 -18t45.5 -38t38.5 -54q20 -31 34.5 -49.5t37.5 -35t47 -16.5q88 0 155 171l43 -10q-80 -202 -206 -202q-47 0 -81 29.5t-66 79.5zM1331 1434l-186 -955
q-43 -224 -205.5 -363t-381.5 -139q-218 0 -326.5 139t-65.5 363l186 955h45l-186 -955q-39 -203 60 -332t295 -129t345.5 129t188.5 332l186 955h45z" />
    <glyph glyph-name="utilde" unicode="&#x169;" horiz-adv-x="1199" 
d="M456 -25q-188 0 -278 119.5t-53 306.5l128 660h45l-128 -655q-21 -109 5 -196.5t101 -140.5t188 -53q167 0 318.5 124.5t182.5 285.5l124 635h45l-206 -1061h-45l49 258q-77 -124 -208.5 -203.5t-267.5 -79.5zM734 1345q-21 32 -35 50t-37 34.5t-47 16.5q-89 0 -154 -171
l-44 9q82 203 207 203q33 0 62 -18t45.5 -38t38.5 -54q20 -31 34.5 -49.5t37.5 -35t47 -16.5q87 0 154 171l43 -9q-81 -203 -205 -203q-47 0 -81 29.5t-66 80.5z" />
    <glyph glyph-name="Umacron" unicode="&#x16a;" horiz-adv-x="1331" 
d="M623 1680l8 41h532l-8 -41h-532zM1331 1434l-186 -955q-43 -224 -205.5 -363t-381.5 -139q-218 0 -326.5 139t-65.5 363l186 955h45l-186 -955q-39 -203 60 -332t295 -129t345.5 129t188.5 332l186 955h45z" />
    <glyph glyph-name="umacron" unicode="&#x16b;" horiz-adv-x="1199" 
d="M456 -25q-188 0 -278 119.5t-53 306.5l128 660h45l-128 -655q-21 -109 5 -196.5t101 -140.5t188 -53q167 0 318.5 124.5t182.5 285.5l124 635h45l-206 -1061h-45l49 258q-77 -124 -208.5 -203.5t-267.5 -79.5zM482 1349l8 41h533l-8 -41h-533z" />
    <glyph glyph-name="Ubreve" unicode="&#x16c;" horiz-adv-x="1331" 
d="M861 1534q-128 0 -191.5 85t-44.5 216h45q-16 -114 34.5 -187t163.5 -73t192.5 73t108.5 187h45q-31 -131 -128 -216t-225 -85zM1331 1434l-186 -955q-43 -224 -205.5 -363t-381.5 -139q-218 0 -326.5 139t-65.5 363l186 955h45l-186 -955q-39 -203 60 -332t295 -129
t345.5 129t188.5 332l186 955h45z" />
    <glyph glyph-name="ubreve" unicode="&#x16d;" horiz-adv-x="1199" 
d="M456 -25q-188 0 -278 119.5t-53 306.5l128 660h45l-128 -655q-21 -109 5 -196.5t101 -140.5t188 -53q167 0 318.5 124.5t182.5 285.5l124 635h45l-206 -1061h-45l49 258q-77 -124 -208.5 -203.5t-267.5 -79.5zM721 1202q-128 0 -192 85.5t-45 215.5h45q-16 -114 35 -187
t164 -73t192.5 73t108.5 187h45q-31 -131 -128 -216t-225 -85z" />
    <glyph glyph-name="Uring" unicode="&#x16e;" horiz-adv-x="1331" 
d="M701 1726q16 81 84.5 137t150.5 56t128.5 -56t30.5 -137q-15 -81 -83.5 -136.5t-150.5 -55.5t-128.5 55.5t-31.5 136.5zM746 1726q-12 -64 23.5 -107.5t98.5 -43.5t116.5 43.5t65.5 107.5q13 64 -23 108t-99 44t-116 -44t-66 -108zM1331 1434l-186 -955
q-43 -224 -205.5 -363t-381.5 -139q-218 0 -326.5 139t-65.5 363l186 955h45l-186 -955q-39 -203 60 -332t295 -129t345.5 129t188.5 332l186 955h45z" />
    <glyph glyph-name="uring" unicode="&#x16f;" horiz-adv-x="1199" 
d="M456 -25q-188 0 -278 119.5t-53 306.5l128 660h45l-128 -655q-21 -109 5 -196.5t101 -140.5t188 -53q167 0 318.5 124.5t182.5 285.5l124 635h45l-206 -1061h-45l49 258q-77 -124 -208.5 -203.5t-267.5 -79.5zM561 1395q16 81 84.5 136.5t150.5 55.5t128 -55.5t30 -136.5
q-15 -81 -83 -137t-150 -56t-128.5 55.5t-31.5 137.5zM606 1395q-12 -64 23.5 -108t98.5 -44t116 44t65 108q13 64 -23 107.5t-99 43.5t-115.5 -43.5t-65.5 -107.5z" />
    <glyph glyph-name="Uhungarumlaut" unicode="&#x170;" horiz-adv-x="1331" 
d="M1331 1434l-186 -955q-43 -224 -205.5 -363t-381.5 -139q-218 0 -326.5 139t-65.5 363l186 955h45l-186 -955q-39 -203 60 -332t295 -129t345.5 129t188.5 332l186 955h45zM654 1569l354 329l29 -27l-354 -330zM933 1569l353 329l30 -27l-354 -330z" />
    <glyph glyph-name="uhungarumlaut" unicode="&#x171;" horiz-adv-x="1199" 
d="M456 -25q-188 0 -278 119.5t-53 306.5l128 660h45l-128 -655q-21 -109 5 -196.5t101 -140.5t188 -53q167 0 318.5 124.5t182.5 285.5l124 635h45l-206 -1061h-45l49 258q-77 -124 -208.5 -203.5t-267.5 -79.5zM512 1237l353 330l30 -28l-354 -330zM791 1237l353 330
l30 -28l-355 -330z" />
    <glyph glyph-name="Uogonek" unicode="&#x172;" horiz-adv-x="1331" 
d="M1331 1434l-186 -955q-41 -215 -193.5 -352.5t-358.5 -148.5q-111 -78 -165 -131.5t-66 -118.5q-13 -66 21.5 -111t97.5 -45q70 0 121.5 41t65.5 115h46q-19 -94 -84.5 -145.5t-156.5 -51.5q-82 0 -127 57t-29 140q14 71 69.5 128.5t151.5 121.5q-209 7 -311.5 144.5
t-60.5 356.5l186 955h45l-186 -955q-39 -203 60 -332t295 -129t345.5 129t188.5 332l186 955h45z" />
    <glyph glyph-name="uogonek" unicode="&#x173;" horiz-adv-x="1199" 
d="M456 -25q-188 0 -278 119.5t-53 306.5l128 660h45l-128 -655q-21 -109 5 -196.5t101 -140.5t188 -53q167 0 318.5 124.5t182.5 285.5l124 635h45l-206 -1061q-67 -47 -99.5 -71t-74 -61t-61.5 -70t-27 -70q-13 -66 21 -111t97 -45q70 0 121.5 41t65.5 115h46
q-19 -94 -84.5 -145.5t-156.5 -51.5q-82 0 -126.5 57t-28.5 140q7 34 25.5 66.5t40 56.5t59 53.5t64.5 47.5t73 48l49 258q-77 -124 -208.5 -203.5t-267.5 -79.5z" />
    <glyph glyph-name="Wcircumflex" unicode="&#x174;" horiz-adv-x="1900" 
d="M1155 1434l133 -1371l670 1371h49l-702 -1434h-58l-133 1370l-665 -1370h-58l-145 1434h49l137 -1371l666 1371h57zM1425 1544l-218 305l-337 -305l-23 26l349 316h37l224 -316z" />
    <glyph glyph-name="wcircumflex" unicode="&#x175;" horiz-adv-x="1548" 
d="M855 1061h45l125 -977l524 977h54l-571 -1061h-45l-126 977l-505 -977h-45l-158 1061h53l143 -977zM1185 1212l-218 306l-337 -306l-23 26l348 316h37l226 -316z" />
    <glyph glyph-name="Ycircumflex" unicode="&#x176;" horiz-adv-x="1298" 
d="M303 1434l367 -799l678 799h57l-722 -846l-114 -588h-45l114 588l-392 846h57zM1124 1544l-218 305l-337 -305l-23 26l349 316h37l224 -316z" />
    <glyph glyph-name="ycircumflex" unicode="&#x177;" horiz-adv-x="1056" 
d="M103 -475l308 493l-258 1043h53l243 -981l609 981h53l-954 -1536h-54zM939 1212l-218 306l-337 -306l-23 26l349 316h36l226 -316z" />
    <glyph glyph-name="Ydieresis" unicode="&#x178;" horiz-adv-x="1298" 
d="M303 1434l367 -799l678 799h57l-722 -846l-114 -588h-45l114 588l-392 846h57zM652 1704q4 25 24 41t45 16t38 -16t8 -41q-4 -25 -24 -41t-45 -16t-38 16t-8 41zM988 1704q4 25 24 41t45 16t38 -16t8 -41q-4 -25 -24 -41t-45 -16t-38 16t-8 41z" />
    <glyph glyph-name="Zacute" unicode="&#x179;" horiz-adv-x="1192" 
d="M33 41l1139 1352h-845l8 41h895l-8 -41l-1140 -1352h897l-7 -41h-946zM700 1569l354 329l29 -27l-354 -330z" />
    <glyph glyph-name="zacute" unicode="&#x17a;" horiz-adv-x="1005" 
d="M6 0l7 41l897 979h-680l9 41h737l-8 -41l-897 -979h727l-7 -41h-785zM530 1237l354 330l29 -28l-354 -330z" />
    <glyph glyph-name="Zdotaccent" unicode="&#x17b;" horiz-adv-x="1192" 
d="M33 41l1139 1352h-845l8 41h895l-8 -41l-1140 -1352h897l-7 -41h-946zM774 1704q4 25 24 41t45 16t38 -16t8 -41q-4 -25 -24 -41t-45 -16t-38 16t-8 41z" />
    <glyph glyph-name="zdotaccent" unicode="&#x17c;" horiz-adv-x="1005" 
d="M6 0l7 41l897 979h-680l9 41h737l-8 -41l-897 -979h727l-7 -41h-785zM616 1372q4 25 24 41.5t45 16.5t38 -16.5t8 -41.5q-4 -25 -23.5 -41t-44.5 -16t-38 16t-9 41z" />
    <glyph glyph-name="Zcaron" unicode="&#x17d;" horiz-adv-x="1192" 
d="M33 41l1139 1352h-845l8 41h895l-8 -41l-1140 -1352h897l-7 -41h-946zM814 1591l336 305l24 -25l-349 -317h-37l-225 317l32 25z" />
    <glyph glyph-name="zcaron" unicode="&#x17e;" horiz-adv-x="1005" 
d="M6 0l7 41l897 979h-680l9 41h737l-8 -41l-897 -979h727l-7 -41h-785zM648 1239l337 305l23 -25l-349 -317h-36l-226 317l33 25z" />
    <glyph glyph-name="longs" unicode="&#x17f;" horiz-adv-x="741" 
d="M878 1487l-9 -41q-35 8 -94 8q-137 0 -220 -82.5t-112 -232.5l-221 -1139h-45l198 1020h-230l9 41h229l15 80q33 167 131.5 260.5t252.5 93.5q44 0 96 -8z" />
    <glyph glyph-name="uni0191" unicode="&#x191;" horiz-adv-x="1036" 
d="M71 -119l302 1553h749l-8 -41h-704l-126 -650h645l-8 -41h-646l-159 -823q-33 -167 -131.5 -260.5t-252.5 -93.5q-42 0 -94 8l8 41q33 -8 94 -8q136 0 219 82.5t112 232.5z" />
    <glyph glyph-name="florin" unicode="&#x192;" horiz-adv-x="741" 
d="M154 -119l221 1139h-230l9 41h229l15 80q33 167 131.5 260.5t252.5 93.5q44 0 96 -8l-9 -41q-35 8 -94 8q-137 0 -220 -82.5t-112 -232.5l-15 -78h367l-9 -41h-366l-221 -1141q-33 -167 -131.5 -260.5t-252.5 -93.5q-43 0 -95 8l9 41q33 -8 94 -8q136 0 219 82.5
t112 232.5z" />
    <glyph glyph-name="Aringacute" unicode="&#x1fa;" horiz-adv-x="1351" 
d="M686 1542q13 70 76 118t143 48q79 0 123.5 -47.5t30.5 -118.5q-11 -60 -59 -105t-114 -57l290 -1380h-54l-91 442h-745l-261 -442h-54l827 1380q-61 12 -92 56.5t-20 105.5zM841 1376l-531 -893h713zM731 1542q-10 -53 23.5 -89t94.5 -36t108 36t57 89t-23 89t-94 36
t-108.5 -36t-57.5 -89zM911 1736l-27 26l265 248l28 -27z" />
    <glyph glyph-name="aringacute" unicode="&#x1fb;" horiz-adv-x="1282" 
d="M87 530q22 113 82 215.5t143 176.5t186.5 118t209.5 44q158 0 265.5 -92t137.5 -243l60 312h46l-206 -1061h-45l60 312q-89 -151 -232 -243t-301 -92q-141 0 -245 74t-147 201t-14 278zM133 530q-27 -141 11.5 -259t133 -186.5t224.5 -68.5t250.5 68.5t204.5 186.5
t111 259t-11 259.5t-132 187.5t-224 69t-251 -69t-205.5 -187.5t-111.5 -259.5zM609 1362q16 81 84.5 136.5t150.5 55.5t128 -55.5t30 -136.5q-16 -82 -84 -137.5t-150 -55.5t-128.5 56t-30.5 137zM654 1362q-12 -64 23.5 -108t98.5 -44t116 44t65 108t-23 107.5t-98 43.5
t-116.5 -43.5t-65.5 -107.5zM798 1603l-28 26l265 248l28 -27z" />
    <glyph glyph-name="AEacute" unicode="&#x1fc;" horiz-adv-x="1880" 
d="M27 0h-56l1142 1434h788l-9 -41h-714l-127 -652h655l-8 -41h-656l-128 -659h734l-8 -41h-778l85 442h-570zM410 483h545l177 908zM1095 1569l353 329l30 -27l-355 -330z" />
    <glyph glyph-name="aeacute" unicode="&#x1fd;" horiz-adv-x="2031" 
d="M1112 524q-25 -136 14.5 -251.5t140.5 -186t244 -70.5q117 0 228 52t201 145l27 -31q-91 -95 -213 -151t-251 -56q-172 0 -286.5 90t-147.5 238l-58 -303h-45l60 312q-89 -151 -232 -243t-301 -92q-141 0 -245 74t-147 201t-14 278q22 113 82 215.5t143 176.5t186.5 118
t209.5 44q158 0 265.5 -92t137.5 -243l60 312h46l-60 -304q90 147 237.5 237.5t312.5 90.5q145 0 249 -70t145.5 -189.5t13.5 -262.5q-3 -15 -12 -39h-991zM133 530q-27 -141 11.5 -259t133 -186.5t224.5 -68.5t250.5 68.5t204.5 186.5t111 259t-11 259.5t-132 187.5
t-224 69t-251 -69t-205.5 -187.5t-111.5 -259.5zM1699 1044q-195 0 -361 -141t-217 -338h949q33 208 -71.5 343.5t-299.5 135.5zM1058 1237l353 330l30 -28l-355 -330z" />
    <glyph glyph-name="Oslashacute" unicode="&#x1fe;" horiz-adv-x="1624" 
d="M126 717q40 206 168 376t313 267.5t385 97.5q243 0 404 -142l188 191l30 -26l-190 -192q102 -103 141.5 -251.5t6.5 -320.5q-30 -154 -113 -292t-198.5 -236.5t-260.5 -156t-295 -57.5q-253 0 -419 155l-202 -206l-30 27l205 208q-94 102 -130 246.5t-3 311.5zM1527 717
q30 159 -6.5 298.5t-130.5 237.5l-1069 -1088q154 -149 392 -149q187 0 361.5 94.5t294.5 255.5t158 351zM171 717q-30 -153 3 -288.5t119 -234.5l1069 1087q-154 136 -377 136q-140 0 -277 -55.5t-245 -149.5t-186 -223.5t-106 -271.5zM944 1569l353 329l30 -27l-354 -330z
" />
    <glyph glyph-name="oslashacute" unicode="&#x1ff;" horiz-adv-x="1259" 
d="M738 1085q188 0 311 -115l166 165l27 -27l-167 -165q69 -78 95 -186t2 -227q-21 -110 -82 -211.5t-146.5 -177.5t-196 -121t-225.5 -45q-190 0 -311 116l-170 -167l-27 27l170 167q-69 78 -94.5 185t-2.5 227q22 110 83 211.5t146.5 177.5t196 121t225.5 45zM530 16
q104 0 205.5 42t180.5 112.5t135 164.5t76 195q22 108 -2 207t-86 171l-794 -783q112 -109 285 -109zM132 530q-21 -108 2 -206.5t84 -170.5l796 783q-111 108 -284 108q-139 0 -268 -71.5t-216.5 -189.5t-113.5 -253zM681 1237l353 330l30 -28l-354 -330z" />
    <glyph glyph-name="Scommaaccent" unicode="&#x218;" horiz-adv-x="1167" 
d="M63 203l40 35q55 -97 158.5 -159.5t228.5 -62.5q185 0 325 94t168 238q27 139 -65 234t-287 137q-201 43 -297.5 141.5t-69.5 239.5q30 154 166.5 256t321.5 102q165 0 271 -93t116 -253h-45q-12 139 -104 222t-239 83q-170 0 -292.5 -90t-148.5 -223q-25 -129 68 -216.5
t275 -127.5q215 -47 310 -150.5t65 -257.5q-31 -161 -184.5 -269t-357.5 -108q-141 0 -252.5 64t-170.5 164zM209 -456l353 330l29 -28l-353 -329z" />
    <glyph glyph-name="scommaaccent" unicode="&#x219;" horiz-adv-x="925" 
d="M13 152l34 36q45 -80 129.5 -126t196.5 -46q146 0 246.5 68.5t121.5 177.5q20 100 -56 171t-224 99q-160 30 -234.5 103t-54.5 174q22 115 135 195.5t261 80.5q57 0 105.5 -12.5t90.5 -39t68.5 -74.5t31.5 -113h-45q-10 101 -81.5 149.5t-177.5 48.5q-131 0 -227.5 -69
t-115.5 -166q-17 -82 53 -145t212 -91q166 -31 247 -111t57 -200q-25 -126 -138.5 -206.5t-282.5 -80.5q-236 0 -352 177zM73 -456l353 330l29 -28l-354 -329z" />
    <glyph glyph-name="uni021A" unicode="&#x21a;" horiz-adv-x="1089" 
d="M420 0l270 1393h-452l8 41h950l-8 -41h-453l-270 -1393h-45zM144 -456l354 330l28 -28l-353 -329z" />
    <glyph glyph-name="uni021B" unicode="&#x21b;" horiz-adv-x="754" 
d="M429 1020l-140 -721q-55 -283 208 -283q57 0 105 9l-8 -41q-70 -9 -106 -9q-152 0 -213 83t-31 241l140 721h-258l8 41h258l59 303l46 4l-60 -307h355l-9 -41h-354zM2 -456l353 330l29 -28l-353 -329z" />
    <glyph glyph-name="dotlessj" unicode="&#x237;" horiz-adv-x="518" 
d="M89 -229l251 1290h45l-251 -1290q-22 -115 -97.5 -180.5t-168.5 -65.5q-37 0 -73 4l8 41q38 -4 73 -4q76 0 134.5 53.5t78.5 151.5z" />
    <glyph glyph-name="apostrophe" unicode="&#x2bc;" horiz-adv-x="825" 
d="M524 1400q5 25 24 41.5t44 16.5q26 0 39 -18t6 -51q-13 -67 -50.5 -127.5t-126.5 -137.5l-27 30q68 64 87.5 114t4.5 98q-4 15 -1 34z" />
    <glyph glyph-name="circumflex" unicode="&#x2c6;" horiz-adv-x="825" 
d="M810 1145l-218 305l-337 -305l-23 25l349 317h36l226 -317z" />
    <glyph glyph-name="caron" unicode="&#x2c7;" horiz-adv-x="825" 
d="M542 1192l337 305l22 -26l-348 -316h-37l-225 316l33 26z" />
    <glyph glyph-name="uni02C9" unicode="&#x2c9;" horiz-adv-x="825" 
d="M297 1302l7 40h533l-8 -40h-532z" />
    <glyph glyph-name="breve" unicode="&#x2d8;" horiz-adv-x="825" 
d="M536 1163q-128 0 -192 85.5t-45 215.5h45q-15 -114 36 -187t164 -73t192.5 73t107.5 187h45q-31 -131 -128 -216t-225 -85z" />
    <glyph glyph-name="dotaccent" unicode="&#x2d9;" horiz-adv-x="825" 
d="M510 1323q4 25 24 41t45 16t38 -16t8 -41t-24.5 -41t-44.5 -16t-38 16t-8 41z" />
    <glyph glyph-name="ring" unicode="&#x2da;" horiz-adv-x="825" 
d="M369 1317q16 81 84 136.5t150 55.5t128.5 -55.5t30.5 -136.5q-15 -81 -83.5 -137t-150.5 -56t-128 55.5t-31 137.5zM414 1317q-12 -64 24 -108t99 -44t115.5 44t64.5 108q13 64 -23 107.5t-99 43.5t-115.5 -43.5t-65.5 -107.5z" />
    <glyph glyph-name="ogonek" unicode="&#x2db;" horiz-adv-x="825" 
d="M350 0h51q-67 -47 -99.5 -71t-74 -61t-61.5 -70t-27 -70q-13 -66 21.5 -111t97.5 -45q70 0 121 41t65 115h46q-19 -94 -84 -145.5t-156 -51.5q-82 0 -127 57t-29 140q16 79 79 139t177 133z" />
    <glyph glyph-name="tilde" unicode="&#x2dc;" horiz-adv-x="825" 
d="M547 1297q-22 33 -35.5 50.5t-36.5 34.5t-47 17q-90 0 -155 -171l-44 9q82 203 207 203q47 0 80.5 -29t66.5 -81q20 -32 34 -50t37 -34.5t47 -16.5q88 0 155 171l43 -9q-81 -203 -206 -203q-47 0 -80.5 29t-65.5 80z" />
    <glyph glyph-name="hungarumlaut" unicode="&#x2dd;" horiz-adv-x="825" 
d="M299 1180l353 329l30 -27l-354 -330zM578 1180l353 329l30 -27l-355 -330z" />
    <glyph glyph-name="gravecomb" unicode="&#x300;" horiz-adv-x="0" 
d="M-411 1509l225 -329l-39 -28l-226 330z" />
    <glyph glyph-name="acutecomb" unicode="&#x301;" horiz-adv-x="0" 
d="M-387 1180l352 329l30 -27l-353 -330z" />
    <glyph glyph-name="uni0302" unicode="&#x302;" horiz-adv-x="0" 
d="M-15 1145l-217 305l-337 -305l-23 25l348 317h37l224 -317z" />
    <glyph glyph-name="tildecomb" unicode="&#x303;" horiz-adv-x="0" 
d="M-278 1297q-17 25 -26 38t-25 30.5t-32.5 25.5t-34.5 8q-90 0 -155 -171l-44 9q82 203 207 203q33 0 62 -18t45.5 -38t38.5 -54q20 -31 34.5 -49.5t37.5 -35t47 -16.5q87 0 154 171l43 -9q-81 -203 -205 -203q-47 0 -81 29.5t-66 79.5z" />
    <glyph glyph-name="uni0304" unicode="&#x304;" horiz-adv-x="0" 
d="M-527 1304l8 41h531l-8 -41h-531z" />
    <glyph glyph-name="uni0306" unicode="&#x306;" horiz-adv-x="0" 
d="M-289 1163q-128 0 -191.5 85t-44.5 216h45q-15 -114 36 -187t163 -73q113 0 192 73t107 187h45q-32 -131 -128 -216t-224 -85z" />
    <glyph glyph-name="uni0307" unicode="&#x307;" horiz-adv-x="0" 
d="M-314 1323q4 25 23.5 41t44.5 16t38 -16t8 -41t-24 -41t-44 -16t-38 16t-8 41z" />
    <glyph glyph-name="uni0308" unicode="&#x308;" horiz-adv-x="0" 
d="M-482 1323q4 25 23.5 41t44.5 16t38 -16t8 -41t-24 -41t-44 -16t-38 16t-8 41zM-146 1323q4 25 23.5 41t43.5 16q25 0 38 -16t8 -41t-24 -41t-44 -16q-24 0 -37 16t-8 41z" />
    <glyph glyph-name="uni030A" unicode="&#x30a;" horiz-adv-x="0" 
d="M-456 1317q16 81 84.5 136.5t150.5 55.5t128 -55.5t30 -136.5q-15 -81 -83 -137t-150 -56t-128.5 55.5t-31.5 137.5zM-411 1317q-12 -64 24 -108t99 -44t115.5 44t64.5 108t-23 107.5t-98 43.5t-116 -43.5t-66 -107.5z" />
    <glyph glyph-name="uni030C" unicode="&#x30c;" horiz-adv-x="0" 
d="M-283 1192l336 305l23 -26l-347 -316h-37l-226 316l33 26z" />
    <glyph glyph-name="uni0327" unicode="&#x327;" horiz-adv-x="0" 
d="M-591 -190q-17 0 -33 -6l-10 17l35 179h45l-29 -152q91 0 149 -54t41 -138q-15 -79 -91.5 -133.5t-172.5 -54.5q-90 0 -143 49t-57 135h45q0 -65 45.5 -104.5t117.5 -39.5q76 0 138 43.5t73 104.5q12 62 -32.5 108t-120.5 46z" />
    <glyph glyph-name="tonos" unicode="&#x384;" horiz-adv-x="825" 
d="M435 1123l248 381l37 -21l-252 -381z" />
    <glyph glyph-name="dieresistonos" unicode="&#x385;" horiz-adv-x="825" 
d="M311 1167q4 25 24 41.5t45 16.5t38 -16.5t8 -41.5q-4 -25 -24 -41t-45 -16t-38 16t-8 41zM647 1167q4 25 24 41.5t45 16.5t38 -16.5t8 -41.5q-4 -25 -24 -41t-45 -16t-38 16t-8 41zM528 1360l284 266l28 -29l-288 -268z" />
    <glyph glyph-name="Alphatonos" unicode="&#x386;" horiz-adv-x="1361" 
d="M1133 0l-92 442h-745l-261 -442h-53l858 1434h45l301 -1434h-53zM851 1376l-530 -893h712zM195 1062l247 381l37 -22l-252 -381z" />
    <glyph glyph-name="anoteleia" unicode="&#x387;" horiz-adv-x="589" 
d="M246 571q5 25 24 41.5t44 16.5t38 -16.5t8 -41.5q-4 -25 -23.5 -41t-44.5 -16t-38 16t-8 41z" />
    <glyph glyph-name="Epsilontonos" unicode="&#x388;" horiz-adv-x="1440" 
d="M413 0l278 1434h770l-8 -41h-725l-127 -652h666l-9 -41h-665l-128 -659h743l-7 -41h-788zM195 1062l247 381l37 -22l-252 -381z" />
    <glyph glyph-name="Etatonos" unicode="&#x389;" horiz-adv-x="1702" 
d="M413 0l278 1434h45l-135 -693h901l135 693h45l-278 -1434h-45l135 700h-901l-135 -700h-45zM195 1062l247 381l37 -22l-252 -381z" />
    <glyph glyph-name="Iotatonos" unicode="&#x38a;" horiz-adv-x="820" 
d="M691 1434h45l-278 -1434h-45zM195 1062l247 381l37 -22l-252 -381z" />
    <glyph glyph-name="Omicrontonos" unicode="&#x38c;" horiz-adv-x="1840" 
d="M387 717q-37 -190 21 -351t196 -255.5t325 -94.5t361.5 94.5t294.5 255.5t158 351q20 116 9 220.5t-57.5 192.5t-116.5 151.5t-167.5 99.5t-209.5 36q-140 0 -277 -55.5t-245 -149.5t-186 -223.5t-106 -271.5zM342 717q40 206 168 376t313 267.5t385 97.5q120 0 224 -37
t179 -103.5t125 -159t62 -204t-10 -237.5q-30 -154 -113 -292t-198.5 -236.5t-260.5 -156t-295 -57.5t-273.5 57t-199 157t-107.5 235.5t1 292.5zM195 1062l247 381l37 -22l-252 -381z" />
    <glyph glyph-name="Upsilontonos" unicode="&#x38e;" horiz-adv-x="1677" 
d="M682 1434l367 -799l677 799h58l-722 -846l-114 -588h-45l114 588l-392 846h57zM195 1062l247 381l37 -22l-252 -381z" />
    <glyph glyph-name="Omegatonos" unicode="&#x38f;" horiz-adv-x="1794" 
d="M1691 743q36 185 -19.5 340t-186 244.5t-306.5 89.5t-341.5 -89.5t-281.5 -244.5t-152 -340q-13 -78 -14.5 -151.5t22 -147.5t68 -142t124 -135t188.5 -126l-8 -41h-553l8 41h471q-95 52 -166 115.5t-113 131.5t-64.5 144t-22 153t14.5 158q38 196 161 360t300 259.5
t366 95.5t329 -95.5t199.5 -259.5t21.5 -360q-42 -214 -193.5 -395t-431.5 -307h471l-7 -41h-553l7 41q164 73 285.5 157.5t197 175t117.5 179.5t62 190zM195 1062l247 381l37 -22l-252 -381z" />
    <glyph glyph-name="iotadieresistonos" unicode="&#x390;" horiz-adv-x="558" 
d="M173 205l167 856h45l-166 -854q-33 -166 121 -166h72l-8 -39q-40 -2 -71 -2q-200 0 -160 205zM184 1305q4 25 24 41t45 16t38 -16t8 -41q-4 -25 -24 -41.5t-45 -16.5t-38 16.5t-8 41.5zM520 1305q4 25 24 41t45 16t38 -16t8 -41q-4 -25 -24 -41.5t-45 -16.5t-38 16.5
t-8 41.5zM401 1497l284 266l28 -28l-288 -269z" />
    <glyph glyph-name="Alpha" unicode="&#x391;" horiz-adv-x="1351" 
d="M1122 0l-91 442h-745l-261 -442h-54l858 1434h45l302 -1434h-54zM841 1376l-531 -893h713z" />
    <glyph glyph-name="Beta" unicode="&#x392;" horiz-adv-x="1230" 
d="M557 0h-463l279 1434h442q176 0 265 -102t59 -255q-25 -128 -119.5 -219t-215.5 -113q146 -16 228.5 -112t52.5 -250q-32 -167 -180.5 -275t-347.5 -108zM1040 383q29 150 -67.5 245t-281.5 95h-411l-134 -682h412q186 0 319.5 95t162.5 247zM288 764h393q156 0 271 87.5
t142 225.5q27 139 -54 227.5t-237 88.5h-393z" />
    <glyph glyph-name="Gamma" unicode="&#x393;" horiz-adv-x="1046" 
d="M94 0l279 1434h780l-8 -41h-735l-271 -1393h-45z" />
    <glyph glyph-name="uni0394" unicode="&#x394;" horiz-adv-x="1351" 
d="M874 1434l302 -1434h-1205l858 1434h45zM841 1376l-793 -1335h1065z" />
    <glyph glyph-name="Epsilon" unicode="&#x395;" horiz-adv-x="1122" 
d="M94 0l279 1434h770l-8 -41h-725l-127 -652h665l-8 -41h-666l-128 -659h744l-7 -41h-789z" />
    <glyph glyph-name="Zeta" unicode="&#x396;" horiz-adv-x="1192" 
d="M33 41l1139 1352h-845l8 41h895l-8 -41l-1140 -1352h897l-7 -41h-946z" />
    <glyph glyph-name="Eta" unicode="&#x397;" horiz-adv-x="1384" 
d="M94 0l279 1434h45l-135 -693h901l135 693h45l-279 -1434h-45l136 700h-902l-135 -700h-45z" />
    <glyph glyph-name="Theta" unicode="&#x398;" horiz-adv-x="1624" 
d="M550 696l7 41h590l-7 -41h-590zM171 717q-37 -190 21 -351t196 -255.5t325 -94.5t361.5 94.5t294.5 255.5t158 351q20 116 9 220.5t-57.5 192.5t-116.5 151.5t-167.5 99.5t-209.5 36q-140 0 -277 -55.5t-245 -149.5t-186 -223.5t-106 -271.5zM126 717q40 206 168 376
t313 267.5t385 97.5q120 0 224 -37t179 -103.5t125 -159t62 -204t-10 -237.5q-30 -154 -113 -292t-198.5 -236.5t-260.5 -156t-295 -57.5t-273.5 57t-199 157t-107.5 235.5t1 292.5z" />
    <glyph glyph-name="Iota" unicode="&#x399;" horiz-adv-x="565" 
d="M436 1434h45l-278 -1434h-45z" />
    <glyph glyph-name="Kappa" unicode="&#x39a;" horiz-adv-x="1185" 
d="M1192 1434h47q-59 -306 -207 -487t-362 -229l372 -718h-57l-368 708q-56 -8 -108 -8h-235l-135 -700h-45l279 1434h45l-135 -693h232q164 0 299 75t234 232.5t144 385.5z" />
    <glyph glyph-name="Lambda" unicode="&#x39b;" horiz-adv-x="1351" 
d="M1122 0l-281 1376l-816 -1376h-54l858 1434h45l302 -1434h-54z" />
    <glyph glyph-name="Mu" unicode="&#x39c;" horiz-adv-x="1695" 
d="M878 244h-27l-453 1093l-259 -1337h-45l279 1434h43l461 -1125l899 1125h43l-279 -1434h-45l259 1337z" />
    <glyph glyph-name="Nu" unicode="&#x39d;" horiz-adv-x="1404" 
d="M94 0l279 1434h41l662 -1352l263 1352h45l-278 -1434h-41l-664 1352l-262 -1352h-45z" />
    <glyph glyph-name="Xi" unicode="&#x39e;" horiz-adv-x="1185" 
d="M324 1393l8 41h874l-8 -41h-874zM35 0l7 41h911l-7 -41h-911zM993 696h-755l7 41h755z" />
    <glyph glyph-name="Omicron" unicode="&#x39f;" horiz-adv-x="1624" 
d="M171 717q-37 -190 21 -351t196 -255.5t325 -94.5t361.5 94.5t294.5 255.5t158 351q20 116 9 220.5t-57.5 192.5t-116.5 151.5t-167.5 99.5t-209.5 36q-140 0 -277 -55.5t-245 -149.5t-186 -223.5t-106 -271.5zM126 717q40 206 168 376t313 267.5t385 97.5q120 0 224 -37
t179 -103.5t125 -159t62 -204t-10 -237.5q-30 -154 -113 -292t-198.5 -236.5t-260.5 -156t-295 -57.5t-273.5 57t-199 157t-107.5 235.5t1 292.5z" />
    <glyph glyph-name="Pi" unicode="&#x3a0;" horiz-adv-x="1361" 
d="M1341 1434l-278 -1434h-45l270 1393h-878l-271 -1393h-45l279 1434h968z" />
    <glyph glyph-name="Rho" unicode="&#x3a1;" horiz-adv-x="1148" 
d="M594 602h-338l-117 -602h-45l279 1434h383q216 0 327.5 -114t74.5 -302t-192.5 -302t-371.5 -114zM1113 1018q32 169 -68 272t-297 103h-338l-146 -750h338q197 0 337.5 103t173.5 272z" />
    <glyph glyph-name="Sigma" unicode="&#x3a3;" horiz-adv-x="1148" 
d="M34 41l671 678l-408 674l8 41h891l-8 -41h-836l406 -664l-4 -22l-665 -666h836l-7 -41h-891z" />
    <glyph glyph-name="Tau" unicode="&#x3a4;" horiz-adv-x="1089" 
d="M420 0l270 1393h-452l8 41h950l-8 -41h-453l-270 -1393h-45z" />
    <glyph glyph-name="Upsilon" unicode="&#x3a5;" horiz-adv-x="1298" 
d="M303 1434l367 -799l678 799h57l-722 -846l-114 -588h-45l114 588l-392 846h57z" />
    <glyph glyph-name="Phi" unicode="&#x3a6;" horiz-adv-x="1486" 
d="M665 238l185 954q-162 0 -310.5 -64t-248 -173.5t-124.5 -239.5t32 -239.5t180.5 -173.5t285.5 -64zM664 0h-46l38 197q-173 0 -305.5 69t-194 188.5t-34.5 260.5q28 141 135.5 260.5t267.5 188.5t333 69l39 201h45l-39 -201q130 0 239.5 -41t181 -110t103 -165
t10.5 -202q-27 -141 -135 -260.5t-268 -188.5t-333 -69zM895 1192l-185 -954q162 0 310 64t247.5 173.5t124.5 239.5t-31.5 239.5t-180 173.5t-285.5 64z" />
    <glyph glyph-name="Chi" unicode="&#x3a7;" horiz-adv-x="1251" 
d="M-36 0l672 729l-375 705h57l354 -665l613 665h57l-649 -705l389 -729h-57l-368 690l-635 -690h-58z" />
    <glyph glyph-name="Psi" unicode="&#x3a8;" horiz-adv-x="1372" 
d="M885 1434l-202 -1039q132 6 253.5 75t206.5 184.5t112 252.5l103 527h45l-103 -527q-29 -148 -122 -273.5t-226 -199.5t-277 -80l-69 -354h-45l69 354q-107 4 -194.5 49t-141.5 119t-76.5 173t1.5 212l103 527h45l-103 -527q-40 -208 68 -355.5t306 -156.5l202 1039h45z
" />
    <glyph glyph-name="uni03A9" unicode="&#x3a9;" horiz-adv-x="1576" 
d="M1474 743q36 185 -19.5 340t-186 244.5t-306.5 89.5t-341.5 -89.5t-281.5 -244.5t-152 -340q-13 -78 -14.5 -151.5t22 -147.5t68 -142t123.5 -135t188 -126l-7 -41h-553l8 41h471q-95 52 -166 115.5t-113 131.5t-64.5 144t-22 153t14.5 158q38 196 161 360t300 259.5
t366 95.5t329 -95.5t199.5 -259.5t21.5 -360q-42 -214 -193.5 -395t-431.5 -307h471l-7 -41h-553l7 41q164 73 285.5 157.5t197 175t117.5 179.5t62 190z" />
    <glyph glyph-name="Iotadieresis" unicode="&#x3aa;" horiz-adv-x="565" 
d="M436 1434h45l-278 -1434h-45zM286 1704q4 25 23.5 41t44.5 16t38 -16t8 -41q-4 -25 -23.5 -41t-44.5 -16t-38 16t-8 41zM622 1704q4 25 23.5 41t44.5 16t38 -16t8 -41q-4 -25 -23.5 -41t-44.5 -16t-38 16t-8 41z" />
    <glyph glyph-name="Upsilondieresis" unicode="&#x3ab;" horiz-adv-x="1298" 
d="M303 1434l367 -799l678 799h57l-722 -846l-114 -588h-45l114 588l-392 846h57zM652 1704q4 25 24 41t45 16t38 -16t8 -41q-4 -25 -24 -41t-45 -16t-38 16t-8 41zM988 1704q4 25 24 41t45 16t38 -16t8 -41q-4 -25 -24 -41t-45 -16t-38 16t-8 41z" />
    <glyph glyph-name="alphatonos" unicode="&#x3ac;" horiz-adv-x="1389" 
d="M87 530q22 113 82 215.5t143 176.5t186.5 118t209.5 44q158 0 265.5 -92t137.5 -243l60 312h46l-166 -854q-33 -166 120 -166h72l-7 -39q-40 -2 -72 -2q-199 0 -159 205l21 107q-89 -151 -232 -243t-301 -92q-141 0 -245 74t-147 201t-14 278zM133 530
q-27 -141 11.5 -259t133 -186.5t224.5 -68.5t250.5 68.5t204.5 186.5t111 259t-11 259.5t-132 187.5t-224 69t-251 -69t-205.5 -187.5t-111.5 -259.5zM663 1237l353 330l30 -28l-355 -330z" />
    <glyph glyph-name="epsilontonos" unicode="&#x3ad;" horiz-adv-x="956" 
d="M391 18q214 0 384 167l29 -28q-185 -182 -421 -182q-169 0 -269 89.5t-75 219.5q21 108 119 184.5t214 101.5q-104 30 -153.5 96.5t-32.5 150.5q22 114 139.5 191t267.5 77q144 0 233 -74t79 -202h-46q7 108 -68 171.5t-206 63.5q-130 0 -232.5 -65.5t-121.5 -161.5
t58 -161.5t207 -65.5h157l-7 -41h-151q-150 0 -269 -77t-142 -188q-22 -111 67 -188.5t240 -77.5zM499 1237l353 330l30 -28l-355 -330z" />
    <glyph glyph-name="etatonos" unicode="&#x3ae;" horiz-adv-x="1199" 
d="M744 1085q188 0 277.5 -119.5t53.5 -306.5l-221 -1134h-45l220 1130q21 109 -4.5 196.5t-100.5 140t-188 52.5q-167 0 -318.5 -124t-183.5 -285l-122 -635h-45l205 1061h45l-50 -258q76 123 208 202.5t269 79.5zM662 1237l353 330l29 -28l-354 -330z" />
    <glyph glyph-name="iotatonos" unicode="&#x3af;" horiz-adv-x="558" 
d="M173 205l167 856h45l-166 -854q-33 -166 121 -166h72l-8 -39q-40 -2 -71 -2q-200 0 -160 205zM307 1237l353 330l30 -28l-354 -330z" />
    <glyph glyph-name="upsilondieresistonos" unicode="&#x3b0;" horiz-adv-x="1146" 
d="M466 -25q-117 0 -203.5 57t-123.5 156t-14 218l128 655h45l-128 -655q-31 -164 57 -277t247 -113t291 113t163 277l128 655h45l-128 -655q-34 -181 -181 -306t-326 -125zM499 1305q4 25 23.5 41t44.5 16t38 -16t8 -41t-24 -41.5t-44 -16.5t-38 16.5t-8 41.5zM835 1305
q4 25 23.5 41t44.5 16t38 -16t8 -41t-24 -41.5t-44 -16.5t-38 16.5t-8 41.5zM716 1497l283 266l28 -28l-288 -269z" />
    <glyph glyph-name="alpha" unicode="&#x3b1;" horiz-adv-x="1389" 
d="M87 530q22 113 82 215.5t143 176.5t186.5 118t209.5 44q158 0 265.5 -92t137.5 -243l60 312h46l-166 -854q-33 -166 120 -166h72l-7 -39q-40 -2 -72 -2q-199 0 -159 205l21 107q-89 -151 -232 -243t-301 -92q-141 0 -245 74t-147 201t-14 278zM133 530
q-27 -141 11.5 -259t133 -186.5t224.5 -68.5t250.5 68.5t204.5 186.5t111 259t-11 259.5t-132 187.5t-224 69t-251 -69t-205.5 -187.5t-111.5 -259.5z" />
    <glyph glyph-name="beta" unicode="&#x3b2;" horiz-adv-x="1200" 
d="M264 50l27 40q93 -74 230 -74q179 0 325.5 115t179.5 283t-69.5 282.5t-281.5 114.5q-79 0 -138 -20l-18 28l384 574h-514l-363 -1868h-45l371 1909h613l-9 -41l-370 -553q45 12 97 12q202 0 313 -126.5t75 -311.5t-196 -312t-362 -127q-150 0 -249 75z" />
    <glyph glyph-name="gamma" unicode="&#x3b3;" horiz-adv-x="1060" 
d="M312 -475l97 491l-254 1045h53l234 -983l618 983h53l-659 -1045l-97 -491h-45z" />
    <glyph glyph-name="delta" unicode="&#x3b4;" horiz-adv-x="1117" 
d="M65 455q39 200 205 339.5t367 139.5q90 0 166 -35l-423 494l8 41h703l-9 -41h-639l493 -583q59 -70 83 -161.5t4 -193.5q-26 -132 -110.5 -242t-207 -174t-254.5 -64t-230 64t-140 174.5t-16 241.5zM110 455q-35 -184 66 -311.5t283 -127.5q183 0 333.5 128t185.5 311
t-65.5 310.5t-283.5 127.5t-333.5 -127.5t-185.5 -310.5z" />
    <glyph glyph-name="epsilon" unicode="&#x3b5;" horiz-adv-x="956" 
d="M391 18q214 0 384 167l29 -28q-185 -182 -421 -182q-169 0 -269 89.5t-75 219.5q21 108 119 184.5t214 101.5q-104 30 -153.5 96.5t-32.5 150.5q22 114 139.5 191t267.5 77q144 0 233 -74t79 -202h-46q7 108 -68 171.5t-206 63.5q-130 0 -232.5 -65.5t-121.5 -161.5
t58 -161.5t207 -65.5h157l-7 -41h-151q-150 0 -269 -77t-142 -188q-22 -111 67 -188.5t240 -77.5z" />
    <glyph glyph-name="zeta" unicode="&#x3b6;" horiz-adv-x="927" 
d="M60 387q19 95 82.5 181.5t175.5 195.5l645 629h-613l8 41h668l-8 -41l-670 -654q-105 -102 -165.5 -185t-77.5 -167q-39 -199 187 -301l206 -94q102 -47 154 -102.5t38 -131.5q-20 -108 -134 -233h-53q122 129 142 233q11 60 -37 106t-136 87l-209 96q-247 114 -203 340z
" />
    <glyph glyph-name="eta" unicode="&#x3b7;" horiz-adv-x="1199" 
d="M744 1085q188 0 277.5 -119.5t53.5 -306.5l-221 -1134h-45l220 1130q21 109 -4.5 196.5t-100.5 140t-188 52.5q-167 0 -318.5 -124t-183.5 -285l-122 -635h-45l205 1061h45l-50 -258q76 123 208 202.5t269 79.5z" />
    <glyph glyph-name="theta" unicode="&#x3b8;" horiz-adv-x="1284" 
d="M126 717q39 204 146 374.5t253 268.5t297 98q113 0 204.5 -57.5t145.5 -157.5t73 -235.5t-13 -290.5q-40 -204 -146.5 -374.5t-253 -269t-297.5 -98.5t-259.5 98.5t-149 269t-0.5 374.5zM543 16q137 0 269.5 90t231 246.5t138.5 343.5h-1015q-27 -142 -8.5 -266.5
t67.5 -216t132 -144.5t185 -53zM815 1417q-137 0 -270 -90.5t-232 -246.5t-139 -343h1015q33 187 -4.5 343t-135 246.5t-234.5 90.5z" />
    <glyph glyph-name="iota" unicode="&#x3b9;" horiz-adv-x="558" 
d="M173 205l167 856h45l-166 -854q-33 -166 121 -166h72l-8 -39q-40 -2 -71 -2q-200 0 -160 205z" />
    <glyph glyph-name="kappa" unicode="&#x3ba;" horiz-adv-x="1020" 
d="M975 1061h45q-39 -201 -158.5 -325t-295.5 -156l320 -580h-60l-315 572q-33 -3 -67 -3h-222l-110 -569h-45l205 1061h45l-88 -451h225q202 0 340.5 116.5t180.5 334.5z" />
    <glyph glyph-name="lambda" unicode="&#x3bb;" horiz-adv-x="1056" 
d="M606 1031l-109 464h53l355 -1495h-53l-230 971l-622 -971h-53z" />
    <glyph glyph-name="uni03BC" unicode="&#x3bc;" horiz-adv-x="1218" 
d="M475 -25q-128 0 -212.5 58.5t-114.5 159.5l-130 -668h-45l299 1536h45l-128 -655q-21 -109 5 -196.5t101 -140.5t188 -53q167 0 318.5 124.5t182.5 285.5l124 635h45l-206 -1061h-45l49 258q-77 -124 -208.5 -203.5t-267.5 -79.5z" />
    <glyph glyph-name="nu" unicode="&#x3bd;" horiz-adv-x="1036" 
d="M1091 1061l-653 -1061h-45l-240 1061h53l222 -995l609 995h54z" />
    <glyph glyph-name="xi" unicode="&#x3be;" horiz-adv-x="937" 
d="M110 387q-23 -114 28.5 -205.5t178.5 -138.5l188 -70q115 -42 169 -94t40 -125q-22 -111 -154 -229h-55q144 124 164 229q11 60 -37 100.5t-150 78.5l-186 70q-143 53 -199 155.5t-32 228.5q27 138 136.5 245.5t260.5 150.5q-107 36 -162 124t-32 204q29 146 158 246.5
t287 100.5q124 0 209.5 -64t91.5 -173h-45q-7 89 -83 142.5t-180 53.5q-139 0 -253 -89t-140 -217q-25 -128 54.5 -217t218.5 -89h190l-7 -41h-175q-172 0 -312.5 -109.5t-171.5 -267.5z" />
    <glyph glyph-name="omicron" unicode="&#x3bf;" horiz-adv-x="1259" 
d="M530 16q104 0 205.5 42t180.5 112.5t135 164.5t76 195q26 135 -15 253t-142 189.5t-240 71.5t-268 -71.5t-216.5 -189.5t-113.5 -253t15 -253t142.5 -189.5t240.5 -71.5zM738 1085q115 0 208 -45t148 -121t78.5 -177t-0.5 -212q-21 -110 -82 -211.5t-146.5 -177.5
t-196 -121t-225.5 -45t-208 45t-148 121t-79 177t0 212q22 110 83 211.5t146.5 177.5t196 121t225.5 45z" />
    <glyph glyph-name="pi" unicode="&#x3c0;" horiz-adv-x="1138" 
d="M398 1020l-197 -1020h-45l197 1020h-207l9 41h1036l-8 -41h-207l-198 -1020h-45l198 1020h-533z" />
    <glyph glyph-name="rho" unicode="&#x3c1;" horiz-adv-x="1283" 
d="M195 530l-16 -80q-9 -196 104.5 -315t289.5 -119q200 0 368.5 149.5t209.5 364.5q28 141 -12.5 259.5t-137.5 186.5t-228 68q-200 0 -368 -149.5t-210 -364.5zM565 -25q-166 0 -274.5 93.5t-139.5 232.5l-152 -776h-45l196 1005q30 152 124 279.5t228.5 201.5t278.5 74
t250 -74t150.5 -201.5t14.5 -279.5t-124 -279.5t-228.5 -201.5t-278.5 -74z" />
    <glyph glyph-name="sigma1" unicode="&#x3c2;" horiz-adv-x="1086" 
d="M594 -56l-223 90q-166 67 -242 193.5t-42 302.5q22 110 83 211.5t146.5 177.5t196 121t225.5 45q219 0 346 -153l-31 -39q-117 151 -323 151q-139 0 -268 -71.5t-216.5 -189.5t-113.5 -253q-32 -165 37 -279.5t224 -177.5l223 -89q108 -42 155 -96t33 -129
q-23 -116 -155 -234h-55q144 124 165 234q12 62 -28 104t-137 81z" />
    <glyph glyph-name="sigma" unicode="&#x3c3;" horiz-adv-x="1285" 
d="M721 1061h616l-8 -41h-422q139 -61 205.5 -197t33.5 -305q-29 -149 -124 -274t-231 -197t-281 -72t-253 72t-154.5 197t-17.5 274t123.5 274t231 197t281.5 72zM130 518q-27 -138 15 -253.5t141 -182t232 -66.5t258 66.5t211.5 182t113.5 253.5t-15 253.5t-141 182
t-232 66.5t-258 -66.5t-211.5 -182t-113.5 -253.5z" />
    <glyph glyph-name="tau" unicode="&#x3c4;" horiz-adv-x="972" 
d="M389 205l159 815h-402l9 41h870l-8 -41h-424l-158 -813q-33 -166 121 -166h72l-7 -39q-40 -2 -72 -2q-200 0 -160 205z" />
    <glyph glyph-name="upsilon" unicode="&#x3c5;" horiz-adv-x="1146" 
d="M466 -25q-117 0 -203.5 57t-123.5 156t-14 218l128 655h45l-128 -655q-31 -164 57 -277t247 -113t291 113t163 277l128 655h45l-128 -655q-34 -181 -181 -306t-326 -125z" />
    <glyph glyph-name="phi" unicode="&#x3c6;" horiz-adv-x="1378" 
d="M365 949l24 -30q-99 -72 -166.5 -173t-90.5 -216q-27 -141 21 -259.5t157.5 -186.5t256.5 -68l208 1069h45q160 0 278.5 -73.5t170.5 -201t22 -280.5t-131.5 -280.5t-248.5 -201t-307 -73.5l-88 -450h-45l88 450q-160 0 -278.5 73.5t-171 201t-22.5 280.5
q24 125 97 233.5t181 185.5zM1246 530q28 141 -20 259.5t-157.5 186.5t-256.5 68l-200 -1028q147 0 283.5 68t230 186.5t120.5 259.5z" />
    <glyph glyph-name="chi" unicode="&#x3c7;" horiz-adv-x="1052" 
d="M763 -475l-288 739l-576 -739h-53l611 785l-292 751h53l275 -706l548 706h54l-585 -751l306 -785h-53z" />
    <glyph glyph-name="psi" unicode="&#x3c8;" horiz-adv-x="1380" 
d="M816 1061l-203 -1045q132 6 254 75t207 184.5t112 252.5l103 533h45l-103 -533q-29 -148 -122 -273t-226.5 -199.5t-277.5 -79.5l-88 -451h-45l88 451q-143 5 -247 79.5t-148 199t-15 273.5l103 533h45l-103 -533q-40 -208 67.5 -355.5t305.5 -156.5l203 1045h45z" />
    <glyph glyph-name="omega" unicode="&#x3c9;" horiz-adv-x="1587" 
d="M737 240q-70 -116 -170 -190.5t-205 -74.5q-106 0 -180.5 73.5t-98.5 194.5t2 277q52 265 288 541h47q-239 -280 -290 -541q-24 -144 -3 -256t86 -180t158 -68q74 0 153.5 50t138.5 132t76 169l92 471h46l-93 -471q-26 -133 47 -242t187 -109q141 0 268 146t167 358
q51 262 -79 541h47q128 -280 77 -541q-44 -229 -185.5 -387t-302.5 -158q-105 0 -176.5 75t-96.5 190z" />
    <glyph glyph-name="iotadieresis" unicode="&#x3ca;" horiz-adv-x="558" 
d="M173 205l167 856h45l-166 -854q-33 -166 121 -166h72l-8 -39q-40 -2 -71 -2q-200 0 -160 205zM198 1372q5 25 24 41.5t44 16.5t38 -16.5t8 -41.5q-4 -25 -23.5 -41t-44.5 -16t-38 16t-8 41zM534 1372q5 25 24 41.5t44 16.5t38 -16.5t8 -41.5q-4 -25 -23.5 -41t-44.5 -16
t-38 16t-8 41z" />
    <glyph glyph-name="upsilondieresis" unicode="&#x3cb;" horiz-adv-x="1146" 
d="M512 1372q4 25 24 41.5t45 16.5t38 -16.5t8 -41.5q-4 -25 -24 -41t-45 -16t-38 16t-8 41zM848 1372q5 25 24 41.5t44 16.5t38.5 -16.5t8.5 -41.5q-4 -25 -24 -41t-45 -16t-38 16t-8 41zM466 -25q-117 0 -203.5 57t-123.5 156t-14 218l128 655h45l-128 -655
q-31 -164 57 -277t247 -113t291 113t163 277l128 655h45l-128 -655q-34 -181 -181 -306t-326 -125z" />
    <glyph glyph-name="omicrontonos" unicode="&#x3cc;" horiz-adv-x="1259" 
d="M530 16q104 0 205.5 42t180.5 112.5t135 164.5t76 195q26 135 -15 253t-142 189.5t-240 71.5t-268 -71.5t-216.5 -189.5t-113.5 -253t15 -253t142.5 -189.5t240.5 -71.5zM738 1085q115 0 208 -45t148 -121t78.5 -177t-0.5 -212q-21 -110 -82 -211.5t-146.5 -177.5
t-196 -121t-225.5 -45t-208 45t-148 121t-79 177t0 212q22 110 83 211.5t146.5 177.5t196 121t225.5 45zM681 1237l353 330l30 -28l-354 -330z" />
    <glyph glyph-name="upsilontonos" unicode="&#x3cd;" horiz-adv-x="1146" 
d="M466 -25q-117 0 -203.5 57t-123.5 156t-14 218l128 655h45l-128 -655q-31 -164 57 -277t247 -113t291 113t163 277l128 655h45l-128 -655q-34 -181 -181 -306t-326 -125zM607 1237l354 330l29 -28l-354 -330z" />
    <glyph glyph-name="omegatonos" unicode="&#x3ce;" horiz-adv-x="1587" 
d="M737 240q-70 -116 -170 -190.5t-205 -74.5q-106 0 -180.5 73.5t-98.5 194.5t2 277q52 265 288 541h47q-239 -280 -290 -541q-24 -144 -3 -256t86 -180t158 -68q74 0 153.5 50t138.5 132t76 169l92 471h46l-93 -471q-26 -133 47 -242t187 -109q141 0 268 146t167 358
q51 262 -79 541h47q128 -280 77 -541q-44 -229 -185.5 -387t-302.5 -158q-105 0 -176.5 75t-96.5 190zM838 1237l353 330l30 -28l-355 -330z" />
    <glyph glyph-name="uni0400" unicode="&#x400;" horiz-adv-x="1122" 
d="M94 0l279 1434h770l-8 -41h-725l-127 -652h665l-8 -41h-666l-128 -659h744l-7 -41h-789zM650 1898l224 -329l-38 -28l-226 330z" />
    <glyph glyph-name="afii10023" unicode="&#x401;" horiz-adv-x="1122" 
d="M94 0l279 1434h770l-8 -41h-725l-127 -652h665l-8 -41h-666l-128 -659h744l-7 -41h-789zM574 1704q4 25 24 41t45 16t38 -16t8 -41q-4 -25 -23.5 -41t-44.5 -16t-38 16t-9 41zM910 1704q4 25 24 41t45 16t38 -16t8 -41q-4 -25 -24 -41t-45 -16t-38 16t-8 41z" />
    <glyph glyph-name="afii10051" unicode="&#x402;" horiz-adv-x="1427" 
d="M735 1393l-144 -743q72 120 191 195.5t250 75.5q121 0 197 -56t99.5 -150t0.5 -215l-21 -113q-32 -165 -168.5 -278t-306.5 -113q-52 0 -88 4l8 41q37 -4 87 -4q151 0 272.5 101t150.5 249l20 103q18 81 9.5 152t-36.5 124t-87.5 83.5t-144.5 30.5q-164 0 -300 -122.5
t-168 -287.5l-91 -470h-45l270 1393h-452l8 41h950l-8 -41h-453z" />
    <glyph glyph-name="afii10052" unicode="&#x403;" horiz-adv-x="1046" 
d="M94 0l279 1434h780l-8 -41h-735l-271 -1393h-45zM646 1569l353 329l30 -27l-354 -330z" />
    <glyph glyph-name="afii10053" unicode="&#x404;" horiz-adv-x="1575" 
d="M1576 988h-49q-40 192 -185.5 310.5t-356.5 118.5q-184 0 -356 -91t-292.5 -247t-162.5 -342h836l-8 -41h-835q-31 -186 29 -342t196.5 -247t320.5 -91q190 0 366.5 98t296.5 263l33 -27q-127 -172 -314 -273.5t-390 -101.5q-150 0 -273.5 57t-199 157t-107.5 235.5
t1 292.5q40 206 168 376t313 267.5t385 97.5q231 0 388.5 -129t195.5 -341z" />
    <glyph glyph-name="afii10054" unicode="&#x405;" horiz-adv-x="1167" 
d="M63 203l40 35q55 -97 158.5 -159.5t228.5 -62.5q185 0 325 94t168 238q27 139 -65 234t-287 137q-201 43 -297.5 141.5t-69.5 239.5q30 154 166.5 256t321.5 102q165 0 271 -93t116 -253h-45q-12 139 -104 222t-239 83q-170 0 -292.5 -90t-148.5 -223q-25 -129 68 -216.5
t275 -127.5q215 -47 310 -150.5t65 -257.5q-31 -161 -184.5 -269t-357.5 -108q-141 0 -252.5 64t-170.5 164z" />
    <glyph glyph-name="afii10055" unicode="&#x406;" horiz-adv-x="565" 
d="M436 1434h45l-278 -1434h-45z" />
    <glyph glyph-name="afii10056" unicode="&#x407;" horiz-adv-x="565" 
d="M436 1434h45l-278 -1434h-45zM286 1704q4 25 23.5 41t44.5 16t38 -16t8 -41q-4 -25 -23.5 -41t-44.5 -16t-38 16t-8 41zM622 1704q4 25 23.5 41t44.5 16t38 -16t8 -41q-4 -25 -23.5 -41t-44.5 -16t-38 16t-8 41z" />
    <glyph glyph-name="afii10057" unicode="&#x408;" horiz-adv-x="888" 
d="M642 397l202 1037h45l-202 -1037q-40 -206 -156 -314t-286 -108q-70 0 -141.5 19t-123.5 51l24 43q47 -32 115.5 -52t129.5 -20q151 0 254 98t139 283z" />
    <glyph glyph-name="afii10058" unicode="&#x409;" horiz-adv-x="2052" 
d="M1082 41h273q201 0 359.5 120t192.5 296q23 115 -19.5 210t-140 150t-230.5 55h-273zM1348 0h-318l270 1393h-770l-224 -1151q-22 -116 -97 -181t-169 -65q-39 0 -73 4l7 41q40 -4 73 -4q77 0 136 53.5t78 151.5l233 1192h860l-102 -521h273q221 0 343 -131.5t84 -324.5
q-37 -193 -210 -325t-394 -132z" />
    <glyph glyph-name="afii10059" unicode="&#x40a;" horiz-adv-x="2062" 
d="M94 0l279 1434h45l-135 -693h891l135 693h45l-102 -521h283q221 0 343 -131.5t84 -324.5q-37 -193 -210 -325t-394 -132h-328l135 700h-891l-135 -700h-45zM1082 41h283q201 0 359.5 120t192.5 296q23 115 -19.5 210t-140 150t-230.5 55h-283z" />
    <glyph glyph-name="afii10060" unicode="&#x40b;" horiz-adv-x="1484" 
d="M1032 921q184 0 258.5 -117t37.5 -309l-95 -495h-45l95 490q18 81 9.5 152t-36.5 124t-87.5 83.5t-144.5 30.5q-164 0 -299.5 -122.5t-167.5 -287.5l-91 -470h-45l270 1393h-453l8 41h950l-8 -41h-452l-144 -743q72 120 190.5 195.5t249.5 75.5z" />
    <glyph glyph-name="afii10061" unicode="&#x40c;" horiz-adv-x="1185" 
d="M1192 1434h47q-59 -306 -207 -487t-362 -229l372 -718h-57l-368 708q-56 -8 -108 -8h-235l-135 -700h-45l279 1434h45l-135 -693h232q164 0 299 75t234 232.5t144 385.5zM654 1569l354 329l29 -27l-354 -330z" />
    <glyph glyph-name="uni040D" unicode="&#x40d;" horiz-adv-x="1404" 
d="M1384 1434l-278 -1434h-45l262 1352l-1188 -1352h-41l279 1434h45l-263 -1352l1188 1352h41zM740 1898l225 -329l-39 -28l-226 330z" />
    <glyph glyph-name="afii10062" unicode="&#x40e;" horiz-adv-x="1298" 
d="M435 175l169 234l-358 1025h55l341 -973l708 973h55l-932 -1279q-114 -155 -266 -155h-84l7 41h84q123 0 221 134zM845 1534q-128 0 -192 85.5t-45 215.5h45q-16 -114 35 -187t164 -73t192.5 73t108.5 187h45q-31 -131 -128 -216t-225 -85z" />
    <glyph glyph-name="afii10145" unicode="&#x40f;" horiz-adv-x="1361" 
d="M1341 1434l-278 -1434h-462l-56 -287h-45l56 287h-462l279 1434h45l-272 -1393h879l271 1393h45z" />
    <glyph glyph-name="afii10017" unicode="&#x410;" horiz-adv-x="1351" 
d="M1122 0l-91 442h-745l-261 -442h-54l858 1434h45l302 -1434h-54zM841 1376l-531 -893h713z" />
    <glyph glyph-name="afii10018" unicode="&#x411;" horiz-adv-x="1171" 
d="M94 0l279 1434h741l-8 -41h-696l-94 -480h293q221 0 343 -131.5t84 -324.5q-37 -193 -210 -325t-394 -132h-338zM146 41h293q201 0 359.5 120t192.5 296q23 115 -19.5 210t-140 150t-230.5 55h-293z" />
    <glyph glyph-name="afii10019" unicode="&#x412;" horiz-adv-x="1230" 
d="M557 0h-463l279 1434h442q176 0 265 -102t59 -255q-25 -128 -119.5 -219t-215.5 -113q146 -16 228.5 -112t52.5 -250q-32 -167 -180.5 -275t-347.5 -108zM1040 383q29 150 -67.5 245t-281.5 95h-411l-134 -682h412q186 0 319.5 95t162.5 247zM288 764h393q156 0 271 87.5
t142 225.5q27 139 -54 227.5t-237 88.5h-393z" />
    <glyph glyph-name="afii10020" unicode="&#x413;" horiz-adv-x="1046" 
d="M94 0l279 1434h780l-8 -41h-735l-271 -1393h-45z" />
    <glyph glyph-name="afii10021" unicode="&#x414;" horiz-adv-x="1306" 
d="M1137 41l-64 -328h-45l56 287h-1067l-56 -287h-45l64 328h117q280 463 453 1352l8 41h707l-272 -1393h144zM150 41h798l263 1352h-616q-174 -887 -445 -1352z" />
    <glyph glyph-name="afii10022" unicode="&#x415;" horiz-adv-x="1122" 
d="M94 0l279 1434h770l-8 -41h-725l-127 -652h665l-8 -41h-666l-128 -659h744l-7 -41h-789z" />
    <glyph glyph-name="afii10024" unicode="&#x416;" horiz-adv-x="1851" 
d="M1858 1434h47q-59 -306 -207.5 -487t-362.5 -229l373 -718h-57l-368 708q-56 -8 -108 -8h-194l-135 -700h-45l135 700h-194q-51 0 -105 8l-641 -708h-57l650 718q-194 48 -271.5 229t-18.5 487h47q-66 -340 45 -516.5t362 -176.5h191l135 693h45l-135 -693h192
q164 0 299 75t234 232.5t144 385.5z" />
    <glyph glyph-name="afii10025" unicode="&#x417;" horiz-adv-x="1049" 
d="M884 389q31 157 -70.5 265t-278.5 108h-166l8 41h172q145 0 260.5 89t140.5 218q26 129 -55.5 218t-225.5 89q-114 0 -221.5 -60t-156.5 -173h-44q35 87 107 151t154.5 93.5t167.5 29.5q163 0 255.5 -101t63.5 -247q-22 -113 -110.5 -202t-214.5 -125q139 -36 213 -142.5
t46 -251.5q-34 -174 -192.5 -294t-354.5 -120q-129 0 -229.5 57.5t-142.5 163.5l39 30q37 -102 129.5 -156t211.5 -54q177 0 320.5 108t173.5 265z" />
    <glyph glyph-name="afii10026" unicode="&#x418;" horiz-adv-x="1404" 
d="M1384 1434l-278 -1434h-45l262 1352l-1188 -1352h-41l279 1434h45l-263 -1352l1188 1352h41z" />
    <glyph glyph-name="afii10027" unicode="&#x419;" horiz-adv-x="1404" 
d="M898 1534q-128 0 -191.5 85t-44.5 216h45q-16 -114 34.5 -187t163.5 -73t192.5 73t108.5 187h45q-31 -131 -128 -216t-225 -85zM1384 1434l-278 -1434h-45l262 1352l-1188 -1352h-41l279 1434h45l-263 -1352l1188 1352h41z" />
    <glyph glyph-name="afii10028" unicode="&#x41a;" horiz-adv-x="1185" 
d="M1192 1434h47q-59 -306 -207 -487t-362 -229l372 -718h-57l-368 708q-56 -8 -108 -8h-235l-135 -700h-45l279 1434h45l-135 -693h232q164 0 299 75t234 232.5t144 385.5z" />
    <glyph glyph-name="afii10029" unicode="&#x41b;" horiz-adv-x="1415" 
d="M1116 0h-45l270 1393h-811l-224 -1151q-22 -116 -97 -181t-169 -65q-39 0 -73 4l7 41q40 -4 73 -4q77 0 136 53.5t78 151.5l233 1192h901z" />
    <glyph glyph-name="afii10030" unicode="&#x41c;" horiz-adv-x="1695" 
d="M878 244h-27l-453 1093l-259 -1337h-45l279 1434h43l461 -1125l899 1125h43l-279 -1434h-45l259 1337z" />
    <glyph glyph-name="afii10031" unicode="&#x41d;" horiz-adv-x="1384" 
d="M94 0l279 1434h45l-135 -693h901l135 693h45l-279 -1434h-45l136 700h-902l-135 -700h-45z" />
    <glyph glyph-name="afii10032" unicode="&#x41e;" horiz-adv-x="1624" 
d="M171 717q-37 -190 21 -351t196 -255.5t325 -94.5t361.5 94.5t294.5 255.5t158 351q20 116 9 220.5t-57.5 192.5t-116.5 151.5t-167.5 99.5t-209.5 36q-140 0 -277 -55.5t-245 -149.5t-186 -223.5t-106 -271.5zM126 717q40 206 168 376t313 267.5t385 97.5q120 0 224 -37
t179 -103.5t125 -159t62 -204t-10 -237.5q-30 -154 -113 -292t-198.5 -236.5t-260.5 -156t-295 -57.5t-273.5 57t-199 157t-107.5 235.5t1 292.5z" />
    <glyph glyph-name="afii10033" unicode="&#x41f;" horiz-adv-x="1361" 
d="M1341 1434l-278 -1434h-45l270 1393h-878l-271 -1393h-45l279 1434h968z" />
    <glyph glyph-name="afii10034" unicode="&#x420;" horiz-adv-x="1148" 
d="M594 602h-338l-117 -602h-45l279 1434h383q216 0 327.5 -114t74.5 -302t-192.5 -302t-371.5 -114zM1113 1018q32 169 -68 272t-297 103h-338l-146 -750h338q197 0 337.5 103t173.5 272z" />
    <glyph glyph-name="afii10035" unicode="&#x421;" horiz-adv-x="1575" 
d="M1576 988h-49q-40 192 -185.5 310.5t-356.5 118.5q-140 0 -277 -55.5t-245 -149.5t-186 -223.5t-106 -271.5q-37 -190 21 -351t196 -255.5t325 -94.5q190 0 366.5 98t296.5 263l33 -27q-127 -172 -314 -273.5t-390 -101.5q-150 0 -273.5 57t-199 157t-107.5 235.5
t1 292.5q40 206 168 376t313 267.5t385 97.5q231 0 388.5 -129t195.5 -341z" />
    <glyph glyph-name="afii10036" unicode="&#x422;" horiz-adv-x="1089" 
d="M420 0l270 1393h-452l8 41h950l-8 -41h-453l-270 -1393h-45z" />
    <glyph glyph-name="afii10037" unicode="&#x423;" horiz-adv-x="1298" 
d="M435 175l169 234l-358 1025h55l341 -973l708 973h55l-932 -1279q-114 -155 -266 -155h-84l7 41h84q123 0 221 134z" />
    <glyph glyph-name="afii10038" unicode="&#x424;" horiz-adv-x="1486" 
d="M665 238l185 954q-162 0 -310.5 -64t-248 -173.5t-124.5 -239.5t32 -239.5t180.5 -173.5t285.5 -64zM664 0h-46l38 197q-173 0 -305.5 69t-194 188.5t-34.5 260.5q28 141 135.5 260.5t267.5 188.5t333 69l39 201h45l-39 -201q130 0 239.5 -41t181 -110t103 -165
t10.5 -202q-27 -141 -135 -260.5t-268 -188.5t-333 -69zM895 1192l-185 -954q162 0 310 64t247.5 173.5t124.5 239.5t-31.5 239.5t-180 173.5t-285.5 64z" />
    <glyph glyph-name="afii10039" unicode="&#x425;" horiz-adv-x="1251" 
d="M-36 0l672 729l-375 705h57l354 -665l613 665h57l-649 -705l389 -729h-57l-368 690l-635 -690h-58z" />
    <glyph glyph-name="afii10040" unicode="&#x426;" horiz-adv-x="1373" 
d="M1341 1434l-271 -1393h133l-63 -328h-45l56 287h-1057l279 1434h45l-272 -1393h879l271 1393h45z" />
    <glyph glyph-name="afii10041" unicode="&#x427;" horiz-adv-x="1200" 
d="M550 512q-187 0 -272.5 119t-48.5 307l96 495h45l-96 -491q-21 -109 2.5 -196t95.5 -140t185 -53q165 0 309 123.5t176 286.5l92 470h45l-278 -1433h-45l153 788q-75 -122 -200 -199t-259 -77z" />
    <glyph glyph-name="afii10042" unicode="&#x428;" horiz-adv-x="1900" 
d="M1564 41l271 1393h45l-278 -1434h-1508l279 1434h45l-272 -1393h687l271 1393h45l-271 -1393h686z" />
    <glyph glyph-name="afii10043" unicode="&#x429;" horiz-adv-x="1911" 
d="M94 0l279 1434h45l-272 -1393h687l271 1393h45l-271 -1393h686l271 1393h45l-271 -1393h133l-64 -328h-45l57 287h-1596z" />
    <glyph glyph-name="afii10044" unicode="&#x42a;" horiz-adv-x="1419" 
d="M647 1393h-409l8 41h454l-101 -521h293q221 0 343 -131.5t84 -324.5q-37 -193 -210 -325t-394 -132h-338zM429 41h293q201 0 359.5 120t192.5 296q23 115 -19.5 210t-140 150t-230.5 55h-293z" />
    <glyph glyph-name="afii10045" unicode="&#x42b;" horiz-adv-x="1554" 
d="M373 1434h45l-102 -521h293q221 0 343 -131.5t84 -324.5q-37 -193 -210 -325t-394 -132h-338zM146 41h293q201 0 359.5 120t192.5 296q23 115 -19.5 210t-140 150t-230.5 55h-293zM1489 1434h45l-279 -1434h-45z" />
    <glyph glyph-name="afii10046" unicode="&#x42c;" horiz-adv-x="1136" 
d="M373 1434h45l-102 -521h293q221 0 343 -131.5t84 -324.5q-37 -193 -210 -325t-394 -132h-338zM146 41h293q201 0 359.5 120t192.5 296q23 115 -19.5 210t-140 150t-230.5 55h-293z" />
    <glyph glyph-name="afii10047" unicode="&#x42d;" horiz-adv-x="1575" 
d="M227 988h-49q121 212 328 341t438 129q120 0 224 -37t179 -103.5t125 -159t62 -204t-10 -237.5q-40 -206 -169 -376.5t-314 -268t-385 -97.5q-203 0 -351 101.5t-208 273.5l43 27q56 -164 195 -262.5t330 -98.5q138 0 272.5 53.5t242 145t186 217t109.5 264.5h-836l7 41
h836q23 139 -6.5 264.5t-101.5 217t-185.5 145t-251.5 53.5q-211 0 -402.5 -118.5t-307.5 -310.5z" />
    <glyph glyph-name="afii10048" unicode="&#x42e;" horiz-adv-x="2075" 
d="M274 696l-135 -696h-45l279 1434h45l-136 -697h299q44 201 173 366.5t311 260t379 94.5q200 0 347 -97.5t209.5 -267.5t22.5 -376q-30 -154 -113 -292t-198.5 -236.5t-260.5 -156t-295 -57.5q-197 0 -343 94.5t-210 260t-30 366.5h-299zM623 717q-37 -190 20.5 -351
t195.5 -255.5t325 -94.5t361.5 94.5t294.5 255.5t158 351q20 116 9 220.5t-57.5 192.5t-116 151.5t-167 99.5t-209.5 36q-140 0 -277 -55.5t-245 -149.5t-186 -223.5t-106 -271.5z" />
    <glyph glyph-name="afii10049" unicode="&#x42f;" horiz-adv-x="1187" 
d="M961 602h-352l-552 -602h-53l554 604q-186 17 -279 129t-59 285q37 188 192.5 302t371.5 114h383l-278 -1434h-45zM265 1018q-33 -169 68 -272t298 -103h338l145 750h-338q-197 0 -338 -103t-173 -272z" />
    <glyph glyph-name="afii10065" unicode="&#x430;" horiz-adv-x="1282" 
d="M87 530q22 113 82 215.5t143 176.5t186.5 118t209.5 44q158 0 265.5 -92t137.5 -243l60 312h46l-206 -1061h-45l60 312q-89 -151 -232 -243t-301 -92q-141 0 -245 74t-147 201t-14 278zM133 530q-27 -141 11.5 -259t133 -186.5t224.5 -68.5t250.5 68.5t204.5 186.5
t111 259t-11 259.5t-132 187.5t-224 69t-251 -69t-205.5 -187.5t-111.5 -259.5z" />
    <glyph glyph-name="afii10066" unicode="&#x431;" horiz-adv-x="1208" 
d="M111 539l17 90q43 222 110.5 374t178 259t267.5 162t379 71l-2 -41q-172 -14 -301 -51t-224.5 -97.5t-163.5 -154.5t-113.5 -211t-79.5 -278q99 124 236 200t290 76q137 0 238.5 -63.5t145 -174t17.5 -243.5q-26 -132 -113.5 -243t-216.5 -175t-269 -64q-149 0 -251 74.5
t-139 202.5t-6 287zM166 594l-10 -55q-29 -148 4.5 -267t126 -187.5t228.5 -68.5q193 0 352 128.5t194 312.5q36 185 -70.5 312.5t-294.5 127.5q-149 0 -284.5 -81.5t-245.5 -221.5z" />
    <glyph glyph-name="afii10067" unicode="&#x432;" horiz-adv-x="1029" 
d="M460 0h-393l205 1061h367q139 0 221 -77t60 -188q-17 -83 -85 -146.5t-160 -93.5q102 -24 157 -99t37 -171q-24 -121 -142 -203.5t-267 -82.5zM222 571h322q121 0 216 65t114 160q18 95 -52 159.5t-191 64.5h-322zM119 41h348q130 0 233 70.5t124 174.5
q20 103 -55.5 173.5t-206.5 70.5h-348z" />
    <glyph glyph-name="afii10068" unicode="&#x433;" horiz-adv-x="818" 
d="M862 1020h-553l-197 -1020h-45l205 1061h598z" />
    <glyph glyph-name="afii10069" unicode="&#x434;" horiz-adv-x="1091" 
d="M933 41l-50 -258h-45l43 217h-875l-43 -217h-45l50 258h111q237 356 366 1020h535l-199 -1020h152zM128 41h608l191 979h-445q-54 -278 -144 -536.5t-210 -442.5z" />
    <glyph glyph-name="afii10070" unicode="&#x435;" horiz-adv-x="1215" 
d="M131 524q-25 -136 14.5 -251.5t140.5 -186t244 -70.5q117 0 228 52t201 145l27 -31q-91 -95 -213 -151t-251 -56q-157 0 -267.5 76t-153.5 202.5t-14 276.5q29 149 121.5 276t230 203t287.5 76q145 0 249 -70t145.5 -189.5t13.5 -262.5q-3 -15 -12 -39h-991zM718 1044
q-195 0 -361 -141t-217 -338h949q33 208 -71.5 343.5t-299.5 135.5z" />
    <glyph glyph-name="afii10072" unicode="&#x436;" horiz-adv-x="1576" 
d="M208 1061h45q-42 -218 50.5 -334.5t294.5 -116.5h183l88 451h45l-88 -451h184q202 0 340.5 116.5t180.5 334.5h45q-39 -201 -158.5 -325t-295.5 -156l320 -580h-60l-315 572q-33 -3 -67 -3h-181l-110 -569h-45l110 569h-181q-34 0 -67 3l-536 -572h-60l544 580
q-165 32 -235 155.5t-31 325.5z" />
    <glyph glyph-name="afii10073" unicode="&#x437;" horiz-adv-x="961" 
d="M360 18q150 0 269 77.5t141 188.5q23 111 -66 188t-240 77h-152l7 41h158q130 0 232.5 65.5t121.5 161.5t-58 161.5t-207 65.5q-131 0 -231.5 -64t-134.5 -171h-46q39 128 157 202t263 74q150 0 237.5 -77t65.5 -191q-17 -84 -92 -150.5t-190 -96.5q106 -25 173.5 -101.5
t46.5 -184.5q-17 -85 -84 -156t-167.5 -112t-211.5 -41q-236 0 -351 182l41 28q52 -82 127.5 -124.5t190.5 -42.5z" />
    <glyph glyph-name="afii10074" unicode="&#x438;" horiz-adv-x="1218" 
d="M1153 1061l-206 -1061h-45l192 989l-982 -989h-45l205 1061h45l-192 -989l983 989h45z" />
    <glyph glyph-name="afii10075" unicode="&#x439;" horiz-adv-x="1218" 
d="M740 1202q-128 0 -191.5 85t-44.5 216h45q-16 -114 35 -187t164 -73t192.5 73t108.5 187h45q-31 -130 -128.5 -215.5t-225.5 -85.5zM1153 1061l-206 -1061h-45l192 989l-982 -989h-45l205 1061h45l-192 -989l983 989h45z" />
    <glyph glyph-name="afii10076" unicode="&#x43a;" horiz-adv-x="1020" 
d="M975 1061h45q-39 -201 -158.5 -325t-295.5 -156l320 -580h-60l-315 572q-33 -3 -67 -3h-222l-110 -569h-45l205 1061h45l-88 -451h225q202 0 340.5 116.5t180.5 334.5z" />
    <glyph glyph-name="afii10077" unicode="&#x43b;" horiz-adv-x="1242" 
d="M220 231l162 830h795l-206 -1061h-45l197 1020h-704l-154 -789q-22 -111 -93 -173t-161 -62q-28 0 -62 4l7 41q38 -4 62 -4q73 0 128.5 50t73.5 144z" />
    <glyph glyph-name="afii10078" unicode="&#x43c;" horiz-adv-x="1343" 
d="M317 1061l327 -670l589 670h45l-206 -1061h-45l191 981l-567 -645h-35l-314 645l-190 -981h-45l205 1061h45z" />
    <glyph glyph-name="afii10079" unicode="&#x43d;" horiz-adv-x="1218" 
d="M1153 1061l-206 -1061h-45l103 528h-791l-102 -528h-45l205 1061h45l-95 -492h791l95 492h45z" />
    <glyph glyph-name="afii10080" unicode="&#x43e;" horiz-adv-x="1259" 
d="M530 16q104 0 205.5 42t180.5 112.5t135 164.5t76 195q26 135 -15 253t-142 189.5t-240 71.5t-268 -71.5t-216.5 -189.5t-113.5 -253t15 -253t142.5 -189.5t240.5 -71.5zM738 1085q115 0 208 -45t148 -121t78.5 -177t-0.5 -212q-21 -110 -82 -211.5t-146.5 -177.5
t-196 -121t-225.5 -45t-208 45t-148 121t-79 177t0 212q22 110 83 211.5t146.5 177.5t196 121t225.5 45z" />
    <glyph glyph-name="afii10081" unicode="&#x43f;" horiz-adv-x="1218" 
d="M1153 1061l-206 -1061h-45l198 1020h-791l-197 -1020h-45l205 1061h881z" />
    <glyph glyph-name="afii10082" unicode="&#x440;" horiz-adv-x="1282" 
d="M1195 530q-29 -151 -122 -278t-225.5 -201t-273.5 -74q-158 0 -266 92t-136 243l-154 -787h-45l299 1536h45l-60 -312q87 151 231 243t302 92q141 0 244.5 -74t146.5 -201.5t14 -278.5zM1149 530q27 141 -11.5 259.5t-132.5 187.5t-224 69q-97 0 -192 -41t-170 -110
t-130 -164.5t-75 -200.5q-27 -141 11.5 -259t132.5 -186.5t224 -68.5q97 0 192 40.5t170 109.5t130 164t75 200z" />
    <glyph glyph-name="afii10083" unicode="&#x441;" horiz-adv-x="1104" 
d="M1013 275l30 -26q-96 -125 -233 -199.5t-288 -74.5q-115 0 -208 45t-148 121t-79 177t0 212q22 110 83 211.5t146.5 177.5t196 121t225.5 45q154 0 264 -77t155 -206h-52q-45 110 -143.5 176t-231.5 66q-139 0 -268 -71.5t-216.5 -189.5t-113.5 -253t15 -253
t142.5 -189.5t240.5 -71.5t267 70.5t216 188.5z" />
    <glyph glyph-name="afii10084" unicode="&#x442;" horiz-adv-x="942" 
d="M544 1020h-398l9 41h839l-8 -41h-397l-198 -1020h-45z" />
    <glyph glyph-name="afii10085" unicode="&#x443;" horiz-adv-x="1056" 
d="M103 -475l308 493l-258 1043h53l243 -981l609 981h53l-954 -1536h-54z" />
    <glyph glyph-name="afii10086" unicode="&#x444;" horiz-adv-x="2181" 
d="M87 530q22 113 82 215.5t143 176.5t186.5 118t209.5 44q158 0 265.5 -92t137.5 -243l144 746h45l-144 -746q87 151 231 243t302 92q141 0 244.5 -74t146.5 -201.5t14 -278.5t-121.5 -278t-225 -201t-273.5 -74q-158 0 -266.5 92t-136.5 243l-153 -787h-46l154 787
q-89 -151 -232 -243t-301 -92q-141 0 -245 74t-147 201t-14 278zM2048 530q27 141 -11.5 259.5t-132.5 187.5t-224 69q-97 0 -192 -41t-170 -110t-130 -164.5t-75 -200.5q-27 -141 11.5 -259t132.5 -186.5t224 -68.5q97 0 192 40.5t170 109.5t130 164t75 200zM133 530
q-27 -141 11.5 -259t133 -186.5t224.5 -68.5t250.5 68.5t204.5 186.5t111 259t-11 259.5t-132 187.5t-224 69t-251 -69t-205.5 -187.5t-111.5 -259.5z" />
    <glyph glyph-name="afii10087" unicode="&#x445;" horiz-adv-x="1036" 
d="M-53 0l546 547l-314 514h58l291 -478l479 478h57l-514 -514l335 -547h-58l-313 511l-510 -511h-57z" />
    <glyph glyph-name="afii10088" unicode="&#x446;" horiz-adv-x="1246" 
d="M979 -287l56 287h-968l205 1061h45l-198 -1020h790l199 1020h45l-199 -1020h133l-63 -328h-45z" />
    <glyph glyph-name="afii10089" unicode="&#x447;" horiz-adv-x="1089" 
d="M457 296q-93 0 -160.5 32t-102 89t-45 135t9.5 170l65 339h45l-65 -335q-18 -81 -10 -151.5t36.5 -123.5t88.5 -83.5t145 -30.5q163 0 293 121.5t162 287.5l61 315h45l-206 -1061h-45l109 560q-71 -119 -184 -191.5t-242 -72.5z" />
    <glyph glyph-name="afii10090" unicode="&#x448;" horiz-adv-x="1574" 
d="M1509 1061l-205 -1061h-1237l205 1061h45l-198 -1020h551l198 1020h45l-198 -1020h551l198 1020h45z" />
    <glyph glyph-name="afii10091" unicode="&#x449;" horiz-adv-x="1602" 
d="M67 0l205 1061h45l-198 -1020h551l198 1020h45l-198 -1020h551l198 1020h45l-198 -1020h133l-64 -328h-45l57 287h-1325z" />
    <glyph glyph-name="afii10092" unicode="&#x44a;" horiz-adv-x="1183" 
d="M645 0h-364l197 1020h-332l9 41h376l-72 -373h319q155 0 242.5 -99.5t59.5 -244.5q-29 -145 -154.5 -244.5t-280.5 -99.5zM333 41h319q136 0 247 88t136 215t-52 215t-213 88h-319z" />
    <glyph glyph-name="afii10093" unicode="&#x44b;" horiz-adv-x="1345" 
d="M431 0h-364l205 1061h45l-72 -373h319q155 0 242.5 -99.5t59.5 -244.5q-29 -145 -154.5 -244.5t-280.5 -99.5zM119 41h319q136 0 247 88t136 215t-52 215t-213 88h-319zM1029 0l206 1061h45l-206 -1061h-45z" />
    <glyph glyph-name="afii10094" unicode="&#x44c;" horiz-adv-x="969" 
d="M431 0h-364l205 1061h45l-72 -373h319q155 0 242.5 -99.5t59.5 -244.5q-29 -145 -154.5 -244.5t-280.5 -99.5zM119 41h319q136 0 247 88t136 215t-52 215t-213 88h-319z" />
    <glyph glyph-name="afii10095" unicode="&#x44d;" horiz-adv-x="1190" 
d="M39 249l41 26q42 -118 142.5 -188.5t239.5 -70.5q135 0 261.5 68.5t213.5 181.5t117 244h-630l8 41h630q20 132 -22.5 244.5t-142.5 180.5t-235 68q-133 0 -257 -66t-212 -176h-53q94 129 234.5 206t295.5 77q115 0 208 -45t148 -121t78.5 -177t-0.5 -212
q-21 -110 -82 -211.5t-146.5 -177.5t-196 -121t-225.5 -45q-151 0 -260 74.5t-155 199.5z" />
    <glyph glyph-name="afii10096" unicode="&#x44e;" horiz-adv-x="1603" 
d="M1082 1085q153 0 263.5 -76.5t155.5 -203.5t16 -275q-21 -110 -82 -211.5t-147 -177.5t-196.5 -121t-225.5 -45q-149 0 -258.5 73.5t-156.5 195.5t-24 266h-217l-98 -510h-45l205 1061h45l-99 -510h217q33 143 127.5 265t232.5 195.5t287 73.5zM874 16q104 0 205.5 42
t180.5 112.5t135 164.5t76 195q26 135 -15 253t-142 189.5t-240 71.5t-268 -71.5t-216.5 -189.5t-113.5 -253t15 -253t142.5 -189.5t240.5 -71.5z" />
    <glyph glyph-name="afii10097" unicode="&#x44f;" horiz-adv-x="1092" 
d="M854 406h-385q-20 0 -29 1l-401 -407h-55l407 413q-127 24 -194.5 112.5t-43.5 207.5q27 138 155.5 233t288.5 95h430l-206 -1061h-45zM477 446h385l112 574h-385q-141 0 -254.5 -83t-136.5 -204q-24 -121 57 -204t222 -83z" />
    <glyph glyph-name="uni0450" unicode="&#x450;" horiz-adv-x="1215" 
d="M131 524q-25 -136 14.5 -251.5t140.5 -186t244 -70.5q117 0 228 52t201 145l27 -31q-91 -95 -213 -151t-251 -56q-157 0 -267.5 76t-153.5 202.5t-14 276.5q29 149 121.5 276t230 203t287.5 76q145 0 249 -70t145.5 -189.5t13.5 -262.5q-3 -15 -12 -39h-991zM718 1044
q-195 0 -361 -141t-217 -338h949q33 208 -71.5 343.5t-299.5 135.5zM596 1567l224 -330l-39 -28l-225 330z" />
    <glyph glyph-name="afii10071" unicode="&#x451;" horiz-adv-x="1215" 
d="M131 524q-25 -136 14.5 -251.5t140.5 -186t244 -70.5q117 0 228 52t201 145l27 -31q-91 -95 -213 -151t-251 -56q-157 0 -267.5 76t-153.5 202.5t-14 276.5q29 149 121.5 276t230 203t287.5 76q145 0 249 -70t145.5 -189.5t13.5 -262.5q-3 -15 -12 -39h-991zM718 1044
q-195 0 -361 -141t-217 -338h949q33 208 -71.5 343.5t-299.5 135.5zM546 1372q5 25 24 41.5t44 16.5t38 -16.5t8 -41.5q-4 -25 -23.5 -41t-44.5 -16t-38 16t-8 41zM882 1372q5 25 24 41.5t44 16.5t38 -16.5t8 -41.5q-4 -25 -23.5 -41t-44.5 -16t-38 16t-8 41z" />
    <glyph glyph-name="afii10099" unicode="&#x452;" horiz-adv-x="1265" 
d="M811 1085q188 0 277.5 -119.5t53.5 -306.5l-152 -780q-33 -167 -132 -260.5t-253 -93.5q-42 0 -94 8l8 41q33 -8 94 -8q137 0 220 82.5t112 232.5l151 774q21 109 -4.5 196.5t-100.5 140t-188 52.5q-167 0 -318.5 -124t-183.5 -285l-123 -635h-45l242 1246h-185l9 41h184
l40 208h45l-40 -208h426l-8 -41h-426l-86 -443q76 123 208 202.5t269 79.5z" />
    <glyph glyph-name="afii10100" unicode="&#x453;" horiz-adv-x="818" 
d="M862 1020h-553l-197 -1020h-45l205 1061h598zM456 1237l353 330l30 -28l-355 -330z" />
    <glyph glyph-name="afii10101" unicode="&#x454;" horiz-adv-x="1190" 
d="M1013 275l30 -26q-96 -125 -233 -199.5t-288 -74.5q-115 0 -208 45t-148 121t-79 177t0 212q22 110 83 211.5t146.5 177.5t196 121t225.5 45q154 0 264 -77t155 -206h-52q-45 110 -143.5 176t-231.5 66q-102 0 -201 -40t-177 -107.5t-135 -157.5t-80 -188h630l-8 -41
h-630q-20 -132 23 -244.5t143 -181t235 -68.5q139 0 267 70.5t216 188.5z" />
    <glyph glyph-name="afii10102" unicode="&#x455;" horiz-adv-x="925" 
d="M13 152l34 36q45 -80 129.5 -126t196.5 -46q146 0 246.5 68.5t121.5 177.5q20 100 -56 171t-224 99q-160 30 -234.5 103t-54.5 174q22 115 135 195.5t261 80.5q57 0 105.5 -12.5t90.5 -39t68.5 -74.5t31.5 -113h-45q-10 101 -81.5 149.5t-177.5 48.5q-131 0 -227.5 -69
t-115.5 -166q-17 -82 53 -145t212 -91q166 -31 247 -111t57 -200q-25 -126 -138.5 -206.5t-282.5 -80.5q-236 0 -352 177z" />
    <glyph glyph-name="afii10103" unicode="&#x456;" horiz-adv-x="518" 
d="M134 0l206 1061h45l-206 -1061h-45zM372 1380q4 23 22 38.5t41 15.5t35 -15.5t8 -38.5t-22.5 -38t-41.5 -15t-35 15t-7 38z" />
    <glyph glyph-name="afii10104" unicode="&#x457;" horiz-adv-x="518" 
d="M134 0l206 1061h45l-206 -1061h-45zM198 1372q5 25 24 41.5t44 16.5t38 -16.5t8 -41.5q-4 -25 -23.5 -41t-44.5 -16t-38 16t-8 41zM534 1372q5 25 24 41.5t44 16.5t38 -16.5t8 -41.5q-4 -25 -23.5 -41t-44.5 -16t-38 16t-8 41z" />
    <glyph glyph-name="afii10105" unicode="&#x458;" horiz-adv-x="518" 
d="M89 -229l251 1290h45l-251 -1290q-22 -115 -97.5 -180.5t-168.5 -65.5q-37 0 -73 4l8 41q38 -4 73 -4q76 0 134.5 53.5t78.5 151.5zM372 1380q4 23 22 38.5t41 15.5t35 -15.5t8 -38.5t-22.5 -38t-41.5 -15t-35 15t-7 38z" />
    <glyph glyph-name="afii10106" unicode="&#x459;" horiz-adv-x="1767" 
d="M220 231l162 830h754l-73 -373h299q155 0 242.5 -99.5t59.5 -244.5q-29 -145 -154.5 -244.5t-280.5 -99.5h-344l197 1020h-663l-154 -789q-22 -111 -93 -173t-161 -62q-28 0 -62 4l7 41q38 -4 62 -4q73 0 128.5 50t73.5 144zM937 41h299q136 0 247 88t136 215t-52 215
t-213 88h-299z" />
    <glyph glyph-name="afii10107" unicode="&#x45a;" horiz-adv-x="1743" 
d="M1205 0h-344l103 528h-750l-102 -528h-45l205 1061h45l-95 -492h750l95 492h45l-73 -373h299q155 0 242.5 -99.5t59.5 -244.5q-29 -145 -154.5 -244.5t-280.5 -99.5zM913 41h299q136 0 247 88t136 215t-52 215t-213 88h-299z" />
    <glyph glyph-name="afii10108" unicode="&#x45b;" horiz-adv-x="1265" 
d="M468 1495l-40 -208h426l-8 -41h-426l-86 -443q76 123 208 202.5t269 79.5q188 0 277.5 -119.5t53.5 -306.5l-128 -659h-45l127 655q21 109 -4.5 196.5t-100.5 140t-188 52.5q-167 0 -318.5 -124t-183.5 -285l-123 -635h-45l242 1246h-185l9 41h184l40 208h45z" />
    <glyph glyph-name="afii10109" unicode="&#x45c;" horiz-adv-x="1020" 
d="M975 1061h45q-39 -201 -158.5 -325t-295.5 -156l320 -580h-60l-315 572q-33 -3 -67 -3h-222l-110 -569h-45l205 1061h45l-88 -451h225q202 0 340.5 116.5t180.5 334.5zM521 1237l353 330l30 -28l-354 -330z" />
    <glyph glyph-name="uni045D" unicode="&#x45d;" horiz-adv-x="1218" 
d="M1153 1061l-206 -1061h-45l192 989l-982 -989h-45l205 1061h45l-192 -989l983 989h45zM583 1567l224 -330l-39 -28l-225 330z" />
    <glyph glyph-name="afii10110" unicode="&#x45e;" horiz-adv-x="1056" 
d="M103 -475l308 493l-258 1043h53l243 -981l609 981h53l-954 -1536h-54zM659 1202q-128 0 -191.5 85t-44.5 216h45q-16 -114 35 -187t164 -73t192.5 73t108.5 187h45q-31 -130 -128.5 -215.5t-225.5 -85.5z" />
    <glyph glyph-name="afii10193" unicode="&#x45f;" horiz-adv-x="1218" 
d="M1153 1061l-206 -1061h-418l-56 -287h-45l56 287h-417l205 1061h45l-198 -1020h790l199 1020h45z" />
    <glyph glyph-name="afii10050" unicode="&#x490;" horiz-adv-x="1046" 
d="M94 0l279 1434h735l55 286h45l-63 -327h-735l-271 -1393h-45z" />
    <glyph glyph-name="afii10098" unicode="&#x491;" horiz-adv-x="818" 
d="M862 1020h-553l-197 -1020h-45l205 1061h553l56 287h45z" />
    <glyph glyph-name="Wgrave" unicode="&#x1e80;" horiz-adv-x="1900" 
d="M1155 1434l133 -1371l670 1371h49l-702 -1434h-58l-133 1370l-665 -1370h-58l-145 1434h49l137 -1371l666 1371h57zM1020 1898l224 -329l-39 -28l-225 330z" />
    <glyph glyph-name="wgrave" unicode="&#x1e81;" horiz-adv-x="1548" 
d="M855 1061h45l125 -977l524 977h54l-571 -1061h-45l-126 977l-505 -977h-45l-158 1061h53l143 -977zM759 1567l224 -330l-39 -28l-225 330z" />
    <glyph glyph-name="Wacute" unicode="&#x1e82;" horiz-adv-x="1900" 
d="M1155 1434l133 -1371l670 1371h49l-702 -1434h-58l-133 1370l-665 -1370h-58l-145 1434h49l137 -1371l666 1371h57zM1059 1569l353 329l30 -27l-355 -330z" />
    <glyph glyph-name="wacute" unicode="&#x1e83;" horiz-adv-x="1548" 
d="M855 1061h45l125 -977l524 977h54l-571 -1061h-45l-126 977l-505 -977h-45l-158 1061h53l143 -977zM839 1237l353 330l30 -28l-355 -330z" />
    <glyph glyph-name="Wdieresis" unicode="&#x1e84;" horiz-adv-x="1900" 
d="M1155 1434l133 -1371l670 1371h49l-702 -1434h-58l-133 1370l-665 -1370h-58l-145 1434h49l137 -1371l666 1371h57zM953 1704q4 25 24 41t45 16t38 -16t8 -41q-4 -25 -24 -41t-45 -16t-38 16t-8 41zM1289 1704q4 25 24 41t45 16t38 -16t8 -41q-4 -25 -24 -41t-45 -16
t-38 16t-8 41z" />
    <glyph glyph-name="wdieresis" unicode="&#x1e85;" horiz-adv-x="1548" 
d="M855 1061h45l125 -977l524 977h54l-571 -1061h-45l-126 977l-505 -977h-45l-158 1061h53l143 -977zM713 1372q5 25 24 41.5t44 16.5t38 -16.5t8 -41.5q-4 -25 -23.5 -41t-44.5 -16t-38 16t-8 41zM1049 1372q5 25 24 41.5t44 16.5t38 -16.5t8 -41.5q-4 -25 -23.5 -41
t-44.5 -16t-38 16t-8 41z" />
    <glyph glyph-name="Ygrave" unicode="&#x1ef2;" horiz-adv-x="1298" 
d="M303 1434l367 -799l678 799h57l-722 -846l-114 -588h-45l114 588l-392 846h57zM687 1898l224 -329l-39 -28l-225 330z" />
    <glyph glyph-name="ygrave" unicode="&#x1ef3;" horiz-adv-x="1056" 
d="M103 -475l308 493l-258 1043h53l243 -981l609 981h53l-954 -1536h-54zM502 1567l224 -330l-39 -28l-225 330z" />
    <glyph glyph-name="thinspace" unicode="&#x2009;" horiz-adv-x="409" 
 />
    <glyph glyph-name="uni2010" unicode="&#x2010;" horiz-adv-x="798" 
d="M708 659h-566l8 41h565z" />
    <glyph glyph-name="figuredash" unicode="&#x2012;" horiz-adv-x="1228" 
d="M1152 659h-1024l7 41h1024z" />
    <glyph glyph-name="endash" unicode="&#x2013;" horiz-adv-x="1024" 
d="M1050 659h-1024l7 41h1024z" />
    <glyph glyph-name="emdash" unicode="&#x2014;" horiz-adv-x="2048" 
d="M2074 659h-2048l7 41h2048z" />
    <glyph glyph-name="afii00208" unicode="&#x2015;" horiz-adv-x="2048" 
d="M1869 659h-1639l8 41h1638z" />
    <glyph glyph-name="uni2016" unicode="&#x2016;" horiz-adv-x="921" 
d="M110 -287l354 1823h45l-354 -1823h-45zM450 -287l354 1823h45l-354 -1823h-45z" />
    <glyph glyph-name="underscoredbl" unicode="&#x2017;" horiz-adv-x="1228" 
d="M-80 -410l8 41h1024l-8 -41h-1024zM-26 -131l8 41h1024l-8 -41h-1024z" />
    <glyph glyph-name="quoteleft" unicode="&#x2018;" horiz-adv-x="589" 
d="M493 1252q-5 -25 -24 -41.5t-44 -16.5q-26 0 -38.5 18t-6.5 52q13 67 51 127t127 137l27 -30q-69 -64 -88.5 -114t-3.5 -98q3 -19 0 -34z" />
    <glyph glyph-name="quoteright" unicode="&#x2019;" horiz-adv-x="589" 
d="M419 1461q5 25 24 42t43 17q26 0 38.5 -18t6.5 -52q-12 -66 -50 -126.5t-127 -137.5l-27 29q69 64 88.5 114t3.5 98q-3 19 0 34z" />
    <glyph glyph-name="quotesinglbase" unicode="&#x201a;" horiz-adv-x="589" 
d="M141 32q5 25 24 41.5t44 16.5q26 0 38.5 -18.5t5.5 -51.5q-13 -67 -50.5 -127t-126.5 -137l-27 30q69 64 88.5 114t3.5 98q-5 17 0 34z" />
    <glyph glyph-name="quotereversed" unicode="&#x201b;" horiz-adv-x="589" 
d="M535 1461q-3 -17 -15 -34q-34 -42 -34 -95t44 -117l-37 -29q-41 53 -61 99.5t-20.5 84.5t6.5 80q6 33 25.5 51.5t45.5 18.5q25 0 38 -17t8 -42z" />
    <glyph glyph-name="quotedblleft" unicode="&#x201c;" horiz-adv-x="831" 
d="M493 1252q-5 -25 -24 -41.5t-44 -16.5q-26 0 -38.5 18t-6.5 52q13 67 51 127t127 137l27 -30q-69 -64 -88.5 -114t-3.5 -98q3 -19 0 -34zM734 1252q-5 -25 -23.5 -41.5t-43.5 -16.5q-26 0 -38.5 18t-6.5 52q13 67 51 127t127 137l26 -30q-69 -64 -88.5 -114t-3.5 -98
q3 -19 0 -34z" />
    <glyph glyph-name="quotedblright" unicode="&#x201d;" horiz-adv-x="831" 
d="M419 1461q5 25 24 42t43 17q26 0 38.5 -18t6.5 -52q-12 -66 -50 -126.5t-127 -137.5l-27 29q69 64 88.5 114t3.5 98q-3 19 0 34zM660 1461q5 25 24 42t44 17q26 0 38.5 -18t6.5 -52q-12 -66 -50 -126.5t-127 -137.5l-28 29q69 64 88.5 114t3.5 98q-3 19 0 34z" />
    <glyph glyph-name="quotedblbase" unicode="&#x201e;" horiz-adv-x="831" 
d="M141 32q5 25 24 41.5t44 16.5q26 0 38.5 -18.5t5.5 -51.5q-13 -67 -50.5 -127t-126.5 -137l-27 30q69 64 88.5 114t3.5 98q-5 17 0 34zM383 32q5 25 24 41.5t44 16.5q26 0 38.5 -18.5t5.5 -51.5q-12 -67 -50 -127t-128 -137l-26 30q69 64 88.5 114t3.5 98q-5 17 0 34z
" />
    <glyph glyph-name="uni201F" unicode="&#x201f;" horiz-adv-x="831" 
d="M535 1461q-3 -17 -15 -34q-34 -42 -34 -95t44 -117l-37 -29q-41 53 -61 99.5t-20.5 84.5t6.5 80q6 33 25.5 51.5t45.5 18.5q25 0 38 -17t8 -42zM776 1461q-4 -19 -14 -34q-34 -42 -34 -95t44 -117l-38 -29q-41 53 -61 99.5t-20.5 84.5t6.5 80q6 33 26 51.5t46 18.5
q24 0 37 -17t8 -42z" />
    <glyph glyph-name="dagger" unicode="&#x2020;" horiz-adv-x="1146" 
d="M396 -268l262 1349h-383l9 41h383l78 410h46l-79 -410h383l-9 -41h-383l-262 -1349h-45z" />
    <glyph glyph-name="daggerdbl" unicode="&#x2021;" horiz-adv-x="1146" 
d="M483 182l175 899h-383l9 41h383l78 410h46l-79 -410h383l-9 -41h-383l-175 -899h383l-8 -41h-383l-79 -409h-45l79 409h-383l8 41h383z" />
    <glyph glyph-name="bullet" unicode="&#x2022;" horiz-adv-x="819" 
d="M201 680q0 88 60 147.5t149 59.5t148.5 -59.5t59.5 -147.5t-59.5 -147.5t-148.5 -59.5t-149 59.5t-60 147.5z" />
    <glyph glyph-name="onedotenleader" unicode="&#x2024;" horiz-adv-x="589" 
d="M141 33q4 25 24 41t45 16t38 -16t8 -41q-4 -25 -24 -41.5t-45 -16.5t-38 16.5t-8 41.5z" />
    <glyph glyph-name="twodotenleader" unicode="&#x2025;" horiz-adv-x="1179" 
d="M141 33q4 25 24 41t45 16t38 -16t8 -41q-4 -25 -24 -41.5t-45 -16.5t-38 16.5t-8 41.5zM731 33q4 25 24 41t45 16t38 -16t8 -41q-4 -25 -24 -41.5t-45 -16.5t-38 16.5t-8 41.5z" />
    <glyph glyph-name="ellipsis" unicode="&#x2026;" horiz-adv-x="1769" 
d="M141 33q4 25 24 41t45 16t38 -16t8 -41q-4 -25 -24 -41.5t-45 -16.5t-38 16.5t-8 41.5zM731 33q4 25 24 41t45 16t38 -16t8 -41q-4 -25 -24 -41.5t-45 -16.5t-38 16.5t-8 41.5zM1321 33q4 25 24 41t45 16t38 -16t8 -41q-4 -25 -24 -41.5t-45 -16.5t-38 16.5t-8 41.5z" />
    <glyph glyph-name="perthousand" unicode="&#x2030;" horiz-adv-x="2578" 
d="M223 1104q28 145 146 244.5t260 99.5t221 -100t51 -244q-28 -145 -145.5 -244.5t-259.5 -99.5t-221.5 100t-51.5 244zM268 1104q-25 -127 44 -215t192 -88t225 88t127 215t-43 215t-191 88t-226 -88t-128 -215zM949 330q28 145 146 244.5t260 99.5t221 -100t51 -244
q-28 -145 -145.5 -244.5t-259.5 -99.5t-221.5 99.5t-51.5 244.5zM994 330q-25 -127 44 -215t192 -88t225 88t127 215t-43 215t-191 88t-226 -88t-128 -215zM1750 330q28 145 146 244.5t260 99.5t221 -100t51 -244t-146 -244t-260 -100t-221 99.5t-51 244.5zM1795 330
q-25 -127 44 -215t192 -88t225 88t127 215t-43.5 215t-191.5 88t-225.5 -88t-127.5 -215zM396 10l1020 1435l33 -23l-1017 -1434z" />
    <glyph glyph-name="minute" unicode="&#x2032;" horiz-adv-x="550" 
d="M273 1063l265 381l33 -23l-267 -381z" />
    <glyph glyph-name="second" unicode="&#x2033;" horiz-adv-x="821" 
d="M273 1063l265 381l33 -23l-267 -381zM544 1063l264 381l34 -23l-268 -381z" />
    <glyph glyph-name="guilsinglleft" unicode="&#x2039;" horiz-adv-x="760" 
d="M130 627l5 24l576 339l15 -33l-547 -318l423 -318l-28 -33z" />
    <glyph glyph-name="guilsinglright" unicode="&#x203a;" horiz-adv-x="760" 
d="M673 651l-5 -24l-576 -339l-15 33l548 318l-424 318l27 33z" />
    <glyph glyph-name="exclamdbl" unicode="&#x203c;" horiz-adv-x="1001" 
d="M254 373l207 1061h45l-207 -1061h-45zM157 29q5 23 22.5 38t40.5 15t35 -15t8 -38q-5 -23 -22.5 -38.5t-40.5 -15.5t-35.5 15.5t-7.5 38.5zM641 373l207 1061h45l-207 -1061h-45zM544 29q5 23 22.5 38t40.5 15t35 -15t8 -38q-5 -23 -22.5 -38.5t-40.5 -15.5t-35.5 15.5
t-7.5 38.5z" />
    <glyph glyph-name="uni203E" unicode="&#x203e;" horiz-adv-x="825" 
d="M297 1302l7 40h533l-8 -40h-532z" />
    <glyph glyph-name="fraction" unicode="&#x2044;" horiz-adv-x="327" 
d="M-306 10l980 1434l34 -21l-977 -1433z" />
    <glyph glyph-name="zerosuperior" unicode="&#x2070;" 
d="M154 948q29 147 85.5 260t143 181.5t190.5 68.5q78 0 132.5 -39.5t79.5 -108t29 -161.5t-19 -201q-28 -146 -84.5 -259.5t-143.5 -182t-191 -68.5t-165 68.5t-71.5 182t14.5 259.5zM199 948q-21 -97 -19 -182.5t22 -149t66.5 -100.5t114.5 -37q90 0 166 64t125.5 168
t75.5 237q21 97 19 182.5t-22 149t-66.5 100.5t-114.5 37q-134 0 -230 -131.5t-137 -337.5z" />
    <glyph glyph-name="uni2071" unicode="&#x2071;" 
d="M357 463l135 686h45l-135 -686h-45zM520 1393q3 18 17 29.5t32 11.5t27 -11.5t6 -29.5q-4 -18 -17.5 -29.5t-31.5 -11.5t-27.5 11.5t-5.5 29.5z" />
    <glyph glyph-name="foursuperior" unicode="&#x2074;" 
d="M82 696l7 37l620 701h42l-137 -697h147l-7 -41h-147l-46 -233h-45l46 233h-480zM146 737h423l120 617z" />
    <glyph glyph-name="fivesuperior" unicode="&#x2075;" 
d="M346 438q-86 0 -151.5 40.5t-100.5 106.5l36 30q31 -63 89.5 -99.5t133.5 -36.5q118 0 211.5 74.5t116.5 189.5q22 114 -42 189.5t-182 75.5q-69 0 -132.5 -33t-104.5 -85l-31 5l166 539h468l-8 -41h-428l-132 -420q90 76 213 76q133 0 208 -87.5t50 -218.5
q-26 -131 -135.5 -218t-244.5 -87z" />
    <glyph glyph-name="sixsuperior" unicode="&#x2076;" 
d="M681 1434l-350 -418q74 40 164 40q134 0 209 -89t50 -219t-135 -220t-244 -90t-209 90t-50 220q18 88 77 159l436 527h52zM161 748q-22 -114 42 -191.5t179 -77.5q116 0 210.5 77.5t116.5 191.5q22 113 -42.5 190t-180.5 77q-115 0 -209 -77t-116 -190z" />
    <glyph glyph-name="sevensuperior" unicode="&#x2077;" 
d="M281 1434h579l-7 -35l-589 -936h-50l586 930h-528z" />
    <glyph glyph-name="eightsuperior" unicode="&#x2078;" 
d="M302 1215q-17 -86 36.5 -144t148.5 -58t170.5 58t92.5 144t-36 144t-148 58t-171 -58t-93 -144zM157 725q-20 -102 45 -174t181 -72t209 71.5t113 174.5t-45 175.5t-181 72.5q-115 0 -208.5 -72.5t-113.5 -175.5zM795 1215q-14 -72 -70 -133.5t-137 -87.5
q91 -32 135.5 -105.5t26.5 -163.5q-23 -120 -131.5 -203.5t-242.5 -83.5q-135 0 -211 83.5t-53 203.5q18 90 91 164t176 105q-72 25 -104 86.5t-18 134.5q20 103 111 173t205 70t178 -70t44 -173z" />
    <glyph glyph-name="ninesuperior" unicode="&#x2079;" 
d="M268 463l350 418q-74 -40 -163 -40q-134 0 -209 89t-50 219t134.5 219.5t243.5 89.5t209.5 -89.5t50.5 -219.5q-18 -90 -77 -160l-436 -526h-53zM788 1149q22 114 -42 191t-179 77q-116 0 -210 -77t-116 -191q-22 -113 42 -190t180 -77q115 0 209 77t116 190z" />
    <glyph glyph-name="uni207A" unicode="&#x207a;" 
d="M786 928h-292l-60 -303h-45l60 303h-293l7 41h293l59 303h45l-59 -303h293z" />
    <glyph glyph-name="uni207B" unicode="&#x207b;" 
d="M786 928h-630l7 41h631z" />
    <glyph glyph-name="uni207C" unicode="&#x207c;" 
d="M816 1081h-631l9 41h630zM756 774h-631l8 41h631z" />
    <glyph glyph-name="uni207D" unicode="&#x207d;" 
d="M414 948q33 165 122.5 315.5t217.5 270.5l28 -22q-123 -118 -207.5 -263t-115.5 -301q-28 -163 -1 -304.5t104 -259.5l-37 -22q-82 120 -111.5 265.5t0.5 320.5z" />
    <glyph glyph-name="uni207E" unicode="&#x207e;" 
d="M535 948q-32 -165 -121.5 -315.5t-217.5 -270.5l-29 22q123 118 207.5 263t114.5 301q29 163 2 304.5t-104 259.5l37 22q82 -120 112 -265.5t-1 -320.5z" />
    <glyph glyph-name="uni207F" unicode="&#x207f;" 
d="M528 1122q-94 0 -188 -75t-112 -166l-82 -418h-45l135 686h45l-32 -161q50 77 130 126t162 49q112 0 171 -76.5t37 -186.5l-85 -437h-46l85 434q18 95 -31.5 160t-143.5 65z" />
    <glyph glyph-name="zeroinferior" unicode="&#x2080;" 
d="M12 217q28 146 85 259.5t144 182t191 68.5q78 0 132.5 -39.5t79 -108t28.5 -161.5t-19 -201q-29 -147 -85.5 -260t-143.5 -181.5t-191 -68.5q-78 0 -132.5 39.5t-79 108t-28.5 161.5t19 201zM57 217q-23 -132 -16 -236.5t59 -168.5t142 -64t166 64t125 168t75 237
q23 132 16 236.5t-58.5 168.5t-141.5 64q-134 0 -230.5 -132t-136.5 -337z" />
    <glyph glyph-name="oneinferior" unicode="&#x2081;" 
d="M484 702h39l-188 -970h-45l178 920l-270 -138l-14 36z" />
    <glyph glyph-name="twoinferior" unicode="&#x2082;" 
d="M488 212l-474 -439h496l-7 -41h-559l7 37l506 468q133 121 156 244q17 85 -39.5 145t-158.5 60q-99 0 -181.5 -61.5t-115.5 -171.5h-43q37 128 135 201t213 73q120 0 187.5 -72t47.5 -174q-27 -136 -170 -269z" />
    <glyph glyph-name="threeinferior" unicode="&#x2083;" 
d="M539 8q22 109 -47 185t-186 76q-50 0 -98 -14l-15 27l419 380h-461l8 40h519l-7 -36l-397 -358q12 2 39 2q138 0 217 -88t54 -214q-25 -127 -136.5 -214t-250.5 -87q-93 0 -156.5 41.5t-95.5 112.5l36 33q27 -67 85 -106.5t139 -39.5q118 0 215 74.5t119 185.5z" />
    <glyph glyph-name="fourinferior" unicode="&#x2084;" 
d="M-60 -35l7 37l619 700h42l-135 -696h147l-9 -41h-146l-45 -233h-45l45 233h-480zM5 6h423l120 617z" />
    <glyph glyph-name="fiveinferior" unicode="&#x2085;" 
d="M204 -293q-86 0 -151.5 41t-99.5 106l36 30q30 -63 89 -99.5t134 -36.5q118 0 211.5 74.5t115.5 189.5q22 114 -42.5 189t-182.5 75q-69 0 -132 -32.5t-103 -84.5l-31 5l165 538h468l-8 -40h-428l-132 -420q88 75 213 75q133 0 208 -87t50 -218q-26 -131 -135.5 -218
t-244.5 -87z" />
    <glyph glyph-name="sixinferior" unicode="&#x2086;" 
d="M539 702l-350 -417q72 40 163 40q134 0 209.5 -89.5t50.5 -219.5t-135.5 -219.5t-244.5 -89.5t-208.5 89.5t-49.5 219.5q16 89 76 160l436 526h53zM19 16q-22 -114 42.5 -191t179.5 -77q116 0 210 77t116 191q22 113 -42.5 190.5t-180.5 77.5q-115 0 -209 -77.5
t-116 -190.5z" />
    <glyph glyph-name="seveninferior" unicode="&#x2087;" 
d="M138 702h580l-7 -34l-588 -936h-50l584 930h-527z" />
    <glyph glyph-name="eightinferior" unicode="&#x2088;" 
d="M160 484q-17 -86 36.5 -144t148.5 -58t170 58t92 144t-35.5 144t-147.5 58t-171 -58t-93 -144zM14 -6q-20 -102 46 -174t182 -72q115 0 207.5 71.5t112.5 174.5t-45 175.5t-180 72.5t-209 -72.5t-114 -175.5zM652 484q-13 -72 -69.5 -133.5t-137.5 -87.5
q91 -32 135.5 -105.5t26.5 -163.5q-23 -120 -131.5 -203.5t-242.5 -83.5q-135 0 -211 83.5t-53 203.5q18 90 91.5 164t176.5 105q-72 25 -104 86.5t-18 134.5q20 103 111.5 173t205.5 70t177 -70t43 -173z" />
    <glyph glyph-name="nineinferior" unicode="&#x2089;" 
d="M127 -268l349 418q-74 -40 -164 -40q-134 0 -209 89t-50 219t135.5 219.5t244.5 89.5t208.5 -89.5t49.5 -219.5q-18 -90 -77 -160l-435 -526h-52zM646 418q22 114 -42 191t-179 77q-116 0 -210.5 -77t-116.5 -191q-22 -113 42.5 -190t180.5 -77q115 0 209 77t116 190z
" />
    <glyph glyph-name="uni208A" unicode="&#x208a;" 
d="M644 197h-293l-59 -303h-45l59 303h-293l9 41h292l59 303h45l-59 -303h293z" />
    <glyph glyph-name="uni208B" unicode="&#x208b;" 
d="M644 197h-631l9 41h630z" />
    <glyph glyph-name="uni208C" unicode="&#x208c;" 
d="M674 350h-631l8 41h631zM614 43h-630l7 41h631z" />
    <glyph glyph-name="uni208D" unicode="&#x208d;" 
d="M272 217q32 165 121.5 315.5t217.5 270.5l29 -22q-123 -119 -208 -264t-115 -300q-29 -164 -1 -304.5t105 -259.5l-37 -22q-82 120 -113 270.5t1 315.5z" />
    <glyph glyph-name="uni208E" unicode="&#x208e;" 
d="M393 217q-32 -165 -121.5 -315.5t-217.5 -270.5l-28 22q123 118 207 263t115 301q28 163 1 304.5t-104 259.5l37 22q82 -120 111.5 -265.5t-0.5 -320.5z" />
    <glyph glyph-name="uni2090" unicode="&#x2090;" 
d="M-41 66q30 151 142 254.5t253 103.5q96 0 159 -50.5t85 -136.5l34 173h45l-133 -689h-45l32 174q-56 -87 -138 -137.5t-178 -50.5q-142 0 -214 104t-42 255zM4 66q-26 -134 35 -226t184 -92t219.5 92t122.5 226t-35 225.5t-184 91.5t-219.5 -91.5t-122.5 -225.5z" />
    <glyph glyph-name="uni2091" unicode="&#x2091;" 
d="M629 53h-613q-22 -128 45 -216.5t195 -88.5q146 0 267 127l25 -30q-59 -63 -138 -100.5t-162 -37.5q-151 0 -227.5 104t-47.5 255q29 149 145.5 253.5t261.5 104.5q140 0 212.5 -98t45.5 -240q-4 -18 -9 -33zM372 383q-116 0 -214.5 -84.5t-132.5 -204.5h568
q18 127 -44 208t-177 81z" />
    <glyph glyph-name="uni2092" unicode="&#x2092;" 
d="M4 66q-26 -132 43.5 -225t194.5 -93t229.5 93t130.5 225t-43 224.5t-194 92.5t-230 -92.5t-131 -224.5zM-41 66q29 149 150 253.5t264 104.5t223 -104.5t51 -253.5t-150 -254t-264 -105t-223 105t-51 254z" />
    <glyph glyph-name="uni2093" unicode="&#x2093;" 
d="M-70 -279l348 355l-198 334h55l176 -299l293 299h55l-326 -334l210 -355h-56l-189 320l-313 -320h-55z" />
    <glyph glyph-name="uni2094" unicode="&#x2094;" 
d="M-32 45q4 18 9 33h613q21 128 -45.5 216.5t-194.5 88.5q-146 0 -267 -127l-25 30q59 63 138 100.5t162 37.5q151 0 227.5 -103.5t47.5 -254.5q-29 -149 -145.5 -254t-261.5 -105q-140 0 -213 98t-45 240zM234 -252q116 0 214.5 84.5t131.5 204.5h-569q-18 -127 44.5 -208
t178.5 -81z" />
    <glyph glyph-name="uni20A0" unicode="&#x20a0;" horiz-adv-x="1548" 
d="M142 945q27 141 117.5 259t221.5 186t271 68q57 0 112 -13.5t107 -41.5t90 -79t52 -118h-49q-13 56 -47 98.5t-80 66t-94.5 35t-98.5 11.5q-195 0 -357 -137.5t-200 -334.5q-25 -130 15.5 -238.5t135 -171t222.5 -62.5q149 0 285 84l85 436h575l-8 -41h-530l-84 -432h497
l-8 -41h-498l-84 -438h542l-7 -41h-588l99 507q-138 -75 -283 -75q-105 0 -192 40t-141.5 108.5t-76 164t-1.5 200.5z" />
    <glyph glyph-name="colonmonetary" unicode="&#x20a1;" horiz-adv-x="1575" 
d="M538 -209l70 191q-100 14 -182 53l-90 -244h-47l97 264q-160 93 -231 269t-29 393q56 289 277 496.5t502 239.5l71 189h47l-69 -185q6 0 18.5 0.5t19.5 0.5q81 0 158 -17l75 201h47l-79 -214q153 -47 253.5 -163t129.5 -277h-49q-30 143 -121.5 248t-227.5 150
l-509 -1369q14 -1 44 -1q190 0 366.5 98t296.5 263l33 -27q-127 -172 -314 -273.5t-390 -101.5q-20 0 -52 2l-68 -186h-47zM171 717q-39 -196 24.5 -361.5t207.5 -255.5l487 1310q-258 -35 -463 -232t-256 -461zM441 79q82 -42 183 -56l511 1376q-71 18 -150 18
q-18 0 -46 -2z" />
    <glyph glyph-name="uni20A2" unicode="&#x20a2;" horiz-adv-x="1575" 
d="M1257 863l-14 -41q-44 7 -77 7q-107 0 -195 -58.5t-140 -149t-74 -201.5l-78 -403q11 -1 34 -1q190 0 366.5 98t296.5 263l33 -27q-127 -172 -314 -273.5t-390 -101.5q-150 0 -273.5 57t-199 157t-107.5 235.5t1 292.5q40 206 168 376t313 267.5t385 97.5
q231 0 388.5 -129t195.5 -341h-49q-40 192 -185.5 310.5t-356.5 118.5q-140 0 -277 -55.5t-245 -149.5t-186 -223.5t-106 -271.5q-35 -176 13.5 -329t166.5 -250.5t283 -117.5l161 826h45l-42 -216q62 110 158.5 175t218.5 65q46 0 82 -7z" />
    <glyph glyph-name="franc" unicode="&#x20a3;" horiz-adv-x="1116" 
d="M195 0l101 526h-227l8 41h227l35 176h-227l7 41h227l127 650h750l-9 -41h-704l-119 -609h424l-7 -41h-424l-35 -176h424l-8 -41h-424l-101 -526h-45z" />
    <glyph glyph-name="lira" unicode="&#x20a4;" horiz-adv-x="1140" 
d="M1121 1141h-43q5 113 -78.5 194.5t-214.5 81.5q-152 0 -279 -107.5t-157 -262.5q-22 -114 17 -273h462l-7 -41h-443q22 -94 26 -176h382l-8 -41h-374q0 -52 -6 -84q-22 -110 -94.5 -213.5t-170.5 -177.5h799l-7 -41h-865l8 39q111 79 187 183t98 210q7 40 6 84h-277l8 41
h269q-6 88 -29 176h-205l7 41h185q-35 156 -13 273q34 172 176.5 291.5t312.5 119.5q145 0 241.5 -91t86.5 -226z" />
    <glyph glyph-name="uni20A6" unicode="&#x20a6;" horiz-adv-x="1458" 
d="M1400 588h-154l-113 -588h-41l-289 588h-523l-114 -588h-45l113 588h-153l8 41h154l33 176h-153l8 41h154l114 588h41l288 -588h523l115 588h45l-115 -588h154l-8 -41h-154l-34 -176h154zM428 1352l-98 -506h346zM854 588l249 -506l98 506h-347zM748 805l87 -176h374
l34 176h-495zM322 805l-34 -176h494l-86 176h-374z" />
    <glyph glyph-name="peseta" unicode="&#x20a7;" horiz-adv-x="1148" 
d="M1241 998h-88q-42 -181 -195 -288.5t-364 -107.5h-338l-117 -602h-45l194 998h-92l8 41h92l77 395h383q210 0 321 -107.5t84 -287.5h88zM602 643q191 0 329.5 97t176.5 258h-775l-69 -355h338zM410 1393l-69 -354h775q23 160 -77.5 257t-290.5 97h-338z" />
    <glyph glyph-name="uni20A9" unicode="&#x20a9;" horiz-adv-x="1966" 
d="M1188 1434l56 -584h461l286 584h49l-287 -584h235l-9 -41h-246l-85 -176h298l-9 -41h-310l-290 -592h-57l-58 592h-454l-287 -592h-57l-60 592h-311l8 41h298l-18 176h-246l8 41h234l-58 584h49l57 -584h461l284 584h58zM412 592l53 -529l256 529h-309zM1269 592l52 -529
l258 529h-310zM1147 1370l-253 -520h303zM1248 809l18 -176h333l85 176h-436zM389 809l19 -176h333l85 176h-437zM873 809l-85 -176h430l-18 176h-327z" />
    <glyph glyph-name="afii57636" unicode="&#x20aa;" horiz-adv-x="1732" 
d="M94 0l279 1434h438q133 0 230.5 -67.5t138 -185t13.5 -257.5l-76 -387h-45l76 387q38 197 -61.5 333t-283.5 136h-393l-271 -1393h-45zM1712 1434l-278 -1434h-439q-133 0 -230.5 67.5t-138.5 185t-14 257.5l76 387h45l-76 -387q-25 -129 11.5 -237t124.5 -170t209 -62
h394l271 1393h45z" />
    <glyph glyph-name="dong" unicode="&#x20ab;" horiz-adv-x="1348" 
d="M781 1246l9 41h425l40 208h45l-39 -208h184l-8 -41h-185l-241 -1246h-45l60 312q-89 -151 -232 -243t-301 -92q-141 0 -245 74t-147 201t-14 278q22 113 82 215.5t143 176.5t186.5 118t209.5 44q158 0 265.5 -92t137.5 -243l96 497h-426zM133 530q-27 -141 11.5 -259
t133 -186.5t224.5 -68.5t250.5 68.5t204.5 186.5t111 259t-11 259.5t-132 187.5t-224 69t-251 -69t-205.5 -187.5t-111.5 -259.5zM176 -279l7 41h738l-8 -41h-737z" />
    <glyph glyph-name="Euro" unicode="&#x20ac;" horiz-adv-x="1671" 
d="M1671 988h-49q-40 192 -185.5 310.5t-356.5 118.5q-245 0 -460 -156.5t-310 -394.5h718l-29 -41h-704q-20 -59 -29 -108q-10 -51 -13 -109h653l-28 -41h-626q2 -156 71 -281.5t196 -197.5t289 -72q190 0 366.5 98t296.5 263l33 -27q-127 -172 -314 -273.5t-390 -101.5
q-175 0 -311 76t-210 211t-74 305h-157l8 41h151q3 50 14 109q11 56 28 108h-151l8 41h157q100 259 329.5 425.5t494.5 166.5q231 0 388.5 -129t195.5 -341z" />
    <glyph glyph-name="ruble" unicode="&#x20bd;" horiz-adv-x="1148" 
d="M73 602l8 41h138l154 791h383q216 0 327.5 -114t74.5 -302t-192.5 -302t-371.5 -114h-338l-38 -194h472l-8 -41h-472l-71 -367h-45l71 367h-138l8 41h138l38 194h-138zM1113 1018q32 169 -68 272t-297 103h-338l-146 -750h338q197 0 337.5 103t173.5 272z" />
    <glyph glyph-name="afii61248" unicode="&#x2105;" horiz-adv-x="2060" 
d="M519 0l979 1434h49l-977 -1434h-51zM1106 409q35 182 184.5 308t330.5 126t281.5 -126t65.5 -308t-184.5 -308.5t-330.5 -126.5t-281.5 126.5t-65.5 308.5zM1151 409q-32 -165 57.5 -279.5t251.5 -114.5t296.5 114.5t166.5 279.5t-57.5 279t-251.5 114t-296.5 -114
t-166.5 -279zM864 793l29 -29q-76 -81 -176 -127.5t-206 -46.5q-181 0 -281 126t-65 308t184.5 308t330.5 126q126 0 216 -64.5t123 -171.5h-49q-32 90 -111 142.5t-186 52.5q-162 0 -296.5 -114t-166.5 -279t57.5 -279t251.5 -114q96 0 186.5 43.5t158.5 118.5z" />
    <glyph glyph-name="uni2109" unicode="&#x2109;" horiz-adv-x="1570" 
d="M178 1182q22 111 114.5 188.5t203.5 77.5t174 -77.5t41 -188.5t-115 -189t-204 -78t-173.5 78t-40.5 189zM223 1182q-19 -94 33 -160t144 -66t169.5 66t96.5 160t-33.5 159.5t-144.5 65.5t-169 -65.5t-96 -159.5zM629 0l278 1434h750l-8 -41h-705l-126 -650h645l-8 -41
h-645l-136 -702h-45z" />
    <glyph glyph-name="afii61289" unicode="&#x2113;" horiz-adv-x="1114" 
d="M558 -25q-146 0 -225.5 104.5t-50.5 256.5l19 96q-112 -45 -228 -88l-8 41q160 61 245 96l120 617q29 152 149.5 256t266.5 104t225.5 -104t50.5 -256l-7 -37q-18 -94 -74.5 -175t-156.5 -155t-227.5 -139.5t-307.5 -139.5l-22 -116q-26 -134 44 -227t195 -93
q103 0 193.5 61t158.5 180l36 -23q-75 -127 -176 -193t-220 -66zM1070 1061l7 37q26 134 -43.5 226.5t-194.5 92.5t-231.5 -92.5t-132.5 -226.5l-116 -596q340 141 509.5 268t201.5 291z" />
    <glyph glyph-name="afii61352" unicode="&#x2116;" horiz-adv-x="2208" 
d="M94 0l279 1434h45l553 -1350l263 1350h45l-279 -1434h-45l-554 1350l-262 -1350h-45zM1947 2h-758l8 41h758zM1342 666q-29 -148 53.5 -249.5t232.5 -101.5t272 101.5t151 249.5t-54 249t-233 101t-271.5 -101t-150.5 -249zM1297 666q31 164 169.5 277.5t306.5 113.5
t261.5 -113.5t61.5 -277.5q-21 -108 -91 -198t-172 -142t-212 -52q-168 0 -262 114t-62 278z" />
    <glyph glyph-name="uni2117" unicode="&#x2117;" horiz-adv-x="1624" 
d="M848 646h-175v-313h-45v766h220q117 0 189.5 -62.5t72.5 -164.5t-72 -164t-190 -62zM1066 872q0 83 -60 134.5t-158 51.5h-175v-371h175q98 0 158 50.5t60 134.5zM71 717q0 153 58 290t157 236t236 157t290 58t290 -58t236 -157t157 -236t58 -290t-58 -290.5t-157 -236.5
t-236 -157t-290 -58t-290 58t-236 157t-157 236.5t-58 290.5zM116 717q0 -192 92.5 -353t252.5 -254.5t351 -93.5t351 93.5t252.5 254.5t92.5 353q0 143 -54.5 273t-147.5 223.5t-222 148.5t-272 55t-272 -55t-222 -148.5t-147.5 -223.5t-54.5 -273z" />
    <glyph glyph-name="uni2120" unicode="&#x2120;" horiz-adv-x="1553" 
d="M134 792l38 34q30 -54 83.5 -87.5t116.5 -33.5q91 0 160 45.5t83 114.5q12 65 -34.5 111t-141.5 70q-107 27 -159.5 79t-38.5 126q17 84 91 139.5t175 55.5q85 0 146.5 -48.5t62.5 -135.5h-45q-4 67 -54 105t-115 38q-83 0 -142.5 -44t-71.5 -107q-12 -60 34.5 -102
t136.5 -65q111 -28 164.5 -84.5t38.5 -135.5q-17 -87 -101 -145t-194 -58q-76 0 -138.5 36t-94.5 92zM1127 768h-20l-184 562l-127 -654h-46l147 758h40l193 -598l428 598h39l-147 -758h-46l127 654z" />
    <glyph glyph-name="uni2121" unicode="&#x2121;" horiz-adv-x="2131" 
d="M860 524q-26 -136 2 -251.5t107 -186t196 -70.5q94 0 187.5 53t171.5 148l24 -35q-78 -95 -181 -151t-210 -56q-129 0 -218 76t-120.5 202.5t-2.5 276.5q29 149 109.5 276t197 203t240.5 76q120 0 203.5 -70t114 -189t2.5 -263q-4 -21 -10 -39h-813zM1355 1044
q-158 0 -298 -141t-188 -338h769q34 208 -45.5 343.5t-237.5 135.5zM410 0l270 1393h-442l8 41h930l-9 -41h-442l-270 -1393h-45zM1788 0l290 1495h45l-290 -1495h-45z" />
    <glyph glyph-name="trademark" unicode="&#x2122;" horiz-adv-x="1529" 
d="M331 676l139 717h-236l9 41h516l-8 -41h-236l-139 -717h-45zM1110 768h-20l-185 562l-127 -654h-46l148 758h40l193 -598l427 598h40l-147 -758h-47l127 654z" />
    <glyph glyph-name="Omega" unicode="&#x2126;" horiz-adv-x="1576" 
d="M1474 743q36 185 -19.5 340t-186 244.5t-306.5 89.5t-341.5 -89.5t-281.5 -244.5t-152 -340q-13 -78 -14.5 -151.5t22 -147.5t68 -142t123.5 -135t188 -126l-7 -41h-553l8 41h471q-95 52 -166 115.5t-113 131.5t-64.5 144t-22 153t14.5 158q38 196 161 360t300 259.5
t366 95.5t329 -95.5t199.5 -259.5t21.5 -360q-42 -214 -193.5 -395t-431.5 -307h471l-7 -41h-553l7 41q164 73 285.5 157.5t197 175t117.5 179.5t62 190z" />
    <glyph glyph-name="estimated" unicode="&#x212e;" horiz-adv-x="1646" 
d="M432 696l-104 -537q157 -143 396 -143q171 0 335 77t290 216l30 -25q-133 -147 -307.5 -228t-355.5 -81q-153 0 -279 58t-205.5 157t-111 236.5t-1.5 290.5q29 153 114 290t203 236t266.5 157t301.5 58t279 -58t206 -157t111 -236t2 -290l-5 -21h-1165zM996 1417
q-241 0 -451 -142l-106 -538h848l106 538q-157 142 -397 142z" />
    <glyph glyph-name="onethird" unicode="&#x2153;" horiz-adv-x="1898" 
d="M627 1434h39l-190 -971h-45l179 920l-270 -138l-13 36zM1703 276q22 109 -47.5 185.5t-185.5 76.5q-46 0 -98 -15l-15 27l420 380h-462l8 41h519l-7 -37l-396 -357q12 2 39 2q138 0 216.5 -88.5t53.5 -214.5q-25 -127 -136.5 -214t-250.5 -87q-93 0 -156.5 41.5
t-95.5 112.5l36 33q27 -67 85 -106.5t139 -39.5q118 0 215 74.5t119 185.5zM478 10l981 1434l34 -21l-978 -1433z" />
    <glyph glyph-name="twothirds" unicode="&#x2154;" horiz-adv-x="1898" 
d="M631 943l-474 -439h495l-8 -41h-559l7 37l507 468q134 124 157 244q17 85 -40 145t-159 60q-99 0 -181.5 -61.5t-115.5 -171.5h-43q37 128 134.5 201t212.5 73q120 0 188.5 -72t48.5 -174q-26 -134 -170 -269zM478 10l981 1434l34 -21l-978 -1433zM1703 276
q22 109 -47.5 185.5t-185.5 76.5q-46 0 -98 -15l-15 27l420 380h-462l8 41h519l-7 -37l-396 -357q12 2 39 2q138 0 216.5 -88.5t53.5 -214.5q-25 -127 -136.5 -214t-250.5 -87q-93 0 -156.5 41.5t-95.5 112.5l36 33q27 -67 85 -106.5t139 -39.5q118 0 215 74.5t119 185.5z
" />
    <glyph glyph-name="onefifth" unicode="&#x2155;" horiz-adv-x="1898" 
d="M627 1434h39l-190 -971h-45l179 920l-270 -138l-13 36zM478 10l981 1434l34 -21l-978 -1433zM1367 -27q-86 0 -151.5 41t-99.5 106l36 31q30 -63 89 -100t134 -37q118 0 211.5 75t115.5 190q22 114 -41.5 189t-181.5 75q-69 0 -132.5 -33t-104.5 -85l-31 5l165 539h468
l-7 -41h-428l-132 -420q88 76 212 76q133 0 208.5 -87t49.5 -218q-25 -131 -135 -218.5t-245 -87.5z" />
    <glyph glyph-name="twofifths" unicode="&#x2156;" horiz-adv-x="1898" 
d="M631 943l-474 -439h495l-8 -41h-559l7 37l507 468q134 124 157 244q17 85 -40 145t-159 60q-99 0 -181.5 -61.5t-115.5 -171.5h-43q37 128 134.5 201t212.5 73q120 0 188.5 -72t48.5 -174q-26 -134 -170 -269zM478 10l981 1434l34 -21l-978 -1433zM1367 -27
q-86 0 -151.5 41t-99.5 106l36 31q30 -63 89 -100t134 -37q118 0 211.5 75t115.5 190q22 114 -41.5 189t-181.5 75q-69 0 -132.5 -33t-104.5 -85l-31 5l165 539h468l-7 -41h-428l-132 -420q88 76 212 76q133 0 208.5 -87t49.5 -218q-25 -131 -135 -218.5t-245 -87.5z" />
    <glyph glyph-name="threefifths" unicode="&#x2157;" horiz-adv-x="1898" 
d="M681 739q22 109 -47.5 185t-186.5 76q-50 0 -97 -14l-15 27l420 380h-462l8 41h519l-7 -37l-396 -358q12 2 39 2q138 0 216.5 -88t53.5 -214q-25 -127 -136.5 -214t-250.5 -87q-93 0 -156.5 41.5t-95.5 112.5l36 33q27 -67 84.5 -106.5t138.5 -39.5q118 0 215.5 74.5
t119.5 185.5zM1367 -27q-86 0 -151.5 41t-99.5 106l36 31q30 -63 89 -100t134 -37q118 0 211.5 75t115.5 190q22 114 -41.5 189t-181.5 75q-69 0 -132.5 -33t-104.5 -85l-31 5l165 539h468l-7 -41h-428l-132 -420q88 76 212 76q133 0 208.5 -87t49.5 -218
q-25 -131 -135 -218.5t-245 -87.5zM478 10l981 1434l34 -21l-978 -1433z" />
    <glyph glyph-name="fourfifths" unicode="&#x2158;" horiz-adv-x="1898" 
d="M82 696l7 37l620 701h42l-137 -697h147l-7 -41h-147l-46 -233h-45l46 233h-480zM146 737h423l120 617zM478 10l981 1434l34 -21l-978 -1433zM1367 -27q-86 0 -151.5 41t-99.5 106l36 31q30 -63 89 -100t134 -37q118 0 211.5 75t115.5 190q22 114 -41.5 189t-181.5 75
q-69 0 -132.5 -33t-104.5 -85l-31 5l165 539h468l-7 -41h-428l-132 -420q88 76 212 76q133 0 208.5 -87t49.5 -218q-25 -131 -135 -218.5t-245 -87.5z" />
    <glyph glyph-name="onesixth" unicode="&#x2159;" horiz-adv-x="1898" 
d="M1703 971l-350 -418q74 40 164 40q134 0 209.5 -89t50.5 -219q-26 -130 -136 -220t-244 -90t-209 90t-49 220q16 89 75 159l437 527h52zM1184 285q-22 -114 42 -191.5t179 -77.5q116 0 210.5 77.5t116.5 191.5q22 113 -43 190t-181 77q-115 0 -208.5 -77t-115.5 -190z
M627 1434h39l-190 -971h-45l179 920l-270 -138l-13 36zM478 10l981 1434l34 -21l-978 -1433z" />
    <glyph glyph-name="fivesixths" unicode="&#x215a;" horiz-adv-x="1898" 
d="M346 438q-86 0 -151.5 40.5t-100.5 106.5l36 30q31 -63 89.5 -99.5t133.5 -36.5q118 0 211.5 74.5t116.5 189.5q22 114 -42 189.5t-182 75.5q-69 0 -132.5 -33t-104.5 -85l-31 5l166 539h468l-8 -41h-428l-132 -420q90 76 213 76q133 0 208 -87.5t50 -218.5
q-26 -131 -135.5 -218t-244.5 -87zM478 10l981 1434l34 -21l-978 -1433zM1703 971l-350 -418q74 40 164 40q134 0 209.5 -89t50.5 -219q-26 -130 -136 -220t-244 -90t-209 90t-49 220q16 89 75 159l437 527h52zM1184 285q-22 -114 42 -191.5t179 -77.5q116 0 210.5 77.5
t116.5 191.5q22 113 -43 190t-181 77q-115 0 -208.5 -77t-115.5 -190z" />
    <glyph glyph-name="oneeighth" unicode="&#x215b;" horiz-adv-x="1898" 
d="M1324 751q-17 -86 36 -144.5t148 -58.5t171 58.5t93 144.5q17 85 -36.5 143t-148.5 58t-170.5 -57.5t-92.5 -143.5zM1179 260q-20 -102 45 -174t181 -72q115 0 208 71.5t113 174.5t-45 175.5t-180 72.5t-208.5 -72.5t-113.5 -175.5zM1817 751q-14 -72 -70 -134t-137 -88
q91 -32 135.5 -105.5t26.5 -163.5q-23 -120 -132 -203.5t-243 -83.5t-210 83.5t-53 203.5q18 90 91 164t176 105q-72 25 -104 86.5t-18 135.5q20 103 111 172.5t205 69.5t178 -69.5t44 -172.5zM627 1434h39l-190 -971h-45l179 920l-270 -138l-13 36zM478 10l981 1434l34 -21
l-978 -1433z" />
    <glyph glyph-name="threeeighths" unicode="&#x215c;" horiz-adv-x="1898" 
d="M681 739q22 109 -47.5 185t-186.5 76q-50 0 -97 -14l-15 27l420 380h-462l8 41h519l-7 -37l-396 -358q12 2 39 2q138 0 216.5 -88t53.5 -214q-25 -127 -136.5 -214t-250.5 -87q-93 0 -156.5 41.5t-95.5 112.5l36 33q27 -67 84.5 -106.5t138.5 -39.5q118 0 215.5 74.5
t119.5 185.5zM478 10l981 1434l34 -21l-978 -1433zM1324 751q-17 -86 36 -144.5t148 -58.5t171 58.5t93 144.5q17 85 -36.5 143t-148.5 58t-170.5 -57.5t-92.5 -143.5zM1179 260q-20 -102 45 -174t181 -72q115 0 208 71.5t113 174.5t-45 175.5t-180 72.5t-208.5 -72.5
t-113.5 -175.5zM1817 751q-14 -72 -70 -134t-137 -88q91 -32 135.5 -105.5t26.5 -163.5q-23 -120 -132 -203.5t-243 -83.5t-210 83.5t-53 203.5q18 90 91 164t176 105q-72 25 -104 86.5t-18 135.5q20 103 111 172.5t205 69.5t178 -69.5t44 -172.5z" />
    <glyph glyph-name="fiveeighths" unicode="&#x215d;" horiz-adv-x="1898" 
d="M346 438q-86 0 -151.5 40.5t-100.5 106.5l36 30q31 -63 89.5 -99.5t133.5 -36.5q118 0 211.5 74.5t116.5 189.5q22 114 -42 189.5t-182 75.5q-69 0 -132.5 -33t-104.5 -85l-31 5l166 539h468l-8 -41h-428l-132 -420q90 76 213 76q133 0 208 -87.5t50 -218.5
q-26 -131 -135.5 -218t-244.5 -87zM478 10l981 1434l34 -21l-978 -1433zM1324 751q-17 -86 36 -144.5t148 -58.5t171 58.5t93 144.5q17 85 -36.5 143t-148.5 58t-170.5 -57.5t-92.5 -143.5zM1179 260q-20 -102 45 -174t181 -72q115 0 208 71.5t113 174.5t-45 175.5
t-180 72.5t-208.5 -72.5t-113.5 -175.5zM1817 751q-14 -72 -70 -134t-137 -88q91 -32 135.5 -105.5t26.5 -163.5q-23 -120 -132 -203.5t-243 -83.5t-210 83.5t-53 203.5q18 90 91 164t176 105q-72 25 -104 86.5t-18 135.5q20 103 111 172.5t205 69.5t178 -69.5t44 -172.5z
" />
    <glyph glyph-name="seveneighths" unicode="&#x215e;" horiz-adv-x="1898" 
d="M478 10l981 1434l34 -21l-978 -1433zM281 1434h579l-7 -35l-589 -936h-50l586 930h-528zM1324 751q-17 -86 36 -144.5t148 -58.5t171 58.5t93 144.5q17 85 -36.5 143t-148.5 58t-170.5 -57.5t-92.5 -143.5zM1179 260q-20 -102 45 -174t181 -72q115 0 208 71.5t113 174.5
t-45 175.5t-180 72.5t-208.5 -72.5t-113.5 -175.5zM1817 751q-14 -72 -70 -134t-137 -88q91 -32 135.5 -105.5t26.5 -163.5q-23 -120 -132 -203.5t-243 -83.5t-210 83.5t-53 203.5q18 90 91 164t176 105q-72 25 -104 86.5t-18 135.5q20 103 111 172.5t205 69.5t178 -69.5
t44 -172.5z" />
    <glyph glyph-name="uni215F" unicode="&#x215f;" horiz-adv-x="1898" 
d="M627 1434h39l-190 -971h-45l179 920l-270 -138l-13 36zM478 10l981 1434l34 -21l-978 -1433z" />
    <glyph glyph-name="arrowleft" unicode="&#x2190;" horiz-adv-x="1761" 
d="M572 293l-461 387l461 388l28 -33l-402 -336h1490v-39h-1490l402 -334z" />
    <glyph glyph-name="arrowup" unicode="&#x2191;" horiz-adv-x="1761" 
d="M494 1035l387 462l388 -462l-33 -27l-336 402v-1490h-39v1490l-335 -402z" />
    <glyph glyph-name="arrowright" unicode="&#x2192;" horiz-adv-x="1761" 
d="M1647 680l-462 -387l-28 33l403 334h-1490v39h1490l-403 336l28 33z" />
    <glyph glyph-name="arrowdown" unicode="&#x2193;" horiz-adv-x="1761" 
d="M881 -42l-387 462l32 27l335 -402v1490h39v-1490l336 402l33 -27z" />
    <glyph glyph-name="arrowboth" unicode="&#x2194;" horiz-adv-x="1761" 
d="M562 292l-462 387l462 388l28 -33l-403 -336h1388l-403 336l28 33l462 -388l-462 -387l-28 33l403 334h-1388l403 -334z" />
    <glyph glyph-name="arrowupdn" unicode="&#x2195;" horiz-adv-x="1761" 
d="M492 1048l387 461l388 -461l-33 -28l-336 402v-1387l336 402l33 -27l-388 -462l-387 462l32 27l335 -402v1387l-335 -402z" />
    <glyph glyph-name="arrowupdnbse" unicode="&#x21a8;" horiz-adv-x="1761" 
d="M537 -180v41h688v-41h-688zM492 1048l387 461l388 -461l-33 -28l-336 402v-1387l336 402l33 -27l-388 -462l-387 462l32 27l335 -402v1387l-335 -402z" />
    <glyph glyph-name="partialdiff" unicode="&#x2202;" horiz-adv-x="1211" 
d="M71 438q38 194 205 328.5t372 134.5q270 0 432 -249q12 44 15 61q64 327 -32 515.5t-325 188.5q-205 0 -387 -159l-15 38q89 76 195 119t214 43q164 0 269.5 -92t136 -257.5t-10.5 -395.5q-66 -341 -245.5 -539.5t-426.5 -198.5q-135 0 -235 61.5t-143.5 168t-18.5 233.5
zM640 860q-186 0 -338 -122.5t-186 -299.5q-23 -116 16.5 -213t130.5 -153t213 -56q207 0 360.5 152t229.5 424q-69 123 -175.5 195.5t-250.5 72.5z" />
    <glyph glyph-name="Delta" unicode="&#x2206;" horiz-adv-x="1351" 
d="M874 1434l302 -1434h-1205l858 1434h45zM841 1376l-793 -1335h1065z" />
    <glyph glyph-name="product" unicode="&#x220f;" horiz-adv-x="1361" 
d="M1357 1516l-339 -1743h-45l331 1702h-879l-331 -1702h-45l339 1743h969z" />
    <glyph glyph-name="summation" unicode="&#x2211;" horiz-adv-x="1290" 
d="M8 -186l777 841l-454 820l8 41h995l-8 -41h-939l449 -807l-5 -25l-766 -829h939l-9 -41h-995z" />
    <glyph glyph-name="minus" unicode="&#x2212;" horiz-adv-x="1138" 
d="M1046 659h-902l8 41h901z" />
    <glyph glyph-name="uni2215" unicode="&#x2215;" horiz-adv-x="327" 
d="M-306 10l980 1434l34 -21l-977 -1433z" />
    <glyph glyph-name="uni2219" unicode="&#x2219;" horiz-adv-x="589" 
d="M266 679q5 25 24.5 41t44.5 16t38 -16t8 -41q-4 -25 -24 -41t-45 -16t-38 16t-8 41z" />
    <glyph glyph-name="radical" unicode="&#x221a;" horiz-adv-x="1110" 
d="M396 0h-37l-243 768h52l219 -699l809 1508h48z" />
    <glyph glyph-name="infinity" unicode="&#x221e;" horiz-adv-x="1507" 
d="M354 424q42 0 83.5 13.5t75 32t79.5 57t77 68t87 85.5q-28 46 -44.5 72t-41.5 60.5t-46 53t-48 37t-57 26t-65 7.5q-114 0 -205.5 -74t-112.5 -182q-22 -107 41 -181.5t177 -74.5zM776 645q-56 -55 -87 -84.5t-80 -69t-85.5 -59.5t-83.5 -34.5t-94 -14.5q-132 0 -206 86
t-49 211q24 125 131.5 211t239.5 86q47 0 88.5 -14.5t70.5 -34.5t62 -59.5t53 -69t54 -84.5q56 55 87 84.5t80 69t85.5 59.5t83.5 34.5t94 14.5q132 0 206 -86t50 -211q-25 -125 -132.5 -211t-239.5 -86q-47 0 -88.5 14.5t-70.5 34.5t-62 59.5t-53 69t-54 84.5zM1112 424
q114 0 205.5 74t113.5 182q21 107 -42.5 181.5t-177.5 74.5q-52 0 -99.5 -17t-101 -57t-92.5 -76.5t-107 -105.5q27 -46 44 -72t41.5 -60t45.5 -53t48 -37.5t57 -26t65 -7.5z" />
    <glyph glyph-name="orthogonal" unicode="&#x221f;" horiz-adv-x="1209" 
d="M1044 41l-7 -41h-952l228 1178h45l-221 -1137h907z" />
    <glyph glyph-name="intersection" unicode="&#x2229;" horiz-adv-x="1265" 
d="M961 0l149 774q37 189 -62 319t-280 130t-331 -130t-187 -319l-150 -774h-45l150 774q41 206 206 348t364 142q131 0 228 -65t138 -177.5t14 -247.5l-149 -774h-45z" />
    <glyph glyph-name="integral" unicode="&#x222b;" horiz-adv-x="849" 
d="M276 -119l262 1342q32 167 131 260.5t253 93.5q42 0 94 -8l-7 -41q-35 8 -96 8q-137 0 -219 -82.5t-112 -232.5l-260 -1342q-33 -167 -132 -260.5t-253 -93.5q-42 0 -94 8l9 41q33 -8 93 -8q137 0 219 82.5t112 232.5z" />
    <glyph glyph-name="approxequal" unicode="&#x2248;" horiz-adv-x="1138" 
d="M856 731q-42 0 -77.5 12.5t-65 37.5t-48.5 46.5t-43 53.5q-31 40 -54.5 65t-65.5 49.5t-85 24.5q-177 0 -258 -240l-42 11q41 127 121 198.5t187 71.5q42 0 78 -12.5t65 -37.5t48.5 -46.5t42.5 -53.5q31 -40 54.5 -65t65.5 -49.5t85 -24.5q177 0 259 240l42 -11
q-42 -128 -122 -199t-187 -71zM769 281q-42 0 -78 12.5t-65.5 37t-48.5 46t-43 53.5q-30 39 -54 64.5t-65.5 50t-84.5 24.5q-177 0 -259 -239l-42 10q42 128 121.5 199t186.5 71q42 0 78 -12.5t65.5 -37t48.5 -46t43 -53.5q31 -40 54.5 -65t65.5 -49.5t85 -24.5
q176 0 258 239l42 -10q-42 -128 -121.5 -199t-186.5 -71z" />
    <glyph glyph-name="notequal" unicode="&#x2260;" horiz-adv-x="1138" 
d="M997 414h-560l-250 -349l-33 21l234 328h-292l8 41h314l322 450h-549l9 41h570l232 324l33 -22l-216 -302h282l-8 -41h-303l-323 -450h539z" />
    <glyph glyph-name="equivalence" unicode="&#x2261;" horiz-adv-x="1138" 
d="M1046 659h-902l8 41h901zM1110 993h-901l8 41h901zM980 326h-901l8 41h901z" />
    <glyph glyph-name="lessequal" unicode="&#x2264;" horiz-adv-x="1138" 
d="M918 0h-902l8 41h901zM202 799l910 440l18 -38l-876 -419l714 -418l-34 -38l-738 440z" />
    <glyph glyph-name="greaterequal" unicode="&#x2265;" horiz-adv-x="1138" 
d="M918 0h-902l8 41h901zM303 1239l738 -440l-6 -33l-910 -440l-17 38l875 418l-713 419z" />
    </font>
</defs>
</svg>
