<?xml version="1.0" standalone="no"?>
<!DOCTYPE svg PUBLIC "-//W3C//DTD SVG 1.1//EN" "http://www.w3.org/Graphics/SVG/1.1/DTD/svg11.dtd" >
<svg xmlns="http://www.w3.org/2000/svg" xmlns:xlink="http://www.w3.org/1999/xlink" version="1.1">
<metadata>
Created by FontForge 20201107 at Tue Jan 23 19:03:49 2024
 By 
Copyright (c) 2017 by Hyun-Seung Lee. All rights reserved.
</metadata>
<defs>
<font id="CarosLight" horiz-adv-x="802" >
  <font-face 
    font-family="Caros Light"
    font-weight="300"
    font-stretch="normal"
    units-per-em="2048"
    panose-1="2 11 3 3 3 3 2 2 2 4"
    ascent="1638"
    descent="-410"
    x-height="1061"
    cap-height="1434"
    bbox="-760 -532 2518 2037"
    underline-thickness="49"
    underline-position="-423"
    unicode-range="U+0009-FB04"
  />
<missing-glyph horiz-adv-x="1024" 
d="M881 0h-738v1536h738v-1536zM263 113h498v1308h-498v-1308z" />
    <glyph glyph-name="ff" unicode="ff" horiz-adv-x="1453" 
d="M1405 1487v-121q-39 6 -94 6q-120 0 -175 -62t-55 -182v-67h324v-123h-324v-938h-139v938h-557v-938h-139v938h-199v123h199v69q0 365 368 365q85 0 154 -20l-25 -119q-62 16 -123 16q-122 0 -178.5 -62t-56.5 -182v-67h557v69q0 365 358 365q51 0 105 -8z" />
    <glyph glyph-name="fi" unicode="fi" horiz-adv-x="1276" 
d="M385 1128v-67h696v-1061h-139v938h-557v-938h-139v938h-199v123h199v69q0 365 364 365q51 0 109 -8v-121q-42 6 -98 6q-123 0 -179.5 -62t-56.5 -182zM912 1364q0 43 29 71.5t71 28.5q43 0 71.5 -28.5t28.5 -71.5q0 -41 -28.5 -69.5t-71.5 -28.5q-42 0 -71 28.5t-29 69.5
z" />
    <glyph glyph-name="fl" unicode="fl" horiz-adv-x="1275" 
d="M942 0v1257q-73 55 -159 85t-169 30q-120 0 -174.5 -61.5t-54.5 -182.5v-67h344v-123h-344v-938h-139v938h-219v123h219v69q0 365 358 365q192 0 338 -116v116h139v-1495h-139z" />
    <glyph glyph-name="ffi" unicode="ffi" horiz-adv-x="1973" 
d="M1609 1364q0 43 28.5 71.5t70.5 28.5q43 0 71.5 -28.5t28.5 -71.5q0 -41 -28.5 -69.5t-71.5 -28.5q-42 0 -70.5 28.5t-28.5 69.5zM385 1128v-67h557v69q0 365 364 365q53 0 109 -8v-121q-41 6 -99 6q-122 0 -178.5 -62t-56.5 -182v-67h697v-1061h-140v938h-557v-938h-139
v938h-557v-938h-139v938h-199v123h199v69q0 365 368 365q85 0 154 -20l-25 -119q-62 16 -123 16q-122 0 -178.5 -62t-56.5 -182z" />
    <glyph glyph-name="ffl" unicode="ffl" horiz-adv-x="1972" 
d="M1638 0v1257q-160 115 -327 115q-120 0 -175 -62t-55 -182v-67h344v-123h-344v-938h-139v938h-557v-938h-139v938h-199v123h199v69q0 365 368 365q85 0 154 -20l-25 -119q-62 16 -123 16q-122 0 -178.5 -62t-56.5 -182v-67h557v69q0 365 358 365q192 0 338 -116v116h140
v-1495h-140z" />
    <glyph glyph-name=".notdef" horiz-adv-x="1024" 
d="M881 0h-738v1536h738v-1536zM263 113h498v1308h-498v-1308z" />
    <glyph glyph-name=".null" horiz-adv-x="0" 
 />
    <glyph glyph-name=".null" horiz-adv-x="0" 
 />
    <glyph glyph-name="nonmarkingreturn" horiz-adv-x="682" 
 />
    <glyph glyph-name="CR" unicode="&#x9;" horiz-adv-x="0" 
 />
    <glyph glyph-name="space" unicode=" " horiz-adv-x="602" 
 />
    <glyph glyph-name="exclam" unicode="!" horiz-adv-x="626" 
d="M262 393l-20 1041h143l-20 -1041h-103zM211 78q0 43 29 72.5t73 29.5q43 0 73 -29.5t30 -72.5q0 -44 -30 -73.5t-73 -29.5q-44 0 -73 29.5t-29 73.5z" />
    <glyph glyph-name="quotedbl" unicode="&#x22;" horiz-adv-x="967" 
d="M268 936l-20 498h139l-20 -498h-99zM600 936l-20 498h139l-21 -498h-98z" />
    <glyph glyph-name="numbersign" unicode="#" horiz-adv-x="1384" 
d="M244 0l65 383h-226v118h247l73 431h-244v119h265l65 383h140l-67 -383h373l66 383h139l-66 -383h228v-119h-248l-74 -431h246v-118h-267l-65 -383h-138l64 383h-373l-64 -383h-139zM915 932h-372l-75 -431h373z" />
    <glyph glyph-name="dollar" unicode="$" horiz-adv-x="1191" 
d="M128 220l77 83q72 -82 164 -136.5t193 -63.5v581q-205 46 -313 147.5t-108 247.5q0 161 116.5 266t304.5 112v185h107v-190q161 -21 269 -116.5t126 -261.5h-145q-14 103 -81.5 167t-168.5 83v-531q221 -53 325 -157.5t104 -262.5q0 -161 -117 -270t-312 -125v-187h-107
v186q-253 18 -434 243zM952 371q0 204 -283 286v-551q127 17 205 88.5t78 176.5zM287 1090q0 -188 275 -270v509q-124 -7 -199.5 -73.5t-75.5 -165.5z" />
    <glyph glyph-name="percent" unicode="%" horiz-adv-x="1836" 
d="M495 37l730 1419l115 -60l-731 -1420zM100 1094q0 144 104 249t261 105t260.5 -104.5t103.5 -249.5t-103.5 -250t-260.5 -105t-261 105t-104 250zM237 1094q0 -94 64 -165t164 -71t164 71t64 165q0 93 -64 164t-164 71t-164 -71t-64 -164zM1007 340q0 145 103.5 249.5
t260.5 104.5t261 -105t104 -249t-104 -249t-261 -105t-260.5 104.5t-103.5 249.5zM1143 340q0 -94 64 -165t164 -71t164 71t64 165q0 93 -64 164t-164 71t-164 -71t-64 -164z" />
    <glyph glyph-name="ampersand" unicode="&#x26;" horiz-adv-x="1484" 
d="M1013 1112h-134q-23 106 -96.5 167.5t-171.5 61.5q-99 0 -167.5 -64t-68.5 -153q0 -68 47 -133t162 -170l466 -425q76 131 102 327l130 -7q-17 -227 -129 -416l253 -230l-89 -96l-247 224q-92 -105 -211 -164t-255 -59q-200 0 -334.5 117t-134.5 285q0 249 286 416
q-98 96 -140.5 169.5t-42.5 159.5q0 142 109 239t264 97t263 -88t139 -258zM604 98q102 0 198 49.5t170 140.5l-459 418q-239 -135 -239 -321q0 -118 95 -202.5t235 -84.5z" />
    <glyph glyph-name="quotesingle" unicode="'" horiz-adv-x="635" 
d="M268 936l-20 498h139l-20 -498h-99z" />
    <glyph glyph-name="parenleft" unicode="(" horiz-adv-x="841" 
d="M256 625q0 275 101.5 526.5t279.5 425.5l98 -78q-159 -165 -247.5 -395.5t-88.5 -478.5t88.5 -479t247.5 -397l-98 -77q-178 174 -279.5 426t-101.5 527z" />
    <glyph glyph-name="parenright" unicode=")" horiz-adv-x="841" 
d="M586 625q0 -275 -101.5 -527t-279.5 -426l-99 77q159 166 247.5 397t88.5 479t-88.5 478.5t-247.5 395.5l99 78q178 -174 279.5 -425.5t101.5 -526.5z" />
    <glyph glyph-name="asterisk" unicode="*" horiz-adv-x="1124" 
d="M200 959l305 -179l-3 353h121l-3 -353l304 179l60 -104l-309 -175l309 -176l-60 -105l-304 180l3 -352h-121l3 352l-305 -180l-60 105l309 176l-309 175z" />
    <glyph glyph-name="plus" unicode="+" horiz-adv-x="1163" 
d="M512 215v405h-391v120h391v405h139v-405h391v-120h-391v-405h-139z" />
    <glyph glyph-name="comma" unicode="," horiz-adv-x="602" 
d="M197 87q0 39 30.5 68t73.5 29q47 0 76.5 -32.5t29.5 -93.5q0 -104 -55.5 -193t-153.5 -143l-50 59q79 64 93 125.5t-30 131.5q-14 24 -14 49z" />
    <glyph glyph-name="hyphen" unicode="-" horiz-adv-x="815" 
d="M695 614h-576v131h576v-131z" />
    <glyph glyph-name="period" unicode="." horiz-adv-x="602" 
d="M197 80q0 44 30 74t74 30t74.5 -30t30.5 -74t-30.5 -74.5t-74.5 -30.5t-74 30.5t-30 74.5z" />
    <glyph glyph-name="slash" unicode="/" horiz-adv-x="925" 
d="M871 1496l-687 -1792l-130 49l687 1792z" />
    <glyph glyph-name="zero" unicode="0" horiz-adv-x="1204" 
d="M125 717q0 213 51 377.5t160.5 264t265.5 99.5t265 -99.5t160 -264t51 -377.5q0 -159 -29.5 -292.5t-87.5 -234.5t-150 -158t-209 -57q-118 0 -210 57t-149.5 158t-87.5 234.5t-30 292.5zM266 717q0 -179 35 -314.5t112 -217t189 -81.5t189 82t111.5 217t34.5 314
t-34.5 314t-111.5 216.5t-189 81.5t-189 -81.5t-112 -216.5t-35 -314z" />
    <glyph glyph-name="one" unicode="1" horiz-adv-x="1204" 
d="M623 1434h131v-1434h-142v1290l-303 -170l-59 107z" />
    <glyph glyph-name="two" unicode="2" horiz-adv-x="1204" 
d="M846 649l-469 -526h647v-123h-834v117l545 608q86 96 124 177t38 165q0 116 -82.5 192t-208.5 76q-125 0 -211.5 -81t-96.5 -212h-133q7 176 130 296t311 120q187 0 309.5 -110t122.5 -281q0 -109 -46 -207.5t-146 -210.5z" />
    <glyph glyph-name="three" unicode="3" horiz-adv-x="1204" 
d="M891 434q0 140 -102 238t-252 98q-51 0 -101 -16l-57 73l418 482h-609v125h781v-125l-395 -447q197 -6 327.5 -128.5t130.5 -311.5q0 -87 -35.5 -168t-98.5 -143t-156 -99t-201 -37q-263 0 -419 241l87 73q56 -89 140.5 -140t187.5 -51q150 0 252 97.5t102 238.5z" />
    <glyph glyph-name="four" unicode="4" horiz-adv-x="1204" 
d="M82 311v127l672 996h141v-994h184v-129h-184v-311h-141v311h-672zM242 438h512v762z" />
    <glyph glyph-name="five" unicode="5" horiz-adv-x="1204" 
d="M563 -25q-131 0 -238.5 63t-179.5 173l91 74q124 -187 323 -187q149 0 248.5 96.5t99.5 241.5t-99.5 241.5t-248.5 96.5q-85 0 -154.5 -37t-107.5 -98l-98 12l86 783h710v-125h-585l-60 -504q94 90 240 90q93 0 176.5 -33.5t146 -92t99.5 -145t37 -186.5
q0 -202 -136 -332.5t-350 -130.5z" />
    <glyph glyph-name="six" unicode="6" horiz-adv-x="1204" 
d="M816 1434l-375 -583q73 50 175 50q126 0 233 -59t171 -166t64 -237t-66.5 -237.5t-177.5 -167t-240 -59.5q-130 0 -240.5 59.5t-177 167t-66.5 237.5q0 137 68 243l480 752h152zM943 439q0 143 -100 242t-243 99t-243 -99t-100 -242t100 -242t243 -99t243 99t100 242z
" />
    <glyph glyph-name="seven" unicode="7" horiz-adv-x="1204" 
d="M174 1434h862v-121l-562 -1313h-155l563 1309h-708v125z" />
    <glyph glyph-name="eight" unicode="8" horiz-adv-x="1204" 
d="M602 -25q-202 0 -340.5 125t-138.5 308q0 133 79.5 235.5t215.5 142.5q-99 33 -160 119t-61 187q0 155 115.5 260.5t289.5 105.5t290 -105.5t116 -260.5q0 -101 -61.5 -187t-160.5 -119q136 -40 215.5 -142.5t79.5 -235.5q0 -183 -138.5 -308t-340.5 -125zM602 723
q-142 0 -240 -91.5t-98 -221.5q0 -129 98 -220.5t240 -91.5t240 91.5t98 220.5q0 130 -98 221.5t-240 91.5zM602 842q113 0 190.5 73t77.5 175t-77.5 173.5t-190.5 71.5t-190.5 -71.5t-77.5 -173.5t77.5 -175t190.5 -73z" />
    <glyph glyph-name="nine" unicode="9" horiz-adv-x="1204" 
d="M388 0l375 583q-72 -51 -175 -51q-126 0 -233 59t-171 166t-64 237t66.5 237.5t177 167t239.5 59.5q130 0 241 -59.5t178 -167t67 -237.5q0 -133 -69 -242l-479 -752h-153zM261 994q0 -143 100 -242t243 -99t243 99t100 242t-100 242t-243 99t-243 -99t-100 -242z" />
    <glyph glyph-name="colon" unicode=":" horiz-adv-x="602" 
d="M197 80q0 44 30 74t74 30t74.5 -30t30.5 -74t-30.5 -74.5t-74.5 -30.5t-74 30.5t-30 74.5zM197 981q0 44 30 74t74 30t74.5 -30t30.5 -74t-30.5 -74t-74.5 -30t-74 30t-30 74z" />
    <glyph glyph-name="semicolon" unicode=";" horiz-adv-x="602" 
d="M197 981q0 44 30 74t74 30t74.5 -30t30.5 -74t-30.5 -74t-74.5 -30t-74 30t-30 74zM197 87q0 39 30.5 68t73.5 29q47 0 76.5 -32.5t29.5 -93.5q0 -104 -55.5 -193t-153.5 -143l-50 59q79 64 93 125.5t-30 131.5q-14 24 -14 49z" />
    <glyph glyph-name="less" unicode="&#x3c;" horiz-adv-x="1163" 
d="M143 620v118l805 476l61 -108l-702 -427l702 -427l-61 -109z" />
    <glyph glyph-name="equal" unicode="=" horiz-adv-x="1163" 
d="M1042 856h-921v121h921v-121zM1042 383h-921v121h921v-121z" />
    <glyph glyph-name="greater" unicode="&#x3e;" horiz-adv-x="1163" 
d="M1022 738v-118l-806 -477l-59 109l700 427l-700 427l59 108z" />
    <glyph glyph-name="question" unicode="?" horiz-adv-x="1107" 
d="M602 403h-145q1 166 48.5 255t168.5 163q104 64 148.5 122t44.5 149q0 105 -86.5 172t-221.5 67q-129 0 -213.5 -71t-93.5 -197h-149q7 126 74 217.5t168.5 134.5t223.5 43q196 0 320.5 -107.5t124.5 -274.5q0 -116 -56 -197.5t-194 -159.5q-52 -30 -83.5 -59t-48.5 -68
t-23 -81t-7 -108zM428 78q0 43 29.5 72.5t72.5 29.5q44 0 73.5 -29.5t29.5 -72.5q0 -44 -29.5 -73.5t-73.5 -29.5q-43 0 -72.5 29.5t-29.5 73.5z" />
    <glyph glyph-name="at" unicode="@" horiz-adv-x="1946" 
d="M952 879q-125 0 -205.5 -94t-80.5 -234t80.5 -234t205.5 -94t206 94t81 234t-81 234t-206 94zM1480 115q-74 0 -140 46t-92 123q-51 -79 -129 -124t-172 -45q-171 0 -287 126.5t-116 309.5t116 309.5t287 126.5q91 0 166 -42t126 -116v138h120v-598q0 -62 38.5 -104
t95.5 -42q107 0 181.5 108t74.5 281q0 153 -61.5 290.5t-166 235t-248 155t-302.5 57.5t-302 -61.5t-246.5 -166.5t-164.5 -251t-61 -308q0 -163 60.5 -308t165 -250t253 -166.5t316.5 -61.5q283 0 509 161l48 -102q-258 -168 -557 -168q-193 0 -363.5 69t-291.5 187.5
t-191 284.5t-70 354q0 249 119.5 455t325 323t450.5 117q252 0 458 -110.5t323.5 -304.5t117.5 -431q0 -218 -110.5 -357.5t-279.5 -139.5z" />
    <glyph glyph-name="A" unicode="A" horiz-adv-x="1380" 
d="M1323 0h-158l-147 393h-656l-147 -393h-158l554 1434h158zM407 518h567l-284 754z" />
    <glyph glyph-name="B" unicode="B" horiz-adv-x="1253" 
d="M711 0h-531v1434h484q186 0 294.5 -102.5t108.5 -270.5q0 -116 -60.5 -196t-158.5 -109q129 -23 215 -118t86 -239q0 -178 -120.5 -288.5t-317.5 -110.5zM922 1055q0 116 -74.5 185t-194.5 69h-329v-506h329q120 0 194.5 68t74.5 184zM1004 403q0 125 -85 202t-221 77
h-374v-557h374q136 0 221 76.5t85 201.5z" />
    <glyph glyph-name="C" unicode="C" horiz-adv-x="1552" 
d="M85 717q0 157 55.5 295t151 235.5t228.5 154t283 56.5q248 0 428 -133.5t236 -359.5h-150q-50 166 -191 266t-320 100q-117 0 -222 -44.5t-183.5 -123.5t-124.5 -195t-46 -251t46 -251t124 -195.5t183 -124t222 -44.5q170 0 311 87t224 232l100 -68q-99 -183 -264 -280.5
t-373 -97.5q-150 0 -283 56.5t-228.5 154t-151 236t-55.5 295.5z" />
    <glyph glyph-name="D" unicode="D" horiz-adv-x="1426" 
d="M180 1434h469q316 0 504 -196.5t188 -520.5q0 -325 -187.5 -521t-504.5 -196h-469v1434zM649 1307h-325v-1180h325q249 0 398 157.5t149 432.5t-149 432.5t-398 157.5z" />
    <glyph glyph-name="E" unicode="E" horiz-adv-x="1144" 
d="M180 0v1434h821v-125h-677v-527h622v-125h-622v-532h696v-125h-840z" />
    <glyph glyph-name="F" unicode="F" horiz-adv-x="1067" 
d="M180 0v1434h801v-125h-657v-525h602v-125h-602v-659h-144z" />
    <glyph glyph-name="G" unicode="G" horiz-adv-x="1577" 
d="M1470 975h-153q-50 161 -191.5 258t-322.5 97q-114 0 -218 -44.5t-183 -123t-125.5 -194.5t-46.5 -251q0 -133 47.5 -249t127.5 -195.5t187 -125t223 -45.5q220 0 364.5 142t161.5 363h-544v122h696v-32q0 -161 -50 -296t-139.5 -228.5t-215.5 -145.5t-275 -52
q-148 0 -282 57.5t-232 155.5t-156 236t-58 293q0 157 56.5 295.5t152.5 235.5t227.5 153.5t278.5 56.5q253 0 434 -135.5t236 -347.5z" />
    <glyph glyph-name="H" unicode="H" horiz-adv-x="1413" 
d="M180 0v1434h144v-652h766v652h143v-1434h-143v657h-766v-657h-144z" />
    <glyph glyph-name="I" unicode="I" horiz-adv-x="577" 
d="M217 1434h143v-1434h-143v1434z" />
    <glyph glyph-name="J" unicode="J" horiz-adv-x="916" 
d="M608 426v1008h144v-1008q0 -227 -106 -339t-306 -112q-153 0 -277 86l41 107q116 -66 232 -66q132 0 202 80.5t70 243.5z" />
    <glyph glyph-name="K" unicode="K" horiz-adv-x="1214" 
d="M324 1434v-652h126q254 0 376.5 161t122.5 490h144q0 -586 -357 -728l464 -705h-170l-437 666q-65 -9 -115 -9h-154v-657h-144v1434h144z" />
    <glyph glyph-name="L" unicode="L" horiz-adv-x="1054" 
d="M180 0v1434h144v-1309h675v-125h-819z" />
    <glyph glyph-name="M" unicode="M" horiz-adv-x="1837" 
d="M957 202h-78l-560 949v-1151h-139v1434h133l606 -1032l604 1032h134v-1434h-139v1151z" />
    <glyph glyph-name="N" unicode="N" horiz-adv-x="1423" 
d="M180 0v1434h137l787 -1184v1184h139v-1434h-137l-787 1184v-1184h-139z" />
    <glyph glyph-name="O" unicode="O" horiz-adv-x="1656" 
d="M828 102q165 0 302.5 82t216.5 223t79 310q0 126 -46.5 240t-126.5 196t-191 130t-234 48t-234 -48t-191 -130t-126.5 -196t-46.5 -240q0 -169 79 -310t216.5 -223t302.5 -82zM828 1458q206 0 377 -97.5t269 -267.5t98 -376q0 -154 -58 -292t-156.5 -236.5t-236.5 -156
t-293 -57.5t-292.5 57.5t-236.5 156.5t-156.5 236.5t-57.5 291.5t57.5 291.5t156.5 236t236.5 156t292.5 57.5z" />
    <glyph glyph-name="P" unicode="P" horiz-adv-x="1181" 
d="M612 561h-288v-561h-144v1434h432q224 0 357 -119.5t133 -317.5t-133 -317t-357 -119zM956 997q0 142 -94 227t-254 85h-284v-623h284q160 0 254 84.5t94 226.5z" />
    <glyph glyph-name="Q" unicode="Q" horiz-adv-x="1656" 
d="M828 1458q206 0 377 -97.5t269 -267.5t98 -376q0 -157 -58.5 -294.5t-163.5 -240.5l208 -222l-95 -86l-213 228q-189 -127 -422 -127q-155 0 -292.5 57.5t-236.5 156.5t-156.5 236.5t-57.5 291.5t57.5 291.5t156.5 236t236.5 156t292.5 57.5zM828 102q179 0 330 101
l-282 305l93 86l286 -309q81 84 126 195.5t45 236.5q0 126 -46.5 240t-126.5 196t-191 130t-234 48t-234 -48t-191 -130t-126.5 -196t-46.5 -240q0 -169 79 -310t216.5 -223t302.5 -82z" />
    <glyph glyph-name="R" unicode="R" horiz-adv-x="1214" 
d="M567 561h-243v-561h-144v1434h432q224 0 357 -119.5t133 -317.5q0 -172 -102.5 -286t-278.5 -142l405 -569h-159zM956 997q0 142 -94 227t-254 85h-284v-623h284q160 0 254 84.5t94 226.5z" />
    <glyph glyph-name="S" unicode="S" horiz-adv-x="1191" 
d="M128 220l77 83q77 -89 179.5 -145t213.5 -56q156 0 255 74.5t99 194.5q0 233 -368 309q-216 44 -329.5 146.5t-113.5 252.5q0 166 123.5 272.5t319.5 106.5q91 0 171.5 -23.5t146.5 -69t109 -120.5t53 -171h-145q-17 123 -107 190t-220 67q-135 0 -220 -68t-85 -173
q0 -212 356 -291q234 -53 344.5 -158.5t110.5 -267.5q0 -174 -135.5 -286t-356.5 -112q-279 0 -478 245z" />
    <glyph glyph-name="T" unicode="T" horiz-adv-x="1113" 
d="M484 0v1309h-418v125h982v-125h-420v-1309h-144z" />
    <glyph glyph-name="U" unicode="U" horiz-adv-x="1348" 
d="M1184 1434v-940q0 -231 -144 -374t-366 -143q-145 0 -261 63.5t-182.5 182t-66.5 271.5v940h143v-955q0 -166 103.5 -270.5t263.5 -104.5q159 0 262.5 104.5t103.5 270.5v955h144z" />
    <glyph glyph-name="V" unicode="V" horiz-adv-x="1376" 
d="M55 1434h156l477 -1254l477 1254h156l-554 -1434h-159z" />
    <glyph glyph-name="W" unicode="W" horiz-adv-x="1953" 
d="M903 1434h148l354 -1225l342 1225h151l-415 -1434h-148l-358 1235l-359 -1235h-147l-416 1434h152l342 -1225z" />
    <glyph glyph-name="X" unicode="X" horiz-adv-x="1276" 
d="M208 0h-160l504 729l-485 705h159l412 -598l412 598h159l-485 -705l504 -729h-160l-430 623z" />
    <glyph glyph-name="Y" unicode="Y" horiz-adv-x="1310" 
d="M213 1434l442 -705l443 705h157l-528 -846v-588h-143v588l-529 846h158z" />
    <glyph glyph-name="Z" unicode="Z" horiz-adv-x="1217" 
d="M125 125l786 1184h-755v125h925v-125l-786 -1184h807v-125h-977v125z" />
    <glyph glyph-name="bracketleft" unicode="[" horiz-adv-x="841" 
d="M247 -287v1823h534v-125h-391v-1573h391v-125h-534z" />
    <glyph glyph-name="backslash" unicode="\" horiz-adv-x="925" 
d="M741 -296l-687 1792l130 49l687 -1792z" />
    <glyph glyph-name="bracketright" unicode="]" horiz-adv-x="841" 
d="M595 1536v-1823h-535v125h392v1573h-392v125h535z" />
    <glyph glyph-name="asciicircum" unicode="^" horiz-adv-x="1244" 
d="M554 1434h135l273 -331l-85 -66l-255 281l-245 -281l-85 66z" />
    <glyph glyph-name="underscore" unicode="_" horiz-adv-x="1024" 
d="M0 -334v111h1024v-111h-1024z" />
    <glyph glyph-name="grave" unicode="`" horiz-adv-x="843" 
d="M298 1523l276 -331l-75 -64l-292 316z" />
    <glyph glyph-name="a" unicode="a" horiz-adv-x="1311" 
d="M79 530q0 151 65 277.5t185 202t270 75.5q133 0 241 -60t177 -164v200h139v-1061h-139v199q-69 -104 -177.5 -164t-240.5 -60q-150 0 -270 75.5t-185 201.5t-65 278zM220 530q0 -178 113 -304t287 -126q173 0 285 125.5t112 304.5t-111 305t-286 126q-116 0 -208.5 -59
t-142 -157.5t-49.5 -214.5z" />
    <glyph glyph-name="b" unicode="b" horiz-adv-x="1331" 
d="M1233 530q0 -152 -65 -278t-185 -201.5t-270 -75.5q-133 0 -241.5 60t-176.5 164v-199h-139v1495h139v-634q68 104 176.5 164t241.5 60q150 0 270 -75.5t185 -202t65 -277.5zM1092 530q0 116 -49.5 214.5t-142 157.5t-208.5 59q-175 0 -286 -126t-111 -305t112 -304.5
t285 -125.5q174 0 287 126t113 304z" />
    <glyph glyph-name="c" unicode="c" horiz-adv-x="1211" 
d="M79 530q0 233 156 394t388 161q190 0 327.5 -99.5t181.5 -272.5h-149q-35 115 -131 181.5t-223 66.5q-168 0 -288.5 -123.5t-120.5 -307.5t123.5 -307t296.5 -123q120 0 216 59t158 162l98 -59q-154 -287 -479 -287q-113 0 -215.5 43.5t-176.5 117.5t-118 177t-44 217z
" />
    <glyph glyph-name="d" unicode="d" horiz-adv-x="1311" 
d="M79 530q0 151 65 277.5t185 202t270 75.5q133 0 241 -60t177 -164v634h139v-1495h-139v199q-69 -104 -177.5 -164t-240.5 -60q-150 0 -270 75.5t-185 201.5t-65 278zM220 530q0 -178 113 -304t287 -126q173 0 285 125.5t112 304.5t-111 305t-286 126q-116 0 -208.5 -59
t-142 -157.5t-49.5 -214.5z" />
    <glyph glyph-name="e" unicode="e" horiz-adv-x="1240" 
d="M221 489q11 -166 129 -279.5t291 -113.5q214 0 369 175l81 -75q-176 -221 -447 -221q-164 0 -294.5 75t-200.5 201.5t-70 278.5q0 151 71 278t198 202t282 75q229 0 379.5 -153.5t150.5 -374.5q0 -37 -7 -68h-932zM630 965q-152 0 -266.5 -104t-137.5 -255h789
q-17 156 -124 257.5t-261 101.5z" />
    <glyph glyph-name="f" unicode="f" horiz-adv-x="756" 
d="M709 1487v-121q-39 6 -95 6q-120 0 -174.5 -61.5t-54.5 -182.5v-67h324v-123h-324v-938h-139v938h-219v123h219v69q0 365 358 365q51 0 105 -8z" />
    <glyph glyph-name="g" unicode="g" horiz-adv-x="1311" 
d="M79 530q0 151 65 277.5t185 202t270 75.5q133 0 241 -60t177 -164v200h139v-1051q0 -220 -137 -352.5t-376 -132.5q-266 0 -453 225l77 77q157 -181 375 -181q168 0 271.5 97t103.5 259v197q-69 -104 -177.5 -164t-240.5 -60q-150 0 -270 75.5t-185 201.5t-65 278z
M220 530q0 -178 113 -304t287 -126q173 0 285 125.5t112 304.5t-111 305t-286 126q-116 0 -208.5 -59t-142 -157.5t-49.5 -214.5z" />
    <glyph glyph-name="h" unicode="h" horiz-adv-x="1223" 
d="M295 612v-612h-139v1495h139v-616q57 93 156 149.5t219 56.5q182 0 299.5 -118t117.5 -305v-662h-139v653q0 135 -84.5 221.5t-221.5 86.5q-139 0 -243 -103t-104 -246z" />
    <glyph glyph-name="i" unicode="i" horiz-adv-x="528" 
d="M195 0v1061h139v-1061h-139zM165 1364q0 43 28.5 71.5t70.5 28.5t71 -28.5t29 -71.5q0 -41 -29 -69.5t-71 -28.5t-70.5 28.5t-28.5 69.5z" />
    <glyph glyph-name="j" unicode="j" horiz-adv-x="528" 
d="M165 1364q0 43 28.5 71.5t70.5 28.5t71 -28.5t29 -71.5q0 -41 -29 -69.5t-71 -28.5t-70.5 28.5t-28.5 69.5zM195 -170v1231h139v-1229q0 -156 -70.5 -231.5t-202.5 -75.5q-50 0 -88 10v115q18 -2 64 -2q158 0 158 182z" />
    <glyph glyph-name="k" unicode="k" horiz-adv-x="1042" 
d="M800 1061h139q0 -196 -73.5 -324.5t-210.5 -181.5l371 -555h-164l-349 521q-23 -3 -61 -3h-157v-518h-139v1495h139v-856h138q172 0 269.5 104t97.5 318z" />
    <glyph glyph-name="l" unicode="l" horiz-adv-x="528" 
d="M195 0v1495h139v-1495h-139z" />
    <glyph glyph-name="m" unicode="m" horiz-adv-x="1901" 
d="M295 612v-612h-139v1061h139v-175q57 92 147 145.5t200 53.5q122 0 216.5 -65.5t137.5 -178.5q52 111 153 177.5t228 66.5q168 0 278 -118t110 -305v-662h-139v653q0 136 -75.5 222t-200.5 86t-222.5 -103.5t-97.5 -245.5v-612h-139v653q0 136 -76 222t-201 86
t-222 -103.5t-97 -245.5z" />
    <glyph glyph-name="n" unicode="n" horiz-adv-x="1223" 
d="M295 612v-612h-139v1061h139v-182q57 93 156 149.5t219 56.5q182 0 299.5 -118t117.5 -305v-662h-139v653q0 135 -84.5 221.5t-221.5 86.5q-139 0 -243 -103t-104 -246z" />
    <glyph glyph-name="o" unicode="o" horiz-adv-x="1285" 
d="M642 100q178 0 300 126.5t122 303.5t-122 304t-300 127t-300 -127t-122 -304t122 -303.5t300 -126.5zM642 1085q159 0 289 -75.5t202 -202.5t72 -277t-72 -277t-202 -202.5t-289 -75.5t-289 75.5t-202 202.5t-72 277t72 277t202 202.5t289 75.5z" />
    <glyph glyph-name="p" unicode="p" horiz-adv-x="1311" 
d="M1233 530q0 -152 -65 -278t-185 -201.5t-270 -75.5q-133 0 -241.5 60t-176.5 164v-674h-139v1536h139v-200q68 104 176.5 164t241.5 60q150 0 270 -75.5t185 -202t65 -277.5zM1092 530q0 116 -49.5 214.5t-142 157.5t-208.5 59q-175 0 -286 -126t-111 -305t112 -304.5
t285 -125.5q174 0 287 126t113 304z" />
    <glyph glyph-name="q" unicode="q" horiz-adv-x="1311" 
d="M79 530q0 151 65 277.5t185 202t270 75.5q133 0 241 -60t177 -164v200h139v-1536h-139v674q-69 -104 -177.5 -164t-240.5 -60q-150 0 -270 75.5t-185 201.5t-65 278zM220 530q0 -178 113 -304t287 -126q173 0 285 125.5t112 304.5t-111 305t-286 126q-116 0 -208.5 -59
t-142 -157.5t-49.5 -214.5z" />
    <glyph glyph-name="r" unicode="r" horiz-adv-x="793" 
d="M753 1078l-14 -131q-47 14 -97 14q-139 0 -243 -103t-104 -246v-612h-139v1061h139v-182q57 93 156 149.5t219 56.5q45 0 83 -7z" />
    <glyph glyph-name="s" unicode="s" horiz-adv-x="944" 
d="M91 166l69 79q132 -149 314 -149q115 0 183.5 51.5t68.5 135.5q0 158 -268 209q-171 32 -257.5 110t-86.5 195q0 124 94.5 206t252.5 82q153 0 251 -77t121 -214h-140q-12 74 -71 122.5t-152 48.5q-97 0 -157 -48.5t-60 -121.5q0 -66 64.5 -116.5t185.5 -74.5
q362 -70 362 -323q0 -134 -103 -220t-280 -86q-237 0 -391 191z" />
    <glyph glyph-name="t" unicode="t" horiz-adv-x="773" 
d="M393 938v-612q0 -115 53.5 -171.5t171.5 -56.5q60 0 99 6v-105q-51 -24 -129 -24q-334 0 -334 349v614h-227v123h227v269l139 38v-307h312v-123h-312z" />
    <glyph glyph-name="u" unicode="u" horiz-adv-x="1223" 
d="M929 449v612h139v-1061h-139v182q-58 -94 -157 -150t-218 -56q-183 0 -300.5 118t-117.5 305v662h139v-653q0 -135 85 -221.5t222 -86.5q139 0 243 103t104 246z" />
    <glyph glyph-name="v" unicode="v" horiz-adv-x="1058" 
d="M1024 1061l-423 -1061h-143l-423 1061h147l347 -877l348 877h147z" />
    <glyph glyph-name="w" unicode="w" horiz-adv-x="1581" 
d="M719 1061h143l263 -866l274 866h147l-348 -1061h-143l-264 868l-265 -868h-143l-348 1061h147l274 -866z" />
    <glyph glyph-name="x" unicode="x" horiz-adv-x="1058" 
d="M193 0h-158l406 543l-380 518h158l310 -422l311 422h157l-380 -518l407 -543h-158l-337 447z" />
    <glyph glyph-name="y" unicode="y" horiz-adv-x="1069" 
d="M268 -475l197 483l-430 1053h147l355 -875l350 875h147l-618 -1536h-148z" />
    <glyph glyph-name="z" unicode="z" horiz-adv-x="1026" 
d="M102 0v123l627 815h-600v123h768v-123l-625 -815h646v-123h-816z" />
    <glyph glyph-name="braceleft" unicode="{" horiz-adv-x="841" 
d="M158 562v124q98 0 157.5 56.5t59.5 148.5v334q0 131 92.5 221t230.5 90h90v-125h-81q-82 0 -135.5 -55.5t-53.5 -138.5v-345q0 -96 -48.5 -159t-137.5 -88q89 -25 137.5 -88t48.5 -160v-344q0 -84 53.5 -139.5t135.5 -55.5h81v-125h-90q-138 0 -230.5 90t-92.5 222v333
q0 92 -59.5 148t-157.5 56z" />
    <glyph glyph-name="bar" unicode="|" horiz-adv-x="657" 
d="M262 -287v1823h133v-1823h-133z" />
    <glyph glyph-name="braceright" unicode="}" horiz-adv-x="841" 
d="M684 686v-124q-98 0 -157.5 -56t-59.5 -148v-333q0 -132 -93 -222t-231 -90h-90v125h82q82 0 135.5 55.5t53.5 139.5v344q0 97 48.5 160t137.5 88q-89 25 -137.5 88t-48.5 159v345q0 83 -53.5 138.5t-135.5 55.5h-82v125h90q138 0 231 -90t93 -221v-334
q0 -92 59.5 -148.5t157.5 -56.5z" />
    <glyph glyph-name="asciitilde" unicode="~" horiz-adv-x="1163" 
d="M554 610q-38 38 -61 58.5t-61.5 41.5t-71.5 21q-129 0 -163 -203l-131 33q23 141 94.5 218t187.5 77q134 0 260 -126q28 -28 45.5 -44t44.5 -36.5t52.5 -30.5t51.5 -10q130 0 164 203l131 -33q-23 -141 -95 -218t-188 -77q-134 0 -260 126z" />
    <glyph glyph-name="uni00A0" unicode="&#xa0;" horiz-adv-x="602" 
 />
    <glyph glyph-name="exclamdown" unicode="&#xa1;" horiz-adv-x="626" 
d="M242 -373l20 1041h103l20 -1041h-143zM211 983q0 44 29 73t73 29t73.5 -29.5t29.5 -72.5t-29.5 -72.5t-73.5 -29.5t-73 29t-29 73z" />
    <glyph glyph-name="cent" unicode="&#xa2;" horiz-adv-x="1211" 
d="M79 530q0 145 64 267.5t178.5 198t256.5 86.5v167h108v-168q168 -17 287 -114t159 -254h-149q-31 101 -110.5 164.5t-186.5 77.5v-853q104 11 188.5 69t139.5 150l98 -59q-141 -262 -426 -284v-166h-108v168q-213 20 -356 176.5t-143 373.5zM220 530q0 -166 102 -285
t256 -140v851q-153 -20 -255.5 -139t-102.5 -287z" />
    <glyph glyph-name="sterling" unicode="&#xa3;" horiz-adv-x="1163" 
d="M854 593h-384q15 -68 15 -120q0 -100 -42 -191t-114 -155h718v-127h-895v123q88 66 138 157.5t50 192.5q0 54 -16 120h-179v115h144l-31 79q-65 166 -65 260q0 172 123.5 291.5t303.5 119.5q165 0 281 -103.5t139 -272.5h-138q-18 116 -99 182.5t-183 66.5
q-119 0 -200.5 -82t-81.5 -202q0 -40 10.5 -87t23 -80.5t34.5 -88t32 -83.5h416v-115z" />
    <glyph glyph-name="currency" unicode="&#xa4;" horiz-adv-x="1267" 
d="M634 989q-134 0 -226.5 -93.5t-92.5 -227.5t92.5 -228t226.5 -94t226 94t92 228t-92 227.5t-226 93.5zM634 225q-149 0 -265 84l-199 -195l-90 90l192 192q-94 118 -94 272q0 152 94 270l-192 192l90 91l199 -196q118 85 265 85t265 -85l199 196l90 -91l-193 -192
q95 -119 95 -270q0 -153 -95 -272l193 -192l-90 -90l-199 195q-116 -84 -265 -84z" />
    <glyph glyph-name="yen" unicode="&#xa5;" horiz-adv-x="1310" 
d="M213 1434l442 -705l443 705h157l-454 -727h325v-98h-386l-13 -21v-108h399v-97h-399v-383h-143v383h-400v97h400v108l-15 21h-385v98h326l-455 727h158z" />
    <glyph glyph-name="brokenbar" unicode="&#xa6;" horiz-adv-x="657" 
d="M262 717v819h133v-819h-133zM262 -287v819h133v-819h-133z" />
    <glyph glyph-name="section" unicode="&#xa7;" horiz-adv-x="1021" 
d="M766 642q0 90 -60.5 141t-189.5 80q-104 -17 -170 -74.5t-66 -138.5q0 -86 59.5 -139t183.5 -80q109 10 176 67t67 144zM515 -94q121 0 187.5 54.5t66.5 139.5q0 23 -9 41q-13 63 -74 106.5t-189 74.5q-176 42 -264 119.5t-88 197.5q0 97 59 169.5t160 105.5
q-221 79 -221 262q0 126 99 204t268 78q153 0 251 -77t126 -222h-133q-17 89 -84 139t-161 50q-104 0 -168.5 -50t-64.5 -127q0 -71 67.5 -118t213.5 -87q183 -50 263 -125.5t80 -192.5q0 -101 -59 -170.5t-160 -101.5q105 -37 163.5 -106t58.5 -161q0 -144 -101.5 -229
t-289.5 -85q-213 0 -383 182l62 69q148 -140 324 -140z" />
    <glyph glyph-name="dieresis" unicode="&#xa8;" horiz-adv-x="843" 
d="M147 1323q0 40 28 68t69 28q40 0 68 -28t28 -68q0 -41 -28 -68.5t-68 -27.5q-41 0 -69 27.5t-28 68.5zM504 1323q0 40 27.5 68t68.5 28q40 0 68 -28t28 -68q0 -41 -28 -68.5t-68 -27.5q-41 0 -68.5 27.5t-27.5 68.5z" />
    <glyph glyph-name="copyright" unicode="&#xa9;" horiz-adv-x="1635" 
d="M76 717q0 153 58 290t157 236t236 157t290 58t290.5 -58t236.5 -157t157 -236t58 -290t-58 -290.5t-157 -236.5t-236.5 -157t-290.5 -58t-290 58t-236 157t-157 236.5t-58 290.5zM166 717q0 -181 86.5 -332t236.5 -238.5t328 -87.5t328 87.5t236.5 238.5t86.5 332
q0 135 -51 257t-138 209.5t-208 139t-254 51.5t-254 -51.5t-208 -139t-138 -209.5t-51 -257zM429 714q0 168 112 284t279 116q138 0 237 -71.5t131 -196.5h-121q-26 79 -88 121.5t-154 42.5q-117 0 -198.5 -84.5t-81.5 -211.5t84 -211.5t205 -84.5q172 0 264 145l77 -43
q-114 -206 -347 -206q-166 0 -282.5 116.5t-116.5 283.5z" />
    <glyph glyph-name="ordfeminine" unicode="&#xaa;" horiz-adv-x="924" 
d="M447 1336q-111 0 -180.5 -78.5t-69.5 -196.5t69.5 -197.5t180.5 -79.5t181 79.5t70 197.5t-69.5 196.5t-181.5 78.5zM698 688v113q-92 -129 -260 -129q-158 0 -262.5 112t-104.5 277q0 164 104.5 276.5t262.5 112.5q167 0 260 -130v114h125v-746h-125z" />
    <glyph glyph-name="guillemotleft" unicode="&#xab;" horiz-adv-x="1288" 
d="M109 583v110l511 342l55 -81l-433 -316l433 -316l-55 -81zM610 583v110l511 342l56 -81l-434 -316l434 -316l-56 -81z" />
    <glyph glyph-name="logicalnot" unicode="&#xac;" horiz-adv-x="1163" 
d="M903 246v374h-782v120h921v-494h-139z" />
    <glyph glyph-name="uni00AD" unicode="&#xad;" horiz-adv-x="815" 
d="M695 614h-576v131h576v-131z" />
    <glyph glyph-name="registered" unicode="&#xae;" horiz-adv-x="1635" 
d="M76 717q0 153 58 290t157 236t236 157t290 58t290.5 -58t236.5 -157t157 -236t58 -290t-58 -290.5t-157 -236.5t-236.5 -157t-290.5 -58t-290 58t-236 157t-157 236.5t-58 290.5zM166 717q0 -181 86.5 -332t236.5 -238.5t328 -87.5t328 87.5t236.5 238.5t86.5 332
q0 135 -51 257t-138 209.5t-208 139t-254 51.5t-254 -51.5t-208 -139t-138 -209.5t-51 -257zM694 620v-293h-110v777h254q120 0 195 -68t75 -174q0 -88 -51.5 -149.5t-138.5 -81.5l208 -304h-122l-200 293h-110zM998 858q0 63 -47 103t-122 40h-135v-287h135
q76 0 122.5 39.5t46.5 104.5z" />
    <glyph glyph-name="macron" unicode="&#xaf;" horiz-adv-x="843" 
d="M135 1265v110h574v-110h-574z" />
    <glyph glyph-name="degree" unicode="&#xb0;" 
d="M232 1182q0 -71 49 -121t120 -50t120 50t49 121t-49 120.5t-120 49.5t-120 -49.5t-49 -120.5zM125 1182q0 114 79.5 192t196.5 78q116 0 196.5 -78t80.5 -192t-80.5 -193t-196.5 -79q-117 0 -196.5 79t-79.5 193z" />
    <glyph glyph-name="plusminus" unicode="&#xb1;" horiz-adv-x="1163" 
d="M512 297v399h-391v121h391v400h139v-400h391v-121h-391v-399h-139zM1042 0h-921v121h921v-121z" />
    <glyph glyph-name="twosuperior" unicode="&#xb2;" 
d="M563 900l-299 -333h422v-104h-590v92l369 410q104 115 104 221q0 72 -51 120t-129 48q-83 0 -136 -55.5t-65 -148.5h-117q11 146 98.5 227t219.5 81t219.5 -76.5t87.5 -195.5q0 -138 -133 -286z" />
    <glyph glyph-name="threesuperior" unicode="&#xb3;" 
d="M586 756q0 89 -64.5 150.5t-156.5 61.5q-30 0 -76 -13l-49 62l272 310h-397v107h553v-97l-254 -285q128 -11 213 -95.5t85 -208.5q0 -126 -97.5 -218t-247.5 -92q-185 0 -298 174l70 59q51 -65 104 -96.5t122 -31.5q93 0 157 61.5t64 151.5z" />
    <glyph glyph-name="acute" unicode="&#xb4;" horiz-adv-x="843" 
d="M268 1192l277 332l92 -80l-292 -316z" />
    <glyph glyph-name="mu" unicode="&#xb5;" horiz-adv-x="1243" 
d="M948 449v612h139v-1061h-139v182q-58 -94 -157 -150t-218 -56q-167 0 -278 106v-557h-139v1536h139v-594q0 -170 75 -268.5t231 -98.5q139 0 243 103t104 246z" />
    <glyph glyph-name="paragraph" unicode="&#xb6;" horiz-adv-x="1175" 
d="M617 549h-66q-192 0 -323.5 127.5t-131.5 314.5t131.5 315t323.5 128h438v-1702h-108v1599h-155v-1599h-109v817z" />
    <glyph glyph-name="periodcentered" unicode="&#xb7;" horiz-adv-x="602" 
d="M197 672q0 44 30 74t74 30t74.5 -30t30.5 -74t-30.5 -74.5t-74.5 -30.5t-74 30.5t-30 74.5z" />
    <glyph glyph-name="cedilla" unicode="&#xb8;" horiz-adv-x="843" 
d="M407 -209q-37 0 -57 -6l-26 17v198h103v-132q104 -2 160.5 -58t56.5 -138q0 -88 -69 -146t-174 -58q-94 0 -162.5 52.5t-84.5 144.5h111q9 -52 45 -79.5t85 -27.5q61 0 99 33t38 83q0 49 -37.5 83t-87.5 34z" />
    <glyph glyph-name="onesuperior" unicode="&#xb9;" 
d="M420 1434h106v-971h-125v841l-196 -108l-49 93z" />
    <glyph glyph-name="ordmasculine" unicode="&#xba;" horiz-adv-x="924" 
d="M68 1061q0 163 115 276t279 113q165 0 279.5 -113t114.5 -276t-114.5 -276t-279.5 -113q-164 0 -279 113t-115 276zM194 1061q0 -117 77.5 -197t190.5 -80q114 0 191 80t77 197t-77 196t-191 79q-113 0 -190.5 -79t-77.5 -196z" />
    <glyph glyph-name="guillemotright" unicode="&#xbb;" horiz-adv-x="1288" 
d="M1181 693v-110l-511 -342l-56 81l433 316l-433 316l56 81zM679 693v-110l-511 -342l-55 81l432 316l-432 316l55 81z" />
    <glyph glyph-name="onequarter" unicode="&#xbc;" horiz-adv-x="1937" 
d="M570 30l696 1425l100 -51l-696 -1427zM420 1434h106v-971h-125v841l-196 -108l-49 93zM1178 205v98l456 668h119v-658h123v-108h-123v-205h-126v205h-449zM1319 313h308v457z" />
    <glyph glyph-name="onehalf" unicode="&#xbd;" horiz-adv-x="1937" 
d="M570 30l696 1425l100 -51l-696 -1427zM420 1434h106v-971h-125v841l-196 -108l-49 93zM1698 437l-299 -333h422v-104h-590v92l368 410q105 116 105 221q0 72 -51 120t-129 48q-83 0 -136 -55.5t-65 -148.5h-118q11 146 99 227t220 81t219.5 -76.5t87.5 -195.5
q0 -138 -133 -286z" />
    <glyph glyph-name="threequarters" unicode="&#xbe;" horiz-adv-x="1937" 
d="M570 30l696 1425l100 -51l-696 -1427zM1178 205v98l456 668h119v-658h123v-108h-123v-205h-126v205h-449zM1319 313h308v457zM586 756q0 89 -64.5 150.5t-156.5 61.5q-30 0 -76 -13l-49 62l272 310h-397v107h553v-97l-254 -285q128 -11 213 -95.5t85 -208.5
q0 -126 -97.5 -218t-247.5 -92q-185 0 -298 174l70 59q51 -65 104 -96.5t122 -31.5q93 0 157 61.5t64 151.5z" />
    <glyph glyph-name="questiondown" unicode="&#xbf;" horiz-adv-x="1107" 
d="M517 656h146q-3 -168 -50 -255.5t-168 -160.5q-104 -64 -148.5 -122.5t-44.5 -148.5q0 -106 86.5 -172.5t221.5 -66.5q129 0 213.5 70.5t93.5 197.5h149q-7 -126 -74 -217.5t-168.5 -134.5t-223.5 -43q-196 0 -320.5 107.5t-124.5 273.5q0 117 56 198.5t194 159.5
q69 39 103.5 82t46 93.5t12.5 138.5zM691 983q0 -43 -29.5 -72.5t-72.5 -29.5q-44 0 -73.5 29t-29.5 73t29.5 73t73.5 29q43 0 72.5 -29.5t29.5 -72.5z" />
    <glyph glyph-name="Agrave" unicode="&#xc0;" horiz-adv-x="1380" 
d="M1323 0h-158l-147 393h-656l-147 -393h-158l554 1434h158zM407 518h567l-284 754zM577 1916l276 -331l-75 -64l-292 316z" />
    <glyph glyph-name="Aacute" unicode="&#xc1;" horiz-adv-x="1380" 
d="M1323 0h-158l-147 393h-656l-147 -393h-158l554 1434h158zM407 518h567l-284 754zM581 1585l276 332l92 -80l-292 -315z" />
    <glyph glyph-name="Acircumflex" unicode="&#xc2;" horiz-adv-x="1380" 
d="M1323 0h-158l-147 393h-656l-147 -393h-158l554 1434h158zM407 518h567l-284 754zM630 1888h119l262 -306l-73 -64l-248 263l-248 -263l-74 64z" />
    <glyph glyph-name="Atilde" unicode="&#xc3;" horiz-adv-x="1380" 
d="M1323 0h-158l-147 393h-656l-147 -393h-158l554 1434h158zM407 518h567l-284 754zM686 1631l-31 26q-3 2 -14 11.5t-14.5 12t-12.5 9.5t-14 9.5t-13 6t-15 5t-14 1.5q-62 0 -88 -126l-118 24q44 213 185 213q80 0 159 -72q87 -80 126 -80q63 0 87 126l119 -23
q-23 -107 -68 -160t-117 -53q-73 0 -157 70z" />
    <glyph glyph-name="Adieresis" unicode="&#xc4;" horiz-adv-x="1380" 
d="M1323 0h-158l-147 393h-656l-147 -393h-158l554 1434h158zM407 518h567l-284 754zM416 1704q0 40 27.5 68t68.5 28q40 0 68 -28t28 -68t-28 -68t-68 -28q-41 0 -68.5 27.5t-27.5 68.5zM772 1704q0 40 27.5 68t68.5 28q40 0 68.5 -28t28.5 -68t-28 -68t-69 -28t-68.5 27.5
t-27.5 68.5z" />
    <glyph glyph-name="Aring" unicode="&#xc5;" horiz-adv-x="1380" 
d="M1323 0h-158l-147 393h-656l-147 -393h-158l554 1434h158zM407 518h567l-284 754zM577 1726q0 -47 33 -79.5t80 -32.5t80 32.5t33 79.5t-33 79t-80 32t-80 -32t-33 -79zM481 1726q0 85 60 141t149 56t149 -56.5t60 -140.5t-60 -141t-149 -57t-149 57t-60 141z" />
    <glyph glyph-name="AE" unicode="&#xc6;" horiz-adv-x="1886" 
d="M201 0h-164l836 1434h870v-125h-662v-527h609v-125h-609v-532h680v-125h-823v393h-509zM499 518h439v757z" />
    <glyph glyph-name="Ccedilla" unicode="&#xc7;" horiz-adv-x="1552" 
d="M836 -209q-37 0 -57 -6l-26 17v175q-141 9 -264.5 69t-212.5 156.5t-140 230t-51 284.5q0 157 55.5 295t151 235.5t228.5 154t283 56.5q248 0 428 -133.5t236 -359.5h-150q-50 166 -191 266t-320 100q-117 0 -222 -44.5t-183.5 -123.5t-124.5 -195t-46 -251t46 -251
t124 -195.5t183 -124t222 -44.5q170 0 311 87t224 232l100 -68q-94 -171 -244.5 -268t-339.5 -108v-109q104 -2 160.5 -58t56.5 -138q0 -88 -69 -146t-174 -58q-94 0 -162.5 52.5t-84.5 144.5h111q9 -52 45 -79.5t85 -27.5q61 0 99.5 33t38.5 83q0 49 -38 83t-88 34z" />
    <glyph glyph-name="Egrave" unicode="&#xc8;" horiz-adv-x="1144" 
d="M180 0v1434h821v-125h-677v-527h622v-125h-622v-532h696v-125h-840zM460 1916l276 -331l-75 -64l-292 316z" />
    <glyph glyph-name="Eacute" unicode="&#xc9;" horiz-adv-x="1144" 
d="M180 0v1434h821v-125h-677v-527h622v-125h-622v-532h696v-125h-840zM494 1585l277 332l92 -80l-292 -316z" />
    <glyph glyph-name="Ecircumflex" unicode="&#xca;" horiz-adv-x="1144" 
d="M180 0v1434h821v-125h-677v-527h622v-125h-622v-532h696v-125h-840zM531 1888h119l262 -306l-73 -63l-248 263l-248 -263l-74 63z" />
    <glyph glyph-name="Edieresis" unicode="&#xcb;" horiz-adv-x="1144" 
d="M180 0v1434h821v-125h-677v-527h622v-125h-622v-532h696v-125h-840zM311 1704q0 40 28 68t69 28q40 0 68 -28t28 -68q0 -41 -28 -68.5t-68 -27.5q-41 0 -69 27.5t-28 68.5zM668 1704q0 40 27.5 68t68.5 28q40 0 68 -28t28 -68q0 -41 -28 -68.5t-68 -27.5
q-41 0 -68.5 27.5t-27.5 68.5z" />
    <glyph glyph-name="Igrave" unicode="&#xcc;" horiz-adv-x="577" 
d="M217 1434h143v-1434h-143v1434zM196 1916l276 -331l-76 -63l-292 315z" />
    <glyph glyph-name="Iacute" unicode="&#xcd;" horiz-adv-x="577" 
d="M217 1434h143v-1434h-143v1434zM142 1585l277 332l92 -80l-292 -316z" />
    <glyph glyph-name="Icircumflex" unicode="&#xce;" horiz-adv-x="577" 
d="M217 1434h143v-1434h-143v1434zM229 1888h119l262 -306l-73 -64l-248 263l-248 -263l-74 64z" />
    <glyph glyph-name="Idieresis" unicode="&#xcf;" horiz-adv-x="577" 
d="M217 1434h143v-1434h-143v1434zM14 1704q0 40 28 68t69 28q40 0 68 -28t28 -68t-27.5 -68t-68.5 -28t-69 27.5t-28 68.5zM371 1704q0 40 27.5 68t68.5 28q40 0 68 -28t28 -68t-27.5 -68t-68.5 -28t-68.5 27.5t-27.5 68.5z" />
    <glyph glyph-name="Eth" unicode="&#xd0;" horiz-adv-x="1475" 
d="M229 1434h469q209 0 366.5 -89.5t242 -251.5t84.5 -376q0 -325 -188 -521t-505 -196h-469v660h-190v112h190v662zM698 1307h-325v-535h338v-112h-338v-533h325q249 0 398 157.5t149 432.5t-149 432.5t-398 157.5z" />
    <glyph glyph-name="Ntilde" unicode="&#xd1;" horiz-adv-x="1423" 
d="M180 0v1434h137l787 -1184v1184h139v-1434h-137l-787 1184v-1184h-139zM707 1631l-31 26q-3 2 -14 11.5t-14.5 12t-12.5 9.5t-14 9.5t-13 6t-15 5t-14 1.5q-63 0 -89 -126l-117 24q44 213 184 213q81 0 160 -72q87 -80 126 -80q63 0 87 126l119 -23q-23 -107 -68.5 -160
t-117.5 -53t-156 70z" />
    <glyph glyph-name="Ograve" unicode="&#xd2;" horiz-adv-x="1656" 
d="M828 102q165 0 302.5 82t216.5 223t79 310q0 126 -46.5 240t-126.5 196t-191 130t-234 48t-234 -48t-191 -130t-126.5 -196t-46.5 -240q0 -169 79 -310t216.5 -223t302.5 -82zM828 1458q206 0 377 -97.5t269 -267.5t98 -376q0 -154 -58 -292t-156.5 -236.5t-236.5 -156
t-293 -57.5t-292.5 57.5t-236.5 156.5t-156.5 236.5t-57.5 291.5t57.5 291.5t156.5 236t236.5 156t292.5 57.5zM735 1916l276 -331l-75 -64l-292 316z" />
    <glyph glyph-name="Oacute" unicode="&#xd3;" horiz-adv-x="1656" 
d="M828 102q165 0 302.5 82t216.5 223t79 310q0 126 -46.5 240t-126.5 196t-191 130t-234 48t-234 -48t-191 -130t-126.5 -196t-46.5 -240q0 -169 79 -310t216.5 -223t302.5 -82zM828 1458q206 0 377 -97.5t269 -267.5t98 -376q0 -154 -58 -292t-156.5 -236.5t-236.5 -156
t-293 -57.5t-292.5 57.5t-236.5 156.5t-156.5 236.5t-57.5 291.5t57.5 291.5t156.5 236t236.5 156t292.5 57.5zM689 1585l277 332l92 -80l-292 -316z" />
    <glyph glyph-name="Ocircumflex" unicode="&#xd4;" horiz-adv-x="1656" 
d="M828 102q165 0 302.5 82t216.5 223t79 310q0 126 -46.5 240t-126.5 196t-191 130t-234 48t-234 -48t-191 -130t-126.5 -196t-46.5 -240q0 -169 79 -310t216.5 -223t302.5 -82zM828 1458q206 0 377 -97.5t269 -267.5t98 -376q0 -154 -58 -292t-156.5 -236.5t-236.5 -156
t-293 -57.5t-292.5 57.5t-236.5 156.5t-156.5 236.5t-57.5 291.5t57.5 291.5t156.5 236t236.5 156t292.5 57.5zM769 1888h119l262 -306l-73 -64l-248 263l-248 -263l-74 64z" />
    <glyph glyph-name="Otilde" unicode="&#xd5;" horiz-adv-x="1656" 
d="M828 102q165 0 302.5 82t216.5 223t79 310q0 126 -46.5 240t-126.5 196t-191 130t-234 48t-234 -48t-191 -130t-126.5 -196t-46.5 -240q0 -169 79 -310t216.5 -223t302.5 -82zM828 1458q206 0 377 -97.5t269 -267.5t98 -376q0 -154 -58 -292t-156.5 -236.5t-236.5 -156
t-293 -57.5t-292.5 57.5t-236.5 156.5t-156.5 236.5t-57.5 291.5t57.5 291.5t156.5 236t236.5 156t292.5 57.5zM824 1631l-30 26q-3 2 -11 9t-11 9.5t-10.5 8t-11 8t-10 6.5t-11 6t-10.5 4t-11.5 3t-11.5 1q-62 0 -88 -126l-118 24q44 213 185 213q81 0 160 -72
q87 -80 126 -80q63 0 87 126l118 -23q-23 -107 -68 -160t-117 -53q-73 0 -157 70z" />
    <glyph glyph-name="Odieresis" unicode="&#xd6;" horiz-adv-x="1656" 
d="M828 102q165 0 302.5 82t216.5 223t79 310q0 126 -46.5 240t-126.5 196t-191 130t-234 48t-234 -48t-191 -130t-126.5 -196t-46.5 -240q0 -169 79 -310t216.5 -223t302.5 -82zM828 1458q206 0 377 -97.5t269 -267.5t98 -376q0 -154 -58 -292t-156.5 -236.5t-236.5 -156
t-293 -57.5t-292.5 57.5t-236.5 156.5t-156.5 236.5t-57.5 291.5t57.5 291.5t156.5 236t236.5 156t292.5 57.5zM554 1704q0 40 27.5 68t68.5 28q40 0 68 -28t28 -68t-28 -68t-68 -28q-41 0 -68.5 27.5t-27.5 68.5zM910 1704q0 40 28 68t69 28q40 0 68 -28t28 -68t-27.5 -68
t-68.5 -28t-69 27.5t-28 68.5z" />
    <glyph glyph-name="multiply" unicode="&#xd7;" horiz-adv-x="1163" 
d="M158 340l328 335l-328 334l94 95l330 -335l328 335l95 -95l-330 -334l330 -335l-95 -95l-328 334l-330 -334z" />
    <glyph glyph-name="Oslash" unicode="&#xd8;" horiz-adv-x="1656" 
d="M828 1458q224 0 407 -118l146 186l93 -62l-150 -190q117 -102 182.5 -246.5t65.5 -310.5q0 -154 -58 -292t-156.5 -236.5t-236.5 -156t-293 -57.5q-237 0 -426 129l-153 -196l-92 61l159 204q-109 101 -170 242t-61 302q0 154 57.5 291.5t156.5 236t236.5 156t292.5 57.5
zM828 102q165 0 302.5 82t216.5 223t79 310q0 131 -49.5 247t-138.5 201l-752 -955q150 -108 342 -108zM230 717q0 -126 45.5 -237.5t126.5 -196.5l750 951q-146 97 -324 97q-123 0 -234 -48t-191 -130t-126.5 -196t-46.5 -240z" />
    <glyph glyph-name="Ugrave" unicode="&#xd9;" horiz-adv-x="1348" 
d="M1184 1434v-940q0 -231 -144 -374t-366 -143q-145 0 -261 63.5t-182.5 182t-66.5 271.5v940h143v-955q0 -166 103.5 -270.5t263.5 -104.5q159 0 262.5 104.5t103.5 270.5v955h144zM582 1916l276 -331l-75 -64l-292 316z" />
    <glyph glyph-name="Uacute" unicode="&#xda;" horiz-adv-x="1348" 
d="M1184 1434v-940q0 -231 -144 -374t-366 -143q-145 0 -261 63.5t-182.5 182t-66.5 271.5v940h143v-955q0 -166 103.5 -270.5t263.5 -104.5q159 0 262.5 104.5t103.5 270.5v955h144zM535 1585l277 332l92 -80l-292 -316z" />
    <glyph glyph-name="Ucircumflex" unicode="&#xdb;" horiz-adv-x="1348" 
d="M1184 1434v-940q0 -231 -144 -374t-366 -143q-145 0 -261 63.5t-182.5 182t-66.5 271.5v940h143v-955q0 -166 103.5 -270.5t263.5 -104.5q159 0 262.5 104.5t103.5 270.5v955h144zM614 1888h119l262 -306l-73 -64l-248 263l-248 -263l-74 64z" />
    <glyph glyph-name="Udieresis" unicode="&#xdc;" horiz-adv-x="1348" 
d="M1184 1434v-940q0 -231 -144 -374t-366 -143q-145 0 -261 63.5t-182.5 182t-66.5 271.5v940h143v-955q0 -166 103.5 -270.5t263.5 -104.5q159 0 262.5 104.5t103.5 270.5v955h144zM399 1704q0 40 28 68t69 28q40 0 68 -28t28 -68t-28 -68t-68 -28q-41 0 -69 27.5
t-28 68.5zM756 1704q0 40 27.5 68t68.5 28q40 0 68 -28t28 -68t-28 -68t-68 -28q-41 0 -68.5 27.5t-27.5 68.5z" />
    <glyph glyph-name="Yacute" unicode="&#xdd;" horiz-adv-x="1310" 
d="M213 1434l442 -705l443 705h157l-528 -846v-588h-143v588l-529 846h158zM521 1585l277 332l92 -80l-292 -316z" />
    <glyph glyph-name="Thorn" unicode="&#xde;" horiz-adv-x="1181" 
d="M612 281h-288v-281h-144v1434h144v-281h288q224 0 357 -119t133 -317t-133 -317t-357 -119zM956 717q0 142 -94 226.5t-254 84.5h-284v-622h284q160 0 254 84.5t94 226.5z" />
    <glyph glyph-name="germandbls" unicode="&#xdf;" horiz-adv-x="1232" 
d="M413 62l42 102q102 -66 229 -66q142 0 225 95.5t83 240.5q0 140 -102 238t-252 98q-50 0 -100 -16l-58 73l264 482h-437v-1309h-143v1434h739v-125l-250 -448h13q199 0 333.5 -124t134.5 -315q0 -89 -29 -168.5t-83.5 -142t-141 -99.5t-192.5 -37q-151 0 -275 87z" />
    <glyph glyph-name="agrave" unicode="&#xe0;" horiz-adv-x="1311" 
d="M79 530q0 151 65 277.5t185 202t270 75.5q133 0 241 -60t177 -164v200h139v-1061h-139v199q-69 -104 -177.5 -164t-240.5 -60q-150 0 -270 75.5t-185 201.5t-65 278zM220 530q0 -178 113 -304t287 -126q173 0 285 125.5t112 304.5t-111 305t-286 126q-116 0 -208.5 -59
t-142 -157.5t-49.5 -214.5zM563 1584l276 -331l-75 -64l-292 316z" />
    <glyph glyph-name="aacute" unicode="&#xe1;" horiz-adv-x="1311" 
d="M79 530q0 151 65 277.5t185 202t270 75.5q133 0 241 -60t177 -164v200h139v-1061h-139v199q-69 -104 -177.5 -164t-240.5 -60q-150 0 -270 75.5t-185 201.5t-65 278zM220 530q0 -178 113 -304t287 -126q173 0 285 125.5t112 304.5t-111 305t-286 126q-116 0 -208.5 -59
t-142 -157.5t-49.5 -214.5zM515 1253l277 332l92 -80l-292 -316z" />
    <glyph glyph-name="acircumflex" unicode="&#xe2;" horiz-adv-x="1311" 
d="M79 530q0 151 65 277.5t185 202t270 75.5q133 0 241 -60t177 -164v200h139v-1061h-139v199q-69 -104 -177.5 -164t-240.5 -60q-150 0 -270 75.5t-185 201.5t-65 278zM220 530q0 -178 113 -304t287 -126q173 0 285 125.5t112 304.5t-111 305t-286 126q-116 0 -208.5 -59
t-142 -157.5t-49.5 -214.5zM577 1557h119l262 -306l-73 -64l-248 263l-248 -263l-74 64z" />
    <glyph glyph-name="atilde" unicode="&#xe3;" horiz-adv-x="1311" 
d="M79 530q0 151 65 277.5t185 202t270 75.5q133 0 241 -60t177 -164v200h139v-1061h-139v199q-69 -104 -177.5 -164t-240.5 -60q-150 0 -270 75.5t-185 201.5t-65 278zM220 530q0 -178 113 -304t287 -126q173 0 285 125.5t112 304.5t-111 305t-286 126q-116 0 -208.5 -59
t-142 -157.5t-49.5 -214.5zM642 1299l-31 26q-3 2 -14 11.5t-14.5 12t-12.5 9.5t-14 9.5t-13 6t-15 5t-14 1.5q-62 0 -88 -126l-118 24q44 213 185 213q80 0 159 -72q87 -80 126 -80q63 0 87 126l119 -23q-23 -107 -68 -160t-117 -53q-73 0 -157 70z" />
    <glyph glyph-name="adieresis" unicode="&#xe4;" horiz-adv-x="1311" 
d="M79 530q0 151 65 277.5t185 202t270 75.5q133 0 241 -60t177 -164v200h139v-1061h-139v199q-69 -104 -177.5 -164t-240.5 -60q-150 0 -270 75.5t-185 201.5t-65 278zM220 530q0 -178 113 -304t287 -126q173 0 285 125.5t112 304.5t-111 305t-286 126q-116 0 -208.5 -59
t-142 -157.5t-49.5 -214.5zM353 1372q0 40 28 68t69 28q40 0 68 -28t28 -68t-28 -68t-68 -28q-41 0 -69 27.5t-28 68.5zM710 1372q0 40 27.5 68t68.5 28q40 0 68 -28t28 -68t-28 -68t-68 -28q-41 0 -68.5 27.5t-27.5 68.5z" />
    <glyph glyph-name="aring" unicode="&#xe5;" horiz-adv-x="1311" 
d="M79 530q0 151 65 277.5t185 202t270 75.5q133 0 241 -60t177 -164v200h139v-1061h-139v199q-69 -104 -177.5 -164t-240.5 -60q-150 0 -270 75.5t-185 201.5t-65 278zM220 530q0 -178 113 -304t287 -126q173 0 285 125.5t112 304.5t-111 305t-286 126q-116 0 -208.5 -59
t-142 -157.5t-49.5 -214.5zM530 1394q0 -47 33 -79.5t80 -32.5t80 32.5t33 79.5t-33 79t-80 32t-80 -32t-33 -79zM434 1394q0 85 60 141t149 56t149 -56.5t60 -140.5t-60 -141t-149 -57t-149 57t-60 141z" />
    <glyph glyph-name="ae" unicode="&#xe6;" horiz-adv-x="2178" 
d="M1159 489q11 -166 129 -279.5t291 -113.5q103 0 194 44.5t159 123.5l81 -76q-162 -213 -431 -213q-281 0 -426 225v-200h-139v199q-69 -104 -177.5 -164t-240.5 -60q-150 0 -270 75.5t-185 201.5t-65 278q0 151 65 277.5t185 202t270 75.5q133 0 241 -60t177 -164v200
h139v-201q71 112 177 168.5t235 56.5q229 0 379.5 -153.5t150.5 -374.5q0 -37 -7 -68h-932zM220 530q0 -178 113 -304t287 -126q173 0 285 125.5t112 304.5t-111 305t-286 126q-116 0 -208.5 -59t-142 -157.5t-49.5 -214.5zM1568 965q-152 0 -266.5 -104t-137.5 -255h789
q-17 156 -124 257.5t-261 101.5z" />
    <glyph glyph-name="ccedilla" unicode="&#xe7;" horiz-adv-x="1211" 
d="M667 -208q-33 0 -57 -7l-26 17v175q-215 19 -360 176.5t-145 376.5q0 233 156 394t388 161q190 0 327.5 -99.5t181.5 -272.5h-149q-35 115 -131 181.5t-223 66.5q-168 0 -288.5 -123.5t-120.5 -307.5t123.5 -307t296.5 -123q120 0 216 59t158 162l98 -59
q-142 -262 -425 -284v-110q104 -2 161 -58t57 -138q0 -88 -68.5 -146t-173.5 -58q-95 0 -164 52.5t-84 144.5h110q10 -52 46 -79.5t85 -27.5q61 0 99.5 33t38.5 83q0 49 -38.5 83.5t-88.5 34.5z" />
    <glyph glyph-name="egrave" unicode="&#xe8;" horiz-adv-x="1240" 
d="M221 489q11 -166 129 -279.5t291 -113.5q214 0 369 175l81 -75q-176 -221 -447 -221q-164 0 -294.5 75t-200.5 201.5t-70 278.5q0 151 71 278t198 202t282 75q229 0 379.5 -153.5t150.5 -374.5q0 -37 -7 -68h-932zM630 965q-152 0 -266.5 -104t-137.5 -255h789
q-17 156 -124 257.5t-261 101.5zM527 1584l276 -331l-75 -64l-292 316z" />
    <glyph glyph-name="eacute" unicode="&#xe9;" horiz-adv-x="1240" 
d="M221 489q11 -166 129 -279.5t291 -113.5q214 0 369 175l81 -75q-176 -221 -447 -221q-164 0 -294.5 75t-200.5 201.5t-70 278.5q0 151 71 278t198 202t282 75q229 0 379.5 -153.5t150.5 -374.5q0 -37 -7 -68h-932zM630 965q-152 0 -266.5 -104t-137.5 -255h789
q-17 156 -124 257.5t-261 101.5zM513 1253l277 332l92 -80l-292 -316z" />
    <glyph glyph-name="ecircumflex" unicode="&#xea;" horiz-adv-x="1240" 
d="M221 489q11 -166 129 -279.5t291 -113.5q214 0 369 175l81 -75q-176 -221 -447 -221q-164 0 -294.5 75t-200.5 201.5t-70 278.5q0 151 71 278t198 202t282 75q229 0 379.5 -153.5t150.5 -374.5q0 -37 -7 -68h-932zM630 965q-152 0 -266.5 -104t-137.5 -255h789
q-17 156 -124 257.5t-261 101.5zM560 1556h119l262 -306l-74 -63l-247 263l-248 -263l-74 63z" />
    <glyph glyph-name="edieresis" unicode="&#xeb;" horiz-adv-x="1240" 
d="M221 489q11 -166 129 -279.5t291 -113.5q214 0 369 175l81 -75q-176 -221 -447 -221q-164 0 -294.5 75t-200.5 201.5t-70 278.5q0 151 71 278t198 202t282 75q229 0 379.5 -153.5t150.5 -374.5q0 -37 -7 -68h-932zM630 965q-152 0 -266.5 -104t-137.5 -255h789
q-17 156 -124 257.5t-261 101.5zM345 1372q0 40 28 68t69 28q40 0 68 -28t28 -68q0 -41 -28 -68.5t-68 -27.5q-41 0 -69 27.5t-28 68.5zM702 1372q0 40 27.5 68t68.5 28q40 0 68 -28t28 -68q0 -41 -28 -68.5t-68 -27.5q-41 0 -68.5 27.5t-27.5 68.5z" />
    <glyph glyph-name="igrave" unicode="&#xec;" horiz-adv-x="528" 
d="M171 1584l276 -331l-75 -63l-292 315zM195 0v1061h139v-1061h-139z" />
    <glyph glyph-name="iacute" unicode="&#xed;" horiz-adv-x="528" 
d="M120 1253l276 332l92 -80l-291 -315zM195 0v1061h139v-1061h-139z" />
    <glyph glyph-name="icircumflex" unicode="&#xee;" horiz-adv-x="528" 
d="M195 0v1061h139v-1061h-139zM205 1556h119l262 -306l-74 -63l-248 263l-248 -263l-73 63z" />
    <glyph glyph-name="idieresis" unicode="&#xef;" horiz-adv-x="528" 
d="M-10 1372q0 40 27.5 68t68.5 28q40 0 68 -28t28 -68t-28 -68t-68 -28q-41 0 -68.5 27.5t-27.5 68.5zM346 1372q0 40 27.5 68t68.5 28q40 0 68.5 -28t28.5 -68t-28 -68t-69 -28t-68.5 27.5t-27.5 68.5zM195 0v1061h139v-1061h-139z" />
    <glyph glyph-name="eth" unicode="&#xf0;" horiz-adv-x="1245" 
d="M637 1236l-339 -161l-42 89l289 138q-99 64 -226 121l49 98q162 -62 303 -161l120 57t120 58l41 -90l-195 -92q186 -150 292.5 -361t106.5 -445q0 -141 -71.5 -259t-195.5 -185.5t-272 -67.5q-111 0 -210.5 40t-171.5 108t-114 163t-42 201q0 139 71 256.5t191 184.5
t260 67q108 0 202 -46.5t153 -130.5q-100 253 -319 418zM618 879q-166 0 -282 -113.5t-116 -276.5t115.5 -276t282.5 -113t283 113t116 276t-116 276.5t-283 113.5z" />
    <glyph glyph-name="ntilde" unicode="&#xf1;" horiz-adv-x="1223" 
d="M295 612v-612h-139v1061h139v-182q57 93 156 149.5t219 56.5q182 0 299.5 -118t117.5 -305v-662h-139v653q0 135 -84.5 221.5t-221.5 86.5q-139 0 -243 -103t-104 -246zM616 1299l-30 26q-3 2 -11 9t-11 9.5t-10.5 8t-11 8t-10 6.5t-11 6t-10.5 4t-11.5 3t-11.5 1
q-62 0 -88 -126l-117 24q44 213 184 213q81 0 160 -72q87 -80 126 -80q63 0 87 126l118 -23q-23 -107 -68 -160t-117 -53q-73 0 -157 70z" />
    <glyph glyph-name="ograve" unicode="&#xf2;" horiz-adv-x="1285" 
d="M642 100q178 0 300 126.5t122 303.5t-122 304t-300 127t-300 -127t-122 -304t122 -303.5t300 -126.5zM642 1085q159 0 289 -75.5t202 -202.5t72 -277t-72 -277t-202 -202.5t-289 -75.5t-289 75.5t-202 202.5t-72 277t72 277t202 202.5t289 75.5zM550 1584l276 -331
l-75 -64l-292 316z" />
    <glyph glyph-name="oacute" unicode="&#xf3;" horiz-adv-x="1285" 
d="M642 100q178 0 300 126.5t122 303.5t-122 304t-300 127t-300 -127t-122 -304t122 -303.5t300 -126.5zM642 1085q159 0 289 -75.5t202 -202.5t72 -277t-72 -277t-202 -202.5t-289 -75.5t-289 75.5t-202 202.5t-72 277t72 277t202 202.5t289 75.5zM498 1253l277 332l92 -80
l-292 -316z" />
    <glyph glyph-name="ocircumflex" unicode="&#xf4;" horiz-adv-x="1285" 
d="M642 100q178 0 300 126.5t122 303.5t-122 304t-300 127t-300 -127t-122 -304t122 -303.5t300 -126.5zM642 1085q159 0 289 -75.5t202 -202.5t72 -277t-72 -277t-202 -202.5t-289 -75.5t-289 75.5t-202 202.5t-72 277t72 277t202 202.5t289 75.5zM582 1557h119l262 -306
l-73 -64l-248 263l-248 -263l-74 64z" />
    <glyph glyph-name="otilde" unicode="&#xf5;" horiz-adv-x="1285" 
d="M642 100q178 0 300 126.5t122 303.5t-122 304t-300 127t-300 -127t-122 -304t122 -303.5t300 -126.5zM642 1085q159 0 289 -75.5t202 -202.5t72 -277t-72 -277t-202 -202.5t-289 -75.5t-289 75.5t-202 202.5t-72 277t72 277t202 202.5t289 75.5zM638 1299l-31 26
q-3 2 -14 11.5t-14.5 12t-12.5 9.5t-14 9.5t-13 6t-15 5t-14 1.5q-62 0 -88 -126l-118 24q44 213 184 213q81 0 160 -72q87 -80 126 -80q63 0 87 126l119 -23q-23 -107 -68 -160t-117 -53q-73 0 -157 70z" />
    <glyph glyph-name="odieresis" unicode="&#xf6;" horiz-adv-x="1285" 
d="M642 100q178 0 300 126.5t122 303.5t-122 304t-300 127t-300 -127t-122 -304t122 -303.5t300 -126.5zM642 1085q159 0 289 -75.5t202 -202.5t72 -277t-72 -277t-202 -202.5t-289 -75.5t-289 75.5t-202 202.5t-72 277t72 277t202 202.5t289 75.5zM368 1372q0 40 27.5 68
t68.5 28q40 0 68 -28t28 -68t-28 -68t-68 -28q-41 0 -68.5 27.5t-27.5 68.5zM724 1372q0 40 27.5 68t68.5 28q40 0 68 -28t28 -68t-28 -68t-68 -28q-41 0 -68.5 27.5t-27.5 68.5z" />
    <glyph glyph-name="divide" unicode="&#xf7;" horiz-adv-x="1163" 
d="M1042 620h-921v120h921v-120zM477 1067q0 44 30.5 74t74.5 30t74 -30t30 -74t-30 -74t-74 -30t-74.5 30t-30.5 74zM477 293q0 44 30.5 74t74.5 30t74 -30t30 -74t-30 -74.5t-74 -30.5t-74.5 30.5t-30.5 74.5z" />
    <glyph glyph-name="oslash" unicode="&#xf8;" horiz-adv-x="1285" 
d="M642 1085q169 0 307 -88l127 158l83 -64l-126 -158q82 -76 127 -181t45 -222q0 -150 -72 -277t-202 -202.5t-289 -75.5q-169 0 -307 87l-125 -155l-83 64l125 155q-83 77 -128 181.5t-45 222.5q0 150 72 277t202 202.5t289 75.5zM642 100q178 0 300 126.5t122 303.5
q0 174 -116 296l-530 -660q99 -66 224 -66zM220 530q0 -173 117 -298l530 662q-104 67 -225 67q-178 0 -300 -127t-122 -304z" />
    <glyph glyph-name="ugrave" unicode="&#xf9;" horiz-adv-x="1223" 
d="M929 449v612h139v-1061h-139v182q-58 -94 -157 -150t-218 -56q-183 0 -300.5 118t-117.5 305v662h139v-653q0 -135 85 -221.5t222 -86.5q139 0 243 103t104 246zM481 1584l276 -331l-75 -64l-292 316z" />
    <glyph glyph-name="uacute" unicode="&#xfa;" horiz-adv-x="1223" 
d="M929 449v612h139v-1061h-139v182q-58 -94 -157 -150t-218 -56q-183 0 -300.5 118t-117.5 305v662h139v-653q0 -135 85 -221.5t222 -86.5q139 0 243 103t104 246zM427 1253l277 332l92 -80l-292 -316z" />
    <glyph glyph-name="ucircumflex" unicode="&#xfb;" horiz-adv-x="1223" 
d="M929 449v612h139v-1061h-139v182q-58 -94 -157 -150t-218 -56q-183 0 -300.5 118t-117.5 305v662h139v-653q0 -135 85 -221.5t222 -86.5q139 0 243 103t104 246zM541 1557h119l262 -306l-73 -64l-248 263l-248 -263l-74 64z" />
    <glyph glyph-name="udieresis" unicode="&#xfc;" horiz-adv-x="1223" 
d="M929 449v612h139v-1061h-139v182q-58 -94 -157 -150t-218 -56q-183 0 -300.5 118t-117.5 305v662h139v-653q0 -135 85 -221.5t222 -86.5q139 0 243 103t104 246zM327 1372q0 40 27.5 68t68.5 28q40 0 68 -28t28 -68t-27.5 -68t-68.5 -28t-68.5 27.5t-27.5 68.5zM683 1372
q0 40 27.5 68t68.5 28q40 0 68.5 -28t28.5 -68t-28 -68t-69 -28t-68.5 27.5t-27.5 68.5z" />
    <glyph glyph-name="yacute" unicode="&#xfd;" horiz-adv-x="1069" 
d="M268 -475l197 483l-430 1053h147l355 -875l350 875h147l-618 -1536h-148zM350 1253l277 332l92 -80l-292 -316z" />
    <glyph glyph-name="thorn" unicode="&#xfe;" horiz-adv-x="1311" 
d="M1233 530q0 -152 -65 -278t-185 -201.5t-270 -75.5q-133 0 -241.5 60t-176.5 164v-674h-139v1970h139v-634q68 104 176.5 164t241.5 60q150 0 270 -75.5t185 -202t65 -277.5zM1092 530q0 116 -49.5 214.5t-142 157.5t-208.5 59q-175 0 -286 -126t-111 -305t112 -304.5
t285 -125.5q174 0 287 126t113 304z" />
    <glyph glyph-name="ydieresis" unicode="&#xff;" horiz-adv-x="1069" 
d="M268 -475l197 483l-430 1053h147l355 -875l350 875h147l-618 -1536h-148zM260 1372q0 40 28 68t69 28q40 0 68 -28t28 -68q0 -41 -28 -68.5t-68 -27.5q-41 0 -69 27.5t-28 68.5zM617 1372q0 40 27.5 68t68.5 28q40 0 68 -28t28 -68q0 -41 -28 -68.5t-68 -27.5
q-41 0 -68.5 27.5t-27.5 68.5z" />
    <glyph glyph-name="Amacron" unicode="&#x100;" horiz-adv-x="1380" 
d="M1323 0h-158l-147 393h-656l-147 -393h-158l554 1434h158zM407 518h567l-284 754zM403 1644v110h574v-110h-574z" />
    <glyph glyph-name="amacron" unicode="&#x101;" horiz-adv-x="1311" 
d="M79 530q0 151 65 277.5t185 202t270 75.5q133 0 241 -60t177 -164v200h139v-1061h-139v199q-69 -104 -177.5 -164t-240.5 -60q-150 0 -270 75.5t-185 201.5t-65 278zM220 530q0 -178 113 -304t287 -126q173 0 285 125.5t112 304.5t-111 305t-286 126q-116 0 -208.5 -59
t-142 -157.5t-49.5 -214.5zM362 1312v110h574v-110h-574z" />
    <glyph glyph-name="Abreve" unicode="&#x102;" horiz-adv-x="1380" 
d="M1323 0h-158l-147 393h-656l-147 -393h-158l554 1434h158zM407 518h567l-284 754zM690 1528q-132 0 -223 88.5t-98 222.5h126q4 -89 56.5 -147t138.5 -58q85 0 138 58t57 147h126q-7 -134 -98 -222.5t-223 -88.5z" />
    <glyph glyph-name="abreve" unicode="&#x103;" horiz-adv-x="1311" 
d="M79 530q0 151 65 277.5t185 202t270 75.5q133 0 241 -60t177 -164v200h139v-1061h-139v199q-69 -104 -177.5 -164t-240.5 -60q-150 0 -270 75.5t-185 201.5t-65 278zM220 530q0 -178 113 -304t287 -126q173 0 285 125.5t112 304.5t-111 305t-286 126q-116 0 -208.5 -59
t-142 -157.5t-49.5 -214.5zM638 1196q-132 0 -223.5 88.5t-98.5 222.5h126q4 -89 57 -146.5t139 -57.5q85 0 138 58t57 146h125q-7 -134 -97.5 -222.5t-222.5 -88.5z" />
    <glyph glyph-name="Aogonek" unicode="&#x104;" horiz-adv-x="1380" 
d="M1210 0h-45l-147 393h-656l-147 -393h-158l554 1434h158l554 -1434q-104 -72 -153.5 -138.5t-49.5 -145.5q0 -59 34.5 -93t89.5 -34t89 35t43 96h110q-15 -103 -79 -162t-172 -59q-97 0 -161.5 60t-64.5 152q0 165 201 289zM407 518h567l-284 754z" />
    <glyph glyph-name="aogonek" unicode="&#x105;" horiz-adv-x="1311" 
d="M1043 0h-26v199q-69 -104 -177.5 -164t-240.5 -60q-150 0 -270 75.5t-185 201.5t-65 278q0 151 65 277.5t185 202t270 75.5q133 0 241 -60t177 -164v200h139v-1061q-104 -72 -153.5 -138.5t-49.5 -145.5q0 -59 34.5 -93t89.5 -34t89 35t43 96h110q-15 -103 -79 -162
t-172 -59q-97 0 -161.5 60t-64.5 152q0 165 201 289zM220 530q0 -178 113 -304t287 -126q173 0 285 125.5t112 304.5t-111 305t-286 126q-116 0 -208.5 -59t-142 -157.5t-49.5 -214.5z" />
    <glyph glyph-name="Cacute" unicode="&#x106;" horiz-adv-x="1552" 
d="M85 717q0 157 55.5 295t151 235.5t228.5 154t283 56.5q248 0 428 -133.5t236 -359.5h-150q-50 166 -191 266t-320 100q-117 0 -222 -44.5t-183.5 -123.5t-124.5 -195t-46 -251t46 -251t124 -195.5t183 -124t222 -44.5q170 0 311 87t224 232l100 -68q-99 -183 -264 -280.5
t-373 -97.5q-150 0 -283 56.5t-228.5 154t-151 236t-55.5 295.5zM632 1585l277 332l92 -80l-292 -316z" />
    <glyph glyph-name="cacute" unicode="&#x107;" horiz-adv-x="1211" 
d="M79 530q0 233 156 394t388 161q190 0 327.5 -99.5t181.5 -272.5h-149q-35 115 -131 181.5t-223 66.5q-168 0 -288.5 -123.5t-120.5 -307.5t123.5 -307t296.5 -123q120 0 216 59t158 162l98 -59q-154 -287 -479 -287q-113 0 -215.5 43.5t-176.5 117.5t-118 177t-44 217z
M499 1253l277 332l92 -80l-292 -316z" />
    <glyph glyph-name="Ccircumflex" unicode="&#x108;" horiz-adv-x="1552" 
d="M85 717q0 157 55.5 295t151 235.5t228.5 154t283 56.5q248 0 428 -133.5t236 -359.5h-150q-50 166 -191 266t-320 100q-117 0 -222 -44.5t-183.5 -123.5t-124.5 -195t-46 -251t46 -251t124 -195.5t183 -124t222 -44.5q170 0 311 87t224 232l100 -68q-99 -183 -264 -280.5
t-373 -97.5q-150 0 -283 56.5t-228.5 154t-151 236t-55.5 295.5zM716 1888h119l262 -306l-73 -64l-248 263l-248 -263l-74 64z" />
    <glyph glyph-name="ccircumflex" unicode="&#x109;" horiz-adv-x="1211" 
d="M79 530q0 233 156 394t388 161q190 0 327.5 -99.5t181.5 -272.5h-149q-35 115 -131 181.5t-223 66.5q-168 0 -288.5 -123.5t-120.5 -307.5t123.5 -307t296.5 -123q120 0 216 59t158 162l98 -59q-154 -287 -479 -287q-113 0 -215.5 43.5t-176.5 117.5t-118 177t-44 217z
M541 1557h119l262 -306l-73 -64l-248 263l-248 -263l-74 64z" />
    <glyph glyph-name="Cdotaccent" unicode="&#x10a;" horiz-adv-x="1552" 
d="M85 717q0 157 55.5 295t151 235.5t228.5 154t283 56.5q248 0 428 -133.5t236 -359.5h-150q-50 166 -191 266t-320 100q-117 0 -222 -44.5t-183.5 -123.5t-124.5 -195t-46 -251t46 -251t124 -195.5t183 -124t222 -44.5q170 0 311 87t224 232l100 -68q-99 -183 -264 -280.5
t-373 -97.5q-150 0 -283 56.5t-228.5 154t-151 236t-55.5 295.5zM682 1704q0 40 28 68t68 28t68 -28t28 -68t-28 -68t-68 -28t-68 28t-28 68z" />
    <glyph glyph-name="cdotaccent" unicode="&#x10b;" horiz-adv-x="1211" 
d="M79 530q0 233 156 394t388 161q190 0 327.5 -99.5t181.5 -272.5h-149q-35 115 -131 181.5t-223 66.5q-168 0 -288.5 -123.5t-120.5 -307.5t123.5 -307t296.5 -123q120 0 216 59t158 162l98 -59q-154 -287 -479 -287q-113 0 -215.5 43.5t-176.5 117.5t-118 177t-44 217z
M517 1372q0 40 28 68t68 28t68.5 -28t28.5 -68t-28 -68t-69 -28t-68.5 28t-27.5 68z" />
    <glyph glyph-name="Ccaron" unicode="&#x10c;" horiz-adv-x="1552" 
d="M85 717q0 157 55.5 295t151 235.5t228.5 154t283 56.5q248 0 428 -133.5t236 -359.5h-150q-50 166 -191 266t-320 100q-117 0 -222 -44.5t-183.5 -123.5t-124.5 -195t-46 -251t46 -251t124 -195.5t183 -124t222 -44.5q170 0 311 87t224 232l100 -68q-99 -183 -264 -280.5
t-373 -97.5q-150 0 -283 56.5t-228.5 154t-151 236t-55.5 295.5zM837 1548h-119l-262 306l73 64l248 -263l248 263l74 -64z" />
    <glyph glyph-name="ccaron" unicode="&#x10d;" horiz-adv-x="1211" 
d="M79 530q0 233 156 394t388 161q190 0 327.5 -99.5t181.5 -272.5h-149q-35 115 -131 181.5t-223 66.5q-168 0 -288.5 -123.5t-120.5 -307.5t123.5 -307t296.5 -123q120 0 216 59t158 162l98 -59q-154 -287 -479 -287q-113 0 -215.5 43.5t-176.5 117.5t-118 177t-44 217z
M657 1196h-118l-263 306l74 64l248 -263l248 263l74 -64z" />
    <glyph glyph-name="Dcaron" unicode="&#x10e;" horiz-adv-x="1426" 
d="M180 1434h469q316 0 504 -196.5t188 -520.5q0 -325 -187.5 -521t-504.5 -196h-469v1434zM649 1307h-325v-1180h325q249 0 398 157.5t149 432.5t-149 432.5t-398 157.5zM757 1548h-119l-262 306l74 64l248 -264l248 264l73 -64z" />
    <glyph glyph-name="dcaron" unicode="&#x10f;" horiz-adv-x="1588" 
d="M79 530q0 151 65 277.5t185 202t270 75.5q133 0 241 -60t177 -164v634h139v-1495h-139v199q-69 -104 -177.5 -164t-240.5 -60q-150 0 -270 75.5t-185 201.5t-65 278zM220 530q0 -178 113 -304t287 -126q173 0 285 125.5t112 304.5t-111 305t-286 126q-116 0 -208.5 -59
t-142 -157.5t-49.5 -214.5zM1335 1431q0 36 27 62.5t66 26.5q41 0 68 -29t27 -81q0 -84 -50.5 -164.5t-134.5 -120.5l-46 46q123 104 57 214q-14 24 -14 46z" />
    <glyph glyph-name="Dcroat" unicode="&#x110;" horiz-adv-x="1475" 
d="M229 1434h469q209 0 366.5 -89.5t242 -251.5t84.5 -376q0 -325 -188 -521t-505 -196h-469v660h-190v112h190v662zM698 1307h-325v-535h338v-112h-338v-533h325q249 0 398 157.5t149 432.5t-149 432.5t-398 157.5z" />
    <glyph glyph-name="dcroat" unicode="&#x111;" horiz-adv-x="1355" 
d="M79 530q0 151 65 277.5t185 202t270 75.5q133 0 241 -60t177 -164v353h-378v103h378v178h139v-178h164v-103h-164v-1214h-139v199q-69 -104 -177.5 -164t-240.5 -60q-150 0 -270 75.5t-185 201.5t-65 278zM220 530q0 -178 113 -304t287 -126q173 0 285 125.5t112 304.5
t-111 305t-286 126q-116 0 -208.5 -59t-142 -157.5t-49.5 -214.5z" />
    <glyph glyph-name="Emacron" unicode="&#x112;" horiz-adv-x="1144" 
d="M180 0v1434h821v-125h-677v-527h622v-125h-622v-532h696v-125h-840zM299 1644v110h573v-110h-573z" />
    <glyph glyph-name="emacron" unicode="&#x113;" horiz-adv-x="1240" 
d="M221 489q11 -166 129 -279.5t291 -113.5q214 0 369 175l81 -75q-176 -221 -447 -221q-164 0 -294.5 75t-200.5 201.5t-70 278.5q0 151 71 278t198 202t282 75q229 0 379.5 -153.5t150.5 -374.5q0 -37 -7 -68h-932zM630 965q-152 0 -266.5 -104t-137.5 -255h789
q-17 156 -124 257.5t-261 101.5zM333 1312v110h573v-110h-573z" />
    <glyph glyph-name="Ebreve" unicode="&#x114;" horiz-adv-x="1144" 
d="M180 0v1434h821v-125h-677v-527h622v-125h-622v-532h696v-125h-840zM585 1528q-132 0 -223.5 88.5t-98.5 222.5h126q4 -89 57 -147t139 -58q85 0 137.5 58t56.5 147h126q-7 -134 -97.5 -222.5t-222.5 -88.5z" />
    <glyph glyph-name="ebreve" unicode="&#x115;" horiz-adv-x="1240" 
d="M221 489q11 -166 129 -279.5t291 -113.5q214 0 369 175l81 -75q-176 -221 -447 -221q-164 0 -294.5 75t-200.5 201.5t-70 278.5q0 151 71 278t198 202t282 75q229 0 379.5 -153.5t150.5 -374.5q0 -37 -7 -68h-932zM630 965q-152 0 -266.5 -104t-137.5 -255h789
q-17 156 -124 257.5t-261 101.5zM620 1196q-132 0 -223.5 88.5t-98.5 222.5h126q4 -89 57 -146.5t139 -57.5q85 0 137.5 57.5t56.5 146.5h126q-7 -134 -97.5 -222.5t-222.5 -88.5z" />
    <glyph glyph-name="Edotaccent" unicode="&#x116;" horiz-adv-x="1144" 
d="M180 0v1434h821v-125h-677v-527h622v-125h-622v-532h696v-125h-840zM497 1704q0 40 28 68t68 28t68 -28t28 -68t-27.5 -68t-68.5 -28t-68.5 28t-27.5 68z" />
    <glyph glyph-name="edotaccent" unicode="&#x117;" horiz-adv-x="1240" 
d="M221 489q11 -166 129 -279.5t291 -113.5q214 0 369 175l81 -75q-176 -221 -447 -221q-164 0 -294.5 75t-200.5 201.5t-70 278.5q0 151 71 278t198 202t282 75q229 0 379.5 -153.5t150.5 -374.5q0 -37 -7 -68h-932zM630 965q-152 0 -266.5 -104t-137.5 -255h789
q-17 156 -124 257.5t-261 101.5zM523 1372q0 40 28.5 68t68.5 28t68 -28t28 -68t-28 -68t-68 -28q-41 0 -69 28t-28 68z" />
    <glyph glyph-name="Eogonek" unicode="&#x118;" horiz-adv-x="1144" 
d="M180 0v1434h821v-125h-677v-527h622v-125h-622v-532h696v-125h-177q-120 -83 -174.5 -145.5t-54.5 -138.5q0 -59 35 -93t90 -34t88.5 35t42.5 96h111q-15 -104 -78.5 -162.5t-173.5 -58.5q-97 0 -161.5 60t-64.5 152q0 167 228 289h-551z" />
    <glyph glyph-name="eogonek" unicode="&#x119;" horiz-adv-x="1240" 
d="M221 489q11 -166 129 -279.5t291 -113.5q103 0 194 44.5t159 123.5l81 -76q-140 -183 -357 -207q-103 -73 -152 -133.5t-49 -131.5q0 -59 35 -93t90 -34t88.5 35t42.5 96h111q-15 -104 -78.5 -162.5t-173.5 -58.5q-97 0 -161.5 60t-64.5 152q0 152 187 266
q-228 18 -371 175t-143 378q0 151 71 278t198 202t282 75q229 0 379.5 -153.5t150.5 -374.5q0 -37 -7 -68h-932zM630 965q-152 0 -266.5 -104t-137.5 -255h789q-17 156 -124 257.5t-261 101.5z" />
    <glyph glyph-name="Ecaron" unicode="&#x11a;" horiz-adv-x="1144" 
d="M180 0v1434h821v-125h-677v-527h622v-125h-622v-532h696v-125h-840zM647 1548h-119l-262 306l74 64l248 -264l248 264l73 -64z" />
    <glyph glyph-name="ecaron" unicode="&#x11b;" horiz-adv-x="1240" 
d="M221 489q11 -166 129 -279.5t291 -113.5q214 0 369 175l81 -75q-176 -221 -447 -221q-164 0 -294.5 75t-200.5 201.5t-70 278.5q0 151 71 278t198 202t282 75q229 0 379.5 -153.5t150.5 -374.5q0 -37 -7 -68h-932zM630 965q-152 0 -266.5 -104t-137.5 -255h789
q-17 156 -124 257.5t-261 101.5zM679 1196h-119l-262 306l74 64l248 -264l248 264l73 -64z" />
    <glyph glyph-name="Gcircumflex" unicode="&#x11c;" horiz-adv-x="1577" 
d="M1470 975h-153q-50 161 -191.5 258t-322.5 97q-114 0 -218 -44.5t-183 -123t-125.5 -194.5t-46.5 -251q0 -133 47.5 -249t127.5 -195.5t187 -125t223 -45.5q220 0 364.5 142t161.5 363h-544v122h696v-32q0 -161 -50 -296t-139.5 -228.5t-215.5 -145.5t-275 -52
q-148 0 -282 57.5t-232 155.5t-156 236t-58 293q0 157 56.5 295.5t152.5 235.5t227.5 153.5t278.5 56.5q253 0 434 -135.5t236 -347.5zM721 1888h119l262 -306l-74 -63l-248 263l-248 -263l-73 63z" />
    <glyph glyph-name="gcircumflex" unicode="&#x11d;" horiz-adv-x="1311" 
d="M79 530q0 151 65 277.5t185 202t270 75.5q133 0 241 -60t177 -164v200h139v-1051q0 -220 -137 -352.5t-376 -132.5q-266 0 -453 225l77 77q157 -181 375 -181q168 0 271.5 97t103.5 259v197q-69 -104 -177.5 -164t-240.5 -60q-150 0 -270 75.5t-185 201.5t-65 278z
M220 530q0 -178 113 -304t287 -126q173 0 285 125.5t112 304.5t-111 305t-286 126q-116 0 -208.5 -59t-142 -157.5t-49.5 -214.5zM579 1556h118l262 -306l-73 -63l-248 263l-248 -263l-74 63z" />
    <glyph glyph-name="Gbreve" unicode="&#x11e;" horiz-adv-x="1577" 
d="M1470 975h-153q-50 161 -191.5 258t-322.5 97q-114 0 -218 -44.5t-183 -123t-125.5 -194.5t-46.5 -251q0 -133 47.5 -249t127.5 -195.5t187 -125t223 -45.5q220 0 364.5 142t161.5 363h-544v122h696v-32q0 -161 -50 -296t-139.5 -228.5t-215.5 -145.5t-275 -52
q-148 0 -282 57.5t-232 155.5t-156 236t-58 293q0 157 56.5 295.5t152.5 235.5t227.5 153.5t278.5 56.5q253 0 434 -135.5t236 -347.5zM781 1528q-132 0 -223.5 88.5t-98.5 222.5h126q4 -89 57 -146.5t139 -57.5q85 0 137.5 57.5t56.5 146.5h126q-7 -134 -97.5 -222.5
t-222.5 -88.5z" />
    <glyph glyph-name="gbreve" unicode="&#x11f;" horiz-adv-x="1311" 
d="M79 530q0 151 65 277.5t185 202t270 75.5q133 0 241 -60t177 -164v200h139v-1051q0 -220 -137 -352.5t-376 -132.5q-266 0 -453 225l77 77q157 -181 375 -181q168 0 271.5 97t103.5 259v197q-69 -104 -177.5 -164t-240.5 -60q-150 0 -270 75.5t-185 201.5t-65 278z
M220 530q0 -178 113 -304t287 -126q173 0 285 125.5t112 304.5t-111 305t-286 126q-116 0 -208.5 -59t-142 -157.5t-49.5 -214.5zM633 1196q-132 0 -223.5 88.5t-98.5 222.5h126q4 -89 57 -146.5t139 -57.5q85 0 137.5 57.5t56.5 146.5h126q-7 -134 -97.5 -222.5
t-222.5 -88.5z" />
    <glyph glyph-name="Gdotaccent" unicode="&#x120;" horiz-adv-x="1577" 
d="M1470 975h-153q-50 161 -191.5 258t-322.5 97q-114 0 -218 -44.5t-183 -123t-125.5 -194.5t-46.5 -251q0 -133 47.5 -249t127.5 -195.5t187 -125t223 -45.5q220 0 364.5 142t161.5 363h-544v122h696v-32q0 -161 -50 -296t-139.5 -228.5t-215.5 -145.5t-275 -52
q-148 0 -282 57.5t-232 155.5t-156 236t-58 293q0 157 56.5 295.5t152.5 235.5t227.5 153.5t278.5 56.5q253 0 434 -135.5t236 -347.5zM684 1704q0 40 28 68t68 28t68.5 -28t28.5 -68t-28 -68t-69 -28q-40 0 -68 28t-28 68z" />
    <glyph glyph-name="gdotaccent" unicode="&#x121;" horiz-adv-x="1311" 
d="M79 530q0 151 65 277.5t185 202t270 75.5q133 0 241 -60t177 -164v200h139v-1051q0 -220 -137 -352.5t-376 -132.5q-266 0 -453 225l77 77q157 -181 375 -181q168 0 271.5 97t103.5 259v197q-69 -104 -177.5 -164t-240.5 -60q-150 0 -270 75.5t-185 201.5t-65 278z
M220 530q0 -178 113 -304t287 -126q173 0 285 125.5t112 304.5t-111 305t-286 126q-116 0 -208.5 -59t-142 -157.5t-49.5 -214.5zM532 1372q0 40 28 68t68 28t68 -28t28 -68q0 -41 -28 -68.5t-68 -27.5t-68 27.5t-28 68.5z" />
    <glyph glyph-name="Gcommaaccent" unicode="&#x122;" horiz-adv-x="1577" 
d="M1470 975h-153q-50 161 -191.5 258t-322.5 97q-114 0 -218 -44.5t-183 -123t-125.5 -194.5t-46.5 -251q0 -133 47.5 -249t127.5 -195.5t187 -125t223 -45.5q220 0 364.5 142t161.5 363h-544v122h696v-32q0 -161 -50 -296t-139.5 -228.5t-215.5 -145.5t-275 -52
q-148 0 -282 57.5t-232 155.5t-156 236t-58 293q0 157 56.5 295.5t152.5 235.5t227.5 153.5t278.5 56.5q253 0 434 -135.5t236 -347.5zM632 -446l214 338l100 -74l-232 -323z" />
    <glyph glyph-name="gcommaaccent" unicode="&#x123;" horiz-adv-x="1311" 
d="M79 530q0 151 65 277.5t185 202t270 75.5q133 0 241 -60t177 -164v200h139v-1051q0 -220 -137 -352.5t-376 -132.5q-266 0 -453 225l77 77q157 -181 375 -181q168 0 271.5 97t103.5 259v197q-69 -104 -177.5 -164t-240.5 -60q-150 0 -270 75.5t-185 201.5t-65 278z
M220 530q0 -178 113 -304t287 -126q173 0 285 125.5t112 304.5t-111 305t-286 126q-116 0 -208.5 -59t-142 -157.5t-49.5 -214.5zM813 1516l-214 -339l-100 74l232 323z" />
    <glyph glyph-name="Hcircumflex" unicode="&#x124;" horiz-adv-x="1413" 
d="M180 0v1434h144v-652h766v652h143v-1434h-143v657h-766v-657h-144zM647 1888h119l262 -306l-73 -64l-248 263l-248 -263l-74 64z" />
    <glyph glyph-name="hcircumflex" unicode="&#x125;" horiz-adv-x="1223" 
d="M295 612v-612h-139v1495h139v-616q57 93 156 149.5t219 56.5q182 0 299.5 -118t117.5 -305v-662h-139v653q0 135 -84.5 221.5t-221.5 86.5q-139 0 -243 -103t-104 -246zM165 1950h119l262 -306l-73 -64l-248 263l-248 -263l-74 64z" />
    <glyph glyph-name="Hbar" unicode="&#x126;" horiz-adv-x="1438" 
d="M193 0v1090h-134v109h134v235h143v-235h766v235h143v-235h133v-109h-133v-1090h-143v657h-766v-657h-143zM336 782h766v308h-766v-308z" />
    <glyph glyph-name="hbar" unicode="&#x127;" horiz-adv-x="1266" 
d="M35 1214v103h164v178h139v-178h378v-103h-378v-335q57 93 156.5 149.5t218.5 56.5q183 0 300 -118t117 -305v-662h-139v653q0 135 -84.5 221.5t-221.5 86.5q-139 0 -243 -103t-104 -246v-612h-139v1214h-164z" />
    <glyph glyph-name="Itilde" unicode="&#x128;" horiz-adv-x="577" 
d="M217 1434h143v-1434h-143v1434zM285 1631l-31 26q-3 2 -14 11.5t-14.5 12t-12.5 9.5t-14 9.5t-13 6t-15 5t-14 1.5q-62 0 -88 -126l-118 24q44 213 184 213q81 0 160 -72q87 -80 126 -80q63 0 87 126l119 -23q-23 -107 -68.5 -160t-117.5 -53t-156 70z" />
    <glyph glyph-name="itilde" unicode="&#x129;" horiz-adv-x="528" 
d="M260 1299l-31 26q-3 2 -14 11.5t-14.5 12t-12.5 9.5t-14 9.5t-13 6t-15 5t-14 1.5q-62 0 -88 -126l-118 24q44 213 185 213q80 0 159 -72q87 -80 126 -80q63 0 87 126l119 -23q-23 -107 -68 -160t-117 -53q-73 0 -157 70zM195 0v1061h139v-1061h-139z" />
    <glyph glyph-name="Imacron" unicode="&#x12a;" horiz-adv-x="577" 
d="M217 1434h143v-1434h-143v1434zM2 1644v110h574v-110h-574z" />
    <glyph glyph-name="imacron" unicode="&#x12b;" horiz-adv-x="528" 
d="M-23 1312v110h574v-110h-574zM195 0v1061h139v-1061h-139z" />
    <glyph glyph-name="Ibreve" unicode="&#x12c;" horiz-adv-x="577" 
d="M217 1434h143v-1434h-143v1434zM289 1528q-132 0 -223.5 88.5t-98.5 222.5h126q4 -89 57 -147t139 -58q85 0 137.5 58t56.5 147h126q-7 -134 -97.5 -222.5t-222.5 -88.5z" />
    <glyph glyph-name="ibreve" unicode="&#x12d;" horiz-adv-x="528" 
d="M264 1196q-132 0 -223 88.5t-98 222.5h126q4 -89 56.5 -146.5t138.5 -57.5q85 0 138 58t57 146h126q-7 -134 -98 -222.5t-223 -88.5zM195 0v1061h139v-1061h-139z" />
    <glyph glyph-name="Iogonek" unicode="&#x12e;" horiz-adv-x="577" 
d="M248 0h-31v1434h143v-1434q-104 -72 -153 -138.5t-49 -145.5q0 -59 34.5 -93t89.5 -34t89 35t43 96h109q-15 -103 -79 -162t-172 -59q-97 0 -161.5 60t-64.5 152q0 164 202 289z" />
    <glyph glyph-name="iogonek" unicode="&#x12f;" horiz-adv-x="528" 
d="M195 0v1061h139v-1061q-104 -72 -153.5 -138.5t-49.5 -145.5q0 -59 34.5 -93t89.5 -34t89 35t43 96h110q-15 -103 -79 -162t-172 -59q-97 0 -162 60t-65 152q0 164 202 289h-26zM165 1364q0 43 28.5 71.5t70.5 28.5t71 -28.5t29 -71.5q0 -41 -29 -69.5t-71 -28.5
t-70.5 28.5t-28.5 69.5z" />
    <glyph glyph-name="Idotaccent" unicode="&#x130;" horiz-adv-x="577" 
d="M217 1434h143v-1434h-143v1434zM193 1704q0 40 28 68t68 28t68 -28t28 -68q0 -41 -28 -68.5t-68 -27.5t-68 27.5t-28 68.5z" />
    <glyph glyph-name="dotlessi" unicode="&#x131;" horiz-adv-x="528" 
d="M195 0v1061h139v-1061h-139z" />
    <glyph glyph-name="IJ" unicode="&#x132;" horiz-adv-x="1473" 
d="M217 1434h143v-1434h-143v1434zM1165 426v1008h144v-1008q0 -227 -106 -339t-306 -112q-152 0 -276 86l41 107q115 -66 231 -66q132 0 202 80.5t70 243.5z" />
    <glyph glyph-name="ij" unicode="&#x133;" horiz-adv-x="1057" 
d="M195 0v1061h139v-1061h-139zM165 1364q0 43 28.5 71.5t70.5 28.5t71 -28.5t29 -71.5q0 -41 -29 -69.5t-71 -28.5t-70.5 28.5t-28.5 69.5zM693 1364q0 43 29 71.5t71 28.5t70.5 -28.5t28.5 -71.5q0 -41 -28.5 -69.5t-70.5 -28.5t-71 28.5t-29 69.5zM723 -170v1231h139
v-1229q0 -307 -272 -307q-50 0 -88 10v115q18 -2 63 -2q158 0 158 182z" />
    <glyph glyph-name="Jcircumflex" unicode="&#x134;" horiz-adv-x="916" 
d="M608 426v1008h144v-1008q0 -227 -106 -339t-306 -112q-153 0 -277 86l41 107q116 -66 232 -66q132 0 202 80.5t70 243.5zM620 1888h119l262 -306l-73 -64l-248 263l-248 -263l-74 64z" />
    <glyph glyph-name="jcircumflex" unicode="&#x135;" horiz-adv-x="528" 
d="M195 -170v1231h139v-1229q0 -307 -283 -307q-49 0 -78 4v121q18 -2 64 -2q158 0 158 182zM205 1556h119l262 -306l-74 -63l-248 263l-248 -263l-73 63z" />
    <glyph glyph-name="Kcommaaccent" unicode="&#x136;" horiz-adv-x="1214" 
d="M324 1434v-652h126q254 0 376.5 161t122.5 490h144q0 -586 -357 -728l464 -705h-170l-437 666q-65 -9 -115 -9h-154v-657h-144v1434h144zM433 -446l214 338l101 -74l-233 -323z" />
    <glyph glyph-name="kcommaaccent" unicode="&#x137;" horiz-adv-x="1042" 
d="M800 1061h139q0 -196 -73.5 -324.5t-210.5 -181.5l371 -555h-164l-349 521q-23 -3 -61 -3h-157v-518h-139v1495h139v-856h138q172 0 269.5 104t97.5 318zM348 -446l214 338l101 -74l-233 -323z" />
    <glyph glyph-name="kgreenlandic" unicode="&#x138;" horiz-adv-x="1042" 
d="M800 1061h139q0 -197 -74 -327.5t-211 -185.5l372 -548h-164l-349 514q-23 -3 -61 -3h-157v-511h-139v1061h139v-429h138q171 0 269 107.5t98 321.5z" />
    <glyph glyph-name="Lacute" unicode="&#x139;" horiz-adv-x="1054" 
d="M180 0v1434h144v-1309h675v-125h-819zM211 1585l277 332l92 -80l-292 -316z" />
    <glyph glyph-name="lacute" unicode="&#x13a;" horiz-adv-x="528" 
d="M195 0v1495h139v-1495h-139zM156 1647l277 332l92 -80l-292 -316z" />
    <glyph glyph-name="Lcommaaccent" unicode="&#x13b;" horiz-adv-x="1054" 
d="M180 0v1434h144v-1309h675v-125h-819zM384 -446l214 338l100 -74l-232 -323z" />
    <glyph glyph-name="lcommaaccent" unicode="&#x13c;" horiz-adv-x="528" 
d="M195 0v1495h139v-1495h-139zM86 -446l214 338l100 -74l-232 -323z" />
    <glyph glyph-name="Lcaron" unicode="&#x13d;" horiz-adv-x="1054" 
d="M180 0v1434h144v-1309h675v-125h-819zM656 1369q0 36 27.5 62.5t66.5 26.5q41 0 67.5 -28.5t26.5 -80.5q0 -84 -50.5 -164.5t-134.5 -120.5l-46 46q123 104 57 214q-14 24 -14 45z" />
    <glyph glyph-name="lcaron" unicode="&#x13e;" horiz-adv-x="795" 
d="M195 0v1495h139v-1495h-139zM544 1431q0 36 27 62.5t66 26.5q41 0 67.5 -29t26.5 -81q0 -84 -50 -164.5t-134 -120.5l-46 46q122 103 56 214q-13 22 -13 46z" />
    <glyph glyph-name="Ldot" unicode="&#x13f;" horiz-adv-x="1054" 
d="M180 0v1434h144v-1309h675v-125h-819zM637 770q0 40 28 68t68 28t68 -28t28 -68q0 -41 -28 -68.5t-68 -27.5t-68 27.5t-28 68.5z" />
    <glyph glyph-name="ldot" unicode="&#x140;" horiz-adv-x="797" 
d="M195 0v1495h139v-1495h-139zM547 770q0 40 28 68t68 28t68 -28t28 -68t-27.5 -68t-68.5 -28t-68.5 28t-27.5 68z" />
    <glyph glyph-name="Lslash" unicode="&#x141;" horiz-adv-x="1087" 
d="M213 0v587l-125 -65l-47 96l172 89v727h143v-653l376 193l47 -96l-423 -218v-535h676v-125h-819z" />
    <glyph glyph-name="lslash" unicode="&#x142;" horiz-adv-x="600" 
d="M230 0v685l-186 -93l-44 92l230 116v695h140v-625l186 95l44 -93l-230 -116v-756h-140z" />
    <glyph glyph-name="Nacute" unicode="&#x143;" horiz-adv-x="1423" 
d="M180 0v1434h137l787 -1184v1184h139v-1434h-137l-787 1184v-1184h-139zM567 1585l277 332l92 -80l-292 -316z" />
    <glyph glyph-name="nacute" unicode="&#x144;" horiz-adv-x="1223" 
d="M295 612v-612h-139v1061h139v-182q57 93 156 149.5t219 56.5q182 0 299.5 -118t117.5 -305v-662h-139v653q0 135 -84.5 221.5t-221.5 86.5q-139 0 -243 -103t-104 -246zM518 1253l277 332l92 -80l-292 -316z" />
    <glyph glyph-name="Ncommaaccent" unicode="&#x145;" horiz-adv-x="1423" 
d="M180 0v1434h137l787 -1184v1184h139v-1434h-137l-787 1184v-1184h-139zM541 -446l214 338l100 -74l-232 -323z" />
    <glyph glyph-name="ncommaaccent" unicode="&#x146;" horiz-adv-x="1223" 
d="M295 612v-612h-139v1061h139v-182q57 93 156 149.5t219 56.5q182 0 299.5 -118t117.5 -305v-662h-139v653q0 135 -84.5 221.5t-221.5 86.5q-139 0 -243 -103t-104 -246zM443 -446l214 338l101 -74l-233 -323z" />
    <glyph glyph-name="Ncaron" unicode="&#x147;" horiz-adv-x="1423" 
d="M180 0v1434h137l787 -1184v1184h139v-1434h-137l-787 1184v-1184h-139zM770 1548h-119l-262 306l74 64l248 -263l247 263l74 -64z" />
    <glyph glyph-name="ncaron" unicode="&#x148;" horiz-adv-x="1223" 
d="M295 612v-612h-139v1061h139v-182q57 93 156 149.5t219 56.5q182 0 299.5 -118t117.5 -305v-662h-139v653q0 135 -84.5 221.5t-221.5 86.5q-139 0 -243 -103t-104 -246zM675 1196h-119l-262 306l74 64l247 -263l248 263l74 -64z" />
    <glyph glyph-name="napostrophe" unicode="&#x149;" horiz-adv-x="1391" 
d="M463 612v-612h-139v1061h139v-182q57 93 156 149.5t219 56.5q182 0 299.5 -118t117.5 -305v-662h-139v653q0 135 -84.5 221.5t-221.5 86.5q-139 0 -243 -103t-104 -246zM91 1431q0 36 27 62.5t66 26.5q41 0 68 -29t27 -81q0 -84 -50.5 -164.5t-134.5 -120.5l-46 46
q122 103 56 214q-13 22 -13 46z" />
    <glyph glyph-name="Eng" unicode="&#x14a;" horiz-adv-x="1423" 
d="M1243 1434v-1545q0 -179 -91.5 -271.5t-271.5 -92.5q-60 0 -100 8v121q40 -6 94 -6q120 0 175 61.5t55 181.5v112l-785 1181v-1184h-139v1434h137l787 -1184v1184h139z" />
    <glyph glyph-name="eng" unicode="&#x14b;" horiz-adv-x="1223" 
d="M295 612v-612h-139v1061h139v-182q57 93 156 149.5t219 56.5q182 0 299.5 -118t117.5 -305v-773q0 -364 -358 -364q-52 0 -104 8v121q41 -6 94 -6q120 0 174.5 61t54.5 182v762q0 135 -84.5 221.5t-221.5 86.5q-139 0 -243 -103t-104 -246z" />
    <glyph glyph-name="Omacron" unicode="&#x14c;" horiz-adv-x="1656" 
d="M828 102q165 0 302.5 82t216.5 223t79 310q0 126 -46.5 240t-126.5 196t-191 130t-234 48t-234 -48t-191 -130t-126.5 -196t-46.5 -240q0 -169 79 -310t216.5 -223t302.5 -82zM828 1458q206 0 377 -97.5t269 -267.5t98 -376q0 -154 -58 -292t-156.5 -236.5t-236.5 -156
t-293 -57.5t-292.5 57.5t-236.5 156.5t-156.5 236.5t-57.5 291.5t57.5 291.5t156.5 236t236.5 156t292.5 57.5zM542 1644v110h574v-110h-574z" />
    <glyph glyph-name="omacron" unicode="&#x14d;" horiz-adv-x="1285" 
d="M642 100q178 0 300 126.5t122 303.5t-122 304t-300 127t-300 -127t-122 -304t122 -303.5t300 -126.5zM642 1085q159 0 289 -75.5t202 -202.5t72 -277t-72 -277t-202 -202.5t-289 -75.5t-289 75.5t-202 202.5t-72 277t72 277t202 202.5t289 75.5zM355 1312v110h574v-110
h-574z" />
    <glyph glyph-name="Obreve" unicode="&#x14e;" horiz-adv-x="1656" 
d="M828 102q165 0 302.5 82t216.5 223t79 310q0 126 -46.5 240t-126.5 196t-191 130t-234 48t-234 -48t-191 -130t-126.5 -196t-46.5 -240q0 -169 79 -310t216.5 -223t302.5 -82zM828 1458q206 0 377 -97.5t269 -267.5t98 -376q0 -154 -58 -292t-156.5 -236.5t-236.5 -156
t-293 -57.5t-292.5 57.5t-236.5 156.5t-156.5 236.5t-57.5 291.5t57.5 291.5t156.5 236t236.5 156t292.5 57.5zM828 1528q-132 0 -223 88.5t-98 222.5h126q4 -89 56.5 -147t138.5 -58q85 0 138 58t57 147h126q-7 -134 -98 -222.5t-223 -88.5z" />
    <glyph glyph-name="obreve" unicode="&#x14f;" horiz-adv-x="1285" 
d="M642 100q178 0 300 126.5t122 303.5t-122 304t-300 127t-300 -127t-122 -304t122 -303.5t300 -126.5zM642 1085q159 0 289 -75.5t202 -202.5t72 -277t-72 -277t-202 -202.5t-289 -75.5t-289 75.5t-202 202.5t-72 277t72 277t202 202.5t289 75.5zM642 1196
q-132 0 -223 88.5t-98 222.5h125q4 -89 57 -146.5t139 -57.5q85 0 138 58t57 146h126q-7 -134 -98 -222.5t-223 -88.5z" />
    <glyph glyph-name="Ohungarumlaut" unicode="&#x150;" horiz-adv-x="1656" 
d="M828 102q165 0 302.5 82t216.5 223t79 310q0 126 -46.5 240t-126.5 196t-191 130t-234 48t-234 -48t-191 -130t-126.5 -196t-46.5 -240q0 -169 79 -310t216.5 -223t302.5 -82zM828 1458q206 0 377 -97.5t269 -267.5t98 -376q0 -154 -58 -292t-156.5 -236.5t-236.5 -156
t-293 -57.5t-292.5 57.5t-236.5 156.5t-156.5 236.5t-57.5 291.5t57.5 291.5t156.5 236t236.5 156t292.5 57.5zM537 1585l276 332l92 -80l-292 -315zM847 1585l276 332l92 -80l-291 -315z" />
    <glyph glyph-name="ohungarumlaut" unicode="&#x151;" horiz-adv-x="1285" 
d="M642 100q178 0 300 126.5t122 303.5t-122 304t-300 127t-300 -127t-122 -304t122 -303.5t300 -126.5zM642 1085q159 0 289 -75.5t202 -202.5t72 -277t-72 -277t-202 -202.5t-289 -75.5t-289 75.5t-202 202.5t-72 277t72 277t202 202.5t289 75.5zM303 1253l277 332l92 -80
l-292 -315zM613 1253l277 332l92 -80l-292 -315z" />
    <glyph glyph-name="OE" unicode="&#x152;" horiz-adv-x="1828" 
d="M866 127h14v1180h-14q-131 0 -249 -46t-203 -124.5t-134.5 -188t-49.5 -231.5q0 -123 49.5 -232.5t134.5 -188t203 -124t249 -45.5zM1704 0h-838q-161 0 -305.5 55.5t-249 150.5t-165.5 228t-61 283q0 149 61 282t165.5 228t249 151t305.5 56h820v-125h-663v-527h608
v-125h-608v-532h681v-125z" />
    <glyph glyph-name="oe" unicode="&#x153;" horiz-adv-x="2172" 
d="M626 1085q157 0 285.5 -86t190.5 -226q60 138 187 225t284 87q112 0 209.5 -42t165 -113t106.5 -168t39 -205q0 -37 -7 -68h-912q11 -166 126 -279.5t284 -113.5q199 0 343 168l86 -79q-171 -210 -426 -210q-166 0 -296 86t-190 224q-62 -139 -190 -224.5t-285 -85.5
q-152 0 -278 74t-197.5 201t-71.5 280t71.5 280t197.5 201t278 74zM626 100q170 0 287.5 124.5t117.5 305.5q0 180 -117.5 305.5t-287.5 125.5t-288 -125.5t-118 -305.5q0 -181 117.5 -305.5t288.5 -124.5zM1573 965q-149 0 -260 -103.5t-133 -255.5h768q-18 156 -122 257.5
t-253 101.5z" />
    <glyph glyph-name="Racute" unicode="&#x154;" horiz-adv-x="1214" 
d="M567 561h-243v-561h-144v1434h432q224 0 357 -119.5t133 -317.5q0 -172 -102.5 -286t-278.5 -142l405 -569h-159zM956 997q0 142 -94 227t-254 85h-284v-623h284q160 0 254 84.5t94 226.5zM485 1585l277 332l92 -80l-292 -316z" />
    <glyph glyph-name="racute" unicode="&#x155;" horiz-adv-x="793" 
d="M753 1078l-14 -131q-47 14 -97 14q-139 0 -243 -103t-104 -246v-612h-139v1061h139v-182q57 93 156 149.5t219 56.5q45 0 83 -7zM284 1253l277 332l92 -80l-292 -316z" />
    <glyph glyph-name="Rcommaaccent" unicode="&#x156;" horiz-adv-x="1214" 
d="M567 561h-243v-561h-144v1434h432q224 0 357 -119.5t133 -317.5q0 -172 -102.5 -286t-278.5 -142l405 -569h-159zM956 997q0 142 -94 227t-254 85h-284v-623h284q160 0 254 84.5t94 226.5zM402 -446l214 338l101 -74l-233 -323z" />
    <glyph glyph-name="rcommaaccent" unicode="&#x157;" horiz-adv-x="793" 
d="M753 1078l-14 -131q-47 14 -97 14q-139 0 -243 -103t-104 -246v-612h-139v1061h139v-182q57 93 156 149.5t219 56.5q45 0 83 -7zM84 -446l214 338l100 -74l-232 -323z" />
    <glyph glyph-name="Rcaron" unicode="&#x158;" horiz-adv-x="1214" 
d="M567 561h-243v-561h-144v1434h432q224 0 357 -119.5t133 -317.5q0 -172 -102.5 -286t-278.5 -142l405 -569h-159zM956 997q0 142 -94 227t-254 85h-284v-623h284q160 0 254 84.5t94 226.5zM644 1548h-119l-262 306l74 64l248 -263l248 263l73 -64z" />
    <glyph glyph-name="rcaron" unicode="&#x159;" horiz-adv-x="793" 
d="M753 1078l-14 -131q-47 14 -97 14q-139 0 -243 -103t-104 -246v-612h-139v1061h139v-182q57 93 156 149.5t219 56.5q45 0 83 -7zM454 1196h-119l-262 306l73 64l248 -263l248 263l74 -64z" />
    <glyph glyph-name="Sacute" unicode="&#x15a;" horiz-adv-x="1191" 
d="M128 220l77 83q77 -89 179.5 -145t213.5 -56q156 0 255 74.5t99 194.5q0 233 -368 309q-216 44 -329.5 146.5t-113.5 252.5q0 166 123.5 272.5t319.5 106.5q91 0 171.5 -23.5t146.5 -69t109 -120.5t53 -171h-145q-17 123 -107 190t-220 67q-135 0 -220 -68t-85 -173
q0 -212 356 -291q234 -53 344.5 -158.5t110.5 -267.5q0 -174 -135.5 -286t-356.5 -112q-279 0 -478 245zM447 1585l277 332l92 -80l-292 -316z" />
    <glyph glyph-name="sacute" unicode="&#x15b;" horiz-adv-x="944" 
d="M91 166l69 79q132 -149 314 -149q115 0 183.5 51.5t68.5 135.5q0 158 -268 209q-171 32 -257.5 110t-86.5 195q0 124 94.5 206t252.5 82q153 0 251 -77t121 -214h-140q-12 74 -71 122.5t-152 48.5q-97 0 -157 -48.5t-60 -121.5q0 -66 64.5 -116.5t185.5 -74.5
q362 -70 362 -323q0 -134 -103 -220t-280 -86q-237 0 -391 191zM350 1253l277 332l92 -80l-292 -316z" />
    <glyph glyph-name="Scircumflex" unicode="&#x15c;" horiz-adv-x="1191" 
d="M128 220l77 83q77 -89 179.5 -145t213.5 -56q156 0 255 74.5t99 194.5q0 233 -368 309q-216 44 -329.5 146.5t-113.5 252.5q0 166 123.5 272.5t319.5 106.5q91 0 171.5 -23.5t146.5 -69t109 -120.5t53 -171h-145q-17 123 -107 190t-220 67q-135 0 -220 -68t-85 -173
q0 -212 356 -291q234 -53 344.5 -158.5t110.5 -267.5q0 -174 -135.5 -286t-356.5 -112q-279 0 -478 245zM525 1888h119l262 -306l-73 -64l-248 263l-248 -263l-74 64z" />
    <glyph glyph-name="scircumflex" unicode="&#x15d;" horiz-adv-x="944" 
d="M91 166l69 79q132 -149 314 -149q115 0 183.5 51.5t68.5 135.5q0 158 -268 209q-171 32 -257.5 110t-86.5 195q0 124 94.5 206t252.5 82q153 0 251 -77t121 -214h-140q-12 74 -71 122.5t-152 48.5q-97 0 -157 -48.5t-60 -121.5q0 -66 64.5 -116.5t185.5 -74.5
q362 -70 362 -323q0 -134 -103 -220t-280 -86q-237 0 -391 191zM399 1557h119l262 -306l-73 -64l-248 263l-248 -263l-74 64z" />
    <glyph glyph-name="Scedilla" unicode="&#x15e;" horiz-adv-x="1191" 
d="M636 -209q-36 0 -56 -6l-27 17v176q-249 21 -425 242l77 83q77 -89 179.5 -145t213.5 -56q156 0 255 74.5t99 194.5q0 233 -368 309q-216 44 -329.5 146.5t-113.5 252.5q0 166 123.5 272.5t319.5 106.5q91 0 171.5 -23.5t146.5 -69t109 -120.5t53 -171h-145
q-17 123 -107 190t-220 67q-135 0 -220 -68t-85 -173q0 -212 356 -291q234 -53 344.5 -158.5t110.5 -267.5q0 -164 -120.5 -273.5t-321.5 -122.5v-109q104 -2 161 -58t57 -138q0 -88 -68.5 -146t-173.5 -58q-95 0 -164 52.5t-84 144.5h111q10 -52 46 -79.5t85 -27.5
q61 0 99 33t38 83q0 48 -38.5 82.5t-88.5 34.5z" />
    <glyph glyph-name="scedilla" unicode="&#x15f;" horiz-adv-x="944" 
d="M499 -209q-37 0 -57 -6l-26 17v178q-194 22 -325 186l69 79q132 -149 314 -149q115 0 183.5 51.5t68.5 135.5q0 158 -268 209q-171 32 -257.5 110t-86.5 195q0 124 94.5 206t252.5 82q153 0 251 -77t121 -214h-140q-12 74 -71 122.5t-152 48.5q-97 0 -157 -48.5
t-60 -121.5q0 -66 64.5 -116.5t185.5 -74.5q362 -70 362 -323q0 -127 -92.5 -211t-253.5 -94v-108q104 -2 161 -58t57 -138q0 -88 -68.5 -146t-173.5 -58q-95 0 -164 52.5t-84 144.5h110q10 -52 46 -79.5t85 -27.5q61 0 99.5 33t38.5 83q0 48 -38.5 82.5t-88.5 34.5z" />
    <glyph glyph-name="Scaron" unicode="&#x160;" horiz-adv-x="1191" 
d="M128 220l77 83q77 -89 179.5 -145t213.5 -56q156 0 255 74.5t99 194.5q0 233 -368 309q-216 44 -329.5 146.5t-113.5 252.5q0 166 123.5 272.5t319.5 106.5q91 0 171.5 -23.5t146.5 -69t109 -120.5t53 -171h-145q-17 123 -107 190t-220 67q-135 0 -220 -68t-85 -173
q0 -212 356 -291q234 -53 344.5 -158.5t110.5 -267.5q0 -174 -135.5 -286t-356.5 -112q-279 0 -478 245zM650 1548h-119l-262 306l74 64l248 -263l248 263l73 -64z" />
    <glyph glyph-name="scaron" unicode="&#x161;" horiz-adv-x="944" 
d="M91 166l69 79q132 -149 314 -149q115 0 183.5 51.5t68.5 135.5q0 158 -268 209q-171 32 -257.5 110t-86.5 195q0 124 94.5 206t252.5 82q153 0 251 -77t121 -214h-140q-12 74 -71 122.5t-152 48.5q-97 0 -157 -48.5t-60 -121.5q0 -66 64.5 -116.5t185.5 -74.5
q362 -70 362 -323q0 -134 -103 -220t-280 -86q-237 0 -391 191zM522 1196h-119l-262 306l74 64l248 -263l248 263l73 -64z" />
    <glyph glyph-name="Tcommaaccent" unicode="&#x162;" horiz-adv-x="1112" 
d="M484 0v1309h-418v125h982v-125h-420v-1309h-19v-132q104 -2 160.5 -58t56.5 -138q0 -88 -68.5 -146t-173.5 -58q-94 0 -163 52.5t-85 144.5h111q9 -51 45.5 -79t85.5 -28q61 0 99 33t38 83q0 49 -38 83t-88 34q-37 0 -57 -6l-26 17v198h-22z" />
    <glyph glyph-name="tcommaaccent" unicode="&#x163;" horiz-adv-x="773" 
d="M437 -209q-36 0 -56 -6l-27 17v245q-100 85 -100 277v614h-227v123h227v285l139 22v-307h312v-123h-312v-612q0 -115 53.5 -171.5t171.5 -56.5q60 0 99 6v-105q-51 -24 -129 -24q-71 0 -130 19v-126q104 -2 160.5 -58t56.5 -138q0 -88 -69 -146t-174 -58q-94 0 -163 52.5
t-85 144.5h112q9 -52 45 -79.5t85 -27.5q61 0 99 33t38 83q0 49 -38 83t-88 34z" />
    <glyph glyph-name="Tcaron" unicode="&#x164;" horiz-adv-x="1113" 
d="M484 0v1309h-418v125h982v-125h-420v-1309h-144zM615 1548h-119l-262 306l74 64l248 -264l248 264l73 -64z" />
    <glyph glyph-name="tcaron" unicode="&#x165;" horiz-adv-x="949" 
d="M393 938v-612q0 -115 53.5 -171.5t171.5 -56.5q60 0 99 6v-105q-51 -24 -129 -24q-334 0 -334 349v614h-227v123h227v269l139 38v-307h312v-123h-312zM701 1431q0 36 27.5 62.5t66.5 26.5q41 0 67.5 -29t26.5 -81q0 -84 -50 -164.5t-134 -120.5l-47 46q123 104 57 214
q-14 24 -14 46z" />
    <glyph glyph-name="Tbar" unicode="&#x166;" horiz-adv-x="1112" 
d="M484 0v660h-286v111h286v538h-418v125h982v-125h-420v-538h286v-111h-286v-660h-144z" />
    <glyph glyph-name="tbar" unicode="&#x167;" horiz-adv-x="773" 
d="M393 938v-339h266v-100h-266v-173q0 -115 53.5 -171.5t171.5 -56.5q60 0 99 6v-105q-51 -24 -129 -24q-334 0 -334 349v175h-178v100h178v339h-227v123h227v285l139 22v-307h312v-123h-312z" />
    <glyph glyph-name="Utilde" unicode="&#x168;" horiz-adv-x="1348" 
d="M1184 1434v-940q0 -231 -144 -374t-366 -143q-145 0 -261 63.5t-182.5 182t-66.5 271.5v940h143v-955q0 -166 103.5 -270.5t263.5 -104.5q159 0 262.5 104.5t103.5 270.5v955h144zM670 1631l-31 26q-3 2 -14 11.5t-14.5 12t-12.5 9.5t-14 9.5t-13 6t-15 5t-14 1.5
q-62 0 -88 -126l-118 24q44 213 184 213q81 0 160 -72q87 -80 126 -80q63 0 87 126l119 -23q-23 -107 -68.5 -160t-117.5 -53t-156 70z" />
    <glyph glyph-name="utilde" unicode="&#x169;" horiz-adv-x="1223" 
d="M929 449v612h139v-1061h-139v182q-58 -94 -157 -150t-218 -56q-183 0 -300.5 118t-117.5 305v662h139v-653q0 -135 85 -221.5t222 -86.5q139 0 243 103t104 246zM597 1299l-31 26q-3 2 -14 11.5t-14.5 12t-12.5 9.5t-14 9.5t-13 6t-15 5t-14 1.5q-62 0 -88 -126l-118 24
q44 213 184 213q81 0 160 -72q87 -80 126 -80q63 0 87 126l119 -23q-23 -107 -68 -160t-117 -53q-73 0 -157 70z" />
    <glyph glyph-name="Umacron" unicode="&#x16a;" horiz-adv-x="1348" 
d="M1184 1434v-940q0 -231 -144 -374t-366 -143q-145 0 -261 63.5t-182.5 182t-66.5 271.5v940h143v-955q0 -166 103.5 -270.5t263.5 -104.5q159 0 262.5 104.5t103.5 270.5v955h144zM387 1644v110h574v-110h-574z" />
    <glyph glyph-name="umacron" unicode="&#x16b;" horiz-adv-x="1223" 
d="M929 449v612h139v-1061h-139v182q-58 -94 -157 -150t-218 -56q-183 0 -300.5 118t-117.5 305v662h139v-653q0 -135 85 -221.5t222 -86.5q139 0 243 103t104 246zM314 1312v110h574v-110h-574z" />
    <glyph glyph-name="Ubreve" unicode="&#x16c;" horiz-adv-x="1348" 
d="M1184 1434v-940q0 -231 -144 -374t-366 -143q-145 0 -261 63.5t-182.5 182t-66.5 271.5v940h143v-955q0 -166 103.5 -270.5t263.5 -104.5q159 0 262.5 104.5t103.5 270.5v955h144zM674 1528q-132 0 -223.5 88.5t-98.5 222.5h126q4 -89 57 -147t139 -58q85 0 137.5 58
t56.5 147h126q-7 -134 -97.5 -222.5t-222.5 -88.5z" />
    <glyph glyph-name="ubreve" unicode="&#x16d;" horiz-adv-x="1223" 
d="M929 449v612h139v-1061h-139v182q-58 -94 -157 -150t-218 -56q-183 0 -300.5 118t-117.5 305v662h139v-653q0 -135 85 -221.5t222 -86.5q139 0 243 103t104 246zM601 1196q-132 0 -223 88.5t-98 222.5h126q4 -89 56.5 -146.5t138.5 -57.5q85 0 138 58t57 146h126
q-7 -134 -98 -222.5t-223 -88.5z" />
    <glyph glyph-name="Uring" unicode="&#x16e;" horiz-adv-x="1348" 
d="M1184 1434v-940q0 -231 -144 -374t-366 -143q-145 0 -261 63.5t-182.5 182t-66.5 271.5v940h143v-955q0 -166 103.5 -270.5t263.5 -104.5q159 0 262.5 104.5t103.5 270.5v955h144zM561 1725q0 -47 33 -79t80 -32t79.5 32t32.5 79t-32.5 79.5t-79.5 32.5t-80 -32.5
t-33 -79.5zM465 1725q0 85 60 141.5t149 56.5t149 -56.5t60 -141.5q0 -84 -60 -140.5t-149 -56.5t-149 56.5t-60 140.5z" />
    <glyph glyph-name="uring" unicode="&#x16f;" horiz-adv-x="1223" 
d="M929 449v612h139v-1061h-139v182q-58 -94 -157 -150t-218 -56q-183 0 -300.5 118t-117.5 305v662h139v-653q0 -135 85 -221.5t222 -86.5q139 0 243 103t104 246zM487 1394q0 -47 33 -79.5t80 -32.5t80 32.5t33 79.5t-33 79t-80 32t-80 -32t-33 -79zM391 1394q0 85 60 141
t149 56t149 -56.5t60 -140.5t-60 -141t-149 -57t-149 57t-60 141z" />
    <glyph glyph-name="Uhungarumlaut" unicode="&#x170;" horiz-adv-x="1348" 
d="M1184 1434v-940q0 -231 -144 -374t-366 -143q-145 0 -261 63.5t-182.5 182t-66.5 271.5v940h143v-955q0 -166 103.5 -270.5t263.5 -104.5q159 0 262.5 104.5t103.5 270.5v955h144zM382 1585l276 332l93 -80l-292 -315zM692 1585l277 332l92 -80l-292 -315z" />
    <glyph glyph-name="uhungarumlaut" unicode="&#x171;" horiz-adv-x="1223" 
d="M929 449v612h139v-1061h-139v182q-58 -94 -157 -150t-218 -56q-183 0 -300.5 118t-117.5 305v662h139v-653q0 -135 85 -221.5t222 -86.5q139 0 243 103t104 246zM271 1253l277 332l92 -80l-292 -315zM582 1253l276 332l92 -80l-292 -315z" />
    <glyph glyph-name="Uogonek" unicode="&#x172;" horiz-adv-x="1348" 
d="M1184 1434v-940q0 -202 -113 -339t-296 -168q-94 -67 -139 -131.5t-45 -139.5q0 -59 34.5 -93t89.5 -34t89 35t43 96h109q-15 -103 -78.5 -162t-171.5 -59q-97 0 -162 60t-65 152q0 151 168 267q-213 9 -348 150.5t-135 365.5v940h143v-955q0 -166 103.5 -270.5
t263.5 -104.5q159 0 262.5 104.5t103.5 270.5v955h144z" />
    <glyph glyph-name="uogonek" unicode="&#x173;" horiz-adv-x="1223" 
d="M955 0h-26v182q-58 -94 -157 -150t-218 -56q-183 0 -300.5 118t-117.5 305v662h139v-653q0 -135 85 -221.5t222 -86.5q139 0 243 103t104 246v612h139v-1061q-104 -72 -153.5 -138.5t-49.5 -145.5q0 -59 34.5 -93t89.5 -34t89 35t43 96h110q-15 -103 -79 -162t-172 -59
q-97 0 -161.5 60t-64.5 152q0 165 201 289z" />
    <glyph glyph-name="Wcircumflex" unicode="&#x174;" horiz-adv-x="1953" 
d="M903 1434h148l354 -1225l342 1225h151l-415 -1434h-148l-358 1235l-359 -1235h-147l-416 1434h152l342 -1225zM917 1888h119l262 -306l-73 -64l-248 263l-248 -263l-74 64z" />
    <glyph glyph-name="wcircumflex" unicode="&#x175;" horiz-adv-x="1581" 
d="M719 1061h143l263 -866l274 866h147l-348 -1061h-143l-264 868l-265 -868h-143l-348 1061h147l274 -866zM731 1557h119l262 -306l-73 -64l-248 263l-248 -263l-74 64z" />
    <glyph glyph-name="Ycircumflex" unicode="&#x176;" horiz-adv-x="1310" 
d="M213 1434l442 -705l443 705h157l-528 -846v-588h-143v588l-529 846h158zM596 1888h119l262 -306l-74 -63l-248 263l-247 -263l-74 63z" />
    <glyph glyph-name="ycircumflex" unicode="&#x177;" horiz-adv-x="1069" 
d="M268 -475l197 483l-430 1053h147l355 -875l350 875h147l-618 -1536h-148zM477 1556h119l262 -306l-74 -63l-247 263l-248 -263l-74 63z" />
    <glyph glyph-name="Ydieresis" unicode="&#x178;" horiz-adv-x="1310" 
d="M213 1434l442 -705l443 705h157l-528 -846v-588h-143v588l-529 846h158zM380 1704q0 40 28 68t69 28q40 0 68 -28t28 -68q0 -41 -28 -68.5t-68 -27.5q-41 0 -69 27.5t-28 68.5zM737 1704q0 40 27.5 68t68.5 28q40 0 68 -28t28 -68q0 -41 -28 -68.5t-68 -27.5
q-41 0 -68.5 27.5t-27.5 68.5z" />
    <glyph glyph-name="Zacute" unicode="&#x179;" horiz-adv-x="1217" 
d="M125 125l786 1184h-755v125h925v-125l-786 -1184h807v-125h-977v125zM489 1585l277 332l92 -80l-292 -316z" />
    <glyph glyph-name="zacute" unicode="&#x17a;" horiz-adv-x="1026" 
d="M102 0v123l627 815h-600v123h768v-123l-625 -815h646v-123h-816zM356 1253l277 332l92 -80l-292 -316z" />
    <glyph glyph-name="Zdotaccent" unicode="&#x17b;" horiz-adv-x="1217" 
d="M125 125l786 1184h-755v125h925v-125l-786 -1184h807v-125h-977v125zM516 1704q0 40 28 68t68 28t68 -28t28 -68q0 -41 -28 -68.5t-68 -27.5t-68 27.5t-28 68.5z" />
    <glyph glyph-name="zdotaccent" unicode="&#x17c;" horiz-adv-x="1026" 
d="M102 0v123l627 815h-600v123h768v-123l-625 -815h646v-123h-816zM420 1372q0 40 28 68t68 28t68 -28t28 -68q0 -41 -28 -68.5t-68 -27.5t-68 27.5t-28 68.5z" />
    <glyph glyph-name="Zcaron" unicode="&#x17d;" horiz-adv-x="1217" 
d="M125 125l786 1184h-755v125h925v-125l-786 -1184h807v-125h-977v125zM674 1548h-119l-262 306l74 64l247 -263l248 263l74 -64z" />
    <glyph glyph-name="zcaron" unicode="&#x17e;" horiz-adv-x="1026" 
d="M102 0v123l627 815h-600v123h768v-123l-625 -815h646v-123h-816zM572 1196h-118l-263 306l74 64l248 -263l248 263l74 -64z" />
    <glyph glyph-name="longs" unicode="&#x17f;" horiz-adv-x="756" 
d="M709 1487v-121q-39 6 -95 6q-120 0 -174.5 -61.5t-54.5 -182.5v-1128h-139v938h-199v123h199v69q0 365 358 365q51 0 105 -8z" />
    <glyph glyph-name="uni0191" unicode="&#x191;" horiz-adv-x="1067" 
d="M180 -109v1543h801v-125h-657v-525h602v-125h-602v-770q0 -364 -355 -364q-46 0 -102 8v121q41 -6 90 -6q116 0 169.5 61.5t53.5 181.5z" />
    <glyph glyph-name="florin" unicode="&#x192;" horiz-adv-x="756" 
d="M246 -109v1047h-199v123h199v69q0 365 358 365q51 0 105 -8v-121q-39 6 -95 6q-120 0 -174.5 -61.5t-54.5 -182.5v-67h324v-123h-324v-1049q0 -364 -358 -364q-51 0 -105 8v121q39 -6 94 -6q120 0 175 61.5t55 181.5z" />
    <glyph glyph-name="Aringacute" unicode="&#x1fa;" horiz-adv-x="1380" 
d="M57 0l532 1370q-46 22 -73.5 63.5t-27.5 92.5q0 77 58 129.5t144 52.5t143.5 -52.5t57.5 -129.5q0 -51 -26.5 -92.5t-72.5 -63.5l531 -1370h-158l-147 393h-656l-147 -393h-158zM974 518l-284 754l-283 -754h567zM585 1526q0 -41 29.5 -68.5t75.5 -27.5q45 0 75 27.5
t30 68.5t-30 68.5t-75 27.5t-75 -27.5t-30 -68.5zM549 1785l234 252l87 -77l-249 -240z" />
    <glyph glyph-name="aringacute" unicode="&#x1fb;" horiz-adv-x="1311" 
d="M79 530q0 151 65 277.5t185 202t270 75.5q133 0 241 -60t177 -164v200h139v-1061h-139v199q-69 -104 -177.5 -164t-240.5 -60q-150 0 -270 75.5t-185 201.5t-65 278zM220 530q0 -178 113 -304t287 -126q173 0 285 125.5t112 304.5t-111 305t-286 126q-116 0 -208.5 -59
t-142 -157.5t-49.5 -214.5zM436 1361q0 84 60 141t149 57t149 -57t60 -141t-60 -141t-149 -57t-149 57t-60 141zM537 1650l235 252l86 -77l-250 -240zM532 1361q0 -47 33 -79.5t80 -32.5t80 32.5t33 79.5t-33 79.5t-80 32.5t-80 -32.5t-33 -79.5z" />
    <glyph glyph-name="AEacute" unicode="&#x1fc;" horiz-adv-x="1886" 
d="M201 0h-164l836 1434h870v-125h-662v-527h609v-125h-609v-532h680v-125h-823v393h-509zM499 518h439v757zM860 1585l277 332l92 -80l-292 -316z" />
    <glyph glyph-name="aeacute" unicode="&#x1fd;" horiz-adv-x="2062" 
d="M1178 489q11 -166 128.5 -279.5t290.5 -113.5q103 0 194.5 44.5t159.5 123.5l81 -76q-162 -213 -431 -213q-281 0 -426 225v-200h-140v199q-69 -104 -177.5 -164t-240.5 -60q-150 0 -270 75.5t-185 201.5t-65 278q0 151 65 277.5t185 202t270 75.5q133 0 241 -60
t177 -164v200h140v-201q71 112 176.5 168.5t234.5 56.5q152 0 274 -71t189.5 -191.5t67.5 -265.5q0 -32 -8 -68h-931zM239 530q0 -116 50 -214t142 -157t207 -59q173 0 285 125.5t112 304.5t-111 305t-286 126q-116 0 -208 -59t-141.5 -157.5t-49.5 -214.5zM1586 965
q-152 0 -266 -103.5t-137 -255.5h788q-17 156 -124 257.5t-261 101.5zM914 1253l277 332l92 -80l-292 -315z" />
    <glyph glyph-name="Oslashacute" unicode="&#x1fe;" horiz-adv-x="1656" 
d="M733 1585l277 332l92 -80l-292 -315zM828 1458q224 0 407 -118l146 186l93 -62l-150 -190q117 -102 182.5 -246.5t65.5 -310.5q0 -154 -58 -292t-156.5 -236.5t-236.5 -156t-293 -57.5q-237 0 -426 129l-153 -196l-92 61l159 204q-109 101 -170 242t-61 302
q0 154 57.5 291.5t156.5 236t236.5 156t292.5 57.5zM828 102q165 0 302.5 82t216.5 223t79 310q0 131 -49.5 247t-138.5 201l-752 -955q150 -108 342 -108zM230 717q0 -126 45.5 -237.5t126.5 -196.5l750 951q-146 97 -324 97q-123 0 -234 -48t-191 -130t-126.5 -196
t-46.5 -240z" />
    <glyph glyph-name="oslashacute" unicode="&#x1ff;" horiz-adv-x="1285" 
d="M542 1253l276 332l92 -80l-292 -315zM642 1085q169 0 307 -88l127 158l83 -64l-126 -158q82 -76 127 -181t45 -222q0 -150 -72 -277t-202 -202.5t-289 -75.5q-169 0 -307 87l-125 -155l-83 64l125 155q-83 77 -128 181.5t-45 222.5q0 150 72 277t202 202.5t289 75.5z
M642 100q178 0 300 126.5t122 303.5q0 174 -116 296l-530 -660q99 -66 224 -66zM220 530q0 -173 117 -298l530 662q-104 67 -225 67q-178 0 -300 -127t-122 -304z" />
    <glyph glyph-name="Scommaaccent" unicode="&#x218;" horiz-adv-x="1191" 
d="M128 220l77 83q77 -89 179.5 -145t213.5 -56q156 0 255 74.5t99 194.5q0 233 -368 309q-216 44 -329.5 146.5t-113.5 252.5q0 166 123.5 272.5t319.5 106.5q91 0 171.5 -23.5t146.5 -69t109 -120.5t53 -171h-145q-17 123 -107 190t-220 67q-135 0 -220 -68t-85 -173
q0 -212 356 -291q234 -53 344.5 -158.5t110.5 -267.5q0 -174 -135.5 -286t-356.5 -112q-279 0 -478 245zM426 -446l214 338l100 -74l-232 -323z" />
    <glyph glyph-name="scommaaccent" unicode="&#x219;" horiz-adv-x="944" 
d="M91 166l69 79q132 -149 314 -149q115 0 183.5 51.5t68.5 135.5q0 158 -268 209q-171 32 -257.5 110t-86.5 195q0 124 94.5 206t252.5 82q153 0 251 -77t121 -214h-140q-12 74 -71 122.5t-152 48.5q-97 0 -157 -48.5t-60 -121.5q0 -66 64.5 -116.5t185.5 -74.5
q362 -70 362 -323q0 -134 -103 -220t-280 -86q-237 0 -391 191zM305 -446l214 338l101 -74l-233 -323z" />
    <glyph glyph-name="uni021A" unicode="&#x21a;" horiz-adv-x="1113" 
d="M484 0v1309h-418v125h982v-125h-420v-1309h-144zM386 -446l214 338l100 -74l-232 -323z" />
    <glyph glyph-name="uni021B" unicode="&#x21b;" horiz-adv-x="773" 
d="M393 938v-612q0 -115 53.5 -171.5t171.5 -56.5q60 0 99 6v-105q-51 -24 -129 -24q-334 0 -334 349v614h-227v123h227v269l139 38v-307h312v-123h-312zM249 -446l214 338l100 -74l-232 -323z" />
    <glyph glyph-name="dotlessj" unicode="&#x237;" horiz-adv-x="528" 
d="M195 -170v1231h139v-1229q0 -307 -283 -307q-49 0 -78 4v121q18 -2 64 -2q158 0 158 182z" />
    <glyph glyph-name="apostrophe" unicode="&#x2bc;" horiz-adv-x="843" 
d="M331 1400q0 36 27 62.5t66 26.5q41 0 67.5 -29t26.5 -81q0 -84 -50 -164t-134 -120l-46 46q122 103 56 214q-13 22 -13 45z" />
    <glyph glyph-name="circumflex" unicode="&#x2c6;" horiz-adv-x="843" 
d="M362 1489h119l262 -306l-73 -64l-248 263l-248 -263l-74 64z" />
    <glyph glyph-name="caron" unicode="&#x2c7;" horiz-adv-x="843" 
d="M481 1149h-119l-262 306l74 64l248 -264l248 264l73 -64z" />
    <glyph glyph-name="uni02C9" unicode="&#x2c9;" horiz-adv-x="843" 
d="M135 1265v110h574v-110h-574z" />
    <glyph glyph-name="breve" unicode="&#x2d8;" horiz-adv-x="843" 
d="M422 1157q-132 0 -223.5 88.5t-98.5 222.5h126q4 -89 57 -146.5t139 -57.5q85 0 137.5 57.5t56.5 146.5h126q-7 -134 -97.5 -222.5t-222.5 -88.5z" />
    <glyph glyph-name="dotaccent" unicode="&#x2d9;" horiz-adv-x="843" 
d="M326 1323q0 40 28 68t68 28t68 -28t28 -68q0 -41 -28 -68.5t-68 -27.5t-68 27.5t-28 68.5z" />
    <glyph glyph-name="ring" unicode="&#x2da;" horiz-adv-x="843" 
d="M309 1316q0 -47 33 -79.5t80 -32.5t80 32.5t33 79.5t-33 79t-80 32t-80 -32t-33 -79zM213 1316q0 85 60 141t149 56t149 -56.5t60 -140.5t-60 -141t-149 -57t-149 57t-60 141z" />
    <glyph glyph-name="ogonek" unicode="&#x2db;" horiz-adv-x="843" 
d="M403 0h113q-104 -72 -153.5 -138.5t-49.5 -145.5q0 -59 34.5 -93t89.5 -34t89 35t43 96h110q-15 -103 -79 -162t-172 -59q-97 0 -161.5 60t-64.5 152q0 165 201 289z" />
    <glyph glyph-name="tilde" unicode="&#x2dc;" horiz-adv-x="843" 
d="M418 1252l-31 26q-3 2 -14 11.5t-14.5 12t-12.5 9.5t-14 9.5t-13 6t-15 5t-14 1.5q-62 0 -88 -126l-118 24q44 213 184 213q81 0 160 -72q87 -80 126 -80q63 0 87 126l119 -23q-23 -107 -68.5 -160t-117.5 -53t-156 70z" />
    <glyph glyph-name="hungarumlaut" unicode="&#x2dd;" horiz-adv-x="843" 
d="M138 1192l277 332l92 -80l-292 -316zM449 1192l276 332l92 -80l-292 -316z" />
    <glyph glyph-name="gravecomb" unicode="&#x300;" horiz-adv-x="0" 
d="M-557 1523l276 -331l-75 -64l-292 316z" />
    <glyph glyph-name="acutecomb" unicode="&#x301;" horiz-adv-x="0" 
d="M-545 1192l277 332l92 -80l-292 -316z" />
    <glyph glyph-name="uni0302" unicode="&#x302;" horiz-adv-x="0" 
d="M-481 1489h119l262 -306l-74 -64l-248 263l-248 -263l-73 64z" />
    <glyph glyph-name="tildecomb" unicode="&#x303;" horiz-adv-x="0" 
d="M-426 1252l-31 26q-3 2 -14 11.5t-14.5 12t-12.5 9.5t-14 9.5t-13 6t-15 5t-14 1.5q-62 0 -88 -126l-118 24q44 213 185 213q80 0 159 -72q87 -80 126 -80q63 0 87 126l119 -23q-23 -107 -68 -160t-117 -53q-73 0 -157 70z" />
    <glyph glyph-name="uni0304" unicode="&#x304;" horiz-adv-x="0" 
d="M-709 1267v110h574v-110h-574z" />
    <glyph glyph-name="uni0306" unicode="&#x306;" horiz-adv-x="0" 
d="M-422 1157q-132 0 -223 88.5t-98 222.5h126q4 -89 56.5 -146.5t138.5 -57.5q85 0 138 58t57 146h126q-7 -134 -98 -222.5t-223 -88.5z" />
    <glyph glyph-name="uni0307" unicode="&#x307;" horiz-adv-x="0" 
d="M-518 1323q0 40 28 68t68 28t68 -28t28 -68q0 -41 -28 -68.5t-68 -27.5t-68 27.5t-28 68.5z" />
    <glyph glyph-name="uni0308" unicode="&#x308;" horiz-adv-x="0" 
d="M-696 1323q0 40 27.5 68t68.5 28q40 0 68 -28t28 -68q0 -41 -28 -68.5t-68 -27.5q-41 0 -68.5 27.5t-27.5 68.5zM-340 1323q0 40 27.5 68t68.5 28q40 0 68.5 -28t28.5 -68t-28 -68t-69 -28t-68.5 27.5t-27.5 68.5z" />
    <glyph glyph-name="uni030A" unicode="&#x30a;" horiz-adv-x="0" 
d="M-535 1316q0 -47 33 -79.5t80 -32.5t80 32.5t33 79.5t-33 79t-80 32t-80 -32t-33 -79zM-631 1316q0 85 60 141t149 56t149 -56.5t60 -140.5t-60 -141t-149 -57t-149 57t-60 141z" />
    <glyph glyph-name="uni030C" unicode="&#x30c;" horiz-adv-x="0" 
d="M-362 1149h-119l-262 306l73 64l248 -264l248 264l74 -64z" />
    <glyph glyph-name="uni0327" unicode="&#x327;" horiz-adv-x="0" 
d="M-430 -209q-36 0 -56 -6l-27 17v198h103v-132q104 -2 160.5 -58t56.5 -138q0 -88 -68.5 -146t-173.5 -58q-94 0 -163 52.5t-85 144.5h112q9 -52 45 -79.5t85 -27.5q61 0 99 33t38 83q0 49 -38 83t-88 34z" />
    <glyph glyph-name="tonos" unicode="&#x384;" horiz-adv-x="843" 
d="M268 1165l218 355l102 -74l-237 -339z" />
    <glyph glyph-name="dieresistonos" unicode="&#x385;" horiz-adv-x="843" 
d="M144 1167q0 41 29 70t71 29t70.5 -28.5t28.5 -70.5q0 -41 -28.5 -69.5t-70.5 -28.5q-43 0 -71.5 28.5t-28.5 69.5zM501 1167q0 42 28.5 70.5t70.5 28.5t70.5 -28.5t28.5 -70.5q0 -41 -28.5 -69.5t-70.5 -28.5t-70.5 28.5t-28.5 69.5zM332 1349l248 298l90 -78l-263 -282z
" />
    <glyph glyph-name="Alphatonos" unicode="&#x386;" horiz-adv-x="1394" 
d="M1337 0h-157l-148 393h-655l-148 -393h-157l554 1434h157zM421 518h567l-283 754zM43 1104l218 354l101 -74l-236 -338z" />
    <glyph glyph-name="anoteleia" unicode="&#x387;" horiz-adv-x="602" 
d="M197 618q0 44 30 74.5t74 30.5t74.5 -30.5t30.5 -74.5t-30.5 -74t-74.5 -30t-74 30t-30 74z" />
    <glyph glyph-name="Epsilontonos" unicode="&#x388;" horiz-adv-x="1470" 
d="M506 0v1434h821v-125h-678v-527h623v-125h-623v-532h697v-125h-840zM43 1104l218 354l101 -74l-236 -338z" />
    <glyph glyph-name="Etatonos" unicode="&#x389;" horiz-adv-x="1738" 
d="M506 0v1434h143v-652h766v652h144v-1434h-144v657h-766v-657h-143zM43 1104l218 354l101 -74l-236 -338z" />
    <glyph glyph-name="Iotatonos" unicode="&#x38a;" horiz-adv-x="866" 
d="M506 1434h143v-1434h-143v1434zM43 1104l218 354l101 -74l-236 -338z" />
    <glyph glyph-name="Omicrontonos" unicode="&#x38c;" horiz-adv-x="1867" 
d="M1039 102q165 0 302.5 82t216.5 223t79 310q0 126 -46.5 240t-126.5 196t-191 130t-234 48t-234 -48t-191 -130t-126.5 -196t-46.5 -240q0 -169 79 -310t216.5 -223t302.5 -82zM1039 1458q206 0 377 -97.5t269 -267.5t98 -376q0 -154 -58 -292t-156.5 -236.5t-236.5 -156
t-293 -57.5t-292.5 57.5t-236.5 156.5t-156.5 236.5t-57.5 291.5t57.5 291.5t156.5 236t236.5 156t292.5 57.5zM43 1104l218 354l101 -74l-236 -338z" />
    <glyph glyph-name="Upsilontonos" unicode="&#x38e;" horiz-adv-x="1708" 
d="M610 1434l443 -705l442 705h158l-529 -846v-588h-143v588l-528 846h157zM43 1104l218 354l101 -74l-236 -338z" />
    <glyph glyph-name="Omegatonos" unicode="&#x38f;" horiz-adv-x="1824" 
d="M43 1104l218 354l101 -74l-236 -338zM1583 748q0 120 -44 228t-119.5 186t-179.5 123.5t-220 45.5t-220.5 -45.5t-179.5 -123.5t-119 -186t-44 -228q0 -191 108 -352t336 -273v-123h-573v127h384q-203 114 -302 275.5t-99 355.5q0 144 55.5 273.5t150 223t226 148.5
t277.5 55t277.5 -55t226 -148.5t150 -223t55.5 -273.5q0 -194 -99 -355.5t-303 -275.5h385v-127h-573v123q154 76 255 178t145 212t44 235z" />
    <glyph glyph-name="iotadieresistonos" unicode="&#x390;" horiz-adv-x="560" 
d="M195 221v840h139v-807q0 -131 126 -131h53v-121q-44 -2 -77 -2q-241 0 -241 221zM-13 1305q0 41 28.5 69.5t70.5 28.5t70.5 -28.5t28.5 -69.5q0 -42 -28.5 -70.5t-70.5 -28.5t-70.5 28.5t-28.5 70.5zM343 1305q0 41 28.5 69.5t70.5 28.5q43 0 71.5 -28.5t28.5 -69.5
t-29 -70t-71 -29t-70.5 28.5t-28.5 70.5zM174 1486l248 298l90 -78l-263 -282z" />
    <glyph glyph-name="Alpha" unicode="&#x391;" horiz-adv-x="1380" 
d="M1323 0h-158l-147 393h-656l-147 -393h-158l554 1434h158zM407 518h567l-284 754z" />
    <glyph glyph-name="Beta" unicode="&#x392;" horiz-adv-x="1253" 
d="M711 0h-531v1434h484q186 0 294.5 -102.5t108.5 -270.5q0 -116 -60.5 -196t-158.5 -109q129 -23 215 -118t86 -239q0 -178 -120.5 -288.5t-317.5 -110.5zM922 1055q0 116 -74.5 185t-194.5 69h-329v-506h329q120 0 194.5 68t74.5 184zM1004 403q0 125 -85 202t-221 77
h-374v-557h374q136 0 221 76.5t85 201.5z" />
    <glyph glyph-name="Gamma" unicode="&#x393;" horiz-adv-x="1050" 
d="M180 0v1434h815v-125h-671v-1309h-144z" />
    <glyph glyph-name="uni0394" unicode="&#x394;" horiz-adv-x="1380" 
d="M769 1434l554 -1434h-1266l554 1434h158zM690 1272l-433 -1147h865z" />
    <glyph glyph-name="Epsilon" unicode="&#x395;" horiz-adv-x="1144" 
d="M180 0v1434h821v-125h-677v-527h622v-125h-622v-532h696v-125h-840z" />
    <glyph glyph-name="Zeta" unicode="&#x396;" horiz-adv-x="1217" 
d="M125 125l786 1184h-755v125h925v-125l-786 -1184h807v-125h-977v125z" />
    <glyph glyph-name="Eta" unicode="&#x397;" horiz-adv-x="1413" 
d="M180 0v1434h144v-652h766v652h143v-1434h-143v657h-766v-657h-144z" />
    <glyph glyph-name="Theta" unicode="&#x398;" horiz-adv-x="1656" 
d="M534 655v122h589v-122h-589zM828 102q165 0 302.5 82t216.5 223t79 310q0 126 -46.5 240t-126.5 196t-191 130t-234 48t-234 -48t-191 -130t-126.5 -196t-46.5 -240q0 -169 79 -310t216.5 -223t302.5 -82zM828 1458q206 0 377 -97.5t269 -267.5t98 -376q0 -154 -58 -292
t-156.5 -236.5t-236.5 -156t-293 -57.5t-292.5 57.5t-236.5 156.5t-156.5 236.5t-57.5 291.5t57.5 291.5t156.5 236t236.5 156t292.5 57.5z" />
    <glyph glyph-name="Iota" unicode="&#x399;" horiz-adv-x="577" 
d="M217 1434h143v-1434h-143v1434z" />
    <glyph glyph-name="Kappa" unicode="&#x39a;" horiz-adv-x="1214" 
d="M324 1434v-652h126q254 0 376.5 161t122.5 490h144q0 -586 -357 -728l464 -705h-170l-437 666q-65 -9 -115 -9h-154v-657h-144v1434h144z" />
    <glyph glyph-name="Lambda" unicode="&#x39b;" horiz-adv-x="1380" 
d="M1165 0l-475 1262l-475 -1262h-158l554 1434h158l554 -1434h-158z" />
    <glyph glyph-name="Mu" unicode="&#x39c;" horiz-adv-x="1724" 
d="M957 202h-78l-560 949v-1151h-139v1434h133l606 -1032l604 1032h134v-1434h-139v1151z" />
    <glyph glyph-name="Nu" unicode="&#x39d;" horiz-adv-x="1423" 
d="M180 0v1434h137l787 -1184v1184h139v-1434h-137l-787 1184v-1184h-139z" />
    <glyph glyph-name="Xi" unicode="&#x39e;" horiz-adv-x="1191" 
d="M143 1309v125h906v-125h-906zM125 0v125h942v-125h-942zM984 656h-786v125h786v-125z" />
    <glyph glyph-name="Omicron" unicode="&#x39f;" horiz-adv-x="1656" 
d="M828 102q165 0 302.5 82t216.5 223t79 310q0 126 -46.5 240t-126.5 196t-191 130t-234 48t-234 -48t-191 -130t-126.5 -196t-46.5 -240q0 -169 79 -310t216.5 -223t302.5 -82zM828 1458q206 0 377 -97.5t269 -267.5t98 -376q0 -154 -58 -292t-156.5 -236.5t-236.5 -156
t-293 -57.5t-292.5 57.5t-236.5 156.5t-156.5 236.5t-57.5 291.5t57.5 291.5t156.5 236t236.5 156t292.5 57.5z" />
    <glyph glyph-name="Pi" unicode="&#x3a0;" horiz-adv-x="1374" 
d="M1194 1434v-1434h-143v1309h-727v-1309h-144v1434h1014z" />
    <glyph glyph-name="Rho" unicode="&#x3a1;" horiz-adv-x="1181" 
d="M612 561h-288v-561h-144v1434h432q224 0 357 -119.5t133 -317.5t-133 -317t-357 -119zM956 997q0 142 -94 227t-254 85h-284v-623h284q160 0 254 84.5t94 226.5z" />
    <glyph glyph-name="Sigma" unicode="&#x3a3;" horiz-adv-x="1173" 
d="M126 123l466 596l-466 592v123h922v-125h-746l443 -561v-60l-445 -563h748v-125h-922v123z" />
    <glyph glyph-name="Tau" unicode="&#x3a4;" horiz-adv-x="1113" 
d="M484 0v1309h-418v125h982v-125h-420v-1309h-144z" />
    <glyph glyph-name="Upsilon" unicode="&#x3a5;" horiz-adv-x="1310" 
d="M213 1434l442 -705l443 705h157l-528 -846v-588h-143v588l-529 846h158z" />
    <glyph glyph-name="Phi" unicode="&#x3a6;" horiz-adv-x="1529" 
d="M693 322v786q-196 0 -332.5 -115t-136.5 -278t136.5 -278t332.5 -115zM837 0h-144v197q-168 0 -309 68.5t-223 187.5t-82 262q0 142 82 261.5t223 188t309 68.5v201h144v-201q168 0 309 -68.5t223 -188t82 -261.5q0 -143 -82 -262t-223 -187.5t-309 -68.5v-197zM837 1108
v-786q196 0 332.5 115t136.5 278t-136.5 278t-332.5 115z" />
    <glyph glyph-name="Chi" unicode="&#x3a7;" horiz-adv-x="1276" 
d="M208 0h-160l504 729l-485 705h159l412 -598l412 598h159l-485 -705l504 -729h-160l-430 623z" />
    <glyph glyph-name="Psi" unicode="&#x3a8;" horiz-adv-x="1400" 
d="M772 1434v-963q150 22 248 137.5t98 283.5v542h144v-547q0 -217 -139.5 -370.5t-350.5 -177.5v-339h-143v339q-212 24 -351 177.5t-139 370.5v547h144v-542q0 -168 97.5 -283.5t248.5 -137.5v963h143z" />
    <glyph glyph-name="uni03A9" unicode="&#x3a9;" horiz-adv-x="1609" 
d="M1368 748q0 120 -44 228t-119.5 186t-179.5 123.5t-220 45.5t-220.5 -45.5t-179.5 -123.5t-119 -186t-44 -228q0 -191 108 -352t336 -273v-123h-573v127h384q-203 114 -302 275.5t-99 355.5q0 144 55.5 273.5t150 223t226 148.5t277.5 55q195 0 358 -93.5t256.5 -254
t93.5 -352.5q0 -194 -99 -355.5t-302 -275.5h385v-127h-573v123q154 76 255 178t145 212t44 235z" />
    <glyph glyph-name="Iotadieresis" unicode="&#x3aa;" horiz-adv-x="577" 
d="M217 1434h143v-1434h-143v1434zM14 1704q0 40 28 68t69 28q40 0 68 -28t28 -68q0 -41 -28 -68.5t-68 -27.5q-41 0 -69 27.5t-28 68.5zM371 1704q0 40 27.5 68t68.5 28q40 0 68 -28t28 -68q0 -41 -28 -68.5t-68 -27.5q-41 0 -68.5 27.5t-27.5 68.5z" />
    <glyph glyph-name="Upsilondieresis" unicode="&#x3ab;" horiz-adv-x="1310" 
d="M213 1434l442 -705l443 705h157l-528 -846v-588h-143v588l-529 846h158zM381 1704q0 40 27.5 68t68.5 28q40 0 68 -28t28 -68t-27.5 -68t-68.5 -28t-68.5 27.5t-27.5 68.5zM737 1704q0 40 28 68t69 28q40 0 68 -28t28 -68t-28 -68t-68 -28q-41 0 -69 27.5t-28 68.5z" />
    <glyph glyph-name="alphatonos" unicode="&#x3ac;" horiz-adv-x="1403" 
d="M517 1253l277 332l92 -80l-292 -315zM79 530q0 151 65 277.5t185 202t270 75.5q133 0 241 -60t177 -164v200h139v-807q0 -131 126 -131h58v-121q-44 -2 -82 -2q-110 0 -172.5 62t-62.5 145q-69 -107 -179 -169.5t-245 -62.5q-150 0 -270 75.5t-185 201.5t-65 278z
M220 530q0 -178 113 -304t287 -126q173 0 285 125.5t112 304.5t-111 305t-286 126q-116 0 -208.5 -59t-142 -157.5t-49.5 -214.5z" />
    <glyph glyph-name="epsilontonos" unicode="&#x3ad;" horiz-adv-x="966" 
d="M326 1253l276 332l92 -80l-292 -315zM218 304q0 -87 81 -147.5t199 -60.5q184 0 301 145l85 -72q-70 -97 -163 -145.5t-223 -48.5q-177 0 -298 92.5t-121 228.5q0 100 71.5 175t170.5 101q-93 28 -146 91.5t-53 141.5q0 119 106.5 199.5t263.5 80.5q152 0 261.5 -79.5
t130.5 -215.5h-134q-23 84 -91.5 129.5t-166.5 45.5q-97 0 -164 -48.5t-67 -119.5q0 -72 66.5 -120t164.5 -48h157v-117h-151q-118 0 -199 -60.5t-81 -147.5z" />
    <glyph glyph-name="etatonos" unicode="&#x3ae;" horiz-adv-x="1223" 
d="M295 612v-612h-139v1061h139v-182q57 93 156 149.5t219 56.5q182 0 299.5 -118t117.5 -305v-1137h-139v1128q0 135 -84.5 221.5t-221.5 86.5q-139 0 -243 -103t-104 -246zM473 1253l277 332l92 -80l-292 -315z" />
    <glyph glyph-name="iotatonos" unicode="&#x3af;" horiz-adv-x="560" 
d="M195 221v840h139v-807q0 -131 126 -131h53v-121q-44 -2 -77 -2q-241 0 -241 221zM135 1253l277 332l92 -80l-292 -315z" />
    <glyph glyph-name="upsilondieresistonos" unicode="&#x3b0;" horiz-adv-x="1161" 
d="M581 -25q-188 0 -316.5 126.5t-128.5 310.5v649h139v-643q0 -135 88.5 -226.5t217.5 -91.5t217 91.5t88 226.5v643h139v-649q0 -185 -128.5 -311t-315.5 -126zM303 1305q0 41 28.5 69.5t70.5 28.5q43 0 71.5 -28.5t28.5 -69.5t-29 -70t-71 -29t-70.5 28.5t-28.5 70.5z
M659 1305q0 41 28.5 69.5t71.5 28.5t71 -28.5t28 -69.5q0 -42 -28.5 -70.5t-70.5 -28.5q-43 0 -71.5 29t-28.5 70zM490 1486l248 298l90 -78l-263 -282z" />
    <glyph glyph-name="alpha" unicode="&#x3b1;" horiz-adv-x="1403" 
d="M79 530q0 151 65 277.5t185 202t270 75.5q133 0 241 -60t177 -164v200h139v-807q0 -131 126 -131h58v-121q-44 -2 -82 -2q-110 0 -172.5 62t-62.5 145q-69 -107 -179 -169.5t-245 -62.5q-150 0 -270 75.5t-185 201.5t-65 278zM220 530q0 -178 113 -304t287 -126
q173 0 285 125.5t112 304.5t-111 305t-286 126q-116 0 -208.5 -59t-142 -157.5t-49.5 -214.5z" />
    <glyph glyph-name="beta" unicode="&#x3b2;" horiz-adv-x="1224" 
d="M413 62l42 102q102 -66 229 -66q142 0 225 95.5t83 240.5q0 144 -103 240t-251 96q-50 0 -100 -16l-58 73l264 482h-437v-1769h-143v1894h739v-125l-250 -448q223 0 352 -119t129 -320q0 -89 -29 -168.5t-83.5 -142t-141 -99.5t-192.5 -37q-151 0 -275 87z" />
    <glyph glyph-name="gamma" unicode="&#x3b3;" horiz-adv-x="1069" 
d="M465 -475v481l-430 1055h147l353 -875l352 875h147l-430 -1055v-481h-139z" />
    <glyph glyph-name="delta" unicode="&#x3b4;" horiz-adv-x="1139" 
d="M75 455q0 132 65 239t174.5 166t239.5 59q23 0 71 -6l-412 402v119h723v-125h-542l531 -522q66 -65 102.5 -152t36.5 -180q0 -134 -68 -245t-182 -173t-247 -62q-131 0 -243.5 62t-180.5 173t-68 245zM216 455q0 -150 102.5 -253.5t250.5 -103.5t251 103.5t103 253.5
q0 149 -103.5 252.5t-250.5 103.5q-148 0 -250.5 -103.5t-102.5 -252.5z" />
    <glyph glyph-name="epsilon" unicode="&#x3b5;" horiz-adv-x="966" 
d="M218 304q0 -87 81 -147.5t199 -60.5q184 0 301 145l85 -72q-70 -97 -163 -145.5t-223 -48.5q-177 0 -298 92.5t-121 228.5q0 100 71.5 175t170.5 101q-93 28 -146 91.5t-53 141.5q0 119 106.5 199.5t263.5 80.5q152 0 261.5 -79.5t130.5 -215.5h-134q-23 84 -91.5 129.5
t-166.5 45.5q-97 0 -164 -48.5t-67 -119.5q0 -72 66.5 -120t164.5 -48h157v-117h-151q-118 0 -199 -60.5t-81 -147.5z" />
    <glyph glyph-name="zeta" unicode="&#x3b6;" horiz-adv-x="946" 
d="M80 381q0 97 47.5 186.5t136.5 196.5l449 545h-535v125h699v-119l-504 -617q-75 -91 -115.5 -166t-40.5 -151q0 -166 209 -258l236 -103q210 -91 210 -251q0 -118 -89 -244h-141q91 122 91 225q0 102 -153 168l-227 96q-131 56 -202 150.5t-71 216.5z" />
    <glyph glyph-name="eta" unicode="&#x3b7;" horiz-adv-x="1223" 
d="M295 612v-612h-139v1061h139v-182q57 93 156 149.5t219 56.5q182 0 299.5 -118t117.5 -305v-1137h-139v1128q0 135 -84.5 221.5t-221.5 86.5q-139 0 -243 -103t-104 -246z" />
    <glyph glyph-name="theta" unicode="&#x3b8;" horiz-adv-x="1297" 
d="M80 717q0 203 72 372t203 269t293 100t293.5 -100t204 -269t72.5 -372t-72.5 -372.5t-204 -269.5t-293.5 -100t-293 100t-203 269.5t-72 372.5zM648 100q114 0 208.5 74.5t151.5 201t65 279.5h-849q8 -153 64.5 -279.5t151.5 -201t208 -74.5zM648 1333q-113 0 -208 -74.5
t-151.5 -201.5t-64.5 -281h849q-8 154 -65 281t-151.5 201.5t-208.5 74.5z" />
    <glyph glyph-name="iota" unicode="&#x3b9;" horiz-adv-x="560" 
d="M195 221v840h139v-807q0 -131 126 -131h53v-121q-44 -2 -77 -2q-241 0 -241 221z" />
    <glyph glyph-name="kappa" unicode="&#x3ba;" horiz-adv-x="1042" 
d="M800 1061h139q0 -197 -74 -327.5t-211 -185.5l372 -548h-164l-349 514q-23 -3 -61 -3h-157v-511h-139v1061h139v-429h138q171 0 269 107.5t98 321.5z" />
    <glyph glyph-name="lambda" unicode="&#x3bb;" horiz-adv-x="1069" 
d="M465 1037l-186 458h147l608 -1495h-147l-351 858l-354 -858h-147z" />
    <glyph glyph-name="uni03BC" unicode="&#x3bc;" horiz-adv-x="1243" 
d="M948 449v612h139v-1061h-139v182q-58 -94 -157 -150t-218 -56q-167 0 -278 106v-557h-139v1536h139v-594q0 -170 75 -268.5t231 -98.5q139 0 243 103t104 246z" />
    <glyph glyph-name="nu" unicode="&#x3bd;" horiz-adv-x="1058" 
d="M1024 1061l-423 -1061h-143l-423 1061h147l347 -877l348 877h147z" />
    <glyph glyph-name="xi" unicode="&#x3be;" horiz-adv-x="956" 
d="M225 385q0 -101 59.5 -179t178.5 -120l196 -72q230 -83 230 -247q0 -111 -98 -242h-143q104 126 104 223q0 103 -160 161l-191 67q-151 54 -233 163.5t-82 241.5q0 136 86 246t221 156q-108 38 -175.5 125.5t-67.5 196.5q0 149 113.5 251t279.5 102q143 0 247.5 -78
t124.5 -212h-136q-17 77 -84.5 125t-151.5 48q-107 0 -180.5 -71.5t-73.5 -177.5t73.5 -178t180.5 -72h211v-117h-183q-146 0 -246 -97.5t-100 -242.5z" />
    <glyph glyph-name="omicron" unicode="&#x3bf;" horiz-adv-x="1285" 
d="M642 100q178 0 300 126.5t122 303.5t-122 304t-300 127t-300 -127t-122 -304t122 -303.5t300 -126.5zM642 1085q159 0 289 -75.5t202 -202.5t72 -277t-72 -277t-202 -202.5t-289 -75.5t-289 75.5t-202 202.5t-72 277t72 277t202 202.5t289 75.5z" />
    <glyph glyph-name="pi" unicode="&#x3c0;" horiz-adv-x="1159" 
d="M367 936v-936h-140v936h-176v125h1057v-125h-176v-936h-139v936h-426z" />
    <glyph glyph-name="rho" unicode="&#x3c1;" horiz-adv-x="1302" 
d="M274 530v-113q35 -144 146 -230.5t250 -86.5q173 0 292 124.5t119 305.5t-116 306t-286 125q-172 0 -288.5 -125t-116.5 -306zM690 -25q-133 0 -241.5 63.5t-174.5 168.5v-682h-139v1005q0 153 70.5 280t195.5 201t279 74q153 0 278 -74t195 -201t70 -280
q0 -151 -69.5 -278t-192 -202t-271.5 -75z" />
    <glyph glyph-name="sigma1" unicode="&#x3c2;" horiz-adv-x="1095" 
d="M79 530q0 150 72 277t202 202.5t289 75.5q224 0 383 -145l-73 -111q-139 132 -310 132q-178 0 -300 -127t-122 -304q0 -138 75.5 -241t215.5 -161l269 -112q206 -85 206 -247q0 -118 -98 -244h-143q103 125 103 226q0 54 -38 93t-112 70l-257 105q-169 69 -265.5 201.5
t-96.5 309.5z" />
    <glyph glyph-name="sigma" unicode="&#x3c3;" horiz-adv-x="1323" 
d="M79 518q0 112 43 212.5t117 173t176 115t215 42.5h642v-125h-335q111 -66 177.5 -179.5t66.5 -248.5q0 -109 -43.5 -207.5t-117 -170t-175.5 -113.5t-215 -42t-215 42.5t-176 115t-117 173t-43 212.5zM1039 518q0 175 -118.5 296.5t-290.5 121.5t-291 -121.5t-119 -296.5
t119 -296.5t291 -121.5t290.5 121t118.5 297z" />
    <glyph glyph-name="tau" unicode="&#x3c4;" horiz-adv-x="992" 
d="M415 280v656h-365v125h891v-125h-387v-653q0 -85 36 -123.5t111 -38.5h64v-121q-44 -2 -78 -2q-141 0 -206.5 67t-65.5 215z" />
    <glyph glyph-name="upsilon" unicode="&#x3c5;" horiz-adv-x="1161" 
d="M581 -25q-188 0 -316.5 126.5t-128.5 310.5v649h139v-643q0 -135 88.5 -226.5t217.5 -91.5t217 91.5t88 226.5v643h139v-649q0 -185 -128.5 -311t-315.5 -126z" />
    <glyph glyph-name="phi" unicode="&#x3c6;" horiz-adv-x="1406" 
d="M278 958l98 -89q-73 -67 -114.5 -154t-41.5 -185q0 -173 119.5 -296t294.5 -132v983h110q163 0 297 -74t210 -201t76 -280q0 -149 -72.5 -274.5t-199.5 -200t-282 -79.5v-451h-139v451q-155 5 -282.5 79.5t-200 200t-72.5 274.5q0 128 54.5 239.5t144.5 188.5zM1186 530
q0 172 -119 295t-294 132v-855q175 9 294 132t119 296z" />
    <glyph glyph-name="chi" unicode="&#x3c7;" horiz-adv-x="1052" 
d="M1032 -475h-151l-355 651l-354 -651h-152l427 786l-406 750h152l333 -616l334 616h152l-407 -750z" />
    <glyph glyph-name="psi" unicode="&#x3c8;" horiz-adv-x="1395" 
d="M768 1061v-952q152 22 251 136.5t99 272.5v543h142v-549q0 -209 -140 -358.5t-352 -171.5v-457h-141v457q-211 22 -351 171.5t-140 358.5v549h142v-543q0 -158 98.5 -272.5t250.5 -136.5v952h141z" />
    <glyph glyph-name="omega" unicode="&#x3c9;" horiz-adv-x="1612" 
d="M806 221q-46 -107 -132.5 -176.5t-194.5 -69.5q-111 0 -203 71.5t-144.5 197t-52.5 276.5q0 255 182 541h140q-181 -292 -181 -541q0 -178 77 -299t190 -121q99 0 174 102t75 240v396h140v-396q0 -138 74.5 -240t174.5 -102q113 0 190 121t77 299q0 249 -181 541h140
q182 -286 182 -541q0 -151 -52.5 -276.5t-144 -197t-202.5 -71.5q-109 0 -195 69t-133 177z" />
    <glyph glyph-name="iotadieresis" unicode="&#x3ca;" horiz-adv-x="560" 
d="M195 221v840h139v-807q0 -131 126 -131h53v-121q-44 -2 -77 -2q-241 0 -241 221zM-10 1372q0 40 27.5 68t68.5 28q40 0 68 -28t28 -68t-28 -68t-68 -28q-41 0 -68.5 27.5t-27.5 68.5zM346 1372q0 40 27.5 68t68.5 28q40 0 68.5 -28t28.5 -68t-28 -68t-69 -28t-68.5 27.5
t-27.5 68.5z" />
    <glyph glyph-name="upsilondieresis" unicode="&#x3cb;" horiz-adv-x="1161" 
d="M581 -25q-188 0 -316.5 126.5t-128.5 310.5v649h139v-643q0 -135 88.5 -226.5t217.5 -91.5t217 91.5t88 226.5v643h139v-649q0 -185 -128.5 -311t-315.5 -126zM306 1372q0 40 27.5 68t68.5 28q40 0 68.5 -28t28.5 -68t-28 -68t-69 -28t-68.5 27.5t-27.5 68.5zM663 1372
q0 40 27.5 68t68.5 28q40 0 68 -28t28 -68t-27.5 -68t-68.5 -28t-68.5 27.5t-27.5 68.5z" />
    <glyph glyph-name="omicrontonos" unicode="&#x3cc;" horiz-adv-x="1285" 
d="M642 100q178 0 300 126.5t122 303.5t-122 304t-300 127t-300 -127t-122 -304t122 -303.5t300 -126.5zM642 1085q159 0 289 -75.5t202 -202.5t72 -277t-72 -277t-202 -202.5t-289 -75.5t-289 75.5t-202 202.5t-72 277t72 277t202 202.5t289 75.5zM541 1253l277 332l92 -80
l-292 -316z" />
    <glyph glyph-name="upsilontonos" unicode="&#x3cd;" horiz-adv-x="1161" 
d="M466 1253l276 332l93 -80l-292 -315zM581 -25q-188 0 -316.5 126.5t-128.5 310.5v649h139v-643q0 -135 88.5 -226.5t217.5 -91.5t217 91.5t88 226.5v643h139v-649q0 -185 -128.5 -311t-315.5 -126z" />
    <glyph glyph-name="omegatonos" unicode="&#x3ce;" horiz-adv-x="1612" 
d="M709 1253l276 332l92 -80l-292 -315zM806 221q-46 -107 -132.5 -176.5t-194.5 -69.5q-111 0 -203 71.5t-144.5 197t-52.5 276.5q0 255 182 541h140q-181 -292 -181 -541q0 -178 77 -299t190 -121q99 0 174 102t75 240v396h140v-396q0 -138 74.5 -240t174.5 -102
q113 0 190 121t77 299q0 249 -181 541h140q182 -286 182 -541q0 -151 -52.5 -276.5t-144 -197t-202.5 -71.5q-109 0 -195 69t-133 177z" />
    <glyph glyph-name="uni0400" unicode="&#x400;" horiz-adv-x="1144" 
d="M180 0v1434h821v-125h-677v-527h622v-125h-622v-532h696v-125h-840zM430 1916l276 -331l-75 -64l-292 316z" />
    <glyph glyph-name="afii10023" unicode="&#x401;" horiz-adv-x="1144" 
d="M180 0v1434h821v-125h-677v-527h622v-125h-622v-532h696v-125h-840zM311 1704q0 40 28 68t69 28q40 0 68 -28t28 -68q0 -41 -28 -68.5t-68 -27.5q-41 0 -69 27.5t-28 68.5zM668 1704q0 40 27.5 68t68.5 28q40 0 68 -28t28 -68q0 -41 -28 -68.5t-68 -27.5
q-41 0 -68.5 27.5t-27.5 68.5z" />
    <glyph glyph-name="afii10051" unicode="&#x402;" horiz-adv-x="1447" 
d="M627 1309v-586q55 92 145 145.5t200 53.5q175 0 284.5 -118t109.5 -306v-105q0 -168 -117.5 -282.5t-290.5 -114.5q-53 0 -84 4v121q22 -2 70 -2q119 0 199 80t80 198v92q0 138 -73.5 223t-205.5 85q-134 0 -225.5 -101t-91.5 -247v-449h-144v1309h-417v125h981v-125
h-420z" />
    <glyph glyph-name="afii10052" unicode="&#x403;" horiz-adv-x="1050" 
d="M180 0v1434h815v-125h-671v-1309h-144zM493 1630l276 332l92 -80l-292 -315z" />
    <glyph glyph-name="afii10053" unicode="&#x404;" horiz-adv-x="1552" 
d="M85 717q0 157 55.5 295t151 235.5t228.5 154t283 56.5q248 0 428 -133.5t236 -359.5h-150q-50 166 -191 266t-320 100q-226 0 -389.5 -154t-184.5 -399h773v-125h-773q21 -245 184 -398t389 -153q170 0 311 87t224 232l100 -68q-99 -183 -264 -280.5t-373 -97.5
q-150 0 -283 56.5t-228.5 154t-151 236t-55.5 295.5z" />
    <glyph glyph-name="afii10054" unicode="&#x405;" horiz-adv-x="1191" 
d="M128 220l77 83q77 -89 179.5 -145t213.5 -56q156 0 255 74.5t99 194.5q0 233 -368 309q-216 44 -329.5 146.5t-113.5 252.5q0 166 123.5 272.5t319.5 106.5q91 0 171.5 -23.5t146.5 -69t109 -120.5t53 -171h-145q-17 123 -107 190t-220 67q-135 0 -220 -68t-85 -173
q0 -212 356 -291q234 -53 344.5 -158.5t110.5 -267.5q0 -174 -135.5 -286t-356.5 -112q-279 0 -478 245z" />
    <glyph glyph-name="afii10055" unicode="&#x406;" horiz-adv-x="577" 
d="M217 1434h143v-1434h-143v1434z" />
    <glyph glyph-name="afii10056" unicode="&#x407;" horiz-adv-x="577" 
d="M217 1434h143v-1434h-143v1434zM14 1704q0 40 28 68t69 28q40 0 68 -28t28 -68q0 -41 -28 -68.5t-68 -27.5q-41 0 -69 27.5t-28 68.5zM371 1704q0 40 27.5 68t68.5 28q40 0 68 -28t28 -68q0 -41 -28 -68.5t-68 -27.5q-41 0 -68.5 27.5t-27.5 68.5z" />
    <glyph glyph-name="afii10057" unicode="&#x408;" horiz-adv-x="916" 
d="M608 426v1008h144v-1008q0 -227 -106 -339t-306 -112q-153 0 -277 86l41 107q116 -66 232 -66q132 0 202 80.5t70 243.5z" />
    <glyph glyph-name="afii10058" unicode="&#x409;" horiz-adv-x="2052" 
d="M1210 125h252q164 0 265 93t101 239t-101 238.5t-265 92.5h-252v-663zM1466 0h-399v1309h-645v-1004q0 -151 -75 -230t-214 -79q-40 0 -78 4v123q19 -2 66 -2q158 0 158 182v1131h931v-521h256q226 0 366 -127.5t140 -328.5t-140 -329t-366 -128z" />
    <glyph glyph-name="afii10059" unicode="&#x40a;" horiz-adv-x="2062" 
d="M180 0v1434h144v-652h749v652h144v-521h260q226 0 365.5 -127.5t139.5 -328.5t-139.5 -329t-365.5 -128h-404v657h-749v-657h-144zM1217 125h254q164 0 265.5 93t101.5 239t-101 238.5t-266 92.5h-254v-663z" />
    <glyph glyph-name="afii10060" unicode="&#x40b;" horiz-adv-x="1502" 
d="M627 449v-449h-143v1309h-418v125h981v-125h-420v-586q55 92 145 145.5t200 53.5q175 0 284.5 -118t109.5 -306v-498h-143v489q0 138 -73.5 223t-205.5 85q-134 0 -225.5 -101t-91.5 -247z" />
    <glyph glyph-name="afii10061" unicode="&#x40c;" horiz-adv-x="1214" 
d="M324 1434v-652h126q254 0 376.5 161t122.5 490h144q0 -586 -357 -728l464 -705h-170l-437 666q-65 -9 -115 -9h-154v-657h-144v1434h144zM467 1585l277 332l92 -80l-292 -316z" />
    <glyph glyph-name="uni040D" unicode="&#x40d;" horiz-adv-x="1423" 
d="M542 1916l276 -331l-76 -63l-291 315zM1243 1434v-1434h-139v1184l-787 -1184h-137v1434h139v-1184l787 1184h137z" />
    <glyph glyph-name="afii10062" unicode="&#x40e;" horiz-adv-x="1310" 
d="M660 1528q-132 0 -223 88.5t-98 222.5h126q4 -89 56.5 -147t138.5 -58q85 0 138 58t57 147h126q-7 -134 -98 -222.5t-223 -88.5zM492 239l93 177l-530 1018h154l451 -872l442 872h153l-639 -1254q-91 -180 -275 -180h-126v125h111q107 0 166 114z" />
    <glyph glyph-name="afii10145" unicode="&#x40f;" horiz-adv-x="1375" 
d="M1195 1434v-1434h-436v-287h-144v287h-435v1434h144v-1309h728v1309h143z" />
    <glyph glyph-name="afii10017" unicode="&#x410;" horiz-adv-x="1380" 
d="M1323 0h-158l-147 393h-656l-147 -393h-158l554 1434h158zM407 518h567l-284 754z" />
    <glyph glyph-name="afii10018" unicode="&#x411;" horiz-adv-x="1198" 
d="M180 0v1434h803v-125h-659v-396h266q226 0 366 -127.5t140 -328.5t-140 -329t-366 -128h-410zM324 125h262q163 0 263.5 93t100.5 239t-100.5 238.5t-263.5 92.5h-262v-663z" />
    <glyph glyph-name="afii10019" unicode="&#x412;" horiz-adv-x="1253" 
d="M711 0h-531v1434h484q186 0 294.5 -102.5t108.5 -270.5q0 -116 -60.5 -196t-158.5 -109q129 -23 215 -118t86 -239q0 -178 -120.5 -288.5t-317.5 -110.5zM922 1055q0 116 -74.5 185t-194.5 69h-329v-506h329q120 0 194.5 68t74.5 184zM1004 403q0 125 -85 202t-221 77
h-374v-557h374q136 0 221 76.5t85 201.5z" />
    <glyph glyph-name="afii10020" unicode="&#x413;" horiz-adv-x="1050" 
d="M180 0v1434h815v-125h-671v-1309h-144z" />
    <glyph glyph-name="afii10021" unicode="&#x414;" horiz-adv-x="1333" 
d="M1266 125v-412h-144v287h-911v-287h-143v412h112q185 438 185 1206v103h768v-1309h133zM335 125h654v1184h-483q0 -324 -41 -637t-130 -547z" />
    <glyph glyph-name="afii10022" unicode="&#x415;" horiz-adv-x="1144" 
d="M180 0v1434h821v-125h-677v-527h622v-125h-622v-532h696v-125h-840z" />
    <glyph glyph-name="afii10024" unicode="&#x416;" horiz-adv-x="1844" 
d="M993 1434v-652h83q255 0 378 161t123 490h143q0 -587 -356 -728l463 -705h-170l-436 666q-67 -9 -116 -9h-112v-657h-143v657h-111q-50 0 -115 9l-437 -666h-170l463 705q-356 141 -356 728h143q0 -329 123 -490t378 -161h82v652h143z" />
    <glyph glyph-name="afii10025" unicode="&#x417;" horiz-adv-x="1070" 
d="M842 410q0 135 -102 224t-261 89h-153v119h157q125 0 207 71t82 177q0 104 -80 174.5t-198 70.5q-108 0 -178 -51t-91 -151h-137q29 153 137.5 239t278.5 86q175 0 290 -105.5t115 -260.5q0 -102 -63 -185.5t-166 -120.5q134 -41 218.5 -143t84.5 -235
q0 -183 -139.5 -308t-343.5 -125q-281 0 -432 227l90 87q134 -191 342 -191q144 0 243 90.5t99 221.5z" />
    <glyph glyph-name="afii10026" unicode="&#x418;" horiz-adv-x="1423" 
d="M1243 1434v-1434h-139v1184l-787 -1184h-137v1434h139v-1184l787 1184h137z" />
    <glyph glyph-name="afii10027" unicode="&#x419;" horiz-adv-x="1423" 
d="M711 1528q-132 0 -223.5 88.5t-98.5 222.5h126q4 -89 57 -147t139 -58q85 0 137.5 58t56.5 147h126q-7 -134 -97.5 -222.5t-222.5 -88.5zM1243 1434v-1434h-139v1184l-787 -1184h-137v1434h139v-1184l787 1184h137z" />
    <glyph glyph-name="afii10028" unicode="&#x41a;" horiz-adv-x="1214" 
d="M324 1434v-652h126q254 0 376.5 161t122.5 490h144q0 -586 -357 -728l464 -705h-170l-437 666q-65 -9 -115 -9h-154v-657h-144v1434h144z" />
    <glyph glyph-name="afii10029" unicode="&#x41b;" horiz-adv-x="1429" 
d="M422 1309v-1004q0 -151 -75 -230t-214 -79q-40 0 -78 4v123q19 -2 66 -2q158 0 158 182v1131h970v-1434h-143v1309h-684z" />
    <glyph glyph-name="afii10030" unicode="&#x41c;" horiz-adv-x="1724" 
d="M957 202h-78l-560 949v-1151h-139v1434h133l606 -1032l604 1032h134v-1434h-139v1151z" />
    <glyph glyph-name="afii10031" unicode="&#x41d;" horiz-adv-x="1413" 
d="M180 0v1434h144v-652h766v652h143v-1434h-143v657h-766v-657h-144z" />
    <glyph glyph-name="afii10032" unicode="&#x41e;" horiz-adv-x="1656" 
d="M828 102q165 0 302.5 82t216.5 223t79 310q0 126 -46.5 240t-126.5 196t-191 130t-234 48t-234 -48t-191 -130t-126.5 -196t-46.5 -240q0 -169 79 -310t216.5 -223t302.5 -82zM828 1458q206 0 377 -97.5t269 -267.5t98 -376q0 -154 -58 -292t-156.5 -236.5t-236.5 -156
t-293 -57.5t-292.5 57.5t-236.5 156.5t-156.5 236.5t-57.5 291.5t57.5 291.5t156.5 236t236.5 156t292.5 57.5z" />
    <glyph glyph-name="afii10033" unicode="&#x41f;" horiz-adv-x="1374" 
d="M1194 1434v-1434h-143v1309h-727v-1309h-144v1434h1014z" />
    <glyph glyph-name="afii10034" unicode="&#x420;" horiz-adv-x="1181" 
d="M612 561h-288v-561h-144v1434h432q224 0 357 -119.5t133 -317.5t-133 -317t-357 -119zM956 997q0 142 -94 227t-254 85h-284v-623h284q160 0 254 84.5t94 226.5z" />
    <glyph glyph-name="afii10035" unicode="&#x421;" horiz-adv-x="1552" 
d="M85 717q0 157 55.5 295t151 235.5t228.5 154t283 56.5q248 0 428 -133.5t236 -359.5h-150q-50 166 -191 266t-320 100q-117 0 -222 -44.5t-183.5 -123.5t-124.5 -195t-46 -251t46 -251t124 -195.5t183 -124t222 -44.5q170 0 311 87t224 232l100 -68q-99 -183 -264 -280.5
t-373 -97.5q-150 0 -283 56.5t-228.5 154t-151 236t-55.5 295.5z" />
    <glyph glyph-name="afii10036" unicode="&#x422;" horiz-adv-x="1113" 
d="M484 0v1309h-418v125h982v-125h-420v-1309h-144z" />
    <glyph glyph-name="afii10037" unicode="&#x423;" horiz-adv-x="1310" 
d="M492 239l93 177l-530 1018h154l451 -872l442 872h153l-639 -1254q-91 -180 -275 -180h-126v125h111q107 0 166 114z" />
    <glyph glyph-name="afii10038" unicode="&#x424;" horiz-adv-x="1529" 
d="M693 322v786q-196 0 -332.5 -115t-136.5 -278t136.5 -278t332.5 -115zM837 0h-144v197q-168 0 -309 68.5t-223 187.5t-82 262q0 142 82 261.5t223 188t309 68.5v201h144v-201q168 0 309 -68.5t223 -188t82 -261.5q0 -143 -82 -262t-223 -187.5t-309 -68.5v-197zM837 1108
v-786q196 0 332.5 115t136.5 278t-136.5 278t-332.5 115z" />
    <glyph glyph-name="afii10039" unicode="&#x425;" horiz-adv-x="1276" 
d="M208 0h-160l504 729l-485 705h159l412 -598l412 598h159l-485 -705l504 -729h-160l-430 623z" />
    <glyph glyph-name="afii10040" unicode="&#x426;" horiz-adv-x="1390" 
d="M1195 1434v-1309h128v-412h-143v287h-1000v1434h144v-1309h728v1309h143z" />
    <glyph glyph-name="afii10041" unicode="&#x427;" horiz-adv-x="1240" 
d="M921 985v449h139v-1434h-139v716q-56 -93 -154 -148.5t-216 -55.5q-183 0 -299 118t-116 306v498h139v-490q0 -135 83.5 -221t220.5 -86q138 0 240 102t102 246z" />
    <glyph glyph-name="afii10042" unicode="&#x428;" horiz-adv-x="1949" 
d="M1626 125v1309h143v-1434h-1589v1434h144v-1309h579v1309h144v-1309h579z" />
    <glyph glyph-name="afii10043" unicode="&#x429;" horiz-adv-x="1964" 
d="M180 0v1434h144v-1309h579v1309h144v-1309h579v1309h143v-1309h127v-412h-143v287h-1573z" />
    <glyph glyph-name="afii10044" unicode="&#x42a;" horiz-adv-x="1439" 
d="M588 125h262q164 0 264.5 93t100.5 239t-100.5 238.5t-264.5 92.5h-262v-663zM854 0h-410v1309h-378v125h522v-521h266q226 0 366 -127.5t140 -328.5t-140 -329t-366 -128z" />
    <glyph glyph-name="afii10045" unicode="&#x42b;" horiz-adv-x="1630" 
d="M324 125h262q164 0 264.5 93t100.5 239t-100.5 238.5t-264.5 92.5h-262v-663zM1307 1434h143v-1434h-143v1434zM590 0h-410v1434h144v-521h266q226 0 366 -127.5t140 -328.5t-140 -329t-366 -128z" />
    <glyph glyph-name="afii10046" unicode="&#x42c;" horiz-adv-x="1175" 
d="M324 125h262q164 0 264.5 93t100.5 239t-100.5 238.5t-264.5 92.5h-262v-663zM590 0h-410v1434h144v-521h266q226 0 366 -127.5t140 -328.5t-140 -329t-366 -128z" />
    <glyph glyph-name="afii10047" unicode="&#x42d;" horiz-adv-x="1552" 
d="M1467 717q0 -157 -55.5 -295.5t-150.5 -236t-228 -154t-283 -56.5q-208 0 -373 97.5t-264 280.5l99 68q83 -145 224.5 -232t311.5 -87q226 0 388.5 153t183.5 398h-772v125h772q-21 245 -184.5 399t-389.5 154q-179 0 -319.5 -100t-190.5 -266h-151q56 226 236.5 359.5
t428.5 133.5q150 0 283 -56.5t228 -154t150.5 -235.5t55.5 -295z" />
    <glyph glyph-name="afii10048" unicode="&#x42e;" horiz-adv-x="2132" 
d="M324 655v-655h-144v1434h144v-654h241q11 143 73 268.5t159.5 215.5t229.5 142t278 52q207 0 377.5 -97.5t268 -267.5t97.5 -376q0 -154 -57.5 -291.5t-156 -236.5t-236.5 -156.5t-293 -57.5q-147 0 -279 52t-229.5 142t-159 216t-72.5 270h-241zM1305 102
q165 0 302.5 82t216.5 223t79 310t-79 310t-216.5 222.5t-302.5 81.5q-123 0 -234 -48t-191 -130t-126.5 -196t-46.5 -240q0 -169 79 -310t216.5 -223t302.5 -82z" />
    <glyph glyph-name="afii10049" unicode="&#x42f;" horiz-adv-x="1214" 
d="M891 561h-244l-399 -561h-160l406 569q-176 28 -278.5 142t-102.5 286q0 199 132.5 318t356.5 119h432v-1434h-143v561zM258 997q0 -142 94 -226.5t254 -84.5h285v623h-285q-160 0 -254 -85t-94 -227z" />
    <glyph glyph-name="afii10065" unicode="&#x430;" horiz-adv-x="1311" 
d="M79 530q0 151 65 277.5t185 202t270 75.5q133 0 241 -60t177 -164v200h139v-1061h-139v199q-69 -104 -177.5 -164t-240.5 -60q-150 0 -270 75.5t-185 201.5t-65 278zM220 530q0 -178 113 -304t287 -126q173 0 285 125.5t112 304.5t-111 305t-286 126q-116 0 -208.5 -59
t-142 -157.5t-49.5 -214.5z" />
    <glyph glyph-name="afii10066" unicode="&#x431;" horiz-adv-x="1231" 
d="M250 752q68 96 172.5 151t232.5 55q209 0 353.5 -142.5t144.5 -348.5q0 -210 -150 -351t-376 -141q-233 0 -380 160t-147 428q0 246 38 410t131 277.5t242.5 170.5t378.5 74q12 -84 19 -125q-127 -11 -222.5 -32.5t-167 -57.5t-119.5 -82.5t-79.5 -114.5t-47.5 -146.5
t-23 -184.5zM242 590q0 -221 101 -355.5t284 -134.5q163 0 274 106t111 261t-109 261t-266 106q-245 0 -395 -244z" />
    <glyph glyph-name="afii10067" unicode="&#x432;" horiz-adv-x="1046" 
d="M586 0h-430v1061h400q143 0 241 -80t98 -196q0 -77 -48 -138t-124 -90q95 -22 158 -96t63 -166q0 -125 -103.5 -210t-254.5 -85zM295 606h253q89 0 148.5 48t59.5 119t-59.5 119t-148.5 48h-253v-334zM295 121h285q96 0 160.5 53t64.5 130q0 78 -64.5 131.5t-160.5 53.5
h-285v-368z" />
    <glyph glyph-name="afii10068" unicode="&#x433;" horiz-adv-x="832" 
d="M784 936h-489v-936h-139v1061h628v-125z" />
    <glyph glyph-name="afii10069" unicode="&#x434;" horiz-adv-x="1115" 
d="M1060 123v-340h-139v217h-727v-217h-140v340h111q158 335 158 938h596v-938h141zM314 123h467v815h-325q0 -216 -36 -435t-106 -380z" />
    <glyph glyph-name="afii10070" unicode="&#x435;" horiz-adv-x="1240" 
d="M221 489q11 -166 129 -279.5t291 -113.5q214 0 369 175l81 -75q-176 -221 -447 -221q-164 0 -294.5 75t-200.5 201.5t-70 278.5q0 151 71 278t198 202t282 75q229 0 379.5 -153.5t150.5 -374.5q0 -37 -7 -68h-932zM630 965q-152 0 -266.5 -104t-137.5 -255h789
q-17 156 -124 257.5t-261 101.5z" />
    <glyph glyph-name="afii10072" unicode="&#x436;" horiz-adv-x="1593" 
d="M1351 1061h139q0 -197 -74 -327.5t-211 -185.5l372 -548h-164l-349 514q-28 -3 -62 -3h-136v-511h-139v511h-96q-70 0 -104 3l-347 -514h-164l371 548q-137 55 -211 185.5t-74 327.5h140q0 -214 98 -321.5t269 -107.5h118v429h139v-429h118q170 0 268.5 107.5t98.5 321.5
z" />
    <glyph glyph-name="afii10073" unicode="&#x437;" horiz-adv-x="966" 
d="M748 304q0 87 -81 147.5t-199 60.5h-152v117h158q98 0 164.5 48t66.5 120q0 71 -67 119.5t-164 48.5q-98 0 -166.5 -45.5t-91.5 -129.5h-134q21 136 130.5 215.5t261.5 79.5q157 0 263.5 -80.5t106.5 -199.5q0 -78 -53 -141.5t-146 -91.5q99 -26 170.5 -101t71.5 -175
q0 -136 -121 -228.5t-298 -92.5q-130 0 -223 48.5t-163 145.5q9 7 39 32.5t46 39.5q117 -145 301 -145q118 0 199 60.5t81 147.5z" />
    <glyph glyph-name="afii10074" unicode="&#x438;" horiz-adv-x="1243" 
d="M1087 1061v-1061h-135v862l-663 -862h-133v1061h135v-862l663 862h133z" />
    <glyph glyph-name="afii10075" unicode="&#x439;" horiz-adv-x="1243" 
d="M621 1196q-132 0 -223.5 88.5t-98.5 222.5h126q4 -89 57 -146.5t139 -57.5q85 0 137.5 57.5t56.5 146.5h126q-7 -134 -97.5 -222.5t-222.5 -88.5zM1087 1061v-1061h-135v862l-663 -862h-133v1061h135v-862l663 862h133z" />
    <glyph glyph-name="afii10076" unicode="&#x43a;" horiz-adv-x="1042" 
d="M800 1061h139q0 -197 -74 -327.5t-211 -185.5l372 -548h-164l-349 514q-23 -3 -61 -3h-157v-511h-139v1061h139v-429h138q171 0 269 107.5t98 321.5z" />
    <glyph glyph-name="afii10077" unicode="&#x43b;" horiz-adv-x="1252" 
d="M251 281v780h846v-1061h-140v936h-567v-665q0 -122 -74 -199.5t-187 -77.5q-45 0 -81 6v123q34 -2 57 -2q64 0 105 43t41 117z" />
    <glyph glyph-name="afii10078" unicode="&#x43c;" horiz-adv-x="1368" 
d="M286 1061l398 -596l398 596h130v-1061h-135v844l-350 -518h-86l-350 518v-844h-135v1061h130z" />
    <glyph glyph-name="afii10079" unicode="&#x43d;" horiz-adv-x="1243" 
d="M1087 1061v-1061h-139v485h-653v-485h-139v1061h139v-451h653v451h139z" />
    <glyph glyph-name="afii10080" unicode="&#x43e;" horiz-adv-x="1285" 
d="M642 100q178 0 300 126.5t122 303.5t-122 304t-300 127t-300 -127t-122 -304t122 -303.5t300 -126.5zM642 1085q159 0 289 -75.5t202 -202.5t72 -277t-72 -277t-202 -202.5t-289 -75.5t-289 75.5t-202 202.5t-72 277t72 277t202 202.5t289 75.5z" />
    <glyph glyph-name="afii10081" unicode="&#x43f;" horiz-adv-x="1243" 
d="M1087 1061v-1061h-139v936h-653v-936h-139v1061h931z" />
    <glyph glyph-name="afii10082" unicode="&#x440;" horiz-adv-x="1311" 
d="M1233 530q0 -152 -65 -278t-185 -201.5t-270 -75.5q-133 0 -241.5 60t-176.5 164v-674h-139v1536h139v-200q68 104 176.5 164t241.5 60q150 0 270 -75.5t185 -202t65 -277.5zM1092 530q0 116 -49.5 214.5t-142 157.5t-208.5 59q-175 0 -286 -126t-111 -305t112 -304.5
t285 -125.5q174 0 287 126t113 304z" />
    <glyph glyph-name="afii10083" unicode="&#x441;" horiz-adv-x="1211" 
d="M79 530q0 233 156 394t388 161q190 0 327.5 -99.5t181.5 -272.5h-149q-35 115 -131 181.5t-223 66.5q-168 0 -288.5 -123.5t-120.5 -307.5t123.5 -307t296.5 -123q120 0 216 59t158 162l98 -59q-154 -287 -479 -287q-113 0 -215.5 43.5t-176.5 117.5t-118 177t-44 217z
" />
    <glyph glyph-name="afii10084" unicode="&#x442;" horiz-adv-x="956" 
d="M409 936h-361v125h860v-125h-360v-936h-139v936z" />
    <glyph glyph-name="afii10085" unicode="&#x443;" horiz-adv-x="1069" 
d="M268 -475l197 483l-430 1053h147l355 -875l350 875h147l-618 -1536h-148z" />
    <glyph glyph-name="afii10086" unicode="&#x444;" horiz-adv-x="2173" 
d="M79 530q0 151 65 277.5t185 202t270 75.5q133 0 241 -60t177 -164v634h139v-633q69 103 177.5 163t241.5 60q150 0 269.5 -75.5t184.5 -202t65 -277.5q0 -152 -65 -278t-184.5 -201.5t-269.5 -75.5q-133 0 -241.5 60t-177.5 163v-673h-139v674q-69 -104 -177.5 -164
t-240.5 -60q-150 0 -270 75.5t-185 201.5t-65 278zM220 530q0 -178 113 -304t287 -126q173 0 285 125.5t112 304.5t-111.5 305t-285.5 126q-175 0 -287.5 -126t-112.5 -305zM1953 530q0 179 -112.5 305t-287.5 126q-174 0 -285.5 -126t-111.5 -305t112 -304.5t285 -125.5
q174 0 287 126t113 304z" />
    <glyph glyph-name="afii10087" unicode="&#x445;" horiz-adv-x="1058" 
d="M193 0h-158l406 543l-380 518h158l310 -422l311 422h157l-380 -518l407 -543h-158l-337 447z" />
    <glyph glyph-name="afii10088" unicode="&#x446;" horiz-adv-x="1269" 
d="M1076 -287v287h-920v1061h139v-936h653v936h139v-936h128v-412h-139z" />
    <glyph glyph-name="afii10089" unicode="&#x447;" horiz-adv-x="1112" 
d="M816 763v298h139v-1061h-139v481q-50 -86 -138 -136t-198 -50q-170 0 -272 114t-102 305v347h140v-339q0 -141 67.5 -221.5t194.5 -80.5q137 0 222.5 98t85.5 245z" />
    <glyph glyph-name="afii10090" unicode="&#x448;" horiz-adv-x="1600" 
d="M1445 1061v-1061h-1289v1061h139v-936h435v936h139v-936h437v936h139z" />
    <glyph glyph-name="afii10091" unicode="&#x449;" horiz-adv-x="1627" 
d="M156 0v1061h139v-936h435v936h139v-936h437v936h139v-936h128v-412h-139v287h-1278z" />
    <glyph glyph-name="afii10092" unicode="&#x44a;" horiz-adv-x="1208" 
d="M765 0h-406v940h-311v121h451v-352h266q160 0 269.5 -103.5t109.5 -251.5q0 -149 -109.5 -251.5t-269.5 -102.5zM1005 354q0 98 -73 166t-177 68h-256v-467h256q105 0 177.5 67t72.5 166z" />
    <glyph glyph-name="afii10093" unicode="&#x44b;" horiz-adv-x="1413" 
d="M561 0h-405v1061h139v-352h266q160 0 269.5 -103.5t109.5 -251.5q0 -149 -109.5 -251.5t-269.5 -102.5zM801 354q0 98 -73 166t-177 68h-256v-467h256q105 0 177.5 67t72.5 166zM1118 0v1061h139v-1061h-139z" />
    <glyph glyph-name="afii10094" unicode="&#x44c;" horiz-adv-x="1004" 
d="M561 0h-405v1061h139v-352h266q160 0 269.5 -103.5t109.5 -251.5q0 -149 -109.5 -251.5t-269.5 -102.5zM801 354q0 98 -73 166t-177 68h-256v-467h256q105 0 177.5 67t72.5 166z" />
    <glyph glyph-name="afii10095" unicode="&#x44d;" horiz-adv-x="1211" 
d="M1132 530q0 -152 -74 -280t-201 -201.5t-278 -73.5q-162 0 -283.5 73.5t-196.5 213.5l99 59q61 -103 157 -162t216 -59q158 0 276 104.5t139 266.5h-552v117h552q-19 161 -134.5 267t-269.5 106q-128 0 -224 -66.5t-131 -181.5h-148q45 173 182.5 272.5t327.5 99.5
q153 0 278 -74t195 -201t70 -280z" />
    <glyph glyph-name="afii10096" unicode="&#x44e;" horiz-adv-x="1676" 
d="M1034 1085q158 0 288 -75.5t202.5 -202.5t72.5 -277t-72.5 -277t-202.5 -202.5t-288 -75.5q-223 0 -380 142t-180 352h-179v-469h-139v1061h139v-467h179q12 102 58.5 192t119.5 156t172 104.5t210 38.5zM1034 100q178 0 300 126.5t122 303.5t-122 304t-300 127
t-300 -127t-122 -304t122 -303.5t300 -126.5z" />
    <glyph glyph-name="afii10097" unicode="&#x44f;" horiz-adv-x="1110" 
d="M815 385h-278l-305 -385h-156l314 396q-128 28 -208 117.5t-80 209.5q0 143 113 240.5t279 97.5h460v-1061h-139v385zM498 506h317v434h-317q-109 0 -182.5 -62.5t-73.5 -154.5q0 -93 73.5 -155t182.5 -62z" />
    <glyph glyph-name="uni0450" unicode="&#x450;" horiz-adv-x="1240" 
d="M221 489q11 -166 129 -279.5t291 -113.5q214 0 369 175l81 -75q-176 -221 -447 -221q-164 0 -294.5 75t-200.5 201.5t-70 278.5q0 151 71 278t198 202t282 75q229 0 379.5 -153.5t150.5 -374.5q0 -37 -7 -68h-932zM630 965q-152 0 -266.5 -104t-137.5 -255h789
q-17 156 -124 257.5t-261 101.5zM470 1584l276 -331l-75 -64l-292 316z" />
    <glyph glyph-name="afii10071" unicode="&#x451;" horiz-adv-x="1240" 
d="M221 489q11 -166 129 -279.5t291 -113.5q214 0 369 175l81 -75q-176 -221 -447 -221q-164 0 -294.5 75t-200.5 201.5t-70 278.5q0 151 71 278t198 202t282 75q229 0 379.5 -153.5t150.5 -374.5q0 -37 -7 -68h-932zM630 965q-152 0 -266.5 -104t-137.5 -255h789
q-17 156 -124 257.5t-261 101.5zM345 1372q0 40 27.5 68t68.5 28q40 0 68.5 -28t28.5 -68t-28 -68t-69 -28t-68.5 27.5t-27.5 68.5zM701 1372q0 40 28 68t69 28q40 0 68 -28t28 -68t-28 -68t-68 -28q-41 0 -69 27.5t-28 68.5z" />
    <glyph glyph-name="afii10099" unicode="&#x452;" horiz-adv-x="1266" 
d="M35 1214v103h164v178h139v-178h378v-103h-378v-335q57 93 156.5 149.5t218.5 56.5q183 0 300 -118t117 -305v-773q0 -183 -89.5 -273.5t-272.5 -90.5q-44 0 -100 8v121q42 -6 94 -6q120 0 174.5 61t54.5 182v762q0 135 -84.5 221.5t-221.5 86.5q-139 0 -243 -103
t-104 -246v-612h-139v1214h-164z" />
    <glyph glyph-name="afii10100" unicode="&#x453;" horiz-adv-x="832" 
d="M298 1253l276 332l93 -80l-292 -315zM784 936h-489v-936h-139v1061h628v-125z" />
    <glyph glyph-name="afii10101" unicode="&#x454;" horiz-adv-x="1211" 
d="M79 530q0 233 156 394t388 161q190 0 327.5 -99.5t181.5 -272.5h-149q-35 115 -131 181.5t-223 66.5q-154 0 -269.5 -105.5t-135.5 -267.5h553v-117h-553q21 -162 139.5 -266.5t276.5 -104.5q120 0 216 59t158 162l98 -59q-154 -287 -479 -287q-113 0 -215.5 43.5
t-176.5 117.5t-118 177t-44 217z" />
    <glyph glyph-name="afii10102" unicode="&#x455;" horiz-adv-x="944" 
d="M91 166l69 79q132 -149 314 -149q115 0 183.5 51.5t68.5 135.5q0 158 -268 209q-171 32 -257.5 110t-86.5 195q0 124 94.5 206t252.5 82q153 0 251 -77t121 -214h-140q-12 74 -71 122.5t-152 48.5q-97 0 -157 -48.5t-60 -121.5q0 -66 64.5 -116.5t185.5 -74.5
q362 -70 362 -323q0 -134 -103 -220t-280 -86q-237 0 -391 191z" />
    <glyph glyph-name="afii10103" unicode="&#x456;" horiz-adv-x="528" 
d="M195 0v1061h139v-1061h-139zM165 1364q0 43 28.5 71.5t70.5 28.5t71 -28.5t29 -71.5q0 -41 -29 -69.5t-71 -28.5t-70.5 28.5t-28.5 69.5z" />
    <glyph glyph-name="afii10104" unicode="&#x457;" horiz-adv-x="528" 
d="M-10 1372q0 40 27.5 68t68.5 28q40 0 68 -28t28 -68t-28 -68t-68 -28q-41 0 -68.5 27.5t-27.5 68.5zM346 1372q0 40 27.5 68t68.5 28q40 0 68.5 -28t28.5 -68t-28 -68t-69 -28t-68.5 27.5t-27.5 68.5zM195 0v1061h139v-1061h-139z" />
    <glyph glyph-name="afii10105" unicode="&#x458;" horiz-adv-x="528" 
d="M165 1364q0 43 28.5 71.5t70.5 28.5t71 -28.5t29 -71.5q0 -41 -29 -69.5t-71 -28.5t-70.5 28.5t-28.5 69.5zM195 -170v1231h139v-1229q0 -156 -70.5 -231.5t-202.5 -75.5q-50 0 -88 10v115q18 -2 64 -2q158 0 158 182z" />
    <glyph glyph-name="afii10106" unicode="&#x459;" horiz-adv-x="1755" 
d="M1056 121h246q105 0 177 67t72 166q0 98 -72.5 166t-176.5 68h-246v-467zM251 281v780h805v-352h256q160 0 269.5 -103.5t109.5 -251.5q0 -149 -109.5 -251.5t-269.5 -102.5h-396v936h-526v-665q0 -112 -76 -194.5t-185 -82.5q-45 0 -81 6v123q34 -2 57 -2q64 0 105 43
t41 117z" />
    <glyph glyph-name="afii10107" unicode="&#x45a;" horiz-adv-x="1745" 
d="M1303 0h-396v485h-612v-485h-139v1061h139v-451h612v451h140v-352h256q160 0 269 -103.5t109 -251.5q0 -149 -109 -251.5t-269 -102.5zM1542 354q0 98 -73 166t-177 68h-245v-467h245q105 0 177.5 67t72.5 166z" />
    <glyph glyph-name="afii10108" unicode="&#x45b;" horiz-adv-x="1266" 
d="M35 1214v103h164v178h139v-178h378v-103h-378v-335q57 93 156.5 149.5t218.5 56.5q183 0 300 -118t117 -305v-662h-139v653q0 135 -84.5 221.5t-221.5 86.5q-139 0 -243 -103t-104 -246v-612h-139v1214h-164z" />
    <glyph glyph-name="afii10109" unicode="&#x45c;" horiz-adv-x="1042" 
d="M383 1253l276 332l93 -80l-292 -315zM800 1061h139q0 -197 -74 -327.5t-211 -185.5l372 -548h-164l-349 514q-23 -3 -61 -3h-157v-511h-139v1061h139v-429h138q171 0 269 107.5t98 321.5z" />
    <glyph glyph-name="uni045D" unicode="&#x45d;" horiz-adv-x="1243" 
d="M458 1584l276 -331l-76 -63l-291 315zM1087 1061v-1061h-135v862l-663 -862h-133v1061h135v-862l663 862h133z" />
    <glyph glyph-name="afii10110" unicode="&#x45e;" horiz-adv-x="1069" 
d="M268 -475l197 483l-430 1053h147l355 -875l350 875h147l-618 -1536h-148zM535 1196q-132 0 -223.5 88.5t-98.5 222.5h126q4 -89 57 -146.5t139 -57.5q85 0 137.5 57.5t56.5 146.5h126q-7 -134 -97.5 -222.5t-222.5 -88.5z" />
    <glyph glyph-name="afii10193" unicode="&#x45f;" horiz-adv-x="1244" 
d="M1089 1061v-1061h-398v-287h-139v287h-396v1061h139v-936h654v936h140z" />
    <glyph glyph-name="afii10050" unicode="&#x490;" horiz-adv-x="1050" 
d="M180 0v1434h672v286h143v-411h-671v-1309h-144z" />
    <glyph glyph-name="afii10098" unicode="&#x491;" horiz-adv-x="832" 
d="M784 936h-489v-936h-139v1061h489v287h139v-412z" />
    <glyph glyph-name="Wgrave" unicode="&#x1e80;" horiz-adv-x="1953" 
d="M903 1434h148l354 -1225l342 1225h151l-415 -1434h-148l-358 1235l-359 -1235h-147l-416 1434h152l342 -1225zM824 1916l276 -331l-75 -64l-292 316z" />
    <glyph glyph-name="wgrave" unicode="&#x1e81;" horiz-adv-x="1581" 
d="M719 1061h143l263 -866l274 866h147l-348 -1061h-143l-264 868l-265 -868h-143l-348 1061h147l274 -866zM620 1584l276 -331l-76 -63l-292 315z" />
    <glyph glyph-name="Wacute" unicode="&#x1e82;" horiz-adv-x="1953" 
d="M903 1434h148l354 -1225l342 1225h151l-415 -1434h-148l-358 1235l-359 -1235h-147l-416 1434h152l342 -1225zM873 1585l277 332l92 -80l-292 -316z" />
    <glyph glyph-name="wacute" unicode="&#x1e83;" horiz-adv-x="1581" 
d="M719 1061h143l263 -866l274 866h147l-348 -1061h-143l-264 868l-265 -868h-143l-348 1061h147l274 -866zM699 1253l277 332l92 -80l-292 -315z" />
    <glyph glyph-name="Wdieresis" unicode="&#x1e84;" horiz-adv-x="1953" 
d="M903 1434h148l354 -1225l342 1225h151l-415 -1434h-148l-358 1235l-359 -1235h-147l-416 1434h152l342 -1225zM702 1704q0 40 28 68t69 28q40 0 68 -28t28 -68q0 -41 -28 -68.5t-68 -27.5q-41 0 -69 27.5t-28 68.5zM1059 1704q0 40 27.5 68t68.5 28q40 0 68 -28t28 -68
q0 -41 -28 -68.5t-68 -27.5q-41 0 -68.5 27.5t-27.5 68.5z" />
    <glyph glyph-name="wdieresis" unicode="&#x1e85;" horiz-adv-x="1581" 
d="M719 1061h143l263 -866l274 866h147l-348 -1061h-143l-264 868l-265 -868h-143l-348 1061h147l274 -866zM516 1372q0 40 27.5 68t68.5 28q40 0 68.5 -28t28.5 -68t-28 -68t-69 -28t-68.5 27.5t-27.5 68.5zM872 1372q0 40 28 68t69 28q40 0 68 -28t28 -68t-27.5 -68
t-68.5 -28t-69 27.5t-28 68.5z" />
    <glyph glyph-name="Ygrave" unicode="&#x1ef2;" horiz-adv-x="1310" 
d="M213 1434l442 -705l443 705h157l-528 -846v-588h-143v588l-529 846h158zM484 1916l276 -331l-75 -64l-292 316z" />
    <glyph glyph-name="ygrave" unicode="&#x1ef3;" horiz-adv-x="1069" 
d="M268 -475l197 483l-430 1053h147l355 -875l350 875h147l-618 -1536h-148zM356 1584l277 -331l-76 -63l-292 315z" />
    <glyph glyph-name="thinspace" unicode="&#x2009;" horiz-adv-x="409" 
 />
    <glyph glyph-name="uni2010" unicode="&#x2010;" horiz-adv-x="815" 
d="M695 614h-576v131h576v-131z" />
    <glyph glyph-name="figuredash" unicode="&#x2012;" horiz-adv-x="1228" 
d="M1126 614h-1024v131h1024v-131z" />
    <glyph glyph-name="endash" unicode="&#x2013;" horiz-adv-x="1024" 
d="M1024 614h-1024v131h1024v-131z" />
    <glyph glyph-name="emdash" unicode="&#x2014;" horiz-adv-x="2048" 
d="M2048 614h-2048v131h2048v-131z" />
    <glyph glyph-name="afii00208" unicode="&#x2015;" horiz-adv-x="2048" 
d="M1843 614h-1638v131h1638v-131z" />
    <glyph glyph-name="uni2016" unicode="&#x2016;" horiz-adv-x="921" 
d="M221 -287v1823h129v-1823h-129zM570 -287v1823h130v-1823h-130z" />
    <glyph glyph-name="underscoredbl" unicode="&#x2017;" horiz-adv-x="1228" 
d="M102 -444v110h1024v-110h-1024zM102 -166v111h1024v-111h-1024z" />
    <glyph glyph-name="quoteleft" unicode="&#x2018;" horiz-adv-x="602" 
d="M406 1224q0 -39 -31 -68.5t-74 -29.5q-47 0 -76 32.5t-29 93.5q0 104 55 193t153 143l50 -58q-79 -64 -93 -125.5t30 -131.5q15 -26 15 -49z" />
    <glyph glyph-name="quoteright" unicode="&#x2019;" horiz-adv-x="602" 
d="M197 1459q0 39 30.5 68t73.5 29q47 0 76.5 -32t29.5 -93q0 -104 -55.5 -193t-153.5 -143l-50 58q79 64 93 125.5t-30 131.5q-14 24 -14 49z" />
    <glyph glyph-name="quotesinglbase" unicode="&#x201a;" horiz-adv-x="602" 
d="M197 87q0 39 30.5 68t73.5 29q47 0 76.5 -32.5t29.5 -93.5q0 -104 -55.5 -193t-153.5 -143l-50 59q79 64 93 125.5t-30 131.5q-14 24 -14 49z" />
    <glyph glyph-name="quotereversed" unicode="&#x201b;" horiz-adv-x="602" 
d="M406 1460q0 -19 -15 -49q-45 -69 -31 -131t94 -126l-50 -58q-98 54 -153.5 143t-55.5 193q0 61 29.5 93.5t75.5 32.5q44 0 75 -29.5t31 -68.5z" />
    <glyph glyph-name="quotedblleft" unicode="&#x201c;" horiz-adv-x="905" 
d="M406 1224q0 -39 -31 -68.5t-74 -29.5q-47 0 -76 32.5t-29 93.5q0 104 55 193t153 143l50 -58q-79 -64 -93 -125.5t30 -131.5q15 -26 15 -49zM709 1224q0 -39 -31 -68.5t-74 -29.5q-47 0 -76 32.5t-29 93.5q0 104 55.5 193t153.5 143l49 -58q-79 -64 -93 -125.5t30 -131.5
q15 -26 15 -49z" />
    <glyph glyph-name="quotedblright" unicode="&#x201d;" horiz-adv-x="905" 
d="M197 1459q0 39 30.5 68t73.5 29q47 0 76.5 -32t29.5 -93q0 -104 -55.5 -193t-153.5 -143l-50 58q79 64 93 125.5t-30 131.5q-14 24 -14 49zM500 1459q0 39 30.5 68t73.5 29q47 0 76.5 -32t29.5 -93q0 -104 -55.5 -193t-153.5 -143l-49 58q79 64 92.5 125.5t-30.5 131.5
q-14 24 -14 49z" />
    <glyph glyph-name="quotedblbase" unicode="&#x201e;" horiz-adv-x="905" 
d="M500 87q0 39 30.5 68t73.5 29q47 0 76.5 -32.5t29.5 -93.5q0 -104 -55.5 -193t-153.5 -143l-49 59q79 64 92.5 125.5t-30.5 131.5q-14 24 -14 49zM197 87q0 39 30.5 68t73.5 29q47 0 76.5 -32.5t29.5 -93.5q0 -104 -55.5 -193t-153.5 -143l-50 59q79 64 93 125.5
t-30 131.5q-14 24 -14 49z" />
    <glyph glyph-name="uni201F" unicode="&#x201f;" horiz-adv-x="905" 
d="M709 1460q0 -19 -15 -49q-45 -69 -31 -131t94 -126l-49 -58q-98 54 -154 143.5t-56 192.5q0 61 29.5 93.5t75.5 32.5q44 0 75 -29.5t31 -68.5zM406 1460q0 -19 -15 -49q-45 -69 -31 -131t94 -126l-50 -58q-98 54 -153.5 143t-55.5 193q0 61 29.5 93.5t75.5 32.5
q44 0 75 -29.5t31 -68.5z" />
    <glyph glyph-name="dagger" unicode="&#x2020;" horiz-adv-x="1146" 
d="M502 -268v1296h-355v125h355v379h143v-379h354v-125h-354v-1296h-143z" />
    <glyph glyph-name="daggerdbl" unicode="&#x2021;" horiz-adv-x="1146" 
d="M502 236v792h-355v125h355v379h143v-379h354v-125h-354v-792h354v-125h-354v-379h-143v379h-355v125h355z" />
    <glyph glyph-name="bullet" unicode="&#x2022;" horiz-adv-x="819" 
d="M410 442q-100 0 -170 69t-70 169q0 98 70 168t170 70t169.5 -70t69.5 -168q0 -100 -69.5 -169t-169.5 -69z" />
    <glyph glyph-name="onedotenleader" unicode="&#x2024;" horiz-adv-x="602" 
d="M197 80q0 44 30 74t74 30t74.5 -30t30.5 -74t-30.5 -74.5t-74.5 -30.5t-74 30.5t-30 74.5z" />
    <glyph glyph-name="twodotenleader" unicode="&#x2025;" horiz-adv-x="1204" 
d="M799 80q0 44 30 74t74 30t74.5 -30t30.5 -74t-30.5 -74.5t-74.5 -30.5t-74 30.5t-30 74.5zM197 80q0 44 30 74t74 30t74.5 -30t30.5 -74t-30.5 -74.5t-74.5 -30.5t-74 30.5t-30 74.5z" />
    <glyph glyph-name="ellipsis" unicode="&#x2026;" horiz-adv-x="1806" 
d="M1401 80q0 44 30 74t74 30t74.5 -30t30.5 -74t-30.5 -74.5t-74.5 -30.5t-74 30.5t-30 74.5zM799 80q0 44 30 74t74 30t74.5 -30t30.5 -74t-30.5 -74.5t-74.5 -30.5t-74 30.5t-30 74.5zM197 80q0 44 30 74t74 30t74.5 -30t30.5 -74t-30.5 -74.5t-74.5 -30.5t-74 30.5
t-30 74.5z" />
    <glyph glyph-name="perthousand" unicode="&#x2030;" horiz-adv-x="2618" 
d="M237 1094q0 -99 64 -167.5t157 -68.5t157 68.5t64 167.5t-64 167t-157 68t-157 -68t-64 -167zM100 1094q0 149 103.5 251.5t254.5 102.5q150 0 253.5 -102.5t103.5 -251.5t-103.5 -252t-253.5 -103q-151 0 -254.5 103t-103.5 252zM1127 340q0 -99 64.5 -167.5
t157.5 -68.5t157 68.5t64 167.5t-64 167t-157 68q-94 0 -158 -68.5t-64 -166.5zM991 340q0 149 104 251.5t254 102.5q151 0 254 -102.5t103 -251.5t-103 -251.5t-254 -102.5q-150 0 -254 102.5t-104 251.5zM1939 340q0 -99 64.5 -167.5t157.5 -68.5t157 68.5t64 167.5
t-64 167t-157 68q-94 0 -158 -68.5t-64 -166.5zM1803 340q0 149 103.5 251.5t254.5 102.5q150 0 253.5 -102.5t103.5 -251.5t-103.5 -251.5t-253.5 -102.5q-151 0 -254.5 102.5t-103.5 251.5zM487 46l717 1398l116 -58l-718 -1397z" />
    <glyph glyph-name="minute" unicode="&#x2032;" horiz-adv-x="561" 
d="M128 1093l227 354l100 -76l-247 -338z" />
    <glyph glyph-name="second" unicode="&#x2033;" horiz-adv-x="872" 
d="M439 1093l228 354l99 -76l-247 -338zM128 1093l227 354l100 -76l-247 -338z" />
    <glyph glyph-name="guilsinglleft" unicode="&#x2039;" horiz-adv-x="786" 
d="M109 583v110l511 342l55 -81l-433 -316l433 -316l-55 -81z" />
    <glyph glyph-name="guilsinglright" unicode="&#x203a;" horiz-adv-x="786" 
d="M679 693v-110l-511 -342l-55 81l433 316l-433 316l55 81z" />
    <glyph glyph-name="exclamdbl" unicode="&#x203c;" horiz-adv-x="1044" 
d="M680 393l-21 1041h144l-21 -1041h-102zM629 78q0 43 29 72.5t73 29.5q43 0 73 -29.5t30 -72.5q0 -44 -30 -73.5t-73 -29.5q-44 0 -73 29.5t-29 73.5zM262 393l-20 1041h143l-20 -1041h-103zM211 78q0 43 29 72.5t73 29.5q43 0 73 -29.5t30 -72.5q0 -44 -30 -73.5
t-73 -29.5q-44 0 -73 29.5t-29 73.5z" />
    <glyph glyph-name="uni203E" unicode="&#x203e;" horiz-adv-x="843" 
d="M135 1265v110h574v-110h-574z" />
    <glyph glyph-name="fraction" unicode="&#x2044;" horiz-adv-x="333" 
d="M-231 30l695 1425l100 -51l-696 -1427z" />
    <glyph glyph-name="zerosuperior" unicode="&#x2070;" 
d="M65 948q0 146 36 259t113.5 182t186.5 69t186.5 -69t113.5 -182t36 -259t-36.5 -259.5t-113.5 -182t-186 -68.5t-186.5 69t-113.5 182t-36 259zM189 948q0 -117 22 -205.5t71 -142t119 -53.5q104 0 157.5 110.5t53.5 290.5q0 117 -22 206t-70.5 142.5t-118.5 53.5
q-104 0 -158 -111t-54 -291z" />
    <glyph glyph-name="uni2071" unicode="&#x2071;" 
d="M339 463v686h124v-686h-124zM319 1355q0 32 24 55.5t58 23.5t57.5 -23t23.5 -56t-23.5 -56t-57.5 -23t-58 23t-24 56z" />
    <glyph glyph-name="foursuperior" unicode="&#x2074;" 
d="M43 668v98l457 668h118v-658h123v-108h-123v-205h-125v205h-450zM184 776h309v457z" />
    <glyph glyph-name="fivesuperior" unicode="&#x2075;" 
d="M373 438q-87 0 -160 48t-125 137l69 51q86 -131 214 -131q93 0 155 60.5t62 152.5t-62 153.5t-155 61.5q-52 0 -97 -26t-70 -66l-91 12l59 543h506v-107h-393l-36 -299q57 45 142 45q134 0 229 -88t95 -227q0 -140 -95.5 -230t-246.5 -90z" />
    <glyph glyph-name="sixsuperior" unicode="&#x2076;" 
d="M568 1434l-241 -375q38 19 84 19q135 0 232 -91t97 -227q0 -137 -100.5 -229.5t-238.5 -92.5q-140 0 -240.5 92.5t-100.5 229.5q0 91 49 166l325 508h134zM614 760q0 91 -62.5 153t-152.5 62q-89 0 -151 -62.5t-62 -152.5q0 -92 62 -154.5t151 -62.5q90 0 152.5 62.5
t62.5 154.5z" />
    <glyph glyph-name="sevensuperior" unicode="&#x2077;" 
d="M98 1434h609v-93l-375 -878h-139l373 864h-468v107z" />
    <glyph glyph-name="eightsuperior" unicode="&#x2078;" 
d="M401 438q-143 0 -240.5 87t-97.5 214q0 84 49.5 153t133.5 104q-61 28 -96.5 83.5t-35.5 120.5q0 108 82 183t205 75t205.5 -75t82.5 -183q0 -65 -36 -120.5t-97 -83.5q84 -34 133 -103.5t49 -153.5q0 -127 -97.5 -214t-239.5 -87zM401 940q-89 0 -150 -58t-61 -141
q0 -84 60.5 -141t150.5 -57t150.5 57t60.5 141q0 83 -61 141t-150 58zM401 1042q69 0 117 45.5t48 111.5q0 65 -47.5 110t-117.5 45t-117 -44.5t-47 -110.5t47 -111.5t117 -45.5z" />
    <glyph glyph-name="ninesuperior" unicode="&#x2079;" 
d="M233 463l242 375q-38 -20 -84 -20q-135 0 -232.5 91.5t-97.5 227.5q0 137 100.5 229t238.5 92q140 0 240.5 -92t100.5 -229q0 -94 -47 -167l-325 -507h-136zM187 1137q0 -91 62.5 -153t152.5 -62q89 0 151.5 62.5t62.5 152.5q0 92 -62.5 154.5t-151.5 62.5
q-90 0 -152.5 -62.5t-62.5 -154.5z" />
    <glyph glyph-name="uni207A" unicode="&#x207a;" 
d="M727 894h-263v-269h-125v269h-263v108h263v270h125v-270h263v-108z" />
    <glyph glyph-name="uni207B" unicode="&#x207b;" 
d="M727 894h-651v108h651v-108z" />
    <glyph glyph-name="uni207C" unicode="&#x207c;" 
d="M727 733h-651v109h651v-109zM727 1046h-651v108h651v-108z" />
    <glyph glyph-name="uni207D" unicode="&#x207d;" 
d="M309 948q0 167 62.5 321t173.5 275l88 -60q-94 -111 -145.5 -249.5t-51.5 -286.5t51.5 -286t145.5 -250l-88 -60q-111 121 -173.5 275t-62.5 321z" />
    <glyph glyph-name="uni207E" unicode="&#x207e;" 
d="M493 948q0 -167 -62.5 -321t-173.5 -275l-88 60q94 112 145.5 250t51.5 286t-51.5 286.5t-145.5 249.5l88 60q111 -121 173.5 -275t62.5 -321z" />
    <glyph glyph-name="uni207F" unicode="&#x207f;" 
d="M231 860v-397h-122v686h122v-106q30 54 85.5 87t119.5 33q111 0 187 -78.5t76 -198.5v-423h-122v420q0 74 -46 123t-116 49q-73 0 -128.5 -56t-55.5 -139z" />
    <glyph glyph-name="zeroinferior" unicode="&#x2080;" 
d="M65 217q0 146 36 259t113.5 182t186.5 69t186.5 -69t113.5 -182t36 -259t-36.5 -259.5t-113.5 -182t-186 -68.5t-186.5 69t-113.5 182t-36 259zM189 217q0 -117 22 -205.5t71 -142t119 -53.5q104 0 157.5 110.5t53.5 290.5q0 117 -22 205.5t-70.5 142t-118.5 53.5
q-104 0 -158 -110.5t-54 -290.5z" />
    <glyph glyph-name="oneinferior" unicode="&#x2081;" 
d="M420 702h106v-970h-125v840l-196 -107l-49 93z" />
    <glyph glyph-name="twoinferior" unicode="&#x2082;" 
d="M563 169l-299 -333h422v-104h-590v92l369 409q104 115 104 222q0 72 -51 120t-129 48q-83 0 -136 -55.5t-65 -148.5h-117q11 146 98.5 227t219.5 81t219.5 -76.5t87.5 -195.5q0 -138 -133 -286z" />
    <glyph glyph-name="threeinferior" unicode="&#x2083;" 
d="M586 25q0 89 -64.5 150.5t-156.5 61.5q-30 0 -76 -13l-49 62l272 310h-397v106h553v-96l-254 -285q128 -11 213 -96t85 -209q0 -126 -97.5 -217.5t-247.5 -91.5q-185 0 -298 174l70 59q51 -65 104 -96.5t122 -31.5q93 0 157 61.5t64 151.5z" />
    <glyph glyph-name="fourinferior" unicode="&#x2084;" 
d="M43 -63v98l457 667h118v-657h123v-108h-123v-205h-125v205h-450zM184 45h309v457z" />
    <glyph glyph-name="fiveinferior" unicode="&#x2085;" 
d="M373 -293q-87 0 -160.5 48t-124.5 136l69 52q86 -131 214 -131q93 0 155 60.5t62 152.5t-62 153.5t-155 61.5q-52 0 -97 -26.5t-70 -66.5l-91 13l59 542h506v-106h-393l-36 -299q57 45 142 45q134 0 229 -88t95 -227q0 -140 -95.5 -230t-246.5 -90z" />
    <glyph glyph-name="sixinferior" unicode="&#x2086;" 
d="M568 702l-241 -374q38 19 84 19q135 0 232 -91t97 -227q0 -137 -100.5 -229.5t-238.5 -92.5q-140 0 -240.5 92.5t-100.5 229.5q0 91 49 166l325 507h134zM614 29q0 91 -62.5 153t-152.5 62q-89 0 -151 -62.5t-62 -152.5q0 -92 62 -154.5t151 -62.5q90 0 152.5 62.5
t62.5 154.5z" />
    <glyph glyph-name="seveninferior" unicode="&#x2087;" 
d="M98 702h609v-92l-375 -878h-139l373 864h-468v106z" />
    <glyph glyph-name="eightinferior" unicode="&#x2088;" 
d="M401 -293q-143 0 -240.5 87t-97.5 214q0 84 49.5 153t133.5 104q-61 28 -96.5 83.5t-35.5 120.5q0 108 82 183t205 75t205.5 -75t82.5 -183q0 -65 -36 -120.5t-97 -83.5q84 -34 133 -103.5t49 -153.5q0 -127 -97.5 -214t-239.5 -87zM401 209q-89 0 -150 -58t-61 -141
q0 -84 60.5 -141t150.5 -57t150.5 57t60.5 141q0 83 -61 141t-150 58zM401 311q69 0 117 45.5t48 111.5q0 65 -47.5 110t-117.5 45t-117 -44.5t-47 -110.5t47 -111.5t117 -45.5z" />
    <glyph glyph-name="nineinferior" unicode="&#x2089;" 
d="M233 -268l242 374q-36 -19 -84 -19q-135 0 -232.5 91.5t-97.5 227.5q0 137 100.5 229t238.5 92q140 0 240.5 -92t100.5 -229q0 -94 -47 -167l-325 -507h-136zM187 406q0 -91 62.5 -153.5t152.5 -62.5q89 0 151.5 63t62.5 153q0 92 -62.5 154.5t-151.5 62.5
q-90 0 -152.5 -62.5t-62.5 -154.5z" />
    <glyph glyph-name="uni208A" unicode="&#x208a;" 
d="M727 163h-263v-269h-125v269h-263v108h263v270h125v-270h263v-108z" />
    <glyph glyph-name="uni208B" unicode="&#x208b;" 
d="M727 163h-651v108h651v-108z" />
    <glyph glyph-name="uni208C" unicode="&#x208c;" 
d="M727 2h-651v109h651v-109zM727 314h-651v109h651v-109z" />
    <glyph glyph-name="uni208D" unicode="&#x208d;" 
d="M309 217q0 167 62.5 321t173.5 275l88 -60q-94 -111 -145.5 -249.5t-51.5 -286.5t51.5 -286t145.5 -250l-88 -60q-111 121 -173.5 275t-62.5 321z" />
    <glyph glyph-name="uni208E" unicode="&#x208e;" 
d="M493 217q0 -167 -62.5 -321t-173.5 -275l-88 60q94 112 145.5 250t51.5 286t-51.5 286.5t-145.5 249.5l88 60q111 -121 173.5 -275t62.5 -321z" />
    <glyph glyph-name="uni2090" unicode="&#x2090;" 
d="M383 315q-95 0 -154 -71t-59 -178t59 -179t154 -72t154 72t59 179t-59 178t-154 71zM376 -293q-142 0 -236.5 103.5t-94.5 255.5q0 151 94.5 254.5t236.5 103.5q137 0 220 -109v95h125v-689h-125v95q-83 -109 -220 -109z" />
    <glyph glyph-name="uni2091" unicode="&#x2091;" 
d="M738 27h-554q10 -92 74.5 -154t156.5 -62q59 0 115 29.5t97 81.5l69 -69q-106 -146 -280 -146q-157 0 -256.5 104t-99.5 255q0 150 100 254t248 104q146 0 240 -99t94 -243q0 -34 -4 -55zM408 319q-83 0 -144.5 -55t-75.5 -139h428q-11 87 -68 140.5t-140 53.5z" />
    <glyph glyph-name="uni2092" unicode="&#x2092;" 
d="M401 -186q96 0 162.5 73.5t66.5 178.5q0 104 -66.5 176.5t-162.5 72.5q-97 0 -163 -72.5t-66 -176.5q0 -105 66.5 -178.5t162.5 -73.5zM401 424q149 0 251.5 -104t102.5 -254q0 -151 -102 -255t-252 -104t-252 104t-102 255q0 150 102 254t252 104z" />
    <glyph glyph-name="uni2093" unicode="&#x2093;" 
d="M213 -279h-140l256 355l-240 334h139l173 -240l172 240h141l-240 -334l255 -355h-139l-189 262z" />
    <glyph glyph-name="uni2094" unicode="&#x2094;" 
d="M65 104h553q-10 92 -74 154.5t-156 62.5q-59 0 -115 -30t-97 -82l-70 70q107 145 281 145q157 0 256 -103.5t99 -254.5q0 -150 -99.5 -254.5t-247.5 -104.5q-146 0 -240.5 99t-94.5 243q0 28 5 55zM395 -189q83 0 143.5 55.5t75.5 138.5h-428q11 -87 68.5 -140.5
t140.5 -53.5z" />
    <glyph glyph-name="uni20A0" unicode="&#x20a0;" horiz-adv-x="1579" 
d="M66 944q0 141 68.5 259.5t188 186.5t263.5 68q153 0 277.5 -81t169.5 -234h-138q-36 96 -120.5 145t-188.5 49q-160 0 -271.5 -114t-111.5 -279q0 -164 111.5 -277.5t271.5 -113.5q136 0 248 76v364h606v-119h-469v-315h436v-119h-436v-321h481v-119h-618v493
q-113 -61 -248 -61q-144 0 -263.5 67.5t-188 185.5t-68.5 259z" />
    <glyph glyph-name="colonmonetary" unicode="&#x20a1;" horiz-adv-x="1552" 
d="M85 717q0 291 176 496t447 239l33 190h105l-33 -185q70 0 150 -15l35 200h104l-41 -228q154 -55 260 -171.5t146 -277.5h-150q-32 106 -105.5 188t-174.5 127l-208 -1177q163 9 298 94.5t213 223.5l100 -68q-194 -358 -633 -377l-33 -185h-103l34 192q-79 9 -147 33
l-40 -225h-104l48 267q-173 92 -275 266.5t-102 392.5zM230 717q0 -168 68.5 -303t187.5 -215l198 1118q-199 -41 -326.5 -204t-127.5 -396zM582 147q67 -28 144 -39l214 1207q-69 16 -134 16q-10 0 -15 -1z" />
    <glyph glyph-name="uni20A2" unicode="&#x20a2;" horiz-adv-x="1552" 
d="M85 717q0 157 55.5 295t151 235.5t228.5 154t283 56.5q248 0 428 -133.5t236 -359.5h-150q-50 166 -191 266t-320 100q-117 0 -222 -44.5t-183.5 -123.5t-124.5 -195t-46 -251q0 -242 136 -407.5t344 -199.5v741h132v-139q43 72 111.5 115t153.5 43q46 0 88 -15l-11 -116
q-54 18 -91 18q-102 0 -176.5 -78t-74.5 -174v-402q158 9 289 95t209 223l100 -68q-99 -183 -264 -280.5t-373 -97.5q-150 0 -283 56.5t-228.5 154t-151 236t-55.5 295.5z" />
    <glyph glyph-name="franc" unicode="&#x20a3;" horiz-adv-x="1122" 
d="M266 0v498h-207v92h207v131h-207v90h207v623h801v-125h-657v-498h376v-90h-376v-131h376v-92h-376v-498h-144z" />
    <glyph glyph-name="lira" unicode="&#x20a4;" horiz-adv-x="1165" 
d="M810 710h-373q26 -76 37 -131h336v-92h-327v-12q0 -100 -41.5 -192t-112.5 -156h718v-127h-895v123q87 65 136.5 158.5t49.5 193.5v12h-255v92h245q-11 52 -40 131h-205v91h168q-58 146 -58 246q0 172 123.5 291.5t303.5 119.5q165 0 281 -103.5t139 -272.5h-138
q-18 116 -99 182.5t-183 66.5q-119 0 -200.5 -82t-81.5 -202q0 -96 63 -246h409v-91z" />
    <glyph glyph-name="uni20A6" unicode="&#x20a6;" horiz-adv-x="1479" 
d="M1419 565h-147v-565h-136l-371 565h-419v-565h-137v565h-150v86h150v131h-150v86h150v566h135l371 -566h419v566h138v-566h147v-86h-147v-131h147v-86zM346 782v-131h363l-86 131h-277zM771 782l86 -131h277v131h-363zM913 565l221 -333v333h-221zM346 1201v-333h220z
" />
    <glyph glyph-name="peseta" unicode="&#x20a7;" horiz-adv-x="1181" 
d="M65 1042h115v392h432q210 0 341.5 -106t146.5 -286h77v-91h-77q-17 -179 -147.5 -284.5t-340.5 -105.5h-288v-561h-144v951h-115v91zM324 1309v-267h629q-14 123 -106 195t-239 72h-284zM608 686q148 0 239.5 71t105.5 194h-629v-265h284z" />
    <glyph glyph-name="uni20A9" unicode="&#x20a9;" horiz-adv-x="2007" 
d="M1966 569h-292l-165 -569h-146l-164 569h-392l-164 -569h-145l-166 569h-291v86h266l-39 131h-227v86h203l-162 562h149l156 -562h382l162 562h144l162 -562h383l155 562h150l-163 -562h204v-86h-228l-38 -131h266v-86zM1137 786h-268l-38 -131h344zM1263 786l36 -131
h261l35 131h-332zM411 786l35 -131h261l37 131h-333zM1004 1248l-110 -376h218zM1324 569l108 -371l103 371h-211zM471 569l104 -371l107 371h-211z" />
    <glyph glyph-name="afii57636" unicode="&#x20aa;" horiz-adv-x="1760" 
d="M180 0v1434h490q213 0 354 -142.5t141 -353.5v-401h-143v401q0 158 -100 264.5t-252 106.5h-346v-1309h-144zM1580 1434v-1434h-489q-213 0 -354.5 142.5t-141.5 352.5v402h143v-402q0 -158 100.5 -264t252.5 -106h346v1309h143z" />
    <glyph glyph-name="dong" unicode="&#x20ab;" horiz-adv-x="1355" 
d="M79 530q0 151 65 277.5t185 202t270 75.5q133 0 241 -60t177 -164v353h-378v103h378v178h139v-178h164v-103h-164v-1214h-139v199q-69 -104 -177.5 -164t-240.5 -60q-150 0 -270 75.5t-185 201.5t-65 278zM220 530q0 -178 113 -304t287 -126q173 0 285 125.5t112 304.5
t-111 305t-286 126q-116 0 -208.5 -59t-142 -157.5t-49.5 -214.5zM340 -313v110h758v-110h-758z" />
    <glyph glyph-name="Euro" unicode="&#x20ac;" horiz-adv-x="1596" 
d="M128 717q0 47 4 84h-115v92h130q55 252 248 408.5t451 156.5q248 0 428.5 -133.5t236.5 -359.5h-151q-50 166 -190.5 266t-320.5 100q-196 0 -349 -119.5t-205 -318.5h688l-36 -92h-668q-6 -56 -6 -84q0 -30 6 -84h629l-36 -93h-576q51 -199 203.5 -318.5t349.5 -119.5
q170 0 311 87t224 232l100 -68q-100 -183 -265 -280.5t-373 -97.5q-259 0 -451.5 156.5t-248.5 408.5h-129v93h115q-4 54 -4 84z" />
    <glyph glyph-name="ruble" unicode="&#x20bd;" horiz-adv-x="1181" 
d="M65 686h115v748h432q224 0 357 -119.5t133 -317.5t-133 -317t-357 -119h-288v-138h433v-100h-433v-323h-144v323h-115v100h115v138h-115v125zM956 997q0 142 -94 227t-254 85h-284v-623h284q160 0 254 84.5t94 226.5z" />
    <glyph glyph-name="afii61248" unicode="&#x2105;" horiz-adv-x="2103" 
d="M1587 91q131 0 221 92.5t90 225.5t-90.5 225t-220.5 92t-220.5 -92t-90.5 -225t90 -225.5t221 -92.5zM1587 843q189 0 318 -126t129 -308q0 -183 -129 -309t-318 -126t-317.5 126t-128.5 309q0 182 128.5 308t317.5 126zM613 27l700 1433l109 -55l-699 -1434zM70 1023
q0 185 122.5 310t304.5 125q144 0 250.5 -75.5t144.5 -206.5h-138q-67 163 -252 163q-128 0 -212.5 -87.5t-84.5 -228.5q0 -139 89.5 -226.5t221.5 -87.5q170 0 267 138l87 -56q-60 -97 -151.5 -149t-208.5 -52q-181 0 -310.5 125.5t-129.5 307.5z" />
    <glyph glyph-name="uni2109" unicode="&#x2109;" horiz-adv-x="1611" 
d="M725 0v1434h801v-125h-658v-525h602v-125h-602v-659h-143zM154 1182q0 -71 49 -121t120 -50t120 50t49 121t-49 120.5t-120 49.5t-120 -49.5t-49 -120.5zM46 1182q0 114 80 192t197 78q116 0 196 -78t80 -192t-80 -193t-196 -79q-117 0 -197 79t-80 193z" />
    <glyph glyph-name="afii61289" unicode="&#x2113;" horiz-adv-x="1136" 
d="M676 -25q-173 0 -271 114t-98 288l-184 -74l-41 119q137 54 225 92v584q0 152 106.5 256t260.5 104q155 0 260.5 -104t105.5 -256v-47q0 -179 -146 -324.5t-443 -286.5v-98q0 -102 65.5 -172t159.5 -70q83 0 148.5 50.5t103.5 145.5l116 -70q-53 -119 -148 -185t-220 -66
zM897 1061v26q0 105 -64.5 175.5t-158.5 70.5t-158.5 -70.5t-64.5 -175.5v-503q229 113 337.5 223.5t108.5 253.5z" />
    <glyph glyph-name="afii61352" unicode="&#x2116;" horiz-adv-x="2239" 
d="M180 0v1434h138l670 -1163v1163h139v-1434h-138l-670 1162v-1162h-139zM2084 0h-778v121h778v-121zM1285 700q0 164 119 278t291 114t290.5 -114t118.5 -278t-118.5 -277.5t-290.5 -113.5t-291 113.5t-119 277.5zM1422 700q0 -115 78.5 -192.5t194.5 -77.5t194 77.5
t78 192.5q0 114 -78.5 192.5t-193.5 78.5q-116 0 -194.5 -78.5t-78.5 -192.5z" />
    <glyph glyph-name="uni2117" unicode="&#x2117;" horiz-adv-x="1635" 
d="M864 615h-154v-288h-111v777h265q120 0 198.5 -68.5t78.5 -175.5q0 -108 -78 -176.5t-199 -68.5zM1029 860q0 63 -46.5 102t-120.5 39h-152v-283h152q74 0 120.5 39.5t46.5 102.5zM76 717q0 153 58 290t157 236t236 157t290 58t290.5 -58t236.5 -157t157 -236t58 -290
t-58 -290.5t-157 -236.5t-236.5 -157t-290.5 -58t-290 58t-236 157t-157 236.5t-58 290.5zM166 717q0 -181 86.5 -332t236.5 -238.5t328 -87.5t328 87.5t236.5 238.5t86.5 332q0 135 -51 257t-138 209.5t-208 139t-254 51.5t-254 -51.5t-208 -139t-138 -209.5t-51 -257z" />
    <glyph glyph-name="uni2120" unicode="&#x2120;" horiz-adv-x="1585" 
d="M89 809l58 61q45 -51 98.5 -81.5t104.5 -30.5q70 0 115 33.5t45 87.5q0 101 -172 141q-118 26 -180 82t-62 137q0 91 69 149t182 58q103 0 173 -58t87 -155h-106q-13 56 -54.5 87.5t-95.5 31.5q-63 0 -101.5 -31t-38.5 -77q0 -92 164 -132q250 -60 250 -232
q0 -95 -75 -155.5t-197 -60.5q-76 0 -145.5 39.5t-118.5 105.5zM1125 796h-71l-220 408v-528h-113v758h102l267 -511l267 511h101v-758h-111v528z" />
    <glyph glyph-name="uni2121" unicode="&#x2121;" horiz-adv-x="2187" 
d="M953 489q8 -166 100.5 -279.5t228.5 -113.5q78 0 151.5 46t130.5 129l87 -78q-143 -218 -366 -218q-137 0 -245 75t-166.5 201.5t-58.5 278.5q0 151 59 278t164.5 202t234.5 75q127 0 228.5 -71t157 -191.5t55.5 -265.5q0 -45 -5 -68h-756zM1273 965q-120 0 -209 -104
t-107 -255h617q-13 156 -97 257.5t-204 101.5zM471 0v1309h-405v125h950v-125h-406v-1309h-139zM1872 0v1495h135v-1495h-135z" />
    <glyph glyph-name="trademark" unicode="&#x2122;" horiz-adv-x="1561" 
d="M278 676v663h-215v95h542v-95h-214v-663h-113zM1094 785h-52l-231 435v-544h-112v758h107l262 -497l261 497h108v-758h-113v544z" />
    <glyph glyph-name="Omega" unicode="&#x2126;" horiz-adv-x="1609" 
d="M1368 748q0 120 -44 228t-119.5 186t-179.5 123.5t-220 45.5t-220.5 -45.5t-179.5 -123.5t-119 -186t-44 -228q0 -191 108 -352t336 -273v-123h-573v127h384q-203 114 -302 275.5t-99 355.5q0 144 55.5 273.5t150 223t226 148.5t277.5 55q195 0 358 -93.5t256.5 -254
t93.5 -352.5q0 -194 -99 -355.5t-302 -275.5h385v-127h-573v123q154 76 255 178t145 212t44 235z" />
    <glyph glyph-name="estimated" unicode="&#x212e;" horiz-adv-x="1646" 
d="M399 675v-459q180 -157 424 -157q161 0 300.5 73t231.5 202l72 -50q-104 -147 -263.5 -228t-340.5 -81q-153 0 -290 58t-236 157t-157 236.5t-58 290.5t58 290t157 236t236 157t290 58t290.5 -58t236.5 -157t157 -236t58 -290v-42h-1166zM823 1374q-243 0 -424 -159v-457
h848v457q-84 74 -193.5 116.5t-230.5 42.5z" />
    <glyph glyph-name="onethird" unicode="&#x2153;" horiz-adv-x="1937" 
d="M570 30l696 1425l100 -51l-696 -1427zM420 1434h106v-971h-125v841l-196 -108l-49 93zM1720 293q0 89 -64.5 150.5t-156.5 61.5q-33 0 -76 -12l-49 61l273 310h-398v107h553v-97l-254 -285q128 -11 213 -95.5t85 -208.5q0 -126 -97.5 -218t-247.5 -92q-184 0 -298 175
l71 58q51 -66 103.5 -97t121.5 -31q93 0 157 61.5t64 151.5z" />
    <glyph glyph-name="twothirds" unicode="&#x2154;" horiz-adv-x="1937" 
d="M570 30l696 1425l100 -51l-696 -1427zM563 900l-299 -333h422v-104h-590v92l369 410q104 115 104 221q0 72 -51 120t-129 48q-83 0 -136 -55.5t-65 -148.5h-117q11 146 98.5 227t219.5 81t219.5 -76.5t87.5 -195.5q0 -138 -133 -286zM1720 293q0 89 -64.5 150.5
t-156.5 61.5q-33 0 -76 -12l-49 61l273 310h-398v107h553v-97l-254 -285q128 -11 213 -95.5t85 -208.5q0 -126 -97.5 -218t-247.5 -92q-184 0 -298 175l71 58q51 -66 103.5 -97t121.5 -31q93 0 157 61.5t64 151.5z" />
    <glyph glyph-name="onefifth" unicode="&#x2155;" horiz-adv-x="1937" 
d="M570 30l696 1425l100 -51l-696 -1427zM420 1434h106v-971h-125v841l-196 -108l-49 93zM1507 -27q-176 0 -284 185l68 51q86 -131 214 -131q93 0 155 60.5t62 152.5t-62 153.5t-155 61.5q-52 0 -97 -26t-70 -66l-91 12l60 543h505v-107h-393l-36 -299q57 45 143 45
q134 0 228.5 -88t94.5 -227q0 -140 -95.5 -230t-246.5 -90z" />
    <glyph glyph-name="twofifths" unicode="&#x2156;" horiz-adv-x="1937" 
d="M570 30l696 1425l100 -51l-696 -1427zM563 900l-299 -333h422v-104h-590v92l369 410q104 115 104 221q0 72 -51 120t-129 48q-83 0 -136 -55.5t-65 -148.5h-117q11 146 98.5 227t219.5 81t219.5 -76.5t87.5 -195.5q0 -138 -133 -286zM1507 -27q-176 0 -284 185l68 51
q86 -131 214 -131q93 0 155 60.5t62 152.5t-62 153.5t-155 61.5q-52 0 -97 -26t-70 -66l-91 12l60 543h505v-107h-393l-36 -299q57 45 143 45q134 0 228.5 -88t94.5 -227q0 -140 -95.5 -230t-246.5 -90z" />
    <glyph glyph-name="threefifths" unicode="&#x2157;" horiz-adv-x="1937" 
d="M570 30l696 1425l100 -51l-696 -1427zM1507 -27q-176 0 -284 185l68 51q86 -131 214 -131q93 0 155 60.5t62 152.5t-62 153.5t-155 61.5q-52 0 -97 -26t-70 -66l-91 12l60 543h505v-107h-393l-36 -299q57 45 143 45q134 0 228.5 -88t94.5 -227q0 -140 -95.5 -230
t-246.5 -90zM586 756q0 89 -64.5 150.5t-156.5 61.5q-30 0 -76 -13l-49 62l272 310h-397v107h553v-97l-254 -285q128 -11 213 -95.5t85 -208.5q0 -126 -97.5 -218t-247.5 -92q-185 0 -298 174l70 59q51 -65 104 -96.5t122 -31.5q93 0 157 61.5t64 151.5z" />
    <glyph glyph-name="fourfifths" unicode="&#x2158;" horiz-adv-x="1937" 
d="M570 30l696 1425l100 -51l-696 -1427zM1507 -27q-176 0 -284 185l68 51q86 -131 214 -131q93 0 155 60.5t62 152.5t-62 153.5t-155 61.5q-52 0 -97 -26t-70 -66l-91 12l60 543h505v-107h-393l-36 -299q57 45 143 45q134 0 228.5 -88t94.5 -227q0 -140 -95.5 -230
t-246.5 -90zM43 668v98l457 668h118v-658h123v-108h-123v-205h-125v205h-450zM184 776h309v457z" />
    <glyph glyph-name="onesixth" unicode="&#x2159;" horiz-adv-x="1937" 
d="M570 30l696 1425l100 -51l-696 -1427zM420 1434h106v-971h-125v841l-196 -108l-49 93zM1702 971l-242 -375q38 19 84 19q135 0 232.5 -91t97.5 -227q0 -137 -100.5 -229.5t-238.5 -92.5q-140 0 -240.5 92.5t-100.5 229.5q0 93 48 166l326 508h134zM1748 297
q0 91 -62.5 153t-152.5 62q-89 0 -151 -62.5t-62 -152.5q0 -92 62 -154.5t151 -62.5q90 0 152.5 62.5t62.5 154.5z" />
    <glyph glyph-name="fivesixths" unicode="&#x215a;" horiz-adv-x="1937" 
d="M570 30l696 1425l100 -51l-696 -1427zM1702 971l-242 -375q38 19 84 19q135 0 232.5 -91t97.5 -227q0 -137 -100.5 -229.5t-238.5 -92.5q-140 0 -240.5 92.5t-100.5 229.5q0 93 48 166l326 508h134zM1748 297q0 91 -62.5 153t-152.5 62q-89 0 -151 -62.5t-62 -152.5
q0 -92 62 -154.5t151 -62.5q90 0 152.5 62.5t62.5 154.5zM373 438q-87 0 -160 48t-125 137l69 51q86 -131 214 -131q93 0 155 60.5t62 152.5t-62 153.5t-155 61.5q-52 0 -97 -26t-70 -66l-91 12l59 543h506v-107h-393l-36 -299q57 45 142 45q134 0 229 -88t95 -227
q0 -140 -95.5 -230t-246.5 -90z" />
    <glyph glyph-name="oneeighth" unicode="&#x215b;" horiz-adv-x="1937" 
d="M570 30l696 1425l100 -51l-696 -1427zM420 1434h106v-971h-125v841l-196 -108l-49 93zM1536 -27q-143 0 -240.5 87t-97.5 214q0 84 49.5 153t132.5 104q-61 28 -96.5 83.5t-35.5 120.5q0 108 82.5 183t205.5 75t205.5 -75t82.5 -183q0 -65 -36 -120.5t-97 -83.5
q84 -34 133 -103.5t49 -153.5q0 -127 -97.5 -214t-239.5 -87zM1536 475q-89 0 -150 -58t-61 -141q0 -84 60.5 -141t150.5 -57t150.5 57t60.5 141q0 83 -61 141t-150 58zM1536 578q70 0 117.5 45.5t47.5 110.5t-47.5 110t-117.5 45t-117.5 -45t-47.5 -110q0 -66 47.5 -111
t117.5 -45z" />
    <glyph glyph-name="threeeighths" unicode="&#x215c;" horiz-adv-x="1937" 
d="M570 30l696 1425l100 -51l-696 -1427zM1536 -27q-143 0 -240.5 87t-97.5 214q0 84 49.5 153t132.5 104q-61 28 -96.5 83.5t-35.5 120.5q0 108 82.5 183t205.5 75t205.5 -75t82.5 -183q0 -65 -36 -120.5t-97 -83.5q84 -34 133 -103.5t49 -153.5q0 -127 -97.5 -214
t-239.5 -87zM1536 475q-89 0 -150 -58t-61 -141q0 -84 60.5 -141t150.5 -57t150.5 57t60.5 141q0 83 -61 141t-150 58zM1536 578q70 0 117.5 45.5t47.5 110.5t-47.5 110t-117.5 45t-117.5 -45t-47.5 -110q0 -66 47.5 -111t117.5 -45zM586 756q0 89 -64.5 150.5t-156.5 61.5
q-30 0 -76 -13l-49 62l272 310h-397v107h553v-97l-254 -285q128 -11 213 -95.5t85 -208.5q0 -126 -97.5 -218t-247.5 -92q-185 0 -298 174l70 59q51 -65 104 -96.5t122 -31.5q93 0 157 61.5t64 151.5z" />
    <glyph glyph-name="fiveeighths" unicode="&#x215d;" horiz-adv-x="1937" 
d="M570 30l696 1425l100 -51l-696 -1427zM373 438q-87 0 -160 48t-125 137l69 51q86 -131 214 -131q93 0 155 60.5t62 152.5t-62 153.5t-155 61.5q-52 0 -97 -26t-70 -66l-91 12l59 543h506v-107h-393l-36 -299q57 45 142 45q134 0 229 -88t95 -227q0 -140 -95.5 -230
t-246.5 -90zM1536 -27q-143 0 -240.5 87t-97.5 214q0 84 49.5 153t132.5 104q-61 28 -96.5 83.5t-35.5 120.5q0 108 82.5 183t205.5 75t205.5 -75t82.5 -183q0 -65 -36 -120.5t-97 -83.5q84 -34 133 -103.5t49 -153.5q0 -127 -97.5 -214t-239.5 -87zM1536 475
q-89 0 -150 -58t-61 -141q0 -84 60.5 -141t150.5 -57t150.5 57t60.5 141q0 83 -61 141t-150 58zM1536 578q70 0 117.5 45.5t47.5 110.5t-47.5 110t-117.5 45t-117.5 -45t-47.5 -110q0 -66 47.5 -111t117.5 -45z" />
    <glyph glyph-name="seveneighths" unicode="&#x215e;" horiz-adv-x="1937" 
d="M570 30l696 1425l100 -51l-696 -1427zM1536 -27q-143 0 -240.5 87t-97.5 214q0 84 49.5 153t132.5 104q-61 28 -96.5 83.5t-35.5 120.5q0 108 82.5 183t205.5 75t205.5 -75t82.5 -183q0 -65 -36 -120.5t-97 -83.5q84 -34 133 -103.5t49 -153.5q0 -127 -97.5 -214
t-239.5 -87zM1536 475q-89 0 -150 -58t-61 -141q0 -84 60.5 -141t150.5 -57t150.5 57t60.5 141q0 83 -61 141t-150 58zM1536 578q70 0 117.5 45.5t47.5 110.5t-47.5 110t-117.5 45t-117.5 -45t-47.5 -110q0 -66 47.5 -111t117.5 -45zM98 1434h609v-93l-375 -878h-139
l373 864h-468v107z" />
    <glyph glyph-name="uni215F" unicode="&#x215f;" horiz-adv-x="1937" 
d="M570 30l696 1425l100 -51l-696 -1427zM420 1434h106v-971h-125v841l-196 -108l-49 93z" />
    <glyph glyph-name="arrowleft" unicode="&#x2190;" horiz-adv-x="1761" 
d="M598 268l-484 410l484 412l67 -82l-342 -279h1365v-100h-1367l344 -280z" />
    <glyph glyph-name="arrowup" unicode="&#x2191;" horiz-adv-x="1761" 
d="M469 1012l410 484l411 -484l-82 -67l-278 342v-1365h-101v1367l-279 -344z" />
    <glyph glyph-name="arrowright" unicode="&#x2192;" horiz-adv-x="1761" 
d="M1649 678l-485 -410l-67 81l344 280h-1366v100h1365l-343 279l67 82z" />
    <glyph glyph-name="arrowdown" unicode="&#x2193;" horiz-adv-x="1761" 
d="M1290 445l-410 -484q-348 410 -411 484l81 67l278 -342v1365h101v-1367l279 344z" />
    <glyph glyph-name="arrowboth" unicode="&#x2194;" horiz-adv-x="1761" 
d="M1649 678l-485 -410l-67 81l344 280h-1120l344 -280l-67 -81l-484 410l484 412l67 -82l-342 -279h1117l-343 279l67 82z" />
    <glyph glyph-name="arrowupdn" unicode="&#x2195;" horiz-adv-x="1761" 
d="M879 -39l-410 483l81 68l279 -344v1120l-279 -344l-81 67l410 484l411 -484l-82 -67l-278 342v-1117l278 343l82 -68z" />
    <glyph glyph-name="arrowupdnbse" unicode="&#x21a8;" horiz-adv-x="1761" 
d="M554 -80h653v-100h-653v100zM879 -39l-410 483l81 68l279 -344v1120l-279 -344l-81 67l410 484l411 -484l-82 -67l-278 342v-1117l278 343l82 -68z" />
    <glyph glyph-name="partialdiff" unicode="&#x2202;" horiz-adv-x="1235" 
d="M580 922q125 0 229.5 -56t180.5 -140q-4 183 -51 318t-141 212t-227 77q-182 0 -320 -143q-39 66 -63 110q75 76 174 117t209 41q175 0 304 -93.5t195.5 -261t66.5 -390.5q0 -345 -151 -541.5t-398 -196.5q-213 0 -360.5 138t-147.5 336q0 129 68 238.5t183 172t249 62.5
zM588 100q164 0 269.5 122.5t128.5 359.5q-78 100 -179.5 157.5t-218.5 57.5q-154 0 -259.5 -101t-105.5 -247q0 -148 105.5 -248.5t259.5 -100.5z" />
    <glyph glyph-name="Delta" unicode="&#x2206;" horiz-adv-x="1380" 
d="M769 1434l554 -1434h-1266l554 1434h158zM690 1272l-433 -1147h865z" />
    <glyph glyph-name="product" unicode="&#x220f;" horiz-adv-x="1374" 
d="M1194 1516v-1743h-143v1618h-727v-1618h-144v1743h1014z" />
    <glyph glyph-name="summation" unicode="&#x2211;" horiz-adv-x="1316" 
d="M135 -106l567 761l-567 740v121h1047v-125h-873l539 -703v-65l-539 -725h873v-125h-1047v121z" />
    <glyph glyph-name="minus" unicode="&#x2212;" horiz-adv-x="1163" 
d="M1042 620h-921v120h921v-120z" />
    <glyph glyph-name="uni2215" unicode="&#x2215;" horiz-adv-x="333" 
d="M-231 30l695 1425l100 -51l-696 -1427z" />
    <glyph glyph-name="uni2219" unicode="&#x2219;" horiz-adv-x="602" 
d="M197 672q0 44 30 74t74 30t74.5 -30t30.5 -74t-30.5 -74.5t-74.5 -30.5t-74 30.5t-30 74.5z" />
    <glyph glyph-name="radical" unicode="&#x221a;" horiz-adv-x="1132" 
d="M571 0h-147l-369 768h156l275 -587l443 1396h148z" />
    <glyph glyph-name="infinity" unicode="&#x221e;" horiz-adv-x="1539" 
d="M692 679q-87 103 -151 147t-141 44q-87 0 -144.5 -54t-57.5 -137t57.5 -137.5t144.5 -54.5q77 0 140.5 44.5t151.5 147.5zM846 679q89 -104 152.5 -148t140.5 -44q87 0 144 54.5t57 137.5t-57 137t-144 54q-78 0 -141.5 -44t-151.5 -147zM769 599q-98 -112 -185.5 -167
t-188.5 -55q-136 0 -229.5 86.5t-93.5 215.5t93.5 215.5t229.5 86.5q101 0 188.5 -54.5t185.5 -166.5q99 112 186 166.5t188 54.5q136 0 229.5 -86.5t93.5 -215.5t-93.5 -215.5t-229.5 -86.5q-101 0 -188 55t-186 167z" />
    <glyph glyph-name="orthogonal" unicode="&#x221f;" horiz-adv-x="1233" 
d="M1179 125v-125h-1004v1178h143v-1053h861z" />
    <glyph glyph-name="intersection" unicode="&#x2229;" horiz-adv-x="1293" 
d="M646 1264q137 0 251 -66.5t179.5 -181t65.5 -252.5v-764h-144v754q0 163 -101.5 274t-250.5 111t-250.5 -111t-101.5 -274v-754h-143v764q0 138 65 252.5t179 181t251 66.5z" />
    <glyph glyph-name="integral" unicode="&#x222b;" horiz-adv-x="868" 
d="M504 1210v-1321q0 -364 -359 -364q-50 0 -104 8v121q39 -6 94 -6q120 0 175 61.5t55 181.5v1321q0 365 358 365q50 0 104 -8v-121q-39 6 -94 6q-120 0 -174.5 -61.5t-54.5 -182.5z" />
    <glyph glyph-name="approxequal" unicode="&#x2248;" horiz-adv-x="1163" 
d="M554 938q-38 38 -61 58.5t-61.5 41.5t-71.5 21q-129 0 -163 -203l-131 33q23 141 94.5 218t187.5 77q134 0 260 -126q28 -28 45.5 -44t44.5 -37t52.5 -30.5t51.5 -9.5q130 0 164 203l131 -33q-23 -141 -95 -218t-188 -77q-134 0 -260 126zM554 446q-38 38 -61 58.5
t-61.5 41.5t-71.5 21q-129 0 -163 -202l-131 32q23 141 94.5 218t187.5 77q134 0 260 -126q28 -28 45.5 -44t44.5 -36.5t52.5 -30.5t51.5 -10q130 0 164 203l131 -33q-23 -141 -95 -217.5t-188 -76.5q-135 0 -260 125z" />
    <glyph glyph-name="notequal" unicode="&#x2260;" horiz-adv-x="1163" 
d="M121 977h564l160 306l91 -48l-135 -258h241v-121h-304l-184 -352h488v-121h-552l-173 -332l-91 48l149 284h-254v121h316l185 352h-501v121z" />
    <glyph glyph-name="equivalence" unicode="&#x2261;" horiz-adv-x="1163" 
d="M1042 953h-921v121h921v-121zM1042 286h-921v121h921v-121zM1042 620h-921v120h921v-120z" />
    <glyph glyph-name="lessequal" unicode="&#x2264;" horiz-adv-x="1163" 
d="M1042 0h-921v121h921v-121zM144 728v121l819 385l53 -106l-708 -340l708 -339l-53 -106z" />
    <glyph glyph-name="greaterequal" unicode="&#x2265;" horiz-adv-x="1163" 
d="M1042 0h-921v121h921v-121zM1017 849v-121l-818 -385l-54 106l707 339l-707 340l54 106z" />
    <glyph glyph-name="house" unicode="&#x2302;" horiz-adv-x="1292" 
d="M289 125h715v543l-358 426l-357 -426v-543zM1147 0h-1002v713l501 590l501 -590v-713z" />
    <glyph glyph-name="revlogicalnot" unicode="&#x2310;" horiz-adv-x="1163" 
d="M260 620v-374h-139v494h921v-120h-782z" />
    <glyph glyph-name="uni2318" unicode="&#x2318;" horiz-adv-x="1650" 
d="M684 520h283v283h-283v-283zM393 907h174v168q0 72 -50 120t-124 48q-75 0 -124.5 -48t-49.5 -120t49.5 -120t124.5 -48zM1083 907h174q43 0 73 28q45 13 73.5 51t28.5 89q0 72 -50.5 120t-124.5 48t-124 -48t-50 -120v-168zM567 416h-174q-75 0 -124.5 -48t-49.5 -120
t49.5 -120t124.5 -48q74 0 124 48t50 120v168zM567 520v283h-174q-123 0 -207 78.5t-84 193.5t84 194t207 79t207 -79t84 -194v-168h283v168q0 116 83.5 194.5t206.5 78.5t207 -79t84 -194t-84 -193.5t-207 -78.5h-174v-283h174q123 0 207 -78.5t84 -193.5t-84 -194
t-207 -79t-206.5 78.5t-83.5 194.5v168h-283v-168q0 -115 -84 -194t-207 -79t-207 79t-84 194t84 193.5t207 78.5h174zM1257 416h-174v-168q0 -72 50 -120t124 -48t124.5 48t50.5 120t-50.5 120t-124.5 48z" />
    <glyph glyph-name="lozenge" unicode="&#x25ca;" horiz-adv-x="1155" 
d="M1057 618l-479 -940l-480 940l480 941zM908 618l-330 660l-332 -660l332 -659z" />
    <glyph glyph-name="H18533" unicode="&#x25cf;" horiz-adv-x="2048" 
d="M332 668q0 187 93 346.5t252.5 252.5t346.5 93t346.5 -93t252.5 -252.5t93 -346.5t-93 -347t-252.5 -253t-346.5 -93t-346.5 93t-252.5 253t-93 347z" />
    <glyph glyph-name="commaaccent" horiz-adv-x="843" 
d="M257 -434l214 339l100 -75l-232 -323z" />
    <glyph glyph-name="zero.tnum" horiz-adv-x="1125" 
d="M85 717q0 213 51 377.5t160.5 264t265.5 99.5t265 -99.5t160 -264t51 -377.5q0 -159 -29.5 -292.5t-87.5 -234.5t-150 -158t-209 -57q-118 0 -210 57t-149.5 158t-87.5 234.5t-30 292.5zM226 717q0 -179 35 -314.5t112 -217t189 -81.5t189 82t111.5 217t34.5 314
t-34.5 314t-111.5 216.5t-189 81.5t-189 -81.5t-112 -216.5t-35 -314z" />
    <glyph glyph-name="one.tnum" horiz-adv-x="946" 
d="M484 1434h131v-1434h-141v1290l-303 -170l-59 107z" />
    <glyph glyph-name="two.tnum" horiz-adv-x="1044" 
d="M755 649l-469 -526h647v-123h-834v117l545 608q86 96 124 177t38 165q0 116 -82.5 192t-208.5 76q-125 0 -211.5 -81t-96.5 -212h-133q7 176 130 296t311 120q187 0 309.5 -110t122.5 -281q0 -109 -46 -207.5t-146 -210.5z" />
    <glyph glyph-name="three.tnum" horiz-adv-x="1101" 
d="M856 434q0 140 -102 238t-252 98q-51 0 -101 -16l-57 73l418 482h-608v125h780v-125l-394 -447q197 -6 327 -128.5t130 -311.5q0 -87 -35.5 -168t-98.5 -143t-156 -99t-201 -37q-263 0 -419 241l87 73q56 -89 140.5 -140t187.5 -51q150 0 252 97.5t102 238.5z" />
    <glyph glyph-name="four.tnum" horiz-adv-x="1167" 
d="M75 311v127l671 996h142v-994h184v-129h-184v-311h-142v311h-671zM234 438h512v762z" />
    <glyph glyph-name="five.tnum" horiz-adv-x="1112" 
d="M519 -25q-131 0 -238.5 63t-179.5 173l90 74q124 -187 324 -187q149 0 248.5 96.5t99.5 241.5t-99.5 241.5t-248.5 96.5q-85 0 -154.5 -37t-107.5 -98l-98 12l86 783h710v-125h-585l-60 -504q94 90 240 90q93 0 176.5 -33.5t146 -92t99.5 -145t37 -186.5
q0 -202 -136 -332.5t-350 -130.5z" />
    <glyph glyph-name="six.tnum" horiz-adv-x="1179" 
d="M805 1434l-375 -583q73 50 175 50q126 0 233 -59t171 -166t64 -237t-66.5 -237.5t-177.5 -167t-240 -59.5q-130 0 -241 59.5t-177.5 167t-66.5 237.5q0 135 69 243l479 752h153zM932 439q0 143 -100 242t-243 99t-243 -99t-100 -242t100 -242t243 -99t243 99t100 242z
" />
    <glyph glyph-name="seven.tnum" horiz-adv-x="985" 
d="M66 1434h862v-121l-562 -1313h-155l562 1309h-707v125z" />
    <glyph glyph-name="eight.tnum" horiz-adv-x="1161" 
d="M581 -25q-202 0 -341 125t-139 308q0 133 79.5 235.5t215.5 142.5q-99 33 -160 119t-61 187q0 155 116 260.5t290 105.5t289.5 -105.5t115.5 -260.5q0 -101 -61 -187t-160 -119q136 -40 215.5 -142.5t79.5 -235.5q0 -183 -138.5 -308t-340.5 -125zM581 723
q-142 0 -240 -91.5t-98 -221.5q0 -129 98 -220.5t240 -91.5t240 91.5t98 220.5q0 130 -98 221.5t-240 91.5zM581 842q113 0 190.5 73t77.5 175t-77.5 173.5t-190.5 71.5t-191 -71.5t-78 -173.5t78 -175t191 -73z" />
    <glyph glyph-name="nine.tnum" horiz-adv-x="1179" 
d="M374 0l375 583q-72 -51 -176 -51q-126 0 -233 59t-171 166t-64 237t67 237.5t177.5 167t239.5 59.5q130 0 241 -59.5t177.5 -167t66.5 -237.5q0 -135 -68 -242l-480 -752h-152zM247 994q0 -143 100 -242t243 -99t243 99t100 242t-100 242t-243 99t-243 -99t-100 -242z
" />
    <glyph glyph-name="parenleft.case" horiz-adv-x="841" 
d="M256 717q0 275 101.5 526.5t279.5 425.5l98 -78q-159 -165 -247.5 -395.5t-88.5 -478.5t88.5 -479t247.5 -397l-98 -77q-178 174 -279.5 426t-101.5 527z" />
    <glyph glyph-name="parenright.case" horiz-adv-x="841" 
d="M586 717q0 -275 -101.5 -527t-279.5 -426l-99 77q159 166 247.5 397t88.5 479t-88.5 478.5t-247.5 395.5l99 78q178 -174 279.5 -425.5t101.5 -526.5z" />
    <glyph glyph-name="hyphen.case" horiz-adv-x="815" 
d="M695 664h-576v131h576v-131z" />
    <glyph glyph-name="at.case" horiz-adv-x="1946" 
d="M952 1059q-125 0 -205.5 -94t-80.5 -234t80.5 -234t205.5 -94t206 94t81 234t-81 234t-206 94zM1480 295q-74 0 -140 46t-92 123q-51 -79 -129 -124t-172 -45q-171 0 -287 126.5t-116 309.5t116 309.5t287 126.5q91 0 166 -41.5t126 -115.5v137h120v-598q0 -62 38.5 -104
t95.5 -42q107 0 181.5 108.5t74.5 281.5q0 153 -61.5 290t-166 235t-248 155t-302.5 57t-302 -61.5t-246.5 -166.5t-164.5 -251t-61 -308q0 -163 60.5 -308t165 -250t253 -166.5t316.5 -61.5q283 0 509 161l48 -102q-258 -168 -557 -168q-193 0 -363.5 69t-291.5 187.5
t-191 284.5t-70 354q0 249 119.5 455t325 323t450.5 117q189 0 355.5 -65t286 -177t188.5 -268.5t69 -334.5q0 -219 -110.5 -358.5t-279.5 -139.5z" />
    <glyph glyph-name="bracketleft.case" horiz-adv-x="841" 
d="M247 -195v1823h534v-125h-391v-1573h391v-125h-534z" />
    <glyph glyph-name="bracketright.case" horiz-adv-x="841" 
d="M595 1628v-1823h-535v125h392v1573h-392v125h535z" />
    <glyph glyph-name="braceleft.case" horiz-adv-x="841" 
d="M158 654v124q98 0 157.5 56.5t59.5 148.5v334q0 131 92.5 221t230.5 90h90v-125h-81q-82 0 -135.5 -55.5t-53.5 -138.5v-344q0 -97 -48.5 -160t-137.5 -88q89 -25 137.5 -88t48.5 -160v-344q0 -84 53.5 -139.5t135.5 -55.5h81v-125h-90q-138 0 -230.5 90t-92.5 222v334
q0 92 -59.5 147.5t-157.5 55.5z" />
    <glyph glyph-name="braceright.case" horiz-adv-x="841" 
d="M684 778v-124q-98 0 -157.5 -55.5t-59.5 -147.5v-334q0 -132 -93 -222t-231 -90h-90v125h82q82 0 135.5 55.5t53.5 139.5v344q0 97 48.5 160t137.5 88q-89 25 -137.5 88t-48.5 160v344q0 83 -53.5 138.5t-135.5 55.5h-82v125h90q138 0 231 -90t93 -221v-334
q0 -92 59.5 -148.5t157.5 -56.5z" />
    <glyph glyph-name="exclamdown.case" horiz-adv-x="626" 
d="M242 0l20 1040h103l20 -1040h-143zM211 1356q0 44 29 73t73 29t73.5 -29.5t29.5 -72.5t-30 -73t-73 -30q-44 0 -73 30t-29 73z" />
    <glyph glyph-name="guillemotleft.case" horiz-adv-x="1288" 
d="M109 632v110l511 342l55 -80l-433 -317l433 -316l-55 -81zM610 632v110l511 342l56 -80l-434 -317l434 -316l-56 -81z" />
    <glyph glyph-name="periodcentered.case" horiz-adv-x="602" 
d="M197 721q0 44 30 74t74 30t74.5 -30t30.5 -74t-30.5 -74.5t-74.5 -30.5t-74 30.5t-30 74.5z" />
    <glyph glyph-name="guillemotright.case" horiz-adv-x="1288" 
d="M1181 742v-110l-511 -342l-56 81l433 316l-433 317l56 80zM679 742v-110l-511 -342l-55 81l432 316l-432 317l55 80z" />
    <glyph glyph-name="questiondown.case" horiz-adv-x="1107" 
d="M517 1029h146q-3 -168 -50 -256t-168 -161q-70 -43 -109 -78t-61.5 -82.5t-22.5 -109.5q0 -106 86.5 -173t221.5 -67q129 0 213.5 71t93.5 198h149q-5 -95 -45 -171.5t-104.5 -125t-145.5 -74t-171 -25.5q-196 0 -320.5 107.5t-124.5 273.5q0 117 56 199t194 160
q69 39 103.5 82t46 93.5t12.5 138.5zM691 1356q0 -44 -29.5 -73.5t-72.5 -29.5q-44 0 -73.5 29.5t-29.5 73.5t29.5 73t73.5 29q43 0 72.5 -29t29.5 -73z" />
    <glyph glyph-name="endash.case" horiz-adv-x="1024" 
d="M1024 664h-1024v131h1024v-131z" />
    <glyph glyph-name="emdash.case" horiz-adv-x="2048" 
d="M2048 664h-2048v131h2048v-131z" />
    <glyph glyph-name="bullet.case" horiz-adv-x="819" 
d="M410 492q-100 0 -170 69t-70 168q0 98 70 168t170 70t169.5 -69.5t69.5 -168.5q0 -100 -69.5 -168.5t-169.5 -68.5z" />
    <glyph glyph-name="guilsinglleft.case" horiz-adv-x="786" 
d="M109 632v110l511 342l55 -80l-433 -317l433 -316l-55 -81z" />
    <glyph glyph-name="guilsinglright.case" horiz-adv-x="786" 
d="M679 742v-110l-511 -342l-55 81l433 316l-433 317l55 80z" />
    <glyph glyph-name="zero.numerator" 
d="M65 948q0 146 36 259t113.5 182t186.5 69t186.5 -69t113.5 -182t36 -259t-36.5 -259.5t-113.5 -182t-186 -68.5t-186.5 69t-113.5 182t-36 259zM189 948q0 -117 22 -205.5t71 -142t119 -53.5q104 0 157.5 110.5t53.5 290.5q0 117 -22 206t-70.5 142.5t-118.5 53.5
q-104 0 -158 -111t-54 -291z" />
    <glyph glyph-name="one.numerator" 
d="M420 1434h106v-971h-125v841l-196 -108l-49 93z" />
    <glyph glyph-name="two.numerator" 
d="M563 900l-299 -333h422v-104h-590v92l369 410q104 115 104 221q0 72 -51 120t-129 48q-83 0 -136 -55.5t-65 -148.5h-117q11 146 98.5 227t219.5 81t219.5 -76.5t87.5 -195.5q0 -138 -133 -286z" />
    <glyph glyph-name="three.numerator" 
d="M586 756q0 89 -64.5 150.5t-156.5 61.5q-30 0 -76 -13l-49 62l272 310h-397v107h553v-97l-254 -285q128 -11 213 -95.5t85 -208.5q0 -126 -97.5 -218t-247.5 -92q-185 0 -298 174l70 59q51 -65 104 -96.5t122 -31.5q93 0 157 61.5t64 151.5z" />
    <glyph glyph-name="four.numerator" 
d="M43 668v98l457 668h118v-658h123v-108h-123v-205h-125v205h-450zM184 776h309v457z" />
    <glyph glyph-name="five.numerator" 
d="M373 438q-87 0 -160 48t-125 137l69 51q86 -131 214 -131q93 0 155 60.5t62 152.5t-62 153.5t-155 61.5q-52 0 -97 -26t-70 -66l-91 12l59 543h506v-107h-393l-36 -299q57 45 142 45q134 0 229 -88t95 -227q0 -140 -95.5 -230t-246.5 -90z" />
    <glyph glyph-name="six.numerator" 
d="M568 1434l-241 -375q38 19 84 19q135 0 232 -91t97 -227q0 -137 -100.5 -229.5t-238.5 -92.5q-140 0 -240.5 92.5t-100.5 229.5q0 91 49 166l325 508h134zM614 760q0 91 -62.5 153t-152.5 62q-89 0 -151 -62.5t-62 -152.5q0 -92 62 -154.5t151 -62.5q90 0 152.5 62.5
t62.5 154.5z" />
    <glyph glyph-name="seven.numerator" 
d="M98 1434h609v-93l-375 -878h-139l373 864h-468v107z" />
    <glyph glyph-name="eight.numerator" 
d="M401 438q-143 0 -240.5 87t-97.5 214q0 84 49.5 153t133.5 104q-61 28 -96.5 83.5t-35.5 120.5q0 108 82 183t205 75t205.5 -75t82.5 -183q0 -65 -36 -120.5t-97 -83.5q84 -34 133 -103.5t49 -153.5q0 -127 -97.5 -214t-239.5 -87zM401 940q-89 0 -150 -58t-61 -141
q0 -84 60.5 -141t150.5 -57t150.5 57t60.5 141q0 83 -61 141t-150 58zM401 1042q69 0 117 45.5t48 111.5q0 65 -47.5 110t-117.5 45t-117 -44.5t-47 -110.5t47 -111.5t117 -45.5z" />
    <glyph glyph-name="nine.numerator" 
d="M233 463l242 375q-38 -20 -84 -20q-135 0 -232.5 91.5t-97.5 227.5q0 137 100.5 229t238.5 92q140 0 240.5 -92t100.5 -229q0 -94 -47 -167l-325 -507h-136zM187 1137q0 -91 62.5 -153t152.5 -62q89 0 151.5 62.5t62.5 152.5q0 92 -62.5 154.5t-151.5 62.5
q-90 0 -152.5 -62.5t-62.5 -154.5z" />
    <glyph glyph-name="zero.denominator" 
d="M65 485q0 146 36 259t113.5 182t186.5 69t186.5 -69t113.5 -182t36 -259t-36.5 -259.5t-113.5 -182t-186 -68.5t-186.5 69t-113.5 182t-36 259zM189 485q0 -117 22 -205.5t71 -142t119 -53.5q104 0 157.5 110.5t53.5 290.5q0 117 -22 206t-70.5 142.5t-118.5 53.5
q-104 0 -158 -111t-54 -291z" />
    <glyph glyph-name="one.denominator" 
d="M420 971h106v-971h-125v841l-196 -108l-49 93z" />
    <glyph glyph-name="two.denominator" 
d="M563 437l-299 -333h422v-104h-590v92l369 410q104 115 104 221q0 72 -51 120t-129 48q-83 0 -136 -55.5t-65 -148.5h-117q11 146 98.5 227t219.5 81t219.5 -76.5t87.5 -195.5q0 -138 -133 -286z" />
    <glyph glyph-name="three.denominator" 
d="M586 293q0 89 -64.5 150.5t-156.5 61.5q-33 0 -76 -12l-49 61l272 310h-397v107h553v-97l-254 -285q128 -11 213 -95.5t85 -208.5q0 -126 -97.5 -218t-247.5 -92q-184 0 -298 175l70 58q51 -65 104 -96.5t122 -31.5q93 0 157 61.5t64 151.5z" />
    <glyph glyph-name="four.denominator" 
d="M43 205v98l457 668h118v-658h123v-108h-123v-205h-125v205h-450zM184 313h309v457z" />
    <glyph glyph-name="five.denominator" 
d="M373 -25q-87 0 -160 48t-125 137l69 51q86 -131 214 -131q93 0 155 60.5t62 152.5t-62 153.5t-155 61.5q-52 0 -97 -26t-70 -66l-91 12l59 543h506v-107h-393l-36 -299q57 45 142 45q134 0 229 -88t95 -227q0 -140 -95.5 -230t-246.5 -90z" />
    <glyph glyph-name="six.denominator" 
d="M568 971l-241 -375q38 19 84 19q135 0 232 -91t97 -227q0 -137 -100.5 -229.5t-238.5 -92.5q-140 0 -240.5 92.5t-100.5 229.5q0 91 49 166l325 508h134zM614 297q0 91 -62.5 153t-152.5 62q-89 0 -151 -62.5t-62 -152.5q0 -92 62 -154.5t151 -62.5q90 0 152.5 62.5
t62.5 154.5z" />
    <glyph glyph-name="seven.denominator" 
d="M98 971h609v-92l-375 -879h-139l373 864h-468v107z" />
    <glyph glyph-name="eight.denominator" 
d="M401 -25q-143 0 -240.5 87t-97.5 214q0 84 49.5 153.5t133.5 104.5q-61 28 -96.5 83t-35.5 120q0 108 82 183t205 75t205.5 -75t82.5 -183q0 -65 -36 -120t-97 -83q84 -34 133 -104t49 -154q0 -127 -97.5 -214t-239.5 -87zM401 477q-90 0 -150.5 -57.5t-60.5 -140.5
q0 -84 60.5 -141.5t150.5 -57.5t150.5 57.5t60.5 141.5q0 83 -60.5 140.5t-150.5 57.5zM401 580q70 0 117.5 45.5t47.5 110.5t-47.5 110t-117.5 45t-117 -44.5t-47 -110.5t47 -111t117 -45z" />
    <glyph glyph-name="nine.denominator" 
d="M233 0l242 375q-38 -20 -84 -20q-135 0 -232.5 91.5t-97.5 227.5q0 137 100.5 229t238.5 92q140 0 240.5 -92t100.5 -229q0 -94 -47 -167l-325 -507h-136zM187 674q0 -91 62.5 -153t152.5 -62q89 0 151.5 62.5t62.5 152.5q0 92 -62.5 154.5t-151.5 62.5
q-90 0 -152.5 -62.5t-62.5 -154.5z" />
    </font>
</defs>
</svg>
