<?xml version="1.0" standalone="no"?>
<!DOCTYPE svg PUBLIC "-//W3C//DTD SVG 1.1//EN" "http://www.w3.org/Graphics/SVG/1.1/DTD/svg11.dtd" >
<svg xmlns="http://www.w3.org/2000/svg" xmlns:xlink="http://www.w3.org/1999/xlink" version="1.1">
<metadata>
Created by FontForge 20201107 at Tue Jan 23 19:03:47 2024
 By 
Copyright (c) 2017 by Hyun-Seung Lee. All rights reserved.
</metadata>
<defs>
<font id="CarosThin" horiz-adv-x="786" >
  <font-face 
    font-family="Caros Thin"
    font-weight="100"
    font-stretch="normal"
    units-per-em="2048"
    panose-1="2 11 4 3 3 3 2 2 2 4"
    ascent="1638"
    descent="-410"
    x-height="1061"
    cap-height="1434"
    bbox="-733 -532 2467 2010"
    underline-thickness="49"
    underline-position="-423"
    unicode-range="U+0009-FB04"
  />
<missing-glyph horiz-adv-x="1024" 
d="M860 0h-696v1536h696v-1536zM209 41h606v1454h-606v-1454z" />
    <glyph glyph-name="ff" unicode="ff" horiz-adv-x="1437" 
d="M1388 1487v-41q-36 8 -97 8q-137 0 -203.5 -82.5t-66.5 -232.5v-78h367v-41h-367v-1020h-45v1020h-651v-1020h-45v1020h-230v41h230v80q0 167 83 260.5t242 93.5q79 0 148 -24l-10 -38q-63 21 -138 21q-142 0 -211 -82.5t-69 -232.5v-78h651v80q0 167 80.5 260.5
t234.5 93.5q43 0 97 -8z" />
    <glyph glyph-name="fi" unicode="fi" horiz-adv-x="1257" 
d="M325 1020v-1020h-45v1020h-230v41h230v80q0 167 83 260.5t242 93.5q61 0 107 -8v-41q-33 8 -107 8q-142 0 -211 -82.5t-69 -232.5v-78h696v-1061h-45v1020h-651zM945 1380q0 23 15 38.5t38 15.5t38.5 -15.5t15.5 -38.5t-15.5 -38t-38.5 -15t-38 15t-15 38z" />
    <glyph glyph-name="fl" unicode="fl" horiz-adv-x="1257" 
d="M30 1020v41h250v80q0 167 80.5 260.5t234.5 93.5q217 0 381 -170v170h45v-1495h-45v1276q-178 178 -381 178q-137 0 -203.5 -82.5t-66.5 -232.5v-78h366v-41h-366v-1020h-45v1020h-250z" />
    <glyph glyph-name="ffi" unicode="ffi" horiz-adv-x="1953" 
d="M280 1061v80q0 167 83 260.5t242 93.5q79 0 148 -24l-10 -38q-63 21 -138 21q-142 0 -211 -82.5t-69 -232.5v-78h651v80q0 167 83.5 260.5t242.5 93.5q60 0 106 -8v-41q-33 8 -106 8q-142 0 -211.5 -82.5t-69.5 -232.5v-78h696v-1061h-45v1020h-651v-1020h-45v1020h-651
v-1020h-45v1020h-230v41h230zM1641 1380q0 23 15.5 38.5t38.5 15.5t38 -15.5t15 -38.5t-15 -38t-38 -15t-38.5 15t-15.5 38z" />
    <glyph glyph-name="ffl" unicode="ffl" horiz-adv-x="1953" 
d="M1672 0v1276q-178 178 -381 178q-137 0 -203.5 -82.5t-66.5 -232.5v-78h367v-41h-367v-1020h-45v1020h-651v-1020h-45v1020h-230v41h230v80q0 167 83 260.5t242 93.5q79 0 148 -24l-10 -38q-63 21 -138 21q-142 0 -211 -82.5t-69 -232.5v-78h651v80q0 167 80.5 260.5
t234.5 93.5q217 0 381 -170v170h45v-1495h-45z" />
    <glyph glyph-name=".notdef" horiz-adv-x="1024" 
d="M860 0h-696v1536h696v-1536zM209 41h606v1454h-606v-1454z" />
    <glyph glyph-name=".null" horiz-adv-x="0" 
 />
    <glyph glyph-name=".null" horiz-adv-x="0" 
 />
    <glyph glyph-name="nonmarkingreturn" horiz-adv-x="682" 
 />
    <glyph glyph-name="CR" unicode="&#x9;" horiz-adv-x="0" 
 />
    <glyph glyph-name="space" unicode=" " horiz-adv-x="589" 
 />
    <glyph glyph-name="exclam" unicode="!" horiz-adv-x="614" 
d="M285 373v1061h45v-1061h-45zM254 29q0 23 15 38t38 15t38 -15t15 -38t-15 -38.5t-38 -15.5t-38 15.5t-15 38.5z" />
    <glyph glyph-name="quotedbl" unicode="&#x22;" horiz-adv-x="927" 
d="M596 854v580h45v-580h-45zM287 854v580h45v-580h-45z" />
    <glyph glyph-name="numbersign" unicode="#" horiz-adv-x="1355" 
d="M1262 975h-260l-90 -524h274v-41h-281l-69 -410h-50l70 410h-461l-69 -410h-50l70 410h-252v41h259l90 524h-273v41h281l71 418h49l-71 -418h461l71 418h49l-71 -418h252v-41zM493 975l-91 -524h461l90 524h-460z" />
    <glyph glyph-name="dollar" unicode="$" horiz-adv-x="1167" 
d="M127 203l33 35q71 -94 181 -156t230 -66v708q-199 45 -308 142t-109 234q0 154 116 256t301 102v184h45v-186q150 -13 260.5 -104t148.5 -240h-45q-36 129 -133.5 211t-230.5 92v-657q220 -49 333.5 -151.5t113.5 -254.5q0 -157 -125.5 -263.5t-321.5 -112.5v-185h-45
v185q-135 5 -252.5 68t-191.5 159zM1018 348q0 136 -104.5 229.5t-297.5 136.5v-698q175 8 288.5 101t113.5 231zM199 1104q0 -123 99.5 -208t272.5 -128v649q-167 -2 -269.5 -91.5t-102.5 -221.5z" />
    <glyph glyph-name="percent" unicode="%" horiz-adv-x="1798" 
d="M510 10l740 1435l38 -23l-738 -1434zM157 1104q0 -119 84 -211t215 -92t215 92t84 211t-84 211t-215 92t-215 -92t-84 -211zM112 1104q0 136 97 240t247 104t247 -104t97 -240t-97 -240t-247 -104t-247 104t-97 240zM1043 330q0 -119 84 -211t215 -92t215 92t84 211
t-84 211t-215 92t-215 -92t-84 -211zM998 330q0 136 97 240t247 104t247.5 -104t97.5 -240t-97.5 -240t-247.5 -104t-247 104t-97 240z" />
    <glyph glyph-name="ampersand" unicode="&#x26;" horiz-adv-x="1455" 
d="M964 1174h-49q-33 121 -119.5 182t-204.5 61q-125 0 -212 -81.5t-87 -194.5q0 -78 49 -142t170 -172l562 -506q106 174 136 400l47 -6q-30 -242 -148 -425l315 -284l-26 -31l-313 279q-92 -131 -218.5 -205t-272.5 -74q-184 0 -311 115.5t-127 276.5q0 128 87 239.5
t234 191.5q-63 57 -96.5 90t-68.5 77t-49.5 86t-14.5 90q0 131 100 224t244 93q146 0 240 -73t133 -211zM593 16q134 0 252.5 71t204.5 198l-537 480q-145 -76 -229 -179.5t-84 -218.5q0 -141 115.5 -246t277.5 -105z" />
    <glyph glyph-name="quotesingle" unicode="'" horiz-adv-x="624" 
d="M290 854v580h45v-580h-45z" />
    <glyph glyph-name="parenleft" unicode="(" horiz-adv-x="825" 
d="M279 625q0 278 104.5 532.5t280.5 419.5l30 -29q-172 -163 -271 -409t-99 -514t99 -514.5t271 -409.5l-30 -29q-176 165 -280.5 420t-104.5 533z" />
    <glyph glyph-name="parenright" unicode=")" horiz-adv-x="825" 
d="M547 625q0 -278 -104.5 -533t-280.5 -420l-31 29q172 163 271.5 409.5t99.5 514.5t-99.5 514t-271.5 409l31 29q176 -165 280.5 -419.5t104.5 -532.5z" />
    <glyph glyph-name="asterisk" unicode="*" horiz-adv-x="1101" 
d="M170 926l360 -209l-2 416h45l-2 -416l361 209l22 -39l-362 -207l362 -207l-22 -39l-361 209l2 -416h-45l2 416l-360 -209l-23 39l363 207l-363 207z" />
    <glyph glyph-name="plus" unicode="+" horiz-adv-x="1138" 
d="M547 215v444h-428v41h428v445h45v-445h428v-41h-428v-444h-45z" />
    <glyph glyph-name="comma" unicode="," horiz-adv-x="589" 
d="M238 32q0 25 15.5 41.5t40.5 16.5q26 0 42 -18.5t16 -51.5q0 -67 -26 -127t-100 -137l-32 30q57 64 67.5 117t-16.5 95q-7 16 -7 34z" />
    <glyph glyph-name="hyphen" unicode="-" horiz-adv-x="798" 
d="M682 659h-565v41h565v-41z" />
    <glyph glyph-name="period" unicode="." horiz-adv-x="589" 
d="M238 33q0 25 16 41t41 16t41 -16t16 -41t-16 -41.5t-41 -16.5t-41 16.5t-16 41.5z" />
    <glyph glyph-name="slash" unicode="/" horiz-adv-x="907" 
d="M825 1527l-699 -1823l-45 20l699 1822z" />
    <glyph glyph-name="zero" unicode="0" horiz-adv-x="1179" 
d="M129 717q0 158 29.5 292t85.5 235t145 157.5t201 56.5t201 -56.5t145 -157.5t85.5 -235t29.5 -292q0 -213 -50 -378t-156 -264.5t-255 -99.5t-255 99.5t-156 264.5t-50 378zM174 717q0 -147 25.5 -272.5t75.5 -222t131 -151.5t184 -55t184 55t131 151.5t75.5 222
t25.5 272.5q0 198 -44 353t-139.5 251t-232.5 96t-232.5 -96t-139.5 -251t-44 -353z" />
    <glyph glyph-name="one" unicode="1" horiz-adv-x="1179" 
d="M662 1434h45v-1434h-45v1386l-365 -212l-21 38z" />
    <glyph glyph-name="two" unicode="2" horiz-adv-x="1179" 
d="M836 709l-584 -668h739v-41h-801v41l609 692q162 185 162 369q0 131 -103.5 223t-257.5 92q-146 0 -240.5 -92t-113.5 -238l-45 2q17 160 123.5 264.5t275.5 104.5q172 0 289 -103.5t117 -252.5q0 -200 -170 -393z" />
    <glyph glyph-name="three" unicode="3" horiz-adv-x="1179" 
d="M954 414q0 168 -124.5 282.5t-303.5 114.5q-79 0 -135 -20l-22 28l518 574h-690v41h743v-41l-496 -549q36 8 82 8q202 0 337.5 -126.5t135.5 -311.5t-135.5 -312t-337.5 -127q-134 0 -235.5 58.5t-165.5 161.5l31 30q56 -95 152.5 -152t217.5 -57q179 0 303.5 115
t124.5 283z" />
    <glyph glyph-name="four" unicode="4" horiz-adv-x="1179" 
d="M86 352v41l707 1041h45v-1041h215v-41h-215v-352h-45v352h-707zM143 393h650v965z" />
    <glyph glyph-name="five" unicode="5" horiz-adv-x="1179" 
d="M551 -25q-122 0 -226 59t-171 152l28 31q62 -92 159 -146.5t210 -54.5q177 0 296.5 115.5t119.5 288.5t-119.5 288t-296.5 115q-105 0 -189.5 -48.5t-130.5 -125.5l-28 4l86 781h669v-41h-628l-78 -662q50 60 128.5 96.5t174.5 36.5q191 0 324 -127t133 -317
t-133.5 -317.5t-327.5 -127.5z" />
    <glyph glyph-name="six" unicode="6" horiz-adv-x="1179" 
d="M735 1434l-413 -650q115 88 266 88q192 0 325.5 -129.5t133.5 -318.5t-133.5 -319t-325.5 -130t-325.5 130t-133.5 319q0 127 66 233l487 777h53zM174 424q0 -170 120.5 -289t293.5 -119t293 119t120 289t-120 288.5t-293 118.5t-293.5 -118.5t-120.5 -288.5z" />
    <glyph glyph-name="seven" unicode="7" horiz-adv-x="1179" 
d="M178 1434h832v-41l-602 -1393h-54l602 1393h-778v41z" />
    <glyph glyph-name="eight" unicode="8" horiz-adv-x="1179" 
d="M250 1110q0 -129 98 -218t242 -89t242 89t98 218t-98 218t-242 89t-242 -89t-98 -218zM176 389q0 -155 120 -264t294 -109t294 109t120 264t-120 264t-294 109t-294 -109t-120 -264zM975 1110q0 -112 -72 -204t-194 -122q155 -38 247.5 -147t92.5 -248q0 -172 -133 -293
t-326 -121t-326 121t-133 293q0 139 92.5 248t247.5 147q-122 30 -194 122t-72 204q0 148 111 248t274 100t274 -100t111 -248z" />
    <glyph glyph-name="nine" unicode="9" horiz-adv-x="1179" 
d="M444 0l414 649q-115 -88 -266 -88q-192 0 -325.5 130t-133.5 319t133.5 318.5t325.5 129.5t325.5 -129.5t133.5 -318.5q0 -128 -66 -234l-487 -776h-54zM1006 1010q0 170 -120.5 288.5t-293.5 118.5t-293.5 -118.5t-120.5 -288.5t120.5 -289t293.5 -119t293.5 119
t120.5 289z" />
    <glyph glyph-name="colon" unicode=":" horiz-adv-x="589" 
d="M238 33q0 25 16 41t41 16t41 -16t16 -41t-16 -41.5t-41 -16.5t-41 16.5t-16 41.5zM238 1028q0 25 16 41t41 16t41 -16t16 -41t-16 -41t-41 -16t-41 16t-16 41z" />
    <glyph glyph-name="semicolon" unicode=";" horiz-adv-x="589" 
d="M238 1028q0 25 16 41t41 16t41 -16t16 -41t-16 -41t-41 -16t-41 16t-16 41zM238 32q0 25 15.5 41.5t40.5 16.5q26 0 42 -18.5t16 -51.5q0 -67 -26 -127t-100 -137l-32 30q57 64 67.5 117t-16.5 95q-7 16 -7 34z" />
    <glyph glyph-name="less" unicode="&#x3c;" horiz-adv-x="1138" 
d="M150 696l824 502l25 -38l-794 -480l794 -480l-25 -38l-824 502v32z" />
    <glyph glyph-name="equal" unicode="=" horiz-adv-x="1138" 
d="M1020 905h-901v41h901v-41zM1020 414h-901v41h901v-41z" />
    <glyph glyph-name="greater" unicode="&#x3e;" horiz-adv-x="1138" 
d="M165 1198l824 -502v-32l-824 -502l-26 38l795 480l-795 480z" />
    <glyph glyph-name="question" unicode="?" horiz-adv-x="1085" 
d="M490 393h-45q0 146 52 235t178 165q55 33 86.5 54.5t63 50t46.5 57t24.5 66t9.5 86.5q0 136 -101.5 223t-269.5 87q-150 0 -261.5 -69.5t-144.5 -210.5h-45q33 158 157 239.5t294 81.5q184 0 300 -97.5t116 -253.5q0 -114 -51.5 -189t-185.5 -149q-122 -69 -172.5 -153.5
t-50.5 -222.5zM420 29q0 23 15 38t38 15t38 -15t15 -38t-15 -38.5t-38 -15.5t-38 15.5t-15 38.5z" />
    <glyph glyph-name="at" unicode="@" horiz-adv-x="1906" 
d="M932 946q-147 0 -242 -113t-95 -282t95 -282t242 -113t242.5 113t95.5 282t-95.5 282t-242.5 113zM1486 115q-83 0 -145.5 73.5t-65.5 167.5q-40 -105 -127.5 -173t-202.5 -68q-166 0 -280.5 125.5t-114.5 310.5t114.5 310.5t280.5 125.5q111 0 194.5 -63t129.5 -164v207
h45v-578q0 -99 51 -166t121 -67q83 0 151.5 62.5t108 170t39.5 234.5q0 220 -109 402t-300 287t-423 105q-230 0 -421 -113.5t-300.5 -309.5t-109.5 -431q0 -177 64.5 -334.5t176 -272t269.5 -181t338 -66.5q140 0 278 43t252 125l19 -39q-240 -170 -549 -170
q-189 0 -355.5 69.5t-284 189t-185.5 285t-68 351.5q0 185 68 351t185 285t279.5 189t343.5 70q244 0 445.5 -110t316.5 -301.5t115 -423.5q0 -139 -45.5 -256t-124.5 -184.5t-174 -67.5z" />
    <glyph glyph-name="A" unicode="A" horiz-adv-x="1351" 
d="M1225 0l-176 442h-746l-176 -442h-53l579 1434h45l580 -1434h-53zM676 1376l-357 -893h713z" />
    <glyph glyph-name="B" unicode="B" horiz-adv-x="1230" 
d="M659 0h-462v1434h442q176 0 284.5 -102t108.5 -255q0 -128 -76.5 -219t-193.5 -113q149 -16 250.5 -112t101.5 -250q0 -167 -128 -275t-327 -108zM1069 383q0 150 -115.5 245t-300.5 95h-411v-682h411q186 0 301 95t115 247zM242 764h393q156 0 254 87.5t98 225.5
q0 139 -98 227.5t-254 88.5h-393v-629z" />
    <glyph glyph-name="C" unicode="C" horiz-adv-x="1575" 
d="M1487 988h-49q-77 192 -246 310.5t-380 118.5q-140 0 -266 -55.5t-216 -149.5t-143 -223.5t-53 -271.5t53 -271.5t143 -223.5t216 -150t266 -56q191 0 348.5 98t245.5 263l38 -27q-94 -172 -261.5 -273.5t-370.5 -101.5q-150 0 -284 57.5t-230 156t-152.5 236.5
t-56.5 292q0 206 95.5 376t261.5 267.5t366 97.5q231 0 413.5 -129t261.5 -341z" />
    <glyph glyph-name="D" unicode="D" horiz-adv-x="1385" 
d="M197 1434h434q201 0 353 -92t232 -254t80 -371t-80 -371t-232 -254t-353 -92h-434v1434zM631 1393h-389v-1352h389q187 0 328.5 87t216.5 240t75 349t-75 349t-216.5 240t-328.5 87z" />
    <glyph glyph-name="E" unicode="E" horiz-adv-x="1122" 
d="M197 0v1434h770v-41h-725v-652h665v-41h-665v-659h743v-41h-788z" />
    <glyph glyph-name="F" unicode="F" horiz-adv-x="1036" 
d="M197 0v1434h749v-41h-704v-650h645v-41h-645v-702h-45z" />
    <glyph glyph-name="G" unicode="G" horiz-adv-x="1624" 
d="M1535 693q-5 -200 -102 -365t-261 -259t-360 -94q-150 0 -284 57.5t-230 156t-152.5 236.5t-56.5 292q0 206 95.5 376t261.5 267.5t366 97.5q221 0 398.5 -118.5t262.5 -314.5h-52q-83 177 -246 284.5t-363 107.5q-140 0 -266 -55.5t-216 -149.5t-143 -223.5t-53 -271.5
t53 -271.5t143 -223.5t216 -150t266 -56q132 0 251.5 49.5t208.5 135t146 202.5t69 249h-630v41h678z" />
    <glyph glyph-name="H" unicode="H" horiz-adv-x="1384" 
d="M197 0v1434h45v-693h901v693h45v-1434h-45v700h-901v-700h-45z" />
    <glyph glyph-name="I" unicode="I" horiz-adv-x="565" 
d="M260 1434h45v-1434h-45v1434z" />
    <glyph glyph-name="J" unicode="J" horiz-adv-x="888" 
d="M668 397v1037h45v-1037q0 -206 -95.5 -314t-265.5 -108q-148 0 -278 70l16 43q54 -32 126 -52t132 -20q151 0 235.5 98t84.5 283z" />
    <glyph glyph-name="K" unicode="K" horiz-adv-x="1185" 
d="M1016 1434h47q0 -306 -113 -487t-317 -229l512 -718h-58l-504 708q-54 -8 -107 -8h-234v-700h-45v1434h45v-693h232q250 0 396 176.5t146 516.5z" />
    <glyph glyph-name="L" unicode="L" horiz-adv-x="1054" 
d="M197 0v1434h45v-1393h743v-41h-788z" />
    <glyph glyph-name="M" unicode="M" horiz-adv-x="1839" 
d="M933 244h-27l-664 1093v-1337h-45v1434h43l680 -1125l679 1125h43v-1434h-45v1337z" />
    <glyph glyph-name="N" unicode="N" horiz-adv-x="1404" 
d="M197 0v1434h41l925 -1352v1352h45v-1434h-41l-925 1352v-1352h-45z" />
    <glyph glyph-name="O" unicode="O" horiz-adv-x="1624" 
d="M134 717q0 -142 53 -271.5t143 -223.5t216 -150t266 -56t266 56t216 150t143 223.5t53 271.5t-53 271.5t-143 223.5t-216 149.5t-266 55.5t-266 -55.5t-216 -149.5t-143 -223.5t-53 -271.5zM89 717q0 206 95.5 376t261.5 267.5t366 97.5t366 -97.5t261.5 -267.5
t95.5 -376q0 -154 -56.5 -292t-152.5 -236.5t-230 -156t-284 -57.5t-284 57.5t-230 156t-152.5 236.5t-56.5 292z" />
    <glyph glyph-name="P" unicode="P" horiz-adv-x="1148" 
d="M580 602h-338v-602h-45v1434h383q216 0 349.5 -114t133.5 -302t-133.5 -302t-349.5 -114zM1018 1018q0 169 -120.5 272t-317.5 103h-338v-750h338q197 0 317.5 103t120.5 272z" />
    <glyph glyph-name="Q" unicode="Q" horiz-adv-x="1624" 
d="M89 717q0 206 95.5 376t261.5 267.5t366 97.5t366 -97.5t261.5 -267.5t95.5 -376q0 -168 -65.5 -314t-181.5 -249l214 -230l-33 -30l-216 231q-195 -150 -441 -150q-150 0 -284 57.5t-230 156t-152.5 236.5t-56.5 292zM134 717q0 -142 53 -271.5t143 -223.5t216 -150
t266 -56q227 0 411 142l-343 368l32 31l345 -371q109 98 171 236.5t62 294.5q0 142 -53 271.5t-143 223.5t-216 149.5t-266 55.5t-266 -55.5t-216 -149.5t-143 -223.5t-53 -271.5z" />
    <glyph glyph-name="R" unicode="R" horiz-adv-x="1187" 
d="M242 602v-602h-45v1434h383q216 0 349.5 -114t133.5 -302q0 -173 -115 -285t-305 -129l438 -604h-53l-436 602h-350zM1018 1018q0 169 -120.5 272t-317.5 103h-338v-750h338q197 0 317.5 103t120.5 272z" />
    <glyph glyph-name="S" unicode="S" horiz-adv-x="1167" 
d="M127 203l33 35q74 -97 189.5 -159.5t240.5 -62.5q185 0 306.5 94t121.5 238q0 139 -110.5 234t-313.5 137q-209 43 -324.5 141.5t-115.5 239.5q0 154 116 256t301 102q165 0 288.5 -93t165.5 -253h-45q-39 139 -147 222t-255 83q-170 0 -274.5 -89.5t-104.5 -223.5
q0 -129 110 -216.5t299 -127.5q224 -47 339.5 -150.5t115.5 -257.5q0 -161 -132.5 -269t-336.5 -108q-141 0 -265 64t-202 164z" />
    <glyph glyph-name="T" unicode="T" horiz-adv-x="1089" 
d="M522 0v1393h-452v41h950v-41h-453v-1393h-45z" />
    <glyph glyph-name="U" unicode="U" horiz-adv-x="1331" 
d="M1155 1434v-955q0 -224 -135.5 -363t-353.5 -139t-354 139t-136 363v955h45v-955q0 -203 124.5 -332t320.5 -129t320 129t124 332v955h45z" />
    <glyph glyph-name="V" unicode="V" horiz-adv-x="1343" 
d="M672 57l549 1377h53l-580 -1434h-45l-579 1434h53z" />
    <glyph glyph-name="W" unicode="W" horiz-adv-x="1900" 
d="M979 1434l399 -1371l404 1371h49l-424 -1434h-57l-400 1370l-399 -1370h-57l-424 1434h49l403 -1371l400 1371h57z" />
    <glyph glyph-name="X" unicode="X" horiz-adv-x="1251" 
d="M67 0l530 729l-512 705h57l484 -665l483 665h57l-512 -705l531 -729h-58l-501 690l-502 -690h-57z" />
    <glyph glyph-name="Y" unicode="Y" horiz-adv-x="1298" 
d="M127 1434l522 -799l522 799h58l-557 -846v-588h-45v588l-557 846h57z" />
    <glyph glyph-name="Z" unicode="Z" horiz-adv-x="1192" 
d="M128 41l877 1352h-846v41h895v-41l-877 -1352h897v-41h-946v41z" />
    <glyph glyph-name="bracketleft" unicode="[" horiz-adv-x="825" 
d="M263 -287v1823h483v-41h-438v-1741h438v-41h-483z" />
    <glyph glyph-name="backslash" unicode="\" horiz-adv-x="907" 
d="M780 -296l-699 1823l45 19l699 -1822z" />
    <glyph glyph-name="bracketright" unicode="]" horiz-adv-x="825" 
d="M562 1536v-1823h-483v41h438v1741h-438v41h483z" />
    <glyph glyph-name="asciicircum" unicode="^" horiz-adv-x="1218" 
d="M585 1434h49l263 -374l-42 -28l-246 352l-245 -352l-42 28z" />
    <glyph glyph-name="underscore" unicode="_" horiz-adv-x="1024" 
d="M0 -299v41h1024v-41h-1024z" />
    <glyph glyph-name="grave" unicode="`" horiz-adv-x="825" 
d="M223 1509l289 -329l-34 -28l-290 330z" />
    <glyph glyph-name="a" unicode="a" horiz-adv-x="1282" 
d="M87 530q0 151 68 278.5t186 201.5t259 74q158 0 283.5 -92t184.5 -243v312h45v-1061h-45v312q-59 -151 -184.5 -243t-283.5 -92q-141 0 -259 74t-186 201t-68 278zM133 530q0 -141 61.5 -259t169 -186.5t237.5 -68.5q97 0 184 40.5t149 109.5t98 164t36 200t-36 200.5
t-98 164.5t-149 110t-184 41q-130 0 -237.5 -69t-169 -187.5t-61.5 -259.5z" />
    <glyph glyph-name="b" unicode="b" horiz-adv-x="1282" 
d="M1195 530q0 -151 -68 -278t-186 -201t-259 -74q-158 0 -284 92t-184 243v-312h-45v1495h45v-746q58 151 184 243t284 92q141 0 259 -74t186 -201.5t68 -278.5zM1149 530q0 141 -61.5 259.5t-169 187.5t-237.5 69q-97 0 -184 -41t-149 -110t-98 -164.5t-36 -200.5t36 -200
t98 -164t149 -109.5t184 -40.5q130 0 237.5 68.5t169 186.5t61.5 259z" />
    <glyph glyph-name="c" unicode="c" horiz-adv-x="1190" 
d="M1062 275l36 -26q-71 -125 -194 -199.5t-274 -74.5q-115 0 -216.5 45t-172.5 121t-112.5 177.5t-41.5 211.5t41.5 211.5t112.5 177.5t172.5 121t216.5 45q154 0 279.5 -77t194.5 -206h-52q-66 110 -177.5 176t-244.5 66q-104 0 -197.5 -42t-159 -112.5t-103.5 -164.5
t-38 -195t38 -195t103.5 -164.5t159 -112.5t197.5 -42q139 0 253 70.5t179 188.5z" />
    <glyph glyph-name="d" unicode="d" horiz-adv-x="1282" 
d="M87 530q0 151 68 278.5t186 201.5t259 74q158 0 283.5 -92t184.5 -243v746h45v-1495h-45v312q-59 -151 -184.5 -243t-283.5 -92q-141 0 -259 74t-186 201t-68 278zM133 530q0 -141 61.5 -259t169 -186.5t237.5 -68.5q97 0 184 40.5t149 109.5t98 164t36 200t-36 200.5
t-98 164.5t-149 110t-184 41q-130 0 -237.5 -69t-169 -187.5t-61.5 -259.5z" />
    <glyph glyph-name="e" unicode="e" horiz-adv-x="1215" 
d="M132 524q2 -136 63.5 -251.5t176.5 -186t258 -70.5q117 0 218.5 52t172.5 145l33 -31q-73 -95 -184 -151t-240 -56q-157 0 -282.5 76t-193 202.5t-67.5 276.5t67.5 276.5t190 202.5t272.5 76q220 0 365 -151.5t145 -370.5q0 -19 -4 -39h-991zM617 1044
q-195 0 -333.5 -141t-150.5 -338h948q-7 207 -138 343t-326 136z" />
    <glyph glyph-name="f" unicode="f" horiz-adv-x="741" 
d="M691 1487v-41q-36 8 -96 8q-137 0 -203.5 -82.5t-66.5 -232.5v-78h366v-41h-366v-1020h-45v1020h-250v41h250v80q0 167 80.5 260.5t234.5 93.5q42 0 96 -8z" />
    <glyph glyph-name="g" unicode="g" horiz-adv-x="1282" 
d="M87 530q0 151 68 278.5t186 201.5t259 74q158 0 283.5 -92t184.5 -243v312h45v-1096q0 -194 -131 -317t-336 -123q-261 0 -442 205l30 34q75 -91 179.5 -144.5t232.5 -53.5q186 0 304 111t118 288v347q-59 -151 -184.5 -243t-283.5 -92q-141 0 -259 74t-186 201t-68 278z
M133 530q0 -141 61.5 -259t169 -186.5t237.5 -68.5q97 0 184 40.5t149 109.5t98 164t36 200t-36 200.5t-98 164.5t-149 110t-184 41q-130 0 -237.5 -69t-169 -187.5t-61.5 -259.5z" />
    <glyph glyph-name="h" unicode="h" horiz-adv-x="1199" 
d="M636 1085q188 0 301 -119.5t113 -306.5v-659h-45v655q0 167 -99.5 278t-269.5 111q-167 0 -294.5 -124t-127.5 -285v-635h-45v1495h45v-692q54 123 170 202.5t252 79.5z" />
    <glyph glyph-name="i" unicode="i" horiz-adv-x="518" 
d="M237 0v1061h45v-1061h-45zM206 1380q0 23 15 38.5t38 15.5t38 -15.5t15 -38.5t-15 -38t-38 -15t-38 15t-15 38z" />
    <glyph glyph-name="j" unicode="j" horiz-adv-x="518" 
d="M237 -229v1290h45v-1290q0 -115 -63 -180.5t-157 -65.5q-37 0 -73 4v41q40 -4 73 -4q77 0 126 53.5t49 151.5zM206 1380q0 23 15 38.5t38 15.5t38 -15.5t15 -38.5t-15 -38t-38 -15t-38 15t-15 38z" />
    <glyph glyph-name="k" unicode="k" horiz-adv-x="1020" 
d="M871 1061h45q0 -201 -95 -325t-265 -156l432 -580h-59l-426 572q-33 -3 -67 -3h-222v-569h-45v1495h45v-885h224q202 0 317.5 116.5t115.5 334.5z" />
    <glyph glyph-name="l" unicode="l" horiz-adv-x="518" 
d="M237 0v1495h45v-1495h-45z" />
    <glyph glyph-name="m" unicode="m" horiz-adv-x="1870" 
d="M1349 1085q184 0 278 -116.5t94 -309.5v-659h-45v655q0 112 -32 197t-107.5 138.5t-187.5 53.5q-163 0 -272 -121.5t-109 -287.5v-635h-45v655q0 83 -19 152t-57.5 123t-102.5 84t-149 30q-163 0 -272 -121.5t-109 -287.5v-635h-45v1061h45v-243q47 119 148.5 193
t232.5 74q151 0 241.5 -80t118.5 -220q42 132 148.5 216t245.5 84z" />
    <glyph glyph-name="n" unicode="n" horiz-adv-x="1199" 
d="M636 1085q188 0 301 -119.5t113 -306.5v-659h-45v655q0 167 -99.5 278t-269.5 111q-167 0 -294.5 -124t-127.5 -285v-635h-45v1061h45v-258q54 123 170 202.5t252 79.5z" />
    <glyph glyph-name="o" unicode="o" horiz-adv-x="1259" 
d="M630 16q139 0 254 71.5t179 189.5t64 253t-64 253t-179 189.5t-254 71.5q-104 0 -197.5 -42t-159 -112.5t-103.5 -164.5t-38 -195t38 -195t103.5 -164.5t159 -112.5t197.5 -42zM630 1085q153 0 278 -76.5t194.5 -203.5t69.5 -275t-69.5 -275t-194.5 -203.5t-278 -76.5
q-115 0 -216.5 45t-172.5 121t-112.5 177.5t-41.5 211.5t41.5 211.5t112.5 177.5t172.5 121t216.5 45z" />
    <glyph glyph-name="p" unicode="p" horiz-adv-x="1282" 
d="M1195 530q0 -151 -68 -278t-186 -201t-259 -74q-158 0 -284 92t-184 243v-787h-45v1536h45v-312q58 151 184 243t284 92q141 0 259 -74t186 -201.5t68 -278.5zM1149 530q0 141 -61.5 259.5t-169 187.5t-237.5 69q-97 0 -184 -41t-149 -110t-98 -164.5t-36 -200.5t36 -200
t98 -164t149 -109.5t184 -40.5q130 0 237.5 68.5t169 186.5t61.5 259z" />
    <glyph glyph-name="q" unicode="q" horiz-adv-x="1282" 
d="M87 530q0 151 68 278.5t186 201.5t259 74q158 0 283.5 -92t184.5 -243v312h45v-1536h-45v787q-59 -151 -184.5 -243t-283.5 -92q-141 0 -259 74t-186 201t-68 278zM133 530q0 -141 61.5 -259t169 -186.5t237.5 -68.5q97 0 184 40.5t149 109.5t98 164t36 200t-36 200.5
t-98 164.5t-149 110t-184 41q-130 0 -237.5 -69t-169 -187.5t-61.5 -259.5z" />
    <glyph glyph-name="r" unicode="r" horiz-adv-x="758" 
d="M721 1078l-7 -41q-44 7 -78 7q-167 0 -294.5 -124t-127.5 -285v-635h-45v1061h45v-258q54 123 170 202.5t252 79.5q47 0 85 -7z" />
    <glyph glyph-name="s" unicode="s" horiz-adv-x="925" 
d="M87 152l31 29q143 -165 354 -165q146 0 234 68.5t88 177.5q0 100 -90 171t-244 99q-165 30 -253.5 103t-88.5 174q0 115 97 195.5t245 80.5q78 0 143 -21t120.5 -76.5t79.5 -141.5h-45q-30 101 -111 149.5t-187 48.5q-131 0 -214 -69t-83 -166q0 -83 81.5 -146t229.5 -90
q171 -32 268 -111.5t97 -199.5q0 -126 -98.5 -206.5t-268.5 -80.5q-124 0 -215.5 44.5t-169.5 132.5z" />
    <glyph glyph-name="t" unicode="t" horiz-adv-x="754" 
d="M334 1020v-721q0 -283 262 -283q58 0 104 9v-41q-70 -9 -104 -9q-152 0 -229.5 83t-77.5 241v721h-258v41h258v303l45 4v-307h354v-41h-354z" />
    <glyph glyph-name="u" unicode="u" horiz-adv-x="1199" 
d="M563 -25q-188 0 -300.5 119.5t-112.5 306.5v660h45v-655q0 -167 99 -278.5t269 -111.5q109 0 207 57t156.5 152t58.5 201v635h45v-1061h-45v258q-54 -124 -170 -203.5t-252 -79.5z" />
    <glyph glyph-name="v" unicode="v" horiz-adv-x="1036" 
d="M987 1061l-446 -1061h-45l-447 1061h53l416 -995l416 995h53z" />
    <glyph glyph-name="w" unicode="w" horiz-adv-x="1548" 
d="M752 1061h45l315 -977l334 977h53l-364 -1061h-45l-316 977l-315 -977h-45l-365 1061h53l334 -977z" />
    <glyph glyph-name="x" unicode="x" horiz-adv-x="1036" 
d="M49 0l440 547l-413 514h57l385 -478l385 478h58l-414 -514l440 -547h-57l-412 511l-412 -511h-57z" />
    <glyph glyph-name="y" unicode="y" horiz-adv-x="1056" 
d="M299 -475l211 493l-461 1043h53l434 -981l418 981h54l-656 -1536h-53z" />
    <glyph glyph-name="z" unicode="z" horiz-adv-x="1005" 
d="M109 0v41l706 979h-680v41h737v-41l-706 -979h727v-41h-784z" />
    <glyph glyph-name="braceleft" unicode="{" horiz-adv-x="825" 
d="M169 604v41q101 0 169.5 65t68.5 160v375q0 123 81 207t201 84h70v-41h-70q-101 0 -169 -72.5t-68 -177.5v-375q0 -92 -51 -155.5t-134 -89.5q83 -26 134 -90t51 -156v-375q0 -105 68 -177.5t169 -72.5h70v-41h-70q-120 0 -201 84t-81 207v375q0 95 -68.5 160t-169.5 65z
" />
    <glyph glyph-name="bar" unicode="|" horiz-adv-x="645" 
d="M300 -287v1823h45v-1823h-45z" />
    <glyph glyph-name="braceright" unicode="}" horiz-adv-x="825" 
d="M656 645v-41q-101 0 -169 -65t-68 -160v-375q0 -123 -81.5 -207t-201.5 -84h-69v41h69q101 0 169.5 72.5t68.5 177.5v375q0 92 50.5 156t133.5 90q-83 26 -133.5 89.5t-50.5 155.5v375q0 105 -68.5 177.5t-169.5 72.5h-69v41h69q120 0 201.5 -84t81.5 -207v-375
q0 -95 68 -160t169 -65z" />
    <glyph glyph-name="asciitilde" unicode="~" horiz-adv-x="1138" 
d="M817 506q-42 0 -80.5 12.5t-72.5 37t-57.5 46t-53.5 53.5q-39 40 -67 65t-74.5 50t-89.5 25q-176 0 -212 -240l-44 10q18 128 84 199.5t172 71.5q42 0 80 -12.5t72.5 -37.5t57.5 -46t54 -54q38 -40 66.5 -65t75 -49.5t89.5 -24.5q176 0 212 239l44 -10q-17 -128 -83 -199
t-173 -71z" />
    <glyph glyph-name="uni00A0" unicode="&#xa0;" horiz-adv-x="589" 
 />
    <glyph glyph-name="exclamdown" unicode="&#xa1;" horiz-adv-x="614" 
d="M285 -373v1061h45v-1061h-45zM254 1032q0 23 15 38t38 15t38 -15t15 -38t-15 -38t-38 -15t-38 15t-15 38z" />
    <glyph glyph-name="cent" unicode="&#xa2;" horiz-adv-x="1190" 
d="M1062 275l36 -26q-69 -121 -186.5 -195t-262.5 -78v-164h-45v164q-147 6 -266 84t-185 202t-66 268t66 268t185 202t266 84v165h45v-164q148 -5 267.5 -81.5t187.5 -201.5h-52q-64 106 -170 171.5t-233 70.5v-1028q132 5 241.5 75.5t171.5 183.5zM132 530
q0 -131 60.5 -246.5t169.5 -188t242 -79.5v1027q-133 -7 -242 -79.5t-169.5 -187.5t-60.5 -246z" />
    <glyph glyph-name="sterling" unicode="&#xa3;" horiz-adv-x="1140" 
d="M325 631h-175v41h159q-12 33 -26 61q-86 176 -86 314q0 172 119 291.5t289 119.5q85 0 160 -32.5t124.5 -84t79 -114.5t31.5 -125h-43q-4 118 -105 216.5t-247 98.5q-152 0 -257.5 -107.5t-105.5 -262.5q0 -124 80 -294q24 -54 34 -81h471v-41h-456q39 -112 39 -199
q0 -109 -52.5 -213t-136.5 -178h799v-41h-864v39q97 79 153 183t56 210q0 84 -40 199z" />
    <glyph glyph-name="currency" unicode="&#xa4;" horiz-adv-x="1241" 
d="M180 668q0 172 113 296l-205 203l31 31l205 -203q126 115 297 115t297 -115l204 203l31 -31l-205 -203q113 -126 113 -296q0 -169 -113 -297l205 -203l-31 -31l-204 203q-125 -115 -297 -115t-297 115l-205 -203l-31 31l205 203q-113 126 -113 297zM225 668
q0 -167 115.5 -284.5t280.5 -117.5t280 117.5t115 284.5t-115 284t-280 117t-280.5 -117t-115.5 -284z" />
    <glyph glyph-name="yen" unicode="&#xa5;" horiz-adv-x="1298" 
d="M127 1434l511 -783h21l512 783h58l-515 -783h386v-41h-414l-14 -22v-142h428v-40h-428v-406h-45v406h-428v40h428v142l-16 22h-412v41h386l-515 783h57z" />
    <glyph glyph-name="brokenbar" unicode="&#xa6;" horiz-adv-x="645" 
d="M300 717v819h45v-819h-45zM300 -287v819h45v-819h-45z" />
    <glyph glyph-name="section" unicode="&#xa7;" horiz-adv-x="1001" 
d="M891 639q0 -114 -75.5 -180t-207.5 -86q147 -47 215 -116t68 -171q0 -138 -106 -214.5t-279 -76.5q-107 0 -211.5 42.5t-188.5 121.5l25 25q80 -73 182.5 -112.5t200.5 -39.5q153 0 244.5 70.5t91.5 183.5q0 105 -83 168.5t-267 110.5q-176 45 -266.5 117t-90.5 184
q0 98 72 171.5t188 96.5q-131 43 -195.5 103.5t-64.5 156.5q0 119 97 191.5t258 72.5q63 0 118.5 -13t106 -40.5t87.5 -77.5t54 -119h-45q-14 60 -47.5 103t-80.5 66t-96.5 33.5t-105.5 10.5q-140 0 -222.5 -62.5t-82.5 -164.5q0 -93 80.5 -149t257.5 -103
q198 -53 283.5 -120.5t85.5 -182.5zM500 907q-6 0 -8 2q-132 -1 -220 -71.5t-88 -171.5q0 -94 80.5 -157t249.5 -108q154 0 245 63.5t91 174.5q0 104 -81 162t-269 106z" />
    <glyph glyph-name="dieresis" unicode="&#xa8;" horiz-adv-x="825" 
d="M187 1323q0 25 16.5 41t41.5 16t41 -16t16 -41t-16 -41t-41 -16t-41.5 16t-16.5 41zM523 1323q0 25 16.5 41t41.5 16t41 -16t16 -41t-16 -41t-41 -16t-41.5 16t-16.5 41z" />
    <glyph glyph-name="copyright" unicode="&#xa9;" horiz-adv-x="1624" 
d="M1115 556l36 -25q-118 -212 -343 -212q-163 0 -275 114.5t-112 281.5t112 281t275 114q116 0 212 -67t128 -171h-50q-28 81 -110.5 139t-179.5 58q-144 0 -243 -103.5t-99 -250.5t99 -251t243 -104q95 0 176 52.5t131 143.5zM71 717q0 153 58 290t157 236t236 157t290 58
t290 -58t236 -157t157 -236t58 -290t-58 -290.5t-157 -236.5t-236 -157t-290 -58t-290 58t-236 157t-157 236.5t-58 290.5zM116 717q0 -192 92.5 -353t252.5 -254.5t351 -93.5t351 93.5t252.5 254.5t92.5 353q0 143 -54.5 273t-147.5 223.5t-222 148.5t-272 55t-272 -55
t-222 -148.5t-147.5 -223.5t-54.5 -273z" />
    <glyph glyph-name="ordfeminine" unicode="&#xaa;" horiz-adv-x="905" 
d="M74 1061q0 164 102.5 276.5t258.5 112.5q109 0 192.5 -57.5t124.5 -155.5v197h45v-746h-45v197q-41 -98 -124.5 -155.5t-192.5 -57.5q-156 0 -258.5 112.5t-102.5 276.5zM119 1061q0 -148 89.5 -248t226.5 -100q134 0 223 96t94 238v14q0 148 -90 248t-227 100
t-226.5 -100t-89.5 -248z" />
    <glyph glyph-name="guillemotleft" unicode="&#xab;" horiz-adv-x="1262" 
d="M112 627v24l510 339l21 -33l-485 -318l485 -318l-21 -33zM613 627v24l510 339l22 -33l-486 -318l486 -318l-22 -33z" />
    <glyph glyph-name="logicalnot" unicode="&#xac;" horiz-adv-x="1138" 
d="M975 256v403h-856v41h901v-444h-45z" />
    <glyph glyph-name="uni00AD" unicode="&#xad;" horiz-adv-x="798" 
d="M682 659h-565v41h565v-41z" />
    <glyph glyph-name="registered" unicode="&#xae;" horiz-adv-x="1624" 
d="M71 717q0 153 58 290t157 236t236 157t290 58t290 -58t236 -157t157 -236t58 -290t-58 -290.5t-157 -236.5t-236 -157t-290 -58t-290 58t-236 157t-157 236.5t-58 290.5zM116 717q0 -192 92.5 -353t252.5 -254.5t351 -93.5t351 93.5t252.5 254.5t92.5 353
q0 143 -54.5 273t-147.5 223.5t-222 148.5t-272 55t-272 -55t-222 -148.5t-147.5 -223.5t-54.5 -273zM816 646h-165v-313h-45v766h209q117 0 189.5 -62.5t72.5 -164.5q0 -90 -57.5 -149.5t-153.5 -73.5l231 -316h-54zM1033 872q0 83 -60 134.5t-158 51.5h-164v-371h164
q98 0 158 50.5t60 134.5z" />
    <glyph glyph-name="macron" unicode="&#xaf;" horiz-adv-x="825" 
d="M146 1302v40h533v-40h-533z" />
    <glyph glyph-name="degree" unicode="&#xb0;" 
d="M127 1182q0 111 77.5 188.5t188.5 77.5t188.5 -77.5t77.5 -188.5t-77.5 -189t-188.5 -78t-188.5 78t-77.5 189zM172 1182q0 -94 64.5 -160t156.5 -66t156.5 66t64.5 160t-64.5 159.5t-156.5 65.5t-156.5 -65.5t-64.5 -159.5z" />
    <glyph glyph-name="plusminus" unicode="&#xb1;" horiz-adv-x="1138" 
d="M547 287v444h-428v41h428v445h45v-445h428v-41h-428v-444h-45zM1020 0h-901v41h901v-41z" />
    <glyph glyph-name="twosuperior" unicode="&#xb2;" 
d="M550 943l-388 -439h495v-41h-559v37l416 468q109 122 109 244q0 85 -68.5 145t-170.5 60q-99 0 -169.5 -61.5t-81.5 -171.5h-43q12 128 95.5 201t198.5 73q120 0 202 -72t82 -174q0 -136 -118 -269z" />
    <glyph glyph-name="threesuperior" unicode="&#xb3;" 
d="M640 739q0 109 -83.5 185t-200.5 76q-50 0 -95 -14l-20 27l346 380h-462v41h519v-37l-327 -358q12 2 39 2q138 0 233.5 -88t95.5 -214q0 -127 -95 -214t-234 -87q-182 0 -281 154l29 33q40 -67 105.5 -106.5t146.5 -39.5q118 0 201 74.5t83 185.5z" />
    <glyph glyph-name="acute" unicode="&#xb4;" horiz-adv-x="825" 
d="M311 1180l289 329l35 -27l-290 -330z" />
    <glyph glyph-name="mu" unicode="&#xb5;" horiz-adv-x="1218" 
d="M583 -25q-128 0 -223.5 58.5t-145.5 159.5v-668h-45v1536h45v-655q0 -167 99.5 -278.5t269.5 -111.5q109 0 207 57t156.5 152t58.5 201v635h45v-1061h-45v258q-54 -124 -170 -203.5t-252 -79.5z" />
    <glyph glyph-name="paragraph" unicode="&#xb6;" horiz-adv-x="1152" 
d="M648 549h-82q-192 0 -323 127.5t-131 314.5t131 315t323 128h387v-1702h-45v1661h-215v-1661h-45v817z" />
    <glyph glyph-name="periodcentered" unicode="&#xb7;" horiz-adv-x="589" 
d="M238 679q0 25 16 41t41 16t41 -16t16 -41t-16 -41t-41 -16t-41 16t-16 41z" />
    <glyph glyph-name="cedilla" unicode="&#xb8;" horiz-adv-x="825" 
d="M374 -190q-18 0 -32 -6l-13 17v179h45v-152q90 0 158.5 -54t68.5 -138q0 -79 -66 -133.5t-161 -54.5q-90 0 -153 49t-83 135h45q12 -65 65.5 -104.5t125.5 -39.5q76 0 129 43t53 105t-53 108t-129 46z" />
    <glyph glyph-name="onesuperior" unicode="&#xb9;" 
d="M451 1434h38v-971h-45v920l-243 -138l-21 36z" />
    <glyph glyph-name="ordmasculine" unicode="&#xba;" horiz-adv-x="905" 
d="M74 1061q0 162 110.5 275.5t268.5 113.5t268 -113t110 -276t-110 -276t-268 -113t-268.5 113.5t-110.5 275.5zM119 1061q0 -146 97.5 -247t236.5 -101t236 101t97 247t-97 247t-236 101t-236.5 -101t-97.5 -247z" />
    <glyph glyph-name="guillemotright" unicode="&#xbb;" horiz-adv-x="1262" 
d="M1151 651v-24l-510 -339l-21 33l485 318l-485 318l21 33zM649 651v-24l-510 -339l-21 33l485 318l-485 318l21 33z" />
    <glyph glyph-name="onequarter" unicode="&#xbc;" horiz-adv-x="1898" 
d="M451 1434h38v-971h-45v920l-243 -138l-21 36zM1161 233v37l484 701h42v-697h146v-41h-146v-233h-46v233h-480zM1219 274h422v617zM580 10l701 1434l38 -21l-699 -1433z" />
    <glyph glyph-name="onehalf" unicode="&#xbd;" horiz-adv-x="1898" 
d="M1662 480l-388 -439h495v-41h-559v37l416 468q109 122 109 245q0 85 -68.5 144.5t-170.5 59.5q-99 0 -169.5 -61.5t-81.5 -171.5h-43q12 128 95.5 201t198.5 73q120 0 202 -71.5t82 -173.5q0 -137 -118 -270zM451 1434h38v-971h-45v920l-243 -138l-21 36zM580 10
l701 1434l38 -21l-699 -1433z" />
    <glyph glyph-name="threequarters" unicode="&#xbe;" horiz-adv-x="1898" 
d="M640 739q0 109 -83.5 185t-200.5 76q-50 0 -95 -14l-20 27l346 380h-462v41h519v-37l-327 -358q12 2 39 2q138 0 233.5 -88t95.5 -214q0 -127 -95 -214t-234 -87q-182 0 -281 154l29 33q40 -67 105.5 -106.5t146.5 -39.5q118 0 201 74.5t83 185.5zM580 10l701 1434
l38 -21l-699 -1433zM1161 233v37l484 701h42v-697h146v-41h-146v-233h-46v233h-480zM1219 274h422v617z" />
    <glyph glyph-name="questiondown" unicode="&#xbf;" horiz-adv-x="1085" 
d="M595 668h45q0 -147 -52 -235.5t-177 -164.5q-69 -42 -105 -68t-69 -63t-45 -80t-12 -103q0 -136 102 -223t270 -87q150 0 261 69.5t144 210.5h45q-22 -107 -89.5 -180.5t-159 -107t-201.5 -33.5q-184 0 -300.5 97.5t-116.5 253.5q0 114 52 189t186 149q122 68 172 153
t50 223zM666 1032q0 -23 -15.5 -38t-38.5 -15t-38 15t-15 38t15 38t38 15t38.5 -15t15.5 -38z" />
    <glyph glyph-name="Agrave" unicode="&#xc0;" horiz-adv-x="1351" 
d="M1225 0l-176 442h-746l-176 -442h-53l579 1434h45l580 -1434h-53zM676 1376l-357 -893h713zM474 1898l289 -329l-34 -28l-290 330z" />
    <glyph glyph-name="Aacute" unicode="&#xc1;" horiz-adv-x="1351" 
d="M1225 0l-176 442h-746l-176 -442h-53l579 1434h45l580 -1434h-53zM676 1376l-357 -893h713zM514 1569l289 329l35 -27l-290 -330z" />
    <glyph glyph-name="Acircumflex" unicode="&#xc2;" horiz-adv-x="1351" 
d="M1225 0l-176 442h-746l-176 -442h-53l579 1434h45l580 -1434h-53zM676 1376l-357 -893h713zM953 1544l-277 305l-278 -305l-27 25l286 317h37l287 -317z" />
    <glyph glyph-name="Atilde" unicode="&#xc3;" horiz-adv-x="1351" 
d="M1225 0l-176 442h-746l-176 -442h-53l579 1434h45l580 -1434h-53zM676 1376l-357 -893h713zM662 1676q-27 32 -44.5 50t-44 35t-50.5 17q-88 0 -122 -171l-45 9q43 203 167 203q47 0 86 -29.5t82 -80.5q27 -32 44.5 -50t43.5 -34.5t50 -16.5q88 0 122 171l45 -10
q-43 -202 -167 -202q-47 0 -85.5 29t-81.5 80z" />
    <glyph glyph-name="Adieresis" unicode="&#xc4;" horiz-adv-x="1351" 
d="M1225 0l-176 442h-746l-176 -442h-53l579 1434h45l580 -1434h-53zM676 1376l-357 -893h713zM451 1704q0 25 16 41t41 16t41 -16t16 -41t-16 -41t-41 -16t-41 16t-16 41zM786 1704q0 25 16.5 41t41.5 16t41 -16t16 -41t-16 -41t-41 -16t-41.5 16t-16.5 41z" />
    <glyph glyph-name="Aring" unicode="&#xc5;" horiz-adv-x="1351" 
d="M1225 0l-176 442h-746l-176 -442h-53l579 1434h45l580 -1434h-53zM676 1376l-357 -893h713zM479 1727q0 81 57.5 136.5t139.5 55.5t139 -55.5t57 -136.5t-57 -137t-139 -56t-139.5 56t-57.5 137zM524 1727q0 -64 44.5 -108t107.5 -44t107 44t44 108t-44 107.5t-107 43.5
t-107.5 -43.5t-44.5 -107.5z" />
    <glyph glyph-name="AE" unicode="&#xc6;" horiz-adv-x="1880" 
d="M129 0h-55l863 1434h787v-41h-714v-652h655v-41h-655v-659h733v-41h-778v442h-571zM419 483h546v908z" />
    <glyph glyph-name="Ccedilla" unicode="&#xc7;" horiz-adv-x="1575" 
d="M838 -190q-18 0 -32 -6l-13 17v155q-146 4 -276.5 62.5t-224.5 156.5t-148.5 234t-54.5 288q0 206 95.5 376t261.5 267.5t366 97.5q231 0 413.5 -129t261.5 -341h-49q-77 192 -246 310.5t-380 118.5q-140 0 -266 -55.5t-216 -149.5t-143 -223.5t-53 -271.5t53 -271.5
t143 -223.5t216 -150t266 -56q191 0 348.5 98t245.5 263l38 -27q-92 -167 -251.5 -267.5t-354.5 -106.5v-128q90 0 158.5 -54t68.5 -138q0 -79 -66 -133.5t-161 -54.5q-90 0 -153 49t-83 135h45q12 -65 65.5 -104.5t125.5 -39.5q76 0 129 43t53 105t-53 108t-129 46z" />
    <glyph glyph-name="Egrave" unicode="&#xc8;" horiz-adv-x="1122" 
d="M197 0v1434h770v-41h-725v-652h665v-41h-665v-659h743v-41h-788zM384 1898l289 -329l-34 -28l-290 330z" />
    <glyph glyph-name="Eacute" unicode="&#xc9;" horiz-adv-x="1122" 
d="M197 0v1434h770v-41h-725v-652h665v-41h-665v-659h743v-41h-788zM483 1569l289 329l35 -27l-290 -330z" />
    <glyph glyph-name="Ecircumflex" unicode="&#xca;" horiz-adv-x="1122" 
d="M197 0v1434h770v-41h-725v-652h665v-41h-665v-659h743v-41h-788zM859 1544l-277 305l-278 -305l-28 26l287 316h37l287 -316z" />
    <glyph glyph-name="Edieresis" unicode="&#xcb;" horiz-adv-x="1122" 
d="M197 0v1434h770v-41h-725v-652h665v-41h-665v-659h743v-41h-788zM346 1704q0 25 16.5 41t41.5 16t41 -16t16 -41t-16 -41t-41 -16t-41.5 16t-16.5 41zM682 1704q0 25 16.5 41t41.5 16t41 -16t16 -41t-16 -41t-41 -16t-41.5 16t-16.5 41z" />
    <glyph glyph-name="Igrave" unicode="&#xcc;" horiz-adv-x="565" 
d="M260 1434h45v-1434h-45v1434zM80 1898l289 -329l-34 -28l-290 330z" />
    <glyph glyph-name="Iacute" unicode="&#xcd;" horiz-adv-x="565" 
d="M260 1434h45v-1434h-45v1434zM194 1569l289 329l35 -27l-290 -330z" />
    <glyph glyph-name="Icircumflex" unicode="&#xce;" horiz-adv-x="565" 
d="M260 1434h45v-1434h-45v1434zM560 1544l-277 305l-278 -305l-27 25l286 317h37l287 -317z" />
    <glyph glyph-name="Idieresis" unicode="&#xcf;" horiz-adv-x="565" 
d="M260 1434h45v-1434h-45v1434zM57 1704q0 25 16.5 41t41.5 16t41 -16t16 -41t-16 -41t-41 -16t-41.5 16t-16.5 41zM393 1704q0 25 16.5 41t41.5 16t41 -16t16 -41t-16 -41t-41 -16t-41.5 16t-16.5 41z" />
    <glyph glyph-name="Eth" unicode="&#xd0;" horiz-adv-x="1453" 
d="M264 1434h434q151 0 276.5 -53.5t210.5 -148t132 -227t47 -288.5t-47 -288.5t-132 -227t-210.5 -148t-276.5 -53.5h-434v696h-194v41h194v697zM698 1393h-389v-656h385v-41h-385v-655h389q187 0 329 87t217 240t75 349t-75 349t-217 240t-329 87z" />
    <glyph glyph-name="Ntilde" unicode="&#xd1;" horiz-adv-x="1404" 
d="M688 1676q-27 32 -44 50t-43.5 35t-50.5 17q-88 0 -122 -171l-45 9q43 203 167 203q47 0 86 -29.5t82 -80.5q27 -32 44.5 -50t43.5 -34.5t50 -16.5q88 0 122 171l45 -10q-43 -202 -167 -202q-47 0 -86.5 29t-81.5 80zM197 0v1434h41l925 -1352v1352h45v-1434h-41
l-925 1352v-1352h-45z" />
    <glyph glyph-name="Ograve" unicode="&#xd2;" horiz-adv-x="1624" 
d="M134 717q0 -142 53 -271.5t143 -223.5t216 -150t266 -56t266 56t216 150t143 223.5t53 271.5t-53 271.5t-143 223.5t-216 149.5t-266 55.5t-266 -55.5t-216 -149.5t-143 -223.5t-53 -271.5zM89 717q0 206 95.5 376t261.5 267.5t366 97.5t366 -97.5t261.5 -267.5
t95.5 -376q0 -154 -56.5 -292t-152.5 -236.5t-230 -156t-284 -57.5t-284 57.5t-230 156t-152.5 236.5t-56.5 292zM594 1898l289 -329l-34 -28l-290 330z" />
    <glyph glyph-name="Oacute" unicode="&#xd3;" horiz-adv-x="1624" 
d="M134 717q0 -142 53 -271.5t143 -223.5t216 -150t266 -56t266 56t216 150t143 223.5t53 271.5t-53 271.5t-143 223.5t-216 149.5t-266 55.5t-266 -55.5t-216 -149.5t-143 -223.5t-53 -271.5zM89 717q0 206 95.5 376t261.5 267.5t366 97.5t366 -97.5t261.5 -267.5
t95.5 -376q0 -154 -56.5 -292t-152.5 -236.5t-230 -156t-284 -57.5t-284 57.5t-230 156t-152.5 236.5t-56.5 292zM742 1569l289 329l35 -27l-290 -330z" />
    <glyph glyph-name="Ocircumflex" unicode="&#xd4;" horiz-adv-x="1624" 
d="M134 717q0 -142 53 -271.5t143 -223.5t216 -150t266 -56t266 56t216 150t143 223.5t53 271.5t-53 271.5t-143 223.5t-216 149.5t-266 55.5t-266 -55.5t-216 -149.5t-143 -223.5t-53 -271.5zM89 717q0 206 95.5 376t261.5 267.5t366 97.5t366 -97.5t261.5 -267.5
t95.5 -376q0 -154 -56.5 -292t-152.5 -236.5t-230 -156t-284 -57.5t-284 57.5t-230 156t-152.5 236.5t-56.5 292zM1090 1544l-278 305l-277 -305l-28 26l287 316h36l287 -316z" />
    <glyph glyph-name="Otilde" unicode="&#xd5;" horiz-adv-x="1624" 
d="M134 717q0 -142 53 -271.5t143 -223.5t216 -150t266 -56t266 56t216 150t143 223.5t53 271.5t-53 271.5t-143 223.5t-216 149.5t-266 55.5t-266 -55.5t-216 -149.5t-143 -223.5t-53 -271.5zM89 717q0 206 95.5 376t261.5 267.5t366 97.5t366 -97.5t261.5 -267.5
t95.5 -376q0 -154 -56.5 -292t-152.5 -236.5t-230 -156t-284 -57.5t-284 57.5t-230 156t-152.5 236.5t-56.5 292zM797 1676q-27 32 -44 50t-43.5 35t-50.5 17q-88 0 -122 -171l-45 9q43 203 167 203q47 0 86 -29.5t82 -80.5q27 -32 44.5 -50t43.5 -34.5t50 -16.5
q88 0 122 171l45 -9q-43 -203 -167 -203q-47 0 -86.5 29t-81.5 80z" />
    <glyph glyph-name="Odieresis" unicode="&#xd6;" horiz-adv-x="1624" 
d="M134 717q0 -142 53 -271.5t143 -223.5t216 -150t266 -56t266 56t216 150t143 223.5t53 271.5t-53 271.5t-143 223.5t-216 149.5t-266 55.5t-266 -55.5t-216 -149.5t-143 -223.5t-53 -271.5zM89 717q0 206 95.5 376t261.5 267.5t366 97.5t366 -97.5t261.5 -267.5
t95.5 -376q0 -154 -56.5 -292t-152.5 -236.5t-230 -156t-284 -57.5t-284 57.5t-230 156t-152.5 236.5t-56.5 292zM586 1704q0 25 16.5 41t41.5 16t41 -16t16 -41t-16 -41t-41 -16t-41.5 16t-16.5 41zM922 1704q0 25 16.5 41t41.5 16t41 -16t16 -41t-16 -41t-41 -16t-41.5 16
t-16.5 41z" />
    <glyph glyph-name="multiply" unicode="&#xd7;" horiz-adv-x="1138" 
d="M173 298l365 375l-365 375l31 32l365 -375l366 375l31 -32l-366 -375l366 -375l-31 -33l-366 375l-365 -375z" />
    <glyph glyph-name="Oslash" unicode="&#xd8;" horiz-adv-x="1624" 
d="M89 717q0 206 95.5 376t261.5 267.5t366 97.5q242 0 431 -142l151 191l34 -26l-151 -192q121 -103 189.5 -251.5t68.5 -320.5q0 -154 -56.5 -292t-152.5 -236.5t-230 -156t-284 -57.5q-251 0 -448 155l-162 -206l-35 27l164 208q-114 102 -178 246.5t-64 311.5zM1490 717
q0 158 -64 297.5t-177 238.5l-858 -1088q184 -149 421 -149q140 0 266 56t216 150t143 223.5t53 271.5zM134 717q0 -153 59.5 -288.5t164.5 -234.5l857 1087q-181 136 -403 136q-140 0 -266 -55.5t-216 -149.5t-143 -223.5t-53 -271.5z" />
    <glyph glyph-name="Ugrave" unicode="&#xd9;" horiz-adv-x="1331" 
d="M447 1898l289 -329l-34 -28l-289 330zM1155 1434v-955q0 -224 -135.5 -363t-353.5 -139t-354 139t-136 363v955h45v-955q0 -203 124.5 -332t320.5 -129t320 129t124 332v955h45z" />
    <glyph glyph-name="Uacute" unicode="&#xda;" horiz-adv-x="1331" 
d="M592 1569l289 329l34 -27l-289 -330zM1155 1434v-955q0 -224 -135.5 -363t-353.5 -139t-354 139t-136 363v955h45v-955q0 -203 124.5 -332t320.5 -129t320 129t124 332v955h45z" />
    <glyph glyph-name="Ucircumflex" unicode="&#xdb;" horiz-adv-x="1331" 
d="M943 1544l-277 305l-278 -305l-28 26l287 316h37l287 -316zM1155 1434v-955q0 -224 -135.5 -363t-353.5 -139t-354 139t-136 363v955h45v-955q0 -203 124.5 -332t320.5 -129t320 129t124 332v955h45z" />
    <glyph glyph-name="Udieresis" unicode="&#xdc;" horiz-adv-x="1331" 
d="M440 1704q0 25 16.5 41t41.5 16t41 -16t16 -41t-16 -41t-41 -16t-41.5 16t-16.5 41zM776 1704q0 25 16.5 41t41.5 16t41 -16t16 -41t-16 -41t-41 -16t-41.5 16t-16.5 41zM1155 1434v-955q0 -224 -135.5 -363t-353.5 -139t-354 139t-136 363v955h45v-955
q0 -203 124.5 -332t320.5 -129t320 129t124 332v955h45z" />
    <glyph glyph-name="Yacute" unicode="&#xdd;" horiz-adv-x="1298" 
d="M127 1434l522 -799l522 799h58l-557 -846v-588h-45v588l-557 846h57zM586 1569l289 329l35 -27l-290 -330z" />
    <glyph glyph-name="Thorn" unicode="&#xde;" horiz-adv-x="1148" 
d="M580 301h-338v-301h-45v1434h45v-301h338q216 0 349.5 -114t133.5 -302t-133.5 -302t-349.5 -114zM1018 717q0 169 -120.5 272t-317.5 103h-338v-750h338q197 0 317.5 103t120.5 272z" />
    <glyph glyph-name="germandbls" unicode="&#xdf;" horiz-adv-x="1210" 
d="M357 50l19 40q109 -74 245 -74q179 0 303.5 115t124.5 283t-124.5 282.5t-303.5 114.5q-80 0 -136 -20l-22 28l272 574h-514v-1393h-45v1434h612v-41l-263 -553q43 12 96 12q202 0 337.5 -126.5t135.5 -311.5t-135.5 -312t-337.5 -127q-149 0 -264 75z" />
    <glyph glyph-name="agrave" unicode="&#xe0;" horiz-adv-x="1282" 
d="M87 530q0 151 68 278.5t186 201.5t259 74q158 0 283.5 -92t184.5 -243v312h45v-1061h-45v312q-59 -151 -184.5 -243t-283.5 -92q-141 0 -259 74t-186 201t-68 278zM133 530q0 -141 61.5 -259t169 -186.5t237.5 -68.5q97 0 184 40.5t149 109.5t98 164t36 200t-36 200.5
t-98 164.5t-149 110t-184 41q-130 0 -237.5 -69t-169 -187.5t-61.5 -259.5zM427 1566l289 -329l-34 -28l-290 330z" />
    <glyph glyph-name="aacute" unicode="&#xe1;" horiz-adv-x="1282" 
d="M87 530q0 151 68 278.5t186 201.5t259 74q158 0 283.5 -92t184.5 -243v312h45v-1061h-45v312q-59 -151 -184.5 -243t-283.5 -92q-141 0 -259 74t-186 201t-68 278zM133 530q0 -141 61.5 -259t169 -186.5t237.5 -68.5q97 0 184 40.5t149 109.5t98 164t36 200t-36 200.5
t-98 164.5t-149 110t-184 41q-130 0 -237.5 -69t-169 -187.5t-61.5 -259.5zM525 1237l289 329l35 -27l-290 -330z" />
    <glyph glyph-name="acircumflex" unicode="&#xe2;" horiz-adv-x="1282" 
d="M87 530q0 151 68 278.5t186 201.5t259 74q158 0 283.5 -92t184.5 -243v312h45v-1061h-45v312q-59 -151 -184.5 -243t-283.5 -92q-141 0 -259 74t-186 201t-68 278zM133 530q0 -141 61.5 -259t169 -186.5t237.5 -68.5q97 0 184 40.5t149 109.5t98 164t36 200t-36 200.5
t-98 164.5t-149 110t-184 41q-130 0 -237.5 -69t-169 -187.5t-61.5 -259.5zM899 1213l-277 305l-278 -305l-27 25l286 317h37l287 -317z" />
    <glyph glyph-name="atilde" unicode="&#xe3;" horiz-adv-x="1282" 
d="M87 530q0 151 68 278.5t186 201.5t259 74q158 0 283.5 -92t184.5 -243v312h45v-1061h-45v312q-59 -151 -184.5 -243t-283.5 -92q-141 0 -259 74t-186 201t-68 278zM133 530q0 -141 61.5 -259t169 -186.5t237.5 -68.5q97 0 184 40.5t149 109.5t98 164t36 200t-36 200.5
t-98 164.5t-149 110t-184 41q-130 0 -237.5 -69t-169 -187.5t-61.5 -259.5zM612 1345q-27 32 -44.5 50t-43.5 34.5t-50 16.5q-88 0 -122 -171l-45 9q43 203 167 203q47 0 86 -29.5t82 -80.5q27 -32 44.5 -50t43.5 -34.5t50 -16.5q88 0 122 171l45 -9q-43 -203 -167 -203
q-47 0 -86 29.5t-82 80.5z" />
    <glyph glyph-name="adieresis" unicode="&#xe4;" horiz-adv-x="1282" 
d="M87 530q0 151 68 278.5t186 201.5t259 74q158 0 283.5 -92t184.5 -243v312h45v-1061h-45v312q-59 -151 -184.5 -243t-283.5 -92q-141 0 -259 74t-186 201t-68 278zM133 530q0 -141 61.5 -259t169 -186.5t237.5 -68.5q97 0 184 40.5t149 109.5t98 164t36 200t-36 200.5
t-98 164.5t-149 110t-184 41q-130 0 -237.5 -69t-169 -187.5t-61.5 -259.5zM396 1372q0 25 16.5 41.5t41.5 16.5t41 -16.5t16 -41.5t-16 -41t-41 -16t-41.5 16t-16.5 41zM732 1372q0 25 16.5 41.5t41.5 16.5t41 -16.5t16 -41.5t-16 -41t-41 -16t-41.5 16t-16.5 41z" />
    <glyph glyph-name="aring" unicode="&#xe5;" horiz-adv-x="1282" 
d="M87 530q0 151 68 278.5t186 201.5t259 74q158 0 283.5 -92t184.5 -243v312h45v-1061h-45v312q-59 -151 -184.5 -243t-283.5 -92q-141 0 -259 74t-186 201t-68 278zM133 530q0 -141 61.5 -259t169 -186.5t237.5 -68.5q97 0 184 40.5t149 109.5t98 164t36 200t-36 200.5
t-98 164.5t-149 110t-184 41q-130 0 -237.5 -69t-169 -187.5t-61.5 -259.5zM425 1395q0 81 57.5 136.5t139.5 55.5t139 -55.5t57 -136.5t-57 -137t-139 -56t-139.5 56t-57.5 137zM470 1395q0 -64 44.5 -108t107.5 -44t107 44t44 108t-44 107.5t-107 43.5t-107.5 -43.5
t-44.5 -107.5z" />
    <glyph glyph-name="ae" unicode="&#xe6;" horiz-adv-x="2196" 
d="M1113 524q2 -136 63.5 -251.5t176.5 -186t258 -70.5q117 0 218.5 52t172.5 145l33 -31q-73 -95 -184 -151t-240 -56q-172 0 -304 90t-194 238v-303h-45v312q-59 -151 -184.5 -243t-283.5 -92q-141 0 -259 74t-186 201t-68 278t68 278.5t186 201.5t259 74q158 0 283.5 -92
t184.5 -243v312h45v-304q62 147 191 237.5t294 90.5q220 0 365 -151.5t145 -370.5q0 -19 -4 -39h-991zM133 530q0 -141 61.5 -259t169 -186.5t237.5 -68.5q97 0 184 40.5t149 109.5t98 164t36 200t-36 200.5t-98 164.5t-149 110t-184 41q-130 0 -237.5 -69t-169 -187.5
t-61.5 -259.5zM1598 1044q-195 0 -333.5 -141t-150.5 -338h948q-7 207 -138 343t-326 136z" />
    <glyph glyph-name="ccedilla" unicode="&#xe7;" horiz-adv-x="1190" 
d="M650 -190q-18 0 -32 -6l-13 17v155q-147 6 -266.5 83.5t-185.5 202t-66 268.5q0 110 41.5 211.5t112.5 177.5t172.5 121t216.5 45q154 0 279.5 -77t194.5 -206h-52q-66 110 -177.5 176t-244.5 66q-104 0 -197.5 -42t-159 -112.5t-103.5 -164.5t-38 -195t38 -195
t103.5 -164.5t159 -112.5t197.5 -42q139 0 253 70.5t179 188.5l36 -26q-69 -120 -186 -194t-262 -79v-128q91 0 159.5 -54t68.5 -138q0 -79 -66 -133.5t-162 -54.5q-90 0 -152.5 49t-82.5 135h45q12 -65 65 -104.5t125 -39.5q76 0 129.5 43.5t53.5 104.5q0 62 -53.5 108
t-129.5 46z" />
    <glyph glyph-name="egrave" unicode="&#xe8;" horiz-adv-x="1215" 
d="M132 524q2 -136 63.5 -251.5t176.5 -186t258 -70.5q117 0 218.5 52t172.5 145l33 -31q-73 -95 -184 -151t-240 -56q-157 0 -282.5 76t-193 202.5t-67.5 276.5t67.5 276.5t190 202.5t272.5 76q220 0 365 -151.5t145 -370.5q0 -19 -4 -39h-991zM617 1044
q-195 0 -333.5 -141t-150.5 -338h948q-7 207 -138 343t-326 136zM480 1566l289 -329l-34 -28l-290 330z" />
    <glyph glyph-name="eacute" unicode="&#xe9;" horiz-adv-x="1215" 
d="M132 524q2 -136 63.5 -251.5t176.5 -186t258 -70.5q117 0 218.5 52t172.5 145l33 -31q-73 -95 -184 -151t-240 -56q-157 0 -282.5 76t-193 202.5t-67.5 276.5t67.5 276.5t190 202.5t272.5 76q220 0 365 -151.5t145 -370.5q0 -19 -4 -39h-991zM617 1044
q-195 0 -333.5 -141t-150.5 -338h948q-7 207 -138 343t-326 136zM529 1237l289 329l35 -27l-290 -330z" />
    <glyph glyph-name="ecircumflex" unicode="&#xea;" horiz-adv-x="1215" 
d="M132 524q2 -136 63.5 -251.5t176.5 -186t258 -70.5q117 0 218.5 52t172.5 145l33 -31q-73 -95 -184 -151t-240 -56q-157 0 -282.5 76t-193 202.5t-67.5 276.5t67.5 276.5t190 202.5t272.5 76q220 0 365 -151.5t145 -370.5q0 -19 -4 -39h-991zM617 1044
q-195 0 -333.5 -141t-150.5 -338h948q-7 207 -138 343t-326 136zM885 1212l-278 306l-277 -306l-28 26l287 316h37l286 -316z" />
    <glyph glyph-name="edieresis" unicode="&#xeb;" horiz-adv-x="1215" 
d="M132 524q2 -136 63.5 -251.5t176.5 -186t258 -70.5q117 0 218.5 52t172.5 145l33 -31q-73 -95 -184 -151t-240 -56q-157 0 -282.5 76t-193 202.5t-67.5 276.5t67.5 276.5t190 202.5t272.5 76q220 0 365 -151.5t145 -370.5q0 -19 -4 -39h-991zM617 1044
q-195 0 -333.5 -141t-150.5 -338h948q-7 207 -138 343t-326 136zM382 1372q0 25 16.5 41t41.5 16t41 -16t16 -41t-16 -41t-41 -16t-41.5 16t-16.5 41zM718 1372q0 25 16.5 41t41.5 16t41 -16t16 -41t-16 -41t-41 -16t-41.5 16t-16.5 41z" />
    <glyph glyph-name="igrave" unicode="&#xec;" horiz-adv-x="518" 
d="M237 0v1061h45v-1061h-45zM132 1566l289 -329l-34 -28l-290 330z" />
    <glyph glyph-name="iacute" unicode="&#xed;" horiz-adv-x="518" 
d="M237 0v1061h45v-1061h-45zM170 1237l289 329l35 -27l-290 -330z" />
    <glyph glyph-name="icircumflex" unicode="&#xee;" horiz-adv-x="518" 
d="M237 0v1061h45v-1061h-45zM536 1213l-277 305l-278 -305l-27 25l286 317h37l287 -317z" />
    <glyph glyph-name="idieresis" unicode="&#xef;" horiz-adv-x="518" 
d="M237 0v1061h45v-1061h-45zM34 1372q0 25 16 41.5t41 16.5t41 -16.5t16 -41.5t-16 -41t-41 -16t-41 16t-16 41zM370 1372q0 25 16 41.5t41 16.5t41 -16.5t16 -41.5t-16 -41t-41 -16t-41 16t-16 41z" />
    <glyph glyph-name="eth" unicode="&#xf0;" horiz-adv-x="1220" 
d="M266 1107l-17 38l363 174q-119 79 -259 143l20 40q148 -66 283 -163l258 125l17 -37l-239 -114q206 -161 318.5 -376t112.5 -462q0 -103 -40.5 -195.5t-109.5 -159t-165.5 -106t-202.5 -39.5t-202.5 39.5t-165.5 106t-109.5 159t-40.5 195.5t40.5 195.5t109.5 159
t165.5 106t202.5 39.5q151 0 275 -80t186 -213q-56 194 -152.5 341.5t-262.5 268.5zM605 934q-129 0 -238 -61.5t-172 -167t-63 -230.5t63 -230.5t172 -167t238 -61.5t238 61.5t172 167t63 230.5t-63 230.5t-172 167t-238 61.5z" />
    <glyph glyph-name="ntilde" unicode="&#xf1;" horiz-adv-x="1199" 
d="M636 1085q188 0 301 -119.5t113 -306.5v-659h-45v655q0 167 -99.5 278t-269.5 111q-167 0 -294.5 -124t-127.5 -285v-635h-45v1061h45v-258q54 123 170 202.5t252 79.5zM594 1345q-27 32 -44.5 50t-43.5 34.5t-50 16.5q-88 0 -122 -171l-45 9q43 203 167 203
q47 0 86 -29.5t82 -80.5q27 -32 44.5 -50t43.5 -34.5t50 -16.5q88 0 122 171l45 -9q-43 -203 -167 -203q-47 0 -86 29.5t-82 80.5z" />
    <glyph glyph-name="ograve" unicode="&#xf2;" horiz-adv-x="1259" 
d="M503 1567l289 -330l-34 -28l-290 330zM630 16q139 0 254 71.5t179 189.5t64 253t-64 253t-179 189.5t-254 71.5q-104 0 -197.5 -42t-159 -112.5t-103.5 -164.5t-38 -195t38 -195t103.5 -164.5t159 -112.5t197.5 -42zM630 1085q153 0 278 -76.5t194.5 -203.5t69.5 -275
t-69.5 -275t-194.5 -203.5t-278 -76.5q-115 0 -216.5 45t-172.5 121t-112.5 177.5t-41.5 211.5t41.5 211.5t112.5 177.5t172.5 121t216.5 45z" />
    <glyph glyph-name="oacute" unicode="&#xf3;" horiz-adv-x="1259" 
d="M544 1237l289 330l34 -28l-289 -330zM630 16q139 0 254 71.5t179 189.5t64 253t-64 253t-179 189.5t-254 71.5q-104 0 -197.5 -42t-159 -112.5t-103.5 -164.5t-38 -195t38 -195t103.5 -164.5t159 -112.5t197.5 -42zM630 1085q153 0 278 -76.5t194.5 -203.5t69.5 -275
t-69.5 -275t-194.5 -203.5t-278 -76.5q-115 0 -216.5 45t-172.5 121t-112.5 177.5t-41.5 211.5t41.5 211.5t112.5 177.5t172.5 121t216.5 45z" />
    <glyph glyph-name="ocircumflex" unicode="&#xf4;" horiz-adv-x="1259" 
d="M907 1212l-277 306l-278 -306l-27 26l286 316h37l287 -316zM630 16q139 0 254 71.5t179 189.5t64 253t-64 253t-179 189.5t-254 71.5q-104 0 -197.5 -42t-159 -112.5t-103.5 -164.5t-38 -195t38 -195t103.5 -164.5t159 -112.5t197.5 -42zM630 1085q153 0 278 -76.5
t194.5 -203.5t69.5 -275t-69.5 -275t-194.5 -203.5t-278 -76.5q-115 0 -216.5 45t-172.5 121t-112.5 177.5t-41.5 211.5t41.5 211.5t112.5 177.5t172.5 121t216.5 45z" />
    <glyph glyph-name="otilde" unicode="&#xf5;" horiz-adv-x="1259" 
d="M615 1345q-27 32 -44.5 50t-43.5 34.5t-50 16.5q-88 0 -122 -171l-45 9q43 203 167 203q47 0 86 -29.5t82 -80.5q27 -32 44.5 -50t43.5 -34.5t50 -16.5q88 0 122 171l45 -9q-43 -203 -167 -203q-47 0 -86 29.5t-82 80.5zM630 16q139 0 254 71.5t179 189.5t64 253t-64 253
t-179 189.5t-254 71.5q-104 0 -197.5 -42t-159 -112.5t-103.5 -164.5t-38 -195t38 -195t103.5 -164.5t159 -112.5t197.5 -42zM630 1085q153 0 278 -76.5t194.5 -203.5t69.5 -275t-69.5 -275t-194.5 -203.5t-278 -76.5q-115 0 -216.5 45t-172.5 121t-112.5 177.5t-41.5 211.5
t41.5 211.5t112.5 177.5t172.5 121t216.5 45z" />
    <glyph glyph-name="odieresis" unicode="&#xf6;" horiz-adv-x="1259" 
d="M404 1372q0 25 16.5 41.5t41.5 16.5t41 -16.5t16 -41.5t-16 -41t-41 -16t-41.5 16t-16.5 41zM740 1372q0 25 16.5 41.5t41.5 16.5t41 -16.5t16 -41.5t-16 -41t-41 -16t-41.5 16t-16.5 41zM630 16q139 0 254 71.5t179 189.5t64 253t-64 253t-179 189.5t-254 71.5
q-104 0 -197.5 -42t-159 -112.5t-103.5 -164.5t-38 -195t38 -195t103.5 -164.5t159 -112.5t197.5 -42zM630 1085q153 0 278 -76.5t194.5 -203.5t69.5 -275t-69.5 -275t-194.5 -203.5t-278 -76.5q-115 0 -216.5 45t-172.5 121t-112.5 177.5t-41.5 211.5t41.5 211.5
t112.5 177.5t172.5 121t216.5 45z" />
    <glyph glyph-name="divide" unicode="&#xf7;" horiz-adv-x="1138" 
d="M1020 659h-901v41h901v-41zM512 293q0 25 16 41t41 16t41.5 -16t16.5 -41t-16.5 -41t-41.5 -16t-41 16t-16 41zM512 1067q0 25 16 41t41 16t41.5 -16t16.5 -41t-16.5 -41t-41.5 -16t-41 16t-16 41z" />
    <glyph glyph-name="oslash" unicode="&#xf8;" horiz-adv-x="1259" 
d="M630 1085q189 0 333 -115l135 165l31 -27l-135 -165q84 -78 131 -185.5t47 -227.5q0 -148 -69.5 -275t-194.5 -203.5t-278 -76.5q-191 0 -334 116l-137 -167l-32 27l137 167q-84 78 -130.5 185t-46.5 227q0 110 41.5 211.5t112.5 177.5t172.5 121t216.5 45zM630 16
q139 0 254 71.5t179 189.5t64 253q0 108 -42.5 207t-118.5 171l-642 -783q133 -109 306 -109zM132 530q0 -108 42.5 -206.5t117.5 -170.5l643 783q-132 108 -305 108q-104 0 -197.5 -42t-159 -112.5t-103.5 -164.5t-38 -195z" />
    <glyph glyph-name="ugrave" unicode="&#xf9;" horiz-adv-x="1199" 
d="M563 -25q-188 0 -300.5 119.5t-112.5 306.5v660h45v-655q0 -167 99 -278.5t269 -111.5q109 0 207 57t156.5 152t58.5 201v635h45v-1061h-45v258q-54 -124 -170 -203.5t-252 -79.5zM472 1566l289 -329l-34 -28l-290 330z" />
    <glyph glyph-name="uacute" unicode="&#xfa;" horiz-adv-x="1199" 
d="M563 -25q-188 0 -300.5 119.5t-112.5 306.5v660h45v-655q0 -167 99 -278.5t269 -111.5q109 0 207 57t156.5 152t58.5 201v635h45v-1061h-45v258q-54 -124 -170 -203.5t-252 -79.5zM502 1237l289 329l35 -27l-290 -330z" />
    <glyph glyph-name="ucircumflex" unicode="&#xfb;" horiz-adv-x="1199" 
d="M563 -25q-188 0 -300.5 119.5t-112.5 306.5v660h45v-655q0 -167 99 -278.5t269 -111.5q109 0 207 57t156.5 152t58.5 201v635h45v-1061h-45v258q-54 -124 -170 -203.5t-252 -79.5zM876 1213l-277 305l-278 -305l-27 25l286 317h37l287 -317z" />
    <glyph glyph-name="udieresis" unicode="&#xfc;" horiz-adv-x="1199" 
d="M563 -25q-188 0 -300.5 119.5t-112.5 306.5v660h45v-655q0 -167 99 -278.5t269 -111.5q109 0 207 57t156.5 152t58.5 201v635h45v-1061h-45v258q-54 -124 -170 -203.5t-252 -79.5zM365 1372q0 25 16 41.5t41 16.5t41 -16.5t16 -41.5t-16 -41t-41 -16t-41 16t-16 41z
M700 1372q0 25 16.5 41.5t41.5 16.5t41 -16.5t16 -41.5t-16 -41t-41 -16t-41.5 16t-16.5 41z" />
    <glyph glyph-name="yacute" unicode="&#xfd;" horiz-adv-x="1056" 
d="M299 -475l211 493l-461 1043h53l434 -981l418 981h54l-656 -1536h-53zM461 1237l289 329l35 -27l-290 -330z" />
    <glyph glyph-name="thorn" unicode="&#xfe;" horiz-adv-x="1282" 
d="M1195 530q0 -151 -68 -278t-186 -201t-259 -74q-158 0 -284 92t-184 243v-787h-45v1970h45v-746q58 151 184 243t284 92q141 0 259 -74t186 -201.5t68 -278.5zM1149 530q0 141 -61.5 259.5t-169 187.5t-237.5 69q-97 0 -184 -41t-149 -110t-98 -164.5t-36 -200.5t36 -200
t98 -164t149 -109.5t184 -40.5q130 0 237.5 68.5t169 186.5t61.5 259z" />
    <glyph glyph-name="ydieresis" unicode="&#xff;" horiz-adv-x="1056" 
d="M303 1372q0 25 16 41.5t41 16.5t41.5 -16.5t16.5 -41.5t-16.5 -41t-41.5 -16t-41 16t-16 41zM639 1372q0 25 16 41.5t41 16.5t41.5 -16.5t16.5 -41.5t-16.5 -41t-41.5 -16t-41 16t-16 41zM299 -475l211 493l-461 1043h53l434 -981l418 981h54l-656 -1536h-53z" />
    <glyph glyph-name="Amacron" unicode="&#x100;" horiz-adv-x="1351" 
d="M1225 0l-176 442h-746l-176 -442h-53l579 1434h45l580 -1434h-53zM676 1376l-357 -893h713zM410 1680v41h532v-41h-532z" />
    <glyph glyph-name="amacron" unicode="&#x101;" horiz-adv-x="1282" 
d="M87 530q0 151 68 278.5t186 201.5t259 74q158 0 283.5 -92t184.5 -243v312h45v-1061h-45v312q-59 -151 -184.5 -243t-283.5 -92q-141 0 -259 74t-186 201t-68 278zM133 530q0 -141 61.5 -259t169 -186.5t237.5 -68.5q97 0 184 40.5t149 109.5t98 164t36 200t-36 200.5
t-98 164.5t-149 110t-184 41q-130 0 -237.5 -69t-169 -187.5t-61.5 -259.5zM368 1349v41h532v-41h-532z" />
    <glyph glyph-name="Abreve" unicode="&#x102;" horiz-adv-x="1351" 
d="M1225 0l-176 442h-746l-176 -442h-53l579 1434h45l580 -1434h-53zM676 1376l-357 -893h713zM676 1534q-128 0 -208.5 85.5t-86.5 215.5h45q6 -114 71.5 -187t178.5 -73t178.5 73t71.5 187h45q-6 -130 -86.5 -215.5t-208.5 -85.5z" />
    <glyph glyph-name="abreve" unicode="&#x103;" horiz-adv-x="1282" 
d="M87 530q0 151 68 278.5t186 201.5t259 74q158 0 283.5 -92t184.5 -243v312h45v-1061h-45v312q-59 -151 -184.5 -243t-283.5 -92q-141 0 -259 74t-186 201t-68 278zM133 530q0 -141 61.5 -259t169 -186.5t237.5 -68.5q97 0 184 40.5t149 109.5t98 164t36 200t-36 200.5
t-98 164.5t-149 110t-184 41q-130 0 -237.5 -69t-169 -187.5t-61.5 -259.5zM631 1202q-128 0 -208.5 85.5t-86.5 215.5h45q6 -114 71.5 -187t178.5 -73t178.5 73t71.5 187h45q-6 -130 -86.5 -215.5t-208.5 -85.5z" />
    <glyph glyph-name="Aogonek" unicode="&#x104;" horiz-adv-x="1351" 
d="M1225 0l-176 442h-746l-176 -442h-53l579 1434h45l580 -1434q-57 -46 -85.5 -71t-62 -61.5t-47.5 -69.5t-14 -70q0 -66 43.5 -111t106.5 -45q70 0 112.5 41t42.5 115h46q0 -94 -55 -145.5t-146 -51.5q-82 0 -138.5 57t-56.5 140q0 55 31 106.5t68.5 85t101.5 80.5z
M676 1376l-357 -893h713z" />
    <glyph glyph-name="aogonek" unicode="&#x105;" horiz-adv-x="1282" 
d="M87 530q0 151 68 278.5t186 201.5t259 74q158 0 283.5 -92t184.5 -243v312h45v-1061q-57 -46 -85.5 -71t-62 -61.5t-47.5 -69.5t-14 -70q0 -66 43.5 -111t106.5 -45q70 0 112.5 41t42.5 115h46q0 -94 -55 -145.5t-146 -51.5q-82 0 -138.5 57t-56.5 140q0 34 12.5 66.5
t29 56.5t49 54t55 47.5t63.5 47.5v312q-59 -151 -184.5 -243t-283.5 -92q-141 0 -259 74t-186 201t-68 278zM133 530q0 -141 61.5 -259t169 -186.5t237.5 -68.5q97 0 184 40.5t149 109.5t98 164t36 200t-36 200.5t-98 164.5t-149 110t-184 41q-130 0 -237.5 -69t-169 -187.5
t-61.5 -259.5z" />
    <glyph glyph-name="Cacute" unicode="&#x106;" horiz-adv-x="1575" 
d="M1487 988h-49q-77 192 -246 310.5t-380 118.5q-140 0 -266 -55.5t-216 -149.5t-143 -223.5t-53 -271.5t53 -271.5t143 -223.5t216 -150t266 -56q191 0 348.5 98t245.5 263l38 -27q-94 -172 -261.5 -273.5t-370.5 -101.5q-150 0 -284 57.5t-230 156t-152.5 236.5
t-56.5 292q0 206 95.5 376t261.5 267.5t366 97.5q231 0 413.5 -129t261.5 -341zM687 1569l289 329l35 -27l-290 -330z" />
    <glyph glyph-name="cacute" unicode="&#x107;" horiz-adv-x="1190" 
d="M1062 275l36 -26q-71 -125 -194 -199.5t-274 -74.5q-115 0 -216.5 45t-172.5 121t-112.5 177.5t-41.5 211.5t41.5 211.5t112.5 177.5t172.5 121t216.5 45q154 0 279.5 -77t194.5 -206h-52q-66 110 -177.5 176t-244.5 66q-104 0 -197.5 -42t-159 -112.5t-103.5 -164.5
t-38 -195t38 -195t103.5 -164.5t159 -112.5t197.5 -42q139 0 253 70.5t179 188.5zM518 1237l289 329l35 -27l-290 -330z" />
    <glyph glyph-name="Ccircumflex" unicode="&#x108;" horiz-adv-x="1575" 
d="M1487 988h-49q-77 192 -246 310.5t-380 118.5q-140 0 -266 -55.5t-216 -149.5t-143 -223.5t-53 -271.5t53 -271.5t143 -223.5t216 -150t266 -56q191 0 348.5 98t245.5 263l38 -27q-94 -172 -261.5 -273.5t-370.5 -101.5q-150 0 -284 57.5t-230 156t-152.5 236.5
t-56.5 292q0 206 95.5 376t261.5 267.5t366 97.5q231 0 413.5 -129t261.5 -341zM1055 1544l-277 305l-278 -305l-27 25l286 317h37l287 -317z" />
    <glyph glyph-name="ccircumflex" unicode="&#x109;" horiz-adv-x="1190" 
d="M1062 275l36 -26q-71 -125 -194 -199.5t-274 -74.5q-115 0 -216.5 45t-172.5 121t-112.5 177.5t-41.5 211.5t41.5 211.5t112.5 177.5t172.5 121t216.5 45q154 0 279.5 -77t194.5 -206h-52q-66 110 -177.5 176t-244.5 66q-104 0 -197.5 -42t-159 -112.5t-103.5 -164.5
t-38 -195t38 -195t103.5 -164.5t159 -112.5t197.5 -42q139 0 253 70.5t179 188.5zM872 1213l-277 305l-278 -305l-27 25l286 317h37l287 -317z" />
    <glyph glyph-name="Cdotaccent" unicode="&#x10a;" horiz-adv-x="1575" 
d="M1487 988h-49q-77 192 -246 310.5t-380 118.5q-140 0 -266 -55.5t-216 -149.5t-143 -223.5t-53 -271.5t53 -271.5t143 -223.5t216 -150t266 -56q191 0 348.5 98t245.5 263l38 -27q-94 -172 -261.5 -273.5t-370.5 -101.5q-150 0 -284 57.5t-230 156t-152.5 236.5
t-56.5 292q0 206 95.5 376t261.5 267.5t366 97.5q231 0 413.5 -129t261.5 -341zM724 1704q0 25 16 41t41 16t41.5 -16t16.5 -41t-16.5 -41t-41.5 -16t-41 16t-16 41z" />
    <glyph glyph-name="cdotaccent" unicode="&#x10b;" horiz-adv-x="1190" 
d="M1062 275l36 -26q-71 -125 -194 -199.5t-274 -74.5q-115 0 -216.5 45t-172.5 121t-112.5 177.5t-41.5 211.5t41.5 211.5t112.5 177.5t172.5 121t216.5 45q154 0 279.5 -77t194.5 -206h-52q-66 110 -177.5 176t-244.5 66q-104 0 -197.5 -42t-159 -112.5t-103.5 -164.5
t-38 -195t38 -195t103.5 -164.5t159 -112.5t197.5 -42q139 0 253 70.5t179 188.5zM554 1372q0 25 16 41.5t41 16.5t41.5 -16.5t16.5 -41.5t-16.5 -41t-41.5 -16t-41 16t-16 41z" />
    <glyph glyph-name="Ccaron" unicode="&#x10c;" horiz-adv-x="1575" 
d="M1487 988h-49q-77 192 -246 310.5t-380 118.5q-140 0 -266 -55.5t-216 -149.5t-143 -223.5t-53 -271.5t53 -271.5t143 -223.5t216 -150t266 -56q191 0 348.5 98t245.5 263l38 -27q-94 -172 -261.5 -273.5t-370.5 -101.5q-150 0 -284 57.5t-230 156t-152.5 236.5
t-56.5 292q0 206 95.5 376t261.5 267.5t366 97.5q231 0 413.5 -129t261.5 -341zM777 1591l278 305l27 -25l-286 -317h-37l-287 317l28 25z" />
    <glyph glyph-name="ccaron" unicode="&#x10d;" horiz-adv-x="1190" 
d="M1062 275l36 -26q-71 -125 -194 -199.5t-274 -74.5q-115 0 -216.5 45t-172.5 121t-112.5 177.5t-41.5 211.5t41.5 211.5t112.5 177.5t172.5 121t216.5 45q154 0 279.5 -77t194.5 -206h-52q-66 110 -177.5 176t-244.5 66q-104 0 -197.5 -42t-159 -112.5t-103.5 -164.5
t-38 -195t38 -195t103.5 -164.5t159 -112.5t197.5 -42q139 0 253 70.5t179 188.5zM604 1239l278 305l27 -25l-286 -317h-37l-287 317l28 25z" />
    <glyph glyph-name="Dcaron" unicode="&#x10e;" horiz-adv-x="1385" 
d="M197 1434h434q201 0 353 -92t232 -254t80 -371t-80 -371t-232 -254t-353 -92h-434v1434zM631 1393h-389v-1352h389q187 0 328.5 87t216.5 240t75 349t-75 349t-216.5 240t-328.5 87zM674 1591l277 305l28 -26l-287 -316h-37l-286 316l27 26z" />
    <glyph glyph-name="dcaron" unicode="&#x10f;" horiz-adv-x="1570" 
d="M87 530q0 151 68 278.5t186 201.5t259 74q158 0 283.5 -92t184.5 -243v746h45v-1495h-45v312q-59 -151 -184.5 -243t-283.5 -92q-141 0 -259 74t-186 201t-68 278zM133 530q0 -141 61.5 -259t169 -186.5t237.5 -68.5q97 0 184 40.5t149 109.5t98 164t36 200t-36 200.5
t-98 164.5t-149 110t-184 41q-130 0 -237.5 -69t-169 -187.5t-61.5 -259.5zM1386 1461q0 25 16 42t41 17q26 0 42 -18.5t16 -51.5q0 -67 -26 -127t-100 -137l-33 29q57 65 68 117.5t-16 94.5q-8 19 -8 34z" />
    <glyph glyph-name="Dcroat" unicode="&#x110;" horiz-adv-x="1453" 
d="M264 1434h434q151 0 276.5 -53.5t210.5 -148t132 -227t47 -288.5t-47 -288.5t-132 -227t-210.5 -148t-276.5 -53.5h-434v696h-194v41h194v697zM698 1393h-389v-656h385v-41h-385v-655h389q187 0 329 87t217 240t75 349t-75 349t-217 240t-329 87z" />
    <glyph glyph-name="dcroat" unicode="&#x111;" horiz-adv-x="1348" 
d="M642 1246v41h426v208h45v-208h184v-41h-184v-1246h-45v312q-59 -151 -184.5 -243t-283.5 -92q-141 0 -259 74t-186 201t-68 278t68 278.5t186 201.5t259 74q158 0 283.5 -92t184.5 -243v497h-426zM133 530q0 -141 61.5 -259t169 -186.5t237.5 -68.5q97 0 184 40.5
t149 109.5t98 164t36 200t-36 200.5t-98 164.5t-149 110t-184 41q-130 0 -237.5 -69t-169 -187.5t-61.5 -259.5z" />
    <glyph glyph-name="Emacron" unicode="&#x112;" horiz-adv-x="1122" 
d="M197 0v1434h770v-41h-725v-652h665v-41h-665v-659h743v-41h-788zM305 1680v41h533v-41h-533z" />
    <glyph glyph-name="emacron" unicode="&#x113;" horiz-adv-x="1215" 
d="M132 524q2 -136 63.5 -251.5t176.5 -186t258 -70.5q117 0 218.5 52t172.5 145l33 -31q-73 -95 -184 -151t-240 -56q-157 0 -282.5 76t-193 202.5t-67.5 276.5t67.5 276.5t190 202.5t272.5 76q220 0 365 -151.5t145 -370.5q0 -19 -4 -39h-991zM617 1044
q-195 0 -333.5 -141t-150.5 -338h948q-7 207 -138 343t-326 136zM341 1349v41h532v-41h-532z" />
    <glyph glyph-name="Ebreve" unicode="&#x114;" horiz-adv-x="1122" 
d="M197 0v1434h770v-41h-725v-652h665v-41h-665v-659h743v-41h-788zM561 1534q-128 0 -208.5 85.5t-86.5 215.5h45q6 -114 71.5 -187t178.5 -73t178.5 73t71.5 187h45q-6 -130 -86.5 -215.5t-208.5 -85.5z" />
    <glyph glyph-name="ebreve" unicode="&#x115;" horiz-adv-x="1215" 
d="M132 524q2 -136 63.5 -251.5t176.5 -186t258 -70.5q117 0 218.5 52t172.5 145l33 -31q-73 -95 -184 -151t-240 -56q-157 0 -282.5 76t-193 202.5t-67.5 276.5t67.5 276.5t190 202.5t272.5 76q220 0 365 -151.5t145 -370.5q0 -19 -4 -39h-991zM617 1044
q-195 0 -333.5 -141t-150.5 -338h948q-7 207 -138 343t-326 136zM607 1202q-128 0 -208.5 85.5t-86.5 215.5h45q6 -114 71.5 -187t178.5 -73t178.5 73t71.5 187h45q-6 -130 -86.5 -215.5t-208.5 -85.5z" />
    <glyph glyph-name="Edotaccent" unicode="&#x116;" horiz-adv-x="1122" 
d="M197 0v1434h770v-41h-725v-652h665v-41h-665v-659h743v-41h-788zM520 1704q0 25 16.5 41t41.5 16t41 -16t16 -41t-16 -41t-41 -16t-41.5 16t-16.5 41z" />
    <glyph glyph-name="edotaccent" unicode="&#x117;" horiz-adv-x="1215" 
d="M132 524q2 -136 63.5 -251.5t176.5 -186t258 -70.5q117 0 218.5 52t172.5 145l33 -31q-73 -95 -184 -151t-240 -56q-157 0 -282.5 76t-193 202.5t-67.5 276.5t67.5 276.5t190 202.5t272.5 76q220 0 365 -151.5t145 -370.5q0 -19 -4 -39h-991zM617 1044
q-195 0 -333.5 -141t-150.5 -338h948q-7 207 -138 343t-326 136zM550 1372q0 25 16 41.5t41 16.5t41.5 -16.5t16.5 -41.5t-16.5 -41t-41.5 -16t-41 16t-16 41z" />
    <glyph glyph-name="Eogonek" unicode="&#x118;" horiz-adv-x="1122" 
d="M197 0v1434h770v-41h-725v-652h665v-41h-665v-659h743v-41h-171q-57 -46 -85.5 -71t-62 -61.5t-47.5 -69.5t-14 -70q0 -66 43.5 -111t106.5 -45q70 0 112.5 41t42.5 115h46q0 -94 -55 -145.5t-146 -51.5q-82 0 -138.5 57t-56.5 140q0 42 15.5 79.5t48 72.5t61.5 59.5
t78 60.5h-566z" />
    <glyph glyph-name="eogonek" unicode="&#x119;" horiz-adv-x="1215" 
d="M132 524q2 -136 63.5 -251.5t176.5 -186t258 -70.5q117 0 218.5 52t172.5 145l33 -31q-68 -89 -171 -144t-223 -62q-93 -77 -136 -130.5t-43 -117.5q0 -66 43.5 -111t106.5 -45q70 0 112.5 41t42.5 115h47q0 -94 -55.5 -145.5t-146.5 -51.5q-82 0 -138.5 57t-56.5 140
q0 71 44 128t126 120q-151 5 -270.5 82t-184 201t-64.5 271q0 150 67.5 276.5t190 202.5t272.5 76q220 0 365 -151.5t145 -370.5q0 -19 -4 -39h-991zM617 1044q-195 0 -333.5 -141t-150.5 -338h948q-7 207 -138 343t-326 136z" />
    <glyph glyph-name="Ecaron" unicode="&#x11a;" horiz-adv-x="1122" 
d="M197 0v1434h770v-41h-725v-652h665v-41h-665v-659h743v-41h-788zM577 1591l277 305l28 -26l-287 -316h-37l-286 316l27 26z" />
    <glyph glyph-name="ecaron" unicode="&#x11b;" horiz-adv-x="1215" 
d="M132 524q2 -136 63.5 -251.5t176.5 -186t258 -70.5q117 0 218.5 52t172.5 145l33 -31q-73 -95 -184 -151t-240 -56q-157 0 -282.5 76t-193 202.5t-67.5 276.5t67.5 276.5t190 202.5t272.5 76q220 0 365 -151.5t145 -370.5q0 -19 -4 -39h-991zM617 1044
q-195 0 -333.5 -141t-150.5 -338h948q-7 207 -138 343t-326 136zM608 1239l277 305l28 -26l-287 -316h-37l-286 316l27 26z" />
    <glyph glyph-name="Gcircumflex" unicode="&#x11c;" horiz-adv-x="1624" 
d="M1535 693q-5 -200 -102 -365t-261 -259t-360 -94q-150 0 -284 57.5t-230 156t-152.5 236.5t-56.5 292q0 206 95.5 376t261.5 267.5t366 97.5q221 0 398.5 -118.5t262.5 -314.5h-52q-83 177 -246 284.5t-363 107.5q-140 0 -266 -55.5t-216 -149.5t-143 -223.5t-53 -271.5
t53 -271.5t143 -223.5t216 -150t266 -56q132 0 251.5 49.5t208.5 135t146 202.5t69 249h-630v41h678zM1055 1544l-278 305l-277 -305l-28 26l287 316h37l286 -316z" />
    <glyph glyph-name="gcircumflex" unicode="&#x11d;" horiz-adv-x="1282" 
d="M87 530q0 151 68 278.5t186 201.5t259 74q158 0 283.5 -92t184.5 -243v312h45v-1096q0 -194 -131 -317t-336 -123q-261 0 -442 205l30 34q75 -91 179.5 -144.5t232.5 -53.5q186 0 304 111t118 288v347q-59 -151 -184.5 -243t-283.5 -92q-141 0 -259 74t-186 201t-68 278z
M133 530q0 -141 61.5 -259t169 -186.5t237.5 -68.5q97 0 184 40.5t149 109.5t98 164t36 200t-36 200.5t-98 164.5t-149 110t-184 41q-130 0 -237.5 -69t-169 -187.5t-61.5 -259.5zM919 1212l-278 306l-277 -306l-28 26l287 316h36l287 -316z" />
    <glyph glyph-name="Gbreve" unicode="&#x11e;" horiz-adv-x="1624" 
d="M1535 693q-5 -200 -102 -365t-261 -259t-360 -94q-150 0 -284 57.5t-230 156t-152.5 236.5t-56.5 292q0 206 95.5 376t261.5 267.5t366 97.5q221 0 398.5 -118.5t262.5 -314.5h-52q-83 177 -246 284.5t-363 107.5q-140 0 -266 -55.5t-216 -149.5t-143 -223.5t-53 -271.5
t53 -271.5t143 -223.5t216 -150t266 -56q132 0 251.5 49.5t208.5 135t146 202.5t69 249h-630v41h678zM778 1534q-128 0 -208.5 85.5t-86.5 215.5h45q6 -114 71.5 -187t178.5 -73t178.5 73t71.5 187h45q-6 -130 -86.5 -215.5t-208.5 -85.5z" />
    <glyph glyph-name="gbreve" unicode="&#x11f;" horiz-adv-x="1282" 
d="M87 530q0 151 68 278.5t186 201.5t259 74q158 0 283.5 -92t184.5 -243v312h45v-1096q0 -194 -131 -317t-336 -123q-261 0 -442 205l30 34q75 -91 179.5 -144.5t232.5 -53.5q186 0 304 111t118 288v347q-59 -151 -184.5 -243t-283.5 -92q-141 0 -259 74t-186 201t-68 278z
M133 530q0 -141 61.5 -259t169 -186.5t237.5 -68.5q97 0 184 40.5t149 109.5t98 164t36 200t-36 200.5t-98 164.5t-149 110t-184 41q-130 0 -237.5 -69t-169 -187.5t-61.5 -259.5zM622 1202q-128 0 -208.5 85.5t-86.5 215.5h45q6 -114 71.5 -187t178.5 -73t178.5 73
t71.5 187h45q-6 -130 -86.5 -215.5t-208.5 -85.5z" />
    <glyph glyph-name="Gdotaccent" unicode="&#x120;" horiz-adv-x="1624" 
d="M1535 693q-5 -200 -102 -365t-261 -259t-360 -94q-150 0 -284 57.5t-230 156t-152.5 236.5t-56.5 292q0 206 95.5 376t261.5 267.5t366 97.5q221 0 398.5 -118.5t262.5 -314.5h-52q-83 177 -246 284.5t-363 107.5q-140 0 -266 -55.5t-216 -149.5t-143 -223.5t-53 -271.5
t53 -271.5t143 -223.5t216 -150t266 -56q132 0 251.5 49.5t208.5 135t146 202.5t69 249h-630v41h678zM719 1704q0 25 16 41t41 16t41.5 -16t16.5 -41t-16.5 -41t-41.5 -16t-41 16t-16 41z" />
    <glyph glyph-name="gdotaccent" unicode="&#x121;" horiz-adv-x="1282" 
d="M87 530q0 151 68 278.5t186 201.5t259 74q158 0 283.5 -92t184.5 -243v312h45v-1096q0 -194 -131 -317t-336 -123q-261 0 -442 205l30 34q75 -91 179.5 -144.5t232.5 -53.5q186 0 304 111t118 288v347q-59 -151 -184.5 -243t-283.5 -92q-141 0 -259 74t-186 201t-68 278z
M133 530q0 -141 61.5 -259t169 -186.5t237.5 -68.5q97 0 184 40.5t149 109.5t98 164t36 200t-36 200.5t-98 164.5t-149 110t-184 41q-130 0 -237.5 -69t-169 -187.5t-61.5 -259.5zM564 1372q0 25 16.5 41t41.5 16t41 -16t16 -41t-16 -41t-41 -16t-41.5 16t-16.5 41z" />
    <glyph glyph-name="Gcommaaccent" unicode="&#x122;" horiz-adv-x="1624" 
d="M1535 693q-5 -200 -102 -365t-261 -259t-360 -94q-150 0 -284 57.5t-230 156t-152.5 236.5t-56.5 292q0 206 95.5 376t261.5 267.5t366 97.5q221 0 398.5 -118.5t262.5 -314.5h-52q-83 177 -246 284.5t-363 107.5q-140 0 -266 -55.5t-216 -149.5t-143 -223.5t-53 -271.5
t53 -271.5t143 -223.5t216 -150t266 -56q132 0 251.5 49.5t208.5 135t146 202.5t69 249h-630v41h678zM584 -456l288 330l35 -28l-290 -329z" />
    <glyph glyph-name="gcommaaccent" unicode="&#x123;" horiz-adv-x="1282" 
d="M87 530q0 151 68 278.5t186 201.5t259 74q158 0 283.5 -92t184.5 -243v312h45v-1096q0 -194 -131 -317t-336 -123q-261 0 -442 205l30 34q75 -91 179.5 -144.5t232.5 -53.5q186 0 304 111t118 288v347q-59 -151 -184.5 -243t-283.5 -92q-141 0 -259 74t-186 201t-68 278z
M133 530q0 -141 61.5 -259t169 -186.5t237.5 -68.5q97 0 184 40.5t149 109.5t98 164t36 200t-36 200.5t-98 164.5t-149 110t-184 41q-130 0 -237.5 -69t-169 -187.5t-61.5 -259.5zM803 1525l-289 -330l-35 28l290 329z" />
    <glyph glyph-name="Hcircumflex" unicode="&#x124;" horiz-adv-x="1384" 
d="M970 1544l-278 305l-277 -305l-28 26l287 316h37l286 -316zM197 0v1434h45v-693h901v693h45v-1434h-45v700h-901v-700h-45z" />
    <glyph glyph-name="hcircumflex" unicode="&#x125;" horiz-adv-x="1199" 
d="M636 1085q188 0 301 -119.5t113 -306.5v-659h-45v655q0 167 -99.5 278t-269.5 111q-167 0 -294.5 -124t-127.5 -285v-635h-45v1495h45v-692q54 123 170 202.5t252 79.5zM469 1606l-277 305l-278 -305l-27 25l286 317h37l287 -317z" />
    <glyph glyph-name="Hbar" unicode="&#x126;" horiz-adv-x="1417" 
d="M213 0v1124h-143v41h143v269h45v-269h901v269h45v-269h144v-41h-144v-1124h-45v700h-901v-700h-45zM258 741h901v383h-901v-383z" />
    <glyph glyph-name="hbar" unicode="&#x127;" horiz-adv-x="1265" 
d="M281 1495v-208h426v-41h-426v-443q54 123 169.5 202.5t251.5 79.5q188 0 301 -119.5t113 -306.5v-659h-45v655q0 167 -99.5 278t-269.5 111q-109 0 -207 -57t-156 -151.5t-58 -200.5v-635h-45v1246h-185v41h185v208h45z" />
    <glyph glyph-name="Itilde" unicode="&#x128;" horiz-adv-x="565" 
d="M260 1434h45v-1434h-45v1434zM268 1676q-27 32 -44 50t-43.5 35t-50.5 17q-88 0 -122 -171l-45 9q43 203 167 203q47 0 86 -29.5t82 -80.5q27 -32 44.5 -50t43.5 -34.5t50 -16.5q88 0 122 171l45 -10q-43 -202 -167 -202q-47 0 -86.5 29t-81.5 80z" />
    <glyph glyph-name="itilde" unicode="&#x129;" horiz-adv-x="518" 
d="M237 0v1061h45v-1061h-45zM244 1344q-27 32 -44 50t-43.5 35t-50.5 17q-88 0 -122 -171l-45 9q43 203 167 203q47 0 86 -29.5t82 -80.5q27 -32 44.5 -50t43.5 -34.5t50 -16.5q88 0 122 171l45 -9q-43 -203 -167 -203q-47 0 -86.5 29t-81.5 80z" />
    <glyph glyph-name="Imacron" unicode="&#x12a;" horiz-adv-x="565" 
d="M260 1434h45v-1434h-45v1434zM16 1681v40h533v-40h-533z" />
    <glyph glyph-name="imacron" unicode="&#x12b;" horiz-adv-x="518" 
d="M237 0v1061h45v-1061h-45zM-7 1349v41h532v-41h-532z" />
    <glyph glyph-name="Ibreve" unicode="&#x12c;" horiz-adv-x="565" 
d="M260 1434h45v-1434h-45v1434zM283 1534q-128 0 -208.5 85.5t-86.5 215.5h45q6 -114 71.5 -187t178.5 -73t178 73t71 187h46q-6 -130 -86.5 -215.5t-208.5 -85.5z" />
    <glyph glyph-name="ibreve" unicode="&#x12d;" horiz-adv-x="518" 
d="M237 0v1061h45v-1061h-45zM259 1202q-128 0 -208.5 85.5t-86.5 215.5h45q6 -114 71.5 -187t178.5 -73t178.5 73t71.5 187h45q-6 -130 -86.5 -215.5t-208.5 -85.5z" />
    <glyph glyph-name="Iogonek" unicode="&#x12e;" horiz-adv-x="565" 
d="M260 0v1434h45v-1434q-57 -46 -85.5 -71t-62 -61.5t-47.5 -69.5t-14 -70q0 -66 43.5 -111t106.5 -45q70 0 112.5 41t42.5 115h46q0 -94 -55 -145.5t-146 -51.5q-82 0 -138.5 57t-56.5 140q0 34 12.5 66.5t29 56.5t49 54t55 47.5t63.5 47.5z" />
    <glyph glyph-name="iogonek" unicode="&#x12f;" horiz-adv-x="518" 
d="M237 0v1061h45v-1061q-57 -46 -85.5 -71t-62 -61.5t-47.5 -69.5t-14 -70q0 -66 43 -111t106 -45q70 0 113 41t43 115h46q0 -94 -55.5 -145.5t-146.5 -51.5q-82 0 -138 57t-56 140q0 34 12.5 66.5t29 56.5t49 54t55 47.5t63.5 47.5zM206 1380q0 23 15 38.5t38 15.5
t38 -15.5t15 -38.5t-15 -38t-38 -15t-38 15t-15 38z" />
    <glyph glyph-name="Idotaccent" unicode="&#x130;" horiz-adv-x="565" 
d="M260 1434h45v-1434h-45v1434zM225 1704q0 25 16.5 41t41.5 16t41 -16t16 -41t-16 -41t-41 -16t-41.5 16t-16.5 41z" />
    <glyph glyph-name="dotlessi" unicode="&#x131;" horiz-adv-x="518" 
d="M237 0v1061h45v-1061h-45z" />
    <glyph glyph-name="IJ" unicode="&#x132;" horiz-adv-x="1454" 
d="M260 1434h45v-1434h-45v1434zM1233 397v1037h45v-1037q0 -206 -95 -314t-265 -108q-149 0 -279 70l16 43q54 -32 126 -52t132 -20q151 0 235.5 98t84.5 283z" />
    <glyph glyph-name="ij" unicode="&#x133;" horiz-adv-x="1036" 
d="M237 0v1061h45v-1061h-45zM206 1380q0 23 15 38.5t38 15.5t38 -15.5t15 -38.5t-15 -38t-38 -15t-38 15t-15 38zM755 -229v1290h45v-1290q0 -115 -62.5 -180.5t-156.5 -65.5q-38 0 -74 4v41q40 -4 74 -4q77 0 125.5 53.5t48.5 151.5zM724 1380q0 23 15 38.5t38 15.5
t38 -15.5t15 -38.5t-15 -38t-38 -15t-38 15t-15 38z" />
    <glyph glyph-name="Jcircumflex" unicode="&#x134;" horiz-adv-x="888" 
d="M668 397v1037h45v-1037q0 -206 -95.5 -314t-265.5 -108q-148 0 -278 70l16 43q54 -32 126 -52t132 -20q151 0 235.5 98t84.5 283zM968 1544l-277 305l-278 -305l-27 25l286 317h37l287 -317z" />
    <glyph glyph-name="jcircumflex" unicode="&#x135;" horiz-adv-x="518" 
d="M237 -229v1290h45v-1290q0 -115 -63 -180.5t-157 -65.5q-37 0 -73 4v41q40 -4 73 -4q77 0 126 53.5t49 151.5zM537 1212l-278 306l-277 -306l-28 26l287 316h37l286 -316z" />
    <glyph glyph-name="Kcommaaccent" unicode="&#x136;" horiz-adv-x="1185" 
d="M1016 1434h47q0 -306 -113 -487t-317 -229l512 -718h-58l-504 708q-54 -8 -107 -8h-234v-700h-45v1434h45v-693h232q250 0 396 176.5t146 516.5zM396 -456l289 330l35 -28l-290 -329z" />
    <glyph glyph-name="kcommaaccent" unicode="&#x137;" horiz-adv-x="1020" 
d="M871 1061h45q0 -201 -95 -325t-265 -156l432 -580h-59l-426 572q-33 -3 -67 -3h-222v-569h-45v1495h45v-885h224q202 0 317.5 116.5t115.5 334.5zM297 -456l289 330l35 -28l-290 -329z" />
    <glyph glyph-name="kgreenlandic" unicode="&#x138;" horiz-adv-x="1020" 
d="M871 1061h45q0 -201 -95 -325t-265 -156l432 -580h-59l-426 572q-33 -3 -67 -3h-222v-569h-45v1061h45v-451h224q202 0 317.5 116.5t115.5 334.5z" />
    <glyph glyph-name="Lacute" unicode="&#x139;" horiz-adv-x="1054" 
d="M197 0v1434h45v-1393h743v-41h-788zM207 1569l289 329l35 -27l-290 -330z" />
    <glyph glyph-name="lacute" unicode="&#x13a;" horiz-adv-x="518" 
d="M237 0v1495h45v-1495h-45zM159 1631l289 329l35 -27l-290 -330z" />
    <glyph glyph-name="Lcommaaccent" unicode="&#x13b;" horiz-adv-x="1054" 
d="M197 0v1434h45v-1393h743v-41h-788zM366 -456l288 330l35 -28l-290 -329z" />
    <glyph glyph-name="lcommaaccent" unicode="&#x13c;" horiz-adv-x="518" 
d="M237 0v1495h45v-1495h-45zM32 -456l289 330l34 -28l-289 -329z" />
    <glyph glyph-name="Lcaron" unicode="&#x13d;" horiz-adv-x="1054" 
d="M197 0v1434h45v-1393h743v-41h-788zM658 1400q0 25 16 41.5t41 16.5q26 0 42 -18t16 -51q0 -67 -26 -127.5t-100 -137.5l-33 30q57 65 68 117.5t-16 94.5q-8 19 -8 34z" />
    <glyph glyph-name="lcaron" unicode="&#x13e;" horiz-adv-x="741" 
d="M237 0v1495h45v-1495h-45zM557 1461q0 25 16 42t40 17q26 0 42.5 -18.5t16.5 -51.5q0 -67 -26 -127t-100 -137l-33 29q57 64 67.5 117t-16.5 95q-7 16 -7 34z" />
    <glyph glyph-name="Ldot" unicode="&#x13f;" horiz-adv-x="1054" 
d="M197 0v1434h45v-1393h743v-41h-788zM659 770q0 25 16.5 41t41.5 16t41 -16t16 -41t-16 -41t-41 -16t-41.5 16t-16.5 41z" />
    <glyph glyph-name="ldot" unicode="&#x140;" horiz-adv-x="754" 
d="M237 0v1495h45v-1495h-45zM570 770q0 25 16.5 41t41.5 16t41 -16t16 -41t-16 -41t-41 -16t-41.5 16t-16.5 41z" />
    <glyph glyph-name="Lslash" unicode="&#x141;" horiz-adv-x="1091" 
d="M233 0v633l-153 -79l-21 36l174 89v755h46v-732l460 238l21 -36l-481 -248v-615h743v-41h-789z" />
    <glyph glyph-name="lslash" unicode="&#x142;" horiz-adv-x="598" 
d="M276 0v746l-227 -114v47l227 115v701h46v-679l227 115v-47l-227 -115v-769h-46z" />
    <glyph glyph-name="Nacute" unicode="&#x143;" horiz-adv-x="1404" 
d="M197 0v1434h41l925 -1352v1352h45v-1434h-41l-925 1352v-1352h-45zM618 1569l289 329l35 -27l-290 -330z" />
    <glyph glyph-name="nacute" unicode="&#x144;" horiz-adv-x="1199" 
d="M636 1085q188 0 301 -119.5t113 -306.5v-659h-45v655q0 167 -99.5 278t-269.5 111q-167 0 -294.5 -124t-127.5 -285v-635h-45v1061h45v-258q54 123 170 202.5t252 79.5zM524 1237l289 329l35 -27l-290 -330z" />
    <glyph glyph-name="Ncommaaccent" unicode="&#x145;" horiz-adv-x="1404" 
d="M197 0v1434h41l925 -1352v1352h45v-1434h-41l-925 1352v-1352h-45zM482 -456l289 330l35 -28l-290 -329z" />
    <glyph glyph-name="ncommaaccent" unicode="&#x146;" horiz-adv-x="1199" 
d="M636 1085q188 0 301 -119.5t113 -306.5v-659h-45v655q0 167 -99.5 278t-269.5 111q-167 0 -294.5 -124t-127.5 -285v-635h-45v1061h45v-258q54 123 170 202.5t252 79.5zM388 -456l289 330l35 -28l-290 -329z" />
    <glyph glyph-name="Ncaron" unicode="&#x147;" horiz-adv-x="1404" 
d="M702 1591l278 305l28 -25l-287 -317h-37l-287 317l28 25zM197 0v1434h41l925 -1352v1352h45v-1434h-41l-925 1352v-1352h-45z" />
    <glyph glyph-name="ncaron" unicode="&#x148;" horiz-adv-x="1199" 
d="M636 1085q188 0 301 -119.5t113 -306.5v-659h-45v655q0 167 -99.5 278t-269.5 111q-167 0 -294.5 -124t-127.5 -285v-635h-45v1061h45v-258q54 123 170 202.5t252 79.5zM609 1239l278 305l27 -25l-286 -317h-37l-287 317l28 25z" />
    <glyph glyph-name="napostrophe" unicode="&#x149;" horiz-adv-x="1383" 
d="M820 1085q188 0 301 -119.5t113 -306.5v-659h-45v655q0 167 -99.5 278t-269.5 111q-167 0 -294.5 -124t-127.5 -285v-635h-45v1061h45v-258q54 123 170 202.5t252 79.5zM109 1461q0 25 16 42t40 17q26 0 42 -18.5t16 -51.5q0 -67 -26 -127t-100 -137l-32 29
q57 64 67.5 117t-16.5 95q-7 16 -7 34z" />
    <glyph glyph-name="Eng" unicode="&#x14a;" horiz-adv-x="1404" 
d="M1208 1434v-1555q0 -167 -80.5 -260.5t-234.5 -93.5q-42 0 -96 8v41q36 -8 96 -8q137 0 203.5 82.5t66.5 232.5v126l-921 1345v-1352h-45v1434h41l925 -1352v1352h45z" />
    <glyph glyph-name="eng" unicode="&#x14b;" horiz-adv-x="1199" 
d="M636 1085q188 0 301 -119.5t113 -306.5v-780q0 -167 -81 -260.5t-235 -93.5q-42 0 -96 8v41q36 -8 96 -8q137 0 204 82.5t67 232.5v774q0 167 -99.5 278t-269.5 111q-167 0 -294.5 -124t-127.5 -285v-635h-45v1061h45v-258q54 123 170 202.5t252 79.5z" />
    <glyph glyph-name="Omacron" unicode="&#x14c;" horiz-adv-x="1624" 
d="M134 717q0 -142 53 -271.5t143 -223.5t216 -150t266 -56t266 56t216 150t143 223.5t53 271.5t-53 271.5t-143 223.5t-216 149.5t-266 55.5t-266 -55.5t-216 -149.5t-143 -223.5t-53 -271.5zM89 717q0 206 95.5 376t261.5 267.5t366 97.5t366 -97.5t261.5 -267.5
t95.5 -376q0 -154 -56.5 -292t-152.5 -236.5t-230 -156t-284 -57.5t-284 57.5t-230 156t-152.5 236.5t-56.5 292zM546 1680v41h532v-41h-532z" />
    <glyph glyph-name="omacron" unicode="&#x14d;" horiz-adv-x="1259" 
d="M364 1349v41h532v-41h-532zM630 16q139 0 254 71.5t179 189.5t64 253t-64 253t-179 189.5t-254 71.5q-104 0 -197.5 -42t-159 -112.5t-103.5 -164.5t-38 -195t38 -195t103.5 -164.5t159 -112.5t197.5 -42zM630 1085q153 0 278 -76.5t194.5 -203.5t69.5 -275t-69.5 -275
t-194.5 -203.5t-278 -76.5q-115 0 -216.5 45t-172.5 121t-112.5 177.5t-41.5 211.5t41.5 211.5t112.5 177.5t172.5 121t216.5 45z" />
    <glyph glyph-name="Obreve" unicode="&#x14e;" horiz-adv-x="1624" 
d="M812 1534q-128 0 -208.5 85.5t-86.5 215.5h45q6 -114 71.5 -187t178.5 -73t178.5 73t71.5 187h45q-6 -130 -86.5 -215.5t-208.5 -85.5zM134 717q0 -142 53 -271.5t143 -223.5t216 -150t266 -56t266 56t216 150t143 223.5t53 271.5t-53 271.5t-143 223.5t-216 149.5
t-266 55.5t-266 -55.5t-216 -149.5t-143 -223.5t-53 -271.5zM89 717q0 206 95.5 376t261.5 267.5t366 97.5t366 -97.5t261.5 -267.5t95.5 -376q0 -154 -56.5 -292t-152.5 -236.5t-230 -156t-284 -57.5t-284 57.5t-230 156t-152.5 236.5t-56.5 292z" />
    <glyph glyph-name="obreve" unicode="&#x14f;" horiz-adv-x="1259" 
d="M630 1202q-128 0 -208.5 85.5t-86.5 215.5h45q6 -114 71.5 -187t178.5 -73t178.5 73t71.5 187h45q-6 -130 -86.5 -215.5t-208.5 -85.5zM630 16q139 0 254 71.5t179 189.5t64 253t-64 253t-179 189.5t-254 71.5q-104 0 -197.5 -42t-159 -112.5t-103.5 -164.5t-38 -195
t38 -195t103.5 -164.5t159 -112.5t197.5 -42zM630 1085q153 0 278 -76.5t194.5 -203.5t69.5 -275t-69.5 -275t-194.5 -203.5t-278 -76.5q-115 0 -216.5 45t-172.5 121t-112.5 177.5t-41.5 211.5t41.5 211.5t112.5 177.5t172.5 121t216.5 45z" />
    <glyph glyph-name="Ohungarumlaut" unicode="&#x150;" horiz-adv-x="1624" 
d="M134 717q0 -142 53 -271.5t143 -223.5t216 -150t266 -56t266 56t216 150t143 223.5t53 271.5t-53 271.5t-143 223.5t-216 149.5t-266 55.5t-266 -55.5t-216 -149.5t-143 -223.5t-53 -271.5zM89 717q0 206 95.5 376t261.5 267.5t366 97.5t366 -97.5t261.5 -267.5
t95.5 -376q0 -154 -56.5 -292t-152.5 -236.5t-230 -156t-284 -57.5t-284 57.5t-230 156t-152.5 236.5t-56.5 292zM605 1569l289 329l35 -27l-290 -330zM884 1569l288 329l35 -27l-290 -330z" />
    <glyph glyph-name="ohungarumlaut" unicode="&#x151;" horiz-adv-x="1259" 
d="M630 16q139 0 254 71.5t179 189.5t64 253t-64 253t-179 189.5t-254 71.5q-104 0 -197.5 -42t-159 -112.5t-103.5 -164.5t-38 -195t38 -195t103.5 -164.5t159 -112.5t197.5 -42zM630 1085q153 0 278 -76.5t194.5 -203.5t69.5 -275t-69.5 -275t-194.5 -203.5t-278 -76.5
q-115 0 -216.5 45t-172.5 121t-112.5 177.5t-41.5 211.5t41.5 211.5t112.5 177.5t172.5 121t216.5 45zM432 1237l289 329l35 -27l-290 -330zM711 1237l288 329l35 -27l-290 -330z" />
    <glyph glyph-name="OE" unicode="&#x152;" horiz-adv-x="1809" 
d="M889 41h5v1352h-5q-208 0 -381.5 -89.5t-273.5 -244.5t-100 -342t100 -342t273.5 -244.5t381.5 -89.5zM1672 0h-783q-165 0 -313 56t-255 151t-169.5 228t-62.5 282t62.5 282t169.5 228t255 151t313 56h765v-41h-715v-652h655v-41h-655v-659h733v-41z" />
    <glyph glyph-name="oe" unicode="&#x153;" horiz-adv-x="2148" 
d="M87 530q0 152 67.5 279.5t185 201.5t257.5 74q171 0 305 -109t182 -281q47 172 179 281t309 109q212 0 350.5 -151t138.5 -371q0 -19 -4 -39h-950q2 -136 60.5 -251.5t168.5 -186t248 -70.5q109 0 204 51.5t167 145.5l33 -31q-73 -95 -178 -151t-226 -56
q-184 0 -318.5 109t-181.5 281q-48 -172 -182 -281t-305 -109q-140 0 -257.5 74t-185 201.5t-67.5 279.5zM132 530q0 -141 61.5 -259.5t168.5 -186.5t235 -68t235 68t168.5 186.5t61.5 259.5t-61.5 259.5t-168.5 186.5t-235 68t-235 -68t-168.5 -186.5t-61.5 -259.5z
M1572 1044q-124 0 -229 -66t-166.5 -175t-68.5 -238h907q-7 208 -131.5 343.5t-311.5 135.5z" />
    <glyph glyph-name="Racute" unicode="&#x154;" horiz-adv-x="1187" 
d="M242 602v-602h-45v1434h383q216 0 349.5 -114t133.5 -302q0 -173 -115 -285t-305 -129l438 -604h-53l-436 602h-350zM1018 1018q0 169 -120.5 272t-317.5 103h-338v-750h338q197 0 317.5 103t120.5 272zM481 1569l289 329l35 -27l-290 -330z" />
    <glyph glyph-name="racute" unicode="&#x155;" horiz-adv-x="758" 
d="M721 1078l-7 -41q-44 7 -78 7q-167 0 -294.5 -124t-127.5 -285v-635h-45v1061h45v-258q54 123 170 202.5t252 79.5q47 0 85 -7zM279 1237l289 329l35 -27l-290 -330z" />
    <glyph glyph-name="Rcommaaccent" unicode="&#x156;" horiz-adv-x="1187" 
d="M242 602v-602h-45v1434h383q216 0 349.5 -114t133.5 -302q0 -173 -115 -285t-305 -129l438 -604h-53l-436 602h-350zM1018 1018q0 169 -120.5 272t-317.5 103h-338v-750h338q197 0 317.5 103t120.5 272zM376 -456l289 330l34 -28l-289 -329z" />
    <glyph glyph-name="rcommaaccent" unicode="&#x157;" horiz-adv-x="758" 
d="M721 1078l-7 -41q-44 7 -78 7q-167 0 -294.5 -124t-127.5 -285v-635h-45v1061h45v-258q54 123 170 202.5t252 79.5q47 0 85 -7zM-36 -456l289 330l35 -28l-290 -329z" />
    <glyph glyph-name="Rcaron" unicode="&#x158;" horiz-adv-x="1187" 
d="M242 602v-602h-45v1434h383q216 0 349.5 -114t133.5 -302q0 -173 -115 -285t-305 -129l438 -604h-53l-436 602h-350zM1018 1018q0 169 -120.5 272t-317.5 103h-338v-750h338q197 0 317.5 103t120.5 272zM541 1591l277 305l28 -25l-287 -317h-37l-286 317l27 25z" />
    <glyph glyph-name="rcaron" unicode="&#x159;" horiz-adv-x="758" 
d="M721 1078l-7 -41q-44 7 -78 7q-167 0 -294.5 -124t-127.5 -285v-635h-45v1061h45v-258q54 123 170 202.5t252 79.5q47 0 85 -7zM374 1239l277 305l28 -25l-287 -317h-37l-286 317l27 25z" />
    <glyph glyph-name="Sacute" unicode="&#x15a;" horiz-adv-x="1167" 
d="M127 203l33 35q74 -97 189.5 -159.5t240.5 -62.5q185 0 306.5 94t121.5 238q0 139 -110.5 234t-313.5 137q-209 43 -324.5 141.5t-115.5 239.5q0 154 116 256t301 102q165 0 288.5 -93t165.5 -253h-45q-39 139 -147 222t-255 83q-170 0 -274.5 -89.5t-104.5 -223.5
q0 -129 110 -216.5t299 -127.5q224 -47 339.5 -150.5t115.5 -257.5q0 -161 -132.5 -269t-336.5 -108q-141 0 -265 64t-202 164zM483 1569l289 329l35 -27l-290 -330z" />
    <glyph glyph-name="sacute" unicode="&#x15b;" horiz-adv-x="925" 
d="M87 152l31 29q143 -165 354 -165q146 0 234 68.5t88 177.5q0 100 -90 171t-244 99q-165 30 -253.5 103t-88.5 174q0 115 97 195.5t245 80.5q78 0 143 -21t120.5 -76.5t79.5 -141.5h-45q-30 101 -111 149.5t-187 48.5q-131 0 -214 -69t-83 -166q0 -83 81.5 -146t229.5 -90
q171 -32 268 -111.5t97 -199.5q0 -126 -98.5 -206.5t-268.5 -80.5q-124 0 -215.5 44.5t-169.5 132.5zM341 1237l289 329l35 -27l-290 -330z" />
    <glyph glyph-name="Scircumflex" unicode="&#x15c;" horiz-adv-x="1167" 
d="M127 203l33 35q74 -97 189.5 -159.5t240.5 -62.5q185 0 306.5 94t121.5 238q0 139 -110.5 234t-313.5 137q-209 43 -324.5 141.5t-115.5 239.5q0 154 116 256t301 102q165 0 288.5 -93t165.5 -253h-45q-39 139 -147 222t-255 83q-170 0 -274.5 -89.5t-104.5 -223.5
q0 -129 110 -216.5t299 -127.5q224 -47 339.5 -150.5t115.5 -257.5q0 -161 -132.5 -269t-336.5 -108q-141 0 -265 64t-202 164zM855 1544l-277 305l-278 -305l-27 25l286 317h37l287 -317z" />
    <glyph glyph-name="scircumflex" unicode="&#x15d;" horiz-adv-x="925" 
d="M87 152l31 29q143 -165 354 -165q146 0 234 68.5t88 177.5q0 100 -90 171t-244 99q-165 30 -253.5 103t-88.5 174q0 115 97 195.5t245 80.5q78 0 143 -21t120.5 -76.5t79.5 -141.5h-45q-30 101 -111 149.5t-187 48.5q-131 0 -214 -69t-83 -166q0 -83 81.5 -146t229.5 -90
q171 -32 268 -111.5t97 -199.5q0 -126 -98.5 -206.5t-268.5 -80.5q-124 0 -215.5 44.5t-169.5 132.5zM725 1213l-277 305l-278 -305l-27 25l286 317h37l287 -317z" />
    <glyph glyph-name="Scedilla" unicode="&#x15e;" horiz-adv-x="1167" 
d="M561 -190q-31 0 -57 -6l-14 17l93 154q-137 3 -258.5 67t-197.5 161l33 35q74 -97 189.5 -159.5t240.5 -62.5q185 0 306.5 94t121.5 238q0 139 -110.5 234t-313.5 137q-209 43 -324.5 141.5t-115.5 239.5q0 154 116 256t301 102q229 0 414 -182l-29 -35
q-173 176 -378 176q-170 0 -274.5 -89.5t-104.5 -223.5q0 -129 110 -216.5t299 -127.5q224 -47 339.5 -150.5t115.5 -257.5t-121.5 -260t-312.5 -116l-76 -127q105 0 170 -57t65 -136t-66 -133.5t-161 -54.5q-96 0 -162 55l23 38q53 -53 139 -53q76 0 129 43t53 105t-53 108
t-129 46z" />
    <glyph glyph-name="scedilla" unicode="&#x15f;" horiz-adv-x="925" 
d="M490 -190q-17 0 -31 -6l-14 17v155q-219 10 -358 176l27 36q62 -80 154.5 -126t203.5 -46q146 0 234 68.5t88 177.5q0 100 -90 171t-244 99q-165 30 -253.5 103t-88.5 174q0 115 97 195.5t245 80.5q78 0 143 -21t120.5 -76.5t79.5 -141.5h-45q-30 101 -111 149.5
t-187 48.5q-131 0 -214 -69t-83 -166q0 -83 81.5 -146t229.5 -90q171 -32 268 -111.5t97 -199.5q0 -123 -93.5 -203t-255.5 -84v-127q91 0 159.5 -54t68.5 -138q0 -79 -66 -133.5t-162 -54.5q-90 0 -152.5 49t-82.5 135h45q12 -65 65 -104.5t125 -39.5q76 0 129.5 43.5
t53.5 104.5q0 62 -53.5 108t-129.5 46z" />
    <glyph glyph-name="Scaron" unicode="&#x160;" horiz-adv-x="1167" 
d="M127 203l33 35q74 -97 189.5 -159.5t240.5 -62.5q185 0 306.5 94t121.5 238q0 139 -110.5 234t-313.5 137q-209 43 -324.5 141.5t-115.5 239.5q0 154 116 256t301 102q165 0 288.5 -93t165.5 -253h-45q-39 139 -147 222t-255 83q-170 0 -274.5 -89.5t-104.5 -223.5
q0 -129 110 -216.5t299 -127.5q224 -47 339.5 -150.5t115.5 -257.5q0 -161 -132.5 -269t-336.5 -108q-141 0 -265 64t-202 164zM578 1591l277 305l28 -25l-287 -317h-37l-287 317l28 25z" />
    <glyph glyph-name="scaron" unicode="&#x161;" horiz-adv-x="925" 
d="M87 152l31 29q143 -165 354 -165q146 0 234 68.5t88 177.5q0 100 -90 171t-244 99q-165 30 -253.5 103t-88.5 174q0 115 97 195.5t245 80.5q78 0 143 -21t120.5 -76.5t79.5 -141.5h-45q-30 101 -111 149.5t-187 48.5q-131 0 -214 -69t-83 -166q0 -83 81.5 -146t229.5 -90
q171 -32 268 -111.5t97 -199.5q0 -126 -98.5 -206.5t-268.5 -80.5q-124 0 -215.5 44.5t-169.5 132.5zM456 1239l277 305l28 -25l-287 -317h-37l-286 317l27 25z" />
    <glyph glyph-name="Tcommaaccent" unicode="&#x162;" horiz-adv-x="1089" 
d="M567 -190q-17 0 -31 -6l-14 17v1572h-452v41h950v-41h-453v-1545q91 0 159.5 -54t68.5 -138q0 -79 -66 -133.5t-162 -54.5q-90 0 -152.5 49t-82.5 135h45q12 -65 65 -104.5t125 -39.5q76 0 129.5 43.5t53.5 104.5q0 62 -53.5 108t-129.5 46z" />
    <glyph glyph-name="tcommaaccent" unicode="&#x163;" horiz-adv-x="754" 
d="M431 -190q-18 0 -32 -6l-13 17v218q-97 79 -97 260v721h-258v41h258v303l45 4v-307h354v-41h-354v-721q0 -283 262 -283q58 0 104 9v-41q-70 -9 -104 -9q-97 0 -165 34v-161q90 0 158.5 -54t68.5 -138q0 -79 -66 -133.5t-161 -54.5q-90 0 -152.5 49t-82.5 135h45
q12 -65 65 -104.5t125 -39.5q76 0 129 43t53 105t-53 108t-129 46z" />
    <glyph glyph-name="Tcaron" unicode="&#x164;" horiz-adv-x="1089" 
d="M545 1591l277 305l28 -25l-287 -317h-37l-286 317l27 25zM522 0v1393h-452v41h950v-41h-453v-1393h-45z" />
    <glyph glyph-name="tcaron" unicode="&#x165;" horiz-adv-x="931" 
d="M334 1020v-721q0 -283 262 -283q58 0 104 9v-41q-70 -9 -104 -9q-152 0 -229.5 83t-77.5 241v721h-258v41h258v303l45 4v-307h354v-41h-354zM759 1461q0 25 16 42t40 17q26 0 42 -18.5t16 -51.5q0 -67 -25.5 -127t-99.5 -137l-33 29q57 64 67.5 117t-16.5 95q-7 16 -7 34
z" />
    <glyph glyph-name="Tbar" unicode="&#x166;" horiz-adv-x="1089" 
d="M522 0v696h-315v41h315v656h-452v41h950v-41h-453v-656h316v-41h-316v-696h-45z" />
    <glyph glyph-name="tbar" unicode="&#x167;" horiz-adv-x="754" 
d="M334 1020v-451h303v-41h-303v-229q0 -283 262 -283q58 0 104 9v-41q-70 -9 -104 -9q-152 0 -229.5 83t-77.5 241v229h-205v41h205v451h-238v41h238v303l45 4v-307h354v-41h-354z" />
    <glyph glyph-name="Utilde" unicode="&#x168;" horiz-adv-x="1331" 
d="M651 1676q-27 32 -44 50t-43.5 35t-50.5 17q-88 0 -122 -171l-45 9q43 203 167 203q47 0 86 -29.5t82 -80.5q27 -32 44.5 -50t43.5 -34.5t50 -16.5q88 0 122 171l45 -10q-43 -202 -167 -202q-47 0 -86.5 29t-81.5 80zM1155 1434v-955q0 -224 -135.5 -363t-353.5 -139
t-354 139t-136 363v955h45v-955q0 -203 124.5 -332t320.5 -129t320 129t124 332v955h45z" />
    <glyph glyph-name="utilde" unicode="&#x169;" horiz-adv-x="1199" 
d="M563 -25q-188 0 -300.5 119.5t-112.5 306.5v660h45v-655q0 -167 99 -278.5t269 -111.5q109 0 207 57t156.5 152t58.5 201v635h45v-1061h-45v258q-54 -124 -170 -203.5t-252 -79.5zM575 1345q-27 32 -44.5 50t-43.5 34.5t-50 16.5q-88 0 -122 -171l-45 9q43 203 167 203
q47 0 86 -29.5t82 -80.5q27 -32 44.5 -50t43.5 -34.5t50 -16.5q88 0 122 171l45 -9q-43 -203 -167 -203q-47 0 -86 29.5t-82 80.5z" />
    <glyph glyph-name="Umacron" unicode="&#x16a;" horiz-adv-x="1331" 
d="M399 1680v41h533v-41h-533zM1155 1434v-955q0 -224 -135.5 -363t-353.5 -139t-354 139t-136 363v955h45v-955q0 -203 124.5 -332t320.5 -129t320 129t124 332v955h45z" />
    <glyph glyph-name="umacron" unicode="&#x16b;" horiz-adv-x="1199" 
d="M563 -25q-188 0 -300.5 119.5t-112.5 306.5v660h45v-655q0 -167 99 -278.5t269 -111.5q109 0 207 57t156.5 152t58.5 201v635h45v-1061h-45v258q-54 -124 -170 -203.5t-252 -79.5zM323 1349v40h533v-40h-533z" />
    <glyph glyph-name="Ubreve" unicode="&#x16c;" horiz-adv-x="1331" 
d="M666 1534q-128 0 -208.5 85.5t-86.5 215.5h45q6 -114 71.5 -187t178.5 -73t178 73t71 187h46q-6 -130 -86.5 -215.5t-208.5 -85.5zM1155 1434v-955q0 -224 -135.5 -363t-353.5 -139t-354 139t-136 363v955h45v-955q0 -203 124.5 -332t320.5 -129t320 129t124 332v955h45z
" />
    <glyph glyph-name="ubreve" unicode="&#x16d;" horiz-adv-x="1199" 
d="M563 -25q-188 0 -300.5 119.5t-112.5 306.5v660h45v-655q0 -167 99 -278.5t269 -111.5q109 0 207 57t156.5 152t58.5 201v635h45v-1061h-45v258q-54 -124 -170 -203.5t-252 -79.5zM590 1202q-128 0 -208.5 85.5t-86.5 215.5h45q6 -114 71.5 -187t178.5 -73t178.5 73
t71.5 187h45q-6 -130 -86.5 -215.5t-208.5 -85.5z" />
    <glyph glyph-name="Uring" unicode="&#x16e;" horiz-adv-x="1331" 
d="M469 1726q0 81 57.5 137t139.5 56t139 -56t57 -137t-57 -136.5t-139 -55.5t-139.5 55.5t-57.5 136.5zM514 1726q0 -64 44.5 -107.5t107.5 -43.5t107 43.5t44 107.5t-44 108t-107 44t-107.5 -44t-44.5 -108zM1155 1434v-955q0 -224 -135.5 -363t-353.5 -139t-354 139
t-136 363v955h45v-955q0 -203 124.5 -332t320.5 -129t320 129t124 332v955h45z" />
    <glyph glyph-name="uring" unicode="&#x16f;" horiz-adv-x="1199" 
d="M563 -25q-188 0 -300.5 119.5t-112.5 306.5v660h45v-655q0 -167 99 -278.5t269 -111.5q109 0 207 57t156.5 152t58.5 201v635h45v-1061h-45v258q-54 -124 -170 -203.5t-252 -79.5zM393 1395q0 81 57.5 136.5t139.5 55.5t139 -55.5t57 -136.5t-57 -137t-139 -56t-139.5 56
t-57.5 137zM438 1395q0 -64 44.5 -108t107.5 -44t107 44t44 108t-44 107.5t-107 43.5t-107.5 -43.5t-44.5 -107.5z" />
    <glyph glyph-name="Uhungarumlaut" unicode="&#x170;" horiz-adv-x="1331" 
d="M1155 1434v-955q0 -224 -135.5 -363t-353.5 -139t-354 139t-136 363v955h45v-955q0 -203 124.5 -332t320.5 -129t320 129t124 332v955h45zM453 1569l289 329l35 -27l-290 -330zM732 1569l288 329l35 -27l-290 -330z" />
    <glyph glyph-name="uhungarumlaut" unicode="&#x171;" horiz-adv-x="1199" 
d="M563 -25q-188 0 -300.5 119.5t-112.5 306.5v660h45v-655q0 -167 99 -278.5t269 -111.5q109 0 207 57t156.5 152t58.5 201v635h45v-1061h-45v258q-54 -124 -170 -203.5t-252 -79.5zM375 1237l289 330l34 -28l-289 -330zM653 1237l289 330l35 -28l-290 -330z" />
    <glyph glyph-name="Uogonek" unicode="&#x172;" horiz-adv-x="1331" 
d="M1155 1434v-955q0 -215 -125.5 -352.5t-329.5 -148.5q-95 -78 -138.5 -131.5t-43.5 -118.5q0 -66 43.5 -111t106.5 -45q70 0 112.5 41t42.5 115h46q0 -94 -55 -145.5t-146 -51.5q-82 0 -138.5 57t-56.5 140q0 72 44.5 129.5t127.5 120.5q-210 7 -339.5 144.5
t-129.5 356.5v955h45v-955q0 -203 124.5 -332t320.5 -129t320 129t124 332v955h45z" />
    <glyph glyph-name="uogonek" unicode="&#x173;" horiz-adv-x="1199" 
d="M563 -25q-188 0 -300.5 119.5t-112.5 306.5v660h45v-655q0 -167 99 -278.5t269 -111.5q109 0 207 57t156.5 152t58.5 201v635h45v-1061q-57 -46 -85.5 -71t-62 -61.5t-47.5 -69.5t-14 -70q0 -66 43.5 -111t106.5 -45q70 0 112.5 41t42.5 115h46q0 -94 -55 -145.5
t-146 -51.5q-82 0 -138.5 57t-56.5 140q0 34 12.5 66.5t29 56.5t49 54t55 47.5t63.5 47.5v258q-54 -124 -170 -203.5t-252 -79.5z" />
    <glyph glyph-name="Wcircumflex" unicode="&#x174;" horiz-adv-x="1900" 
d="M979 1434l399 -1371l404 1371h49l-424 -1434h-57l-400 1370l-399 -1370h-57l-424 1434h49l403 -1371l400 1371h57zM1228 1544l-277 305l-278 -305l-27 25l286 317h37l287 -317z" />
    <glyph glyph-name="wcircumflex" unicode="&#x175;" horiz-adv-x="1548" 
d="M752 1061h45l315 -977l334 977h53l-364 -1061h-45l-316 977l-315 -977h-45l-365 1061h53l334 -977zM1051 1213l-277 305l-278 -305l-27 25l286 317h37l287 -317z" />
    <glyph glyph-name="Ycircumflex" unicode="&#x176;" horiz-adv-x="1298" 
d="M127 1434l522 -799l522 799h58l-557 -846v-588h-45v588l-557 846h57zM927 1544l-278 305l-277 -305l-28 26l287 316h37l286 -316z" />
    <glyph glyph-name="ycircumflex" unicode="&#x177;" horiz-adv-x="1056" 
d="M299 -475l211 493l-461 1043h53l434 -981l418 981h54l-656 -1536h-53zM806 1212l-278 306l-277 -306l-28 26l287 316h37l287 -316z" />
    <glyph glyph-name="Ydieresis" unicode="&#x178;" horiz-adv-x="1298" 
d="M127 1434l522 -799l522 799h58l-557 -846v-588h-45v588l-557 846h57zM424 1704q0 25 16.5 41t41.5 16t41 -16t16 -41t-16 -41t-41 -16t-41.5 16t-16.5 41zM760 1704q0 25 16.5 41t41.5 16t41 -16t16 -41t-16 -41t-41 -16t-41.5 16t-16.5 41z" />
    <glyph glyph-name="Zacute" unicode="&#x179;" horiz-adv-x="1192" 
d="M128 41l877 1352h-846v41h895v-41l-877 -1352h897v-41h-946v41zM498 1569l289 329l35 -27l-290 -330z" />
    <glyph glyph-name="zacute" unicode="&#x17a;" horiz-adv-x="1005" 
d="M109 0v41l706 979h-680v41h737v-41l-706 -979h727v-41h-784zM393 1237l289 330l35 -28l-290 -330z" />
    <glyph glyph-name="Zdotaccent" unicode="&#x17b;" horiz-adv-x="1192" 
d="M128 41l877 1352h-846v41h895v-41l-877 -1352h897v-41h-946v41zM545 1704q0 25 16.5 41t41.5 16t41 -16t16 -41t-16 -41t-41 -16t-41.5 16t-16.5 41z" />
    <glyph glyph-name="zdotaccent" unicode="&#x17c;" horiz-adv-x="1005" 
d="M109 0v41l706 979h-680v41h737v-41l-706 -979h727v-41h-784zM452 1372q0 25 16.5 41t41.5 16t41 -16t16 -41t-16 -41t-41 -16t-41.5 16t-16.5 41z" />
    <glyph glyph-name="Zcaron" unicode="&#x17d;" horiz-adv-x="1192" 
d="M128 41l877 1352h-846v41h895v-41l-877 -1352h897v-41h-946v41zM607 1591l278 305l27 -25l-286 -317h-37l-287 317l28 25z" />
    <glyph glyph-name="zcaron" unicode="&#x17e;" horiz-adv-x="1005" 
d="M109 0v41l706 979h-680v41h737v-41l-706 -979h727v-41h-784zM510 1239l277 305l28 -25l-287 -317h-36l-287 317l27 25z" />
    <glyph glyph-name="longs" unicode="&#x17f;" horiz-adv-x="741" 
d="M691 1487v-41q-36 8 -96 8q-137 0 -203.5 -82.5t-66.5 -232.5v-1139h-45v1020h-230v41h230v80q0 167 80.5 260.5t234.5 93.5q42 0 96 -8z" />
    <glyph glyph-name="uni0191" unicode="&#x191;" horiz-adv-x="1036" 
d="M197 -119v1553h749v-41h-704v-650h645v-41h-645v-823q0 -167 -81 -260.5t-235 -93.5q-42 0 -96 8v41q36 -8 96 -8q137 0 204 82.5t67 232.5z" />
    <glyph glyph-name="florin" unicode="&#x192;" horiz-adv-x="741" 
d="M280 -119v1139h-230v41h230v80q0 167 80.5 260.5t234.5 93.5q42 0 96 -8v-41q-36 8 -96 8q-137 0 -203.5 -82.5t-66.5 -232.5v-78h366v-41h-366v-1141q0 -167 -81 -260.5t-235 -93.5q-42 0 -96 8v41q36 -8 96 -8q137 0 204 82.5t67 232.5z" />
    <glyph glyph-name="Aringacute" unicode="&#x1fa;" horiz-adv-x="1351" 
d="M489 1542q0 71 54 118.5t133 47.5t132.5 -47.5t53.5 -118.5q0 -61 -39.5 -105.5t-102.5 -56.5l558 -1380h-53l-176 442h-746l-176 -442h-53l558 1380q-63 12 -103 57t-40 105zM676 1376l-357 -893h713zM535 1542q0 -53 40 -89t101 -36t101 36t40 89t-40 89t-101 36
t-101 -36t-40 -89zM677 1736l-33 26l217 248l33 -27z" />
    <glyph glyph-name="aringacute" unicode="&#x1fb;" horiz-adv-x="1282" 
d="M87 530q0 151 68 278.5t186 201.5t259 74q158 0 283.5 -92t184.5 -243v312h45v-1061h-45v312q-59 -151 -184.5 -243t-283.5 -92q-141 0 -259 74t-186 201t-68 278zM133 530q0 -141 61.5 -259t169 -186.5t237.5 -68.5q97 0 184 40.5t149 109.5t98 164t36 200t-36 200.5
t-98 164.5t-149 110t-184 41q-130 0 -237.5 -69t-169 -187.5t-61.5 -259.5zM447 1362q0 81 57.5 136.5t139.5 55.5t139.5 -55.5t57.5 -136.5t-57.5 -137t-139.5 -56t-139.5 56t-57.5 137zM493 1362q0 -64 44 -108t107 -44t107.5 44t44.5 108t-44.5 107.5t-107.5 43.5
t-107 -43.5t-44 -107.5zM589 1603l-33 26l217 248l33 -27z" />
    <glyph glyph-name="AEacute" unicode="&#x1fc;" horiz-adv-x="1880" 
d="M129 0h-55l863 1434h787v-41h-714v-652h655v-41h-655v-659h733v-41h-778v442h-571zM419 483h546v908zM893 1569l289 329l35 -27l-290 -330z" />
    <glyph glyph-name="aeacute" unicode="&#x1fd;" horiz-adv-x="2031" 
d="M1113 524q2 -136 63.5 -251.5t176.5 -186t258 -70.5q117 0 218.5 52t172.5 145l33 -31q-73 -95 -184 -151t-240 -56q-172 0 -304 90t-194 238v-303h-45v312q-59 -151 -184.5 -243t-283.5 -92q-141 0 -259 74t-186 201t-68 278t68 278.5t186 201.5t259 74q158 0 283.5 -92
t184.5 -243v312h45v-304q62 147 191 237.5t294 90.5q220 0 365 -151.5t145 -370.5q0 -19 -4 -39h-991zM133 530q0 -141 61.5 -259t169 -186.5t237.5 -68.5q97 0 184 40.5t149 109.5t98 164t36 200t-36 200.5t-98 164.5t-149 110t-184 41q-130 0 -237.5 -69t-169 -187.5
t-61.5 -259.5zM1598 1044q-195 0 -333.5 -141t-150.5 -338h948q-7 207 -138 343t-326 136zM921 1237l288 330l35 -28l-290 -330z" />
    <glyph glyph-name="Oslashacute" unicode="&#x1fe;" horiz-adv-x="1624" 
d="M89 717q0 206 95.5 376t261.5 267.5t366 97.5q242 0 431 -142l151 191l34 -26l-151 -192q121 -103 189.5 -251.5t68.5 -320.5q0 -154 -56.5 -292t-152.5 -236.5t-230 -156t-284 -57.5q-251 0 -448 155l-162 -206l-35 27l164 208q-114 102 -178 246.5t-64 311.5zM1490 717
q0 158 -64 297.5t-177 238.5l-858 -1088q184 -149 421 -149q140 0 266 56t216 150t143 223.5t53 271.5zM134 717q0 -153 59.5 -288.5t164.5 -234.5l857 1087q-181 136 -403 136q-140 0 -266 -55.5t-216 -149.5t-143 -223.5t-53 -271.5zM742 1569l289 329l35 -27l-290 -330z
" />
    <glyph glyph-name="oslashacute" unicode="&#x1ff;" horiz-adv-x="1259" 
d="M630 1085q189 0 333 -115l135 165l31 -27l-135 -165q84 -78 131 -185.5t47 -227.5q0 -148 -69.5 -275t-194.5 -203.5t-278 -76.5q-191 0 -334 116l-137 -167l-32 27l137 167q-84 78 -130.5 185t-46.5 227q0 110 41.5 211.5t112.5 177.5t172.5 121t216.5 45zM630 16
q139 0 254 71.5t179 189.5t64 253q0 108 -42.5 207t-118.5 171l-642 -783q133 -109 306 -109zM132 530q0 -108 42.5 -206.5t117.5 -170.5l643 783q-132 108 -305 108q-104 0 -197.5 -42t-159 -112.5t-103.5 -164.5t-38 -195zM543 1237l289 329l35 -27l-290 -330z" />
    <glyph glyph-name="Scommaaccent" unicode="&#x218;" horiz-adv-x="1167" 
d="M127 203l33 35q74 -97 189.5 -159.5t240.5 -62.5q185 0 306.5 94t121.5 238q0 139 -110.5 234t-313.5 137q-209 43 -324.5 141.5t-115.5 239.5q0 154 116 256t301 102q165 0 288.5 -93t165.5 -253h-45q-39 139 -147 222t-255 83q-170 0 -274.5 -89.5t-104.5 -223.5
q0 -129 110 -216.5t299 -127.5q224 -47 339.5 -150.5t115.5 -257.5q0 -161 -132.5 -269t-336.5 -108q-141 0 -265 64t-202 164zM400 -456l289 330l35 -28l-290 -329z" />
    <glyph glyph-name="scommaaccent" unicode="&#x219;" horiz-adv-x="925" 
d="M87 152l31 29q143 -165 354 -165q146 0 234 68.5t88 177.5q0 100 -90 171t-244 99q-165 30 -253.5 103t-88.5 174q0 115 97 195.5t245 80.5q78 0 143 -21t120.5 -76.5t79.5 -141.5h-45q-30 101 -111 149.5t-187 48.5q-131 0 -214 -69t-83 -166q0 -83 81.5 -146t229.5 -90
q171 -32 268 -111.5t97 -199.5q0 -126 -98.5 -206.5t-268.5 -80.5q-124 0 -215.5 44.5t-169.5 132.5zM264 -456l289 330l35 -28l-290 -329z" />
    <glyph glyph-name="uni021A" unicode="&#x21a;" horiz-adv-x="1089" 
d="M522 0v1393h-452v41h950v-41h-453v-1393h-45zM336 -456l289 330l34 -28l-289 -329z" />
    <glyph glyph-name="uni021B" unicode="&#x21b;" horiz-adv-x="754" 
d="M334 1020v-721q0 -283 262 -283q58 0 104 9v-41q-70 -9 -104 -9q-152 0 -229.5 83t-77.5 241v721h-258v41h258v303l45 4v-307h354v-41h-354zM194 -456l288 330l35 -28l-290 -329z" />
    <glyph glyph-name="dotlessj" unicode="&#x237;" horiz-adv-x="518" 
d="M237 -229v1290h45v-1290q0 -115 -63 -180.5t-157 -65.5q-37 0 -73 4v41q40 -4 73 -4q77 0 126 53.5t49 151.5z" />
    <glyph glyph-name="apostrophe" unicode="&#x2bc;" horiz-adv-x="825" 
d="M355 1400q0 25 16 41.5t41 16.5q26 0 42 -18t16 -51q0 -67 -26 -127.5t-100 -137.5l-33 30q57 64 67.5 117t-16.5 95q-7 16 -7 34z" />
    <glyph glyph-name="circumflex" unicode="&#x2c6;" horiz-adv-x="825" 
d="M690 1145l-277 305l-278 -305l-27 25l286 317h37l287 -317z" />
    <glyph glyph-name="caron" unicode="&#x2c7;" horiz-adv-x="825" 
d="M413 1192l277 305l28 -26l-287 -316h-37l-286 316l27 26z" />
    <glyph glyph-name="uni02C9" unicode="&#x2c9;" horiz-adv-x="825" 
d="M146 1302v40h533v-40h-533z" />
    <glyph glyph-name="breve" unicode="&#x2d8;" horiz-adv-x="825" 
d="M413 1163q-128 0 -208.5 85.5t-86.5 215.5h45q6 -114 71.5 -187t178.5 -73t178.5 73t71.5 187h45q-6 -130 -86.5 -215.5t-208.5 -85.5z" />
    <glyph glyph-name="dotaccent" unicode="&#x2d9;" horiz-adv-x="825" 
d="M355 1323q0 25 16.5 41t41.5 16t41 -16t16 -41t-16 -41t-41 -16t-41.5 16t-16.5 41z" />
    <glyph glyph-name="ring" unicode="&#x2da;" horiz-adv-x="825" 
d="M216 1317q0 81 57.5 136.5t139.5 55.5t139 -55.5t57 -136.5t-57 -137t-139 -56t-139.5 56t-57.5 137zM261 1317q0 -64 44.5 -108t107.5 -44t107 44t44 108t-44 107.5t-107 43.5t-107.5 -43.5t-44.5 -107.5z" />
    <glyph glyph-name="ogonek" unicode="&#x2db;" horiz-adv-x="825" 
d="M453 0h51q-57 -46 -85.5 -71t-62 -61.5t-47.5 -69.5t-14 -70q0 -66 43 -111t106 -45q70 0 113 41t43 115h46q0 -94 -55.5 -145.5t-146.5 -51.5q-82 0 -138 57t-56 140q0 42 15.5 79.5t48 72.5t61.5 59.5t78 60.5z" />
    <glyph glyph-name="tilde" unicode="&#x2dc;" horiz-adv-x="825" 
d="M397 1297q-27 32 -44 50t-43.5 35t-50.5 17q-88 0 -122 -171l-45 9q43 203 167 203q47 0 86 -29.5t82 -80.5q27 -32 44.5 -50t43.5 -34.5t50 -16.5q88 0 122 171l45 -9q-43 -203 -167 -203q-47 0 -86.5 29t-81.5 80z" />
    <glyph glyph-name="hungarumlaut" unicode="&#x2dd;" horiz-adv-x="825" 
d="M173 1180l289 329l35 -27l-290 -330zM452 1180l288 329l35 -27l-290 -330z" />
    <glyph glyph-name="gravecomb" unicode="&#x300;" horiz-adv-x="0" 
d="M-602 1509l289 -329l-34 -28l-290 330z" />
    <glyph glyph-name="acutecomb" unicode="&#x301;" horiz-adv-x="0" 
d="M-514 1180l289 329l35 -27l-290 -330z" />
    <glyph glyph-name="uni0302" unicode="&#x302;" horiz-adv-x="0" 
d="M-135 1145l-278 305l-277 -305l-28 25l287 317h37l286 -317z" />
    <glyph glyph-name="tildecomb" unicode="&#x303;" horiz-adv-x="0" 
d="M-428 1297q-27 32 -44 50t-43.5 35t-50.5 17q-88 0 -122 -171l-45 9q43 203 167 203q47 0 86 -29.5t82 -80.5q27 -32 44.5 -50t43.5 -34.5t50 -16.5q88 0 122 171l45 -9q-43 -203 -167 -203q-47 0 -86.5 29t-81.5 80z" />
    <glyph glyph-name="uni0304" unicode="&#x304;" horiz-adv-x="0" 
d="M-679 1304v41h533v-41h-533z" />
    <glyph glyph-name="uni0306" unicode="&#x306;" horiz-adv-x="0" 
d="M-413 1163q-128 0 -208.5 85.5t-86.5 215.5h45q6 -114 71.5 -187t178.5 -73t178.5 73t71.5 187h45q-6 -130 -86.5 -215.5t-208.5 -85.5z" />
    <glyph glyph-name="uni0307" unicode="&#x307;" horiz-adv-x="0" 
d="M-470 1323q0 25 16 41t41 16t41.5 -16t16.5 -41t-16.5 -41t-41.5 -16t-41 16t-16 41z" />
    <glyph glyph-name="uni0308" unicode="&#x308;" horiz-adv-x="0" 
d="M-638 1323q0 25 16 41t41 16t41.5 -16t16.5 -41t-16.5 -41t-41.5 -16t-41 16t-16 41zM-302 1323q0 25 16 41t41 16t41.5 -16t16.5 -41t-16.5 -41t-41.5 -16t-41 16t-16 41z" />
    <glyph glyph-name="uni030A" unicode="&#x30a;" horiz-adv-x="0" 
d="M-609 1317q0 81 57 136.5t139 55.5t139.5 -55.5t57.5 -136.5t-57.5 -137t-139.5 -56t-139 56t-57 137zM-564 1317q0 -64 44 -108t107 -44t107.5 44t44.5 108t-44.5 107.5t-107.5 43.5t-107 -43.5t-44 -107.5z" />
    <glyph glyph-name="uni030C" unicode="&#x30c;" horiz-adv-x="0" 
d="M-413 1192l278 305l27 -26l-286 -316h-37l-287 316l28 26z" />
    <glyph glyph-name="uni0327" unicode="&#x327;" horiz-adv-x="0" 
d="M-452 -190q-17 0 -31 -6l-14 17v179h45v-152q91 0 159.5 -54t68.5 -138q0 -79 -66 -133.5t-162 -54.5q-90 0 -152.5 49t-82.5 135h45q12 -65 65 -104.5t125 -39.5q76 0 129.5 43.5t53.5 104.5q0 62 -53.5 108t-129.5 46z" />
    <glyph glyph-name="tonos" unicode="&#x384;" horiz-adv-x="825" 
d="M319 1123l175 381l41 -21l-179 -381z" />
    <glyph glyph-name="dieresistonos" unicode="&#x385;" horiz-adv-x="825" 
d="M187 1167q0 25 16.5 41.5t41.5 16.5t41 -16.5t16 -41.5t-16 -41t-41 -16t-41.5 16t-16.5 41zM523 1167q0 25 16.5 41.5t41.5 16.5t41 -16.5t16 -41.5t-16 -41t-41 -16t-41.5 16t-16.5 41zM367 1360l232 266l33 -29l-236 -268z" />
    <glyph glyph-name="Alphatonos" unicode="&#x386;" horiz-adv-x="1361" 
d="M1235 0l-176 442h-746l-176 -442h-53l580 1434h45l579 -1434h-53zM686 1376l-356 -893h712zM91 1062l174 381l41 -22l-178 -381z" />
    <glyph glyph-name="anoteleia" unicode="&#x387;" horiz-adv-x="589" 
d="M238 571q0 25 16 41.5t41 16.5t41 -16.5t16 -41.5t-16 -41t-41 -16t-41 16t-16 41z" />
    <glyph glyph-name="Epsilontonos" unicode="&#x388;" horiz-adv-x="1440" 
d="M515 0v1434h770v-41h-725v-652h666v-41h-666v-659h744v-41h-789zM91 1062l174 381l41 -22l-178 -381z" />
    <glyph glyph-name="Etatonos" unicode="&#x389;" horiz-adv-x="1702" 
d="M515 0v1434h45v-693h901v693h45v-1434h-45v700h-901v-700h-45zM91 1062l174 381l41 -22l-178 -381z" />
    <glyph glyph-name="Iotatonos" unicode="&#x38a;" horiz-adv-x="820" 
d="M515 1434h45v-1434h-45v1434zM91 1062l174 381l41 -22l-178 -381z" />
    <glyph glyph-name="Omicrontonos" unicode="&#x38c;" horiz-adv-x="1840" 
d="M350 717q0 -142 53 -271.5t143 -223.5t216 -150t266 -56t266 56t216 150t143 223.5t53 271.5t-53 271.5t-143 223.5t-216 149.5t-266 55.5t-266 -55.5t-216 -149.5t-143 -223.5t-53 -271.5zM305 717q0 206 95.5 376t261.5 267.5t366 97.5t366 -97.5t261.5 -267.5
t95.5 -376q0 -154 -56.5 -292t-152.5 -236.5t-230 -156t-284 -57.5t-284 57.5t-230 156t-152.5 236.5t-56.5 292zM91 1062l174 381l41 -22l-178 -381z" />
    <glyph glyph-name="Upsilontonos" unicode="&#x38e;" horiz-adv-x="1677" 
d="M506 1434l522 -799l522 799h58l-557 -846v-588h-45v588l-557 846h57zM91 1062l174 381l41 -22l-178 -381z" />
    <glyph glyph-name="Omegatonos" unicode="&#x38f;" horiz-adv-x="1794" 
d="M1649 743q0 138 -50.5 263t-136.5 215t-205 143t-251 53t-251.5 -53t-205.5 -143t-136.5 -215t-50.5 -263q0 -101 25 -190t82.5 -179.5t162.5 -175t255 -157.5v-41h-553v41h471q-131 65 -227 146.5t-152 172t-82.5 185.5t-26.5 198q0 146 54 278.5t146 228t219.5 152
t269.5 56.5q189 0 347.5 -95.5t249.5 -259.5t91 -360q0 -103 -26.5 -198t-82.5 -185.5t-152 -172t-227 -146.5h471v-41h-553v41q150 73 255 157.5t162.5 175t82.5 179.5t25 190zM91 1062l174 381l41 -22l-178 -381z" />
    <glyph glyph-name="iotadieresistonos" unicode="&#x390;" horiz-adv-x="558" 
d="M237 205v856h45v-854q0 -166 153 -166h72v-39q-40 -2 -72 -2q-198 0 -198 205zM34 1305q0 25 16 41t41 16t41 -16t16 -41t-16 -41.5t-41 -16.5t-41 16.5t-16 41.5zM370 1305q0 25 16 41t41 16t41 -16t16 -41t-16 -41.5t-41 -16.5t-41 16.5t-16 41.5zM213 1497l232 266
l33 -28l-235 -269z" />
    <glyph glyph-name="Alpha" unicode="&#x391;" horiz-adv-x="1351" 
d="M1225 0l-176 442h-746l-176 -442h-53l579 1434h45l580 -1434h-53zM676 1376l-357 -893h713z" />
    <glyph glyph-name="Beta" unicode="&#x392;" horiz-adv-x="1230" 
d="M659 0h-462v1434h442q176 0 284.5 -102t108.5 -255q0 -128 -76.5 -219t-193.5 -113q149 -16 250.5 -112t101.5 -250q0 -167 -128 -275t-327 -108zM1069 383q0 150 -115.5 245t-300.5 95h-411v-682h411q186 0 301 95t115 247zM242 764h393q156 0 254 87.5t98 225.5
q0 139 -98 227.5t-254 88.5h-393v-629z" />
    <glyph glyph-name="Gamma" unicode="&#x393;" horiz-adv-x="1046" 
d="M197 0v1434h780v-41h-735v-1393h-45z" />
    <glyph glyph-name="uni0394" unicode="&#x394;" horiz-adv-x="1351" 
d="M698 1434l580 -1434h-1204l579 1434h45zM676 1376l-533 -1335h1065z" />
    <glyph glyph-name="Epsilon" unicode="&#x395;" horiz-adv-x="1122" 
d="M197 0v1434h770v-41h-725v-652h665v-41h-665v-659h743v-41h-788z" />
    <glyph glyph-name="Zeta" unicode="&#x396;" horiz-adv-x="1192" 
d="M128 41l877 1352h-846v41h895v-41l-877 -1352h897v-41h-946v41z" />
    <glyph glyph-name="Eta" unicode="&#x397;" horiz-adv-x="1384" 
d="M197 0v1434h45v-693h901v693h45v-1434h-45v700h-901v-700h-45z" />
    <glyph glyph-name="Theta" unicode="&#x398;" horiz-adv-x="1624" 
d="M517 696v41h590v-41h-590zM134 717q0 -142 53 -271.5t143 -223.5t216 -150t266 -56t266 56t216 150t143 223.5t53 271.5t-53 271.5t-143 223.5t-216 149.5t-266 55.5t-266 -55.5t-216 -149.5t-143 -223.5t-53 -271.5zM89 717q0 206 95.5 376t261.5 267.5t366 97.5
t366 -97.5t261.5 -267.5t95.5 -376q0 -154 -56.5 -292t-152.5 -236.5t-230 -156t-284 -57.5t-284 57.5t-230 156t-152.5 236.5t-56.5 292z" />
    <glyph glyph-name="Iota" unicode="&#x399;" horiz-adv-x="565" 
d="M260 1434h45v-1434h-45v1434z" />
    <glyph glyph-name="Kappa" unicode="&#x39a;" horiz-adv-x="1185" 
d="M1016 1434h47q0 -306 -113 -487t-317 -229l512 -718h-58l-504 708q-54 -8 -107 -8h-234v-700h-45v1434h45v-693h232q250 0 396 176.5t146 516.5z" />
    <glyph glyph-name="Lambda" unicode="&#x39b;" horiz-adv-x="1351" 
d="M1225 0l-549 1376l-549 -1376h-53l579 1434h45l580 -1434h-53z" />
    <glyph glyph-name="Mu" unicode="&#x39c;" horiz-adv-x="1695" 
d="M933 244h-27l-664 1093v-1337h-45v1434h43l680 -1125l679 1125h43v-1434h-45v1337z" />
    <glyph glyph-name="Nu" unicode="&#x39d;" horiz-adv-x="1404" 
d="M197 0v1434h41l925 -1352v1352h45v-1434h-41l-925 1352v-1352h-45z" />
    <glyph glyph-name="Xi" unicode="&#x39e;" horiz-adv-x="1185" 
d="M156 1393v41h874v-41h-874zM137 0v41h912v-41h-912zM961 696h-756v41h756v-41z" />
    <glyph glyph-name="Omicron" unicode="&#x39f;" horiz-adv-x="1624" 
d="M134 717q0 -142 53 -271.5t143 -223.5t216 -150t266 -56t266 56t216 150t143 223.5t53 271.5t-53 271.5t-143 223.5t-216 149.5t-266 55.5t-266 -55.5t-216 -149.5t-143 -223.5t-53 -271.5zM89 717q0 206 95.5 376t261.5 267.5t366 97.5t366 -97.5t261.5 -267.5
t95.5 -376q0 -154 -56.5 -292t-152.5 -236.5t-230 -156t-284 -57.5t-284 57.5t-230 156t-152.5 236.5t-56.5 292z" />
    <glyph glyph-name="Pi" unicode="&#x3a0;" horiz-adv-x="1361" 
d="M1165 1434v-1434h-45v1393h-878v-1393h-45v1434h968z" />
    <glyph glyph-name="Rho" unicode="&#x3a1;" horiz-adv-x="1148" 
d="M580 602h-338v-602h-45v1434h383q216 0 349.5 -114t133.5 -302t-133.5 -302t-349.5 -114zM1018 1018q0 169 -120.5 272t-317.5 103h-338v-750h338q197 0 317.5 103t120.5 272z" />
    <glyph glyph-name="Sigma" unicode="&#x3a3;" horiz-adv-x="1148" 
d="M129 41l539 678l-539 674v41h891v-41h-836l535 -664v-22l-535 -666h836v-41h-891v41z" />
    <glyph glyph-name="Tau" unicode="&#x3a4;" horiz-adv-x="1089" 
d="M522 0v1393h-452v41h950v-41h-453v-1393h-45z" />
    <glyph glyph-name="Upsilon" unicode="&#x3a5;" horiz-adv-x="1298" 
d="M127 1434l522 -799l522 799h58l-557 -846v-588h-45v588l-557 846h57z" />
    <glyph glyph-name="Phi" unicode="&#x3a6;" horiz-adv-x="1486" 
d="M721 238v954q-162 0 -298 -64t-214 -173.5t-78 -239.5t78 -239.5t214 -173.5t298 -64zM766 0h-45v197q-130 0 -247.5 41t-202.5 110t-135 165t-50 202t50 202t135 165t202.5 110t247.5 41v201h45v-201q130 0 247.5 -41t202.5 -110t135 -165t50 -202t-50 -202t-135 -165
t-202.5 -110t-247.5 -41v-197zM766 1192v-954q162 0 298 64t214 173.5t78 239.5t-78 239.5t-214 173.5t-298 64z" />
    <glyph glyph-name="Chi" unicode="&#x3a7;" horiz-adv-x="1251" 
d="M67 0l530 729l-512 705h57l484 -665l483 665h57l-512 -705l531 -729h-58l-501 690l-502 -690h-57z" />
    <glyph glyph-name="Psi" unicode="&#x3a8;" horiz-adv-x="1372" 
d="M709 1434v-1039q199 9 336 156.5t137 355.5v527h45v-527q0 -111 -40.5 -211.5t-109.5 -174t-165 -118.5t-203 -49v-354h-45v354q-107 4 -203.5 49t-165.5 118.5t-109.5 174t-40.5 211.5v527h45v-527q0 -208 137 -355.5t337 -156.5v1039h45z" />
    <glyph glyph-name="uni03A9" unicode="&#x3a9;" horiz-adv-x="1576" 
d="M1432 743q0 138 -50.5 263t-136.5 215t-205.5 143t-251.5 53t-251 -53t-205 -143t-136.5 -215t-50.5 -263q0 -101 25 -190t82.5 -179.5t162.5 -175t255 -157.5v-41h-553v41h471q-131 65 -227 146.5t-152 172t-82.5 185.5t-26.5 198q0 196 91 360t249.5 259.5t347.5 95.5
q142 0 269.5 -56.5t219.5 -152t146 -228t54 -278.5q0 -103 -26.5 -198t-82.5 -185.5t-152 -172t-227 -146.5h471v-41h-553v41q150 73 255 157.5t162.5 175t82.5 179.5t25 190z" />
    <glyph glyph-name="Iotadieresis" unicode="&#x3aa;" horiz-adv-x="565" 
d="M260 1434h45v-1434h-45v1434zM57 1704q0 25 16.5 41t41.5 16t41 -16t16 -41t-16 -41t-41 -16t-41.5 16t-16.5 41zM393 1704q0 25 16.5 41t41.5 16t41 -16t16 -41t-16 -41t-41 -16t-41.5 16t-16.5 41z" />
    <glyph glyph-name="Upsilondieresis" unicode="&#x3ab;" horiz-adv-x="1298" 
d="M127 1434l522 -799l522 799h58l-557 -846v-588h-45v588l-557 846h57zM424 1704q0 25 16 41t41 16t41.5 -16t16.5 -41t-16.5 -41t-41.5 -16t-41 16t-16 41zM760 1704q0 25 16 41t41 16t41 -16t16 -41t-16 -41t-41 -16t-41 16t-16 41z" />
    <glyph glyph-name="alphatonos" unicode="&#x3ac;" horiz-adv-x="1389" 
d="M87 530q0 151 68 278.5t186 201.5t259 74q158 0 283.5 -92t184.5 -243v312h45v-854q0 -166 154 -166h71v-39q-40 -2 -71 -2q-199 0 -199 205v107q-59 -151 -184.5 -243t-283.5 -92q-141 0 -259 74t-186 201t-68 278zM133 530q0 -141 61.5 -259t169 -186.5t237.5 -68.5
q97 0 184 40.5t149 109.5t98 164t36 200t-36 200.5t-98 164.5t-149 110t-184 41q-130 0 -237.5 -69t-169 -187.5t-61.5 -259.5zM525 1237l289 330l35 -28l-290 -330z" />
    <glyph glyph-name="epsilontonos" unicode="&#x3ad;" horiz-adv-x="956" 
d="M490 18q214 0 352 167l35 -28q-149 -182 -387 -182q-169 0 -286 89.5t-117 219.5q0 108 83 184.5t194 101.5q-109 30 -171.5 96.5t-62.5 150.5q0 114 102 191t252 77q145 0 249 -74t118 -202h-46q-13 107 -101.5 171t-219.5 64q-130 0 -219.5 -65.5t-89.5 -161.5
t89.5 -161.5t219.5 -65.5h158v-41h-152q-151 0 -254.5 -77t-103.5 -188t104 -188.5t254 -77.5zM361 1237l289 330l35 -28l-290 -330z" />
    <glyph glyph-name="etatonos" unicode="&#x3ae;" horiz-adv-x="1199" 
d="M636 1085q188 0 301 -119.5t113 -306.5v-1134h-45v1130q0 167 -99.5 278t-269.5 111q-167 0 -294.5 -124t-127.5 -285v-635h-45v1061h45v-258q54 123 170 202.5t252 79.5zM524 1237l289 330l35 -28l-290 -330z" />
    <glyph glyph-name="iotatonos" unicode="&#x3af;" horiz-adv-x="558" 
d="M237 205v856h45v-854q0 -166 153 -166h72v-39q-40 -2 -72 -2q-198 0 -198 205zM170 1237l289 330l35 -28l-290 -330z" />
    <glyph glyph-name="upsilondieresistonos" unicode="&#x3b0;" horiz-adv-x="1146" 
d="M573 -25q-178 0 -300.5 124.5t-122.5 306.5v655h45v-655q0 -164 109.5 -277t268.5 -113t269 113t110 277v655h45v-655q0 -181 -122.5 -306t-301.5 -125zM348 1305q0 25 16.5 41t41.5 16t41 -16t16 -41t-16 -41.5t-41 -16.5t-41.5 16.5t-16.5 41.5zM684 1305q0 25 16 41
t41 16t41.5 -16t16.5 -41t-16.5 -41.5t-41.5 -16.5t-41 16.5t-16 41.5zM527 1497l233 266l33 -28l-236 -269z" />
    <glyph glyph-name="alpha" unicode="&#x3b1;" horiz-adv-x="1389" 
d="M87 530q0 151 68 278.5t186 201.5t259 74q158 0 283.5 -92t184.5 -243v312h45v-854q0 -166 154 -166h71v-39q-40 -2 -71 -2q-199 0 -199 205v107q-59 -151 -184.5 -243t-283.5 -92q-141 0 -259 74t-186 201t-68 278zM133 530q0 -141 61.5 -259t169 -186.5t237.5 -68.5
q97 0 184 40.5t149 109.5t98 164t36 200t-36 200.5t-98 164.5t-149 110t-184 41q-130 0 -237.5 -69t-169 -187.5t-61.5 -259.5z" />
    <glyph glyph-name="beta" unicode="&#x3b2;" horiz-adv-x="1200" 
d="M357 50l19 40q109 -74 245 -74q179 0 303.5 115t124.5 283t-124.5 282.5t-303.5 114.5q-80 0 -136 -20l-22 28l272 574h-514v-1868h-45v1909h612v-41l-263 -553q43 12 96 12q202 0 337.5 -126.5t135.5 -311.5t-135.5 -312t-337.5 -127q-149 0 -264 75z" />
    <glyph glyph-name="gamma" unicode="&#x3b3;" horiz-adv-x="1060" 
d="M508 -475v491l-457 1045h53l426 -983l426 983h54l-457 -1045v-491h-45z" />
    <glyph glyph-name="delta" unicode="&#x3b4;" horiz-adv-x="1117" 
d="M79 455q0 200 139 339.5t340 139.5q90 0 173 -35l-519 494v41h702v-41h-639l607 -583q155 -150 155 -355q0 -132 -63.5 -242t-173.5 -174t-242 -64t-242 64t-173.5 174t-63.5 242zM124 455q0 -183 125.5 -311t308.5 -128t308.5 128t125.5 311t-125.5 310.5t-308.5 127.5
t-308.5 -127.5t-125.5 -310.5z" />
    <glyph glyph-name="epsilon" unicode="&#x3b5;" horiz-adv-x="956" 
d="M490 18q214 0 352 167l35 -28q-149 -182 -387 -182q-169 0 -286 89.5t-117 219.5q0 108 83 184.5t194 101.5q-109 30 -171.5 96.5t-62.5 150.5q0 114 102 191t252 77q145 0 249 -74t118 -202h-46q-13 107 -101.5 171t-219.5 64q-130 0 -219.5 -65.5t-89.5 -161.5
t89.5 -161.5t219.5 -65.5h158v-41h-152q-151 0 -254.5 -77t-103.5 -188t104 -188.5t254 -77.5z" />
    <glyph glyph-name="zeta" unicode="&#x3b6;" horiz-adv-x="927" 
d="M88 387q0 95 46.5 181.5t137.5 195.5l523 629h-613v41h668v-41l-543 -654q-85 -103 -129.5 -186t-44.5 -166q0 -200 245 -301l224 -94q111 -47 174.5 -102.5t63.5 -131.5q0 -110 -88 -233h-54q97 132 97 233q0 60 -56.5 106.5t-153.5 86.5l-228 96q-269 114 -269 340z
" />
    <glyph glyph-name="eta" unicode="&#x3b7;" horiz-adv-x="1199" 
d="M636 1085q188 0 301 -119.5t113 -306.5v-1134h-45v1130q0 167 -99.5 278t-269.5 111q-167 0 -294.5 -124t-127.5 -285v-635h-45v1061h45v-258q54 123 170 202.5t252 79.5z" />
    <glyph glyph-name="theta" unicode="&#x3b8;" horiz-adv-x="1284" 
d="M89 717q0 153 43.5 290t117.5 236t176.5 157t215.5 58t215.5 -58t176.5 -157t117.5 -236t43.5 -290q0 -204 -73.5 -374.5t-201 -269t-278.5 -98.5t-278.5 98.5t-201 269t-73.5 374.5zM642 16q102 0 195 53t160.5 144t108 217t43.5 266h-1015q3 -140 44 -266t108.5 -217
t160.5 -144t195 -53zM642 1417q-137 0 -252.5 -90.5t-183.5 -246.5t-72 -343h1015q-3 187 -71 343t-183.5 246.5t-252.5 90.5z" />
    <glyph glyph-name="iota" unicode="&#x3b9;" horiz-adv-x="558" 
d="M237 205v856h45v-854q0 -166 153 -166h72v-39q-40 -2 -72 -2q-198 0 -198 205z" />
    <glyph glyph-name="kappa" unicode="&#x3ba;" horiz-adv-x="1020" 
d="M871 1061h45q0 -201 -95 -325t-265 -156l432 -580h-59l-426 572q-33 -3 -67 -3h-222v-569h-45v1061h45v-451h224q202 0 317.5 116.5t115.5 334.5z" />
    <glyph glyph-name="lambda" unicode="&#x3bb;" horiz-adv-x="1056" 
d="M509 1031l-200 464h53l646 -1495h-54l-418 971l-434 -971h-53z" />
    <glyph glyph-name="uni03BC" unicode="&#x3bc;" horiz-adv-x="1218" 
d="M583 -25q-128 0 -223.5 58.5t-145.5 159.5v-668h-45v1536h45v-655q0 -167 99.5 -278.5t269.5 -111.5q109 0 207 57t156.5 152t58.5 201v635h45v-1061h-45v258q-54 -124 -170 -203.5t-252 -79.5z" />
    <glyph glyph-name="nu" unicode="&#x3bd;" horiz-adv-x="1036" 
d="M987 1061l-446 -1061h-45l-447 1061h53l416 -995l416 995h53z" />
    <glyph glyph-name="xi" unicode="&#x3be;" horiz-adv-x="937" 
d="M137 387q0 -114 69.5 -205.5t205.5 -138.5l201 -70q124 -42 187.5 -94t63.5 -125q0 -109 -108 -229h-56q119 123 119 229q0 60 -56 100.5t-165 78.5l-200 70q-153 53 -229.5 155.5t-76.5 228.5q0 138 89 245.5t232 150.5q-114 35 -185.5 123.5t-71.5 204.5
q0 146 109 246.5t267 100.5q124 0 222 -64t126 -173h-45q-25 89 -112 142.5t-191 53.5q-139 0 -235 -89t-96 -217t96 -217t235 -89h191v-41h-175q-172 0 -291.5 -109.5t-119.5 -267.5z" />
    <glyph glyph-name="omicron" unicode="&#x3bf;" horiz-adv-x="1259" 
d="M630 16q139 0 254 71.5t179 189.5t64 253t-64 253t-179 189.5t-254 71.5q-104 0 -197.5 -42t-159 -112.5t-103.5 -164.5t-38 -195t38 -195t103.5 -164.5t159 -112.5t197.5 -42zM630 1085q153 0 278 -76.5t194.5 -203.5t69.5 -275t-69.5 -275t-194.5 -203.5t-278 -76.5
q-115 0 -216.5 45t-172.5 121t-112.5 177.5t-41.5 211.5t41.5 211.5t112.5 177.5t172.5 121t216.5 45z" />
    <glyph glyph-name="pi" unicode="&#x3c0;" horiz-adv-x="1138" 
d="M303 1020v-1020h-45v1020h-207v41h1036v-41h-206v-1020h-45v1020h-533z" />
    <glyph glyph-name="rho" unicode="&#x3c1;" horiz-adv-x="1283" 
d="M195 530v-80q28 -196 165 -315t313 -119q200 0 339 149.5t139 364.5t-139 364.5t-339 149.5t-339 -149.5t-139 -364.5zM673 -25q-166 0 -292.5 93.5t-185.5 232.5v-776h-45v1005q0 152 69.5 279.5t189.5 201.5t264 74t264 -74t189.5 -201.5t69.5 -279.5t-69.5 -279.5
t-189.5 -201.5t-264 -74z" />
    <glyph glyph-name="sigma1" unicode="&#x3c2;" horiz-adv-x="1086" 
d="M708 -56l-241 90q-178 67 -279 194t-101 302q0 110 41.5 211.5t112.5 177.5t172.5 121t216.5 45q221 0 377 -153l-25 -39q-68 71 -158.5 111t-193.5 40q-104 0 -197.5 -42t-159 -112.5t-103.5 -164.5t-38 -195q0 -165 91.5 -280t258.5 -177l241 -89q116 -42 173 -96
t57 -129q0 -114 -108 -234h-55q118 122 118 234q0 62 -47.5 104t-152.5 81z" />
    <glyph glyph-name="sigma" unicode="&#x3c3;" horiz-adv-x="1285" 
d="M617 1061h617v-41h-422q151 -61 243.5 -197t92.5 -305q0 -112 -42 -212.5t-113 -173t-169 -115t-207 -42.5q-145 0 -267 72t-192.5 197t-70.5 274t70.5 274t192.5 197t267 72zM132 518q0 -210 141 -356t344 -146t344.5 146t141.5 356t-141.5 356t-344.5 146t-344 -146
t-141 -356z" />
    <glyph glyph-name="tau" unicode="&#x3c4;" horiz-adv-x="972" 
d="M453 205v815h-402v41h871v-41h-424v-813q0 -166 153 -166h72v-39q-40 -2 -72 -2q-198 0 -198 205z" />
    <glyph glyph-name="upsilon" unicode="&#x3c5;" horiz-adv-x="1146" 
d="M573 -25q-178 0 -300.5 124.5t-122.5 306.5v655h45v-655q0 -164 109.5 -277t268.5 -113t269 113t110 277v655h45v-655q0 -181 -122.5 -306t-301.5 -125z" />
    <glyph glyph-name="phi" unicode="&#x3c6;" horiz-adv-x="1378" 
d="M283 949l30 -30q-85 -72 -133 -173t-48 -216q0 -215 155.5 -364.5t379.5 -149.5v1069h45q160 0 293 -73.5t209.5 -201t76.5 -280.5t-76.5 -280.5t-209.5 -201t-293 -73.5v-450h-45v450q-160 0 -293 73.5t-210 201t-77 280.5q0 125 52 233.5t144 185.5zM1246 530
q0 215 -155 364.5t-379 149.5v-1028q224 0 379 149.5t155 364.5z" />
    <glyph glyph-name="chi" unicode="&#x3c7;" horiz-adv-x="1052" 
d="M958 -475l-432 739l-432 -739h-53l459 785l-439 751h54l411 -706l412 706h53l-438 -751l459 -785h-54z" />
    <glyph glyph-name="psi" unicode="&#x3c8;" horiz-adv-x="1380" 
d="M713 1061v-1045q199 9 336 156.5t137 355.5v533h45v-533q0 -148 -68.5 -273t-187.5 -199.5t-262 -79.5v-451h-45v451q-144 5 -262.5 79.5t-187 199t-68.5 273.5v533h45v-533q0 -208 136.5 -355.5t336.5 -156.5v1045h45z" />
    <glyph glyph-name="omega" unicode="&#x3c9;" horiz-adv-x="1587" 
d="M794 240q-47 -115 -133 -190t-191 -75q-106 0 -194 72t-138.5 197.5t-50.5 275.5q0 264 182 541h47q-184 -280 -184 -541q0 -212 98.5 -358t239.5 -146q114 0 207.5 109t93.5 242v471h45v-471q0 -133 93.5 -242t207.5 -109q141 0 239.5 146t98.5 358q0 261 -184 541h47
q182 -277 182 -541q0 -150 -50.5 -275.5t-138.5 -197.5t-194 -72q-105 0 -190.5 74.5t-132.5 190.5z" />
    <glyph glyph-name="iotadieresis" unicode="&#x3ca;" horiz-adv-x="558" 
d="M237 205v856h45v-854q0 -166 153 -166h72v-39q-40 -2 -72 -2q-198 0 -198 205zM34 1372q0 25 16 41.5t41 16.5t41 -16.5t16 -41.5t-16 -41t-41 -16t-41 16t-16 41zM370 1372q0 25 16 41.5t41 16.5t41 -16.5t16 -41.5t-16 -41t-41 -16t-41 16t-16 41z" />
    <glyph glyph-name="upsilondieresis" unicode="&#x3cb;" horiz-adv-x="1146" 
d="M348 1372q0 25 16.5 41.5t41.5 16.5t41 -16.5t16 -41.5t-16 -41t-41 -16t-41.5 16t-16.5 41zM684 1372q0 25 16 41.5t41 16.5t41.5 -16.5t16.5 -41.5t-16.5 -41t-41.5 -16t-41 16t-16 41zM573 -25q-178 0 -300.5 124.5t-122.5 306.5v655h45v-655q0 -164 109.5 -277
t268.5 -113t269 113t110 277v655h45v-655q0 -181 -122.5 -306t-301.5 -125z" />
    <glyph glyph-name="omicrontonos" unicode="&#x3cc;" horiz-adv-x="1259" 
d="M630 16q139 0 254 71.5t179 189.5t64 253t-64 253t-179 189.5t-254 71.5q-104 0 -197.5 -42t-159 -112.5t-103.5 -164.5t-38 -195t38 -195t103.5 -164.5t159 -112.5t197.5 -42zM630 1085q153 0 278 -76.5t194.5 -203.5t69.5 -275t-69.5 -275t-194.5 -203.5t-278 -76.5
q-115 0 -216.5 45t-172.5 121t-112.5 177.5t-41.5 211.5t41.5 211.5t112.5 177.5t172.5 121t216.5 45zM543 1237l289 329l35 -27l-290 -330z" />
    <glyph glyph-name="upsilontonos" unicode="&#x3cd;" horiz-adv-x="1146" 
d="M573 -25q-178 0 -300.5 124.5t-122.5 306.5v655h45v-655q0 -164 109.5 -277t268.5 -113t269 113t110 277v655h45v-655q0 -181 -122.5 -306t-301.5 -125zM470 1237l289 330l35 -28l-290 -330z" />
    <glyph glyph-name="omegatonos" unicode="&#x3ce;" horiz-adv-x="1587" 
d="M794 240q-47 -115 -133 -190t-191 -75q-106 0 -194 72t-138.5 197.5t-50.5 275.5q0 264 182 541h47q-184 -280 -184 -541q0 -212 98.5 -358t239.5 -146q114 0 207.5 109t93.5 242v471h45v-471q0 -133 93.5 -242t207.5 -109q141 0 239.5 146t98.5 358q0 261 -184 541h47
q182 -277 182 -541q0 -150 -50.5 -275.5t-138.5 -197.5t-194 -72q-105 0 -190.5 74.5t-132.5 190.5zM700 1237l289 330l35 -28l-290 -330z" />
    <glyph glyph-name="uni0400" unicode="&#x400;" horiz-adv-x="1122" 
d="M197 0v1434h770v-41h-725v-652h665v-41h-665v-659h743v-41h-788zM384 1898l289 -329l-34 -28l-290 330z" />
    <glyph glyph-name="afii10023" unicode="&#x401;" horiz-adv-x="1122" 
d="M197 0v1434h770v-41h-725v-652h665v-41h-665v-659h743v-41h-788zM346 1704q0 25 16.5 41t41.5 16t41 -16t16 -41t-16 -41t-41 -16t-41.5 16t-16.5 41zM682 1704q0 25 16.5 41t41.5 16t41 -16t16 -41t-16 -41t-41 -16t-41.5 16t-16.5 41z" />
    <glyph glyph-name="afii10051" unicode="&#x402;" horiz-adv-x="1427" 
d="M567 1393v-743q49 120 153.5 195.5t235.5 75.5q181 0 280 -117.5t99 -303.5v-113q0 -165 -114.5 -278t-284.5 -113q-51 0 -88 4v41q37 -4 88 -4q150 0 252 101t102 249v103q0 172 -84 281t-250 109q-108 0 -198.5 -57.5t-140.5 -151.5t-50 -201v-470h-45v1393h-452v41
h950v-41h-453z" />
    <glyph glyph-name="afii10052" unicode="&#x403;" horiz-adv-x="1046" 
d="M197 0v1434h780v-41h-735v-1393h-45zM444 1569l289 329l35 -27l-290 -330z" />
    <glyph glyph-name="afii10053" unicode="&#x404;" horiz-adv-x="1575" 
d="M1487 988h-49q-77 192 -246 310.5t-380 118.5q-138 0 -262.5 -53.5t-214 -145t-143.5 -217t-58 -264.5h836v-41h-836q4 -139 58 -264.5t143.5 -217t214 -145t262.5 -53.5q191 0 348.5 98t245.5 263l38 -27q-94 -172 -261.5 -273.5t-370.5 -101.5q-150 0 -284 57.5
t-230 156t-152.5 236.5t-56.5 292q0 206 95.5 376t261.5 267.5t366 97.5q231 0 413.5 -129t261.5 -341z" />
    <glyph glyph-name="afii10054" unicode="&#x405;" horiz-adv-x="1167" 
d="M127 203l33 35q74 -97 189.5 -159.5t240.5 -62.5q185 0 306.5 94t121.5 238q0 139 -110.5 234t-313.5 137q-209 43 -324.5 141.5t-115.5 239.5q0 154 116 256t301 102q165 0 288.5 -93t165.5 -253h-45q-39 139 -147 222t-255 83q-170 0 -274.5 -89.5t-104.5 -223.5
q0 -129 110 -216.5t299 -127.5q224 -47 339.5 -150.5t115.5 -257.5q0 -161 -132.5 -269t-336.5 -108q-141 0 -265 64t-202 164z" />
    <glyph glyph-name="afii10055" unicode="&#x406;" horiz-adv-x="565" 
d="M260 1434h45v-1434h-45v1434z" />
    <glyph glyph-name="afii10056" unicode="&#x407;" horiz-adv-x="565" 
d="M260 1434h45v-1434h-45v1434zM57 1704q0 25 16.5 41t41.5 16t41 -16t16 -41t-16 -41t-41 -16t-41.5 16t-16.5 41zM393 1704q0 25 16.5 41t41.5 16t41 -16t16 -41t-16 -41t-41 -16t-41.5 16t-16.5 41z" />
    <glyph glyph-name="afii10057" unicode="&#x408;" horiz-adv-x="888" 
d="M668 397v1037h45v-1037q0 -206 -95.5 -314t-265.5 -108q-148 0 -278 70l16 43q54 -32 126 -52t132 -20q151 0 235.5 98t84.5 283z" />
    <glyph glyph-name="afii10058" unicode="&#x409;" horiz-adv-x="2052" 
d="M1178 41h272q201 0 336 120t135 296t-134.5 295.5t-336.5 119.5h-272v-831zM1450 0h-317v1393h-771v-1151q0 -115 -62.5 -180.5t-156.5 -65.5q-37 0 -73 4v41q40 -4 73 -4q77 0 125.5 53.5t48.5 151.5v1192h861v-521h272q221 0 368.5 -131.5t147.5 -324.5t-147.5 -325
t-368.5 -132z" />
    <glyph glyph-name="afii10059" unicode="&#x40a;" horiz-adv-x="2062" 
d="M197 0v1434h45v-693h891v693h45v-521h282q221 0 368.5 -131.5t147.5 -324.5t-147.5 -325t-368.5 -132h-327v700h-891v-700h-45zM1178 41h282q201 0 336 120t135 296t-134.5 295.5t-336.5 119.5h-282v-831z" />
    <glyph glyph-name="afii10060" unicode="&#x40b;" horiz-adv-x="1484" 
d="M956 921q184 0 281.5 -117t97.5 -309v-495h-45v490q0 172 -84 281t-250 109q-108 0 -198 -57.5t-140 -151.5t-50 -201v-470h-45v1393h-453v41h950v-41h-452v-743q49 120 153 195.5t235 75.5z" />
    <glyph glyph-name="afii10061" unicode="&#x40c;" horiz-adv-x="1185" 
d="M1016 1434h47q0 -306 -113 -487t-317 -229l512 -718h-58l-504 708q-54 -8 -107 -8h-234v-700h-45v1434h45v-693h232q250 0 396 176.5t146 516.5zM452 1569l289 329l35 -27l-290 -330z" />
    <glyph glyph-name="uni040D" unicode="&#x40d;" horiz-adv-x="1404" 
d="M1208 1434v-1434h-45v1352l-925 -1352h-41v1434h45v-1352l925 1352h41zM474 1898l289 -329l-34 -28l-290 330z" />
    <glyph glyph-name="afii10062" unicode="&#x40e;" horiz-adv-x="1298" 
d="M504 175l124 234l-558 1025h55l530 -973l519 973h55l-683 -1279q-83 -155 -237 -155h-84v41h84q124 0 195 134zM649 1534q-128 0 -208.5 85.5t-86.5 215.5h45q6 -114 71.5 -187t178.5 -73t178.5 73t71.5 187h45q-6 -130 -86.5 -215.5t-208.5 -85.5z" />
    <glyph glyph-name="afii10145" unicode="&#x40f;" horiz-adv-x="1361" 
d="M1165 1434v-1434h-462v-287h-45v287h-461v1434h45v-1393h878v1393h45z" />
    <glyph glyph-name="afii10017" unicode="&#x410;" horiz-adv-x="1351" 
d="M1225 0l-176 442h-746l-176 -442h-53l579 1434h45l580 -1434h-53zM676 1376l-357 -893h713z" />
    <glyph glyph-name="afii10018" unicode="&#x411;" horiz-adv-x="1171" 
d="M197 0v1434h741v-41h-696v-480h293q221 0 368.5 -131.5t147.5 -324.5t-147.5 -325t-368.5 -132h-338zM242 41h293q201 0 336 120t135 296t-134.5 295.5t-336.5 119.5h-293v-831z" />
    <glyph glyph-name="afii10019" unicode="&#x412;" horiz-adv-x="1230" 
d="M659 0h-462v1434h442q176 0 284.5 -102t108.5 -255q0 -128 -76.5 -219t-193.5 -113q149 -16 250.5 -112t101.5 -250q0 -167 -128 -275t-327 -108zM1069 383q0 150 -115.5 245t-300.5 95h-411v-682h411q186 0 301 95t115 247zM242 764h393q156 0 254 87.5t98 225.5
q0 139 -98 227.5t-254 88.5h-393v-629z" />
    <glyph glyph-name="afii10020" unicode="&#x413;" horiz-adv-x="1046" 
d="M197 0v1434h780v-41h-735v-1393h-45z" />
    <glyph glyph-name="afii10021" unicode="&#x414;" horiz-adv-x="1306" 
d="M1232 41v-328h-45v287h-1067v-287h-45v328h118q189 460 189 1352v41h707v-1393h143zM245 41h798v1352h-616q0 -883 -182 -1352z" />
    <glyph glyph-name="afii10022" unicode="&#x415;" horiz-adv-x="1122" 
d="M197 0v1434h770v-41h-725v-652h665v-41h-665v-659h743v-41h-788z" />
    <glyph glyph-name="afii10024" unicode="&#x416;" horiz-adv-x="1851" 
d="M1681 1434h48q0 -306 -113.5 -486.5t-317.5 -229.5l512 -718h-57l-505 708q-54 -8 -106 -8h-194v-700h-45v700h-193q-52 0 -108 8l-504 -708h-57l511 718q-203 48 -316 229t-113 487h47q0 -340 146 -516.5t396 -176.5h191v693h45v-693h192q250 0 395.5 176.5t145.5 516.5
z" />
    <glyph glyph-name="afii10025" unicode="&#x417;" horiz-adv-x="1049" 
d="M911 389q0 157 -122.5 265t-299.5 108h-165v41h172q145 0 243.5 89t98.5 218t-98.5 218t-243.5 89q-114 0 -210 -60t-122 -173h-44q26 129 135 201.5t241 72.5q163 0 275 -101t112 -247q0 -113 -71 -202t-191 -125q146 -36 240.5 -142.5t94.5 -251.5
q0 -173 -135.5 -293.5t-331.5 -120.5q-129 0 -240 57.5t-174 163.5l34 30q57 -102 159 -156t221 -54q177 0 299.5 108t122.5 265z" />
    <glyph glyph-name="afii10026" unicode="&#x418;" horiz-adv-x="1404" 
d="M1208 1434v-1434h-45v1352l-925 -1352h-41v1434h45v-1352l925 1352h41z" />
    <glyph glyph-name="afii10027" unicode="&#x419;" horiz-adv-x="1404" 
d="M702 1534q-128 0 -208 85t-86 216h45q6 -114 71 -187t178 -73t178.5 73t71.5 187h45q-6 -130 -86.5 -215.5t-208.5 -85.5zM1208 1434v-1434h-45v1352l-925 -1352h-41v1434h45v-1352l925 1352h41z" />
    <glyph glyph-name="afii10028" unicode="&#x41a;" horiz-adv-x="1185" 
d="M1016 1434h47q0 -306 -113 -487t-317 -229l512 -718h-58l-504 708q-54 -8 -107 -8h-234v-700h-45v1434h45v-693h232q250 0 396 176.5t146 516.5z" />
    <glyph glyph-name="afii10029" unicode="&#x41b;" horiz-adv-x="1415" 
d="M1219 0h-45v1393h-812v-1151q0 -115 -62.5 -180.5t-156.5 -65.5q-37 0 -73 4v41q40 -4 73 -4q77 0 125.5 53.5t48.5 151.5v1192h902v-1434z" />
    <glyph glyph-name="afii10030" unicode="&#x41c;" horiz-adv-x="1695" 
d="M933 244h-27l-664 1093v-1337h-45v1434h43l680 -1125l679 1125h43v-1434h-45v1337z" />
    <glyph glyph-name="afii10031" unicode="&#x41d;" horiz-adv-x="1384" 
d="M197 0v1434h45v-693h901v693h45v-1434h-45v700h-901v-700h-45z" />
    <glyph glyph-name="afii10032" unicode="&#x41e;" horiz-adv-x="1624" 
d="M134 717q0 -142 53 -271.5t143 -223.5t216 -150t266 -56t266 56t216 150t143 223.5t53 271.5t-53 271.5t-143 223.5t-216 149.5t-266 55.5t-266 -55.5t-216 -149.5t-143 -223.5t-53 -271.5zM89 717q0 206 95.5 376t261.5 267.5t366 97.5t366 -97.5t261.5 -267.5
t95.5 -376q0 -154 -56.5 -292t-152.5 -236.5t-230 -156t-284 -57.5t-284 57.5t-230 156t-152.5 236.5t-56.5 292z" />
    <glyph glyph-name="afii10033" unicode="&#x41f;" horiz-adv-x="1361" 
d="M1165 1434v-1434h-45v1393h-878v-1393h-45v1434h968z" />
    <glyph glyph-name="afii10034" unicode="&#x420;" horiz-adv-x="1148" 
d="M580 602h-338v-602h-45v1434h383q216 0 349.5 -114t133.5 -302t-133.5 -302t-349.5 -114zM1018 1018q0 169 -120.5 272t-317.5 103h-338v-750h338q197 0 317.5 103t120.5 272z" />
    <glyph glyph-name="afii10035" unicode="&#x421;" horiz-adv-x="1575" 
d="M1487 988h-49q-77 192 -246 310.5t-380 118.5q-140 0 -266 -55.5t-216 -149.5t-143 -223.5t-53 -271.5t53 -271.5t143 -223.5t216 -150t266 -56q191 0 348.5 98t245.5 263l38 -27q-94 -172 -261.5 -273.5t-370.5 -101.5q-150 0 -284 57.5t-230 156t-152.5 236.5
t-56.5 292q0 206 95.5 376t261.5 267.5t366 97.5q231 0 413.5 -129t261.5 -341z" />
    <glyph glyph-name="afii10036" unicode="&#x422;" horiz-adv-x="1089" 
d="M522 0v1393h-452v41h950v-41h-453v-1393h-45z" />
    <glyph glyph-name="afii10037" unicode="&#x423;" horiz-adv-x="1298" 
d="M504 175l124 234l-558 1025h55l530 -973l519 973h55l-683 -1279q-83 -155 -237 -155h-84v41h84q124 0 195 134z" />
    <glyph glyph-name="afii10038" unicode="&#x424;" horiz-adv-x="1486" 
d="M721 238v954q-162 0 -298 -64t-214 -173.5t-78 -239.5t78 -239.5t214 -173.5t298 -64zM766 0h-45v197q-130 0 -247.5 41t-202.5 110t-135 165t-50 202t50 202t135 165t202.5 110t247.5 41v201h45v-201q130 0 247.5 -41t202.5 -110t135 -165t50 -202t-50 -202t-135 -165
t-202.5 -110t-247.5 -41v-197zM766 1192v-954q162 0 298 64t214 173.5t78 239.5t-78 239.5t-214 173.5t-298 64z" />
    <glyph glyph-name="afii10039" unicode="&#x425;" horiz-adv-x="1251" 
d="M67 0l530 729l-512 705h57l484 -665l483 665h57l-512 -705l531 -729h-58l-501 690l-502 -690h-57z" />
    <glyph glyph-name="afii10040" unicode="&#x426;" horiz-adv-x="1373" 
d="M1165 1434v-1393h133v-328h-45v287h-1056v1434h45v-1393h878v1393h45z" />
    <glyph glyph-name="afii10041" unicode="&#x427;" horiz-adv-x="1200" 
d="M553 512q-187 0 -295 118.5t-108 307.5v495h45v-491q0 -168 94.5 -278.5t263.5 -110.5q165 0 285 123.5t120 286.5v470h46v-1433h-46v788q-52 -122 -161.5 -199t-243.5 -77z" />
    <glyph glyph-name="afii10042" unicode="&#x428;" horiz-adv-x="1900" 
d="M1659 41v1393h45v-1434h-1507v1434h45v-1393h686v1393h45v-1393h686z" />
    <glyph glyph-name="afii10043" unicode="&#x429;" horiz-adv-x="1911" 
d="M197 0v1434h45v-1393h686v1393h45v-1393h686v1393h45v-1393h133v-328h-45v287h-1595z" />
    <glyph glyph-name="afii10044" unicode="&#x42a;" horiz-adv-x="1419" 
d="M479 1393h-409v41h454v-521h293q221 0 368.5 -131.5t147.5 -324.5t-147.5 -325t-368.5 -132h-338v1393zM524 41h293q201 0 336 120t135 296t-134.5 295.5t-336.5 119.5h-293v-831z" />
    <glyph glyph-name="afii10045" unicode="&#x42b;" horiz-adv-x="1554" 
d="M197 1434h45v-521h293q221 0 368.5 -131.5t147.5 -324.5t-147.5 -325t-368.5 -132h-338v1434zM242 41h293q201 0 336 120t135 296t-134.5 295.5t-336.5 119.5h-293v-831zM1313 1434h45v-1434h-45v1434z" />
    <glyph glyph-name="afii10046" unicode="&#x42c;" horiz-adv-x="1136" 
d="M197 1434h45v-521h293q221 0 368.5 -131.5t147.5 -324.5t-147.5 -325t-368.5 -132h-338v1434zM242 41h293q201 0 336 120t135 296t-134.5 295.5t-336.5 119.5h-293v-831z" />
    <glyph glyph-name="afii10047" unicode="&#x42d;" horiz-adv-x="1575" 
d="M138 988h-49q79 212 261.5 341t413.5 129q200 0 366 -97.5t261.5 -267.5t95.5 -376q0 -154 -56.5 -292t-152.5 -236.5t-230 -156t-284 -57.5q-203 0 -370.5 101.5t-261.5 273.5l38 27q88 -165 245.5 -263t348.5 -98q138 0 262.5 53.5t214 145t143.5 217t58 264.5h-836v41
h836q-4 139 -58 264.5t-143.5 217t-214 145t-262.5 53.5q-211 0 -380 -118.5t-246 -310.5z" />
    <glyph glyph-name="afii10048" unicode="&#x42e;" horiz-adv-x="2075" 
d="M242 696v-696h-45v1434h45v-697h299q4 151 61.5 284.5t153.5 229.5t228.5 151.5t279.5 55.5q200 0 366 -97.5t261.5 -267.5t95.5 -376q0 -154 -56.5 -292t-152.5 -236.5t-230 -156t-284 -57.5q-197 0 -361 94.5t-260.5 260t-101.5 366.5h-299zM586 717q0 -142 53 -271.5
t143 -223.5t216 -150t266 -56t266 56t216 150t143 223.5t53 271.5t-53 271.5t-143 223.5t-216 149.5t-266 55.5t-266 -55.5t-216 -149.5t-143 -223.5t-53 -271.5z" />
    <glyph glyph-name="afii10049" unicode="&#x42f;" horiz-adv-x="1187" 
d="M946 602h-351l-435 -602h-54l438 604q-190 17 -304.5 129t-114.5 285q0 188 133.5 302t349.5 114h383v-1434h-45v602zM170 1018q0 -169 120.5 -272t317.5 -103h338v750h-338q-197 0 -317.5 -103t-120.5 -272z" />
    <glyph glyph-name="afii10065" unicode="&#x430;" horiz-adv-x="1282" 
d="M87 530q0 151 68 278.5t186 201.5t259 74q158 0 283.5 -92t184.5 -243v312h45v-1061h-45v312q-59 -151 -184.5 -243t-283.5 -92q-141 0 -259 74t-186 201t-68 278zM133 530q0 -141 61.5 -259t169 -186.5t237.5 -68.5q97 0 184 40.5t149 109.5t98 164t36 200t-36 200.5
t-98 164.5t-149 110t-184 41q-130 0 -237.5 -69t-169 -187.5t-61.5 -259.5z" />
    <glyph glyph-name="afii10066" unicode="&#x431;" horiz-adv-x="1208" 
d="M109 539v90q0 222 38 374t128 259t236 162t365 71l5 -41q-170 -14 -291.5 -51t-205 -97.5t-133.5 -154.5t-72.5 -211t-24.5 -278q75 124 196.5 200t274.5 76q137 0 251 -63.5t179 -174t65 -243.5q0 -132 -66.5 -243t-183 -175t-256.5 -64q-225 0 -365 160.5t-140 403.5z
M154 594v-55q0 -148 56.5 -266.5t162 -187.5t241.5 -69q193 0 327 128.5t134 312.5q0 185 -131 312.5t-319 127.5q-149 0 -269 -81.5t-202 -221.5z" />
    <glyph glyph-name="afii10067" unicode="&#x432;" horiz-adv-x="1029" 
d="M562 0h-393v1061h367q139 0 235 -77t96 -188q0 -83 -55 -146.5t-142 -93.5q107 -24 176.5 -99t69.5 -171q0 -121 -102.5 -203.5t-251.5 -82.5zM214 571h322q121 0 203.5 65t82.5 160t-82.5 159.5t-203.5 64.5h-322v-449zM214 41h348q131 0 220 71t89 174t-89 173.5
t-220 70.5h-348v-489z" />
    <glyph glyph-name="afii10068" unicode="&#x433;" horiz-adv-x="818" 
d="M767 1020h-553v-1020h-45v1061h598v-41z" />
    <glyph glyph-name="afii10069" unicode="&#x434;" horiz-adv-x="1091" 
d="M1028 41v-258h-45v217h-874v-217h-46v258h111q168 357 168 1020h535v-1020h151zM223 41h608v979h-444q0 -277 -39.5 -536t-124.5 -443z" />
    <glyph glyph-name="afii10070" unicode="&#x435;" horiz-adv-x="1215" 
d="M132 524q2 -136 63.5 -251.5t176.5 -186t258 -70.5q117 0 218.5 52t172.5 145l33 -31q-73 -95 -184 -151t-240 -56q-157 0 -282.5 76t-193 202.5t-67.5 276.5t67.5 276.5t190 202.5t272.5 76q220 0 365 -151.5t145 -370.5q0 -19 -4 -39h-991zM617 1044
q-195 0 -333.5 -141t-150.5 -338h948q-7 207 -138 343t-326 136z" />
    <glyph glyph-name="afii10072" unicode="&#x436;" horiz-adv-x="1576" 
d="M104 1061h46q0 -218 115.5 -334.5t317.5 -116.5h183v451h45v-451h183q202 0 317.5 116.5t115.5 334.5h46q0 -201 -95 -325t-266 -156l432 -580h-59l-426 572q-33 -3 -67 -3h-181v-569h-45v569h-181q-34 0 -67 3l-426 -572h-59l431 580q-170 32 -265 156t-95 325z" />
    <glyph glyph-name="afii10073" unicode="&#x437;" horiz-adv-x="961" 
d="M460 18q150 0 254 77.5t104 188.5t-103.5 188t-254.5 77h-152v41h158q130 0 219.5 65.5t89.5 161.5t-89.5 161.5t-219.5 65.5q-131 0 -219.5 -64t-101.5 -171h-46q14 128 118 202t249 74q150 0 252 -77t102 -191q0 -84 -62 -150.5t-171 -96.5q111 -25 193.5 -101.5
t82.5 -184.5q0 -130 -117 -219.5t-286 -89.5q-237 0 -386 182l35 28q138 -167 351 -167z" />
    <glyph glyph-name="afii10074" unicode="&#x438;" horiz-adv-x="1218" 
d="M1050 1061v-1061h-45v989l-791 -989h-45v1061h45v-989l791 989h45z" />
    <glyph glyph-name="afii10075" unicode="&#x439;" horiz-adv-x="1218" 
d="M609 1202q-128 0 -208.5 85.5t-86.5 215.5h45q6 -114 71.5 -187t178.5 -73t178.5 73t71.5 187h45q-6 -130 -86.5 -215.5t-208.5 -85.5zM1050 1061v-1061h-45v989l-791 -989h-45v1061h45v-989l791 989h45z" />
    <glyph glyph-name="afii10076" unicode="&#x43a;" horiz-adv-x="1020" 
d="M871 1061h45q0 -201 -95 -325t-265 -156l432 -580h-59l-426 572q-33 -3 -67 -3h-222v-569h-45v1061h45v-451h224q202 0 317.5 116.5t115.5 334.5z" />
    <glyph glyph-name="afii10077" unicode="&#x43b;" horiz-adv-x="1242" 
d="M279 231v830h794v-1061h-45v1020h-704v-789q0 -111 -59.5 -173t-149.5 -62q-28 0 -64 4v41q38 -4 64 -4q73 0 118.5 50t45.5 144z" />
    <glyph glyph-name="afii10078" unicode="&#x43c;" horiz-adv-x="1343" 
d="M214 1061l457 -670l458 670h46v-1061h-46v981l-440 -645h-35l-440 645v-981h-45v1061h45z" />
    <glyph glyph-name="afii10079" unicode="&#x43d;" horiz-adv-x="1218" 
d="M1050 1061v-1061h-45v528h-791v-528h-45v1061h45v-492h791v492h45z" />
    <glyph glyph-name="afii10080" unicode="&#x43e;" horiz-adv-x="1259" 
d="M630 16q139 0 254 71.5t179 189.5t64 253t-64 253t-179 189.5t-254 71.5q-104 0 -197.5 -42t-159 -112.5t-103.5 -164.5t-38 -195t38 -195t103.5 -164.5t159 -112.5t197.5 -42zM630 1085q153 0 278 -76.5t194.5 -203.5t69.5 -275t-69.5 -275t-194.5 -203.5t-278 -76.5
q-115 0 -216.5 45t-172.5 121t-112.5 177.5t-41.5 211.5t41.5 211.5t112.5 177.5t172.5 121t216.5 45z" />
    <glyph glyph-name="afii10081" unicode="&#x43f;" horiz-adv-x="1218" 
d="M1050 1061v-1061h-45v1020h-791v-1020h-45v1061h881z" />
    <glyph glyph-name="afii10082" unicode="&#x440;" horiz-adv-x="1282" 
d="M1195 530q0 -151 -68 -278t-186 -201t-259 -74q-158 0 -284 92t-184 243v-787h-45v1536h45v-312q58 151 184 243t284 92q141 0 259 -74t186 -201.5t68 -278.5zM1149 530q0 141 -61.5 259.5t-169 187.5t-237.5 69q-97 0 -184 -41t-149 -110t-98 -164.5t-36 -200.5t36 -200
t98 -164t149 -109.5t184 -40.5q130 0 237.5 68.5t169 186.5t61.5 259z" />
    <glyph glyph-name="afii10083" unicode="&#x441;" horiz-adv-x="1104" 
d="M1062 275l36 -26q-71 -125 -194 -199.5t-274 -74.5q-115 0 -216.5 45t-172.5 121t-112.5 177.5t-41.5 211.5t41.5 211.5t112.5 177.5t172.5 121t216.5 45q154 0 279.5 -77t194.5 -206h-52q-66 110 -177.5 176t-244.5 66q-104 0 -197.5 -42t-159 -112.5t-103.5 -164.5
t-38 -195t38 -195t103.5 -164.5t159 -112.5t197.5 -42q139 0 253 70.5t179 188.5z" />
    <glyph glyph-name="afii10084" unicode="&#x442;" horiz-adv-x="942" 
d="M449 1020h-398v41h840v-41h-397v-1020h-45v1020z" />
    <glyph glyph-name="afii10085" unicode="&#x443;" horiz-adv-x="1056" 
d="M299 -475l211 493l-461 1043h53l434 -981l418 981h54l-656 -1536h-53z" />
    <glyph glyph-name="afii10086" unicode="&#x444;" horiz-adv-x="2181" 
d="M87 530q0 151 68 278.5t186 201.5t259 74q158 0 283.5 -92t184.5 -243v746h45v-746q58 151 184 243t284 92q141 0 259 -74t186 -201.5t68 -278.5t-68 -278t-186 -201t-259 -74q-158 0 -284 92t-184 243v-787h-45v787q-59 -151 -184.5 -243t-283.5 -92q-141 0 -259 74
t-186 201t-68 278zM2048 530q0 141 -61.5 259.5t-169 187.5t-237.5 69q-97 0 -184 -41t-149 -110t-98 -164.5t-36 -200.5t36 -200t98 -164t149 -109.5t184 -40.5q130 0 237.5 68.5t169 186.5t61.5 259zM133 530q0 -141 61.5 -259t169 -186.5t237.5 -68.5q97 0 184 40.5
t149 109.5t98 164t36 200t-36 200.5t-98 164.5t-149 110t-184 41q-130 0 -237.5 -69t-169 -187.5t-61.5 -259.5z" />
    <glyph glyph-name="afii10087" unicode="&#x445;" horiz-adv-x="1036" 
d="M49 0l440 547l-413 514h57l385 -478l385 478h58l-414 -514l440 -547h-57l-412 511l-412 -511h-57z" />
    <glyph glyph-name="afii10088" unicode="&#x446;" horiz-adv-x="1246" 
d="M1138 -287v287h-969v1061h45v-1020h791v1020h45v-1020h133v-328h-45z" />
    <glyph glyph-name="afii10089" unicode="&#x447;" horiz-adv-x="1089" 
d="M502 296q-185 0 -283 117t-98 309v339h45v-335q0 -82 20 -151.5t60 -123t105.5 -84t150.5 -30.5q108 0 195 57.5t133.5 150.5t46.5 201v315h45v-1061h-45v560q-47 -119 -146.5 -191.5t-228.5 -72.5z" />
    <glyph glyph-name="afii10090" unicode="&#x448;" horiz-adv-x="1574" 
d="M1406 1061v-1061h-1237v1061h45v-1020h551v1020h45v-1020h551v1020h45z" />
    <glyph glyph-name="afii10091" unicode="&#x449;" horiz-adv-x="1602" 
d="M169 0v1061h45v-1020h551v1020h45v-1020h551v1020h45v-1020h133v-328h-45v287h-1325z" />
    <glyph glyph-name="afii10092" unicode="&#x44a;" horiz-adv-x="1183" 
d="M748 0h-365v1020h-332v41h377v-373h320q155 0 261.5 -99.5t106.5 -244.5t-106.5 -244.5t-261.5 -99.5zM428 41h320q136 0 229.5 88t93.5 215t-93.5 215t-229.5 88h-320v-606z" />
    <glyph glyph-name="afii10093" unicode="&#x44b;" horiz-adv-x="1345" 
d="M534 0h-365v1061h45v-373h320q155 0 261.5 -99.5t106.5 -244.5t-106.5 -244.5t-261.5 -99.5zM214 41h320q136 0 229.5 88t93.5 215t-93.5 215t-229.5 88h-320v-606zM1132 0v1061h45v-1061h-45z" />
    <glyph glyph-name="afii10094" unicode="&#x44c;" horiz-adv-x="969" 
d="M534 0h-365v1061h45v-373h320q155 0 261.5 -99.5t106.5 -244.5t-106.5 -244.5t-261.5 -99.5zM214 41h320q136 0 229.5 88t93.5 215t-93.5 215t-229.5 88h-320v-606z" />
    <glyph glyph-name="afii10095" unicode="&#x44d;" horiz-adv-x="1190" 
d="M93 249l36 26q65 -118 179 -188.5t253 -70.5q135 0 248.5 68.5t178.5 181.5t70 244h-630v41h630q-5 131 -70 244t-178.5 181t-248.5 68q-133 0 -244.5 -66t-177.5 -176h-52q69 129 194.5 206t279.5 77q115 0 216.5 -45t172.5 -121t112.5 -177.5t41.5 -211.5t-41.5 -211.5
t-112.5 -177.5t-172.5 -121t-216.5 -45q-151 0 -274 74.5t-194 199.5z" />
    <glyph glyph-name="afii10096" unicode="&#x44e;" horiz-adv-x="1603" 
d="M974 1085q115 0 216.5 -45t172.5 -121t112.5 -177.5t41.5 -211.5t-41.5 -211.5t-112.5 -177.5t-172.5 -121t-216.5 -45q-149 0 -273 73.5t-194.5 195.5t-75.5 266h-217v-510h-45v1061h45v-510h217q5 143 75.5 265t194.5 195.5t273 73.5zM974 16q139 0 254 71.5t179 189.5
t64 253t-64 253t-179 189.5t-254 71.5q-104 0 -197.5 -42t-159 -112.5t-103.5 -164.5t-38 -195t38 -195t103.5 -164.5t159 -112.5t197.5 -42z" />
    <glyph glyph-name="afii10097" unicode="&#x44f;" horiz-adv-x="1092" 
d="M879 406h-385q-20 0 -30 1l-323 -407h-55l328 413q-132 24 -216.5 112t-84.5 208q0 138 110.5 233t270.5 95h430v-1061h-45v406zM494 446h385v574h-385q-141 0 -238.5 -83t-97.5 -204t97.5 -204t238.5 -83z" />
    <glyph glyph-name="uni0450" unicode="&#x450;" horiz-adv-x="1215" 
d="M132 524q2 -136 63.5 -251.5t176.5 -186t258 -70.5q117 0 218.5 52t172.5 145l33 -31q-73 -95 -184 -151t-240 -56q-157 0 -282.5 76t-193 202.5t-67.5 276.5t67.5 276.5t190 202.5t272.5 76q220 0 365 -151.5t145 -370.5q0 -19 -4 -39h-991zM617 1044
q-195 0 -333.5 -141t-150.5 -338h948q-7 207 -138 343t-326 136zM394 1566l289 -329l-34 -28l-290 330z" />
    <glyph glyph-name="afii10071" unicode="&#x451;" horiz-adv-x="1215" 
d="M132 524q2 -136 63.5 -251.5t176.5 -186t258 -70.5q117 0 218.5 52t172.5 145l33 -31q-73 -95 -184 -151t-240 -56q-157 0 -282.5 76t-193 202.5t-67.5 276.5t67.5 276.5t190 202.5t272.5 76q220 0 365 -151.5t145 -370.5q0 -19 -4 -39h-991zM617 1044
q-195 0 -333.5 -141t-150.5 -338h948q-7 207 -138 343t-326 136zM382 1372q0 25 16 41.5t41 16.5t41.5 -16.5t16.5 -41.5t-16.5 -41t-41.5 -16t-41 16t-16 41zM718 1372q0 25 16 41.5t41 16.5t41.5 -16.5t16.5 -41.5t-16.5 -41t-41.5 -16t-41 16t-16 41z" />
    <glyph glyph-name="afii10099" unicode="&#x452;" horiz-adv-x="1265" 
d="M702 1085q188 0 301 -119.5t113 -306.5v-780q0 -167 -80.5 -260.5t-234.5 -93.5q-42 0 -96 8v41q36 -8 96 -8q137 0 203.5 82.5t66.5 232.5v774q0 167 -99.5 278t-269.5 111q-109 0 -207 -57t-156 -151.5t-58 -200.5v-635h-45v1246h-185v41h185v208h45v-208h426v-41h-426
v-443q54 123 169.5 202.5t251.5 79.5z" />
    <glyph glyph-name="afii10100" unicode="&#x453;" horiz-adv-x="818" 
d="M767 1020h-553v-1020h-45v1061h598v-41zM318 1237l289 330l35 -28l-290 -330z" />
    <glyph glyph-name="afii10101" unicode="&#x454;" horiz-adv-x="1190" 
d="M1062 275l36 -26q-71 -125 -194 -199.5t-274 -74.5q-115 0 -216.5 45t-172.5 121t-112.5 177.5t-41.5 211.5t41.5 211.5t112.5 177.5t172.5 121t216.5 45q154 0 279.5 -77t194.5 -206h-52q-66 110 -177.5 176t-244.5 66q-135 0 -248.5 -68t-178.5 -181t-70 -244h630v-41
h-630q5 -131 70 -244t178.5 -181.5t248.5 -68.5q139 0 253 70.5t179 188.5z" />
    <glyph glyph-name="afii10102" unicode="&#x455;" horiz-adv-x="925" 
d="M87 152l31 29q143 -165 354 -165q146 0 234 68.5t88 177.5q0 100 -90 171t-244 99q-165 30 -253.5 103t-88.5 174q0 115 97 195.5t245 80.5q78 0 143 -21t120.5 -76.5t79.5 -141.5h-45q-30 101 -111 149.5t-187 48.5q-131 0 -214 -69t-83 -166q0 -83 81.5 -146t229.5 -90
q171 -32 268 -111.5t97 -199.5q0 -126 -98.5 -206.5t-268.5 -80.5q-124 0 -215.5 44.5t-169.5 132.5z" />
    <glyph glyph-name="afii10103" unicode="&#x456;" horiz-adv-x="518" 
d="M237 0v1061h45v-1061h-45zM206 1380q0 23 15 38.5t38 15.5t38 -15.5t15 -38.5t-15 -38t-38 -15t-38 15t-15 38z" />
    <glyph glyph-name="afii10104" unicode="&#x457;" horiz-adv-x="518" 
d="M237 0v1061h45v-1061h-45zM33 1372q0 25 16.5 41t41.5 16t41 -16t16 -41t-16 -41t-41 -16t-41.5 16t-16.5 41zM369 1372q0 25 16.5 41t41.5 16t41 -16t16 -41t-16 -41t-41 -16t-41.5 16t-16.5 41z" />
    <glyph glyph-name="afii10105" unicode="&#x458;" horiz-adv-x="518" 
d="M237 -229v1290h45v-1290q0 -115 -63 -180.5t-157 -65.5q-37 0 -73 4v41q40 -4 73 -4q77 0 126 53.5t49 151.5zM206 1380q0 23 15 38.5t38 15.5t38 -15.5t15 -38.5t-15 -38t-38 -15t-38 15t-15 38z" />
    <glyph glyph-name="afii10106" unicode="&#x459;" horiz-adv-x="1767" 
d="M279 231v830h753v-373h299q155 0 262 -99.5t107 -244.5t-107 -244.5t-262 -99.5h-344v1020h-663v-789q0 -111 -59.5 -173t-149.5 -62q-28 0 -64 4v41q38 -4 64 -4q73 0 118.5 50t45.5 144zM1032 41h299q136 0 230 88t94 215t-94 215t-230 88h-299v-606z" />
    <glyph glyph-name="afii10107" unicode="&#x45a;" horiz-adv-x="1743" 
d="M1308 0h-344v528h-750v-528h-45v1061h45v-492h750v492h45v-373h299q155 0 261.5 -99.5t106.5 -244.5t-106.5 -244.5t-261.5 -99.5zM1009 41h299q136 0 229.5 88t93.5 215t-93.5 215t-229.5 88h-299v-606z" />
    <glyph glyph-name="afii10108" unicode="&#x45b;" horiz-adv-x="1265" 
d="M281 1495v-208h426v-41h-426v-443q54 123 169.5 202.5t251.5 79.5q188 0 301 -119.5t113 -306.5v-659h-45v655q0 167 -99.5 278t-269.5 111q-109 0 -207 -57t-156 -151.5t-58 -200.5v-635h-45v1246h-185v41h185v208h45z" />
    <glyph glyph-name="afii10109" unicode="&#x45c;" horiz-adv-x="1020" 
d="M871 1061h45q0 -201 -95 -325t-265 -156l432 -580h-59l-426 572q-33 -3 -67 -3h-222v-569h-45v1061h45v-451h224q202 0 317.5 116.5t115.5 334.5zM384 1237l289 330l35 -28l-290 -330z" />
    <glyph glyph-name="uni045D" unicode="&#x45d;" horiz-adv-x="1218" 
d="M1050 1061v-1061h-45v989l-791 -989h-45v1061h45v-989l791 989h45zM381 1567l289 -330l-34 -28l-290 330z" />
    <glyph glyph-name="afii10110" unicode="&#x45e;" horiz-adv-x="1056" 
d="M299 -475l211 493l-461 1043h53l434 -981l418 981h54l-656 -1536h-53zM529 1202q-128 0 -208.5 85.5t-86.5 215.5h45q6 -114 71.5 -187t178.5 -73t178.5 73t71.5 187h45q-6 -130 -86.5 -215.5t-208.5 -85.5z" />
    <glyph glyph-name="afii10193" unicode="&#x45f;" horiz-adv-x="1218" 
d="M1050 1061v-1061h-418v-287h-45v287h-418v1061h45v-1020h791v1020h45z" />
    <glyph glyph-name="afii10050" unicode="&#x490;" horiz-adv-x="1046" 
d="M197 0v1434h735v286h45v-327h-735v-1393h-45z" />
    <glyph glyph-name="afii10098" unicode="&#x491;" horiz-adv-x="818" 
d="M767 1020h-553v-1020h-45v1061h553v287h45v-328z" />
    <glyph glyph-name="Wgrave" unicode="&#x1e80;" horiz-adv-x="1900" 
d="M979 1434l399 -1371l404 1371h49l-424 -1434h-57l-400 1370l-399 -1370h-57l-424 1434h49l403 -1371l400 1371h57zM753 1898l289 -329l-34 -28l-290 330z" />
    <glyph glyph-name="wgrave" unicode="&#x1e81;" horiz-adv-x="1548" 
d="M752 1061h45l315 -977l334 977h53l-364 -1061h-45l-316 977l-315 -977h-45l-365 1061h53l334 -977zM557 1567l289 -330l-34 -28l-290 330z" />
    <glyph glyph-name="Wacute" unicode="&#x1e82;" horiz-adv-x="1900" 
d="M979 1434l399 -1371l404 1371h49l-424 -1434h-57l-400 1370l-399 -1370h-57l-424 1434h49l403 -1371l400 1371h57zM857 1569l289 329l35 -27l-290 -330z" />
    <glyph glyph-name="wacute" unicode="&#x1e83;" horiz-adv-x="1548" 
d="M752 1061h45l315 -977l334 977h53l-364 -1061h-45l-316 977l-315 -977h-45l-365 1061h53l334 -977zM701 1237l289 330l35 -28l-290 -330z" />
    <glyph glyph-name="Wdieresis" unicode="&#x1e84;" horiz-adv-x="1900" 
d="M979 1434l399 -1371l404 1371h49l-424 -1434h-57l-400 1370l-399 -1370h-57l-424 1434h49l403 -1371l400 1371h57zM725 1704q0 25 16.5 41t41.5 16t41 -16t16 -41t-16 -41t-41 -16t-41.5 16t-16.5 41zM1061 1704q0 25 16.5 41t41.5 16t41 -16t16 -41t-16 -41t-41 -16
t-41.5 16t-16.5 41z" />
    <glyph glyph-name="wdieresis" unicode="&#x1e85;" horiz-adv-x="1548" 
d="M752 1061h45l315 -977l334 977h53l-364 -1061h-45l-316 977l-315 -977h-45l-365 1061h53l334 -977zM549 1372q0 25 16 41.5t41 16.5t41.5 -16.5t16.5 -41.5t-16.5 -41t-41.5 -16t-41 16t-16 41zM885 1372q0 25 16 41.5t41 16.5t41 -16.5t16 -41.5t-16 -41t-41 -16t-41 16
t-16 41z" />
    <glyph glyph-name="Ygrave" unicode="&#x1ef2;" horiz-adv-x="1298" 
d="M127 1434l522 -799l522 799h58l-557 -846v-588h-45v588l-557 846h57zM421 1898l289 -329l-34 -28l-290 330z" />
    <glyph glyph-name="ygrave" unicode="&#x1ef3;" horiz-adv-x="1056" 
d="M299 -475l211 493l-461 1043h53l434 -981l418 981h54l-656 -1536h-53zM300 1567l289 -330l-34 -28l-290 330z" />
    <glyph glyph-name="thinspace" unicode="&#x2009;" horiz-adv-x="409" 
 />
    <glyph glyph-name="uni2010" unicode="&#x2010;" horiz-adv-x="798" 
d="M682 659h-565v41h565v-41z" />
    <glyph glyph-name="figuredash" unicode="&#x2012;" horiz-adv-x="1228" 
d="M1126 659h-1024v41h1024v-41z" />
    <glyph glyph-name="endash" unicode="&#x2013;" horiz-adv-x="1024" 
d="M1024 659h-1024v41h1024v-41z" />
    <glyph glyph-name="emdash" unicode="&#x2014;" horiz-adv-x="2048" 
d="M2048 659h-2048v41h2048v-41z" />
    <glyph glyph-name="afii00208" unicode="&#x2015;" horiz-adv-x="2048" 
d="M1843 659h-1638v41h1638v-41z" />
    <glyph glyph-name="uni2016" unicode="&#x2016;" horiz-adv-x="921" 
d="M268 -287v1823h45v-1823h-45zM608 -287v1823h45v-1823h-45z" />
    <glyph glyph-name="underscoredbl" unicode="&#x2017;" horiz-adv-x="1228" 
d="M102 -410v41h1024v-41h-1024zM102 -131v41h1024v-41h-1024z" />
    <glyph glyph-name="quoteleft" unicode="&#x2018;" horiz-adv-x="589" 
d="M352 1252q0 -25 -15.5 -41.5t-40.5 -16.5q-26 0 -42 18.5t-16 51.5q0 67 26 127t100 137l32 -30q-57 -64 -67.5 -117t16.5 -95q7 -16 7 -34z" />
    <glyph glyph-name="quoteright" unicode="&#x2019;" horiz-adv-x="589" 
d="M238 1461q0 25 16 42t40 17q26 0 42 -18.5t16 -51.5q0 -67 -26 -127t-100 -137l-32 29q57 64 67.5 117t-16.5 95q-7 16 -7 34z" />
    <glyph glyph-name="quotesinglbase" unicode="&#x201a;" horiz-adv-x="589" 
d="M238 32q0 25 15.5 41.5t40.5 16.5q26 0 42 -18.5t16 -51.5q0 -67 -26 -127t-100 -137l-32 30q57 64 67.5 117t-16.5 95q-7 16 -7 34z" />
    <glyph glyph-name="quotereversed" unicode="&#x201b;" horiz-adv-x="589" 
d="M353 1461q0 -18 -7 -34q-27 -42 -16.5 -95t67.5 -117l-32 -29q-74 77 -100 137t-26 127q0 33 16 51.5t42 18.5q24 0 40 -17t16 -42z" />
    <glyph glyph-name="quotedblleft" unicode="&#x201c;" horiz-adv-x="831" 
d="M352 1252q0 -25 -15.5 -41.5t-40.5 -16.5q-26 0 -42 18.5t-16 51.5q0 67 26 127t100 137l32 -30q-57 -64 -67.5 -117t16.5 -95q7 -16 7 -34zM594 1252q0 -25 -15.5 -41.5t-40.5 -16.5q-26 0 -42.5 18.5t-16.5 51.5q0 67 26 127t100 137l33 -30q-57 -64 -67.5 -117
t16.5 -95q7 -16 7 -34z" />
    <glyph glyph-name="quotedblright" unicode="&#x201d;" horiz-adv-x="831" 
d="M238 1461q0 25 16 42t40 17q26 0 42 -18.5t16 -51.5q0 -67 -26 -127t-100 -137l-32 29q57 64 67.5 117t-16.5 95q-7 16 -7 34zM479 1461q0 25 16 42t41 17q26 0 42 -18.5t16 -51.5q0 -67 -26 -127t-100 -137l-33 29q57 64 67.5 117t-16.5 95q-7 16 -7 34z" />
    <glyph glyph-name="quotedblbase" unicode="&#x201e;" horiz-adv-x="831" 
d="M238 32q0 25 15.5 41.5t40.5 16.5q26 0 42 -18.5t16 -51.5q0 -67 -26 -127t-100 -137l-32 30q57 64 67.5 117t-16.5 95q-7 16 -7 34zM479 32q0 25 16 41.5t41 16.5q26 0 42 -18.5t16 -51.5q0 -67 -26 -127t-100 -137l-33 30q57 64 67.5 117t-16.5 95q-7 16 -7 34z" />
    <glyph glyph-name="uni201F" unicode="&#x201f;" horiz-adv-x="831" 
d="M353 1461q0 -18 -7 -34q-27 -42 -16.5 -95t67.5 -117l-32 -29q-74 77 -100 137t-26 127q0 33 16 51.5t42 18.5q24 0 40 -17t16 -42zM595 1461q0 -18 -7 -34q-27 -42 -16.5 -95t67.5 -117l-33 -29q-74 77 -100 137t-26 127q0 33 16.5 51.5t42.5 18.5q24 0 40 -17t16 -42z
" />
    <glyph glyph-name="dagger" unicode="&#x2020;" horiz-adv-x="1146" 
d="M551 -268v1349h-383v41h383v410h45v-410h383v-41h-383v-1349h-45z" />
    <glyph glyph-name="daggerdbl" unicode="&#x2021;" horiz-adv-x="1146" 
d="M551 182v899h-383v41h383v410h45v-410h383v-41h-383v-899h383v-41h-383v-409h-45v409h-383v41h383z" />
    <glyph glyph-name="bullet" unicode="&#x2022;" horiz-adv-x="819" 
d="M201 680q0 88 60 147.5t149 59.5t148.5 -59.5t59.5 -147.5t-59.5 -147.5t-148.5 -59.5t-149 59.5t-60 147.5z" />
    <glyph glyph-name="onedotenleader" unicode="&#x2024;" horiz-adv-x="589" 
d="M238 33q0 25 16 41t41 16t41 -16t16 -41t-16 -41.5t-41 -16.5t-41 16.5t-16 41.5z" />
    <glyph glyph-name="twodotenleader" unicode="&#x2025;" horiz-adv-x="1179" 
d="M238 33q0 25 16 41t41 16t41 -16t16 -41t-16 -41.5t-41 -16.5t-41 16.5t-16 41.5zM827 33q0 25 16.5 41t41.5 16t41 -16t16 -41t-16 -41.5t-41 -16.5t-41.5 16.5t-16.5 41.5z" />
    <glyph glyph-name="ellipsis" unicode="&#x2026;" horiz-adv-x="1769" 
d="M238 33q0 25 16 41t41 16t41 -16t16 -41t-16 -41.5t-41 -16.5t-41 16.5t-16 41.5zM827 33q0 25 16.5 41t41.5 16t41 -16t16 -41t-16 -41.5t-41 -16.5t-41.5 16.5t-16.5 41.5zM1417 33q0 25 16.5 41t41.5 16t41 -16t16 -41t-16 -41.5t-41 -16.5t-41.5 16.5t-16.5 41.5z
" />
    <glyph glyph-name="perthousand" unicode="&#x2030;" horiz-adv-x="2578" 
d="M112 1104q0 145 98.5 244.5t240.5 99.5t240.5 -99.5t98.5 -244.5t-98.5 -244.5t-240.5 -99.5t-240.5 99.5t-98.5 244.5zM157 1104q0 -127 85.5 -215t208.5 -88t208 88t85 215t-85 215t-208 88t-208.5 -88t-85.5 -215zM988 330q0 145 98.5 244.5t240.5 99.5t240.5 -99.5
t98.5 -244.5t-98.5 -244.5t-240.5 -99.5t-240.5 99.5t-98.5 244.5zM1033 330q0 -127 85.5 -215t208.5 -88t208.5 88t85.5 215t-85.5 215t-208.5 88t-208.5 -88t-85.5 -215zM1789 330q0 145 98.5 244.5t240.5 99.5t240.5 -99.5t98.5 -244.5t-98.5 -244.5t-240.5 -99.5
t-240.5 99.5t-98.5 244.5zM1834 330q0 -127 85.5 -215t208.5 -88t208.5 88t85.5 215t-85.5 215t-208.5 88t-208.5 -88t-85.5 -215zM498 10l740 1435l38 -23l-738 -1434z" />
    <glyph glyph-name="minute" unicode="&#x2032;" horiz-adv-x="550" 
d="M170 1063l189 381l39 -23l-193 -381z" />
    <glyph glyph-name="second" unicode="&#x2033;" horiz-adv-x="821" 
d="M170 1063l189 381l39 -23l-193 -381zM440 1063l190 381l39 -23l-194 -381z" />
    <glyph glyph-name="guilsinglleft" unicode="&#x2039;" horiz-adv-x="760" 
d="M112 627v24l510 339l21 -33l-485 -318l485 -318l-21 -33z" />
    <glyph glyph-name="guilsinglright" unicode="&#x203a;" horiz-adv-x="760" 
d="M649 651v-24l-510 -339l-21 33l485 318l-485 318l21 33z" />
    <glyph glyph-name="exclamdbl" unicode="&#x203c;" horiz-adv-x="1001" 
d="M285 373v1061h45v-1061h-45zM254 29q0 23 15 38t38 15t38 -15t15 -38t-15 -38.5t-38 -15.5t-38 15.5t-15 38.5zM672 373v1061h45v-1061h-45zM641 29q0 23 15 38t38 15t38.5 -15t15.5 -38t-15.5 -38.5t-38.5 -15.5t-38 15.5t-15 38.5z" />
    <glyph glyph-name="uni203E" unicode="&#x203e;" horiz-adv-x="825" 
d="M146 1302v40h533v-40h-533z" />
    <glyph glyph-name="fraction" unicode="&#x2044;" horiz-adv-x="327" 
d="M-206 10l702 1434l38 -21l-700 -1433z" />
    <glyph glyph-name="zerosuperior" unicode="&#x2070;" 
d="M73 948q0 147 34.5 260t108 181.5t177.5 68.5t177.5 -68.5t108.5 -182t35 -259.5t-35 -259.5t-108.5 -182t-177.5 -68.5t-177.5 68.5t-108 181.5t-34.5 260zM118 948q0 -133 29 -237t92.5 -168t153.5 -64t153.5 64t93 168t29.5 237t-29.5 237t-93 168t-153.5 64
t-153.5 -64t-92.5 -168t-29 -237z" />
    <glyph glyph-name="uni2071" unicode="&#x2071;" 
d="M371 463v686h45v-686h-45zM352 1393q0 18 11.5 29.5t29.5 11.5t29.5 -11.5t11.5 -29.5t-11.5 -29.5t-29.5 -11.5t-29.5 11.5t-11.5 29.5z" />
    <glyph glyph-name="foursuperior" unicode="&#x2074;" 
d="M49 696v37l483 701h42v-697h147v-41h-147v-233h-45v233h-480zM106 737h423v617z" />
    <glyph glyph-name="fivesuperior" unicode="&#x2075;" 
d="M364 438q-86 0 -160 41t-120 106l30 30q42 -63 108.5 -99.5t141.5 -36.5q118 0 196.5 74.5t78.5 189.5q0 114 -79 189.5t-196 75.5q-69 0 -125.5 -33t-87.5 -85l-32 5l60 539h468v-41h-428l-50 -420q74 76 198 76q133 0 225 -87.5t92 -218.5t-92.5 -218t-227.5 -87z" />
    <glyph glyph-name="sixsuperior" unicode="&#x2076;" 
d="M505 1434l-268 -418q66 40 155 40q134 0 227 -89.5t93 -218.5q0 -130 -93 -220t-227 -90t-226 90t-92 220q0 89 45 159l334 527h52zM119 748q0 -114 79 -191.5t194 -77.5q116 0 195.5 77.5t79.5 191.5q0 113 -79.5 190t-195.5 77q-115 0 -194 -77t-79 -190z" />
    <glyph glyph-name="sevensuperior" unicode="&#x2077;" 
d="M104 1434h580v-35l-406 -936h-51l405 930h-528v41z" />
    <glyph glyph-name="eightsuperior" unicode="&#x2078;" 
d="M169 1215q0 -86 64.5 -144t159.5 -58t159 58t64 144t-64 144t-159 58t-159.5 -58t-64.5 -144zM119 725q0 -103 79 -174.5t195 -71.5t195 71.5t79 174.5t-79.5 175.5t-194.5 72.5t-194.5 -72.5t-79.5 -175.5zM662 1215q0 -72 -44.5 -133.5t-119.5 -87.5q97 -31 155.5 -105
t58.5 -164q0 -120 -92.5 -203.5t-226.5 -83.5t-226.5 83.5t-92.5 203.5q0 90 59 164t156 105q-77 25 -121 86.5t-44 134.5q0 103 77.5 173t191.5 70t191.5 -70t77.5 -173z" />
    <glyph glyph-name="ninesuperior" unicode="&#x2079;" 
d="M282 463l268 418q-66 -40 -156 -40q-134 0 -226.5 89t-92.5 219t92.5 219.5t226.5 89.5t226.5 -89.5t92.5 -219.5q0 -90 -45 -160l-334 -526h-52zM668 1149q0 114 -79.5 191t-194.5 77q-116 0 -195 -77t-79 -191q0 -113 79 -190t195 -77q115 0 194.5 77t79.5 190z" />
    <glyph glyph-name="uni207A" unicode="&#x207a;" 
d="M709 928h-293v-303h-45v303h-293v41h293v303h45v-303h293v-41z" />
    <glyph glyph-name="uni207B" unicode="&#x207b;" 
d="M709 928h-631v41h631v-41z" />
    <glyph glyph-name="uni207C" unicode="&#x207c;" 
d="M709 1081h-631v41h631v-41zM709 774h-631v41h631v-41z" />
    <glyph glyph-name="uni207D" unicode="&#x207d;" 
d="M333 948q0 165 60 315.5t165 270.5l33 -22q-100 -119 -156.5 -264t-56.5 -300t56.5 -300t156.5 -264l-33 -22q-105 120 -165 270.5t-60 315.5z" />
    <glyph glyph-name="uni207E" unicode="&#x207e;" 
d="M454 948q0 -165 -60.5 -315.5t-165.5 -270.5l-32 22q100 119 156.5 264t56.5 300t-56.5 300t-156.5 264l32 22q105 -120 165.5 -270.5t60.5 -315.5z" />
    <glyph glyph-name="uni207F" unicode="&#x207f;" 
d="M413 1122q-94 0 -173.5 -75t-79.5 -166v-418h-45v686h45v-161q34 77 105 126t153 49q111 0 185 -76t74 -187v-437h-45v434q0 95 -62.5 160t-156.5 65z" />
    <glyph glyph-name="zeroinferior" unicode="&#x2080;" 
d="M73 217q0 147 34.5 260t108 181.5t177.5 68.5t177.5 -68.5t108.5 -182t35 -259.5t-35 -259.5t-108.5 -182t-177.5 -68.5t-177.5 68.5t-108 181.5t-34.5 260zM118 217q0 -133 29 -237t92.5 -168t153.5 -64t153.5 64t93 168t29.5 237t-29.5 237t-93 168t-153.5 64
t-153.5 -64t-92.5 -168t-29 -237z" />
    <glyph glyph-name="oneinferior" unicode="&#x2081;" 
d="M451 702h38v-970h-45v920l-243 -138l-21 36z" />
    <glyph glyph-name="twoinferior" unicode="&#x2082;" 
d="M550 212l-388 -439h495v-41h-559v37l416 468q109 122 109 244q0 85 -68.5 145t-170.5 60q-99 0 -169.5 -61.5t-81.5 -171.5h-43q12 128 95.5 201t198.5 73q120 0 202 -72t82 -174q0 -136 -118 -269z" />
    <glyph glyph-name="threeinferior" unicode="&#x2083;" 
d="M640 8q0 109 -83.5 185t-200.5 76q-50 0 -95 -14l-20 27l346 380h-462v40h519v-36l-327 -358q12 2 39 2q138 0 233.5 -88t95.5 -214q0 -127 -95 -214t-234 -87q-182 0 -281 154l29 33q40 -67 105.5 -106.5t146.5 -39.5q118 0 201 74.5t83 185.5z" />
    <glyph glyph-name="fourinferior" unicode="&#x2084;" 
d="M49 -35v37l483 700h42v-696h147v-41h-147v-233h-45v233h-480zM106 6h423v617z" />
    <glyph glyph-name="fiveinferior" unicode="&#x2085;" 
d="M364 -293q-86 0 -160 41t-120 106l30 30q42 -63 108.5 -99.5t141.5 -36.5q118 0 196.5 74.5t78.5 189.5q0 114 -78.5 189t-196.5 75q-69 0 -125.5 -32.5t-87.5 -84.5l-32 5l60 538h468v-40h-428l-50 -420q73 75 198 75q133 0 225 -87t92 -218t-92.5 -218t-227.5 -87z" />
    <glyph glyph-name="sixinferior" unicode="&#x2086;" 
d="M505 702l-268 -417q66 40 155 40q134 0 227 -89.5t93 -219.5t-93 -219.5t-227 -89.5t-226 89.5t-92 219.5q0 90 45 160l334 526h52zM119 16q0 -114 79 -191t194 -77q116 0 195.5 77t79.5 191q0 113 -79.5 190.5t-195.5 77.5q-115 0 -194 -77.5t-79 -190.5z" />
    <glyph glyph-name="seveninferior" unicode="&#x2087;" 
d="M104 702h580v-34l-406 -936h-51l405 930h-528v40z" />
    <glyph glyph-name="eightinferior" unicode="&#x2088;" 
d="M169 484q0 -86 64.5 -144t159.5 -58t159 58t64 144t-64 144t-159 58t-159.5 -58t-64.5 -144zM119 -6q0 -103 79 -174.5t195 -71.5t195 71.5t79 174.5t-79.5 175.5t-194.5 72.5t-194.5 -72.5t-79.5 -175.5zM662 484q0 -72 -44.5 -133.5t-119.5 -87.5q97 -31 155.5 -105
t58.5 -164q0 -120 -92.5 -203.5t-226.5 -83.5t-226.5 83.5t-92.5 203.5q0 90 59 164t156 105q-77 25 -121 86.5t-44 134.5q0 103 77.5 173t191.5 70t191.5 -70t77.5 -173z" />
    <glyph glyph-name="nineinferior" unicode="&#x2089;" 
d="M282 -268l268 418q-66 -40 -156 -40q-134 0 -226.5 89t-92.5 219t92.5 219.5t226.5 89.5t226.5 -89.5t92.5 -219.5q0 -90 -45 -160l-334 -526h-52zM668 418q0 114 -79.5 191t-194.5 77q-116 0 -195 -77t-79 -191q0 -113 79 -190t195 -77q115 0 194.5 77t79.5 190z" />
    <glyph glyph-name="uni208A" unicode="&#x208a;" 
d="M709 197h-293v-303h-45v303h-293v41h293v303h45v-303h293v-41z" />
    <glyph glyph-name="uni208B" unicode="&#x208b;" 
d="M709 197h-631v41h631v-41z" />
    <glyph glyph-name="uni208C" unicode="&#x208c;" 
d="M709 350h-631v41h631v-41zM709 43h-631v41h631v-41z" />
    <glyph glyph-name="uni208D" unicode="&#x208d;" 
d="M333 217q0 165 60 315.5t165 270.5l33 -22q-100 -119 -156.5 -264t-56.5 -300t56.5 -300t156.5 -264l-33 -22q-105 120 -165 270.5t-60 315.5z" />
    <glyph glyph-name="uni208E" unicode="&#x208e;" 
d="M454 217q0 -165 -60.5 -315.5t-165.5 -270.5l-32 22q100 119 156.5 264t56.5 300t-56.5 300t-156.5 264l32 22q105 -120 165.5 -270.5t60.5 -315.5z" />
    <glyph glyph-name="uni2090" unicode="&#x2090;" 
d="M49 66q0 151 92 254.5t234 103.5q96 0 168.5 -50.5t111.5 -136.5v173h45v-689h-45v174q-39 -87 -111.5 -137.5t-168.5 -50.5q-141 0 -233.5 104t-92.5 255zM94 66q0 -134 79 -226t202 -92t201.5 92t78.5 226t-78.5 225.5t-201.5 91.5t-202 -91.5t-79 -225.5z" />
    <glyph glyph-name="uni2091" unicode="&#x2091;" 
d="M721 53h-612q4 -128 87.5 -216.5t211.5 -88.5q147 0 242 127l31 -30q-47 -63 -118.5 -100.5t-154.5 -37.5q-151 0 -248 104t-97 255q0 149 96 253.5t241 104.5q140 0 232 -98t92 -240q0 -20 -3 -33zM400 383q-116 0 -198 -84.5t-92 -204.5h568q-7 127 -85 208t-193 81z
" />
    <glyph glyph-name="uni2092" unicode="&#x2092;" 
d="M94 66q0 -132 87 -225t212 -93t212 93t87 225t-87 224.5t-212 92.5t-212 -92.5t-87 -224.5zM49 66q0 149 100.5 253.5t243.5 104.5t243.5 -104.5t100.5 -253.5t-100.5 -254t-243.5 -105t-243.5 105t-100.5 254z" />
    <glyph glyph-name="uni2093" unicode="&#x2093;" 
d="M87 -279l279 355l-263 334h56l234 -299l235 299h55l-262 -334l278 -355h-55l-251 320l-252 -320h-54z" />
    <glyph glyph-name="uni2094" unicode="&#x2094;" 
d="M62 45q0 15 4 33h612q-5 128 -88 216.5t-211 88.5q-71 0 -134.5 -33.5t-108.5 -93.5l-31 30q47 63 119 100.5t155 37.5q151 0 247.5 -103.5t96.5 -254.5q0 -149 -96 -254t-241 -105q-140 0 -232 98t-92 240zM386 -252q116 0 198 84.5t92 204.5h-568q7 -127 84.5 -208
t193.5 -81z" />
    <glyph glyph-name="uni20A0" unicode="&#x20a0;" horiz-adv-x="1548" 
d="M61 945q0 141 67.5 259t185 186t257.5 68q78 0 153.5 -22.5t148.5 -81.5t109 -148h-49q-24 56 -66.5 98.5t-93 66t-101.5 35t-101 11.5q-195 0 -330 -137.5t-135 -334.5t135 -334.5t330 -137.5q149 0 269 84v436h575v-41h-530v-432h497v-41h-497v-438h542v-41h-587v507
q-124 -75 -269 -75q-140 0 -257.5 68t-185 186t-67.5 259z" />
    <glyph glyph-name="colonmonetary" unicode="&#x20a1;" horiz-adv-x="1575" 
d="M681 -209l34 191q-104 14 -193 53l-43 -244h-47l46 264q-178 93 -283.5 269t-105.5 393q0 191 83 352.5t228.5 262t325.5 121.5l34 189h47l-33 -185q6 0 18.5 0.5t19.5 0.5q81 0 161 -17l36 201h47l-38 -214q162 -47 285 -163t184 -277h-49q-58 143 -170 248t-257 150
l-243 -1369q14 -1 44 -1q191 0 348.5 98t245.5 263l38 -27q-94 -172 -261.5 -273.5t-370.5 -101.5q-19 0 -51 2l-33 -186h-47zM134 717q0 -197 95.5 -362t256.5 -255l233 1310q-251 -35 -418 -232t-167 -461zM529 79q90 -43 193 -56l244 1376q-74 18 -154 18q-17 0 -45 -2z
" />
    <glyph glyph-name="uni20A2" unicode="&#x20a2;" horiz-adv-x="1575" 
d="M1193 863l-7 -41q-44 7 -78 7q-81 0 -145 -33.5t-104 -90.5t-60.5 -130t-20.5 -155v-403q11 -1 34 -1q191 0 348.5 98t245.5 263l38 -27q-94 -172 -261.5 -273.5t-370.5 -101.5q-150 0 -284 57.5t-230 156t-152.5 236.5t-56.5 292q0 206 95.5 376t261.5 267.5t366 97.5
q231 0 413.5 -129t261.5 -341h-49q-77 192 -246 310.5t-380 118.5q-140 0 -266 -55.5t-216 -149.5t-143 -223.5t-53 -271.5q0 -177 78 -329.5t215 -250t306 -117.5v826h45v-216q40 110 124 175t206 65q47 0 85 -7z" />
    <glyph glyph-name="franc" unicode="&#x20a3;" horiz-adv-x="1116" 
d="M297 0v526h-227v41h227v176h-227v41h227v650h750v-41h-705v-609h424v-41h-424v-176h424v-41h-424v-526h-45z" />
    <glyph glyph-name="lira" unicode="&#x20a4;" horiz-adv-x="1140" 
d="M1002 1141h-43q-18 113 -117 194.5t-230 81.5q-152 0 -257.5 -107.5t-105.5 -262.5q0 -122 69 -273h463v-41h-443q40 -88 61 -176h382v-41h-373q9 -52 9 -84q0 -109 -52.5 -213t-136.5 -178h799v-41h-864v39q97 79 153 183t56 210q0 34 -10 84h-277v41h269
q-24 94 -64 176h-205v41h185q-66 153 -66 273q0 172 119 291.5t289 119.5q145 0 259 -91t131 -226z" />
    <glyph glyph-name="uni20A6" unicode="&#x20a6;" horiz-adv-x="1458" 
d="M1389 588h-154v-588h-41l-402 588h-524v-588h-45v588h-153v41h153v176h-153v41h153v588h41l403 -588h523v588h45v-588h154v-41h-154v-176h154v-41zM268 1352v-506h346zM843 588l347 -506v506h-347zM694 805l121 -176h375v176h-496zM268 805v-176h495l-120 176h-375z" />
    <glyph glyph-name="peseta" unicode="&#x20a7;" horiz-adv-x="1148" 
d="M1150 998h-88q-7 -181 -139 -288.5t-343 -107.5h-338v-602h-45v998h-93v41h93v395h383q210 0 342.5 -108t139.5 -287h88v-41zM580 643q191 0 310.5 97t126.5 258h-775v-355h338zM242 1393v-354h775q-8 160 -127.5 257t-309.5 97h-338z" />
    <glyph glyph-name="uni20A9" unicode="&#x20a9;" horiz-adv-x="1966" 
d="M1012 1434l170 -584h460l173 584h49l-173 -584h234v-41h-247l-51 -176h298v-41h-310l-175 -592h-58l-173 592h-453l-172 -592h-58l-175 592h-310v41h298l-52 176h-246v41h233l-172 584h50l171 -584h460l171 584h58zM399 592l156 -529l154 529h-310zM1256 592l155 -529
l156 529h-311zM983 1370l-152 -520h304zM1194 809l51 -176h334l51 176h-436zM335 809l52 -176h334l51 176h-437zM819 809l-51 -176h429l-51 176h-327z" />
    <glyph glyph-name="afii57636" unicode="&#x20aa;" horiz-adv-x="1732" 
d="M197 0v1434h438q202 0 341.5 -148t139.5 -362v-387h-45v387q0 197 -126 333t-310 136h-393v-1393h-45zM1536 1434v-1434h-438q-202 0 -342 148t-140 362v387h46v-387q0 -197 126 -333t310 -136h393v1393h45z" />
    <glyph glyph-name="dong" unicode="&#x20ab;" horiz-adv-x="1348" 
d="M642 1246v41h426v208h45v-208h184v-41h-184v-1246h-45v312q-59 -151 -184.5 -243t-283.5 -92q-141 0 -259 74t-186 201t-68 278t68 278.5t186 201.5t259 74q158 0 283.5 -92t184.5 -243v497h-426zM133 530q0 -141 61.5 -259t169 -186.5t237.5 -68.5q97 0 184 40.5
t149 109.5t98 164t36 200t-36 200.5t-98 164.5t-149 110t-184 41q-130 0 -237.5 -69t-169 -187.5t-61.5 -259.5zM333 -279v41h737v-41h-737z" />
    <glyph glyph-name="Euro" unicode="&#x20ac;" horiz-adv-x="1671" 
d="M1582 988h-49q-77 192 -246 310.5t-380 118.5q-245 0 -429 -156.5t-233 -394.5h718l-21 -41h-704q-9 -65 -9 -108q0 -46 9 -109h653l-21 -41h-625q49 -239 233 -395t429 -156q191 0 348.5 98t245.5 263l38 -27q-94 -172 -261.5 -273.5t-370.5 -101.5q-264 0 -461.5 166.5
t-247.5 425.5h-157v41h150q-7 49 -7 109q0 58 7 108h-150v41h157q50 259 247 425.5t462 166.5q231 0 413.5 -129t261.5 -341z" />
    <glyph glyph-name="ruble" unicode="&#x20bd;" horiz-adv-x="1148" 
d="M58 602v41h139v791h383q216 0 349.5 -114t133.5 -302t-133.5 -302t-349.5 -114h-338v-194h472v-41h-472v-367h-45v367h-139v41h139v194h-139zM1018 1018q0 169 -120.5 272t-317.5 103h-338v-750h338q197 0 317.5 103t120.5 272z" />
    <glyph glyph-name="afii61248" unicode="&#x2105;" horiz-adv-x="2060" 
d="M622 0l700 1434h49l-698 -1434h-51zM1129 409q0 182 125.5 308t306.5 126t306 -126t125 -308t-125 -308.5t-306 -126.5t-306.5 126.5t-125.5 308.5zM1175 409q0 -165 112 -279.5t274 -114.5t274 114.5t112 279.5t-112 279t-274 114t-274 -114t-112 -279zM813 793l34 -29
q-60 -81 -150.5 -127.5t-196.5 -46.5q-181 0 -306 126t-125 308t125 308t306 126q126 0 228.5 -64t156.5 -172h-49q-50 90 -139.5 142.5t-196.5 52.5q-162 0 -274 -114t-112 -279t112 -279t274 -114q96 0 177.5 43.5t135.5 118.5z" />
    <glyph glyph-name="uni2109" unicode="&#x2109;" horiz-adv-x="1570" 
d="M51 1182q0 111 77.5 188.5t188.5 77.5t189 -77.5t78 -188.5t-78 -189t-189 -78t-188.5 78t-77.5 189zM96 1182q0 -94 64.5 -160t156.5 -66t157 66t65 160t-65 159.5t-157 65.5t-156.5 -65.5t-64.5 -159.5zM731 0v1434h750v-41h-705v-650h645v-41h-645v-702h-45z" />
    <glyph glyph-name="afii61289" unicode="&#x2113;" horiz-adv-x="1114" 
d="M666 -25q-146 0 -246.5 104.5t-100.5 256.5v96q-122 -53 -210 -88l-17 41q146 59 227 96v617q0 152 100.5 256t246.5 104t246 -104t100 -256v-37q0 -94 -40.5 -175t-126.5 -155t-200 -139.5t-280 -139.5v-116q0 -134 88 -227t213 -93q103 0 181.5 61t123.5 180l41 -23
q-51 -127 -139.5 -193t-206.5 -66zM967 1061v37q0 134 -88 226.5t-213 92.5t-213 -92.5t-88 -226.5v-596q313 141 457.5 267.5t144.5 291.5z" />
    <glyph glyph-name="afii61352" unicode="&#x2116;" horiz-adv-x="2208" 
d="M197 0v1434h45l816 -1350v1350h45v-1434h-45l-816 1350v-1350h-45zM2049 2h-758v41h758v-41zM1316 666q0 -148 102 -249.5t252 -101.5t252 101.5t102 249.5t-102 249t-252 101t-252 -101t-102 -249zM1271 666q0 164 115.5 277.5t283.5 113.5t284 -113.5t116 -277.5
t-116 -278t-284 -114t-283.5 114t-115.5 278z" />
    <glyph glyph-name="uni2117" unicode="&#x2117;" horiz-adv-x="1624" 
d="M848 646h-175v-313h-45v766h220q117 0 189.5 -62.5t72.5 -164.5t-72 -164t-190 -62zM1066 872q0 83 -60 134.5t-158 51.5h-175v-371h175q98 0 158 50.5t60 134.5zM71 717q0 153 58 290t157 236t236 157t290 58t290 -58t236 -157t157 -236t58 -290t-58 -290.5t-157 -236.5
t-236 -157t-290 -58t-290 58t-236 157t-157 236.5t-58 290.5zM116 717q0 -192 92.5 -353t252.5 -254.5t351 -93.5t351 93.5t252.5 254.5t92.5 353q0 143 -54.5 273t-147.5 223.5t-222 148.5t-272 55t-272 -55t-222 -148.5t-147.5 -223.5t-54.5 -273z" />
    <glyph glyph-name="uni2120" unicode="&#x2120;" horiz-adv-x="1553" 
d="M83 792l32 34q40 -54 100 -87.5t123 -33.5q91 0 151.5 45.5t60.5 114.5q0 65 -55.5 111t-155.5 70q-113 27 -176 79.5t-63 125.5q0 84 64 139.5t165 55.5q85 0 155.5 -48.5t88.5 -135.5h-45q-17 67 -74.5 105t-121.5 38q-83 0 -134.5 -44t-51.5 -107q0 -117 204 -167
q117 -28 181.5 -84.5t64.5 -135.5q0 -87 -72.5 -145t-182.5 -58q-76 0 -145.5 36t-112.5 92zM1081 768h-20l-294 562v-654h-46v758h40l310 -598l310 598h40v-758h-46v654z" />
    <glyph glyph-name="uni2121" unicode="&#x2121;" horiz-adv-x="2131" 
d="M861 524q1 -136 51 -251.5t143 -186t210 -70.5q94 0 176.5 53t142.5 148l32 -35q-60 -95 -152 -151t-199 -56q-129 0 -233 76t-160 202.5t-56 276.5t56 276.5t157 202.5t225 76q182 0 302.5 -151.5t120.5 -370.5q0 -23 -3 -39h-813zM1254 1044q-105 0 -193.5 -66
t-140.5 -175.5t-58 -237.5h769q-6 208 -112 343.5t-265 135.5zM512 0v1393h-442v41h929v-41h-442v-1393h-45zM1890 0v1495h45v-1495h-45z" />
    <glyph glyph-name="trademark" unicode="&#x2122;" horiz-adv-x="1529" 
d="M302 676v717h-235v41h516v-41h-236v-717h-45zM1064 768h-21l-293 562v-654h-47v758h40l311 -598l310 598h40v-758h-46v654z" />
    <glyph glyph-name="Omega" unicode="&#x2126;" horiz-adv-x="1576" 
d="M1432 743q0 138 -50.5 263t-136.5 215t-205.5 143t-251.5 53t-251 -53t-205 -143t-136.5 -215t-50.5 -263q0 -101 25 -190t82.5 -179.5t162.5 -175t255 -157.5v-41h-553v41h471q-131 65 -227 146.5t-152 172t-82.5 185.5t-26.5 198q0 196 91 360t249.5 259.5t347.5 95.5
q142 0 269.5 -56.5t219.5 -152t146 -228t54 -278.5q0 -103 -26.5 -198t-82.5 -185.5t-152 -172t-227 -146.5h471v-41h-553v41q150 73 255 157.5t162.5 175t82.5 179.5t25 190z" />
    <glyph glyph-name="estimated" unicode="&#x212e;" horiz-adv-x="1646" 
d="M399 696v-537q186 -143 424 -143q171 0 320.5 77t248.5 216l35 -25q-104 -147 -263.5 -228t-340.5 -81q-153 0 -290 58t-236 157t-157 236.5t-58 290.5t58 290t157 236t236 157t290 58t290.5 -58t236.5 -157t157 -236t58 -290v-21h-1166zM823 1417q-240 0 -424 -142v-538
h848v538q-184 142 -424 142z" />
    <glyph glyph-name="onethird" unicode="&#x2153;" horiz-adv-x="1898" 
d="M451 1434h38v-971h-45v920l-243 -138l-21 36zM1752 276q0 109 -84 185.5t-200 76.5q-47 0 -95 -15l-20 27l346 380h-462v41h519v-37l-326 -357q12 2 38 2q138 0 233.5 -88.5t95.5 -214.5q0 -127 -95 -214t-234 -87q-182 0 -281 154l30 33q40 -67 105 -106.5t146 -39.5
q118 0 201 74.5t83 185.5zM580 10l701 1434l38 -21l-699 -1433z" />
    <glyph glyph-name="twothirds" unicode="&#x2154;" horiz-adv-x="1898" 
d="M550 943l-388 -439h495v-41h-559v37l416 468q109 122 109 244q0 85 -68.5 145t-170.5 60q-99 0 -169.5 -61.5t-81.5 -171.5h-43q12 128 95.5 201t198.5 73q120 0 202 -72t82 -174q0 -136 -118 -269zM580 10l701 1434l38 -21l-699 -1433zM1752 276q0 109 -84 185.5
t-200 76.5q-47 0 -95 -15l-20 27l346 380h-462v41h519v-37l-326 -357q12 2 38 2q138 0 233.5 -88.5t95.5 -214.5q0 -127 -95 -214t-234 -87q-182 0 -281 154l30 33q40 -67 105 -106.5t146 -39.5q118 0 201 74.5t83 185.5z" />
    <glyph glyph-name="onefifth" unicode="&#x2155;" horiz-adv-x="1898" 
d="M451 1434h38v-971h-45v920l-243 -138l-21 36zM580 10l701 1434l38 -21l-699 -1433zM1476 -27q-86 0 -160 41t-120 106l30 31q43 -63 109 -100t141 -37q118 0 196.5 75t78.5 190q0 114 -78.5 189t-196.5 75q-69 0 -125.5 -33t-87.5 -85l-32 5l60 539h468v-41h-428
l-50 -420q74 76 198 76q133 0 225 -87t92 -218t-92.5 -218.5t-227.5 -87.5z" />
    <glyph glyph-name="twofifths" unicode="&#x2156;" horiz-adv-x="1898" 
d="M550 943l-388 -439h495v-41h-559v37l416 468q109 122 109 244q0 85 -68.5 145t-170.5 60q-99 0 -169.5 -61.5t-81.5 -171.5h-43q12 128 95.5 201t198.5 73q120 0 202 -72t82 -174q0 -136 -118 -269zM580 10l701 1434l38 -21l-699 -1433zM1476 -27q-86 0 -160 41t-120 106
l30 31q43 -63 109 -100t141 -37q118 0 196.5 75t78.5 190q0 114 -78.5 189t-196.5 75q-69 0 -125.5 -33t-87.5 -85l-32 5l60 539h468v-41h-428l-50 -420q74 76 198 76q133 0 225 -87t92 -218t-92.5 -218.5t-227.5 -87.5z" />
    <glyph glyph-name="threefifths" unicode="&#x2157;" horiz-adv-x="1898" 
d="M640 739q0 109 -83.5 185t-200.5 76q-50 0 -95 -14l-20 27l346 380h-462v41h519v-37l-327 -358q12 2 39 2q138 0 233.5 -88t95.5 -214q0 -127 -95 -214t-234 -87q-182 0 -281 154l29 33q40 -67 105.5 -106.5t146.5 -39.5q118 0 201 74.5t83 185.5zM1476 -27
q-86 0 -160 41t-120 106l30 31q43 -63 109 -100t141 -37q118 0 196.5 75t78.5 190q0 114 -78.5 189t-196.5 75q-69 0 -125.5 -33t-87.5 -85l-32 5l60 539h468v-41h-428l-50 -420q74 76 198 76q133 0 225 -87t92 -218t-92.5 -218.5t-227.5 -87.5zM580 10l701 1434l38 -21
l-699 -1433z" />
    <glyph glyph-name="fourfifths" unicode="&#x2158;" horiz-adv-x="1898" 
d="M49 696v37l483 701h42v-697h147v-41h-147v-233h-45v233h-480zM106 737h423v617zM580 10l701 1434l38 -21l-699 -1433zM1476 -27q-86 0 -160 41t-120 106l30 31q43 -63 109 -100t141 -37q118 0 196.5 75t78.5 190q0 114 -78.5 189t-196.5 75q-69 0 -125.5 -33t-87.5 -85
l-32 5l60 539h468v-41h-428l-50 -420q74 76 198 76q133 0 225 -87t92 -218t-92.5 -218.5t-227.5 -87.5z" />
    <glyph glyph-name="onesixth" unicode="&#x2159;" horiz-adv-x="1898" 
d="M1617 971l-268 -418q66 40 155 40q134 0 227 -89.5t93 -218.5q0 -130 -93 -220t-227 -90t-226 90t-92 220q0 89 45 159l334 527h52zM1231 285q0 -114 79 -191.5t194 -77.5q116 0 195.5 77.5t79.5 191.5q0 113 -79.5 190t-195.5 77q-115 0 -194 -77t-79 -190zM451 1434h38
v-971h-45v920l-243 -138l-21 36zM580 10l701 1434l38 -21l-699 -1433z" />
    <glyph glyph-name="fivesixths" unicode="&#x215a;" horiz-adv-x="1898" 
d="M364 438q-86 0 -160 41t-120 106l30 30q42 -63 108.5 -99.5t141.5 -36.5q118 0 196.5 74.5t78.5 189.5q0 114 -79 189.5t-196 75.5q-69 0 -125.5 -33t-87.5 -85l-32 5l60 539h468v-41h-428l-50 -420q74 76 198 76q133 0 225 -87.5t92 -218.5t-92.5 -218t-227.5 -87z
M580 10l701 1434l38 -21l-699 -1433zM1617 971l-268 -418q66 40 155 40q134 0 227 -89.5t93 -218.5q0 -130 -93 -220t-227 -90t-226 90t-92 220q0 89 45 159l334 527h52zM1231 285q0 -114 79 -191.5t194 -77.5q116 0 195.5 77.5t79.5 191.5q0 113 -79.5 190t-195.5 77
q-115 0 -194 -77t-79 -190z" />
    <glyph glyph-name="oneeighth" unicode="&#x215b;" horiz-adv-x="1898" 
d="M1281 751q0 -86 64.5 -144.5t159.5 -58.5t159.5 58.5t64.5 144.5q0 85 -64.5 143t-159.5 58t-159.5 -58t-64.5 -143zM1231 260q0 -103 79 -174.5t195 -71.5t195 71.5t79 174.5t-79.5 175.5t-194.5 72.5t-194.5 -72.5t-79.5 -175.5zM1774 751q0 -72 -44.5 -134t-119.5 -88
q97 -31 155.5 -105t58.5 -164q0 -120 -92.5 -203.5t-226.5 -83.5t-226.5 83.5t-92.5 203.5q0 90 59 164t156 105q-77 25 -121 87t-44 135q0 103 77.5 172.5t191.5 69.5t191.5 -69.5t77.5 -172.5zM451 1434h38v-971h-45v920l-243 -138l-21 36zM580 10l701 1434l38 -21
l-699 -1433z" />
    <glyph glyph-name="threeeighths" unicode="&#x215c;" horiz-adv-x="1898" 
d="M640 739q0 109 -83.5 185t-200.5 76q-50 0 -95 -14l-20 27l346 380h-462v41h519v-37l-327 -358q12 2 39 2q138 0 233.5 -88t95.5 -214q0 -127 -95 -214t-234 -87q-182 0 -281 154l29 33q40 -67 105.5 -106.5t146.5 -39.5q118 0 201 74.5t83 185.5zM580 10l701 1434
l38 -21l-699 -1433zM1281 751q0 -86 64.5 -144.5t159.5 -58.5t159.5 58.5t64.5 144.5q0 85 -64.5 143t-159.5 58t-159.5 -58t-64.5 -143zM1231 260q0 -103 79 -174.5t195 -71.5t195 71.5t79 174.5t-79.5 175.5t-194.5 72.5t-194.5 -72.5t-79.5 -175.5zM1774 751
q0 -72 -44.5 -134t-119.5 -88q97 -31 155.5 -105t58.5 -164q0 -120 -92.5 -203.5t-226.5 -83.5t-226.5 83.5t-92.5 203.5q0 90 59 164t156 105q-77 25 -121 87t-44 135q0 103 77.5 172.5t191.5 69.5t191.5 -69.5t77.5 -172.5z" />
    <glyph glyph-name="fiveeighths" unicode="&#x215d;" horiz-adv-x="1898" 
d="M364 438q-86 0 -160 41t-120 106l30 30q42 -63 108.5 -99.5t141.5 -36.5q118 0 196.5 74.5t78.5 189.5q0 114 -79 189.5t-196 75.5q-69 0 -125.5 -33t-87.5 -85l-32 5l60 539h468v-41h-428l-50 -420q74 76 198 76q133 0 225 -87.5t92 -218.5t-92.5 -218t-227.5 -87z
M580 10l701 1434l38 -21l-699 -1433zM1281 751q0 -86 64.5 -144.5t159.5 -58.5t159.5 58.5t64.5 144.5q0 85 -64.5 143t-159.5 58t-159.5 -58t-64.5 -143zM1231 260q0 -103 79 -174.5t195 -71.5t195 71.5t79 174.5t-79.5 175.5t-194.5 72.5t-194.5 -72.5t-79.5 -175.5z
M1774 751q0 -72 -44.5 -134t-119.5 -88q97 -31 155.5 -105t58.5 -164q0 -120 -92.5 -203.5t-226.5 -83.5t-226.5 83.5t-92.5 203.5q0 90 59 164t156 105q-77 25 -121 87t-44 135q0 103 77.5 172.5t191.5 69.5t191.5 -69.5t77.5 -172.5z" />
    <glyph glyph-name="seveneighths" unicode="&#x215e;" horiz-adv-x="1898" 
d="M580 10l701 1434l38 -21l-699 -1433zM104 1434h580v-35l-406 -936h-51l405 930h-528v41zM1281 751q0 -86 64.5 -144.5t159.5 -58.5t159.5 58.5t64.5 144.5q0 85 -64.5 143t-159.5 58t-159.5 -58t-64.5 -143zM1231 260q0 -103 79 -174.5t195 -71.5t195 71.5t79 174.5
t-79.5 175.5t-194.5 72.5t-194.5 -72.5t-79.5 -175.5zM1774 751q0 -72 -44.5 -134t-119.5 -88q97 -31 155.5 -105t58.5 -164q0 -120 -92.5 -203.5t-226.5 -83.5t-226.5 83.5t-92.5 203.5q0 90 59 164t156 105q-77 25 -121 87t-44 135q0 103 77.5 172.5t191.5 69.5
t191.5 -69.5t77.5 -172.5z" />
    <glyph glyph-name="uni215F" unicode="&#x215f;" horiz-adv-x="1898" 
d="M451 1434h38v-971h-45v920l-243 -138l-21 36zM580 10l701 1434l38 -21l-699 -1433z" />
    <glyph glyph-name="arrowleft" unicode="&#x2190;" horiz-adv-x="1761" 
d="M572 293l-461 387l461 388l28 -33l-402 -336h1490v-39h-1490l402 -334z" />
    <glyph glyph-name="arrowup" unicode="&#x2191;" horiz-adv-x="1761" 
d="M494 1035l387 462l388 -462l-33 -27l-336 402v-1490h-39v1490l-335 -402z" />
    <glyph glyph-name="arrowright" unicode="&#x2192;" horiz-adv-x="1761" 
d="M1647 680l-462 -387l-28 33l403 334h-1490v39h1490l-403 336l28 33z" />
    <glyph glyph-name="arrowdown" unicode="&#x2193;" horiz-adv-x="1761" 
d="M881 -42l-387 462l32 27l335 -402v1490h39v-1490l336 402l33 -27z" />
    <glyph glyph-name="arrowboth" unicode="&#x2194;" horiz-adv-x="1761" 
d="M562 292l-462 387l462 388l28 -33l-403 -336h1388l-403 336l28 33l462 -388l-462 -387l-28 33l403 334h-1388l403 -334z" />
    <glyph glyph-name="arrowupdn" unicode="&#x2195;" horiz-adv-x="1761" 
d="M492 1048l387 461l388 -461l-33 -28l-336 402v-1387l336 402l33 -27l-388 -462l-387 462l32 27l335 -402v1387l-335 -402z" />
    <glyph glyph-name="arrowupdnbse" unicode="&#x21a8;" horiz-adv-x="1761" 
d="M537 -180v41h688v-41h-688zM492 1048l387 461l388 -461l-33 -28l-336 402v-1387l336 402l33 -27l-388 -462l-387 462l32 27l335 -402v1387l-335 -402z" />
    <glyph glyph-name="partialdiff" unicode="&#x2202;" horiz-adv-x="1211" 
d="M88 438q0 194 141 328.5t346 134.5q272 0 482 -249q2 38 2 61q0 327 -132.5 515.5t-361.5 188.5q-205 0 -355 -159l-24 38q73 76 171.5 119t207.5 43q248 0 393.5 -201.5t145.5 -543.5q0 -340 -141 -539t-388 -199q-205 0 -346 134.5t-141 328.5zM575 860
q-186 0 -314 -122.5t-128 -299.5t128 -299.5t314 -122.5q207 0 331.5 152t147.5 424q-203 268 -479 268z" />
    <glyph glyph-name="Delta" unicode="&#x2206;" horiz-adv-x="1351" 
d="M698 1434l580 -1434h-1204l579 1434h45zM676 1376l-533 -1335h1065z" />
    <glyph glyph-name="product" unicode="&#x220f;" horiz-adv-x="1361" 
d="M1165 1516v-1743h-45v1702h-878v-1702h-45v1743h968z" />
    <glyph glyph-name="summation" unicode="&#x2211;" horiz-adv-x="1290" 
d="M147 -186l614 841l-614 820v41h996v-41h-939l605 -807v-25l-605 -829h939v-41h-996v41z" />
    <glyph glyph-name="minus" unicode="&#x2212;" horiz-adv-x="1138" 
d="M1020 659h-901v41h901v-41z" />
    <glyph glyph-name="uni2215" unicode="&#x2215;" horiz-adv-x="327" 
d="M-206 10l702 1434l38 -21l-700 -1433z" />
    <glyph glyph-name="uni2219" unicode="&#x2219;" horiz-adv-x="589" 
d="M238 679q0 25 16 41t41 16t41 -16t16 -41t-16 -41t-41 -16t-41 16t-16 41z" />
    <glyph glyph-name="radical" unicode="&#x221a;" horiz-adv-x="1110" 
d="M499 0h-37l-392 768h52l354 -699l516 1508h48z" />
    <glyph glyph-name="infinity" unicode="&#x221e;" horiz-adv-x="1507" 
d="M375 424q42 0 81 13.5t69 32t68 57t63 68t70 85.5q-45 56 -70 85.5t-63 68t-68 57t-69 32t-81 13.5q-114 0 -191.5 -74t-77.5 -182t77.5 -182t191.5 -74zM754 645q-38 -46 -59 -70.5t-55 -60.5t-60 -55t-60 -39t-70 -28.5t-75 -8.5q-132 0 -223 86t-91 211t91 211t223 86
q39 0 75 -8.5t70 -28.5t60 -39t60 -55t55 -60.5t59 -70.5q38 46 59 70.5t55 60.5t60 55t60 39t70 28.5t75 8.5q132 0 222.5 -86t90.5 -211t-90.5 -211t-222.5 -86q-39 0 -75 8.5t-70 28.5t-60 39t-60 55t-55 60.5t-59 70.5zM1133 424q114 0 191 74t77 182t-77 182t-191 74
q-52 0 -96.5 -17t-90 -57t-78 -76.5t-87.5 -105.5q55 -69 87.5 -105.5t78 -76.5t90 -57t96.5 -17z" />
    <glyph glyph-name="orthogonal" unicode="&#x221f;" horiz-adv-x="1209" 
d="M1140 41v-41h-953v1178h45v-1137h908z" />
    <glyph glyph-name="intersection" unicode="&#x2229;" horiz-adv-x="1265" 
d="M1063 0v774q0 189 -124.5 319t-305.5 130t-305.5 -130t-124.5 -319v-774h-45v774q0 206 138 348t337 142t337 -142t138 -348v-774h-45z" />
    <glyph glyph-name="integral" unicode="&#x222b;" horiz-adv-x="849" 
d="M402 -119v1342q0 167 81 260.5t235 93.5q42 0 96 -8v-41q-36 8 -96 8q-137 0 -204 -82.5t-67 -232.5v-1342q0 -167 -80.5 -260.5t-234.5 -93.5q-42 0 -96 8v41q36 -8 96 -8q137 0 203.5 82.5t66.5 232.5z" />
    <glyph glyph-name="approxequal" unicode="&#x2248;" horiz-adv-x="1138" 
d="M817 731q-42 0 -80 12.5t-72.5 37.5t-57.5 46t-54 54q-38 40 -66.5 65t-75 49.5t-89.5 24.5q-176 0 -212 -240l-44 11q17 128 83 199t173 71q42 0 80 -12.5t72.5 -37.5t57.5 -46t54 -54q38 -40 66.5 -65t75 -49.5t89.5 -24.5q176 0 212 240l44 -11q-17 -128 -83 -199
t-173 -71zM817 281q-42 0 -80.5 12.5t-72.5 37t-57.5 46t-53.5 53.5q-38 40 -66.5 65t-75 49.5t-89.5 24.5q-176 0 -212 -239l-44 10q17 128 83 199t173 71q42 0 80.5 -12.5t72.5 -37t57.5 -46t53.5 -53.5q38 -40 66.5 -65t75 -49.5t89.5 -24.5q176 0 212 239l44 -10
q-17 -128 -83 -199t-173 -71z" />
    <glyph glyph-name="notequal" unicode="&#x2260;" horiz-adv-x="1138" 
d="M1020 414h-560l-182 -349l-38 21l171 328h-292v41h313l236 450h-549v41h570l169 324l38 -22l-158 -302h282v-41h-303l-236 -450h539v-41z" />
    <glyph glyph-name="equivalence" unicode="&#x2261;" horiz-adv-x="1138" 
d="M1020 659h-901v41h901v-41zM1020 993h-901v41h901v-41zM1020 326h-901v41h901v-41z" />
    <glyph glyph-name="lessequal" unicode="&#x2264;" horiz-adv-x="1138" 
d="M1020 0h-901v41h901v-41zM150 799l824 440l25 -38l-794 -419l794 -418l-25 -38l-824 440v33z" />
    <glyph glyph-name="greaterequal" unicode="&#x2265;" horiz-adv-x="1138" 
d="M1020 0h-901v41h901v-41zM165 1239l824 -440v-33l-824 -440l-26 38l795 418l-795 419z" />
    <glyph glyph-name="house" unicode="&#x2302;" horiz-adv-x="1265" 
d="M193 41h880v659l-440 537l-440 -537v-659zM1118 0h-971v713l486 590l485 -590v-713z" />
    <glyph glyph-name="revlogicalnot" unicode="&#x2310;" horiz-adv-x="1138" 
d="M164 659v-403h-45v444h901v-41h-856z" />
    <glyph glyph-name="uni2318" unicode="&#x2318;" horiz-adv-x="1650" 
d="M664 500h323v323h-323v-323zM1032 1085v-221h236q100 0 167.5 63.5t67.5 157.5t-67.5 158t-167.5 64t-168 -64t-68 -158zM383 864h235v221q0 94 -67.5 158t-167.5 64t-168 -64t-68 -158t68 -157.5t168 -63.5zM618 500v323h-235q-118 0 -199.5 76t-81.5 186t81.5 186.5
t199.5 76.5t199.5 -76.5t81.5 -186.5v-221h323v221q0 110 81.5 186.5t199.5 76.5t199 -76.5t81 -186.5t-81 -186t-199 -76h-236v-323h236q118 0 199 -76t81 -186t-81 -186.5t-199 -76.5t-199.5 76.5t-81.5 186.5v221h-323v-221q0 -110 -81.5 -186.5t-199.5 -76.5
t-199.5 76.5t-81.5 186.5t81.5 186t199.5 76h235zM1032 459v-221q0 -94 68 -158t168 -64t167.5 64t67.5 158t-67.5 157.5t-167.5 63.5h-236zM618 459h-235q-100 0 -168 -63.5t-68 -157.5t68 -158t168 -64t167.5 64t67.5 158v221z" />
    <glyph glyph-name="lozenge" unicode="&#x25ca;" horiz-adv-x="1126" 
d="M1022 618l-459 -940l-459 940l459 941zM975 618l-412 844l-411 -844l411 -843z" />
    <glyph glyph-name="H18533" unicode="&#x25cf;" horiz-adv-x="2048" 
d="M332 668q0 187 93 346.5t252.5 252.5t346.5 93t346.5 -93t252.5 -252.5t93 -346.5t-93 -347t-252.5 -253t-346.5 -93t-346.5 93t-252.5 253t-93 347z" />
    <glyph glyph-name="commaaccent" horiz-adv-x="825" 
d="M236 -443l288 329l35 -27l-290 -330z" />
    <glyph glyph-name="zero.tnum" horiz-adv-x="1101" 
d="M90 717q0 158 29.5 292t85.5 235t145 157.5t201 56.5t201 -56.5t145 -157.5t85.5 -235t29.5 -292q0 -213 -50 -378t-156 -264.5t-255 -99.5t-255 99.5t-156 264.5t-50 378zM135 717q0 -147 25.5 -272.5t75.5 -222t131 -151.5t184 -55t184 55t131 151.5t75.5 222
t25.5 272.5q0 198 -44 353t-139.5 251t-232.5 96t-232.5 -96t-139.5 -251t-44 -353z" />
    <glyph glyph-name="one.tnum" horiz-adv-x="927" 
d="M526 1434h45v-1434h-45v1386l-364 -212l-21 38z" />
    <glyph glyph-name="two.tnum" horiz-adv-x="1024" 
d="M744 709l-583 -668h739v-41h-801v41l609 692q161 184 161 369q0 131 -103.5 223t-256.5 92q-146 0 -240.5 -92t-113.5 -238l-45 2q17 160 123.5 264.5t275.5 104.5q172 0 288.5 -103.5t116.5 -252.5q0 -200 -170 -393z" />
    <glyph glyph-name="three.tnum" horiz-adv-x="1079" 
d="M919 414q0 168 -125 282.5t-304 114.5q-79 0 -135 -20l-22 28l518 574h-690v41h743v-41l-495 -549q36 8 81 8q202 0 338 -126.5t136 -311.5t-136 -312t-338 -127q-134 0 -235.5 58.5t-165.5 161.5l31 30q56 -95 152.5 -152t217.5 -57q179 0 304 115t125 283z" />
    <glyph glyph-name="four.tnum" horiz-adv-x="1143" 
d="M79 352v41l706 1041h45v-1041h216v-41h-216v-352h-45v352h-706zM136 393h649v965z" />
    <glyph glyph-name="five.tnum" horiz-adv-x="1089" 
d="M505 -25q-122 0 -226 59t-171 152l28 31q62 -92 159 -146.5t210 -54.5q177 0 296.5 115.5t119.5 288.5t-119.5 288t-296.5 115q-105 0 -189.5 -48.5t-130.5 -125.5l-28 4l86 781h669v-41h-628l-78 -662q50 60 128.5 96.5t174.5 36.5q191 0 324 -127t133 -317
t-133.5 -317.5t-327.5 -127.5z" />
    <glyph glyph-name="six.tnum" horiz-adv-x="1156" 
d="M725 1434l-414 -650q115 88 267 88q192 0 325 -129.5t133 -318.5t-133 -319t-325 -130t-325.5 130t-133.5 319q0 129 65 233l488 777h53zM164 424q0 -170 120.5 -289t293.5 -119t293 119t120 289t-120 288.5t-293 118.5t-293.5 -118.5t-120.5 -288.5z" />
    <glyph glyph-name="seven.tnum" horiz-adv-x="965" 
d="M72 1434h831v-41l-602 -1393h-53l602 1393h-778v41z" />
    <glyph glyph-name="eight.tnum" horiz-adv-x="1136" 
d="M228 1110q0 -129 98 -218t242 -89t242 89t98 218t-98 218t-242 89t-242 -89t-98 -218zM155 389q0 -155 119.5 -264t293.5 -109t294 109t120 264t-120 264t-294 109t-293.5 -109t-119.5 -264zM953 1110q0 -112 -72 -204t-194 -122q155 -38 247.5 -147t92.5 -248
q0 -172 -133 -293t-326 -121t-325.5 121t-132.5 293q0 139 92.5 248t247.5 147q-123 30 -195 122t-72 204q0 148 111 248t274 100t274 -100t111 -248z" />
    <glyph glyph-name="nine.tnum" horiz-adv-x="1156" 
d="M431 0l414 649q-115 -88 -266 -88q-192 0 -325.5 130t-133.5 319t133.5 318.5t325.5 129.5t325 -129.5t133 -318.5q0 -130 -65 -234l-488 -776h-53zM992 1010q0 170 -120 288.5t-293 118.5t-293.5 -118.5t-120.5 -288.5t120.5 -289t293.5 -119t293 119t120 289z" />
    <glyph glyph-name="parenleft.case" horiz-adv-x="825" 
d="M279 717q0 278 104.5 532.5t280.5 419.5l30 -29q-172 -163 -271 -409t-99 -514t99 -514.5t271 -409.5l-30 -29q-176 165 -280.5 420t-104.5 533z" />
    <glyph glyph-name="parenright.case" horiz-adv-x="825" 
d="M547 717q0 -278 -104.5 -533t-280.5 -420l-31 29q172 163 271.5 409.5t99.5 514.5t-99.5 514t-271.5 409l31 29q176 -165 280.5 -419.5t104.5 -532.5z" />
    <glyph glyph-name="hyphen.case" horiz-adv-x="798" 
d="M682 709h-565v41h565v-41z" />
    <glyph glyph-name="at.case" horiz-adv-x="1906" 
d="M932 1126q-147 0 -242 -113t-95 -282t95 -282t242 -113t242.5 113t95.5 282t-95.5 282t-242.5 113zM1486 295q-83 0 -145.5 74t-65.5 168q-40 -105 -127.5 -173.5t-202.5 -68.5q-166 0 -280.5 125.5t-114.5 310.5t114.5 310.5t280.5 125.5q111 0 194.5 -63t129.5 -164
v207h45v-578q0 -99 51 -166t121 -67q83 0 151.5 62.5t108 170t39.5 234.5q0 220 -109 402t-300 287t-423 105q-230 0 -421 -113.5t-300.5 -309.5t-109.5 -431q0 -177 64.5 -334.5t176 -272t269.5 -181t338 -66.5q140 0 278 43t252 125l19 -39q-240 -170 -549 -170
q-189 0 -355.5 69.5t-284 189t-185.5 285t-68 351.5q0 185 68 351t185 285t279.5 189t343.5 70q244 0 445.5 -110t316.5 -301.5t115 -423.5q0 -139 -45.5 -256t-124.5 -184.5t-174 -67.5z" />
    <glyph glyph-name="bracketleft.case" horiz-adv-x="825" 
d="M263 -195v1823h483v-41h-438v-1741h438v-41h-483z" />
    <glyph glyph-name="bracketright.case" horiz-adv-x="825" 
d="M562 1628v-1823h-483v41h438v1741h-438v41h483z" />
    <glyph glyph-name="braceleft.case" horiz-adv-x="825" 
d="M169 696v41q101 0 169.5 65.5t68.5 160.5v374q0 123 81 207t201 84h70v-41h-70q-101 0 -169 -72.5t-68 -177.5v-374q0 -92 -51 -156t-134 -90q83 -26 134 -90t51 -156v-375q0 -105 68 -177.5t169 -72.5h70v-41h-70q-120 0 -201 84t-81 207v375q0 95 -68.5 160t-169.5 65z
" />
    <glyph glyph-name="braceright.case" horiz-adv-x="825" 
d="M656 737v-41q-101 0 -169 -65t-68 -160v-375q0 -123 -81.5 -207t-201.5 -84h-69v41h69q101 0 169.5 72.5t68.5 177.5v375q0 92 50.5 156t133.5 90q-83 26 -133.5 90t-50.5 156v374q0 105 -68.5 177.5t-169.5 72.5h-69v41h69q120 0 201.5 -84t81.5 -207v-374
q0 -96 68 -161t169 -65z" />
    <glyph glyph-name="exclamdown.case" horiz-adv-x="614" 
d="M285 0v1061h45v-1061h-45zM254 1405q0 23 15 38t38 15t38 -15t15 -38t-15 -38t-38 -15t-38 15t-15 38z" />
    <glyph glyph-name="guillemotleft.case" horiz-adv-x="1262" 
d="M112 676v24l510 339l21 -32l-485 -319l485 -318l-21 -33zM613 676v24l510 339l22 -32l-486 -319l486 -318l-22 -33z" />
    <glyph glyph-name="periodcentered.case" horiz-adv-x="589" 
d="M238 728q0 25 16 41t41 16t41 -16t16 -41t-16 -41t-41 -16t-41 16t-16 41z" />
    <glyph glyph-name="guillemotright.case" horiz-adv-x="1262" 
d="M1151 700v-24l-510 -339l-21 33l485 318l-485 319l21 32zM649 700v-24l-510 -339l-21 33l485 318l-485 319l21 32z" />
    <glyph glyph-name="questiondown.case" horiz-adv-x="1085" 
d="M595 1040h45q0 -146 -51.5 -234.5t-177.5 -164.5q-69 -42 -105 -68t-69 -63t-45 -80t-12 -103q0 -136 102 -223.5t270 -87.5q150 0 261 70t144 211h45q-22 -107 -89.5 -181t-159 -107.5t-201.5 -33.5q-184 0 -300.5 98t-116.5 254q0 114 52 189t186 149q122 68 172 152.5
t50 222.5zM666 1405q0 -23 -15.5 -38t-38.5 -15t-38 15t-15 38t15 38t38 15t38.5 -15t15.5 -38z" />
    <glyph glyph-name="endash.case" horiz-adv-x="1024" 
d="M1024 709h-1024v41h1024v-41z" />
    <glyph glyph-name="emdash.case" horiz-adv-x="2048" 
d="M2048 709h-2048v41h2048v-41z" />
    <glyph glyph-name="bullet.case" horiz-adv-x="819" 
d="M201 729q0 88 60 147.5t149 59.5t148.5 -59.5t59.5 -147.5t-59.5 -147.5t-148.5 -59.5t-149 59.5t-60 147.5z" />
    <glyph glyph-name="guilsinglleft.case" horiz-adv-x="760" 
d="M112 676v24l510 339l21 -32l-485 -319l485 -318l-21 -33z" />
    <glyph glyph-name="guilsinglright.case" horiz-adv-x="760" 
d="M649 700v-24l-510 -339l-21 33l485 318l-485 319l21 32z" />
    <glyph glyph-name="zero.numerator" 
d="M73 948q0 147 34.5 260t108 181.5t177.5 68.5t177.5 -68.5t108.5 -182t35 -259.5t-35 -259.5t-108.5 -182t-177.5 -68.5t-177.5 68.5t-108 181.5t-34.5 260zM118 948q0 -133 29 -237t92.5 -168t153.5 -64t153.5 64t93 168t29.5 237t-29.5 237t-93 168t-153.5 64
t-153.5 -64t-92.5 -168t-29 -237z" />
    <glyph glyph-name="one.numerator" 
d="M451 1434h38v-971h-45v920l-243 -138l-21 36z" />
    <glyph glyph-name="two.numerator" 
d="M550 943l-388 -439h495v-41h-559v37l416 468q109 122 109 244q0 85 -68.5 145t-170.5 60q-99 0 -169.5 -61.5t-81.5 -171.5h-43q12 128 95.5 201t198.5 73q120 0 202 -72t82 -174q0 -136 -118 -269z" />
    <glyph glyph-name="three.numerator" 
d="M640 739q0 109 -83.5 185t-200.5 76q-50 0 -95 -14l-20 27l346 380h-462v41h519v-37l-327 -358q12 2 39 2q138 0 233.5 -88t95.5 -214q0 -127 -95 -214t-234 -87q-182 0 -281 154l29 33q40 -67 105.5 -106.5t146.5 -39.5q118 0 201 74.5t83 185.5z" />
    <glyph glyph-name="four.numerator" 
d="M49 696v37l483 701h42v-697h147v-41h-147v-233h-45v233h-480zM106 737h423v617z" />
    </font>
</defs>
</svg>
