<?xml version="1.0" standalone="no"?>
<!DOCTYPE svg PUBLIC "-//W3C//DTD SVG 1.1//EN" "http://www.w3.org/Graphics/SVG/1.1/DTD/svg11.dtd" >
<svg xmlns="http://www.w3.org/2000/svg" xmlns:xlink="http://www.w3.org/1999/xlink" version="1.1">
<metadata>
Created by FontForge 20201107 at Tue Jan 23 19:03:47 2024
 By 
Copyright (c) 2017 by Hyun-Seung Lee. All rights reserved.
</metadata>
<defs>
<font id="CarosHeavy" horiz-adv-x="834" >
  <font-face 
    font-family="Caros Heavy"
    font-weight="800"
    font-stretch="normal"
    units-per-em="2048"
    panose-1="2 11 9 3 3 3 2 2 2 4"
    ascent="1638"
    descent="-410"
    x-height="1061"
    cap-height="1434"
    bbox="-855 -562 2576 2093"
    underline-thickness="49"
    underline-position="-423"
    unicode-range="U+0009-FB04"
  />
<missing-glyph horiz-adv-x="1024" 
d="M932 0h-840v1536h840v-1536zM394 287h236v962h-236v-962z" />
    <glyph glyph-name="ff" unicode="ff" horiz-adv-x="1588" 
d="M1547 1481v-272q-51 8 -100 8q-54 0 -82 -26t-28 -73v-57h210v-325h-210v-736h-378v736h-399v-736h-378v736h-153v325h153v63q0 181 102.5 276t300.5 95q151 0 262 -37l-36 -265q-86 24 -141 24q-54 0 -82 -26t-28 -73v-57h399v63q0 181 102 276t298 95q99 0 188 -14z
" />
    <glyph glyph-name="fi" unicode="fi" horiz-adv-x="1455" 
d="M1336 1061v-1061h-378v735h-398v-735h-379v735h-153v326h153v63q0 180 102.5 275.5t298.5 95.5q138 0 253 -36q-5 -50 -15 -142.5t-13 -121.5q-71 20 -136 20q-55 0 -83 -25.5t-28 -71.5v-57h776zM937 1332q0 84 60.5 140.5t150.5 56.5q89 0 149.5 -56.5t60.5 -140.5
t-60.5 -140t-149.5 -56q-90 0 -150.5 56t-60.5 140z" />
    <glyph glyph-name="fl" unicode="fl" horiz-adv-x="1422" 
d="M810 1061v-326h-250v-735h-379v735h-161v326h161v63q0 180 102.5 274t298.5 94q203 0 344 -106v109h379v-1495h-379v1135q-109 80 -256 80q-54 0 -82 -25.5t-28 -71.5v-57h250z" />
    <glyph glyph-name="ffi" unicode="ffi" horiz-adv-x="2231" 
d="M1550 1480v-272q-46 7 -102 7q-55 0 -83 -25.5t-28 -71.5v-57h776v-1061h-378v735h-398v-735h-379v735h-398v-735h-379v735h-153v326h153v63q0 180 103 275.5t301 95.5q138 0 262 -37l-37 -265q-77 22 -140 22q-54 0 -82 -25.5t-28 -71.5v-57h398v63q0 180 102.5 275.5
t298.5 95.5q104 0 191 -15zM1714 1332q0 84 60.5 140.5t149.5 56.5t149.5 -56.5t60.5 -140.5t-60.5 -140t-149.5 -56t-149.5 56t-60.5 140z" />
    <glyph glyph-name="ffl" unicode="ffl" horiz-adv-x="2199" 
d="M1553 1061v-326h-216v-735h-379v735h-398v-735h-379v735h-153v326h153v63q0 368 421 368q156 0 277 -49l-46 -257q-84 29 -163 29q-54 0 -82 -25.5t-28 -71.5v-57h398v63q0 180 102.5 274t298.5 94q92 0 183.5 -27t160.5 -79v109h379v-1495h-379v1135q-111 80 -256 80
q-54 0 -82 -25.5t-28 -71.5v-57h216z" />
    <glyph glyph-name=".notdef" horiz-adv-x="1024" 
d="M932 0h-840v1536h840v-1536zM394 287h236v962h-236v-962z" />
    <glyph glyph-name=".null" horiz-adv-x="0" 
 />
    <glyph glyph-name=".null" horiz-adv-x="0" 
 />
    <glyph glyph-name="nonmarkingreturn" horiz-adv-x="682" 
 />
    <glyph glyph-name="CR" unicode="&#x9;" horiz-adv-x="0" 
 />
    <glyph glyph-name="space" unicode=" " horiz-adv-x="623" 
 />
    <glyph glyph-name="exclam" unicode="!" horiz-adv-x="648" 
d="M177 460l-48 974h390l-48 -974h-294zM95 181q0 87 66 146.5t163 59.5q98 0 163.5 -59.5t65.5 -146.5t-65.5 -146.5t-163.5 -59.5q-97 0 -163 59.5t-66 146.5z" />
    <glyph glyph-name="quotedbl" unicode="&#x22;" horiz-adv-x="1020" 
d="M158 936l-48 498h358l-48 -498h-262zM601 936l-48 498h358l-48 -498h-262z" />
    <glyph glyph-name="numbersign" unicode="#" horiz-adv-x="1434" 
d="M1281 1434l-50 -295h144v-288h-193l-48 -278h165v-287h-215l-49 -286h-350l49 286h-181l-48 -286h-351l49 286h-145v287h194l48 278h-166v288h215l50 295h352l-52 -295h181l51 295h350zM650 851l-48 -278h180l49 278h-181z" />
    <glyph glyph-name="dollar" unicode="$" horiz-adv-x="1234" 
d="M99 278l155 176q92 -81 178 -119.5t185 -38.5q75 0 121 33t46 84q0 56 -51.5 93.5t-193.5 68.5q-197 43 -313 158t-116 280q0 194 140 319.5t364 125.5q225 0 373 -122.5t157 -333.5h-372q-5 65 -42 103.5t-98 38.5q-60 0 -96 -28.5t-36 -71.5q0 -52 48 -92t170 -68
q222 -51 339.5 -163t117.5 -284q0 -198 -147 -330t-387 -132q-317 0 -542 303zM805 1369h-377v273h377v-273zM449 61h376v-270h-376v270z" />
    <glyph glyph-name="percent" unicode="%" horiz-adv-x="1895" 
d="M473 52l739 1434l204 -113l-738 -1433zM371 1075q0 -44 29.5 -74t75.5 -30t76 30t30 74q0 45 -30 75.5t-76 30.5t-75.5 -30.5t-29.5 -75.5zM83 1075q0 157 113 265t280 108t280 -108t113 -265q0 -156 -113 -264t-280 -108t-280 108t-113 264zM1314 358q0 -45 29.5 -75
t75.5 -30t76 30t30 75q0 44 -30 74.5t-76 30.5t-75.5 -30.5t-29.5 -74.5zM1026 358q0 156 113 264t280 108t280 -108t113 -264q0 -157 -113 -264.5t-280 -107.5t-280 107.5t-113 264.5z" />
    <glyph glyph-name="ampersand" unicode="&#x26;" horiz-adv-x="1538" 
d="M1115 1060l-353 -1q-25 115 -120 115q-36 0 -59.5 -23t-23.5 -57q0 -89 165 -251l261 -257q30 83 47 190l343 -48q-29 -225 -134 -399l167 -165l-228 -219l-156 152q-176 -122 -400 -122q-228 0 -379.5 114t-151.5 285q0 248 242 414q-76 89 -106 158t-30 145
q0 156 127 261.5t314 105.5q197 0 327 -111t148 -287zM624 263q98 0 177 58l-251 246q-92 -76 -92 -170q0 -58 46.5 -96t119.5 -38z" />
    <glyph glyph-name="quotesingle" unicode="'" horiz-adv-x="608" 
d="M173 936l-47 498h357l-47 -498h-263z" />
    <glyph glyph-name="parenleft" unicode="(" horiz-adv-x="906" 
d="M194 625q0 275 106.5 527.5t294.5 431.5l259 -171q-131 -159 -200.5 -362t-69.5 -426t69.5 -427t200.5 -363l-259 -171q-188 179 -294.5 432t-106.5 529z" />
    <glyph glyph-name="parenright" unicode=")" horiz-adv-x="906" 
d="M713 625q0 -276 -107 -529t-295 -432l-258 171q130 159 200 363t70 427q0 222 -69.5 425.5t-200.5 362.5l258 171q188 -179 295 -431.5t107 -527.5z" />
    <glyph glyph-name="asterisk" unicode="*" horiz-adv-x="1165" 
d="M846 679l224 -97l-154 -277l-199 140l25 -242h-320l25 242l-199 -140l-154 277l224 97l-224 97l154 277l199 -141l-25 243h320l-25 -243l199 141l154 -277z" />
    <glyph glyph-name="plus" unicode="+" horiz-adv-x="1206" 
d="M418 199v314h-302v333h302v313h369v-313h303v-333h-303v-314h-369z" />
    <glyph glyph-name="comma" unicode="," horiz-adv-x="623" 
d="M95 200q0 72 61 130.5t160 58.5q92 0 152.5 -61t60.5 -159q0 -107 -42 -204t-138.5 -182t-237.5 -133l-75 117q84 51 128 91t53 77t-8.5 70t-61.5 75q-52 49 -52 120z" />
    <glyph glyph-name="hyphen" unicode="-" horiz-adv-x="880" 
d="M764 511h-647v338h647v-338z" />
    <glyph glyph-name="period" unicode="." horiz-adv-x="623" 
d="M94 182q0 88 61.5 147.5t155.5 59.5q95 0 156.5 -59.5t61.5 -147.5t-61.5 -147.5t-156.5 -59.5q-94 0 -155.5 59.5t-61.5 147.5z" />
    <glyph glyph-name="slash" unicode="/" horiz-adv-x="1047" 
d="M1038 1471l-698 -1822l-331 129l703 1823z" />
    <glyph glyph-name="zero" unicode="0" horiz-adv-x="1247" 
d="M95 717q0 218 60.5 384t181 261.5t287.5 95.5q125 0 225.5 -55t166.5 -153.5t101 -234.5t35 -298q0 -163 -35 -299t-101 -234.5t-166.5 -153.5t-225.5 -55q-167 0 -287.5 95.5t-181 262t-60.5 384.5zM468 717q0 -188 40 -292t116 -104t115.5 104t39.5 292t-39.5 292
t-115.5 104t-116 -104t-40 -292z" />
    <glyph glyph-name="one" unicode="1" horiz-adv-x="1247" 
d="M554 1434h338v-1434h-389v1079l-218 -120l-138 253z" />
    <glyph glyph-name="two" unicode="2" horiz-adv-x="1247" 
d="M937 648l-287 -314h455v-334h-928v308l473 521q46 52 66.5 90.5t20.5 81.5q0 51 -31 84t-82 33q-52 0 -85.5 -37t-36.5 -106h-362q3 210 140 346.5t361 136.5q206 0 342 -115t136 -293q0 -202 -182 -402z" />
    <glyph glyph-name="three" unicode="3" horiz-adv-x="1247" 
d="M727 473q0 69 -48.5 117t-119.5 48q-39 0 -71 -15l-147 184l283 300h-450v327h877v-320l-265 -259q156 -45 245 -159.5t89 -270.5q0 -93 -36.5 -174.5t-102.5 -143t-166.5 -97t-221.5 -35.5q-143 0 -270.5 74.5t-220.5 216.5l178 184q128 -143 279 -143q67 0 117.5 49
t50.5 117z" />
    <glyph glyph-name="four" unicode="4" horiz-adv-x="1247" 
d="M66 241v306l584 887h351v-870h154v-323h-154v-241h-372v241h-563zM377 564h252v386z" />
    <glyph glyph-name="five" unicode="5" horiz-adv-x="1247" 
d="M615 1107q-9 -77 -23 -185q30 2 47 2q135 0 247.5 -57.5t179.5 -163t67 -237.5q0 -137 -63.5 -248t-184.5 -177t-279 -66q-160 0 -283.5 70t-224.5 209l173 188q147 -133 296 -133q71 0 123 49.5t52 119.5q0 72 -49 120.5t-122 48.5q-37 0 -71 -15t-55 -40l-280 37
l96 805h818v-327h-464z" />
    <glyph glyph-name="six" unicode="6" horiz-adv-x="1247" 
d="M1026 1434l-321 -494q119 -5 223.5 -66.5t169.5 -169t65 -233.5q0 -139 -72 -253.5t-195.5 -178.5t-271.5 -64q-149 0 -273 64t-196.5 178.5t-72.5 253.5q0 142 72 254l462 709h410zM453 474q0 -75 49 -126t121 -51t121.5 51t49.5 126t-49.5 126t-121.5 51t-121 -51
t-49 -126z" />
    <glyph glyph-name="seven" unicode="7" horiz-adv-x="1247" 
d="M154 1434h954v-294l-466 -1140h-404l459 1099h-543v335z" />
    <glyph glyph-name="eight" unicode="8" horiz-adv-x="1247" 
d="M457 449q0 -72 49 -119.5t118 -47.5t118 47.5t49 119.5q0 73 -48.5 120t-118.5 47t-118.5 -47t-48.5 -120zM1096 1046q0 -86 -42 -160t-113 -114q100 -44 156.5 -139t56.5 -202q0 -127 -69 -231.5t-191 -164.5t-270 -60t-270 60t-191.5 164.5t-69.5 231.5q0 107 56.5 202
t156.5 139q-71 40 -112.5 114t-41.5 160q0 174 135 293t337 119t337 -119t135 -293zM498 1033q0 -53 35.5 -89t90.5 -36t90.5 36t35.5 89t-35.5 89t-90.5 36t-90.5 -36t-35.5 -89z" />
    <glyph glyph-name="nine" unicode="9" horiz-adv-x="1247" 
d="M220 1l322 494q-89 4 -172 41.5t-146.5 99t-102 147.5t-38.5 181q0 139 72.5 253t196 178t271.5 64q149 0 273 -64t196 -178t72 -253q0 -144 -71 -254l-463 -709h-410zM794 961q0 75 -49 126t-121 51t-121.5 -51t-49.5 -126q0 -76 49.5 -127t121.5 -51t121 51.5t49 126.5
z" />
    <glyph glyph-name="colon" unicode=":" horiz-adv-x="623" 
d="M94 182q0 88 61.5 147.5t155.5 59.5q95 0 156.5 -59.5t61.5 -147.5t-61.5 -147.5t-156.5 -59.5q-94 0 -155.5 59.5t-61.5 147.5zM94 879q0 88 61.5 147t155.5 59q95 0 156.5 -59t61.5 -147t-61.5 -147.5t-156.5 -59.5q-94 0 -155.5 59.5t-61.5 147.5z" />
    <glyph glyph-name="semicolon" unicode=";" horiz-adv-x="623" 
d="M94 879q0 88 61.5 147t155.5 59q95 0 156.5 -59t61.5 -147t-61.5 -147.5t-156.5 -59.5q-94 0 -155.5 59.5t-61.5 147.5zM95 200q0 72 61 130.5t160 58.5q92 0 153 -61t61 -159q0 -79 -24.5 -154.5t-74 -144.5t-131.5 -126.5t-189 -93.5l-74 117q84 51 128 91t52.5 77
t-9 70t-61.5 75q-52 49 -52 120z" />
    <glyph glyph-name="less" unicode="&#x3c;" horiz-adv-x="1205" 
d="M112 790l857 474l140 -241l-523 -344l523 -343l-140 -242l-857 474v222z" />
    <glyph glyph-name="equal" unicode="=" horiz-adv-x="1206" 
d="M1090 761h-973v326h973v-326zM1090 271h-973v328h973v-328z" />
    <glyph glyph-name="greater" unicode="&#x3e;" horiz-adv-x="1205" 
d="M236 1264l857 -474v-222l-857 -474l-141 242l523 343l-523 344z" />
    <glyph glyph-name="question" unicode="?" horiz-adv-x="1146" 
d="M731 460h-390q0 164 57 255.5t212 179.5q45 26 61 53.5t16 69.5q0 35 -29 63t-74 28q-62 0 -99.5 -42t-37.5 -108h-372q0 229 144 364t373 135q214 0 350 -127t136 -308q0 -131 -61.5 -220.5t-203.5 -168.5q-46 -27 -64 -65.5t-18 -108.5zM325 181q0 87 65.5 146.5
t162.5 59.5q98 0 163 -59.5t65 -146.5t-65 -146.5t-163 -59.5q-97 0 -162.5 59.5t-65.5 146.5z" />
    <glyph glyph-name="at" unicode="@" horiz-adv-x="1995" 
d="M506 550q0 193 109.5 322.5t279.5 129.5q142 0 235 -100v80h318v-541q0 -43 26 -66t62 -23q64 0 109.5 71.5t45.5 185.5q0 126 -55.5 244t-148.5 205.5t-223 140t-271 52.5q-190 0 -348 -91t-249.5 -249t-91.5 -348q0 -143 54 -270.5t147.5 -219t227.5 -145t287 -53.5
q263 0 484 151l95 -186q-260 -172 -579 -172q-203 0 -381 69t-303.5 188.5t-198 285t-72.5 352.5q0 186 72.5 352.5t196.5 285t296 188t363 69.5q198 0 374 -69.5t298.5 -186.5t193.5 -273.5t71 -326.5q0 -229 -122.5 -366t-350.5 -137q-104 0 -179.5 35t-114.5 98
q-92 -135 -268 -135q-170 0 -279.5 130t-109.5 323zM825 550q0 -78 43.5 -128.5t108.5 -50.5q69 0 110.5 50t41.5 129t-41.5 129t-110.5 50q-65 0 -108.5 -50.5t-43.5 -128.5z" />
    <glyph glyph-name="A" unicode="A" horiz-adv-x="1430" 
d="M503 1434h424l482 -1434h-400l-80 274h-429l-79 -274h-401zM715 1030l-133 -460h266z" />
    <glyph glyph-name="B" unicode="B" horiz-adv-x="1294" 
d="M774 0h-631v1434h571q200 0 322.5 -108.5t122.5 -281.5q0 -100 -50 -179.5t-134 -113.5q113 -31 181.5 -119.5t68.5 -212.5q0 -182 -127 -300.5t-324 -118.5zM809 1001q0 59 -34 93.5t-89 34.5h-168v-255h168q55 0 89 34.5t34 92.5zM844 442q0 62 -37 101t-96 39h-193
v-278h193q59 0 96 38.5t37 99.5z" />
    <glyph glyph-name="C" unicode="C" horiz-adv-x="1550" 
d="M824 -25q-158 0 -297.5 57.5t-239 156.5t-157.5 236.5t-58 291.5q0 210 92.5 379t260 265.5t379.5 96.5q256 0 438.5 -142.5t235.5 -396.5h-412q-25 94 -93.5 148t-161.5 54q-157 0 -252.5 -114t-95.5 -290q0 -175 103.5 -290.5t264.5 -115.5q132 0 233.5 54.5
t188.5 169.5l209 -157q-107 -189 -266.5 -296t-371.5 -107z" />
    <glyph glyph-name="D" unicode="D" horiz-adv-x="1484" 
d="M693 0h-550v1434h550q158 0 292 -52.5t228 -146t146.5 -227.5t52.5 -291q0 -319 -199.5 -518t-519.5 -199zM532 336h131q166 0 262 100t96 281q0 180 -96 280t-262 100h-131v-761z" />
    <glyph glyph-name="E" unicode="E" horiz-adv-x="1185" 
d="M143 0v1434h934v-326h-543v-227h494v-320h-494v-235h562v-326h-953z" />
    <glyph glyph-name="F" unicode="F" horiz-adv-x="1116" 
d="M143 0v1434h914v-332h-523v-261h474v-332h-474v-509h-391z" />
    <glyph glyph-name="G" unicode="G" horiz-adv-x="1569" 
d="M775 780h722v-63q0 -171 -50 -310.5t-140.5 -234t-218.5 -146t-282 -51.5q-147 0 -282.5 58t-234 156.5t-157.5 236.5t-59 291q0 154 56.5 291.5t154 236t233.5 156t289 57.5q254 0 433.5 -132t243.5 -397h-415q-66 193 -268 193q-138 0 -237.5 -114.5t-99.5 -290.5
t99.5 -291t250.5 -115q107 0 182 55t104 148h-324v266z" />
    <glyph glyph-name="H" unicode="H" horiz-adv-x="1463" 
d="M143 0v1434h391v-545h396v545h389v-1434h-389v553h-396v-553h-391z" />
    <glyph glyph-name="I" unicode="I" horiz-adv-x="681" 
d="M536 1434v-1434h-391v1434h391z" />
    <glyph glyph-name="J" unicode="J" horiz-adv-x="965" 
d="M446 487v947h390v-977q0 -119 -33.5 -212.5t-93 -151.5t-137.5 -88t-169 -30q-220 0 -387 135l99 252q88 -51 175 -51q71 0 113.5 46.5t42.5 129.5z" />
    <glyph glyph-name="K" unicode="K" horiz-adv-x="1317" 
d="M868 1434h389q0 -540 -243 -732l345 -702h-416l-281 585h-128v-585h-391v1434h391v-513h50q147 0 215.5 119t68.5 394z" />
    <glyph glyph-name="L" unicode="L" horiz-adv-x="1080" 
d="M143 0v1434h391v-1099h521v-335h-912z" />
    <glyph glyph-name="M" unicode="M" horiz-adv-x="1842" 
d="M1031 223h-220l-310 637v-860h-358v1434h407l372 -774l370 774h407v-1434h-357v860z" />
    <glyph glyph-name="N" unicode="N" horiz-adv-x="1463" 
d="M143 0v1434h419l401 -876v876h356v-1434h-418l-400 876v-876h-358z" />
    <glyph glyph-name="O" unicode="O" horiz-adv-x="1703" 
d="M463 717q0 -173 111.5 -289.5t277.5 -116.5t277.5 116.5t111.5 289.5t-111.5 289t-277.5 116t-277.5 -116t-111.5 -289zM73 717q0 154 60 291.5t163.5 236t248 156t307.5 57.5t307.5 -57.5t248 -156t163.5 -236t60 -291.5t-60 -291.5t-163.5 -236.5t-248 -156.5
t-307.5 -57.5t-307.5 57.5t-248 156.5t-163.5 236.5t-60 291.5z" />
    <glyph glyph-name="P" unicode="P" horiz-adv-x="1257" 
d="M697 458h-165v-458h-389v1434h554q222 0 366.5 -138.5t144.5 -350.5q0 -211 -144.5 -349t-366.5 -138zM532 760h115q73 0 126.5 54t53.5 131q0 84 -49 135.5t-131 51.5h-115v-372z" />
    <glyph glyph-name="Q" unicode="Q" horiz-adv-x="1703" 
d="M1067 136l280 249l304 -336l-285 -240zM463 717q0 -173 111.5 -289.5t277.5 -116.5t277.5 116.5t111.5 289.5t-111.5 289t-277.5 116t-277.5 -116t-111.5 -289zM73 717q0 154 60 291.5t163.5 236t248 156t307.5 57.5t307.5 -57.5t248 -156t163.5 -236t60 -291.5
t-60 -291.5t-163.5 -236.5t-248 -156.5t-307.5 -57.5t-307.5 57.5t-248 156.5t-163.5 236.5t-60 291.5z" />
    <glyph glyph-name="R" unicode="R" horiz-adv-x="1298" 
d="M584 488h-58v-488h-383v1434h554q224 0 367.5 -131.5t143.5 -341.5q0 -140 -68 -247.5t-187 -164.5l298 -549h-421zM526 769h124q70 0 123.5 52.5t53.5 128.5q0 82 -48.5 132t-128.5 50h-124v-363z" />
    <glyph glyph-name="S" unicode="S" horiz-adv-x="1234" 
d="M99 278l155 176q92 -81 178 -119.5t185 -38.5q75 0 121 33t46 84q0 56 -51.5 93.5t-193.5 68.5q-197 43 -313 158t-116 280q0 194 140 319.5t364 125.5q225 0 373 -122.5t157 -333.5h-372q-5 65 -42 103.5t-98 38.5q-60 0 -96 -28.5t-36 -71.5q0 -52 48 -92t170 -68
q222 -51 339.5 -163t117.5 -284q0 -198 -147 -330t-387 -132q-317 0 -542 303z" />
    <glyph glyph-name="T" unicode="T" horiz-adv-x="1149" 
d="M380 0v1099h-334v335h1058v-335h-334v-1099h-390z" />
    <glyph glyph-name="U" unicode="U" horiz-adv-x="1383" 
d="M519 1434v-955q0 -73 49 -119.5t123 -46.5t122.5 46.5t48.5 119.5v955h390v-973q0 -136 -75 -247.5t-203.5 -174t-282.5 -62.5q-155 0 -283.5 62.5t-203 174t-74.5 247.5v973h389z" />
    <glyph glyph-name="V" unicode="V" horiz-adv-x="1430" 
d="M927 0h-424l-483 1434h400l295 -999l295 999h399z" />
    <glyph glyph-name="W" unicode="W" horiz-adv-x="2042" 
d="M826 1434h392l206 -926l198 926h400l-376 -1434h-400l-224 909l-225 -909h-400l-377 1434h401l197 -926z" />
    <glyph glyph-name="X" unicode="X" horiz-adv-x="1348" 
d="M465 1434l209 -436l209 436h424l-383 -698l408 -736h-424l-234 474l-235 -474h-425l410 736l-383 698h424z" />
    <glyph glyph-name="Y" unicode="Y" horiz-adv-x="1358" 
d="M443 1434l237 -519l235 519h423l-464 -877v-557h-390v557l-464 877h423z" />
    <glyph glyph-name="Z" unicode="Z" horiz-adv-x="1261" 
d="M101 304l587 795h-556v335h1018v-305l-587 -794h607v-335h-1069v304z" />
    <glyph glyph-name="bracketleft" unicode="[" horiz-adv-x="906" 
d="M185 -287v1823h688v-335h-298v-1153h298v-335h-688z" />
    <glyph glyph-name="backslash" unicode="\" horiz-adv-x="1047" 
d="M709 -351l-700 1822l328 130l701 -1823z" />
    <glyph glyph-name="bracketright" unicode="]" horiz-adv-x="906" 
d="M721 1536v-1823h-687v335h297v1153h-297v335h687z" />
    <glyph glyph-name="asciicircum" unicode="^" horiz-adv-x="1288" 
d="M485 1450h318l318 -487l-182 -142l-295 327l-295 -327l-182 142z" />
    <glyph glyph-name="underscore" unicode="_" horiz-adv-x="1024" 
d="M0 -439v327h1024v-327h-1024z" />
    <glyph glyph-name="grave" unicode="`" horiz-adv-x="890" 
d="M486 1087l-314 311l237 192l244 -369z" />
    <glyph glyph-name="a" unicode="a" horiz-adv-x="1353" 
d="M57 530q0 155 61 281.5t172.5 200t251.5 73.5q191 0 321 -132v108h369v-1061h-369v108q-131 -133 -321 -133q-140 0 -251.5 73.5t-172.5 200t-61 281.5zM429 530q0 -96 63 -161t154 -65t154 65t63 161t-63 161.5t-154 65.5t-154 -65.5t-63 -161.5z" />
    <glyph glyph-name="b" unicode="b" horiz-adv-x="1353" 
d="M1296 530q0 -155 -60.5 -281.5t-172 -200t-251.5 -73.5q-192 0 -322 133v-108h-368v1495h368v-542q129 132 322 132q140 0 251.5 -73.5t172 -200t60.5 -281.5zM925 530q0 96 -62.5 161.5t-153.5 65.5q-92 0 -155.5 -65.5t-63.5 -161.5t63.5 -161t155.5 -65q91 0 153.5 65
t62.5 161z" />
    <glyph glyph-name="c" unicode="c" horiz-adv-x="1208" 
d="M953 444l176 -144q-169 -325 -496 -325q-117 0 -223.5 43t-184 117t-123 177t-45.5 218q0 154 73 281t202.5 200.5t287.5 73.5q212 0 354.5 -119t176.5 -315h-376q-39 106 -155 106q-79 0 -135 -66t-56 -161q0 -99 62 -162.5t173 -63.5q166 0 289 140z" />
    <glyph glyph-name="d" unicode="d" horiz-adv-x="1353" 
d="M57 530q0 155 61 281.5t172.5 200t251.5 73.5q191 0 321 -132v542h369v-1495h-369v108q-131 -133 -321 -133q-140 0 -251.5 73.5t-172.5 200t-61 281.5zM429 530q0 -96 63 -161t154 -65t154 65t63 161t-63 161.5t-154 65.5t-154 -65.5t-63 -161.5z" />
    <glyph glyph-name="e" unicode="e" horiz-adv-x="1268" 
d="M435 431q15 -90 79.5 -137t172.5 -47q198 0 336 115l137 -169q-196 -218 -482 -218q-274 0 -447.5 159t-173.5 396q0 154 77 281.5t212 200.5t298 73q160 0 290 -71.5t203 -195t73 -272.5q0 -59 -17 -115h-758zM638 814q-78 0 -130 -43t-70 -124h393q-31 167 -193 167z
" />
    <glyph glyph-name="f" unicode="f" horiz-adv-x="812" 
d="M770 1481v-272q-51 8 -100 8q-54 0 -82 -26t-28 -73v-57h210v-325h-210v-736h-378v736h-160v325h160v63q0 181 102 276t298 95q99 0 188 -14z" />
    <glyph glyph-name="g" unicode="g" horiz-adv-x="1353" 
d="M57 530q0 155 61 281.5t172.5 200t251.5 73.5q191 0 321 -132v108h369v-988q0 -259 -155 -403.5t-420 -144.5q-307 0 -524 232l134 190q85 -65 161 -93.5t168 -28.5q121 0 194 60t73 165v76q-132 -130 -321 -130q-139 0 -251 72.5t-173 194.5t-61 267zM429 530
q0 -96 63 -161t154 -65t154 65t63 161t-63 161.5t-154 65.5t-154 -65.5t-63 -161.5z" />
    <glyph glyph-name="h" unicode="h" horiz-adv-x="1267" 
d="M500 570v-570h-379v1495h379v-539q106 129 283 129q166 0 274.5 -113.5t108.5 -295.5v-676h-379v600q0 71 -37.5 113.5t-102.5 42.5q-64 0 -105.5 -46.5t-41.5 -139.5z" />
    <glyph glyph-name="i" unicode="i" horiz-adv-x="614" 
d="M118 0v1061h379v-1061h-379zM97 1332q0 84 60.5 140.5t149.5 56.5t149.5 -56.5t60.5 -140.5q0 -83 -60.5 -139.5t-149.5 -56.5t-149.5 56.5t-60.5 139.5z" />
    <glyph glyph-name="j" unicode="j" horiz-adv-x="614" 
d="M118 -55v1116h379v-1167q0 -169 -108.5 -269t-287.5 -100q-79 0 -136 21v303h58q95 0 95 96zM97 1332q0 84 60.5 140.5t149.5 56.5t149.5 -56.5t60.5 -140.5q0 -83 -60.5 -139.5t-149.5 -56.5t-149.5 56.5t-60.5 139.5z" />
    <glyph glyph-name="k" unicode="k" horiz-adv-x="1166" 
d="M722 1061h379q0 -397 -187 -547l240 -514h-405l-174 412h-75v-412h-379v1495h379v-759h51q171 0 171 325z" />
    <glyph glyph-name="l" unicode="l" horiz-adv-x="614" 
d="M118 0v1495h379v-1495h-379z" />
    <glyph glyph-name="m" unicode="m" horiz-adv-x="1917" 
d="M1158 570v-570h-379v600q0 72 -35.5 114t-99.5 42q-62 0 -103 -45.5t-41 -135.5v-575h-379v1061h379v-102q115 126 280 126q105 0 191 -51.5t136 -143.5q56 92 141.5 143.5t190.5 51.5q161 0 269.5 -114t108.5 -295v-676h-379v600q0 67 -37 111.5t-98 44.5
q-62 0 -103.5 -47t-41.5 -139z" />
    <glyph glyph-name="n" unicode="n" horiz-adv-x="1267" 
d="M500 570v-570h-379v1061h379v-105q103 125 278 125q167 0 277.5 -110.5t110.5 -294.5v-676h-379v600q0 66 -39.5 111t-100.5 45q-64 0 -105.5 -46.5t-41.5 -139.5z" />
    <glyph glyph-name="o" unicode="o" horiz-adv-x="1313" 
d="M57 530q0 115 46 218t125.5 177t191 117t236.5 43q126 0 237 -43t190.5 -117t125.5 -177t46 -218t-46 -218t-125.5 -177t-190.5 -117t-237 -43q-125 0 -236.5 43t-191 117t-125.5 177t-46 218zM429 530q0 -96 64.5 -161t162.5 -65q99 0 164 65t65 161t-65.5 161.5
t-163.5 65.5t-162.5 -65t-64.5 -162z" />
    <glyph glyph-name="p" unicode="p" horiz-adv-x="1353" 
d="M1296 530q0 -155 -60.5 -281.5t-172 -200t-251.5 -73.5q-192 0 -322 133v-583h-368v1536h368v-108q129 132 322 132q140 0 251.5 -73.5t172 -200t60.5 -281.5zM925 530q0 96 -62.5 161.5t-153.5 65.5q-92 0 -155.5 -65.5t-63.5 -161.5t63.5 -161t155.5 -65q91 0 153.5 65
t62.5 161z" />
    <glyph glyph-name="q" unicode="q" horiz-adv-x="1353" 
d="M57 530q0 155 61 281.5t172.5 200t251.5 73.5q191 0 321 -132v108h369v-1536h-369v583q-131 -133 -321 -133q-140 0 -251.5 73.5t-172.5 200t-61 281.5zM429 530q0 -96 63 -161t154 -65t154 65t63 161t-63 161.5t-154 65.5t-154 -65.5t-63 -161.5z" />
    <glyph glyph-name="r" unicode="r" horiz-adv-x="875" 
d="M839 1076l-30 -347q-76 27 -145 27q-67 0 -115.5 -49.5t-48.5 -141.5v-565h-379v1061h379v-108q105 132 278 132q34 0 61 -9z" />
    <glyph glyph-name="s" unicode="s" horiz-adv-x="980" 
d="M65 202l124 156q126 -108 281 -108q48 0 75 17t27 46q0 32 -32 53t-110 38q-162 35 -252 127.5t-90 225.5q0 142 114.5 235t289.5 93q189 0 298.5 -99t130.5 -258h-307q-7 38 -33 60.5t-66 22.5q-37 0 -59 -16t-22 -42q0 -30 30.5 -51t112.5 -39q177 -38 266 -127.5
t89 -223.5q0 -147 -121 -242t-312 -95q-120 0 -232 57.5t-202 169.5z" />
    <glyph glyph-name="t" unicode="t" horiz-adv-x="836" 
d="M562 736v-337q0 -99 110 -99q69 0 118 7v-279q-95 -53 -230 -53q-168 0 -272 103t-104 272v386h-162v325h162v264l378 43v-307h215v-325h-215z" />
    <glyph glyph-name="u" unicode="u" horiz-adv-x="1267" 
d="M767 494v567h379v-1061h-379v102q-101 -122 -279 -122q-167 0 -277.5 110t-110.5 294v677h379v-601q0 -66 40 -111t101 -45q65 0 106 48t41 142z" />
    <glyph glyph-name="v" unicode="v" horiz-adv-x="1136" 
d="M723 1061h396l-338 -1061h-427l-338 1061h397l155 -650z" />
    <glyph glyph-name="w" unicode="w" horiz-adv-x="1669" 
d="M652 1061h365l126 -618l129 618h380l-301 -1061h-388l-128 546l-128 -546h-389l-301 1061h380l129 -618z" />
    <glyph glyph-name="x" unicode="x" horiz-adv-x="1136" 
d="M16 0l301 541l-274 520h400l125 -293l124 293h401l-274 -520l300 -541h-400l-151 312l-151 -312h-401z" />
    <glyph glyph-name="y" unicode="y" horiz-adv-x="1136" 
d="M723 1061h396l-533 -1536h-398l197 475l-369 1061h397l154 -581z" />
    <glyph glyph-name="z" unicode="z" horiz-adv-x="1061" 
d="M75 0v275l422 464h-396v322h861v-276l-421 -463h441v-322h-907z" />
    <glyph glyph-name="braceleft" unicode="{" horiz-adv-x="906" 
d="M108 457v336q83 0 132 45.5t49 123.5v227q0 148 106.5 247.5t267.5 99.5h210v-335h-78q-52 0 -84.5 -30.5t-32.5 -77.5v-233q0 -91 -46.5 -152t-133.5 -83q87 -22 133.5 -83.5t46.5 -152.5v-232q0 -47 32.5 -78t84.5 -31h78v-335h-210q-161 0 -267.5 99.5t-106.5 247.5
v227q0 79 -49 124.5t-132 45.5z" />
    <glyph glyph-name="bar" unicode="|" horiz-adv-x="684" 
d="M158 -287v1823h368v-1823h-368z" />
    <glyph glyph-name="braceright" unicode="}" horiz-adv-x="906" 
d="M799 793v-336q-84 0 -133 -45.5t-49 -124.5v-227q0 -148 -106 -247.5t-267 -99.5h-210v335h79q51 0 83 30.5t32 78.5v232q0 91 47.5 152t133.5 84q-87 23 -134 84t-47 151v233q0 47 -32 77.5t-83 30.5h-79v335h210q161 0 267 -99.5t106 -247.5v-227q0 -78 49.5 -123.5
t132.5 -45.5z" />
    <glyph glyph-name="asciitilde" unicode="~" horiz-adv-x="1206" 
d="M838 418q-126 0 -238 86q-30 24 -48 36.5t-41.5 23t-42.5 10.5q-58 0 -73 -108l-352 61q25 192 108 294t217 102q127 0 237 -86q89 -71 132 -71q58 0 73 108l352 -61q-25 -192 -107.5 -293.5t-216.5 -101.5z" />
    <glyph glyph-name="uni00A0" unicode="&#xa0;" horiz-adv-x="623" 
 />
    <glyph glyph-name="exclamdown" unicode="&#xa1;" horiz-adv-x="648" 
d="M129 -373l13 974h363l14 -974h-390zM95 880q0 87 66 146t163 59q98 0 163.5 -59t65.5 -146t-65.5 -146.5t-163.5 -59.5q-97 0 -163 59.5t-66 146.5z" />
    <glyph glyph-name="cent" unicode="&#xa2;" horiz-adv-x="1208" 
d="M953 444l176 -144q-169 -325 -496 -325q-117 0 -223.5 43t-184 117t-123 177t-45.5 218q0 154 73 281t202.5 200.5t287.5 73.5q212 0 354.5 -119t176.5 -315h-376q-39 106 -155 106q-79 0 -135 -66t-56 -161q0 -99 62 -162.5t173 -63.5q166 0 289 140zM784 975h-335v273
h335v-273zM469 82h336v-270h-336v270z" />
    <glyph glyph-name="sterling" unicode="&#xa3;" horiz-adv-x="1205" 
d="M294 543h-173v247h111q-64 139 -64 257q0 172 137.5 291.5t338.5 119.5q205 0 342 -127.5t154 -345.5h-371q-9 63 -41.5 99.5t-77.5 36.5q-41 0 -66 -27.5t-25 -70.5q0 -71 55 -195q2 -5 8 -18t8 -20h284v-247h-231q-11 -144 -119 -207h551v-336h-988v316q80 29 122 88
t45 139z" />
    <glyph glyph-name="currency" unicode="&#xa4;" horiz-adv-x="1314" 
d="M156 668q0 120 59 222l-172 175l204 196l178 -180q109 52 232 52q124 0 233 -52l178 180l204 -196l-173 -175q60 -102 60 -222q0 -122 -60 -224l173 -174l-204 -195l-178 179q-104 -51 -233 -51t-232 51l-178 -179l-204 195l172 174q-59 102 -59 224zM493 668
q0 -73 47 -122.5t117 -49.5t117.5 49.5t47.5 122.5t-47.5 122.5t-117.5 49.5t-117 -49.5t-47 -122.5z" />
    <glyph glyph-name="yen" unicode="&#xa5;" horiz-adv-x="1358" 
d="M20 1434h423l236 -526l235 526h424l-362 -673h225v-174h-318l-10 -17v-55h328v-174h-328v-341h-389v341h-327v174h327v55l-9 17h-318v174h225z" />
    <glyph glyph-name="brokenbar" unicode="&#xa6;" horiz-adv-x="684" 
d="M158 717v819h368v-819h-368zM158 -287v819h368v-819h-368z" />
    <glyph glyph-name="section" unicode="&#xa7;" horiz-adv-x="1057" 
d="M84 583q0 185 180 265q-181 94 -181 286q0 147 128 235.5t347 88.5q192 0 310 -94.5t143 -256.5h-335q-9 35 -38.5 61.5t-67.5 26.5q-37 0 -57 -16t-20 -42q0 -31 45 -56.5t176 -70.5q157 -54 226 -131t69 -201q0 -83 -53.5 -150.5t-148.5 -107.5q103 -48 153 -118
t50 -173q0 -147 -121 -240.5t-339 -93.5q-153 0 -284 75t-217 202l137 131q144 -144 322 -144q92 0 92 58q0 30 -32.5 52.5t-129.5 53.5q-184 59 -269 141t-85 219zM554 512q88 39 88 116q0 78 -104 121q-43 -18 -66 -48t-23 -67q0 -78 105 -122z" />
    <glyph glyph-name="dieresis" unicode="&#xa8;" horiz-adv-x="890" 
d="M48 1323q0 75 52.5 126.5t129.5 51.5t129.5 -51.5t52.5 -126.5t-52.5 -126.5t-129.5 -51.5t-129.5 51.5t-52.5 126.5zM479 1323q0 75 52.5 126.5t128.5 51.5q77 0 130 -51.5t53 -126.5t-53 -126.5t-130 -51.5q-76 0 -128.5 51.5t-52.5 126.5z" />
    <glyph glyph-name="copyright" unicode="&#xa9;" horiz-adv-x="1646" 
d="M82 717q0 153 58 290t157 236t236 157t290 58t290.5 -58t236.5 -157t157 -236t58 -290t-58 -290.5t-157 -236.5t-236.5 -157t-290.5 -58t-290 58t-236 157t-157 236.5t-58 290.5zM217 717q0 -169 80.5 -310.5t220 -223t305.5 -81.5t306 81.5t220.5 223t80.5 310.5
q0 127 -47.5 241t-128.5 195.5t-193.5 129.5t-237.5 48q-166 0 -305.5 -81t-220 -222.5t-80.5 -310.5zM1072 645l136 -103q-125 -237 -368 -237q-179 0 -300.5 117t-121.5 290q0 174 115.5 289.5t292.5 115.5q165 0 269.5 -92.5t124.5 -234.5h-270q-11 39 -42.5 61.5
t-76.5 22.5q-56 0 -97 -45.5t-41 -116.5q0 -74 46 -119t126 -45q119 0 207 97z" />
    <glyph glyph-name="ordfeminine" unicode="&#xaa;" horiz-adv-x="955" 
d="M51 1061q0 163 99 276t241 113q121 0 201 -88v72h281v-746h-281v71q-81 -87 -201 -87q-142 0 -241 113t-99 276zM334 1061q0 -60 36.5 -100.5t92.5 -40.5t92.5 40.5t36.5 100.5t-36.5 100.5t-92.5 40.5t-92.5 -40.5t-36.5 -100.5z" />
    <glyph glyph-name="guillemotleft" unicode="&#xab;" horiz-adv-x="1334" 
d="M77 529v222l517 354l127 -173l-337 -292l337 -293l-127 -173zM633 529v222l517 354l127 -173l-337 -292l337 -293l-127 -173z" />
    <glyph glyph-name="logicalnot" unicode="&#xac;" horiz-adv-x="1206" 
d="M721 220v293h-604v334h973v-627h-369z" />
    <glyph glyph-name="uni00AD" unicode="&#xad;" horiz-adv-x="880" 
d="M764 511h-647v338h647v-338z" />
    <glyph glyph-name="registered" unicode="&#xae;" horiz-adv-x="1646" 
d="M82 717q0 153 58 290t157 236t236 157t290 58t290.5 -58t236.5 -157t157 -236t58 -290t-58 -290.5t-157 -236.5t-236.5 -157t-290.5 -58t-290 58t-236 157t-157 236.5t-58 290.5zM217 717q0 -169 80.5 -310.5t220 -223t305.5 -81.5t306 81.5t220.5 223t80.5 310.5
q0 127 -47.5 241t-128.5 195.5t-193.5 129.5t-237.5 48q-166 0 -305.5 -81t-220 -222.5t-80.5 -310.5zM810 583h-25v-261h-234v788h317q123 0 205 -74.5t82 -189.5q0 -69 -32.5 -125.5t-89.5 -90.5l149 -308h-256zM785 754h56q35 0 58.5 24t23.5 61q0 36 -24.5 60t-57.5 24
h-56v-169z" />
    <glyph glyph-name="macron" unicode="&#xaf;" horiz-adv-x="890" 
d="M108 1183v272h675v-272h-675z" />
    <glyph glyph-name="degree" unicode="&#xb0;" horiz-adv-x="831" 
d="M98 1159q0 126 92 212.5t226 86.5t225.5 -86.5t91.5 -212.5t-91.5 -213t-225.5 -87t-226 87t-92 213zM330 1159q0 -37 24 -61.5t62 -24.5t62 24.5t24 61.5t-24.5 61t-61.5 24t-61.5 -24t-24.5 -61z" />
    <glyph glyph-name="plusminus" unicode="&#xb1;" horiz-adv-x="1206" 
d="M1090 0h-974v304h974v-304zM418 371v301h-302v305h302v301h369v-301h303v-305h-303v-301h-369z" />
    <glyph glyph-name="twosuperior" unicode="&#xb2;" 
d="M629 907l-183 -199h293v-245h-649v220l323 351q56 60 56 114q0 32 -19.5 52t-50.5 20q-32 0 -54 -26t-23 -71h-254q3 146 94.5 240.5t249.5 94.5q146 0 242 -78.5t96 -200.5q0 -142 -121 -272z" />
    <glyph glyph-name="threesuperior" unicode="&#xb3;" 
d="M468 782q0 41 -28 70t-69 29q-22 0 -52 -15l-111 139l178 188h-287v241h616v-227l-169 -165q102 -35 159 -112t57 -180q0 -134 -101.5 -223t-253.5 -89q-206 0 -345 202l120 132q90 -90 189 -90q41 0 69 28.5t28 71.5z" />
    <glyph glyph-name="acute" unicode="&#xb4;" horiz-adv-x="890" 
d="M711 1398l-315 -311l-168 134l246 369z" />
    <glyph glyph-name="mu" unicode="&#xb5;" horiz-adv-x="1288" 
d="M787 489v572h379v-1061h-379v102q-98 -116 -287 -116v-461h-379v1536h379v-605q0 -69 38 -110.5t102 -41.5t105.5 46.5t41.5 138.5z" />
    <glyph glyph-name="paragraph" unicode="&#xb6;" horiz-adv-x="1217" 
d="M550 549h-51q-192 0 -323.5 127.5t-131.5 314.5t131.5 315t323.5 128h581v-1702h-218v1478h-94v-1478h-218v817z" />
    <glyph glyph-name="periodcentered" unicode="&#xb7;" horiz-adv-x="623" 
d="M94 671q0 88 61.5 147.5t155.5 59.5q95 0 156.5 -59.5t61.5 -147.5t-61.5 -147.5t-156.5 -59.5q-94 0 -155.5 59.5t-61.5 147.5z" />
    <glyph glyph-name="cedilla" unicode="&#xb8;" horiz-adv-x="890" 
d="M519 -299q0 27 -23.5 46.5t-57.5 19.5q-25 0 -44 -5l-62 62v176h225v-95q98 -12 154 -72.5t56 -135.5q0 -98 -92.5 -163.5t-229.5 -65.5q-128 0 -215 61t-112 176h214q19 -67 101 -67q39 0 62.5 17.5t23.5 45.5z" />
    <glyph glyph-name="onesuperior" unicode="&#xb9;" 
d="M375 1434h246v-971h-291v700l-139 -76l-102 192z" />
    <glyph glyph-name="ordmasculine" unicode="&#xba;" horiz-adv-x="955" 
d="M58 1061q0 163 122 276t298 113q175 0 297 -113t122 -276t-122 -276t-297 -113q-176 0 -298 113t-122 276zM341 1061q0 -60 39 -100.5t98 -40.5q58 0 97.5 40.5t39.5 100.5t-39.5 100.5t-97.5 40.5q-59 0 -98 -40.5t-39 -100.5z" />
    <glyph glyph-name="guillemotright" unicode="&#xbb;" horiz-adv-x="1334" 
d="M1256 751v-222l-517 -355l-127 173l337 293l-337 292l127 173zM700 751v-222l-517 -355l-127 173l337 293l-337 292l127 173z" />
    <glyph glyph-name="onequarter" unicode="&#xbc;" horiz-adv-x="2007" 
d="M546 56l699 1434l215 -114l-698 -1433zM375 1434h246v-971h-291v700l-139 -76l-102 192zM1202 158v209l402 604h255v-586h101v-227h-101v-158h-269v158h-388zM1437 384h153v231z" />
    <glyph glyph-name="onehalf" unicode="&#xbd;" horiz-adv-x="2007" 
d="M546 56l699 1434l215 -114l-698 -1433zM375 1434h246v-971h-291v700l-139 -76l-102 192zM1801 444l-182 -199h293v-245h-649v220l322 351q56 60 56 114q0 32 -19 52t-50 20q-33 0 -55 -26t-23 -71h-254q3 146 94.5 240.5t249.5 94.5q146 0 242 -78.5t96 -200.5
q0 -142 -121 -272z" />
    <glyph glyph-name="threequarters" unicode="&#xbe;" horiz-adv-x="2007" 
d="M546 56l699 1434l215 -114l-698 -1433zM1202 158v209l402 604h255v-586h101v-227h-101v-158h-269v158h-388zM1437 384h153v231zM468 782q0 41 -28 70t-69 29q-22 0 -52 -15l-111 139l178 188h-287v241h616v-227l-169 -165q102 -35 159 -112t57 -180q0 -134 -101.5 -223
t-253.5 -89q-206 0 -345 202l120 132q90 -90 189 -90q41 0 69 28.5t28 71.5z" />
    <glyph glyph-name="questiondown" unicode="&#xbf;" horiz-adv-x="1146" 
d="M422 601h389q0 -165 -56.5 -256t-211.5 -179q-45 -26 -61 -53.5t-16 -69.5q0 -35 28.5 -63t74.5 -28q62 0 99 41.5t37 107.5h373q0 -229 -144.5 -363.5t-373.5 -134.5q-107 0 -199 35t-154 94.5t-97 139t-35 166.5q0 127 62.5 219t202.5 170q46 27 64 65.5t18 108.5z
M828 880q0 -87 -65.5 -146.5t-162.5 -59.5q-98 0 -163.5 59.5t-65.5 146.5t65.5 146t163.5 59q97 0 162.5 -59t65.5 -146z" />
    <glyph glyph-name="Agrave" unicode="&#xc0;" horiz-adv-x="1430" 
d="M503 1434h424l482 -1434h-400l-80 274h-429l-79 -274h-401zM715 1030l-133 -460h266zM733 1486l-314 311l237 192l244 -369z" />
    <glyph glyph-name="Aacute" unicode="&#xc1;" horiz-adv-x="1430" 
d="M503 1434h424l482 -1434h-400l-80 274h-429l-79 -274h-401zM715 1030l-133 -460h266zM998 1797l-314 -310l-168 133l246 370z" />
    <glyph glyph-name="Acircumflex" unicode="&#xc2;" horiz-adv-x="1430" 
d="M503 1434h424l482 -1434h-400l-80 274h-429l-79 -274h-401zM715 1030l-133 -460h266zM535 1895h357l217 -260l-167 -134l-229 213l-228 -213l-167 134z" />
    <glyph glyph-name="Atilde" unicode="&#xc3;" horiz-adv-x="1430" 
d="M503 1434h424l482 -1434h-400l-80 274h-429l-79 -274h-401zM715 1030l-133 -460h266zM725 1587q-66 34 -87 34q-35 0 -51 -71l-282 55q22 124 83 187t158 63q80 0 159 -43q64 -33 87 -33q36 0 51 70l281 -54q-22 -124 -83 -187.5t-157 -63.5q-79 0 -159 43z" />
    <glyph glyph-name="Adieresis" unicode="&#xc4;" horiz-adv-x="1430" 
d="M503 1434h424l482 -1434h-400l-80 274h-429l-79 -274h-401zM715 1030l-133 -460h266zM317 1704q0 75 53 126.5t130 51.5q76 0 128.5 -51.5t52.5 -126.5t-52.5 -126.5t-128.5 -51.5q-77 0 -130 51.5t-53 126.5zM749 1704q0 75 52.5 126.5t128.5 51.5q77 0 129.5 -51.5
t52.5 -126.5t-52.5 -126.5t-129.5 -51.5q-76 0 -128.5 51.5t-52.5 126.5z" />
    <glyph glyph-name="Aring" unicode="&#xc5;" horiz-adv-x="1430" 
d="M503 1434h424l482 -1434h-400l-80 274h-429l-79 -274h-401zM715 1030l-133 -460h266zM655 1727q0 -26 16.5 -42.5t42.5 -16.5t43 16.5t17 42.5q0 25 -17 41t-43 16t-42.5 -16t-16.5 -41zM463 1727q0 97 72 163t179 66t179.5 -66t72.5 -163q0 -98 -73 -164.5t-179 -66.5
t-178.5 66.5t-72.5 164.5z" />
    <glyph glyph-name="AE" unicode="&#xc6;" horiz-adv-x="1940" 
d="M412 0h-405l758 1434h1068v-326h-540v-227h491v-320h-491v-235h558v-326h-940v275h-366zM911 1036l-226 -466h226v466z" />
    <glyph glyph-name="Ccedilla" unicode="&#xc7;" horiz-adv-x="1550" 
d="M893 -299q0 27 -23 46.5t-57 19.5q-26 0 -45 -5l-62 62v160q-181 25 -325.5 126.5t-226 260.5t-81.5 346q0 155 56.5 292t154 235.5t236.5 156t298 57.5q165 0 301 -62t230 -184.5t129 -292.5h-411q-26 94 -94.5 148.5t-161.5 54.5q-153 0 -250.5 -115t-97.5 -290
t102.5 -290.5t265.5 -115.5q132 0 233.5 54.5t189.5 169.5l208 -156q-196 -346 -531 -394v-80q98 -12 154 -72.5t56 -135.5q0 -98 -92 -163.5t-229 -65.5q-128 0 -215.5 61t-112.5 176h214q21 -67 102 -67q39 0 62 17.5t23 45.5z" />
    <glyph glyph-name="Egrave" unicode="&#xc8;" horiz-adv-x="1185" 
d="M143 0v1434h934v-326h-543v-227h494v-320h-494v-235h562v-326h-953zM589 1486l-314 311l237 192l244 -369z" />
    <glyph glyph-name="Eacute" unicode="&#xc9;" horiz-adv-x="1185" 
d="M143 0v1434h934v-326h-543v-227h494v-320h-494v-235h562v-326h-953zM895 1797l-315 -311l-168 134l246 369z" />
    <glyph glyph-name="Ecircumflex" unicode="&#xca;" horiz-adv-x="1185" 
d="M143 0v1434h934v-326h-543v-227h494v-320h-494v-235h562v-326h-953zM427 1895h356l217 -260l-166 -134l-229 213l-228 -213l-167 134z" />
    <glyph glyph-name="Edieresis" unicode="&#xcb;" horiz-adv-x="1185" 
d="M143 0v1434h934v-326h-543v-227h494v-320h-494v-235h562v-326h-953zM213 1704q0 75 52.5 126.5t129.5 51.5t129.5 -51.5t52.5 -126.5t-52.5 -126.5t-129.5 -51.5t-129.5 51.5t-52.5 126.5zM644 1704q0 75 52.5 126.5t128.5 51.5q77 0 130 -51.5t53 -126.5t-53 -126.5
t-130 -51.5q-76 0 -128.5 51.5t-52.5 126.5z" />
    <glyph glyph-name="Igrave" unicode="&#xcc;" horiz-adv-x="681" 
d="M536 1434v-1434h-391v1434h391zM357 1487l-314 310l237 193l244 -370z" />
    <glyph glyph-name="Iacute" unicode="&#xcd;" horiz-adv-x="681" 
d="M536 1434v-1434h-391v1434h391zM631 1797l-315 -311l-168 134l246 369z" />
    <glyph glyph-name="Icircumflex" unicode="&#xce;" horiz-adv-x="681" 
d="M536 1434v-1434h-391v1434h391zM162 1895h357l217 -260l-167 -134l-229 213l-228 -213l-167 134z" />
    <glyph glyph-name="Idieresis" unicode="&#xcf;" horiz-adv-x="681" 
d="M536 1434v-1434h-391v1434h391zM-56 1704q0 75 52.5 126.5t129.5 51.5q76 0 128.5 -51.5t52.5 -126.5t-52.5 -126.5t-128.5 -51.5q-77 0 -129.5 51.5t-52.5 126.5zM375 1704q0 75 52.5 126.5t128.5 51.5q77 0 129.5 -51.5t52.5 -126.5t-52.5 -126.5t-129.5 -51.5
q-76 0 -128.5 51.5t-52.5 126.5z" />
    <glyph glyph-name="Eth" unicode="&#xd0;" horiz-adv-x="1527" 
d="M736 0h-550v605h-169v222h169v607h550q158 0 292 -52.5t228 -146t146.5 -227.5t52.5 -291q0 -319 -199.5 -518t-519.5 -199zM575 336h131q166 0 262 100t96 281q0 180 -96 280t-262 100h-131v-270h205v-222h-205v-269z" />
    <glyph glyph-name="Ntilde" unicode="&#xd1;" horiz-adv-x="1463" 
d="M143 0v1434h419l401 -876v876h356v-1434h-418l-400 876v-876h-358zM741 1587q-66 34 -87 34q-35 0 -51 -71l-281 55q44 250 240 250q80 0 159 -43q64 -33 87 -33q36 0 51 70l282 -54q-22 -124 -83.5 -187.5t-157.5 -63.5q-79 0 -159 43z" />
    <glyph glyph-name="Ograve" unicode="&#xd2;" horiz-adv-x="1703" 
d="M463 717q0 -173 111.5 -289.5t277.5 -116.5t277.5 116.5t111.5 289.5t-111.5 289t-277.5 116t-277.5 -116t-111.5 -289zM73 717q0 154 60 291.5t163.5 236t248 156t307.5 57.5t307.5 -57.5t248 -156t163.5 -236t60 -291.5t-60 -291.5t-163.5 -236.5t-248 -156.5
t-307.5 -57.5t-307.5 57.5t-248 156.5t-163.5 236.5t-60 291.5zM838 1486l-314 311l237 192l244 -369z" />
    <glyph glyph-name="Oacute" unicode="&#xd3;" horiz-adv-x="1703" 
d="M463 717q0 -173 111.5 -289.5t277.5 -116.5t277.5 116.5t111.5 289.5t-111.5 289t-277.5 116t-277.5 -116t-111.5 -289zM73 717q0 154 60 291.5t163.5 236t248 156t307.5 57.5t307.5 -57.5t248 -156t163.5 -236t60 -291.5t-60 -291.5t-163.5 -236.5t-248 -156.5
t-307.5 -57.5t-307.5 57.5t-248 156.5t-163.5 236.5t-60 291.5zM1172 1797l-315 -311l-168 134l246 369z" />
    <glyph glyph-name="Ocircumflex" unicode="&#xd4;" horiz-adv-x="1703" 
d="M463 717q0 -173 111.5 -289.5t277.5 -116.5t277.5 116.5t111.5 289.5t-111.5 289t-277.5 116t-277.5 -116t-111.5 -289zM73 717q0 154 60 291.5t163.5 236t248 156t307.5 57.5t307.5 -57.5t248 -156t163.5 -236t60 -291.5t-60 -291.5t-163.5 -236.5t-248 -156.5
t-307.5 -57.5t-307.5 57.5t-248 156.5t-163.5 236.5t-60 291.5zM673 1895h357l217 -260l-167 -134l-229 213l-228 -213l-167 134z" />
    <glyph glyph-name="Otilde" unicode="&#xd5;" horiz-adv-x="1703" 
d="M463 717q0 -173 111.5 -289.5t277.5 -116.5t277.5 116.5t111.5 289.5t-111.5 289t-277.5 116t-277.5 -116t-111.5 -289zM73 717q0 154 60 291.5t163.5 236t248 156t307.5 57.5t307.5 -57.5t248 -156t163.5 -236t60 -291.5t-60 -291.5t-163.5 -236.5t-248 -156.5
t-307.5 -57.5t-307.5 57.5t-248 156.5t-163.5 236.5t-60 291.5zM862 1587q-66 34 -87 34q-35 0 -51 -71l-282 55q22 124 83 187t158 63q80 0 159 -43q64 -33 87 -33q36 0 51 70l282 -54q-22 -124 -83.5 -187.5t-157.5 -63.5q-79 0 -159 43z" />
    <glyph glyph-name="Odieresis" unicode="&#xd6;" horiz-adv-x="1703" 
d="M463 717q0 -173 111.5 -289.5t277.5 -116.5t277.5 116.5t111.5 289.5t-111.5 289t-277.5 116t-277.5 -116t-111.5 -289zM73 717q0 154 60 291.5t163.5 236t248 156t307.5 57.5t307.5 -57.5t248 -156t163.5 -236t60 -291.5t-60 -291.5t-163.5 -236.5t-248 -156.5
t-307.5 -57.5t-307.5 57.5t-248 156.5t-163.5 236.5t-60 291.5zM455 1704q0 75 52.5 126.5t129.5 51.5q76 0 128.5 -51.5t52.5 -126.5t-52.5 -126.5t-128.5 -51.5q-77 0 -129.5 51.5t-52.5 126.5zM886 1704q0 75 52.5 126.5t128.5 51.5q77 0 129.5 -51.5t52.5 -126.5
t-52.5 -126.5t-129.5 -51.5q-76 0 -128.5 51.5t-52.5 126.5z" />
    <glyph glyph-name="multiply" unicode="&#xd7;" horiz-adv-x="1206" 
d="M99 424l261 256l-261 256l241 239l263 -259l262 259l241 -239l-261 -256l261 -256l-241 -239l-262 258l-263 -258z" />
    <glyph glyph-name="Oslash" unicode="&#xd8;" horiz-adv-x="1703" 
d="M73 717q0 154 60 291.5t163.5 236t248 156t307.5 57.5q192 0 358 -80l141 183l172 -130l-132 -171q114 -102 177 -242t63 -301q0 -154 -60 -291.5t-163.5 -236.5t-248 -156.5t-307.5 -57.5q-202 0 -379 90l-147 -192l-173 129l144 187q-107 101 -165.5 237t-58.5 291z
M1241 717q0 137 -78 246l-474 -616q77 -36 163 -36q166 0 277.5 116.5t111.5 289.5zM463 717q0 -129 64 -227l465 605q-68 27 -140 27q-166 0 -277.5 -116t-111.5 -289z" />
    <glyph glyph-name="Ugrave" unicode="&#xd9;" horiz-adv-x="1383" 
d="M519 1434v-955q0 -73 49 -119.5t123 -46.5t122.5 46.5t48.5 119.5v955h390v-973q0 -136 -75 -247.5t-203.5 -174t-282.5 -62.5q-155 0 -283.5 62.5t-203 174t-74.5 247.5v973h389zM673 1486l-314 311l237 192l244 -369z" />
    <glyph glyph-name="Uacute" unicode="&#xda;" horiz-adv-x="1383" 
d="M519 1434v-955q0 -73 49 -119.5t123 -46.5t122.5 46.5t48.5 119.5v955h390v-973q0 -136 -75 -247.5t-203.5 -174t-282.5 -62.5q-155 0 -283.5 62.5t-203 174t-74.5 247.5v973h389zM1015 1797l-315 -311l-168 134l246 369z" />
    <glyph glyph-name="Ucircumflex" unicode="&#xdb;" horiz-adv-x="1383" 
d="M519 1434v-955q0 -73 49 -119.5t123 -46.5t122.5 46.5t48.5 119.5v955h390v-973q0 -136 -75 -247.5t-203.5 -174t-282.5 -62.5q-155 0 -283.5 62.5t-203 174t-74.5 247.5v973h389zM512 1895h357l217 -260l-167 -134l-229 213l-228 -213l-167 134z" />
    <glyph glyph-name="Udieresis" unicode="&#xdc;" horiz-adv-x="1383" 
d="M519 1434v-955q0 -73 49 -119.5t123 -46.5t122.5 46.5t48.5 119.5v955h390v-973q0 -136 -75 -247.5t-203.5 -174t-282.5 -62.5q-155 0 -283.5 62.5t-203 174t-74.5 247.5v973h389zM294 1704q0 75 52.5 126.5t129.5 51.5q76 0 128.5 -51.5t52.5 -126.5t-52.5 -126.5
t-128.5 -51.5q-77 0 -129.5 51.5t-52.5 126.5zM725 1704q0 75 52.5 126.5t128.5 51.5q77 0 130 -51.5t53 -126.5t-53 -126.5t-130 -51.5q-76 0 -128.5 51.5t-52.5 126.5z" />
    <glyph glyph-name="Yacute" unicode="&#xdd;" horiz-adv-x="1358" 
d="M443 1434l237 -519l235 519h423l-464 -877v-557h-390v557l-464 877h423zM1004 1797l-315 -311l-168 134l246 369z" />
    <glyph glyph-name="Thorn" unicode="&#xde;" horiz-adv-x="1257" 
d="M697 228h-165v-228h-389v1434h389v-230h165q222 0 366.5 -138t144.5 -349q0 -212 -144.5 -350.5t-366.5 -138.5zM532 530h115q82 0 131 51.5t49 135.5q0 83 -49 134t-131 51h-115v-372z" />
    <glyph glyph-name="germandbls" unicode="&#xdf;" horiz-adv-x="1277" 
d="M530 113l83 246q71 -41 144 -41q52 0 82.5 43t30.5 115q0 66 -39 112t-97 46q-27 0 -58 -18l-107 194l158 313h-233v-1123h-364v1434h932v-299l-150 -276q129 -41 208 -159t79 -298q0 -206 -101.5 -316t-255.5 -110q-86 0 -171 38t-141 99z" />
    <glyph glyph-name="agrave" unicode="&#xe0;" horiz-adv-x="1353" 
d="M57 530q0 155 61 281.5t172.5 200t251.5 73.5q191 0 321 -132v108h369v-1061h-369v108q-131 -133 -321 -133q-140 0 -251.5 73.5t-172.5 200t-61 281.5zM429 530q0 -96 63 -161t154 -65t154 65t63 161t-63 161.5t-154 65.5t-154 -65.5t-63 -161.5zM690 1155l-314 311
l237 192l244 -369z" />
    <glyph glyph-name="aacute" unicode="&#xe1;" horiz-adv-x="1353" 
d="M57 530q0 155 61 281.5t172.5 200t251.5 73.5q191 0 321 -132v108h369v-1061h-369v108q-131 -133 -321 -133q-140 0 -251.5 73.5t-172.5 200t-61 281.5zM429 530q0 -96 63 -161t154 -65t154 65t63 161t-63 161.5t-154 65.5t-154 -65.5t-63 -161.5zM967 1466l-315 -311
l-168 134l246 369z" />
    <glyph glyph-name="acircumflex" unicode="&#xe2;" horiz-adv-x="1353" 
d="M57 530q0 155 61 281.5t172.5 200t251.5 73.5q191 0 321 -132v108h369v-1061h-369v108q-131 -133 -321 -133q-140 0 -251.5 73.5t-172.5 200t-61 281.5zM429 530q0 -96 63 -161t154 -65t154 65t63 161t-63 161.5t-154 65.5t-154 -65.5t-63 -161.5zM505 1564h357l217 -260
l-167 -134l-229 213l-228 -213l-167 134z" />
    <glyph glyph-name="atilde" unicode="&#xe3;" horiz-adv-x="1353" 
d="M57 530q0 155 61 281.5t172.5 200t251.5 73.5q191 0 321 -132v108h369v-1061h-369v108q-131 -133 -321 -133q-140 0 -251.5 73.5t-172.5 200t-61 281.5zM429 530q0 -96 63 -161t154 -65t154 65t63 161t-63 161.5t-154 65.5t-154 -65.5t-63 -161.5zM683 1248
q-66 34 -87 34q-35 0 -51 -71l-282 55q22 124 83.5 187.5t157.5 63.5q80 0 159 -43q66 -34 87 -34q36 0 51 70l281 -54q-22 -124 -83 -187.5t-157 -63.5q-79 0 -159 43z" />
    <glyph glyph-name="adieresis" unicode="&#xe4;" horiz-adv-x="1353" 
d="M57 530q0 155 61 281.5t172.5 200t251.5 73.5q191 0 321 -132v108h369v-1061h-369v108q-131 -133 -321 -133q-140 0 -251.5 73.5t-172.5 200t-61 281.5zM429 530q0 -96 63 -161t154 -65t154 65t63 161t-63 161.5t-154 65.5t-154 -65.5t-63 -161.5zM264 1372
q0 75 52.5 126.5t129.5 51.5t129.5 -51.5t52.5 -126.5t-52.5 -126.5t-129.5 -51.5t-129.5 51.5t-52.5 126.5zM695 1372q0 75 52.5 126.5t129.5 51.5t129.5 -51.5t52.5 -126.5t-52.5 -126.5t-129.5 -51.5t-129.5 51.5t-52.5 126.5z" />
    <glyph glyph-name="aring" unicode="&#xe5;" horiz-adv-x="1353" 
d="M57 530q0 155 61 281.5t172.5 200t251.5 73.5q191 0 321 -132v108h369v-1061h-369v108q-131 -133 -321 -133q-140 0 -251.5 73.5t-172.5 200t-61 281.5zM429 530q0 -96 63 -161t154 -65t154 65t63 161t-63 161.5t-154 65.5t-154 -65.5t-63 -161.5zM606 1395
q0 -26 16.5 -42.5t42.5 -16.5t43 16.5t17 42.5q0 25 -17 41t-43 16t-42.5 -16t-16.5 -41zM414 1395q0 97 72 163t179 66t179.5 -66t72.5 -163q0 -98 -73 -164.5t-179 -66.5t-178.5 66.5t-72.5 164.5z" />
    <glyph glyph-name="ae" unicode="&#xe6;" horiz-adv-x="2115" 
d="M1247 431q17 -90 81 -137t172 -47q198 0 336 115l137 -169q-72 -98 -178.5 -158t-228.5 -60q-107 0 -193.5 39t-140.5 107v-121h-369v108q-131 -133 -321 -133q-140 0 -251.5 73.5t-172.5 200t-61 281.5t61 281.5t172.5 200t251.5 73.5q191 0 321 -132v108h369v-116
q105 140 304 140q142 0 254 -72t172.5 -194.5t60.5 -272.5q0 -59 -17 -115h-759zM429 530q0 -96 63 -161t154 -65t154 65t63 161t-63 161.5t-154 65.5t-154 -65.5t-63 -161.5zM1451 814q-75 0 -128 -45t-73 -122h394q-31 167 -193 167z" />
    <glyph glyph-name="ccedilla" unicode="&#xe7;" horiz-adv-x="1208" 
d="M702 -299q0 27 -23 46.5t-56 19.5q-27 0 -44 -5l-63 62v164q-199 38 -329 188.5t-130 353.5q0 154 73 281t202.5 200.5t287.5 73.5q212 0 354.5 -119t176.5 -315h-376q-39 106 -155 106q-79 0 -135 -66t-56 -161q0 -99 62 -162.5t173 -63.5q166 0 289 140l176 -144
q-141 -268 -389 -314v-81q98 -12 154 -72t56 -136q0 -98 -91.5 -163.5t-228.5 -65.5q-128 0 -216 61t-113 176h214q21 -67 102 -67q39 0 62 17.5t23 45.5z" />
    <glyph glyph-name="egrave" unicode="&#xe8;" horiz-adv-x="1268" 
d="M435 431q15 -90 79.5 -137t172.5 -47q198 0 336 115l137 -169q-196 -218 -482 -218q-274 0 -447.5 159t-173.5 396q0 154 77 281.5t212 200.5t298 73q160 0 290 -71.5t203 -195t73 -272.5q0 -59 -17 -115h-758zM638 814q-78 0 -130 -43t-70 -124h393q-31 167 -193 167z
M625 1155l-314 311l237 192l244 -369z" />
    <glyph glyph-name="eacute" unicode="&#xe9;" horiz-adv-x="1268" 
d="M435 431q15 -90 79.5 -137t172.5 -47q198 0 336 115l137 -169q-196 -218 -482 -218q-274 0 -447.5 159t-173.5 396q0 154 77 281.5t212 200.5t298 73q160 0 290 -71.5t203 -195t73 -272.5q0 -59 -17 -115h-758zM638 814q-78 0 -130 -43t-70 -124h393q-31 167 -193 167z
M953 1466l-315 -311l-168 134l246 369z" />
    <glyph glyph-name="ecircumflex" unicode="&#xea;" horiz-adv-x="1268" 
d="M435 431q15 -90 79.5 -137t172.5 -47q198 0 336 115l137 -169q-196 -218 -482 -218q-274 0 -447.5 159t-173.5 396q0 154 77 281.5t212 200.5t298 73q160 0 290 -71.5t203 -195t73 -272.5q0 -59 -17 -115h-758zM638 814q-78 0 -130 -43t-70 -124h393q-31 167 -193 167z
M455 1564h356l217 -260l-167 -135l-228 213l-229 -213l-166 135z" />
    <glyph glyph-name="edieresis" unicode="&#xeb;" horiz-adv-x="1268" 
d="M435 431q15 -90 79.5 -137t172.5 -47q198 0 336 115l137 -169q-196 -218 -482 -218q-274 0 -447.5 159t-173.5 396q0 154 77 281.5t212 200.5t298 73q160 0 290 -71.5t203 -195t73 -272.5q0 -59 -17 -115h-758zM638 814q-78 0 -130 -43t-70 -124h393q-31 167 -193 167z
M236 1372q0 75 52.5 126.5t129.5 51.5t129.5 -51.5t52.5 -126.5t-52.5 -126.5t-129.5 -51.5t-129.5 51.5t-52.5 126.5zM667 1372q0 75 52.5 126.5t128.5 51.5q77 0 130 -51.5t53 -126.5t-53 -126.5t-130 -51.5q-76 0 -128.5 51.5t-52.5 126.5z" />
    <glyph glyph-name="igrave" unicode="&#xec;" horiz-adv-x="614" 
d="M315 1155l-314 310l237 193l244 -370zM118 0v1061h379v-1061h-379z" />
    <glyph glyph-name="iacute" unicode="&#xed;" horiz-adv-x="614" 
d="M605 1465l-314 -310l-168 133l246 370zM118 0v1061h379v-1061h-379z" />
    <glyph glyph-name="icircumflex" unicode="&#xee;" horiz-adv-x="614" 
d="M118 0v1061h379v-1061h-379zM128 1564h356l217 -260l-166 -135l-229 213l-228 -213l-167 135z" />
    <glyph glyph-name="idieresis" unicode="&#xef;" horiz-adv-x="614" 
d="M-90 1372q0 75 52.5 126.5t129.5 51.5q76 0 128.5 -51.5t52.5 -126.5t-52.5 -126.5t-128.5 -51.5q-77 0 -129.5 51.5t-52.5 126.5zM341 1372q0 75 52.5 126.5t128.5 51.5q77 0 130 -51.5t53 -126.5t-53 -126.5t-130 -51.5q-76 0 -128.5 51.5t-52.5 126.5zM118 0v1061h379
v-1061h-379z" />
    <glyph glyph-name="eth" unicode="&#xf0;" horiz-adv-x="1291" 
d="M337 1018l-87 144l162 81q-63 35 -170 80l167 236q80 -32 171.5 -80.5t136.5 -82.5l178 89l87 -153l-113 -55q169 -151 261 -343t92 -404q0 -115 -43.5 -217t-119 -176.5t-184.5 -118t-235 -43.5q-161 0 -295 69.5t-211 190t-77 265.5q0 109 47.5 207t123.5 164.5
t172 105.5t192 39q78 0 133 -35q-62 86 -147 154zM426 511q0 -88 62 -147.5t154 -59.5t154 59.5t62 147.5t-62 148t-154 60t-154 -60t-62 -148z" />
    <glyph glyph-name="ntilde" unicode="&#xf1;" horiz-adv-x="1267" 
d="M500 570v-570h-379v1061h379v-105q103 125 278 125q167 0 277.5 -110.5t110.5 -294.5v-676h-379v600q0 66 -39.5 111t-100.5 45q-64 0 -105.5 -46.5t-41.5 -139.5zM654 1248q-66 34 -87 34q-35 0 -51 -71l-282 55q22 124 83.5 187.5t157.5 63.5q80 0 159 -43
q66 -34 87 -34q36 0 51 70l282 -54q-22 -124 -83.5 -187.5t-157.5 -63.5q-79 0 -159 43z" />
    <glyph glyph-name="ograve" unicode="&#xf2;" horiz-adv-x="1313" 
d="M57 530q0 115 46 218t125.5 177t191 117t236.5 43q126 0 237 -43t190.5 -117t125.5 -177t46 -218t-46 -218t-125.5 -177t-190.5 -117t-237 -43q-125 0 -236.5 43t-191 117t-125.5 177t-46 218zM429 530q0 -96 64.5 -161t162.5 -65q99 0 164 65t65 161t-65.5 161.5
t-163.5 65.5t-162.5 -65t-64.5 -162zM643 1155l-314 311l237 192l244 -369z" />
    <glyph glyph-name="oacute" unicode="&#xf3;" horiz-adv-x="1313" 
d="M57 530q0 115 46 218t125.5 177t191 117t236.5 43q126 0 237 -43t190.5 -117t125.5 -177t46 -218t-46 -218t-125.5 -177t-190.5 -117t-237 -43q-125 0 -236.5 43t-191 117t-125.5 177t-46 218zM429 530q0 -96 64.5 -161t162.5 -65q99 0 164 65t65 161t-65.5 161.5
t-163.5 65.5t-162.5 -65t-64.5 -162zM978 1466l-315 -311l-168 134l246 369z" />
    <glyph glyph-name="ocircumflex" unicode="&#xf4;" horiz-adv-x="1313" 
d="M57 530q0 115 46 218t125.5 177t191 117t236.5 43q126 0 237 -43t190.5 -117t125.5 -177t46 -218t-46 -218t-125.5 -177t-190.5 -117t-237 -43q-125 0 -236.5 43t-191 117t-125.5 177t-46 218zM429 530q0 -96 64.5 -161t162.5 -65q99 0 164 65t65 161t-65.5 161.5
t-163.5 65.5t-162.5 -65t-64.5 -162zM477 1564h357l217 -260l-167 -134l-229 213l-228 -213l-167 134z" />
    <glyph glyph-name="otilde" unicode="&#xf5;" horiz-adv-x="1313" 
d="M57 530q0 115 46 218t125.5 177t191 117t236.5 43q126 0 237 -43t190.5 -117t125.5 -177t46 -218t-46 -218t-125.5 -177t-190.5 -117t-237 -43q-125 0 -236.5 43t-191 117t-125.5 177t-46 218zM429 530q0 -96 64.5 -161t162.5 -65q99 0 164 65t65 161t-65.5 161.5
t-163.5 65.5t-162.5 -65t-64.5 -162zM667 1248q-66 34 -87 34q-36 0 -52 -71l-281 55q22 124 83 187.5t157 63.5q80 0 159 -43q66 -34 87 -34q36 0 51 70l282 -54q-22 -124 -83.5 -187.5t-157.5 -63.5q-78 0 -158 43z" />
    <glyph glyph-name="odieresis" unicode="&#xf6;" horiz-adv-x="1313" 
d="M57 530q0 115 46 218t125.5 177t191 117t236.5 43q126 0 237 -43t190.5 -117t125.5 -177t46 -218t-46 -218t-125.5 -177t-190.5 -117t-237 -43q-125 0 -236.5 43t-191 117t-125.5 177t-46 218zM429 530q0 -96 64.5 -161t162.5 -65q99 0 164 65t65 161t-65.5 161.5
t-163.5 65.5t-162.5 -65t-64.5 -162zM259 1372q0 75 52.5 126.5t129.5 51.5t129.5 -51.5t52.5 -126.5t-52.5 -126.5t-129.5 -51.5t-129.5 51.5t-52.5 126.5zM690 1372q0 75 52.5 126.5t128.5 51.5q77 0 130 -51.5t53 -126.5t-53 -126.5t-130 -51.5q-76 0 -128.5 51.5
t-52.5 126.5z" />
    <glyph glyph-name="divide" unicode="&#xf7;" horiz-adv-x="1206" 
d="M1090 520h-973v320h973v-320zM394 1105q0 84 58 141.5t143 57.5t143 -57.5t58 -141.5q0 -83 -58 -140.5t-143 -57.5t-143 57.5t-58 140.5zM394 254q0 83 58 140.5t143 57.5t143 -57.5t58 -140.5t-58 -140.5t-143 -57.5t-143 57.5t-58 140.5z" />
    <glyph glyph-name="oslash" unicode="&#xf8;" horiz-adv-x="1313" 
d="M57 530q0 115 46 218t125.5 177t191 117t236.5 43q143 0 265 -54l114 149l158 -118l-108 -138q81 -75 125.5 -177t44.5 -217t-46 -218t-125.5 -177t-190.5 -117t-237 -43q-141 0 -265 55l-116 -149l-158 116l109 141q-80 76 -124.5 177t-44.5 215zM898 530q0 59 -30 114
l-269 -346q25 -7 57 -7q103 0 172.5 69t69.5 170zM416 530q0 -60 27 -112l269 344q-27 8 -56 8q-102 0 -171 -69t-69 -171z" />
    <glyph glyph-name="ugrave" unicode="&#xf9;" horiz-adv-x="1267" 
d="M767 494v567h379v-1061h-379v102q-101 -122 -279 -122q-167 0 -277.5 110t-110.5 294v677h379v-601q0 -66 40 -111t101 -45q65 0 106 48t41 142zM604 1155l-314 311l237 192l244 -369z" />
    <glyph glyph-name="uacute" unicode="&#xfa;" horiz-adv-x="1267" 
d="M767 494v567h379v-1061h-379v102q-101 -122 -279 -122q-167 0 -277.5 110t-110.5 294v677h379v-601q0 -66 40 -111t101 -45q65 0 106 48t41 142zM948 1466l-315 -311l-168 134l246 369z" />
    <glyph glyph-name="ucircumflex" unicode="&#xfb;" horiz-adv-x="1267" 
d="M767 494v567h379v-1061h-379v102q-101 -122 -279 -122q-167 0 -277.5 110t-110.5 294v677h379v-601q0 -66 40 -111t101 -45q65 0 106 48t41 142zM444 1564h357l217 -260l-167 -134l-229 213l-228 -213l-167 134z" />
    <glyph glyph-name="udieresis" unicode="&#xfc;" horiz-adv-x="1267" 
d="M767 494v567h379v-1061h-379v102q-101 -122 -279 -122q-167 0 -277.5 110t-110.5 294v677h379v-601q0 -66 40 -111t101 -45q65 0 106 48t41 142zM226 1372q0 75 53 126.5t130 51.5q76 0 128.5 -51.5t52.5 -126.5t-52.5 -126.5t-128.5 -51.5q-77 0 -130 51.5t-53 126.5z
M657 1372q0 75 52.5 126.5t129.5 51.5t129.5 -51.5t52.5 -126.5t-52.5 -126.5t-129.5 -51.5t-129.5 51.5t-52.5 126.5z" />
    <glyph glyph-name="yacute" unicode="&#xfd;" horiz-adv-x="1136" 
d="M723 1061h396l-533 -1536h-398l197 475l-369 1061h397l154 -581zM890 1466l-315 -311l-168 134l246 369z" />
    <glyph glyph-name="thorn" unicode="&#xfe;" horiz-adv-x="1353" 
d="M1296 530q0 -155 -60.5 -281.5t-172 -200t-251.5 -73.5q-192 0 -322 133v-583h-368v1970h368v-542q129 132 322 132q140 0 251.5 -73.5t172 -200t60.5 -281.5zM925 530q0 96 -62.5 161.5t-153.5 65.5q-92 0 -155.5 -65.5t-63.5 -161.5t63.5 -161t155.5 -65q91 0 153.5 65
t62.5 161z" />
    <glyph glyph-name="ydieresis" unicode="&#xff;" horiz-adv-x="1136" 
d="M723 1061h396l-533 -1536h-398l197 475l-369 1061h397l154 -581zM171 1372q0 75 52.5 126.5t129.5 51.5t129.5 -51.5t52.5 -126.5t-52.5 -126.5t-129.5 -51.5t-129.5 51.5t-52.5 126.5zM602 1372q0 75 52.5 126.5t128.5 51.5q77 0 130 -51.5t53 -126.5t-53 -126.5
t-130 -51.5q-76 0 -128.5 51.5t-52.5 126.5z" />
    <glyph glyph-name="Amacron" unicode="&#x100;" horiz-adv-x="1430" 
d="M503 1434h424l482 -1434h-400l-80 274h-429l-79 -274h-401zM715 1030l-133 -460h266zM377 1566v272h676v-272h-676z" />
    <glyph glyph-name="amacron" unicode="&#x101;" horiz-adv-x="1353" 
d="M57 530q0 155 61 281.5t172.5 200t251.5 73.5q191 0 321 -132v108h369v-1061h-369v108q-131 -133 -321 -133q-140 0 -251.5 73.5t-172.5 200t-61 281.5zM429 530q0 -96 63 -161t154 -65t154 65t63 161t-63 161.5t-154 65.5t-154 -65.5t-63 -161.5zM327 1234v272h675v-272
h-675z" />
    <glyph glyph-name="Abreve" unicode="&#x102;" horiz-adv-x="1430" 
d="M503 1434h424l482 -1434h-400l-80 274h-429l-79 -274h-401zM715 1030l-133 -460h266zM715 1524q-157 0 -272.5 91t-119.5 230h292q1 -41 30 -68t70 -27t69.5 27t29.5 68h293q-4 -139 -119.5 -230t-272.5 -91z" />
    <glyph glyph-name="abreve" unicode="&#x103;" horiz-adv-x="1353" 
d="M57 530q0 155 61 281.5t172.5 200t251.5 73.5q191 0 321 -132v108h369v-1061h-369v108q-131 -133 -321 -133q-140 0 -251.5 73.5t-172.5 200t-61 281.5zM429 530q0 -96 63 -161t154 -65t154 65t63 161t-63 161.5t-154 65.5t-154 -65.5t-63 -161.5zM665 1192
q-157 0 -273 91t-120 230h293q1 -41 30 -68t70 -27t69.5 27t29.5 68h293q-4 -139 -119.5 -230t-272.5 -91z" />
    <glyph glyph-name="Aogonek" unicode="&#x104;" horiz-adv-x="1430" 
d="M1171 0h-162q-16 52 -43 146.5t-37 127.5h-429q-60 -209 -79 -274h-401l483 1434h424l482 -1434q-172 -128 -172 -237q0 -44 20 -69t51 -25q34 0 56 28t26 74h233q-14 -139 -100 -213.5t-235 -74.5q-126 0 -216 70.5t-90 174.5q0 73 52 145t137 127zM715 1030l-133 -460
h266z" />
    <glyph glyph-name="aogonek" unicode="&#x105;" horiz-adv-x="1353" 
d="M57 530q0 155 61 281.5t172.5 200t251.5 73.5q191 0 321 -132v108h369v-1061q-171 -130 -171 -237q0 -45 19 -70t50 -25q34 0 56 28t26 75h235q-14 -138 -100.5 -213t-234.5 -75q-126 0 -216.5 70t-90.5 174q0 74 52.5 146t137.5 127h-132v108q-131 -133 -321 -133
q-140 0 -251.5 73.5t-172.5 200t-61 281.5zM429 530q0 -96 63 -161t154 -65t154 65t63 161t-63 161.5t-154 65.5t-154 -65.5t-63 -161.5z" />
    <glyph glyph-name="Cacute" unicode="&#x106;" horiz-adv-x="1550" 
d="M824 -25q-158 0 -297.5 57.5t-239 156.5t-157.5 236.5t-58 291.5q0 210 92.5 379t260 265.5t379.5 96.5q256 0 438.5 -142.5t235.5 -396.5h-412q-25 94 -93.5 148t-161.5 54q-157 0 -252.5 -114t-95.5 -290q0 -175 103.5 -290.5t264.5 -115.5q132 0 233.5 54.5
t188.5 169.5l209 -157q-107 -189 -266.5 -296t-371.5 -107zM1093 1797l-315 -311l-168 134l246 369z" />
    <glyph glyph-name="cacute" unicode="&#x107;" horiz-adv-x="1208" 
d="M953 444l176 -144q-169 -325 -496 -325q-117 0 -223.5 43t-184 117t-123 177t-45.5 218q0 154 73 281t202.5 200.5t287.5 73.5q212 0 354.5 -119t176.5 -315h-376q-39 106 -155 106q-79 0 -135 -66t-56 -161q0 -99 62 -162.5t173 -63.5q166 0 289 140zM907 1466
l-315 -311l-168 134l246 369z" />
    <glyph glyph-name="Ccircumflex" unicode="&#x108;" horiz-adv-x="1550" 
d="M824 -25q-158 0 -297.5 57.5t-239 156.5t-157.5 236.5t-58 291.5q0 210 92.5 379t260 265.5t379.5 96.5q256 0 438.5 -142.5t235.5 -396.5h-412q-25 94 -93.5 148t-161.5 54q-157 0 -252.5 -114t-95.5 -290q0 -175 103.5 -290.5t264.5 -115.5q132 0 233.5 54.5
t188.5 169.5l209 -157q-107 -189 -266.5 -296t-371.5 -107zM630 1895h357l217 -260l-167 -134l-229 213l-228 -213l-167 134z" />
    <glyph glyph-name="ccircumflex" unicode="&#x109;" horiz-adv-x="1208" 
d="M953 444l176 -144q-169 -325 -496 -325q-117 0 -223.5 43t-184 117t-123 177t-45.5 218q0 154 73 281t202.5 200.5t287.5 73.5q212 0 354.5 -119t176.5 -315h-376q-39 106 -155 106q-79 0 -135 -66t-56 -161q0 -99 62 -162.5t173 -63.5q166 0 289 140zM435 1564h357
l217 -260l-167 -134l-229 213l-228 -213l-167 134z" />
    <glyph glyph-name="Cdotaccent" unicode="&#x10a;" horiz-adv-x="1550" 
d="M824 -25q-158 0 -297.5 57.5t-239 156.5t-157.5 236.5t-58 291.5q0 210 92.5 379t260 265.5t379.5 96.5q256 0 438.5 -142.5t235.5 -396.5h-412q-25 94 -93.5 148t-161.5 54q-157 0 -252.5 -114t-95.5 -290q0 -175 103.5 -290.5t264.5 -115.5q132 0 233.5 54.5
t188.5 169.5l209 -157q-107 -189 -266.5 -296t-371.5 -107zM616 1704q0 77 55.5 131t134.5 54t134 -54t55 -131t-55 -131.5t-134 -54.5t-134.5 54.5t-55.5 131.5z" />
    <glyph glyph-name="cdotaccent" unicode="&#x10b;" horiz-adv-x="1208" 
d="M953 444l176 -144q-169 -325 -496 -325q-117 0 -223.5 43t-184 117t-123 177t-45.5 218q0 154 73 281t202.5 200.5t287.5 73.5q212 0 354.5 -119t176.5 -315h-376q-39 106 -155 106q-79 0 -135 -66t-56 -161q0 -99 62 -162.5t173 -63.5q166 0 289 140zM438 1372
q0 77 55.5 131.5t134.5 54.5t134 -54.5t55 -131.5t-55 -131.5t-134 -54.5t-134.5 54.5t-55.5 131.5z" />
    <glyph glyph-name="Ccaron" unicode="&#x10c;" horiz-adv-x="1550" 
d="M824 -25q-158 0 -297.5 57.5t-239 156.5t-157.5 236.5t-58 291.5q0 210 92.5 379t260 265.5t379.5 96.5q256 0 438.5 -142.5t235.5 -396.5h-412q-25 94 -93.5 148t-161.5 54q-157 0 -252.5 -114t-95.5 -290q0 -175 103.5 -290.5t264.5 -115.5q132 0 233.5 54.5
t188.5 169.5l209 -157q-107 -189 -266.5 -296t-371.5 -107zM986 1544h-356l-217 260l167 134l228 -213l228 213l167 -134z" />
    <glyph glyph-name="ccaron" unicode="&#x10d;" horiz-adv-x="1208" 
d="M953 444l176 -144q-169 -325 -496 -325q-117 0 -223.5 43t-184 117t-123 177t-45.5 218q0 154 73 281t202.5 200.5t287.5 73.5q212 0 354.5 -119t176.5 -315h-376q-39 106 -155 106q-79 0 -135 -66t-56 -161q0 -99 62 -162.5t173 -63.5q166 0 289 140zM793 1192h-357
l-217 260l167 134l228 -213l229 213l167 -134z" />
    <glyph glyph-name="Dcaron" unicode="&#x10e;" horiz-adv-x="1484" 
d="M693 0h-550v1434h550q158 0 292 -52.5t228 -146t146.5 -227.5t52.5 -291q0 -319 -199.5 -518t-519.5 -199zM532 336h131q166 0 262 100t96 281q0 180 -96 280t-262 100h-131v-761zM853 1544h-357l-217 260l167 134l228 -213l229 213l167 -134z" />
    <glyph glyph-name="dcaron" unicode="&#x10f;" horiz-adv-x="1757" 
d="M57 530q0 155 61 281.5t172.5 200t251.5 73.5q191 0 321 -132v542h369v-1495h-369v108q-131 -133 -321 -133q-140 0 -251.5 73.5t-172.5 200t-61 281.5zM429 530q0 -96 63 -161t154 -65t154 65t63 161t-63 161.5t-154 65.5t-154 -65.5t-63 -161.5zM1339 1348
q0 65 55.5 118t145.5 53q83 0 138 -55.5t55 -144.5q0 -149 -95 -276.5t-284 -192.5l-68 104q101 61 138.5 108.5t26 86.5t-64.5 90q-47 44 -47 109z" />
    <glyph glyph-name="Dcroat" unicode="&#x110;" horiz-adv-x="1527" 
d="M736 0h-550v605h-169v222h169v607h550q158 0 292 -52.5t228 -146t146.5 -227.5t52.5 -291q0 -319 -199.5 -518t-519.5 -199zM575 336h131q166 0 262 100t96 281q0 180 -96 280t-262 100h-131v-270h205v-222h-205v-269z" />
    <glyph glyph-name="dcroat" unicode="&#x111;" horiz-adv-x="1386" 
d="M57 530q0 155 61 281.5t172.5 200t251.5 73.5q93 0 176.5 -35t144.5 -97v211h-258v202h258v129h369v-129h134v-202h-134v-1164h-369v106q-129 -131 -321 -131q-212 0 -348.5 159t-136.5 396zM429 530q0 -96 62.5 -161t153.5 -65q92 0 155 65t63 161t-63 161t-155 65
q-91 0 -153.5 -65t-62.5 -161z" />
    <glyph glyph-name="Emacron" unicode="&#x112;" horiz-adv-x="1185" 
d="M143 0v1434h934v-326h-543v-227h494v-320h-494v-235h562v-326h-953zM262 1566v272h676v-272h-676z" />
    <glyph glyph-name="emacron" unicode="&#x113;" horiz-adv-x="1268" 
d="M435 431q15 -90 79.5 -137t172.5 -47q198 0 336 115l137 -169q-196 -218 -482 -218q-274 0 -447.5 159t-173.5 396q0 154 77 281.5t212 200.5t298 73q160 0 290 -71.5t203 -195t73 -272.5q0 -59 -17 -115h-758zM638 814q-78 0 -130 -43t-70 -124h393q-31 167 -193 167z
M296 1234v272h676v-272h-676z" />
    <glyph glyph-name="Ebreve" unicode="&#x114;" horiz-adv-x="1185" 
d="M143 0v1434h934v-326h-543v-227h494v-320h-494v-235h562v-326h-953zM607 1524q-157 0 -272.5 91t-119.5 230h293q1 -41 29.5 -68t69.5 -27t70 27t30 68h292q-4 -139 -119.5 -230t-272.5 -91z" />
    <glyph glyph-name="ebreve" unicode="&#x115;" horiz-adv-x="1268" 
d="M435 431q15 -90 79.5 -137t172.5 -47q198 0 336 115l137 -169q-196 -218 -482 -218q-274 0 -447.5 159t-173.5 396q0 154 77 281.5t212 200.5t298 73q160 0 290 -71.5t203 -195t73 -272.5q0 -59 -17 -115h-758zM638 814q-78 0 -130 -43t-70 -124h393q-31 167 -193 167z
M634 1192q-157 0 -272.5 91t-119.5 230h293q1 -41 29.5 -68t69.5 -27t69.5 27t29.5 68h293q-4 -139 -119.5 -230t-272.5 -91z" />
    <glyph glyph-name="Edotaccent" unicode="&#x116;" horiz-adv-x="1185" 
d="M143 0v1434h934v-326h-543v-227h494v-320h-494v-235h562v-326h-953zM425 1704q0 77 55 131t134 54t134.5 -54t55.5 -131t-55.5 -131.5t-134.5 -54.5t-134 54.5t-55 131.5z" />
    <glyph glyph-name="edotaccent" unicode="&#x117;" horiz-adv-x="1268" 
d="M435 431q15 -90 79.5 -137t172.5 -47q198 0 336 115l137 -169q-196 -218 -482 -218q-274 0 -447.5 159t-173.5 396q0 154 77 281.5t212 200.5t298 73q160 0 290 -71.5t203 -195t73 -272.5q0 -59 -17 -115h-758zM638 814q-78 0 -130 -43t-70 -124h393q-31 167 -193 167z
M444 1372q0 77 55.5 131.5t134.5 54.5t134 -54.5t55 -131.5t-55 -131.5t-134 -54.5t-134.5 54.5t-55.5 131.5z" />
    <glyph glyph-name="Eogonek" unicode="&#x118;" horiz-adv-x="1185" 
d="M143 0v1434h934v-326h-543v-227h494v-320h-494v-235h562v-326h-164q-172 -130 -172 -237q0 -45 19 -70t51 -25q34 0 56 28t25 75h235q-14 -139 -100 -213.5t-235 -74.5q-126 0 -216 70t-90 174q0 74 52 146t137 127h-551z" />
    <glyph glyph-name="eogonek" unicode="&#x119;" horiz-adv-x="1268" 
d="M435 431q15 -90 79.5 -137t172.5 -47q198 0 336 115l137 -169q-152 -171 -360 -207q-154 -123 -154 -223q0 -45 20 -70t51 -25q34 0 56 28t26 75h233q-13 -138 -99.5 -213t-235.5 -75q-126 0 -216 70t-90 174q0 69 45.5 136t121.5 122q-227 34 -364 184.5t-137 360.5
q0 154 77 281.5t212 200.5t298 73q160 0 290 -71.5t203 -195t73 -272.5q0 -59 -17 -115h-758zM638 814q-78 0 -130 -43t-70 -124h393q-31 167 -193 167z" />
    <glyph glyph-name="Ecaron" unicode="&#x11a;" horiz-adv-x="1185" 
d="M143 0v1434h934v-326h-543v-227h494v-320h-494v-235h562v-326h-953zM784 1544h-357l-217 260l167 134l228 -213l229 213l167 -134z" />
    <glyph glyph-name="ecaron" unicode="&#x11b;" horiz-adv-x="1268" 
d="M435 431q15 -90 79.5 -137t172.5 -47q198 0 336 115l137 -169q-196 -218 -482 -218q-274 0 -447.5 159t-173.5 396q0 154 77 281.5t212 200.5t298 73q160 0 290 -71.5t203 -195t73 -272.5q0 -59 -17 -115h-758zM638 814q-78 0 -130 -43t-70 -124h393q-31 167 -193 167z
M811 1192h-357l-217 260l167 134l228 -213l229 213l167 -134z" />
    <glyph glyph-name="Gcircumflex" unicode="&#x11c;" horiz-adv-x="1569" 
d="M775 780h722v-63q0 -171 -50 -310.5t-140.5 -234t-218.5 -146t-282 -51.5q-147 0 -282.5 58t-234 156.5t-157.5 236.5t-59 291q0 154 56.5 291.5t154 236t233.5 156t289 57.5q254 0 433.5 -132t243.5 -397h-415q-66 193 -268 193q-138 0 -237.5 -114.5t-99.5 -290.5
t99.5 -291t250.5 -115q107 0 182 55t104 148h-324v266zM630 1895h356l217 -260l-167 -134l-228 213l-228 -213l-167 134z" />
    <glyph glyph-name="gcircumflex" unicode="&#x11d;" horiz-adv-x="1353" 
d="M57 530q0 155 61 281.5t172.5 200t251.5 73.5q191 0 321 -132v108h369v-988q0 -259 -155 -403.5t-420 -144.5q-307 0 -524 232l134 190q85 -65 161 -93.5t168 -28.5q121 0 194 60t73 165v76q-132 -130 -321 -130q-139 0 -251 72.5t-173 194.5t-61 267zM429 530
q0 -96 63 -161t154 -65t154 65t63 161t-63 161.5t-154 65.5t-154 -65.5t-63 -161.5zM505 1564h356l217 -260l-167 -135l-228 213l-228 -213l-167 135z" />
    <glyph glyph-name="Gbreve" unicode="&#x11e;" horiz-adv-x="1569" 
d="M775 780h722v-63q0 -171 -50 -310.5t-140.5 -234t-218.5 -146t-282 -51.5q-147 0 -282.5 58t-234 156.5t-157.5 236.5t-59 291q0 154 56.5 291.5t154 236t233.5 156t289 57.5q254 0 433.5 -132t243.5 -397h-415q-66 193 -268 193q-138 0 -237.5 -114.5t-99.5 -290.5
t99.5 -291t250.5 -115q107 0 182 55t104 148h-324v266zM809 1524q-157 0 -272.5 91.5t-119.5 230.5h293q2 -41 30 -68.5t69 -27.5t70 27.5t30 68.5h293q-4 -139 -120 -230.5t-273 -91.5z" />
    <glyph glyph-name="gbreve" unicode="&#x11f;" horiz-adv-x="1353" 
d="M57 530q0 155 61 281.5t172.5 200t251.5 73.5q191 0 321 -132v108h369v-988q0 -259 -155 -403.5t-420 -144.5q-307 0 -524 232l134 190q85 -65 161 -93.5t168 -28.5q121 0 194 60t73 165v76q-132 -130 -321 -130q-139 0 -251 72.5t-173 194.5t-61 267zM429 530
q0 -96 63 -161t154 -65t154 65t63 161t-63 161.5t-154 65.5t-154 -65.5t-63 -161.5zM664 1192q-157 0 -272.5 91.5t-119.5 230.5h293q2 -41 30 -68.5t69 -27.5t70 27.5t30 68.5h293q-4 -139 -120 -230.5t-273 -91.5z" />
    <glyph glyph-name="Gdotaccent" unicode="&#x120;" horiz-adv-x="1569" 
d="M775 780h722v-63q0 -171 -50 -310.5t-140.5 -234t-218.5 -146t-282 -51.5q-147 0 -282.5 58t-234 156.5t-157.5 236.5t-59 291q0 154 56.5 291.5t154 236t233.5 156t289 57.5q254 0 433.5 -132t243.5 -397h-415q-66 193 -268 193q-138 0 -237.5 -114.5t-99.5 -290.5
t99.5 -291t250.5 -115q107 0 182 55t104 148h-324v266zM616 1704q0 77 55.5 131t134.5 54t134 -54t55 -131t-55 -131.5t-134 -54.5t-134.5 54.5t-55.5 131.5z" />
    <glyph glyph-name="gdotaccent" unicode="&#x121;" horiz-adv-x="1353" 
d="M57 530q0 155 61 281.5t172.5 200t251.5 73.5q191 0 321 -132v108h369v-988q0 -259 -155 -403.5t-420 -144.5q-307 0 -524 232l134 190q85 -65 161 -93.5t168 -28.5q121 0 194 60t73 165v76q-132 -130 -321 -130q-139 0 -251 72.5t-173 194.5t-61 267zM429 530
q0 -96 63 -161t154 -65t154 65t63 161t-63 161.5t-154 65.5t-154 -65.5t-63 -161.5zM473 1372q0 77 55 131t134 54t134.5 -54t55.5 -131t-55.5 -131.5t-134.5 -54.5t-134 54.5t-55 131.5z" />
    <glyph glyph-name="Gcommaaccent" unicode="&#x122;" horiz-adv-x="1569" 
d="M775 780h722v-63q0 -171 -50 -310.5t-140.5 -234t-218.5 -146t-282 -51.5q-147 0 -282.5 58t-234 156.5t-157.5 236.5t-59 291q0 154 56.5 291.5t154 236t233.5 156t289 57.5q254 0 433.5 -132t243.5 -397h-415q-66 193 -268 193q-138 0 -237.5 -114.5t-99.5 -290.5
t99.5 -291t250.5 -115q107 0 182 55t104 148h-324v266zM764 -58l236 -193l-314 -311l-167 134z" />
    <glyph glyph-name="gcommaaccent" unicode="&#x123;" horiz-adv-x="1353" 
d="M57 530q0 155 61 281.5t172.5 200t251.5 73.5q191 0 321 -132v108h369v-988q0 -259 -155 -403.5t-420 -144.5q-307 0 -524 232l134 190q85 -65 161 -93.5t168 -28.5q121 0 194 60t73 165v76q-132 -130 -321 -130q-139 0 -251 72.5t-173 194.5t-61 267zM429 530
q0 -96 63 -161t154 -65t154 65t63 161t-63 161.5t-154 65.5t-154 -65.5t-63 -161.5zM720 1127l-237 193l315 311l167 -134z" />
    <glyph glyph-name="Hcircumflex" unicode="&#x124;" horiz-adv-x="1463" 
d="M143 0v1434h391v-545h396v545h389v-1434h-389v553h-396v-553h-391zM552 1895h357l217 -260l-167 -134l-229 213l-228 -213l-167 134z" />
    <glyph glyph-name="hcircumflex" unicode="&#x125;" horiz-adv-x="1267" 
d="M500 570v-570h-379v1495h379v-539q106 129 283 129q166 0 274.5 -113.5t108.5 -295.5v-676h-379v600q0 71 -37.5 113.5t-102.5 42.5q-64 0 -105.5 -46.5t-41.5 -139.5zM129 1957h357l217 -260l-167 -134l-229 213l-228 -213l-167 134z" />
    <glyph glyph-name="Hbar" unicode="&#x126;" horiz-adv-x="1477" 
d="M151 0v1041h-123v214h123v179h390v-179h396v179h389v-179h123v-214h-123v-1041h-389v561h-396v-561h-390zM541 881h396v160h-396v-160z" />
    <glyph glyph-name="hbar" unicode="&#x127;" horiz-adv-x="1295" 
d="M20 1164v202h128v129h379v-129h253v-202h-253v-208q104 126 282 126q166 0 275.5 -111.5t109.5 -294.5v-676h-379v600q0 66 -39.5 111t-100.5 45q-65 0 -106.5 -48t-41.5 -142v-566h-379v1164h-128z" />
    <glyph glyph-name="Itilde" unicode="&#x128;" horiz-adv-x="681" 
d="M536 1434v-1434h-391v1434h391zM351 1587q-66 34 -87 34q-35 0 -51 -71l-282 55q22 124 83 187t158 63q80 0 159 -43q64 -33 87 -33q36 0 51 70l282 -54q-22 -124 -83.5 -187.5t-157.5 -63.5q-79 0 -159 43z" />
    <glyph glyph-name="itilde" unicode="&#x129;" horiz-adv-x="614" 
d="M317 1248q-66 34 -87 34q-35 0 -51 -71l-281 55q22 124 83 187.5t157 63.5q80 0 159 -43q66 -34 87 -34q36 0 51 70l282 -54q-22 -124 -83.5 -187.5t-157.5 -63.5q-79 0 -159 43zM118 0v1061h379v-1061h-379z" />
    <glyph glyph-name="Imacron" unicode="&#x12a;" horiz-adv-x="681" 
d="M536 1434v-1434h-391v1434h391zM4 1566v272h675v-272h-675z" />
    <glyph glyph-name="imacron" unicode="&#x12b;" horiz-adv-x="614" 
d="M-31 1234v272h676v-272h-676zM118 0v1061h379v-1061h-379z" />
    <glyph glyph-name="Ibreve" unicode="&#x12c;" horiz-adv-x="681" 
d="M536 1434v-1434h-391v1434h391zM341 1524q-157 0 -272.5 91t-119.5 230h293q1 -41 29.5 -68t69.5 -27t69.5 27t29.5 68h293q-4 -139 -119.5 -230t-272.5 -91z" />
    <glyph glyph-name="ibreve" unicode="&#x12d;" horiz-adv-x="614" 
d="M307 1192q-157 0 -272.5 91t-119.5 230h293q1 -41 29.5 -68t69.5 -27t70 27t30 68h292q-4 -139 -119.5 -230t-272.5 -91zM118 0v1061h379v-1061h-379z" />
    <glyph glyph-name="Iogonek" unicode="&#x12e;" horiz-adv-x="681" 
d="M299 0h-153v1434h390v-1434q-172 -131 -172 -237q0 -45 19.5 -70t50.5 -25q34 0 56 28t26 75h235q-14 -138 -100.5 -213t-234.5 -75q-126 0 -216.5 70t-90.5 174q0 74 52.5 146t137.5 127z" />
    <glyph glyph-name="iogonek" unicode="&#x12f;" horiz-adv-x="614" 
d="M118 0v1061h379v-1061q-172 -130 -172 -237q0 -45 19 -70t51 -25q34 0 56 28t25 75h235q-14 -138 -100.5 -213t-234.5 -75q-126 0 -216 70t-90 174q0 74 52 146t137 127h-141zM97 1332q0 84 60.5 140.5t149.5 56.5t149.5 -56.5t60.5 -140.5q0 -83 -60.5 -139.5
t-149.5 -56.5t-149.5 56.5t-60.5 139.5z" />
    <glyph glyph-name="Idotaccent" unicode="&#x130;" horiz-adv-x="681" 
d="M536 1434v-1434h-391v1434h391zM152 1704q0 77 55 131t134 54t134.5 -54t55.5 -131t-55.5 -131.5t-134.5 -54.5t-134 54.5t-55 131.5z" />
    <glyph glyph-name="dotlessi" unicode="&#x131;" horiz-adv-x="614" 
d="M118 0v1061h379v-1061h-379z" />
    <glyph glyph-name="IJ" unicode="&#x132;" horiz-adv-x="1607" 
d="M536 1434v-1434h-391v1434h391zM1087 487v947h390v-977q0 -119 -33.5 -212.5t-93 -151.5t-137.5 -88t-169 -30q-220 0 -387 135l99 252q88 -51 175 -51q71 0 113.5 46.5t42.5 129.5z" />
    <glyph glyph-name="ij" unicode="&#x133;" horiz-adv-x="1228" 
d="M118 0v1061h379v-1061h-379zM97 1332q0 84 60.5 140.5t149.5 56.5t149.5 -56.5t60.5 -140.5q0 -83 -60.5 -139.5t-149.5 -56.5t-149.5 56.5t-60.5 139.5zM732 -55v1116h379v-1167q0 -169 -108 -269t-287 -100q-79 0 -136 21v303h57q95 0 95 96zM712 1332q0 84 60.5 140.5
t149.5 56.5t149.5 -56.5t60.5 -140.5q0 -83 -60.5 -139.5t-149.5 -56.5t-149.5 56.5t-60.5 139.5z" />
    <glyph glyph-name="Jcircumflex" unicode="&#x134;" horiz-adv-x="965" 
d="M446 487v947h390v-977q0 -119 -33.5 -212.5t-93 -151.5t-137.5 -88t-169 -30q-220 0 -387 135l99 252q88 -51 175 -51q71 0 113.5 46.5t42.5 129.5zM464 1895h357l217 -260l-167 -134l-229 213l-228 -213l-167 134z" />
    <glyph glyph-name="jcircumflex" unicode="&#x135;" horiz-adv-x="614" 
d="M118 -55v1116h379v-1167q0 -169 -108.5 -269t-287.5 -100q-75 0 -136 14v310h58q95 0 95 96zM128 1564h356l217 -260l-166 -135l-229 213l-228 -213l-167 135z" />
    <glyph glyph-name="Kcommaaccent" unicode="&#x136;" horiz-adv-x="1317" 
d="M868 1434h389q0 -540 -243 -732l345 -702h-416l-281 585h-128v-585h-391v1434h391v-513h50q147 0 215.5 119t68.5 394zM629 -58l236 -193l-314 -311l-167 134z" />
    <glyph glyph-name="kcommaaccent" unicode="&#x137;" horiz-adv-x="1166" 
d="M722 1061h379q0 -397 -187 -547l240 -514h-405l-174 412h-75v-412h-379v1495h379v-759h51q171 0 171 325zM513 -58l237 -193l-315 -311l-167 134z" />
    <glyph glyph-name="kgreenlandic" unicode="&#x138;" horiz-adv-x="1166" 
d="M723 1061h378q0 -396 -187 -546l240 -515h-404l-169 413h-81v-413h-378v1061h378v-325h52q171 0 171 325z" />
    <glyph glyph-name="Lacute" unicode="&#x139;" horiz-adv-x="1080" 
d="M143 0v1434h391v-1099h521v-335h-912zM681 1797l-315 -311l-168 134l246 369z" />
    <glyph glyph-name="lacute" unicode="&#x13a;" horiz-adv-x="614" 
d="M118 0v1495h379v-1495h-379zM603 1859l-315 -311l-168 134l246 369z" />
    <glyph glyph-name="Lcommaaccent" unicode="&#x13b;" horiz-adv-x="1080" 
d="M143 0v1434h391v-1099h521v-335h-912zM537 -58l236 -193l-314 -311l-167 134z" />
    <glyph glyph-name="lcommaaccent" unicode="&#x13c;" horiz-adv-x="614" 
d="M118 0v1495h379v-1495h-379zM244 -58l236 -193l-314 -311l-167 134z" />
    <glyph glyph-name="Lcaron" unicode="&#x13d;" horiz-adv-x="1101" 
d="M143 0v1434h391v-1099h521v-335h-912zM667 1286q0 65 55 118t145 53q83 0 138 -55.5t55 -144.5q0 -149 -95 -276.5t-284 -192.5l-68 105q76 46 116 83t48 70.5t-7.5 63.5t-55.5 68q-47 44 -47 108z" />
    <glyph glyph-name="lcaron" unicode="&#x13e;" horiz-adv-x="1020" 
d="M118 0v1495h379v-1495h-379zM603 1348q0 65 55.5 118t145.5 53q83 0 137.5 -55.5t54.5 -144.5q0 -149 -95 -276.5t-284 -192.5l-67 104q101 61 138.5 108.5t26 86.5t-64.5 90q-47 44 -47 109z" />
    <glyph glyph-name="Ldot" unicode="&#x13f;" horiz-adv-x="1084" 
d="M143 0v1434h391v-1099h521v-335h-912zM650 801q0 77 55.5 131t134.5 54t134 -54t55 -131q0 -78 -55 -132.5t-134 -54.5t-134.5 55t-55.5 132z" />
    <glyph glyph-name="ldot" unicode="&#x140;" horiz-adv-x="985" 
d="M118 0v1495h379v-1495h-379zM580 770q0 77 55 131t134 54t134 -54t55 -131t-55 -131.5t-134 -54.5t-134 54.5t-55 131.5z" />
    <glyph glyph-name="Lslash" unicode="&#x141;" horiz-adv-x="1103" 
d="M167 0v492l-91 -47l-102 196l193 97v696h389v-496l237 122l104 -193l-341 -176v-356h522v-335h-911z" />
    <glyph glyph-name="lslash" unicode="&#x142;" horiz-adv-x="695" 
d="M158 0v554l-91 -46l-102 195l193 97v695h379v-505l92 46l103 -192l-195 -99v-745h-379z" />
    <glyph glyph-name="Nacute" unicode="&#x143;" horiz-adv-x="1463" 
d="M143 0v1434h419l401 -876v876h356v-1434h-418l-400 876v-876h-358zM1052 1797l-315 -311l-168 134l246 369z" />
    <glyph glyph-name="nacute" unicode="&#x144;" horiz-adv-x="1267" 
d="M500 570v-570h-379v1061h379v-105q103 125 278 125q167 0 277.5 -110.5t110.5 -294.5v-676h-379v600q0 66 -39.5 111t-100.5 45q-64 0 -105.5 -46.5t-41.5 -139.5zM957 1466l-315 -311l-168 134l246 369z" />
    <glyph glyph-name="Ncommaaccent" unicode="&#x145;" horiz-adv-x="1463" 
d="M143 0v1434h419l401 -876v876h356v-1434h-418l-400 876v-876h-358zM683 -58l237 -193l-315 -311l-167 134z" />
    <glyph glyph-name="ncommaaccent" unicode="&#x146;" horiz-adv-x="1267" 
d="M500 570v-570h-379v1061h379v-105q103 125 278 125q167 0 277.5 -110.5t110.5 -294.5v-676h-379v600q0 66 -39.5 111t-100.5 45q-64 0 -105.5 -46.5t-41.5 -139.5zM588 -58l236 -193l-314 -311l-167 134z" />
    <glyph glyph-name="Ncaron" unicode="&#x147;" horiz-adv-x="1463" 
d="M143 0v1434h419l401 -876v876h356v-1434h-418l-400 876v-876h-358zM908 1544h-356l-217 260l167 134l228 -213l228 213l167 -134z" />
    <glyph glyph-name="ncaron" unicode="&#x148;" horiz-adv-x="1267" 
d="M500 570v-570h-379v1061h379v-105q103 125 278 125q167 0 277.5 -110.5t110.5 -294.5v-676h-379v600q0 66 -39.5 111t-100.5 45q-64 0 -105.5 -46.5t-41.5 -139.5zM816 1192h-356l-217 260l167 134l228 -213l228 213l167 -134z" />
    <glyph glyph-name="napostrophe" unicode="&#x149;" horiz-adv-x="1564" 
d="M797 570v-570h-379v1061h379v-105q103 125 278 125q167 0 277.5 -110.5t110.5 -294.5v-676h-379v600q0 66 -39.5 111t-100.5 45q-64 0 -105.5 -46.5t-41.5 -139.5zM41 1348q0 65 55.5 118t145.5 53q83 0 137.5 -55.5t54.5 -144.5q0 -149 -95 -276.5t-284 -192.5l-67 104
q101 61 138.5 108.5t26 86.5t-64.5 90q-47 44 -47 109z" />
    <glyph glyph-name="Eng" unicode="&#x14a;" horiz-adv-x="1463" 
d="M1319 1434v-1538q0 -172 -120 -271.5t-327 -99.5q-67 0 -124 15v272q48 -8 105 -8q54 0 82 25.5t28 72.5v113l-463 862v-877h-357v1434h369l451 -840v840h356z" />
    <glyph glyph-name="eng" unicode="&#x14b;" horiz-adv-x="1267" 
d="M500 570v-570h-379v1061h379v-105q106 129 283 129q166 0 274.5 -113.5t108.5 -295.5v-780q0 -172 -120.5 -271.5t-327.5 -99.5q-77 0 -140 15v272q46 -8 100 -8q51 0 80 26t29 72v698q0 66 -39.5 111t-100.5 45q-64 0 -105.5 -46.5t-41.5 -139.5z" />
    <glyph glyph-name="Omacron" unicode="&#x14c;" horiz-adv-x="1703" 
d="M463 717q0 -173 111.5 -289.5t277.5 -116.5t277.5 116.5t111.5 289.5t-111.5 289t-277.5 116t-277.5 -116t-111.5 -289zM73 717q0 154 60 291.5t163.5 236t248 156t307.5 57.5t307.5 -57.5t248 -156t163.5 -236t60 -291.5t-60 -291.5t-163.5 -236.5t-248 -156.5
t-307.5 -57.5t-307.5 57.5t-248 156.5t-163.5 236.5t-60 291.5zM515 1566v272h675v-272h-675z" />
    <glyph glyph-name="omacron" unicode="&#x14d;" horiz-adv-x="1313" 
d="M57 530q0 115 46 218t125.5 177t191 117t236.5 43q126 0 237 -43t190.5 -117t125.5 -177t46 -218t-46 -218t-125.5 -177t-190.5 -117t-237 -43q-125 0 -236.5 43t-191 117t-125.5 177t-46 218zM429 530q0 -96 64.5 -161t162.5 -65q99 0 164 65t65 161t-65.5 161.5
t-163.5 65.5t-162.5 -65t-64.5 -162zM319 1234v272h675v-272h-675z" />
    <glyph glyph-name="Obreve" unicode="&#x14e;" horiz-adv-x="1703" 
d="M463 717q0 -173 111.5 -289.5t277.5 -116.5t277.5 116.5t111.5 289.5t-111.5 289t-277.5 116t-277.5 -116t-111.5 -289zM73 717q0 154 60 291.5t163.5 236t248 156t307.5 57.5t307.5 -57.5t248 -156t163.5 -236t60 -291.5t-60 -291.5t-163.5 -236.5t-248 -156.5
t-307.5 -57.5t-307.5 57.5t-248 156.5t-163.5 236.5t-60 291.5zM852 1524q-157 0 -272.5 91t-119.5 230h293q1 -41 29.5 -68t69.5 -27t69.5 27t29.5 68h293q-4 -139 -119.5 -230t-272.5 -91z" />
    <glyph glyph-name="obreve" unicode="&#x14f;" horiz-adv-x="1313" 
d="M57 530q0 115 46 218t125.5 177t191 117t236.5 43q126 0 237 -43t190.5 -117t125.5 -177t46 -218t-46 -218t-125.5 -177t-190.5 -117t-237 -43q-125 0 -236.5 43t-191 117t-125.5 177t-46 218zM429 530q0 -96 64.5 -161t162.5 -65q99 0 164 65t65 161t-65.5 161.5
t-163.5 65.5t-162.5 -65t-64.5 -162zM656 1192q-157 0 -272.5 91t-119.5 230h293q1 -41 29.5 -68t69.5 -27t70 27t30 68h293q-4 -139 -120 -230t-273 -91z" />
    <glyph glyph-name="Ohungarumlaut" unicode="&#x150;" horiz-adv-x="1703" 
d="M463 717q0 -173 111.5 -289.5t277.5 -116.5t277.5 116.5t111.5 289.5t-111.5 289t-277.5 116t-277.5 -116t-111.5 -289zM73 717q0 154 60 291.5t163.5 236t248 156t307.5 57.5t307.5 -57.5t248 -156t163.5 -236t60 -291.5t-60 -291.5t-163.5 -236.5t-248 -156.5
t-307.5 -57.5t-307.5 57.5t-248 156.5t-163.5 236.5t-60 291.5zM962 1818l-315 -311l-140 113l246 370zM1358 1818l-315 -311l-140 113l246 370z" />
    <glyph glyph-name="ohungarumlaut" unicode="&#x151;" horiz-adv-x="1313" 
d="M57 530q0 115 46 218t125.5 177t191 117t236.5 43q126 0 237 -43t190.5 -117t125.5 -177t46 -218t-46 -218t-125.5 -177t-190.5 -117t-237 -43q-125 0 -236.5 43t-191 117t-125.5 177t-46 218zM429 530q0 -96 64.5 -161t162.5 -65q99 0 164 65t65 161t-65.5 161.5
t-163.5 65.5t-162.5 -65t-64.5 -162zM755 1486l-315 -310l-140 112l246 370zM1151 1486l-314 -310l-141 112l246 370z" />
    <glyph glyph-name="OE" unicode="&#x152;" horiz-adv-x="1886" 
d="M72 717q0 197 103.5 362t282.5 260t394 95h926v-327h-540v-226h491v-321h-491v-234h558v-326h-944q-161 0 -305.5 56t-248.5 151.5t-165 228.5t-61 281zM460 717q0 -111 55 -199t144.5 -135t196.5 -50v767q-164 -5 -280 -111.5t-116 -271.5z" />
    <glyph glyph-name="oe" unicode="&#x153;" horiz-adv-x="2215" 
d="M57 530q0 115 46 218t125.5 177t191 117t236.5 43q144 0 270 -67.5t203 -176.5q74 109 197.5 176.5t264.5 67.5q120 0 225.5 -42t180.5 -114t118 -172t43 -211q0 -56 -18 -115h-759q16 -88 83 -136t167 -48q93 0 176 32.5t143 90.5l151 -164q-96 -109 -219 -170t-260 -61
q-155 0 -286 66.5t-208 177.5q-77 -109 -202.5 -176.5t-269.5 -67.5q-125 0 -236.5 43t-191 117t-125.5 177t-46 218zM429 530q0 -96 64.5 -161t162.5 -65q99 0 164 65t65 161t-65.5 161.5t-163.5 65.5t-162.5 -65t-64.5 -162zM1585 814q-78 0 -130 -43t-70 -124h394
q-34 167 -194 167z" />
    <glyph glyph-name="Racute" unicode="&#x154;" horiz-adv-x="1298" 
d="M584 488h-58v-488h-383v1434h554q224 0 367.5 -131.5t143.5 -341.5q0 -140 -68 -247.5t-187 -164.5l298 -549h-421zM526 769h124q70 0 123.5 52.5t53.5 128.5q0 82 -48.5 132t-128.5 50h-124v-363zM928 1797l-315 -311l-168 134l246 369z" />
    <glyph glyph-name="racute" unicode="&#x155;" horiz-adv-x="875" 
d="M839 1076l-30 -347q-76 27 -145 27q-67 0 -115.5 -49.5t-48.5 -141.5v-565h-379v1061h379v-108q105 132 278 132q34 0 61 -9zM719 1466l-315 -311l-168 134l246 369z" />
    <glyph glyph-name="Rcommaaccent" unicode="&#x156;" horiz-adv-x="1298" 
d="M584 488h-58v-488h-383v1434h554q224 0 367.5 -131.5t143.5 -341.5q0 -140 -68 -247.5t-187 -164.5l298 -549h-421zM526 769h124q70 0 123.5 52.5t53.5 128.5q0 82 -48.5 132t-128.5 50h-124v-363zM575 -58l237 -193l-314 -311l-167 134z" />
    <glyph glyph-name="rcommaaccent" unicode="&#x157;" horiz-adv-x="875" 
d="M839 1076l-30 -347q-76 27 -145 27q-67 0 -115.5 -49.5t-48.5 -141.5v-565h-379v1061h379v-108q105 132 278 132q34 0 61 -9zM248 -58l236 -193l-314 -311l-167 134z" />
    <glyph glyph-name="Rcaron" unicode="&#x158;" horiz-adv-x="1298" 
d="M584 488h-58v-488h-383v1434h554q224 0 367.5 -131.5t143.5 -341.5q0 -140 -68 -247.5t-187 -164.5l298 -549h-421zM526 769h124q70 0 123.5 52.5t53.5 128.5q0 82 -48.5 132t-128.5 50h-124v-363zM802 1544h-357l-217 260l167 134l229 -213l228 213l167 -134z" />
    <glyph glyph-name="rcaron" unicode="&#x159;" horiz-adv-x="875" 
d="M839 1076l-30 -347q-76 27 -145 27q-67 0 -115.5 -49.5t-48.5 -141.5v-565h-379v1061h379v-108q105 132 278 132q34 0 61 -9zM604 1192h-356l-217 260l167 134l228 -213l228 213l167 -134z" />
    <glyph glyph-name="Sacute" unicode="&#x15a;" horiz-adv-x="1234" 
d="M99 278l155 176q92 -81 178 -119.5t185 -38.5q75 0 121 33t46 84q0 56 -51.5 93.5t-193.5 68.5q-197 43 -313 158t-116 280q0 194 140 319.5t364 125.5q225 0 373 -122.5t157 -333.5h-372q-5 65 -42 103.5t-98 38.5q-60 0 -96 -28.5t-36 -71.5q0 -52 48 -92t170 -68
q222 -51 339.5 -163t117.5 -284q0 -198 -147 -330t-387 -132q-317 0 -542 303zM896 1797l-315 -311l-168 134l246 369z" />
    <glyph glyph-name="sacute" unicode="&#x15b;" horiz-adv-x="980" 
d="M65 202l124 156q126 -108 281 -108q48 0 75 17t27 46q0 32 -32 53t-110 38q-162 35 -252 127.5t-90 225.5q0 142 114.5 235t289.5 93q189 0 298.5 -99t130.5 -258h-307q-7 38 -33 60.5t-66 22.5q-37 0 -59 -16t-22 -42q0 -30 30.5 -51t112.5 -39q177 -38 266 -127.5
t89 -223.5q0 -147 -121 -242t-312 -95q-120 0 -232 57.5t-202 169.5zM770 1466l-315 -311l-168 134l246 369z" />
    <glyph glyph-name="Scircumflex" unicode="&#x15c;" horiz-adv-x="1234" 
d="M99 278l155 176q92 -81 178 -119.5t185 -38.5q75 0 121 33t46 84q0 56 -51.5 93.5t-193.5 68.5q-197 43 -313 158t-116 280q0 194 140 319.5t364 125.5q225 0 373 -122.5t157 -333.5h-372q-5 65 -42 103.5t-98 38.5q-60 0 -96 -28.5t-36 -71.5q0 -52 48 -92t170 -68
q222 -51 339.5 -163t117.5 -284q0 -198 -147 -330t-387 -132q-317 0 -542 303zM441 1895h357l217 -260l-167 -134l-229 213l-228 -213l-167 134z" />
    <glyph glyph-name="scircumflex" unicode="&#x15d;" horiz-adv-x="980" 
d="M65 202l124 156q126 -108 281 -108q48 0 75 17t27 46q0 32 -32 53t-110 38q-162 35 -252 127.5t-90 225.5q0 142 114.5 235t289.5 93q189 0 298.5 -99t130.5 -258h-307q-7 38 -33 60.5t-66 22.5q-37 0 -59 -16t-22 -42q0 -30 30.5 -51t112.5 -39q177 -38 266 -127.5
t89 -223.5q0 -147 -121 -242t-312 -95q-120 0 -232 57.5t-202 169.5zM302 1564h357l217 -260l-167 -134l-229 213l-228 -213l-167 134z" />
    <glyph glyph-name="Scedilla" unicode="&#x15e;" horiz-adv-x="1234" 
d="M714 -299q0 27 -23.5 46.5t-57.5 19.5q-25 0 -44 -5l-63 62v163q-247 47 -427 291l155 176q92 -81 178 -119.5t185 -38.5q75 0 121 33t46 84q0 56 -51.5 93.5t-193.5 68.5q-197 43 -313 158t-116 280q0 194 140 319.5t364 125.5q225 0 373 -122.5t157 -333.5h-372
q-5 65 -42 103.5t-98 38.5q-60 0 -96 -28.5t-36 -71.5q0 -52 48 -92t170 -68q222 -51 339.5 -163t117.5 -284q0 -173 -114.5 -298t-308.5 -155v-79q98 -12 154 -72.5t56 -135.5q0 -98 -92.5 -163.5t-229.5 -65.5q-128 0 -215.5 61t-112.5 176h214q19 -67 102 -67
q39 0 62.5 17.5t23.5 45.5z" />
    <glyph glyph-name="scedilla" unicode="&#x15f;" horiz-adv-x="980" 
d="M578 -299q0 27 -23.5 46.5t-57.5 19.5q-25 0 -44 -5l-63 62v164q-187 42 -325 214l124 156q126 -108 281 -108q48 0 75 17t27 46q0 32 -32 53t-110 38q-162 35 -252 127.5t-90 225.5q0 142 114.5 235t289.5 93q189 0 298.5 -99t130.5 -258h-307q-7 38 -33 60.5t-66 22.5
q-37 0 -59 -16t-22 -42q0 -30 30.5 -51t112.5 -39q177 -38 266 -127.5t89 -223.5q0 -122 -86.5 -210t-231.5 -115v-82q98 -12 154.5 -72t56.5 -136q0 -98 -92 -163.5t-229 -65.5q-128 0 -215.5 61t-112.5 176h214q19 -67 102 -67q39 0 62.5 17.5t23.5 45.5z" />
    <glyph glyph-name="Scaron" unicode="&#x160;" horiz-adv-x="1234" 
d="M99 278l155 176q92 -81 178 -119.5t185 -38.5q75 0 121 33t46 84q0 56 -51.5 93.5t-193.5 68.5q-197 43 -313 158t-116 280q0 194 140 319.5t364 125.5q225 0 373 -122.5t157 -333.5h-372q-5 65 -42 103.5t-98 38.5q-60 0 -96 -28.5t-36 -71.5q0 -52 48 -92t170 -68
q222 -51 339.5 -163t117.5 -284q0 -198 -147 -330t-387 -132q-317 0 -542 303zM782 1544h-356l-217 260l167 134l228 -213l229 213l166 -134z" />
    <glyph glyph-name="scaron" unicode="&#x161;" horiz-adv-x="980" 
d="M65 202l124 156q126 -108 281 -108q48 0 75 17t27 46q0 32 -32 53t-110 38q-162 35 -252 127.5t-90 225.5q0 142 114.5 235t289.5 93q189 0 298.5 -99t130.5 -258h-307q-7 38 -33 60.5t-66 22.5q-37 0 -59 -16t-22 -42q0 -30 30.5 -51t112.5 -39q177 -38 266 -127.5
t89 -223.5q0 -147 -121 -242t-312 -95q-120 0 -232 57.5t-202 169.5zM658 1192h-356l-217 260l167 134l228 -213l229 213l167 -134z" />
    <glyph glyph-name="Tcommaaccent" unicode="&#x162;" horiz-adv-x="1149" 
d="M380 0v1099h-334v335h1058v-335h-334v-1099h-82v-95q98 -12 154 -72t56 -136q0 -98 -91.5 -163.5t-228.5 -65.5q-128 0 -216 61t-113 176h214q21 -67 102 -67q39 0 62 17.5t23 45.5q0 27 -23 46.5t-57 19.5q-26 0 -44 -5l-62 62v176h-84z" />
    <glyph glyph-name="tcommaaccent" unicode="&#x163;" horiz-adv-x="836" 
d="M504 -298q0 27 -23 46.5t-57 19.5q-23 0 -44 -6q-10 9 -31 30.5t-33 31.5v227q-133 104 -133 299v385h-155v326h155v264l379 43v-307h214v-326h-214v-336q0 -99 110 -99q68 0 116 7v-280q-95 -51 -246 -51v-71q98 -11 154 -71.5t56 -135.5q0 -98 -92 -164t-229 -66
q-128 0 -216 61.5t-113 176.5h214q20 -67 103 -67q39 0 62 17t23 46z" />
    <glyph glyph-name="Tcaron" unicode="&#x164;" horiz-adv-x="1149" 
d="M380 0v1099h-334v335h1058v-335h-334v-1099h-390zM753 1544h-357l-217 260l167 134l228 -213l229 213l167 -134z" />
    <glyph glyph-name="tcaron" unicode="&#x165;" horiz-adv-x="1247" 
d="M562 736v-337q0 -99 110 -99q69 0 118 7v-279q-95 -53 -230 -53q-168 0 -272 103t-104 272v386h-162v325h162v264l378 43v-307h215v-325h-215zM829 1348q0 65 55.5 118t145.5 53q83 0 138 -55.5t55 -144.5q0 -149 -95 -276.5t-284 -192.5l-68 104q76 46 116 83t48 70.5
t-7.5 63.5t-55.5 68q-48 45 -48 109z" />
    <glyph glyph-name="Tbar" unicode="&#x166;" horiz-adv-x="1149" 
d="M380 0v574h-207v231h207v294h-334v335h1058v-335h-334v-294h207v-231h-207v-574h-390z" />
    <glyph glyph-name="tbar" unicode="&#x167;" horiz-adv-x="836" 
d="M562 763v-136h169v-202h-169v-52q0 -100 110 -100q62 0 118 8v-268q-87 -38 -230 -38q-170 0 -273 97.5t-103 264.5v88h-113v202h113v136h-149v298h149v264l378 43v-307h215v-298h-215z" />
    <glyph glyph-name="Utilde" unicode="&#x168;" horiz-adv-x="1383" 
d="M519 1434v-955q0 -73 49 -119.5t123 -46.5t122.5 46.5t48.5 119.5v955h390v-973q0 -136 -75 -247.5t-203.5 -174t-282.5 -62.5q-155 0 -283.5 62.5t-203 174t-74.5 247.5v973h389zM702 1587q-66 34 -87 34q-36 0 -52 -71l-281 55q44 250 240 250q80 0 159 -43
q64 -33 87 -33q36 0 51 70l282 -54q-22 -124 -83.5 -187.5t-157.5 -63.5q-78 0 -158 43z" />
    <glyph glyph-name="utilde" unicode="&#x169;" horiz-adv-x="1267" 
d="M767 494v567h379v-1061h-379v102q-101 -122 -279 -122q-167 0 -277.5 110t-110.5 294v677h379v-601q0 -66 40 -111t101 -45q65 0 106 48t41 142zM634 1248q-66 34 -87 34q-35 0 -51 -71l-282 55q22 124 83.5 187.5t157.5 63.5q79 0 158 -43q66 -34 87 -34q37 0 52 70
l281 -54q-22 -124 -83 -187.5t-157 -63.5q-79 0 -159 43z" />
    <glyph glyph-name="Umacron" unicode="&#x16a;" horiz-adv-x="1383" 
d="M519 1434v-955q0 -73 49 -119.5t123 -46.5t122.5 46.5t48.5 119.5v955h390v-973q0 -136 -75 -247.5t-203.5 -174t-282.5 -62.5q-155 0 -283.5 62.5t-203 174t-74.5 247.5v973h389zM354 1566v272h675v-272h-675z" />
    <glyph glyph-name="umacron" unicode="&#x16b;" horiz-adv-x="1267" 
d="M767 494v567h379v-1061h-379v102q-101 -122 -279 -122q-167 0 -277.5 110t-110.5 294v677h379v-601q0 -66 40 -111t101 -45q65 0 106 48t41 142zM286 1234v272h675v-272h-675z" />
    <glyph glyph-name="Ubreve" unicode="&#x16c;" horiz-adv-x="1383" 
d="M519 1434v-955q0 -73 49 -119.5t123 -46.5t122.5 46.5t48.5 119.5v955h390v-973q0 -136 -75 -247.5t-203.5 -174t-282.5 -62.5q-155 0 -283.5 62.5t-203 174t-74.5 247.5v973h389zM691 1524q-157 0 -272.5 91t-119.5 230h293q1 -41 29.5 -68t69.5 -27t70 27t30 68h292
q-4 -139 -119.5 -230t-272.5 -91z" />
    <glyph glyph-name="ubreve" unicode="&#x16d;" horiz-adv-x="1267" 
d="M767 494v567h379v-1061h-379v102q-101 -122 -279 -122q-167 0 -277.5 110t-110.5 294v677h379v-601q0 -66 40 -111t101 -45q65 0 106 48t41 142zM624 1192q-157 0 -273 91t-120 230h293q1 -41 30 -68t70 -27t69.5 27t29.5 68h293q-4 -139 -119.5 -230t-272.5 -91z" />
    <glyph glyph-name="Uring" unicode="&#x16e;" horiz-adv-x="1383" 
d="M519 1434v-955q0 -73 49 -119.5t123 -46.5t122.5 46.5t48.5 119.5v955h390v-973q0 -136 -75 -247.5t-203.5 -174t-282.5 -62.5q-155 0 -283.5 62.5t-203 174t-74.5 247.5v973h389zM632 1726q0 -26 16.5 -42t42.5 -16t43 16.5t17 41.5t-17 41.5t-43 16.5t-42.5 -16.5
t-16.5 -41.5zM439 1726q0 97 72.5 163.5t179.5 66.5t179.5 -66.5t72.5 -163.5t-72.5 -163.5t-179.5 -66.5t-179.5 66.5t-72.5 163.5z" />
    <glyph glyph-name="uring" unicode="&#x16f;" horiz-adv-x="1267" 
d="M767 494v567h379v-1061h-379v102q-101 -122 -279 -122q-167 0 -277.5 110t-110.5 294v677h379v-601q0 -66 40 -111t101 -45q65 0 106 48t41 142zM563 1395q0 -26 16.5 -42.5t42.5 -16.5t43 16.5t17 42.5q0 25 -17 41t-43 16t-42.5 -16t-16.5 -41zM371 1395q0 97 72 163
t179 66t179.5 -66t72.5 -163q0 -98 -73 -164.5t-179 -66.5t-178.5 66.5t-72.5 164.5z" />
    <glyph glyph-name="Uhungarumlaut" unicode="&#x170;" horiz-adv-x="1383" 
d="M519 1434v-955q0 -73 49 -119.5t123 -46.5t122.5 46.5t48.5 119.5v955h390v-973q0 -136 -75 -247.5t-203.5 -174t-282.5 -62.5q-155 0 -283.5 62.5t-203 174t-74.5 247.5v973h389zM811 1824l-314 -311l-141 113l246 370zM1207 1824l-314 -311l-140 113l245 370z" />
    <glyph glyph-name="uhungarumlaut" unicode="&#x171;" horiz-adv-x="1267" 
d="M767 494v567h379v-1061h-379v102q-101 -122 -279 -122q-167 0 -277.5 110t-110.5 294v677h379v-601q0 -66 40 -111t101 -45q65 0 106 48t41 142zM741 1489l-314 -310l-140 112l245 370zM1138 1489l-315 -310l-140 112l246 370z" />
    <glyph glyph-name="Uogonek" unicode="&#x172;" horiz-adv-x="1383" 
d="M519 1434v-955q0 -68 50 -117t122 -49q74 0 122.5 46.5t48.5 119.5v955h390v-973q0 -176 -119.5 -304.5t-307.5 -164.5q-160 -125 -160 -229q0 -44 19.5 -69t50.5 -25q34 0 56 28t26 74h234q-13 -138 -99.5 -213t-234.5 -75q-126 0 -216.5 70.5t-90.5 174.5
q0 69 46.5 137t123.5 123q-196 30 -323 161t-127 312v973h389z" />
    <glyph glyph-name="uogonek" unicode="&#x173;" horiz-adv-x="1267" 
d="M908 0h-141v102q-103 -124 -283 -124q-166 0 -275 111.5t-109 294.5v677h379v-601q0 -66 40 -111t101 -45q65 0 106 48t41 142v567h379v-1061q-172 -128 -172 -237q0 -45 19 -69.5t51 -24.5q34 0 56 28t25 74h235q-14 -138 -100.5 -213t-234.5 -75q-126 0 -216.5 70.5
t-90.5 174.5q0 73 52.5 145t137.5 127z" />
    <glyph glyph-name="Wcircumflex" unicode="&#x174;" horiz-adv-x="2042" 
d="M826 1434h392l206 -926l198 926h400l-376 -1434h-400l-224 909l-225 -909h-400l-377 1434h401l197 -926zM843 1895h357l217 -260l-167 -134l-229 213l-228 -213l-167 134z" />
    <glyph glyph-name="wcircumflex" unicode="&#x175;" horiz-adv-x="1669" 
d="M652 1061h365l126 -618l129 618h380l-301 -1061h-388l-128 546l-128 -546h-389l-301 1061h380l129 -618zM655 1564h357l217 -260l-167 -134l-229 213l-228 -213l-167 134z" />
    <glyph glyph-name="Ycircumflex" unicode="&#x176;" horiz-adv-x="1358" 
d="M443 1434l237 -519l235 519h423l-464 -877v-557h-390v557l-464 877h423zM501 1895h356l217 -260l-167 -134l-228 213l-228 -213l-167 134z" />
    <glyph glyph-name="ycircumflex" unicode="&#x177;" horiz-adv-x="1136" 
d="M723 1061h396l-533 -1536h-398l197 475l-369 1061h397l154 -581zM388 1564h356l218 -260l-167 -135l-229 213l-228 -213l-167 135z" />
    <glyph glyph-name="Ydieresis" unicode="&#x178;" horiz-adv-x="1358" 
d="M443 1434l237 -519l235 519h423l-464 -877v-557h-390v557l-464 877h423zM282 1704q0 75 52.5 126.5t129.5 51.5t129.5 -51.5t52.5 -126.5t-52.5 -126.5t-129.5 -51.5t-129.5 51.5t-52.5 126.5zM713 1704q0 75 52.5 126.5t128.5 51.5q77 0 130 -51.5t53 -126.5t-53 -126.5
t-130 -51.5q-76 0 -128.5 51.5t-52.5 126.5z" />
    <glyph glyph-name="Zacute" unicode="&#x179;" horiz-adv-x="1261" 
d="M101 304l587 795h-556v335h1018v-305l-587 -794h607v-335h-1069v304zM920 1797l-315 -311l-168 134l246 369z" />
    <glyph glyph-name="zacute" unicode="&#x17a;" horiz-adv-x="1061" 
d="M75 0v275l422 464h-396v322h861v-276l-421 -463h441v-322h-907zM812 1466l-315 -311l-168 134l246 369z" />
    <glyph glyph-name="Zdotaccent" unicode="&#x17b;" horiz-adv-x="1261" 
d="M101 304l587 795h-556v335h1018v-305l-587 -794h607v-335h-1069v304zM453 1704q0 77 55 131t134 54t134.5 -54t55.5 -131t-55.5 -131.5t-134.5 -54.5t-134 54.5t-55 131.5z" />
    <glyph glyph-name="zdotaccent" unicode="&#x17c;" horiz-adv-x="1061" 
d="M75 0v275l422 464h-396v322h861v-276l-421 -463h441v-322h-907zM342 1372q0 77 55 131t134 54t134.5 -54t55.5 -131t-55.5 -131.5t-134.5 -54.5t-134 54.5t-55 131.5z" />
    <glyph glyph-name="Zcaron" unicode="&#x17d;" horiz-adv-x="1261" 
d="M101 304l587 795h-556v335h1018v-305l-587 -794h607v-335h-1069v304zM807 1544h-356l-218 260l167 134l229 -213l228 213l167 -134z" />
    <glyph glyph-name="zcaron" unicode="&#x17e;" horiz-adv-x="1061" 
d="M75 0v275l422 464h-396v322h861v-276l-421 -463h441v-322h-907zM700 1192h-356l-217 260l167 134l228 -213l229 213l167 -134z" />
    <glyph glyph-name="longs" unicode="&#x17f;" horiz-adv-x="811" 
d="M770 1481v-272q-51 8 -100 8q-54 0 -82 -26t-28 -73v-1118h-378v736h-153v325h153v63q0 181 102 276t298 95q99 0 188 -14z" />
    <glyph glyph-name="uni0191" unicode="&#x191;" horiz-adv-x="1116" 
d="M534 509v-599q0 -172 -124 -278.5t-322 -106.5q-103 0 -165 14v324q45 -7 106 -7q55 0 84.5 27.5t29.5 78.5v1472h914v-332h-523v-261h474v-332h-474z" />
    <glyph glyph-name="florin" unicode="&#x192;" horiz-adv-x="812" 
d="M770 1480v-272q-45 7 -100 7q-54 0 -82 -25.5t-28 -71.5v-57h210v-326h-210v-839q0 -172 -120.5 -271.5t-326.5 -99.5q-78 0 -140 15v272q43 -8 99 -8q54 0 81.5 25.5t27.5 72.5v833h-153v326h153v63q0 370 418 370q98 0 171 -14z" />
    <glyph glyph-name="Aringacute" unicode="&#x1fa;" horiz-adv-x="1430" 
d="M476 1490q0 92 69 155t169 63t168 -63t68 -155q0 -77 -49 -135h49q52 -153 459 -1355h-400q-16 52 -43 146.5t-37 127.5h-429q-60 -209 -79 -274h-401l458 1355h47q-49 58 -49 135zM667 1727l-113 137l237 229l152 -198zM715 1030l-133 -460h266q-32 109 -133 460z
M653 1490q0 -26 17.5 -44t43.5 -18q25 0 42 18t17 44t-17 43.5t-42 17.5q-26 0 -43.5 -17.5t-17.5 -43.5z" />
    <glyph glyph-name="aringacute" unicode="&#x1fb;" horiz-adv-x="1353" 
d="M410 1354q0 92 68.5 155t168.5 63t168.5 -63t68.5 -155t-68.5 -155t-168.5 -63t-168.5 63t-68.5 155zM587 1354q0 -26 17 -44t43 -18q25 0 42.5 18t17.5 44t-17 43.5t-43 17.5t-43 -17.5t-17 -43.5zM602 1591l-112 135l237 231l153 -198zM57 530q0 155 61 281.5
t172.5 200t251.5 73.5q191 0 321 -132v108h369v-1061h-369v106q-129 -131 -321 -131q-212 0 -348.5 159t-136.5 396zM429 530q0 -96 62.5 -161t153.5 -65q92 0 155 65t63 161t-63 161t-155 65q-91 0 -153.5 -65t-62.5 -161z" />
    <glyph glyph-name="AEacute" unicode="&#x1fc;" horiz-adv-x="1940" 
d="M412 0h-405l758 1434h1068v-326h-540v-227h491v-320h-491v-235h558v-326h-940v275h-366zM911 1036l-226 -466h226v466zM1266 1797l-315 -311l-168 134l246 369z" />
    <glyph glyph-name="aeacute" unicode="&#x1fd;" horiz-adv-x="2101" 
d="M1247 431q17 -90 81 -137t172 -47q198 0 336 115l137 -169q-72 -98 -178.5 -158t-228.5 -60q-107 0 -193.5 39t-140.5 107v-121h-369v108q-131 -133 -321 -133q-140 0 -251.5 73.5t-172.5 200t-61 281.5t61 281.5t172.5 200t251.5 73.5q191 0 321 -132v108h369v-116
q105 140 304 140q142 0 254 -72t172.5 -194.5t60.5 -272.5q0 -59 -17 -115h-759zM429 530q0 -96 63 -161t154 -65t154 65t63 161t-63 161.5t-154 65.5t-154 -65.5t-63 -161.5zM1451 814q-75 0 -128 -45t-73 -122h394q-31 167 -193 167zM1336 1465l-314 -310l-168 133
l246 370z" />
    <glyph glyph-name="Oslashacute" unicode="&#x1fe;" horiz-adv-x="1703" 
d="M1171 1797l-314 -310l-168 133l246 370zM73 717q0 154 60 291.5t163.5 236t248 156t307.5 57.5q192 0 358 -80l141 183l172 -130l-132 -171q114 -102 177 -242t63 -301q0 -154 -60 -291.5t-163.5 -236.5t-248 -156.5t-307.5 -57.5q-202 0 -379 90l-147 -192l-173 129
l144 187q-107 101 -165.5 237t-58.5 291zM1241 717q0 137 -78 246l-474 -616q77 -36 163 -36q166 0 277.5 116.5t111.5 289.5zM463 717q0 -129 64 -227l465 605q-68 27 -140 27q-166 0 -277.5 -116t-111.5 -289z" />
    <glyph glyph-name="oslashacute" unicode="&#x1ff;" horiz-adv-x="1313" 
d="M978 1465l-314 -310l-168 133l245 370zM57 530q0 115 46 218t125.5 177t191 117t236.5 43q143 0 265 -54l114 149l158 -118l-108 -138q81 -75 125.5 -177t44.5 -217t-46 -218t-125.5 -177t-190.5 -117t-237 -43q-141 0 -265 55l-116 -149l-158 116l109 141
q-80 76 -124.5 177t-44.5 215zM898 530q0 59 -30 114l-269 -346q25 -7 57 -7q103 0 172.5 69t69.5 170zM416 530q0 -60 27 -112l269 344q-27 8 -56 8q-102 0 -171 -69t-69 -171z" />
    <glyph glyph-name="Scommaaccent" unicode="&#x218;" horiz-adv-x="1234" 
d="M99 278l155 176q92 -81 178 -119.5t185 -38.5q75 0 121 33t46 84q0 56 -51.5 93.5t-193.5 68.5q-197 43 -313 158t-116 280q0 194 140 319.5t364 125.5q225 0 373 -122.5t157 -333.5h-372q-5 65 -42 103.5t-98 38.5q-60 0 -96 -28.5t-36 -71.5q0 -52 48 -92t170 -68
q222 -51 339.5 -163t117.5 -284q0 -198 -147 -330t-387 -132q-317 0 -542 303zM614 -58l237 -193l-314 -311l-167 134z" />
    <glyph glyph-name="scommaaccent" unicode="&#x219;" horiz-adv-x="980" 
d="M65 202l124 156q126 -108 281 -108q48 0 75 17t27 46q0 32 -32 53t-110 38q-162 35 -252 127.5t-90 225.5q0 142 114.5 235t289.5 93q189 0 298.5 -99t130.5 -258h-307q-7 38 -33 60.5t-66 22.5q-37 0 -59 -16t-22 -42q0 -30 30.5 -51t112.5 -39q177 -38 266 -127.5
t89 -223.5q0 -147 -121 -242t-312 -95q-120 0 -232 57.5t-202 169.5zM483 -58l237 -193l-314 -311l-167 134z" />
    <glyph glyph-name="uni021A" unicode="&#x21a;" horiz-adv-x="1149" 
d="M380 0v1099h-334v335h1058v-335h-334v-1099h-390zM565 -58l237 -193l-315 -311l-166 134z" />
    <glyph glyph-name="uni021B" unicode="&#x21b;" horiz-adv-x="836" 
d="M562 736v-337q0 -99 110 -99q69 0 118 7v-279q-95 -53 -230 -53q-168 0 -272 103t-104 272v386h-162v325h162v264l378 43v-307h215v-325h-215zM414 -58l236 -193l-314 -311l-167 134z" />
    <glyph glyph-name="dotlessj" unicode="&#x237;" horiz-adv-x="614" 
d="M118 -55v1116h379v-1167q0 -169 -108.5 -269t-287.5 -100q-75 0 -136 14v310h58q95 0 95 96z" />
    <glyph glyph-name="apostrophe" unicode="&#x2bc;" horiz-adv-x="890" 
d="M256 1348q0 65 55.5 118t145.5 53q83 0 137.5 -55.5t54.5 -144.5q0 -149 -95 -276.5t-284 -192.5l-67 104q101 61 138.5 108.5t26 86.5t-64.5 90q-47 44 -47 109z" />
    <glyph glyph-name="circumflex" unicode="&#x2c6;" horiz-adv-x="890" 
d="M266 1496h357l217 -260l-167 -134l-229 213l-228 -213l-167 134z" />
    <glyph glyph-name="caron" unicode="&#x2c7;" horiz-adv-x="890" 
d="M623 1145h-357l-217 260l167 134l228 -213l229 213l167 -134z" />
    <glyph glyph-name="uni02C9" unicode="&#x2c9;" horiz-adv-x="890" 
d="M108 1183v272h675v-272h-675z" />
    <glyph glyph-name="breve" unicode="&#x2d8;" horiz-adv-x="890" 
d="M445 1153q-157 0 -272.5 91.5t-119.5 230.5h293q2 -41 30 -68.5t69 -27.5t70 27.5t30 68.5h293q-4 -139 -120 -230.5t-273 -91.5z" />
    <glyph glyph-name="dotaccent" unicode="&#x2d9;" horiz-adv-x="890" 
d="M256 1323q0 77 55 131t134 54t134.5 -54t55.5 -131t-55.5 -131.5t-134.5 -54.5t-134 54.5t-55 131.5z" />
    <glyph glyph-name="ring" unicode="&#x2da;" horiz-adv-x="890" 
d="M386 1317q0 -26 16.5 -42.5t42.5 -16.5t43 16.5t17 42.5q0 25 -17 41t-43 16t-42.5 -16t-16.5 -41zM194 1317q0 97 72 163t179 66t179.5 -66t72.5 -163q0 -98 -73 -164.5t-179 -66.5t-178.5 66.5t-72.5 164.5z" />
    <glyph glyph-name="ogonek" unicode="&#x2db;" horiz-adv-x="890" 
d="M328 0h237q-172 -130 -172 -237q0 -45 19.5 -70t51.5 -25q34 0 56 28t25 75h234q-14 -139 -100 -213.5t-235 -74.5q-126 0 -216 70t-90 174q0 74 52.5 146t137.5 127z" />
    <glyph glyph-name="tilde" unicode="&#x2dc;" horiz-adv-x="890" 
d="M456 1201q-66 34 -87 34q-36 0 -52 -71l-281 55q44 250 240 250q80 0 159 -43q64 -33 87 -33q36 0 51 70l282 -54q-22 -124 -83.5 -187.5t-157.5 -63.5q-78 0 -158 43z" />
    <glyph glyph-name="hungarumlaut" unicode="&#x2dd;" horiz-adv-x="890" 
d="M509 1418l-314 -310l-141 113l246 369zM905 1418l-314 -310l-140 113l245 369z" />
    <glyph glyph-name="gravecomb" unicode="&#x300;" horiz-adv-x="0" 
d="M-404 1087l-315 311l237 192l244 -369z" />
    <glyph glyph-name="acutecomb" unicode="&#x301;" horiz-adv-x="0" 
d="M-180 1398l-315 -311l-168 134l246 369z" />
    <glyph glyph-name="uni0302" unicode="&#x302;" horiz-adv-x="0" 
d="M-625 1496h357l217 -260l-167 -134l-228 213l-229 -213l-167 134z" />
    <glyph glyph-name="tildecomb" unicode="&#x303;" horiz-adv-x="0" 
d="M-435 1201q-66 34 -87 34q-35 0 -51 -71l-282 55q22 124 83 187t158 63q79 0 158 -43q64 -33 87 -33q37 0 52 70l281 -54q-22 -124 -83 -187.5t-157 -63.5q-79 0 -159 43z" />
    <glyph glyph-name="uni0304" unicode="&#x304;" horiz-adv-x="0" 
d="M-783 1183v272h675v-272h-675z" />
    <glyph glyph-name="uni0306" unicode="&#x306;" horiz-adv-x="0" 
d="M-445 1153q-157 0 -273 91.5t-120 230.5h293q1 -41 30 -68.5t70 -27.5t69 27.5t30 68.5h293q-4 -139 -119.5 -230.5t-272.5 -91.5z" />
    <glyph glyph-name="uni0307" unicode="&#x307;" horiz-adv-x="0" 
d="M-635 1323q0 77 55.5 131t134.5 54t134 -54t55 -131t-55 -131.5t-134 -54.5t-134.5 54.5t-55.5 131.5z" />
    <glyph glyph-name="uni0308" unicode="&#x308;" horiz-adv-x="0" 
d="M-843 1323q0 75 53 126.5t130 51.5q76 0 128.5 -51.5t52.5 -126.5t-52.5 -126.5t-128.5 -51.5q-77 0 -130 51.5t-53 126.5zM-412 1323q0 75 52.5 126.5t129.5 51.5t129.5 -51.5t52.5 -126.5t-52.5 -126.5t-129.5 -51.5t-129.5 51.5t-52.5 126.5z" />
    <glyph glyph-name="uni030A" unicode="&#x30a;" horiz-adv-x="0" 
d="M-505 1317q0 -26 17 -42.5t43 -16.5t42.5 16.5t16.5 42.5q0 25 -16.5 41t-42.5 16t-43 -16t-17 -41zM-697 1317q0 97 72.5 163t179.5 66t179 -66t72 -163q0 -98 -72.5 -164.5t-178.5 -66.5t-179 66.5t-73 164.5z" />
    <glyph glyph-name="uni030C" unicode="&#x30c;" horiz-adv-x="0" 
d="M-268 1145h-357l-217 260l167 134l229 -213l228 213l167 -134z" />
    <glyph glyph-name="uni0327" unicode="&#x327;" horiz-adv-x="0" 
d="M-369 -299q0 27 -23.5 46.5t-57.5 19.5q-25 0 -44 -5l-62 62v176h225v-95q98 -12 154 -72.5t56 -135.5q0 -98 -92 -163.5t-229 -65.5q-128 0 -215.5 61t-112.5 176h214q19 -67 101 -67q39 0 62.5 17.5t23.5 45.5z" />
    <glyph glyph-name="tonos" unicode="&#x384;" horiz-adv-x="890" 
d="M709 1398l-315 -311l-167 134l245 369z" />
    <glyph glyph-name="dieresistonos" unicode="&#x385;" horiz-adv-x="890" 
d="M86 1170q0 65 47 109.5t116 44.5t116 -44.5t47 -109.5q0 -64 -47 -108t-116 -44t-116 44t-47 108zM478 1170q0 65 47 109.5t116 44.5t116 -44.5t47 -109.5q0 -64 -47 -108t-116 -44t-116 44t-47 108zM422 1299l-118 129l222 242l161 -188z" />
    <glyph glyph-name="Alphatonos" unicode="&#x386;" horiz-adv-x="1600" 
d="M673 1434h424l482 -1434h-400l-80 274h-429l-79 -274h-401zM885 1030l-133 -460h266zM553 1336l-314 -310l-167 133l244 370z" />
    <glyph glyph-name="anoteleia" unicode="&#x387;" horiz-adv-x="623" 
d="M94 671q0 88 61.5 147.5t155.5 59.5q95 0 156.5 -59.5t61.5 -147.5t-61.5 -147.5t-156.5 -59.5q-94 0 -155.5 59.5t-61.5 147.5z" />
    <glyph glyph-name="Epsilontonos" unicode="&#x388;" horiz-adv-x="1660" 
d="M617 0v1434h934v-326h-543v-227h494v-320h-494v-235h562v-326h-953zM553 1336l-314 -310l-167 133l244 370z" />
    <glyph glyph-name="Etatonos" unicode="&#x389;" horiz-adv-x="1937" 
d="M617 0v1434h391v-545h396v545h389v-1434h-389v553h-396v-553h-391zM553 1336l-314 -310l-167 133l244 370z" />
    <glyph glyph-name="Iotatonos" unicode="&#x38a;" horiz-adv-x="1154" 
d="M1008 1434v-1434h-391v1434h391zM553 1336l-314 -310l-167 133l244 370z" />
    <glyph glyph-name="Omicrontonos" unicode="&#x38c;" horiz-adv-x="2026" 
d="M785 717q0 -173 112 -289.5t278 -116.5t277.5 116.5t111.5 289.5t-111.5 289t-277.5 116t-278 -116t-112 -289zM395 717q0 206 102.5 376t281.5 267.5t396 97.5q163 0 307.5 -57.5t248 -156t163.5 -236t60 -291.5t-60 -291.5t-163.5 -236.5t-248 -156.5t-307.5 -57.5
t-307.5 57.5t-248 156.5t-164 236.5t-60.5 291.5zM553 1336l-314 -310l-167 133l244 370z" />
    <glyph glyph-name="Upsilontonos" unicode="&#x38e;" horiz-adv-x="1939" 
d="M1023 1434l237 -519l235 519h423l-464 -877v-557h-390v557l-464 877h423zM553 1336l-314 -310l-167 133l244 370z" />
    <glyph glyph-name="Omegatonos" unicode="&#x38f;" horiz-adv-x="2008" 
d="M553 1336l-314 -310l-167 133l244 370zM1536 745q0 159 -104 268t-257 109t-257.5 -109t-104.5 -268q0 -142 76 -255.5t213 -177.5v-312h-656v336h233q-257 165 -257 454q0 138 58.5 262t159 213t240 141t295.5 52q208 0 380.5 -88t272 -241.5t99.5 -338.5
q0 -289 -257 -454h233v-336h-656v312q137 64 213 177.5t76 255.5z" />
    <glyph glyph-name="iotadieresistonos" unicode="&#x390;" horiz-adv-x="675" 
d="M118 341v720h379v-635q0 -98 96 -98h41v-323q-52 -5 -119 -5q-204 0 -300.5 85.5t-96.5 255.5zM-52 1308q0 65 47 109t116 44t115.5 -44t46.5 -109q0 -64 -46.5 -108.5t-115.5 -44.5t-116 44.5t-47 108.5zM340 1308q0 65 47 109t116 44t116 -44t47 -109q0 -64 -47 -108.5
t-116 -44.5t-116 44.5t-47 108.5zM284 1437l-118 129l222 241l161 -188z" />
    <glyph glyph-name="Alpha" unicode="&#x391;" horiz-adv-x="1430" 
d="M503 1434h424l482 -1434h-400l-80 274h-429l-79 -274h-401zM715 1030l-133 -460h266z" />
    <glyph glyph-name="Beta" unicode="&#x392;" horiz-adv-x="1294" 
d="M774 0h-631v1434h571q200 0 322.5 -108.5t122.5 -281.5q0 -100 -50 -179.5t-134 -113.5q113 -31 181.5 -119.5t68.5 -212.5q0 -182 -127 -300.5t-324 -118.5zM809 1001q0 59 -34 93.5t-89 34.5h-168v-255h168q55 0 89 34.5t34 92.5zM844 442q0 62 -37 101t-96 39h-193
v-278h193q59 0 96 38.5t37 99.5z" />
    <glyph glyph-name="Gamma" unicode="&#x393;" horiz-adv-x="1081" 
d="M143 0v1434h913v-335h-522v-1099h-391z" />
    <glyph glyph-name="uni0394" unicode="&#x394;" horiz-adv-x="1430" 
d="M928 1434l481 -1434h-1389l483 1434h425zM715 1031l-211 -715h423z" />
    <glyph glyph-name="Epsilon" unicode="&#x395;" horiz-adv-x="1185" 
d="M143 0v1434h934v-326h-543v-227h494v-320h-494v-235h562v-326h-953z" />
    <glyph glyph-name="Zeta" unicode="&#x396;" horiz-adv-x="1261" 
d="M101 304l587 795h-556v335h1018v-305l-587 -794h607v-335h-1069v304z" />
    <glyph glyph-name="Eta" unicode="&#x397;" horiz-adv-x="1463" 
d="M143 0v1434h391v-545h396v545h389v-1434h-389v553h-396v-553h-391z" />
    <glyph glyph-name="Theta" unicode="&#x398;" horiz-adv-x="1703" 
d="M593 568v297h518v-297h-518zM73 717q0 154 60 291.5t163.5 236t248 156t307.5 57.5t307.5 -57.5t248 -156t163.5 -236t60 -291.5t-60 -291.5t-163.5 -236.5t-248 -156.5t-307.5 -57.5t-307.5 57.5t-248 156.5t-163.5 236.5t-60 291.5zM447 717q0 -178 117 -299.5
t288 -121.5q170 0 287 121.5t117 299.5t-117 299.5t-287 121.5q-171 0 -288 -121.5t-117 -299.5z" />
    <glyph glyph-name="Iota" unicode="&#x399;" horiz-adv-x="681" 
d="M536 1434v-1434h-391v1434h391z" />
    <glyph glyph-name="Kappa" unicode="&#x39a;" horiz-adv-x="1317" 
d="M868 1434h389q0 -540 -243 -732l345 -702h-416l-281 585h-128v-585h-391v1434h391v-513h50q147 0 215.5 119t68.5 394z" />
    <glyph glyph-name="Lambda" unicode="&#x39b;" horiz-adv-x="1430" 
d="M503 1434h424l482 -1434h-400l-294 1017l-294 -1017h-401z" />
    <glyph glyph-name="Mu" unicode="&#x39c;" horiz-adv-x="1774" 
d="M1031 223h-220l-310 637v-860h-358v1434h407l372 -774l370 774h407v-1434h-357v860z" />
    <glyph glyph-name="Nu" unicode="&#x39d;" horiz-adv-x="1463" 
d="M143 0v1434h419l401 -876v876h356v-1434h-418l-400 876v-876h-358z" />
    <glyph glyph-name="Xi" unicode="&#x39e;" horiz-adv-x="1190" 
d="M112 1108v326h967v-326h-967zM90 0v326h1011v-326h-1011zM1005 561h-833v320h833v-320z" />
    <glyph glyph-name="Omicron" unicode="&#x39f;" horiz-adv-x="1703" 
d="M463 717q0 -173 111.5 -289.5t277.5 -116.5t277.5 116.5t111.5 289.5t-111.5 289t-277.5 116t-277.5 -116t-111.5 -289zM73 717q0 154 60 291.5t163.5 236t248 156t307.5 57.5t307.5 -57.5t248 -156t163.5 -236t60 -291.5t-60 -291.5t-163.5 -236.5t-248 -156.5
t-307.5 -57.5t-307.5 57.5t-248 156.5t-163.5 236.5t-60 291.5z" />
    <glyph glyph-name="Pi" unicode="&#x3a0;" horiz-adv-x="1410" 
d="M1266 1434v-1434h-389v1099h-343v-1099h-391v1434h1123z" />
    <glyph glyph-name="Rho" unicode="&#x3a1;" horiz-adv-x="1257" 
d="M697 458h-165v-458h-389v1434h554q222 0 366.5 -138.5t144.5 -350.5q0 -211 -144.5 -349t-366.5 -138zM532 760h115q73 0 126.5 54t53.5 131q0 84 -49 135.5t-131 51.5h-115v-372z" />
    <glyph glyph-name="Sigma" unicode="&#x3a3;" horiz-adv-x="1216" 
d="M101 375l322 344l-322 340v375h1014v-332h-588l282 -275v-219l-284 -276h590v-332h-1014v375z" />
    <glyph glyph-name="Tau" unicode="&#x3a4;" horiz-adv-x="1149" 
d="M380 0v1099h-334v335h1058v-335h-334v-1099h-390z" />
    <glyph glyph-name="Upsilon" unicode="&#x3a5;" horiz-adv-x="1358" 
d="M443 1434l237 -519l235 519h423l-464 -877v-557h-390v557l-464 877h423z" />
    <glyph glyph-name="Phi" unicode="&#x3a6;" horiz-adv-x="1603" 
d="M981 197v-197h-359v197q-160 0 -291.5 68t-207 187t-75.5 263t75.5 263t207 187t291.5 68v201h359v-201q160 0 291.5 -68t206.5 -187t75 -263t-75 -263t-206.5 -187t-291.5 -68zM622 517v393q-91 0 -152.5 -56t-61.5 -139q0 -84 61.5 -141t152.5 -57zM981 910v-393
q91 0 152.5 57t61.5 141q0 83 -61.5 139t-152.5 56z" />
    <glyph glyph-name="Chi" unicode="&#x3a7;" horiz-adv-x="1348" 
d="M465 1434l209 -436l209 436h424l-383 -698l408 -736h-424l-234 474l-235 -474h-425l410 736l-383 698h424z" />
    <glyph glyph-name="Psi" unicode="&#x3a8;" horiz-adv-x="1451" 
d="M893 1434v-762q55 34 87 90t32 122v550h334v-561q0 -194 -126 -342.5t-327 -197.5v-333h-335v333q-201 49 -327 197.5t-126 342.5v561h334v-550q0 -67 32 -123t87 -89v762h335z" />
    <glyph glyph-name="uni03A9" unicode="&#x3a9;" horiz-adv-x="1667" 
d="M1195 745q0 159 -104 268t-257 109t-257.5 -109t-104.5 -268q0 -142 76 -255.5t213 -177.5v-312h-656v336h233q-257 165 -257 454q0 138 58.5 262t159 213t240 141t295.5 52q208 0 380.5 -88t272 -241.5t99.5 -338.5q0 -289 -257 -454h233v-336h-656v312
q137 64 213 177.5t76 255.5z" />
    <glyph glyph-name="Iotadieresis" unicode="&#x3aa;" horiz-adv-x="681" 
d="M536 1434v-1434h-391v1434h391zM-56 1704q0 75 52.5 126.5t129.5 51.5t129.5 -51.5t52.5 -126.5t-52.5 -126.5t-129.5 -51.5t-129.5 51.5t-52.5 126.5zM375 1704q0 75 52.5 126.5t128.5 51.5q77 0 130 -51.5t53 -126.5t-53 -126.5t-130 -51.5q-76 0 -128.5 51.5
t-52.5 126.5z" />
    <glyph glyph-name="Upsilondieresis" unicode="&#x3ab;" horiz-adv-x="1358" 
d="M443 1434l237 -519l235 519h423l-464 -877v-557h-390v557l-464 877h423zM283 1704q0 75 52.5 126.5t129.5 51.5q76 0 128.5 -51.5t52.5 -126.5t-52.5 -126.5t-128.5 -51.5q-77 0 -129.5 51.5t-52.5 126.5zM714 1704q0 75 52.5 126.5t128.5 51.5q77 0 129.5 -51.5
t52.5 -126.5t-52.5 -126.5t-129.5 -51.5q-76 0 -128.5 51.5t-52.5 126.5z" />
    <glyph glyph-name="alphatonos" unicode="&#x3ac;" horiz-adv-x="1422" 
d="M967 1465l-315 -310l-168 133l246 370zM1233 1061v-635q0 -98 96 -98h41v-323q-50 -5 -108 -5q-250 0 -327 152q-68 -84 -163.5 -130.5t-209.5 -46.5q-107 0 -201 43t-160.5 117t-105 176.5t-38.5 218.5q0 154 65 281.5t179 200.5t253 73q89 0 169.5 -32.5t138.5 -88.5
v97h371zM429 530q0 -96 62.5 -161t153.5 -65q92 0 154.5 65t62.5 161t-62.5 161t-154.5 65q-91 0 -153.5 -65t-62.5 -161z" />
    <glyph glyph-name="epsilontonos" unicode="&#x3ad;" horiz-adv-x="1002" 
d="M781 1465l-314 -310l-168 133l246 370zM529 670h146v-270h-146q-49 0 -82 -22.5t-33 -59.5q0 -35 35 -61.5t78 -26.5q68 0 135 32.5t120 88.5l161 -154q-178 -222 -425 -222q-203 0 -336.5 90.5t-133.5 228.5q0 87 58.5 152.5t148.5 94.5q-74 27 -120.5 95t-46.5 150
q0 127 121 213t303 86q168 0 277.5 -91.5t133.5 -251.5h-315q-7 40 -31.5 63t-60.5 23q-35 0 -54 -18.5t-19 -48.5q0 -40 24.5 -65.5t61.5 -25.5z" />
    <glyph glyph-name="etatonos" unicode="&#x3ae;" horiz-adv-x="1267" 
d="M500 570v-570h-379v1061h379v-105q106 129 283 129q166 0 274.5 -113.5t108.5 -295.5v-1151h-379v1075q0 71 -37.5 113.5t-102.5 42.5q-64 0 -105.5 -46.5t-41.5 -139.5zM956 1465l-314 -310l-168 133l246 370z" />
    <glyph glyph-name="iotatonos" unicode="&#x3af;" horiz-adv-x="675" 
d="M118 341v720h379v-635q0 -98 96 -98h41v-323q-52 -5 -119 -5q-204 0 -300.5 85.5t-96.5 255.5zM606 1465l-314 -310l-168 133l246 370z" />
    <glyph glyph-name="upsilondieresistonos" unicode="&#x3b0;" horiz-adv-x="1209" 
d="M605 -25q-212 0 -358 128.5t-146 314.5v643h378v-624q0 -58 35.5 -95.5t90.5 -37.5t90 37.5t35 95.5v624h379v-643q0 -122 -66.5 -224t-182.5 -160.5t-255 -58.5zM246 1308q0 65 47 109t116 44t115.5 -44t46.5 -109q0 -64 -46.5 -108.5t-115.5 -44.5t-116 44.5t-47 108.5
zM638 1308q0 65 47 109t116 44t116 -44t47 -109q0 -64 -47 -108.5t-116 -44.5t-116 44.5t-47 108.5zM582 1437l-118 129l222 241l161 -188z" />
    <glyph glyph-name="alpha" unicode="&#x3b1;" horiz-adv-x="1422" 
d="M1233 1061v-635q0 -98 96 -98h41v-323q-50 -5 -108 -5q-250 0 -327 152q-68 -84 -163.5 -130.5t-209.5 -46.5q-107 0 -201 43t-160.5 117t-105 176.5t-38.5 218.5q0 154 65 281.5t179 200.5t253 73q89 0 169.5 -32.5t138.5 -88.5v97h371zM429 530q0 -96 62.5 -161
t153.5 -65q92 0 154.5 65t62.5 161t-62.5 161t-154.5 65q-91 0 -153.5 -65t-62.5 -161z" />
    <glyph glyph-name="beta" unicode="&#x3b2;" horiz-adv-x="1257" 
d="M532 113l83 246q71 -41 144 -41q52 0 82.5 43t30.5 115q0 66 -39 112t-97 46q-27 0 -58 -18l-107 194l158 313h-233v-1598h-364v1909h932v-299l-150 -276q129 -41 208 -159t79 -298q0 -206 -101.5 -316t-255.5 -110q-86 0 -171 38t-141 99z" />
    <glyph glyph-name="gamma" unicode="&#x3b3;" horiz-adv-x="1137" 
d="M380 -475v478l-363 1058h396l155 -595l156 595h396l-362 -1058v-478h-378z" />
    <glyph glyph-name="delta" unicode="&#x3b4;" horiz-adv-x="1180" 
d="M589 -25q-144 0 -266.5 62.5t-194.5 173t-72 244.5q0 164 108 290t280 168l-244 250v271h789v-326h-329l329 -334q133 -136 133 -319q0 -134 -72 -244.5t-194 -173t-267 -62.5zM428 455q0 -68 47 -114.5t115 -46.5t115 46.5t47 114.5q0 67 -47 113t-115 46t-115 -46
t-47 -113z" />
    <glyph glyph-name="epsilon" unicode="&#x3b5;" horiz-adv-x="1002" 
d="M529 670h146v-270h-146q-49 0 -82 -22.5t-33 -59.5q0 -35 35 -61.5t78 -26.5q68 0 135 32.5t120 88.5l161 -154q-178 -222 -425 -222q-203 0 -336.5 90.5t-133.5 228.5q0 87 58.5 152.5t148.5 94.5q-74 27 -120.5 95t-46.5 150q0 127 121 213t303 86q168 0 277.5 -91.5
t133.5 -251.5h-315q-7 40 -31.5 63t-60.5 23q-35 0 -54 -18.5t-19 -48.5q0 -40 24.5 -65.5t61.5 -25.5z" />
    <glyph glyph-name="zeta" unicode="&#x3b6;" horiz-adv-x="987" 
d="M49 373q0 181 184 398l285 338h-364v325h790v-300l-409 -509q-101 -126 -101 -236q0 -119 114 -183l230 -131q82 -46 124 -122t42 -167q0 -133 -97 -261h-374q38 49 62 108t24 111q0 45 -22.5 82.5t-61.5 59.5l-172 95q-121 66 -187.5 166.5t-66.5 225.5z" />
    <glyph glyph-name="eta" unicode="&#x3b7;" horiz-adv-x="1267" 
d="M500 570v-570h-379v1061h379v-105q106 129 283 129q166 0 274.5 -113.5t108.5 -295.5v-1151h-379v1075q0 71 -37.5 113.5t-102.5 42.5q-64 0 -105.5 -46.5t-41.5 -139.5z" />
    <glyph glyph-name="theta" unicode="&#x3b8;" horiz-adv-x="1330" 
d="M51 717q0 152 47 289t128 236t196 157.5t244 58.5q172 0 313.5 -99t221 -269t79.5 -373t-79.5 -373t-221 -269.5t-313.5 -99.5q-173 0 -314.5 99.5t-221 269.5t-79.5 373zM666 1146q-84 0 -145 -78t-84 -205h456q-23 127 -83.5 205t-143.5 78zM666 288q83 0 143.5 77.5
t83.5 204.5h-456q23 -127 84 -204.5t145 -77.5z" />
    <glyph glyph-name="iota" unicode="&#x3b9;" horiz-adv-x="675" 
d="M118 341v720h379v-635q0 -98 96 -98h41v-323q-52 -5 -119 -5q-204 0 -300.5 85.5t-96.5 255.5z" />
    <glyph glyph-name="kappa" unicode="&#x3ba;" horiz-adv-x="1166" 
d="M723 1061h378q0 -396 -187 -546l240 -515h-404l-169 413h-81v-413h-378v1061h378v-325h52q171 0 171 325z" />
    <glyph glyph-name="lambda" unicode="&#x3bb;" horiz-adv-x="1136" 
d="M1119 0h-396l-156 554l-154 -554h-397l365 1040l-191 455h398z" />
    <glyph glyph-name="uni03BC" unicode="&#x3bc;" horiz-adv-x="1288" 
d="M787 489v572h379v-1061h-379v102q-98 -116 -287 -116v-461h-379v1536h379v-605q0 -69 38 -110.5t102 -41.5t105.5 46.5t41.5 138.5z" />
    <glyph glyph-name="nu" unicode="&#x3bd;" horiz-adv-x="1136" 
d="M723 1061h396l-338 -1061h-427l-338 1061h397l155 -650z" />
    <glyph glyph-name="xi" unicode="&#x3be;" horiz-adv-x="996" 
d="M463 -127l-105 39q-144 53 -229 176t-85 270q0 138 77 252.5t201 163.5q-102 45 -158 130t-56 188q0 155 126 260.5t312 105.5q195 0 313.5 -112.5t118.5 -301.5h-306q0 51 -29 81.5t-75 30.5t-75 -34t-29 -88q0 -55 34.5 -93t93.5 -38h216v-308h-165q-89 0 -151.5 -61
t-62.5 -154q0 -63 36 -115t105 -78l123 -46q113 -42 179.5 -131t66.5 -199q0 -74 -27 -150t-70 -136h-375q86 110 86 216q0 46 -24.5 81.5t-65.5 50.5z" />
    <glyph glyph-name="omicron" unicode="&#x3bf;" horiz-adv-x="1313" 
d="M57 530q0 115 46 218t125.5 177t191 117t236.5 43q126 0 237 -43t190.5 -117t125.5 -177t46 -218t-46 -218t-125.5 -177t-190.5 -117t-237 -43q-125 0 -236.5 43t-191 117t-125.5 177t-46 218zM429 530q0 -96 64.5 -161t162.5 -65q99 0 164 65t65 161t-65.5 161.5
t-163.5 65.5t-162.5 -65t-64.5 -162z" />
    <glyph glyph-name="pi" unicode="&#x3c0;" horiz-adv-x="1203" 
d="M514 732v-732h-372v732h-109v329h1138v-329h-110v-732h-372v732h-175z" />
    <glyph glyph-name="rho" unicode="&#x3c1;" horiz-adv-x="1333" 
d="M101 -475v1005q0 114 45.5 216.5t123 177t187 118t232.5 43.5q163 0 298 -74t212 -201.5t77 -279.5t-77.5 -280.5t-206 -201.5t-274.5 -73q-156 0 -248 85v-535h-369zM470 530v-117q35 -50 91.5 -79.5t121.5 -29.5q94 0 157.5 65t63.5 161t-62 161.5t-155 65.5
t-155 -65.5t-62 -161.5z" />
    <glyph glyph-name="sigma1" unicode="&#x3c2;" horiz-adv-x="1118" 
d="M435 530q0 -192 185 -280l172 -82q119 -57 181.5 -149.5t62.5 -208.5q0 -74 -24.5 -150t-65.5 -135h-372q86 111 86 216q0 102 -99 149l-167 77q-163 74 -250 220t-87 343q0 115 46 218t125.5 177t191 117t236.5 43q248 0 422 -155l-175 -266q-116 93 -240 93
q-98 0 -163 -65.5t-65 -161.5z" />
    <glyph glyph-name="sigma" unicode="&#x3c3;" horiz-adv-x="1368" 
d="M57 518q0 150 77.5 274.5t212.5 196.5t297 72h683v-329h-209q53 -43 83 -110t30 -140q0 -95 -44.5 -186.5t-120.5 -162.5t-187 -114.5t-235 -43.5q-162 0 -297 72t-212.5 196.5t-77.5 274.5zM428 518q0 -91 62 -152.5t154 -61.5t154.5 61.5t62.5 152.5t-62.5 152.5
t-154.5 61.5t-154 -61.5t-62 -152.5z" />
    <glyph glyph-name="tau" unicode="&#x3c4;" horiz-adv-x="1018" 
d="M309 372v359h-279v330h958v-330h-301v-291q0 -113 108 -113h46v-323q-41 -4 -119 -4q-215 0 -314 90.5t-99 281.5z" />
    <glyph glyph-name="upsilon" unicode="&#x3c5;" horiz-adv-x="1209" 
d="M605 -25q-212 0 -358 128.5t-146 314.5v643h378v-624q0 -58 35.5 -95.5t90.5 -37.5t90 37.5t35 95.5v624h379v-643q0 -122 -66.5 -224t-182.5 -160.5t-255 -58.5z" />
    <glyph glyph-name="phi" unicode="&#x3c6;" horiz-adv-x="1452" 
d="M273 966l212 -225q-48 -39 -76.5 -94.5t-28.5 -116.5q0 -84 53 -147.5t138 -83.5v786h232q164 0 300 -73.5t213.5 -201t77.5 -280.5q0 -213 -144 -367.5t-365 -181.5v-456h-314v456q-223 26 -368.5 180.5t-145.5 368.5q0 132 58 245.5t158 190.5zM1072 530q0 82 -52 145
t-135 85v-460q84 22 135.5 84.5t51.5 145.5z" />
    <glyph glyph-name="chi" unicode="&#x3c7;" horiz-adv-x="1140" 
d="M1107 1061l-298 -749l318 -787h-398l-159 469l-159 -469h-398l319 787l-298 749h397l139 -417l139 417h398z" />
    <glyph glyph-name="psi" unicode="&#x3c8;" horiz-adv-x="1427" 
d="M100 498v563h323v-531q0 -64 35.5 -116t97.5 -81v728h314v-728q62 29 98 81t36 116v531h322v-563q0 -185 -127.5 -324t-328.5 -181v-468h-314v468q-202 42 -329 180.5t-127 324.5z" />
    <glyph glyph-name="omega" unicode="&#x3c9;" horiz-adv-x="1672" 
d="M836 171q-46 -86 -135.5 -141t-194.5 -55q-124 0 -227 71.5t-162.5 197t-59.5 276.5q0 144 52.5 285t130.5 256h371q-79 -123 -128.5 -267t-49.5 -274q0 -79 31 -147.5t78 -68.5q107 0 107 295v239h373v-239q0 -295 107 -295q48 0 78.5 61t30.5 155q0 130 -49.5 274
t-128.5 267h372q77 -114 129.5 -255.5t52.5 -285.5q0 -151 -59.5 -276.5t-162.5 -197t-227 -71.5q-105 0 -193.5 55t-135.5 141z" />
    <glyph glyph-name="iotadieresis" unicode="&#x3ca;" horiz-adv-x="675" 
d="M118 341v720h379v-635q0 -98 96 -98h41v-323q-52 -5 -119 -5q-204 0 -300.5 85.5t-96.5 255.5zM-90 1372q0 75 52.5 126.5t129.5 51.5q76 0 128.5 -51.5t52.5 -126.5t-52.5 -126.5t-128.5 -51.5q-77 0 -129.5 51.5t-52.5 126.5zM341 1372q0 75 52.5 126.5t128.5 51.5
q77 0 130 -51.5t53 -126.5t-53 -126.5t-130 -51.5q-76 0 -128.5 51.5t-52.5 126.5z" />
    <glyph glyph-name="upsilondieresis" unicode="&#x3cb;" horiz-adv-x="1209" 
d="M605 -25q-212 0 -358 128.5t-146 314.5v643h378v-624q0 -58 35.5 -95.5t90.5 -37.5t90 37.5t35 95.5v624h379v-643q0 -122 -66.5 -224t-182.5 -160.5t-255 -58.5zM208 1372q0 75 52.5 126.5t129.5 51.5q76 0 128.5 -51.5t52.5 -126.5t-52.5 -126.5t-128.5 -51.5
q-77 0 -129.5 51.5t-52.5 126.5zM639 1372q0 75 52.5 126.5t128.5 51.5q77 0 129.5 -51.5t52.5 -126.5t-52.5 -126.5t-129.5 -51.5q-76 0 -128.5 51.5t-52.5 126.5z" />
    <glyph glyph-name="omicrontonos" unicode="&#x3cc;" horiz-adv-x="1313" 
d="M57 530q0 115 46 218t125.5 177t191 117t236.5 43q126 0 237 -43t190.5 -117t125.5 -177t46 -218t-46 -218t-125.5 -177t-190.5 -117t-237 -43q-125 0 -236.5 43t-191 117t-125.5 177t-46 218zM429 530q0 -96 64.5 -161t162.5 -65q99 0 164 65t65 161t-65.5 161.5
t-163.5 65.5t-162.5 -65t-64.5 -162zM978 1466l-315 -311l-168 134l246 369z" />
    <glyph glyph-name="upsilontonos" unicode="&#x3cd;" horiz-adv-x="1209" 
d="M922 1465l-315 -310l-168 133l246 370zM605 -25q-212 0 -358 128.5t-146 314.5v643h378v-624q0 -58 35.5 -95.5t90.5 -37.5t90 37.5t35 95.5v624h379v-643q0 -122 -66.5 -224t-182.5 -160.5t-255 -58.5z" />
    <glyph glyph-name="omegatonos" unicode="&#x3ce;" horiz-adv-x="1672" 
d="M1161 1465l-314 -310l-168 133l246 370zM836 171q-46 -86 -135.5 -141t-194.5 -55q-124 0 -227 71.5t-162.5 197t-59.5 276.5q0 144 52.5 285t130.5 256h371q-79 -123 -128.5 -267t-49.5 -274q0 -79 31 -147.5t78 -68.5q107 0 107 295v239h373v-239q0 -295 107 -295
q48 0 78.5 61t30.5 155q0 130 -49.5 274t-128.5 267h372q77 -114 129.5 -255.5t52.5 -285.5q0 -151 -59.5 -276.5t-162.5 -197t-227 -71.5q-105 0 -193.5 55t-135.5 141z" />
    <glyph glyph-name="uni0400" unicode="&#x400;" horiz-adv-x="1185" 
d="M143 0v1434h934v-326h-543v-227h494v-320h-494v-235h562v-326h-953zM589 1486l-314 311l237 192l244 -369z" />
    <glyph glyph-name="afii10023" unicode="&#x401;" horiz-adv-x="1185" 
d="M143 0v1434h934v-326h-543v-227h494v-320h-494v-235h562v-326h-953zM220 1704q0 75 52.5 126.5t129.5 51.5t129.5 -51.5t52.5 -126.5t-52.5 -126.5t-129.5 -51.5t-129.5 51.5t-52.5 126.5zM651 1704q0 75 52.5 126.5t128.5 51.5q77 0 130 -51.5t53 -126.5t-53 -126.5
t-130 -51.5q-76 0 -128.5 51.5t-52.5 126.5z" />
    <glyph glyph-name="afii10051" unicode="&#x402;" horiz-adv-x="1502" 
d="M1018 -4q-77 0 -125 4v321h41q53 0 87 31t34 80v40q0 41 -43.5 77.5t-89.5 36.5q-63 0 -108 -47t-45 -116v-423h-389v1107h-335v327h1059v-327h-335v-286q96 101 253 101q183 0 303 -117t120 -295v-112q0 -170 -123 -286t-304 -116z" />
    <glyph glyph-name="afii10052" unicode="&#x403;" horiz-adv-x="1081" 
d="M143 0v1434h913v-335h-522v-1099h-391zM854 1810l-314 -310l-168 133l245 370z" />
    <glyph glyph-name="afii10053" unicode="&#x404;" horiz-adv-x="1550" 
d="M817 -25q-155 0 -293.5 57.5t-237.5 156.5t-156.5 236.5t-57.5 291.5q0 207 96 376.5t267 267t382 97.5q251 0 429.5 -142.5t231.5 -396.5h-412q-25 94 -93.5 148t-161.5 54q-120 0 -207.5 -72t-121.5 -192h546v-282h-545q35 -120 128 -192t220 -72q132 0 233.5 54.5
t188.5 169.5l209 -157q-229 -403 -645 -403z" />
    <glyph glyph-name="afii10054" unicode="&#x405;" horiz-adv-x="1234" 
d="M99 278l155 176q92 -81 178 -119.5t185 -38.5q75 0 121 33t46 84q0 56 -51.5 93.5t-193.5 68.5q-197 43 -313 158t-116 280q0 194 140 319.5t364 125.5q225 0 373 -122.5t157 -333.5h-372q-5 65 -42 103.5t-98 38.5q-60 0 -96 -28.5t-36 -71.5q0 -52 48 -92t170 -68
q222 -51 339.5 -163t117.5 -284q0 -198 -147 -330t-387 -132q-317 0 -542 303z" />
    <glyph glyph-name="afii10055" unicode="&#x406;" horiz-adv-x="681" 
d="M536 1434v-1434h-391v1434h391z" />
    <glyph glyph-name="afii10056" unicode="&#x407;" horiz-adv-x="681" 
d="M536 1434v-1434h-391v1434h391zM-56 1704q0 75 52.5 126.5t129.5 51.5t129.5 -51.5t52.5 -126.5t-52.5 -126.5t-129.5 -51.5t-129.5 51.5t-52.5 126.5zM375 1704q0 75 52.5 126.5t128.5 51.5q77 0 130 -51.5t53 -126.5t-53 -126.5t-130 -51.5q-76 0 -128.5 51.5
t-52.5 126.5z" />
    <glyph glyph-name="afii10057" unicode="&#x408;" horiz-adv-x="965" 
d="M446 487v947h390v-977q0 -119 -33.5 -212.5t-93 -151.5t-137.5 -88t-169 -30q-220 0 -387 135l99 252q88 -51 175 -51q71 0 113.5 46.5t42.5 129.5z" />
    <glyph glyph-name="afii10058" unicode="&#x409;" horiz-adv-x="2106" 
d="M1328 1434v-505h211q224 0 371 -132.5t147 -332.5q0 -199 -147 -331.5t-371 -132.5h-601v1099h-325v-704q0 -399 -483 -399q-64 0 -104 4v331h57q141 0 141 159v944h1104zM1667 464q0 69 -43 110.5t-115 41.5h-181v-304h181q72 0 115 41.5t43 110.5z" />
    <glyph glyph-name="afii10059" unicode="&#x40a;" horiz-adv-x="2093" 
d="M1315 1434v-505h210q224 0 371.5 -132.5t147.5 -332.5q0 -199 -147.5 -331.5t-371.5 -132.5h-600v553h-391v-553h-391v1434h391v-545h391v545h390zM1654 464q0 68 -43 110t-115 42h-181v-304h181q72 0 115 41.5t43 110.5z" />
    <glyph glyph-name="afii10060" unicode="&#x40b;" horiz-adv-x="1546" 
d="M769 402v-402h-389v1107h-335v327h1059v-327h-335v-312q104 127 289 127q166 0 276.5 -114.5t110.5 -295.5v-512h-390v436q0 72 -34.5 114t-98.5 42q-70 0 -111.5 -49t-41.5 -141z" />
    <glyph glyph-name="afii10061" unicode="&#x40c;" horiz-adv-x="1317" 
d="M868 1434h389q0 -540 -243 -732l345 -702h-416l-281 585h-128v-585h-391v1434h391v-513h50q147 0 215.5 119t68.5 394zM958 1797l-315 -311l-168 134l246 369z" />
    <glyph glyph-name="uni040D" unicode="&#x40d;" horiz-adv-x="1463" 
d="M744 1487l-314 310l237 193l244 -370zM1319 1434v-1434h-356v876l-401 -876h-419v1434h358v-876l400 876h418z" />
    <glyph glyph-name="afii10062" unicode="&#x40e;" horiz-adv-x="1359" 
d="M681 1524q-157 0 -272.5 91t-119.5 230h293q1 -41 29.5 -68t69.5 -27t69.5 27t29.5 68h293q-4 -139 -119.5 -230t-272.5 -91zM1339 1434l-544 -1186q-114 -248 -377 -248h-232v335h136q79 0 113 69l32 66l-447 964h422l239 -593l237 593h421z" />
    <glyph glyph-name="afii10145" unicode="&#x40f;" horiz-adv-x="1410" 
d="M1266 1434v-1434h-367v-287h-389v287h-367v1434h389v-1099h344v1099h390z" />
    <glyph glyph-name="afii10017" unicode="&#x410;" horiz-adv-x="1430" 
d="M503 1434h424l482 -1434h-400l-80 274h-429l-79 -274h-401zM715 1030l-133 -460h266z" />
    <glyph glyph-name="afii10018" unicode="&#x411;" horiz-adv-x="1313" 
d="M143 0v1434h977v-313h-588v-192h211q224 0 372 -133t148 -332t-148 -331.5t-372 -132.5h-600zM871 464q0 152 -185 152h-154v-305h154q185 0 185 153z" />
    <glyph glyph-name="afii10019" unicode="&#x412;" horiz-adv-x="1294" 
d="M774 0h-631v1434h571q200 0 322.5 -108.5t122.5 -281.5q0 -100 -50 -179.5t-134 -113.5q113 -31 181.5 -119.5t68.5 -212.5q0 -182 -127 -300.5t-324 -118.5zM809 1001q0 59 -34 93.5t-89 34.5h-168v-255h168q55 0 89 34.5t34 92.5zM844 442q0 62 -37 101t-96 39h-193
v-278h193q59 0 96 38.5t37 99.5z" />
    <glyph glyph-name="afii10020" unicode="&#x413;" horiz-adv-x="1081" 
d="M143 0v1434h913v-335h-522v-1099h-391z" />
    <glyph glyph-name="afii10021" unicode="&#x414;" horiz-adv-x="1419" 
d="M1373 304v-591h-374v287h-579v-287h-374v591h100q156 355 156 850v280h937v-1130h134zM541 304h324v825h-193q0 -489 -131 -825z" />
    <glyph glyph-name="afii10022" unicode="&#x415;" horiz-adv-x="1185" 
d="M143 0v1434h934v-326h-543v-227h494v-320h-494v-235h562v-326h-953z" />
    <glyph glyph-name="afii10024" unicode="&#x416;" horiz-adv-x="1921" 
d="M1462 1434h389q0 -545 -247 -737l342 -697h-415l-282 585h-94v-585h-390v585h-94l-282 -585h-415l342 697q-248 192 -248 737h390q0 -276 68 -395t215 -119h24v514h390v-514h23q150 0 215 118t69 396z" />
    <glyph glyph-name="afii10025" unicode="&#x417;" horiz-adv-x="1110" 
d="M311 911h167q61 0 105.5 39.5t44.5 90.5q0 49 -36.5 81t-92.5 32q-55 0 -97 -35.5t-42 -87.5h-301q2 190 133 308.5t334 118.5q195 0 326 -110t131 -270q0 -101 -54.5 -187.5t-150.5 -130.5q121 -42 197 -138.5t76 -219.5q0 -197 -140 -312t-358 -115q-154 0 -288.5 71
t-232.5 214l158 156q72 -72 145 -104.5t162 -32.5q70 0 118.5 45.5t48.5 116.5q0 78 -50.5 119.5t-143.5 41.5h-159v309z" />
    <glyph glyph-name="afii10026" unicode="&#x418;" horiz-adv-x="1463" 
d="M1319 1434v-1434h-356v876l-401 -876h-419v1434h358v-876l400 876h418z" />
    <glyph glyph-name="afii10027" unicode="&#x419;" horiz-adv-x="1463" 
d="M731 1524q-157 0 -272.5 91t-119.5 230h293q1 -41 29.5 -68t69.5 -27t69.5 27t29.5 68h293q-4 -139 -119.5 -230t-272.5 -91zM1319 1434v-1434h-356v876l-401 -876h-419v1434h358v-876l400 876h418z" />
    <glyph glyph-name="afii10028" unicode="&#x41a;" horiz-adv-x="1317" 
d="M868 1434h389q0 -540 -243 -732l345 -702h-416l-281 585h-128v-585h-391v1434h391v-513h50q147 0 215.5 119t68.5 394z" />
    <glyph glyph-name="afii10029" unicode="&#x41b;" horiz-adv-x="1504" 
d="M1360 1434v-1434h-390v1098h-357v-703q0 -399 -483 -399q-45 0 -105 4v331h57q70 0 105.5 38t35.5 121v944h1137z" />
    <glyph glyph-name="afii10030" unicode="&#x41c;" horiz-adv-x="1774" 
d="M1031 223h-220l-310 637v-860h-358v1434h407l372 -774l370 774h407v-1434h-357v860z" />
    <glyph glyph-name="afii10031" unicode="&#x41d;" horiz-adv-x="1463" 
d="M143 0v1434h391v-545h396v545h389v-1434h-389v553h-396v-553h-391z" />
    <glyph glyph-name="afii10032" unicode="&#x41e;" horiz-adv-x="1703" 
d="M463 717q0 -173 111.5 -289.5t277.5 -116.5t277.5 116.5t111.5 289.5t-111.5 289t-277.5 116t-277.5 -116t-111.5 -289zM73 717q0 154 60 291.5t163.5 236t248 156t307.5 57.5t307.5 -57.5t248 -156t163.5 -236t60 -291.5t-60 -291.5t-163.5 -236.5t-248 -156.5
t-307.5 -57.5t-307.5 57.5t-248 156.5t-163.5 236.5t-60 291.5z" />
    <glyph glyph-name="afii10033" unicode="&#x41f;" horiz-adv-x="1410" 
d="M1266 1434v-1434h-389v1099h-343v-1099h-391v1434h1123z" />
    <glyph glyph-name="afii10034" unicode="&#x420;" horiz-adv-x="1257" 
d="M697 458h-165v-458h-389v1434h554q222 0 366.5 -138.5t144.5 -350.5q0 -211 -144.5 -349t-366.5 -138zM532 760h115q73 0 126.5 54t53.5 131q0 84 -49 135.5t-131 51.5h-115v-372z" />
    <glyph glyph-name="afii10035" unicode="&#x421;" horiz-adv-x="1550" 
d="M824 -25q-158 0 -297.5 57.5t-239 156.5t-157.5 236.5t-58 291.5q0 210 92.5 379t260 265.5t379.5 96.5q256 0 438.5 -142.5t235.5 -396.5h-412q-25 94 -93.5 148t-161.5 54q-157 0 -252.5 -114t-95.5 -290q0 -175 103.5 -290.5t264.5 -115.5q132 0 233.5 54.5
t188.5 169.5l209 -157q-107 -189 -266.5 -296t-371.5 -107z" />
    <glyph glyph-name="afii10036" unicode="&#x422;" horiz-adv-x="1149" 
d="M380 0v1099h-334v335h1058v-335h-334v-1099h-390z" />
    <glyph glyph-name="afii10037" unicode="&#x423;" horiz-adv-x="1359" 
d="M1339 1434l-544 -1186q-114 -248 -377 -248h-232v335h136q79 0 113 69l32 66l-447 964h422l239 -593l237 593h421z" />
    <glyph glyph-name="afii10038" unicode="&#x424;" horiz-adv-x="1603" 
d="M981 197v-197h-359v197q-160 0 -291.5 68t-207 187t-75.5 263t75.5 263t207 187t291.5 68v201h359v-201q160 0 291.5 -68t206.5 -187t75 -263t-75 -263t-206.5 -187t-291.5 -68zM622 517v393q-91 0 -152.5 -56t-61.5 -139q0 -84 61.5 -141t152.5 -57zM981 910v-393
q91 0 152.5 57t61.5 141q0 83 -61.5 139t-152.5 56z" />
    <glyph glyph-name="afii10039" unicode="&#x425;" horiz-adv-x="1348" 
d="M465 1434l209 -436l209 436h424l-383 -698l408 -736h-424l-234 474l-235 -474h-425l410 736l-383 698h424z" />
    <glyph glyph-name="afii10040" unicode="&#x426;" horiz-adv-x="1442" 
d="M1266 1434v-1099h131v-622h-350v287h-904v1434h389v-1099h344v1099h390z" />
    <glyph glyph-name="afii10041" unicode="&#x427;" horiz-adv-x="1350" 
d="M817 998v436h389v-1434h-389v605q-50 -61 -132.5 -93.5t-173.5 -32.5q-109 0 -202 50.5t-150.5 145.5t-57.5 214v545h389v-469q0 -67 45.5 -112t111.5 -45q69 0 119.5 48.5t50.5 141.5z" />
    <glyph glyph-name="afii10042" unicode="&#x428;" horiz-adv-x="2034" 
d="M1502 335v1099h389v-1434h-1748v1434h391v-1099h288v1099h390v-1099h290z" />
    <glyph glyph-name="afii10043" unicode="&#x429;" horiz-adv-x="2068" 
d="M1672 -287v287h-1529v1434h389v-1099h290v1099h389v-1099h290v1099h390v-1099h130v-622h-349z" />
    <glyph glyph-name="afii10044" unicode="&#x42a;" horiz-adv-x="1521" 
d="M45 1434h697v-505h211q224 0 371 -132.5t147 -332.5q0 -199 -147 -331.5t-371 -132.5h-601v1121h-307v313zM1081 464q0 152 -185 152h-154v-305h154q185 0 185 153z" />
    <glyph glyph-name="afii10045" unicode="&#x42b;" horiz-adv-x="1874" 
d="M143 1434h389v-505h211q224 0 372 -133t148 -332t-148 -331.5t-372 -132.5h-600v1434zM871 464q0 152 -185 152h-154v-305h154q185 0 185 153zM1731 1434v-1434h-390v1434h390z" />
    <glyph glyph-name="afii10046" unicode="&#x42c;" horiz-adv-x="1311" 
d="M143 1434h391v-505h210q224 0 371.5 -132.5t147.5 -332.5q0 -199 -147.5 -331.5t-371.5 -132.5h-601v1434zM872 464q0 69 -42.5 110.5t-114.5 41.5h-181v-304h181q72 0 114.5 42t42.5 110z" />
    <glyph glyph-name="afii10047" unicode="&#x42d;" horiz-adv-x="1550" 
d="M732 -25q-216 0 -377 107t-268 296l209 157q87 -115 189 -169.5t234 -54.5q127 0 219.5 72t127.5 192h-545v282h546q-34 120 -121.5 192t-206.5 72q-90 0 -161.5 -55.5t-94.5 -146.5h-411q53 254 231.5 396.5t428.5 142.5q212 0 383 -97.5t267 -267t96 -376.5
q0 -154 -57.5 -291.5t-156.5 -236.5t-237.5 -156.5t-294.5 -57.5z" />
    <glyph glyph-name="afii10048" unicode="&#x42e;" horiz-adv-x="2256" 
d="M534 553v-553h-391v1434h391v-545h128q59 250 266.5 409.5t483.5 159.5q213 0 390.5 -98t279.5 -268t102 -375t-102 -375.5t-279.5 -268.5t-390.5 -98q-278 0 -487 162.5t-266 415.5h-125zM1031 717q0 -172 110.5 -289t270.5 -117t270.5 117t110.5 289t-110.5 288.5
t-270.5 116.5t-270.5 -116.5t-110.5 -288.5z" />
    <glyph glyph-name="afii10049" unicode="&#x42f;" horiz-adv-x="1298" 
d="M771 488h-57q-125 -245 -247 -488h-421l298 549q-120 57 -187.5 164.5t-67.5 247.5q0 210 143.5 341.5t367.5 131.5h554v-1434h-383v488zM647 769h124v363h-124q-80 0 -128.5 -50t-48.5 -132q0 -81 48 -131t129 -50z" />
    <glyph glyph-name="afii10065" unicode="&#x430;" horiz-adv-x="1353" 
d="M57 530q0 155 61 281.5t172.5 200t251.5 73.5q191 0 321 -132v108h369v-1061h-369v108q-131 -133 -321 -133q-140 0 -251.5 73.5t-172.5 200t-61 281.5zM429 530q0 -96 63 -161t154 -65t154 65t63 161t-63 161.5t-154 65.5t-154 -65.5t-63 -161.5z" />
    <glyph glyph-name="afii10066" unicode="&#x431;" horiz-adv-x="1276" 
d="M501 911q90 68 221 68q214 0 357 -142.5t143 -352.5q0 -142 -74 -258.5t-205 -183.5t-291 -67q-119 0 -223 40.5t-183.5 117.5t-125 198t-45.5 272q0 155 18.5 274t61 214.5t107.5 163t161.5 117t218.5 78.5t284 45l56 -329q-176 -19 -273 -48.5t-144.5 -77t-63.5 -129.5
zM449 534q1 -116 56.5 -173t146.5 -57q88 0 143 48.5t55 124.5q0 74 -53 123.5t-134 49.5q-67 0 -123 -31t-91 -85z" />
    <glyph glyph-name="afii10067" unicode="&#x432;" horiz-adv-x="1081" 
d="M627 0h-505v1061h472q156 0 263 -86t107 -213q0 -65 -37.5 -118t-101.5 -79q84 -21 136 -90.5t52 -153.5q0 -136 -111.5 -228.5t-274.5 -92.5zM565 433h-118v-178h118q47 0 77 24.5t30 63.5q0 40 -30 65t-77 25zM447 656h105q40 0 65 21t25 54t-25 54t-65 21h-105v-150z
" />
    <glyph glyph-name="afii10068" unicode="&#x433;" horiz-adv-x="884" 
d="M843 732h-343v-732h-378v1061h721v-329z" />
    <glyph glyph-name="afii10069" unicode="&#x434;" horiz-adv-x="1191" 
d="M1150 259v-476h-331v217h-446v-217h-331v476h99q132 281 132 802h769v-802h108zM494 259h219v543h-119q0 -141 -26 -285.5t-74 -257.5z" />
    <glyph glyph-name="afii10070" unicode="&#x435;" horiz-adv-x="1268" 
d="M435 431q15 -90 79.5 -137t172.5 -47q198 0 336 115l137 -169q-196 -218 -482 -218q-274 0 -447.5 159t-173.5 396q0 154 77 281.5t212 200.5t298 73q160 0 290 -71.5t203 -195t73 -272.5q0 -59 -17 -115h-758zM638 814q-78 0 -130 -43t-70 -124h393q-31 167 -193 167z
" />
    <glyph glyph-name="afii10072" unicode="&#x436;" horiz-adv-x="1711" 
d="M66 1061h377q0 -325 172 -325h52v325h377v-325h53q171 0 171 325h378q0 -396 -187 -546l240 -515h-405l-169 413h-81v-413h-377v413h-81l-169 -413h-405l240 515q-186 149 -186 546z" />
    <glyph glyph-name="afii10073" unicode="&#x437;" horiz-adv-x="1002" 
d="M326 670h144q38 0 62 25.5t24 66.5q0 30 -19 48t-54 18t-60 -23t-32 -63h-313q23 159 132.5 251t277.5 92q182 0 302.5 -86t120.5 -213q0 -82 -46.5 -150t-120.5 -95q90 -29 148.5 -94.5t58.5 -152.5q0 -139 -133 -229t-336 -90q-133 0 -236 57t-190 165l161 154
q53 -56 120.5 -88.5t135.5 -32.5q52 0 83 26t31 62q0 38 -33 60t-83 22h-145v270z" />
    <glyph glyph-name="afii10074" unicode="&#x438;" horiz-adv-x="1288" 
d="M1166 1061v-1061h-366v519l-354 -519h-324v1061h366v-519l354 519h324z" />
    <glyph glyph-name="afii10075" unicode="&#x439;" horiz-adv-x="1288" 
d="M644 1192q-157 0 -272.5 91t-119.5 230h293q1 -41 29.5 -68t69.5 -27t69.5 27t29.5 68h293q-4 -139 -119.5 -230t-272.5 -91zM1166 1061v-1061h-366v519l-354 -519h-324v1061h366v-519l354 519h324z" />
    <glyph glyph-name="afii10076" unicode="&#x43a;" horiz-adv-x="1166" 
d="M723 1061h378q0 -396 -187 -546l240 -515h-404l-169 413h-81v-413h-378v1061h378v-325h52q171 0 171 325z" />
    <glyph glyph-name="afii10077" unicode="&#x43b;" horiz-adv-x="1300" 
d="M1179 1061v-1061h-378v739h-203v-397q0 -156 -121.5 -253t-305.5 -97q-78 0 -129 8v323h55q56 0 89.5 30.5t33.5 85.5v622h959z" />
    <glyph glyph-name="afii10078" unicode="&#x43c;" horiz-adv-x="1428" 
d="M506 1061l208 -468l209 468h385v-1061h-350v589l-143 -313h-201l-144 313v-589h-348v1061h384z" />
    <glyph glyph-name="afii10079" unicode="&#x43d;" horiz-adv-x="1288" 
d="M1166 1061v-1061h-379v387h-287v-387h-379v1061h379v-352h287v352h379z" />
    <glyph glyph-name="afii10080" unicode="&#x43e;" horiz-adv-x="1313" 
d="M57 530q0 115 46 218t125.5 177t191 117t236.5 43q126 0 237 -43t190.5 -117t125.5 -177t46 -218t-46 -218t-125.5 -177t-190.5 -117t-237 -43q-125 0 -236.5 43t-191 117t-125.5 177t-46 218zM429 530q0 -96 64.5 -161t162.5 -65q99 0 164 65t65 161t-65.5 161.5
t-163.5 65.5t-162.5 -65t-64.5 -162z" />
    <glyph glyph-name="afii10081" unicode="&#x43f;" horiz-adv-x="1288" 
d="M1166 1061v-1061h-379v738h-287v-738h-379v1061h1045z" />
    <glyph glyph-name="afii10082" unicode="&#x440;" horiz-adv-x="1353" 
d="M1296 530q0 -155 -60.5 -281.5t-172 -200t-251.5 -73.5q-192 0 -322 133v-583h-368v1536h368v-108q129 132 322 132q140 0 251.5 -73.5t172 -200t60.5 -281.5zM925 530q0 96 -62.5 161.5t-153.5 65.5q-92 0 -155.5 -65.5t-63.5 -161.5t63.5 -161t155.5 -65q91 0 153.5 65
t62.5 161z" />
    <glyph glyph-name="afii10083" unicode="&#x441;" horiz-adv-x="1208" 
d="M953 444l176 -144q-169 -325 -496 -325q-117 0 -223.5 43t-184 117t-123 177t-45.5 218q0 154 73 281t202.5 200.5t287.5 73.5q212 0 354.5 -119t176.5 -315h-376q-39 106 -155 106q-79 0 -135 -66t-56 -161q0 -99 62 -162.5t173 -63.5q166 0 289 140z" />
    <glyph glyph-name="afii10084" unicode="&#x442;" horiz-adv-x="1026" 
d="M324 731h-283v330h943v-330h-283v-731h-377v731z" />
    <glyph glyph-name="afii10085" unicode="&#x443;" horiz-adv-x="1136" 
d="M723 1061h396l-533 -1536h-398l197 475l-369 1061h397l154 -581z" />
    <glyph glyph-name="afii10086" unicode="&#x444;" horiz-adv-x="2095" 
d="M57 530q0 155 61 281.5t172.5 200t251.5 73.5q192 0 321 -132v542h369v-542q129 132 320 132q140 0 252 -73.5t173 -200t61 -281.5q0 -237 -137 -396t-349 -159q-192 0 -320 131v-581h-369v581q-128 -131 -321 -131q-212 0 -348.5 159t-136.5 396zM1666 530q0 96 -63 161
t-154 65t-154 -65t-63 -161t63 -161t154 -65t154 65t63 161zM429 530q0 -96 62.5 -161t153.5 -65q92 0 155 65t63 161t-63 161t-155 65q-91 0 -153.5 -65t-62.5 -161z" />
    <glyph glyph-name="afii10087" unicode="&#x445;" horiz-adv-x="1136" 
d="M16 0l301 541l-274 520h400l125 -293l124 293h401l-274 -520l300 -541h-400l-151 312l-151 -312h-401z" />
    <glyph glyph-name="afii10088" unicode="&#x446;" horiz-adv-x="1338" 
d="M1166 321h130v-608h-341v287h-834v1061h379v-740h287v740h379v-740z" />
    <glyph glyph-name="afii10089" unicode="&#x447;" horiz-adv-x="1162" 
d="M663 0v378q-93 -99 -232 -99q-163 0 -266.5 104t-103.5 299v379h379v-340q0 -53 26 -86.5t75 -33.5q63 0 92.5 41.5t29.5 135.5v283h377v-1061h-377z" />
    <glyph glyph-name="afii10090" unicode="&#x448;" horiz-adv-x="1644" 
d="M1523 1061v-1061h-1401v1061h357v-739h166v739h355v-739h165v739h358z" />
    <glyph glyph-name="afii10091" unicode="&#x449;" horiz-adv-x="1695" 
d="M1312 -287v287h-1191v1061h358v-740h165v740h355v-740h166v740h358v-740h130v-608h-341z" />
    <glyph glyph-name="afii10092" unicode="&#x44a;" horiz-adv-x="1276" 
d="M865 372q0 52 -34.5 84.5t-87.5 32.5h-107v-234h107q53 0 87.5 33t34.5 84zM1222 372q0 -157 -119.5 -264.5t-292.5 -107.5h-531v765h-237v296h594v-317h174q173 0 292.5 -107.5t119.5 -264.5z" />
    <glyph glyph-name="afii10093" unicode="&#x44b;" horiz-adv-x="1636" 
d="M709 372q0 51 -34.5 84t-88.5 33h-108v-234h108q53 0 88 33t35 84zM1065 372q0 -157 -119.5 -264.5t-292.5 -107.5h-531v1061h356v-317h175q173 0 292.5 -107.5t119.5 -264.5zM1137 0v1061h379v-1061h-379z" />
    <glyph glyph-name="afii10094" unicode="&#x44c;" horiz-adv-x="1120" 
d="M709 372q0 51 -34.5 84t-88.5 33h-108v-234h108q53 0 88 33t35 84zM1065 372q0 -157 -119.5 -264.5t-292.5 -107.5h-531v1061h356v-317h175q173 0 292.5 -107.5t119.5 -264.5z" />
    <glyph glyph-name="afii10095" unicode="&#x44d;" horiz-adv-x="1207" 
d="M81 291l163 132q128 -137 297 -137q87 0 147 37.5t86 102.5h-362v204h364q-24 66 -75 105.5t-114 39.5q-125 0 -170 -100h-360q39 185 181 297.5t349 112.5q118 0 222.5 -43t179 -117t118 -177t43.5 -218q0 -153 -77.5 -281t-210 -201t-289.5 -73q-321 0 -492 316z" />
    <glyph glyph-name="afii10096" unicode="&#x44e;" horiz-adv-x="1824" 
d="M492 1061v-365h104q56 173 211.5 281t359.5 108q126 0 237 -43t190.5 -117t125.5 -177t46 -218q0 -154 -78 -281.5t-215.5 -200.5t-305.5 -73q-207 0 -362.5 109t-209.5 284h-103v-368h-371v1061h371zM940 530q0 -97 64.5 -161.5t162.5 -64.5q99 0 163.5 64.5t64.5 161.5
q0 96 -64.5 161t-163.5 65q-98 0 -162.5 -65t-64.5 -161z" />
    <glyph glyph-name="afii10097" unicode="&#x44f;" horiz-adv-x="1162" 
d="M430 0h-387q121 163 287 388q-110 38 -177.5 125.5t-67.5 199.5q0 148 113.5 248t280.5 100h561v-1061h-342v347h-43q-28 -42 -110 -171t-115 -176zM698 806h-149q-44 0 -75.5 -27.5t-31.5 -65.5q0 -41 30.5 -68t76.5 -27h149v188z" />
    <glyph glyph-name="uni0450" unicode="&#x450;" horiz-adv-x="1268" 
d="M435 431q15 -90 79.5 -137t172.5 -47q198 0 336 115l137 -169q-196 -218 -482 -218q-274 0 -447.5 159t-173.5 396q0 154 77 281.5t212 200.5t298 73q160 0 290 -71.5t203 -195t73 -272.5q0 -59 -17 -115h-758zM638 814q-78 0 -130 -43t-70 -124h393q-31 167 -193 167z
M625 1155l-314 311l237 192l244 -369z" />
    <glyph glyph-name="afii10071" unicode="&#x451;" horiz-adv-x="1268" 
d="M435 431q15 -90 79.5 -137t172.5 -47q198 0 336 115l137 -169q-196 -218 -482 -218q-274 0 -447.5 159t-173.5 396q0 154 77 281.5t212 200.5t298 73q160 0 290 -71.5t203 -195t73 -272.5q0 -59 -17 -115h-758zM638 814q-78 0 -130 -43t-70 -124h393q-31 167 -193 167z
M237 1372q0 75 52.5 126.5t129.5 51.5q76 0 128.5 -51.5t52.5 -126.5t-52.5 -126.5t-128.5 -51.5q-77 0 -129.5 51.5t-52.5 126.5zM668 1372q0 75 52.5 126.5t128.5 51.5q77 0 129.5 -51.5t52.5 -126.5t-52.5 -126.5t-129.5 -51.5q-76 0 -128.5 51.5t-52.5 126.5z" />
    <glyph glyph-name="afii10099" unicode="&#x452;" horiz-adv-x="1295" 
d="M780 1164h-253v-208q104 126 282 126q166 0 275.5 -111.5t109.5 -294.5v-780q0 -172 -121 -271.5t-327 -99.5q-78 0 -141 15v272q46 -8 101 -8q109 0 109 107v689q0 66 -39.5 111t-100.5 45q-65 0 -106.5 -48t-41.5 -142v-566h-379v1164h-128v202h128v129h379v-129h253
v-202z" />
    <glyph glyph-name="afii10100" unicode="&#x453;" horiz-adv-x="884" 
d="M733 1465l-314 -310l-168 133l246 370zM843 732h-343v-732h-378v1061h721v-329z" />
    <glyph glyph-name="afii10101" unicode="&#x454;" horiz-adv-x="1207" 
d="M964 423l162 -132q-171 -316 -492 -316q-157 0 -289.5 73t-210 201t-77.5 281q0 154 74 281.5t203.5 200.5t286.5 73q207 0 348.5 -112t180.5 -298h-359q-45 100 -170 100q-63 0 -114.5 -39.5t-75.5 -105.5h365v-204h-364q26 -65 86.5 -102.5t148.5 -37.5q169 0 297 137z
" />
    <glyph glyph-name="afii10102" unicode="&#x455;" horiz-adv-x="980" 
d="M65 202l124 156q126 -108 281 -108q48 0 75 17t27 46q0 32 -32 53t-110 38q-162 35 -252 127.5t-90 225.5q0 142 114.5 235t289.5 93q189 0 298.5 -99t130.5 -258h-307q-7 38 -33 60.5t-66 22.5q-37 0 -59 -16t-22 -42q0 -30 30.5 -51t112.5 -39q177 -38 266 -127.5
t89 -223.5q0 -147 -121 -242t-312 -95q-120 0 -232 57.5t-202 169.5z" />
    <glyph glyph-name="afii10103" unicode="&#x456;" horiz-adv-x="614" 
d="M118 0v1061h379v-1061h-379zM97 1332q0 84 60.5 140.5t149.5 56.5t149.5 -56.5t60.5 -140.5q0 -83 -60.5 -139.5t-149.5 -56.5t-149.5 56.5t-60.5 139.5z" />
    <glyph glyph-name="afii10104" unicode="&#x457;" horiz-adv-x="614" 
d="M-90 1372q0 75 52.5 126.5t129.5 51.5q76 0 128.5 -51.5t52.5 -126.5t-52.5 -126.5t-128.5 -51.5q-77 0 -129.5 51.5t-52.5 126.5zM341 1372q0 75 52.5 126.5t128.5 51.5q77 0 130 -51.5t53 -126.5t-53 -126.5t-130 -51.5q-76 0 -128.5 51.5t-52.5 126.5zM118 0v1061h379
v-1061h-379z" />
    <glyph glyph-name="afii10105" unicode="&#x458;" horiz-adv-x="614" 
d="M118 -55v1116h379v-1167q0 -169 -108.5 -269t-287.5 -100q-79 0 -136 21v303h58q95 0 95 96zM97 1332q0 84 60.5 140.5t149.5 56.5t149.5 -56.5t60.5 -140.5q0 -83 -60.5 -139.5t-149.5 -56.5t-149.5 56.5t-60.5 139.5z" />
    <glyph glyph-name="afii10106" unicode="&#x459;" horiz-adv-x="1786" 
d="M1375 372q0 51 -35 84t-88 33h-107v-235h107q53 0 88 33.5t35 84.5zM1145 1061v-317h175q173 0 292.5 -107.5t119.5 -264.5t-119.5 -264.5t-292.5 -107.5h-532v746h-190v-404q0 -156 -121.5 -253t-305.5 -97q-78 0 -130 8v322h55q56 0 89.5 31t33.5 86v622h926z" />
    <glyph glyph-name="afii10107" unicode="&#x45a;" horiz-adv-x="1774" 
d="M1719 372q0 -157 -119 -264.5t-292 -107.5h-532v388h-276v-388h-378v1061h378v-351h276v351h357v-317h175q173 0 292 -107.5t119 -264.5zM1363 372q0 52 -34.5 84.5t-87.5 32.5h-108v-234h108q53 0 87.5 33t34.5 84z" />
    <glyph glyph-name="afii10108" unicode="&#x45b;" horiz-adv-x="1295" 
d="M20 1164v202h128v129h379v-129h253v-202h-253v-208q104 126 282 126q166 0 275.5 -111.5t109.5 -294.5v-676h-379v600q0 66 -39.5 111t-100.5 45q-65 0 -106.5 -48t-41.5 -142v-566h-379v1164h-128z" />
    <glyph glyph-name="afii10109" unicode="&#x45c;" horiz-adv-x="1166" 
d="M859 1465l-314 -310l-168 133l246 370zM723 1061h378q0 -396 -187 -546l240 -515h-404l-169 413h-81v-413h-378v1061h378v-325h52q171 0 171 325z" />
    <glyph glyph-name="uni045D" unicode="&#x45d;" horiz-adv-x="1288" 
d="M642 1155l-314 310l236 193l245 -370zM1166 1061v-1061h-366v519l-354 -519h-324v1061h366v-519l354 519h324z" />
    <glyph glyph-name="afii10110" unicode="&#x45e;" horiz-adv-x="1136" 
d="M723 1061h396l-533 -1536h-398l197 475l-369 1061h397l154 -581zM567 1192q-157 0 -272.5 91.5t-119.5 230.5h293q2 -41 30 -68.5t69 -27.5t70 27.5t30 68.5h293q-4 -139 -120 -230.5t-273 -91.5z" />
    <glyph glyph-name="afii10193" unicode="&#x45f;" horiz-adv-x="1288" 
d="M1166 1061v-1061h-333v-287h-378v287h-334v1061h379v-740h287v740h379z" />
    <glyph glyph-name="afii10050" unicode="&#x490;" horiz-adv-x="1088" 
d="M143 0v1434h570v286h349v-622h-530v-1098h-389z" />
    <glyph glyph-name="afii10098" unicode="&#x491;" horiz-adv-x="891" 
d="M849 731h-349v-731h-379v1061h387v287h341v-617z" />
    <glyph glyph-name="Wgrave" unicode="&#x1e80;" horiz-adv-x="2042" 
d="M826 1434h392l206 -926l198 926h400l-376 -1434h-400l-224 909l-225 -909h-400l-377 1434h401l197 -926zM1007 1486l-314 311l237 192l244 -369z" />
    <glyph glyph-name="wgrave" unicode="&#x1e81;" horiz-adv-x="1669" 
d="M652 1061h365l126 -618l129 618h380l-301 -1061h-388l-128 546l-128 -546h-389l-301 1061h380l129 -618zM817 1155l-314 310l236 193l245 -370z" />
    <glyph glyph-name="Wacute" unicode="&#x1e82;" horiz-adv-x="2042" 
d="M826 1434h392l206 -926l198 926h400l-376 -1434h-400l-224 909l-225 -909h-400l-377 1434h401l197 -926zM1344 1797l-315 -311l-168 134l246 369z" />
    <glyph glyph-name="wacute" unicode="&#x1e83;" horiz-adv-x="1669" 
d="M652 1061h365l126 -618l129 618h380l-301 -1061h-388l-128 546l-128 -546h-389l-301 1061h380l129 -618zM1158 1465l-314 -310l-168 133l246 370z" />
    <glyph glyph-name="Wdieresis" unicode="&#x1e84;" horiz-adv-x="2042" 
d="M826 1434h392l206 -926l198 926h400l-376 -1434h-400l-224 909l-225 -909h-400l-377 1434h401l197 -926zM625 1704q0 75 52.5 126.5t129.5 51.5t129.5 -51.5t52.5 -126.5t-52.5 -126.5t-129.5 -51.5t-129.5 51.5t-52.5 126.5zM1056 1704q0 75 52.5 126.5t128.5 51.5
q77 0 130 -51.5t53 -126.5t-53 -126.5t-130 -51.5q-76 0 -128.5 51.5t-52.5 126.5z" />
    <glyph glyph-name="wdieresis" unicode="&#x1e85;" horiz-adv-x="1669" 
d="M652 1061h365l126 -618l129 618h380l-301 -1061h-388l-128 546l-128 -546h-389l-301 1061h380l129 -618zM437 1372q0 75 53 126.5t130 51.5q76 0 128.5 -51.5t52.5 -126.5t-52.5 -126.5t-128.5 -51.5q-77 0 -130 51.5t-53 126.5zM868 1372q0 75 52.5 126.5t129.5 51.5
t129.5 -51.5t52.5 -126.5t-52.5 -126.5t-129.5 -51.5t-129.5 51.5t-52.5 126.5z" />
    <glyph glyph-name="Ygrave" unicode="&#x1ef2;" horiz-adv-x="1358" 
d="M443 1434l237 -519l235 519h423l-464 -877v-557h-390v557l-464 877h423zM665 1486l-314 311l237 192l244 -369z" />
    <glyph glyph-name="ygrave" unicode="&#x1ef3;" horiz-adv-x="1136" 
d="M723 1061h396l-533 -1536h-398l197 475l-369 1061h397l154 -581zM549 1155l-315 310l237 193l245 -370z" />
    <glyph glyph-name="thinspace" unicode="&#x2009;" horiz-adv-x="409" 
 />
    <glyph glyph-name="uni2010" unicode="&#x2010;" horiz-adv-x="880" 
d="M764 511h-647v338h647v-338z" />
    <glyph glyph-name="figuredash" unicode="&#x2012;" horiz-adv-x="1228" 
d="M1126 511h-1024v338h1024v-338z" />
    <glyph glyph-name="endash" unicode="&#x2013;" horiz-adv-x="1024" 
d="M1024 511h-1024v338h1024v-338z" />
    <glyph glyph-name="emdash" unicode="&#x2014;" horiz-adv-x="2048" 
d="M2048 511h-2048v338h2048v-338z" />
    <glyph glyph-name="afii00208" unicode="&#x2015;" horiz-adv-x="2048" 
d="M1843 511h-1638v338h1638v-338z" />
    <glyph glyph-name="uni2016" unicode="&#x2016;" horiz-adv-x="1091" 
d="M145 -287v1823h347v-1823h-347zM600 -287v1823h346v-1823h-346z" />
    <glyph glyph-name="underscoredbl" unicode="&#x2017;" horiz-adv-x="1228" 
d="M102 -509v247h1024v-247h-1024zM102 -197v247h1024v-247h-1024z" />
    <glyph glyph-name="quoteleft" unicode="&#x2018;" horiz-adv-x="623" 
d="M528 1140q0 -72 -61 -131t-160 -59q-92 0 -152.5 61t-60.5 159q0 107 42.5 204t139 182.5t237.5 133.5l75 -117q-84 -51 -128.5 -91t-53 -77t8.5 -70t61 -75q52 -49 52 -120z" />
    <glyph glyph-name="quoteright" unicode="&#x2019;" horiz-adv-x="623" 
d="M95 1406q0 72 61 130.5t160 58.5q92 0 152.5 -61t60.5 -159q0 -107 -42 -204t-138.5 -182t-237.5 -133l-75 117q84 51 128 91t53 77t-8.5 70t-61.5 75q-52 49 -52 120z" />
    <glyph glyph-name="quotesinglbase" unicode="&#x201a;" horiz-adv-x="623" 
d="M95 200q0 72 61 130.5t160 58.5q92 0 152.5 -61t60.5 -159q0 -107 -42 -204t-138.5 -182t-237.5 -133l-75 117q84 51 128 91t53 77t-8.5 70t-61.5 75q-52 49 -52 120z" />
    <glyph glyph-name="quotereversed" unicode="&#x201b;" horiz-adv-x="623" 
d="M529 1403q0 -69 -52 -120q-44 -42 -61 -75t-8 -70t53 -77t128 -91l-75 -116q-141 48 -237.5 133t-139 182t-42.5 204q0 98 60.5 159t152.5 61q99 0 160 -59t61 -131z" />
    <glyph glyph-name="quotedblleft" unicode="&#x201c;" horiz-adv-x="1097" 
d="M995 1140q0 -72 -61 -131t-160 -59q-92 0 -152.5 61t-60.5 159q0 107 42.5 204t139 182.5t237.5 133.5l75 -117q-84 -51 -128.5 -91t-53 -77t8.5 -70t61 -75q52 -49 52 -120zM517 1140q0 -72 -61 -131t-160 -59q-92 0 -152.5 61t-60.5 159q0 107 42.5 204t139 182.5
t237.5 133.5l75 -117q-84 -51 -128.5 -91t-53 -77t8.5 -70t61 -75q52 -49 52 -120z" />
    <glyph glyph-name="quotedblright" unicode="&#x201d;" horiz-adv-x="1097" 
d="M581 1406q0 72 61 130.5t160 58.5q92 0 152.5 -61t60.5 -159q0 -107 -42.5 -204t-139 -182t-237.5 -133l-75 117q84 51 128.5 91t53 77t-8.5 70t-61 75q-52 49 -52 120zM101 1406q0 72 61.5 130.5t160.5 58.5q92 0 152.5 -61t60.5 -159q0 -107 -42.5 -204t-139 -182
t-237.5 -133l-75 117q84 51 128.5 91t53 77t-8.5 70t-61 75q-53 50 -53 120z" />
    <glyph glyph-name="quotedblbase" unicode="&#x201e;" horiz-adv-x="1097" 
d="M575 200q0 72 61.5 130.5t160.5 58.5q92 0 152.5 -61t60.5 -159q0 -107 -42.5 -204t-139 -182t-237.5 -133l-75 117q84 51 128.5 91t53 77t-8.5 70t-61 75q-53 50 -53 120zM95 200q0 72 61 130.5t160 58.5q92 0 152.5 -61t60.5 -159q0 -107 -42 -204t-138.5 -182
t-237.5 -133l-75 117q84 51 128 91t53 77t-8.5 70t-61.5 75q-52 49 -52 120z" />
    <glyph glyph-name="uni201F" unicode="&#x201f;" horiz-adv-x="1097" 
d="M1004 1403q0 -68 -53 -120q-44 -42 -61 -75t-8 -70t53 -77t128 -91l-75 -116q-141 48 -237.5 133t-139 182t-42.5 204q0 98 60.5 159t152.5 61q99 0 160.5 -59t61.5 -131zM529 1403q0 -69 -52 -120q-44 -42 -61 -75t-8 -70t53 -77t128 -91l-75 -116q-141 48 -237.5 133
t-139 182t-42.5 204q0 98 60.5 159t152.5 61q99 0 160 -59t61 -131z" />
    <glyph glyph-name="dagger" unicode="&#x2020;" horiz-adv-x="1163" 
d="M391 -268v1161h-288v321h288v318h380v-318h288v-321h-288v-1161h-380z" />
    <glyph glyph-name="daggerdbl" unicode="&#x2021;" horiz-adv-x="1163" 
d="M391 370v523h-288v321h288v318h380v-318h288v-321h-288v-523h288v-322h-288v-316h-380v316h-288v322h288z" />
    <glyph glyph-name="bullet" unicode="&#x2022;" horiz-adv-x="819" 
d="M93 680q0 132 92 223t225 91q132 0 224 -91t92 -223t-92 -223t-224 -91q-133 0 -225 91t-92 223z" />
    <glyph glyph-name="onedotenleader" unicode="&#x2024;" horiz-adv-x="623" 
d="M94 182q0 88 61.5 147.5t155.5 59.5q95 0 156.5 -59.5t61.5 -147.5t-61.5 -147.5t-156.5 -59.5q-94 0 -155.5 59.5t-61.5 147.5z" />
    <glyph glyph-name="twodotenleader" unicode="&#x2025;" horiz-adv-x="1247" 
d="M718 182q0 88 61.5 147.5t155.5 59.5q95 0 156.5 -59.5t61.5 -147.5t-61.5 -147.5t-156.5 -59.5q-94 0 -155.5 59.5t-61.5 147.5zM94 182q0 88 61.5 147.5t155.5 59.5q95 0 156.5 -59.5t61.5 -147.5t-61.5 -147.5t-156.5 -59.5q-94 0 -155.5 59.5t-61.5 147.5z" />
    <glyph glyph-name="ellipsis" unicode="&#x2026;" horiz-adv-x="1870" 
d="M718 182q0 88 61.5 147.5t155.5 59.5q95 0 156.5 -59.5t61.5 -147.5t-61.5 -147.5t-156.5 -59.5q-94 0 -155.5 59.5t-61.5 147.5zM1332 182q0 88 61.5 147.5t155.5 59.5q95 0 156.5 -59.5t61.5 -147.5t-61.5 -147.5t-156.5 -59.5q-94 0 -155.5 59.5t-61.5 147.5zM103 182
q0 88 62 147.5t156 59.5q95 0 156.5 -59.5t61.5 -147.5t-61.5 -147.5t-156.5 -59.5q-94 0 -156 59.5t-62 147.5z" />
    <glyph glyph-name="perthousand" unicode="&#x2030;" horiz-adv-x="2659" 
d="M447 51l739 1434l204 -109l-738 -1433zM367 1075q0 -45 28 -74.5t71 -29.5t71 29.5t28 74.5t-28 75.5t-71 30.5t-71 -30.5t-28 -75.5zM83 1075q0 158 110.5 265.5t272.5 107.5t272.5 -107.5t110.5 -265.5q0 -157 -110.5 -264.5t-272.5 -107.5t-272.5 107.5t-110.5 264.5z
M1274 357q0 -45 28 -74.5t71 -29.5t71.5 30t28.5 74q0 45 -28.5 75.5t-71.5 30.5t-71 -30.5t-28 -75.5zM991 357q0 157 110.5 265t271.5 108q162 0 272.5 -107.5t110.5 -265.5q0 -157 -110.5 -264t-272.5 -107q-161 0 -271.5 107t-110.5 264zM2094 357q0 -45 28 -74.5
t71 -29.5t71.5 30t28.5 74q0 45 -28.5 75.5t-71.5 30.5t-71 -30.5t-28 -75.5zM1810 357q0 158 110.5 265.5t272.5 107.5t272.5 -107.5t110.5 -265.5q0 -157 -110.5 -264t-272.5 -107t-272.5 107t-110.5 264z" />
    <glyph glyph-name="minute" unicode="&#x2032;" horiz-adv-x="676" 
d="M595 1350l-313 -311l-168 133l244 370z" />
    <glyph glyph-name="second" unicode="&#x2033;" horiz-adv-x="1161" 
d="M1079 1350l-313 -311l-168 133l245 370zM595 1350l-313 -311l-168 133l244 370z" />
    <glyph glyph-name="guilsinglleft" unicode="&#x2039;" horiz-adv-x="779" 
d="M77 529v222l517 354l127 -173l-337 -292l337 -293l-127 -173z" />
    <glyph glyph-name="guilsinglright" unicode="&#x203a;" horiz-adv-x="779" 
d="M700 751v-222l-517 -355l-127 173l337 293l-337 292l127 173z" />
    <glyph glyph-name="exclamdbl" unicode="&#x203c;" horiz-adv-x="1195" 
d="M724 460l-48 974h390l-48 -974h-294zM642 181q0 87 65.5 146.5t162.5 59.5q98 0 164 -59.5t66 -146.5t-66 -146.5t-164 -59.5q-97 0 -162.5 59.5t-65.5 146.5zM177 460l-48 974h390l-48 -974h-294zM95 181q0 87 66 146.5t163 59.5q98 0 163.5 -59.5t65.5 -146.5
t-65.5 -146.5t-163.5 -59.5q-97 0 -163 59.5t-66 146.5z" />
    <glyph glyph-name="uni203E" unicode="&#x203e;" horiz-adv-x="890" 
d="M108 1183v272h675v-272h-675z" />
    <glyph glyph-name="fraction" unicode="&#x2044;" horiz-adv-x="337" 
d="M-289 56l700 1434l215 -114l-699 -1433z" />
    <glyph glyph-name="zerosuperior" unicode="&#x2070;" 
d="M48 948q0 229 97.5 369.5t272.5 140.5q174 0 271 -140.5t97 -369.5t-97 -369.5t-271 -140.5q-175 0 -272.5 140.5t-97.5 369.5zM329 948q0 -122 22.5 -190t66.5 -68q43 0 65.5 68t22.5 190t-22.5 190t-65.5 68q-44 0 -66.5 -68t-22.5 -190z" />
    <glyph glyph-name="uni2071" unicode="&#x2071;" 
d="M283 463v686h269v-686h-269zM265 1325q0 59 44 99t108 40t107.5 -40t43.5 -99t-43.5 -98.5t-107.5 -39.5t-108 39.5t-44 98.5z" />
    <glyph glyph-name="foursuperior" unicode="&#x2074;" 
d="M30 621v208l401 605h255v-586h101v-227h-101v-158h-268v158h-388zM264 847h154v231z" />
    <glyph glyph-name="fivesuperior" unicode="&#x2075;" 
d="M425 1193l-13 -98q149 0 254 -89t105 -229q0 -147 -99.5 -243t-258.5 -96q-232 0 -376 197l138 138q93 -90 196 -90q45 0 76.5 30t31.5 72q0 43 -28.5 72t-69.5 29q-47 0 -76 -38l-213 28q21 165 67 558h576v-241h-310z" />
    <glyph glyph-name="sixsuperior" unicode="&#x2076;" 
d="M709 1434l-214 -330q126 -19 212 -106t86 -218q0 -146 -109 -244t-267 -98q-159 0 -268 97.5t-109 244.5q0 101 49 175l314 479h306zM317 782q0 -45 28.5 -75.5t70.5 -30.5t70.5 30.5t28.5 75.5t-29 76t-70 31t-70 -31t-29 -76z" />
    <glyph glyph-name="sevensuperior" unicode="&#x2077;" 
d="M85 1434h669v-211l-312 -760h-305l304 724h-356v247z" />
    <glyph glyph-name="eightsuperior" unicode="&#x2078;" 
d="M321 767q0 -44 28.5 -73t68.5 -29t68 29t28 73t-28 73t-68 29t-68.5 -29t-28.5 -73zM748 1169q0 -55 -25 -103.5t-69 -79.5q62 -34 97.5 -97.5t35.5 -132.5q0 -135 -105.5 -226.5t-263.5 -91.5t-264 91.5t-106 226.5q0 69 35 132.5t97 97.5q-43 31 -68 79.5t-25 103.5
q0 122 94.5 205.5t236.5 83.5q141 0 235.5 -83.5t94.5 -205.5zM346 1162q0 -31 20.5 -53t51.5 -22t50.5 22t19.5 53t-19.5 52t-50.5 21t-51.5 -21t-20.5 -52z" />
    <glyph glyph-name="ninesuperior" unicode="&#x2079;" 
d="M125 463l214 329q-126 19 -211.5 105.5t-85.5 217.5q0 147 109 245t266 98q159 0 268 -98t109 -245q0 -99 -50 -175l-313 -477h-306zM517 1113q0 45 -28.5 76t-70.5 31t-71 -31t-29 -76t29 -75.5t71 -30.5q41 0 70 30.5t29 75.5z" />
    <glyph glyph-name="uni207A" unicode="&#x207a;" 
d="M280 616v208h-206v247h206v208h275v-208h206v-247h-206v-208h-275z" />
    <glyph glyph-name="uni207B" unicode="&#x207b;" 
d="M761 824h-687v247h687v-247z" />
    <glyph glyph-name="uni207C" unicode="&#x207c;" 
d="M761 660h-687v240h687v-240zM761 996h-687v239h687v-239z" />
    <glyph glyph-name="uni207D" unicode="&#x207d;" 
d="M268 948q0 168 65.5 329t180.5 285l197 -129q-165 -215 -165 -485t165 -485l-197 -129q-115 124 -180.5 284.5t-65.5 329.5z" />
    <glyph glyph-name="uni207E" unicode="&#x207e;" 
d="M566 948q0 -169 -65.5 -329.5t-179.5 -284.5l-197 129q165 215 165 485t-165 485l197 129q114 -123 179.5 -284.5t65.5 -329.5z" />
    <glyph glyph-name="uni207F" unicode="&#x207f;" 
d="M350 838v-375h-267v686h267v-60q23 34 66.5 54t94.5 20q104 0 175 -76t71 -192v-432h-268v394q0 33 -19.5 54.5t-50.5 21.5q-28 0 -48.5 -25.5t-20.5 -69.5z" />
    <glyph glyph-name="zeroinferior" unicode="&#x2080;" 
d="M48 217q0 229 97.5 369.5t272.5 140.5q174 0 271 -140.5t97 -369.5t-97 -369.5t-271 -140.5q-175 0 -272.5 140.5t-97.5 369.5zM329 217q0 -122 22.5 -190t66.5 -68q43 0 65.5 68t22.5 190t-22.5 190t-65.5 68q-44 0 -66.5 -68t-22.5 -190z" />
    <glyph glyph-name="oneinferior" unicode="&#x2081;" 
d="M375 702h246v-970h-291v700l-139 -76l-102 192z" />
    <glyph glyph-name="twoinferior" unicode="&#x2082;" 
d="M629 176l-183 -200h293v-244h-649v220l323 351q56 60 56 114q0 32 -19.5 51.5t-50.5 19.5q-33 0 -54.5 -25.5t-22.5 -70.5h-254q3 146 94.5 240.5t249.5 94.5q146 0 242 -79t96 -201q0 -141 -121 -271z" />
    <glyph glyph-name="threeinferior" unicode="&#x2083;" 
d="M468 51q0 41 -28 70t-69 29q-22 0 -52 -15l-111 138l178 189h-287v240h616v-226l-169 -165q102 -35 159 -112.5t57 -180.5q0 -134 -101.5 -222.5t-253.5 -88.5q-206 0 -345 202l120 132q90 -90 189 -90q41 0 69 28.5t28 71.5z" />
    <glyph glyph-name="fourinferior" unicode="&#x2084;" 
d="M30 -111v209l401 604h255v-585h101v-228h-101v-157h-268v157h-388zM264 116h154v231z" />
    <glyph glyph-name="fiveinferior" unicode="&#x2085;" 
d="M425 462l-13 -98q149 0 254 -89t105 -229q0 -147 -99.5 -243t-258.5 -96q-232 0 -376 197l138 138q93 -90 196 -90q45 0 76.5 30t31.5 72q0 43 -28.5 72t-69.5 29q-47 0 -76 -38l-213 27q21 165 67 558h576v-240h-310z" />
    <glyph glyph-name="sixinferior" unicode="&#x2086;" 
d="M709 702l-214 -329q126 -19 212 -106t86 -218q0 -146 -109 -244t-267 -98q-159 0 -268 97.5t-109 244.5q0 101 49 175l314 478h306zM317 51q0 -45 28.5 -75.5t70.5 -30.5t70.5 30.5t28.5 75.5t-29 76t-70 31t-70 -31t-29 -76z" />
    <glyph glyph-name="seveninferior" unicode="&#x2087;" 
d="M85 702h669v-210l-312 -760h-305l304 724h-356v246z" />
    <glyph glyph-name="eightinferior" unicode="&#x2088;" 
d="M321 36q0 -44 28.5 -73.5t68.5 -29.5t68 29.5t28 73.5t-28 73t-68 29t-68.5 -29t-28.5 -73zM748 438q0 -55 -25 -103.5t-69 -79.5q62 -34 97.5 -97.5t35.5 -132.5q0 -135 -105.5 -226.5t-263.5 -91.5t-264 91.5t-106 226.5q0 69 35 132.5t97 97.5q-43 31 -68 79.5
t-25 103.5q0 122 94.5 205.5t236.5 83.5q141 0 235.5 -83.5t94.5 -205.5zM346 431q0 -31 20.5 -53t51.5 -22t50.5 22t19.5 53t-19.5 52t-50.5 21t-51.5 -21t-20.5 -52z" />
    <glyph glyph-name="nineinferior" unicode="&#x2089;" 
d="M125 -268l214 328q-125 19 -211 106t-86 218q0 147 109 245t266 98q159 0 268 -98t109 -245q0 -99 -50 -175l-313 -477h-306zM517 382q0 45 -28.5 75.5t-70.5 30.5t-71 -30.5t-29 -75.5t29.5 -76t70.5 -31t70 31t29 76z" />
    <glyph glyph-name="uni208A" unicode="&#x208a;" 
d="M280 -115v208h-206v247h206v208h275v-208h206v-247h-206v-208h-275z" />
    <glyph glyph-name="uni208B" unicode="&#x208b;" 
d="M761 93h-687v247h687v-247z" />
    <glyph glyph-name="uni208C" unicode="&#x208c;" 
d="M761 -71h-687v240h687v-240zM761 265h-687v239h687v-239z" />
    <glyph glyph-name="uni208D" unicode="&#x208d;" 
d="M268 217q0 168 65.5 328.5t180.5 284.5l197 -129q-165 -215 -165 -484q0 -270 165 -485l-197 -129q-115 124 -180.5 284.5t-65.5 329.5z" />
    <glyph glyph-name="uni208E" unicode="&#x208e;" 
d="M566 217q0 -169 -65.5 -329.5t-179.5 -284.5l-197 129q165 215 165 485q0 269 -165 484l197 129q114 -124 179.5 -284.5t65.5 -328.5z" />
    <glyph glyph-name="uni2090" unicode="&#x2090;" 
d="M515 -279v60q-33 -34 -81.5 -54t-101.5 -20q-129 0 -218 104t-89 255t89 254.5t218 103.5q53 0 101.5 -20t81.5 -54v60h260v-689h-260zM285 66q0 -54 32 -91t82 -37t83 37t33 91q0 55 -32.5 91.5t-83.5 36.5q-50 0 -82 -36.5t-32 -91.5z" />
    <glyph glyph-name="uni2091" unicode="&#x2091;" 
d="M312 -5q12 -45 47.5 -70.5t86.5 -25.5q123 0 217 70l103 -117q-142 -145 -326 -145q-168 0 -280 103.5t-112 255.5t108.5 255t267.5 103q155 0 258.5 -100.5t103.5 -247.5q0 -40 -12 -81h-462zM420 231q-83 0 -106 -83h207q-20 83 -101 83z" />
    <glyph glyph-name="uni2092" unicode="&#x2092;" 
d="M35 66q0 152 109.5 255t272.5 103t272.5 -103t109.5 -255q0 -153 -109.5 -256t-272.5 -103t-272.5 103.5t-109.5 255.5zM295 66q0 -54 34.5 -91t87.5 -37t88 37t35 91q0 55 -35 91.5t-88 36.5t-87.5 -36.5t-34.5 -91.5z" />
    <glyph glyph-name="uni2093" unicode="&#x2093;" 
d="M50 -279l200 352l-182 337h286l62 -160l61 160h288l-182 -337l199 -352h-286l-80 179l-78 -179h-288z" />
    <glyph glyph-name="uni2094" unicode="&#x2094;" 
d="M60 136h462q-12 45 -47.5 70.5t-86.5 25.5q-122 0 -216 -70l-103 118q141 144 325 144q168 0 280 -103t112 -255t-108 -255.5t-267 -103.5q-155 0 -259 100.5t-104 247.5q0 40 12 81zM415 -100q82 0 105 83h-207q20 -83 102 -83z" />
    <glyph glyph-name="uni20A0" unicode="&#x20a0;" horiz-adv-x="1635" 
d="M605 432q-153 0 -278.5 67.5t-197.5 185t-72 260.5q0 142 72 260t197.5 185.5t278.5 67.5q201 0 337.5 -110.5t160.5 -291.5h-311q-19 53 -67.5 84t-112.5 31q-90 0 -150.5 -64.5t-60.5 -161.5t60.5 -162t150.5 -65q118 0 206 82v193h686v-257h-365v-113h334v-245h-334
v-120h378v-257h-699v487q-103 -56 -213 -56z" />
    <glyph glyph-name="colonmonetary" unicode="&#x20a1;" horiz-adv-x="1550" 
d="M465 229h207l-78 -438h-207zM856 1271h-207l66 371h207zM1141 1262h-207l67 380h207zM752 233h206l-77 -442h-207zM824 -25q-158 0 -297.5 57.5t-239 156.5t-157.5 236.5t-58 291.5q0 210 92.5 379t260 265.5t379.5 96.5q256 0 438.5 -142.5t235.5 -396.5h-412
q-25 94 -93.5 148t-161.5 54q-157 0 -252.5 -114t-95.5 -290q0 -175 103.5 -290.5t264.5 -115.5q132 0 233.5 54.5t188.5 169.5l209 -157q-107 -189 -266.5 -296t-371.5 -107z" />
    <glyph glyph-name="uni20A2" unicode="&#x20a2;" horiz-adv-x="1440" 
d="M817 -25q-155 0 -293.5 57.5t-237.5 156.5t-156.5 236.5t-57.5 291.5q0 207 96 376.5t267 267t382 97.5q251 0 429.5 -142.5t231.5 -396.5h-412q-25 94 -93.5 148t-161.5 54q-153 0 -250.5 -115t-97.5 -289q0 -124 54 -221t148 -144v506h305v-78q66 92 160 92
q52 0 95 -23l-26 -241q-52 23 -87 23q-51 0 -96.5 -41.5t-45.5 -112.5v-147q159 40 283 205l209 -157q-229 -403 -645 -403z" />
    <glyph glyph-name="franc" unicode="&#x20a3;" horiz-adv-x="1162" 
d="M200 0v428h-172v172h172v78h-172v173h172v583h913v-333h-524v-250h289v-173h-289v-78h289v-172h-289v-428h-389z" />
    <glyph glyph-name="lira" unicode="&#x20a4;" horiz-adv-x="1205" 
d="M271 450h-202v163h213q-5 31 -17 71h-196v164h132q-39 105 -39 199q0 172 137.5 291.5t337.5 119.5q194 0 325.5 -113t159.5 -309h-365q-35 86 -120 86q-40 0 -66 -28.5t-26 -70.5q0 -70 45 -175h306v-164h-244q14 -57 16 -71h228v-163h-247q-26 -83 -97 -129h556v-321
h-987v301q111 44 150 149z" />
    <glyph glyph-name="uni20A6" unicode="&#x20a6;" horiz-adv-x="1518" 
d="M171 0v1434h419l400 -876v876h357v-1434h-418l-401 876v-876h-357zM258 969v-195h-238v195h238zM263 659v-194h-243v194h243zM1231 774v195h272v-195h-272zM1231 465v194h272v-194h-272z" />
    <glyph glyph-name="peseta" unicode="&#x20a7;" horiz-adv-x="1257" 
d="M1257 872h-54q-26 -184 -165.5 -299t-340.5 -115h-165v-458h-389v872h-115v146h115v416h554q201 0 340.5 -116t165.5 -300h54v-146zM532 1132v-114h283q-19 53 -62.5 83.5t-105.5 30.5h-115zM532 760h115q60 0 104 30t64 82h-283v-112z" />
    <glyph glyph-name="uni20A9" unicode="&#x20a9;" horiz-adv-x="2079" 
d="M845 1434h391l207 -926l197 926h401l-377 -1434h-399l-225 909l-225 -909h-399l-377 1434h400l198 -926zM905 969v-195h-885v195h885zM1187 774v195h412v-195h-412zM407 659v-194h-387v194h387zM1693 774v195h364v-195h-364zM1604 465v194h453v-194h-453zM1311 659v-194
h-478v194h478z" />
    <glyph glyph-name="afii57636" unicode="&#x20aa;" horiz-adv-x="1823" 
d="M143 0v1434h596q111 0 210 -37.5t170.5 -101.5t113 -153t41.5 -188v-417h-319v363q0 100 -65.5 166.5t-165.5 66.5h-261v-1133h-320zM1680 1434v-1434h-596q-111 0 -210 37.5t-170 101t-112.5 152.5t-41.5 188v418h318v-363q0 -100 66 -166.5t166 -66.5h261v1133h319z
" />
    <glyph glyph-name="dong" unicode="&#x20ab;" horiz-adv-x="1408" 
d="M57 530q0 155 61 281.5t172.5 200t251.5 73.5q93 0 176.5 -35t144.5 -97v211h-258v202h258v129h369v-129h134v-202h-134v-1164h-369v106q-129 -131 -321 -131q-212 0 -348.5 159t-136.5 396zM352 -410v274h776v-274h-776zM429 530q0 -96 62.5 -161t153.5 -65q92 0 155 65
t63 161t-63 161t-155 65q-91 0 -153.5 -65t-62.5 -161z" />
    <glyph glyph-name="Euro" unicode="&#x20ac;" horiz-adv-x="1620" 
d="M20 669h124q-1 16 -1 48q0 8 0.5 24t0.5 24h-124v176h156q69 231 261.5 374t451.5 143q251 0 429 -142t230 -397h-410q-26 94 -94.5 148.5t-161.5 54.5q-96 0 -172.5 -48.5t-120.5 -132.5h419l-49 -176h-422q-3 -24 -3 -48q0 -25 3 -48h404l-47 -176h-303
q47 -85 128 -133.5t183 -48.5q132 0 234 54.5t189 169.5l208 -156q-107 -190 -267.5 -297t-376.5 -107q-254 0 -448.5 143.5t-264.5 374.5h-156v176z" />
    <glyph glyph-name="ruble" unicode="&#x20bd;" horiz-adv-x="1257" 
d="M861 189h-329v-189h-389v189h-115v177h115v92h-115v302h115v674h554q222 0 366.5 -138.5t144.5 -350.5q0 -211 -144.5 -349t-366.5 -138h-165v-92h329v-177zM532 760h115q73 0 126.5 54t53.5 131q0 84 -49 135.5t-131 51.5h-115v-372z" />
    <glyph glyph-name="afii61248" unicode="&#x2105;" horiz-adv-x="2179" 
d="M1163 409q0 182 136 308t334 126t334 -126t136 -308t-136 -308t-334 -126t-334 126t-136 308zM1465 409q0 -70 48.5 -118t119.5 -48t119 48t48 118q0 69 -48 116.5t-119 47.5t-119.5 -47.5t-48.5 -116.5zM769 954l146 -112q-133 -252 -391 -252q-190 0 -320.5 125
t-130.5 310t126 309.5t311 124.5q176 0 288.5 -99t132.5 -253h-291q-9 36 -43.5 57t-75.5 21q-63 0 -105 -46t-42 -114q0 -79 47 -125t130 -46q128 0 218 100zM600 57l700 1434l218 -114l-699 -1432z" />
    <glyph glyph-name="uni2109" unicode="&#x2109;" horiz-adv-x="1720" 
d="M748 0v1434h913v-332h-523v-261h474v-332h-474v-509h-390zM41 1159q0 126 91.5 212.5t225.5 86.5t226 -86.5t92 -212.5t-92 -213t-226 -87t-225.5 87t-91.5 213zM272 1159q0 -37 24 -61.5t62 -24.5t62 24.5t24 61.5t-24.5 61t-61.5 24t-61.5 -24t-24.5 -61z" />
    <glyph glyph-name="afii61289" unicode="&#x2113;" horiz-adv-x="1178" 
d="M1117 1086v-43q0 -358 -510 -632v-54q0 -38 24 -62.5t61 -24.5q101 0 154 119l264 -153q-45 -120 -159.5 -190.5t-257.5 -70.5q-156 0 -271.5 80.5t-145.5 207.5q-84 -32 -132 -48l-96 282q144 55 217 85v504q0 157 123.5 264.5t302.5 107.5t302.5 -107.5t123.5 -264.5z
M607 1074v-308q90 66 129 137t39 162v6q0 40 -23.5 66.5t-60.5 26.5q-38 0 -61 -25t-23 -65z" />
    <glyph glyph-name="afii61352" unicode="&#x2116;" horiz-adv-x="2276" 
d="M143 0v1434h325l385 -790v790h340v-1434h-324l-385 790v-790h-341zM2152 0h-829v278h829v-278zM1617 742q0 -52 34.5 -86t86.5 -34t86.5 34t34.5 86q0 53 -34.5 87.5t-86.5 34.5t-86.5 -34.5t-34.5 -87.5zM1303 742q0 167 126 283.5t309 116.5t309 -116.5t126 -283.5
t-126 -282.5t-309 -115.5t-309 115.5t-126 282.5z" />
    <glyph glyph-name="uni2117" unicode="&#x2117;" horiz-adv-x="1646" 
d="M890 562h-96v-240h-246v788h342q129 0 216.5 -78.5t87.5 -195.5t-87.5 -195.5t-216.5 -78.5zM82 717q0 153 58 290t157 236t236 157t290 58t290.5 -58t236.5 -157t157 -236t58 -290t-58 -290.5t-157 -236.5t-236.5 -157t-290.5 -58t-290 58t-236 157t-157 236.5
t-58 290.5zM217 717q0 -169 80.5 -310.5t220 -223t305.5 -81.5t306 81.5t220.5 223t80.5 310.5q0 127 -47.5 241t-128.5 195.5t-193.5 129.5t-237.5 48q-166 0 -305.5 -81t-220 -222.5t-80.5 -310.5zM794 757h70q33 0 57.5 23t24.5 56q0 34 -23 56t-59 22h-70v-157z" />
    <glyph glyph-name="uni2120" unicode="&#x2120;" horiz-adv-x="1642" 
d="M59 829l92 107q88 -79 202 -79q30 0 48 12t18 33q0 22 -22 36t-76 26q-116 26 -179.5 90.5t-63.5 157.5q0 102 81 167.5t205 65.5q130 0 209 -70t92 -182h-213q-4 27 -24.5 43t-48.5 16q-25 0 -39.5 -10.5t-14.5 -28.5q0 -24 20.5 -39t77.5 -27q252 -57 252 -245
q0 -104 -85 -170.5t-219 -66.5q-86 0 -167 41.5t-145 122.5zM1201 842h-132l-107 204v-370h-233v758h218l188 -342l187 342h217v-758h-231v366z" />
    <glyph glyph-name="uni2121" unicode="&#x2121;" horiz-adv-x="2358" 
d="M1178 431q10 -88 56.5 -136t117.5 -48q153 0 265 109l147 -168q-169 -213 -419 -213q-153 0 -274 73.5t-186 200t-65 281.5q0 154 65 281.5t179.5 200.5t253.5 73q136 0 246.5 -71.5t172.5 -195t62 -272.5q0 -57 -15 -115h-606zM351 0v1099h-305v335h978v-335h-305v-1099
h-368zM1857 0v1495h357v-1495h-357zM1313 814q-53 0 -87.5 -43t-45.5 -124h260q-10 81 -42.5 124t-84.5 43z" />
    <glyph glyph-name="trademark" unicode="&#x2122;" horiz-adv-x="1614" 
d="M219 676v548h-175v210h601v-210h-175v-548h-251zM1174 842h-134l-107 204v-370h-233v758h219l187 -342l187 342h218v-758h-232v366z" />
    <glyph glyph-name="Omega" unicode="&#x2126;" horiz-adv-x="1667" 
d="M1195 745q0 159 -104 268t-257 109t-257.5 -109t-104.5 -268q0 -142 76 -255.5t213 -177.5v-312h-656v336h233q-257 165 -257 454q0 138 58.5 262t159 213t240 141t295.5 52q208 0 380.5 -88t272 -241.5t99.5 -338.5q0 -289 -257 -454h233v-336h-656v312
q137 64 213 177.5t76 255.5z" />
    <glyph glyph-name="estimated" unicode="&#x212e;" horiz-adv-x="1646" 
d="M1215 812v274q-75 85 -175 132t-217 47t-218 -47t-175 -132v-274h785zM430 621v-276q73 -84 174 -130.5t219 -46.5q135 0 251 63t191 179l170 -116q-104 -151 -265 -235t-347 -84q-153 0 -290 58t-236 157t-157 236.5t-58 290.5t58 290t157 236t236 157t290 58t290.5 -58
t236.5 -157t157 -236t58 -290v-96h-1135z" />
    <glyph glyph-name="onethird" unicode="&#x2153;" horiz-adv-x="2007" 
d="M546 56l699 1434l215 -114l-698 -1433zM375 1434h246v-971h-291v700l-139 -76l-102 192zM1640 319q0 41 -28 70t-69 29q-21 0 -51 -15l-112 139l179 188h-287v241h615v-227l-169 -164q102 -35 159 -112.5t57 -180.5q0 -134 -101.5 -223t-253.5 -89q-205 0 -344 202
l120 132q90 -90 188 -90q41 0 69 28.5t28 71.5z" />
    <glyph glyph-name="twothirds" unicode="&#x2154;" horiz-adv-x="2007" 
d="M546 56l699 1434l215 -114l-698 -1433zM629 907l-183 -199h293v-245h-649v220l323 351q56 60 56 114q0 32 -19.5 52t-50.5 20q-32 0 -54 -26t-23 -71h-254q3 146 94.5 240.5t249.5 94.5q146 0 242 -78.5t96 -200.5q0 -142 -121 -272zM1640 319q0 41 -28 70t-69 29
q-21 0 -51 -15l-112 139l179 188h-287v241h615v-227l-169 -164q102 -35 159 -112.5t57 -180.5q0 -134 -101.5 -223t-253.5 -89q-205 0 -344 202l120 132q90 -90 188 -90q41 0 69 28.5t28 71.5z" />
    <glyph glyph-name="onefifth" unicode="&#x2155;" horiz-adv-x="2007" 
d="M546 56l699 1434l215 -114l-698 -1433zM375 1434h246v-971h-291v700l-139 -76l-102 192zM1597 728l-13 -98q149 0 254.5 -89t105.5 -229q0 -147 -99.5 -243t-259.5 -96q-232 0 -376 197l139 138q93 -90 195 -90q45 0 77 30.5t32 72.5q0 43 -29 71.5t-70 28.5
q-46 0 -75 -38l-213 28q10 82 21 175t24.5 207t20.5 176h577v-241h-311z" />
    <glyph glyph-name="twofifths" unicode="&#x2156;" horiz-adv-x="2007" 
d="M546 56l699 1434l215 -114l-698 -1433zM629 907l-183 -199h293v-245h-649v220l323 351q56 60 56 114q0 32 -19.5 52t-50.5 20q-32 0 -54 -26t-23 -71h-254q3 146 94.5 240.5t249.5 94.5q146 0 242 -78.5t96 -200.5q0 -142 -121 -272zM1597 728l-13 -98q149 0 254.5 -89
t105.5 -229q0 -147 -99.5 -243t-259.5 -96q-232 0 -376 197l139 138q93 -90 195 -90q45 0 77 30.5t32 72.5q0 43 -29 71.5t-70 28.5q-46 0 -75 -38l-213 28q10 82 21 175t24.5 207t20.5 176h577v-241h-311z" />
    <glyph glyph-name="threefifths" unicode="&#x2157;" horiz-adv-x="2007" 
d="M546 56l699 1434l215 -114l-698 -1433zM1597 728l-13 -98q149 0 254.5 -89t105.5 -229q0 -147 -99.5 -243t-259.5 -96q-232 0 -376 197l139 138q93 -90 195 -90q45 0 77 30.5t32 72.5q0 43 -29 71.5t-70 28.5q-46 0 -75 -38l-213 28q10 82 21 175t24.5 207t20.5 176h577
v-241h-311zM468 782q0 41 -28 70t-69 29q-22 0 -52 -15l-111 139l178 188h-287v241h616v-227l-169 -165q102 -35 159 -112t57 -180q0 -134 -101.5 -223t-253.5 -89q-206 0 -345 202l120 132q90 -90 189 -90q41 0 69 28.5t28 71.5z" />
    <glyph glyph-name="fourfifths" unicode="&#x2158;" horiz-adv-x="2007" 
d="M546 56l699 1434l215 -114l-698 -1433zM1597 728l-13 -98q149 0 254.5 -89t105.5 -229q0 -147 -99.5 -243t-259.5 -96q-232 0 -376 197l139 138q93 -90 195 -90q45 0 77 30.5t32 72.5q0 43 -29 71.5t-70 28.5q-46 0 -75 -38l-213 28q10 82 21 175t24.5 207t20.5 176h577
v-241h-311zM30 621v208l401 605h255v-586h101v-227h-101v-158h-268v158h-388zM264 847h154v231z" />
    <glyph glyph-name="onesixth" unicode="&#x2159;" horiz-adv-x="2007" 
d="M546 56l699 1434l215 -114l-698 -1433zM375 1434h246v-971h-291v700l-139 -76l-102 192zM1881 971l-214 -330q126 -19 212 -106t86 -218q0 -146 -109 -244t-267 -98q-159 0 -268 97.5t-109 244.5q0 100 50 176l314 478h305zM1490 319q0 -45 28.5 -75.5t69.5 -30.5
q42 0 71 30.5t29 75.5t-29.5 76t-70.5 31t-69.5 -31t-28.5 -76z" />
    <glyph glyph-name="fivesixths" unicode="&#x215a;" horiz-adv-x="2007" 
d="M546 56l699 1434l215 -114l-698 -1433zM1881 971l-214 -330q126 -19 212 -106t86 -218q0 -146 -109 -244t-267 -98q-159 0 -268 97.5t-109 244.5q0 100 50 176l314 478h305zM1490 319q0 -45 28.5 -75.5t69.5 -30.5q42 0 71 30.5t29 75.5t-29.5 76t-70.5 31t-69.5 -31
t-28.5 -76zM425 1193l-13 -98q149 0 254 -89t105 -229q0 -147 -99.5 -243t-258.5 -96q-232 0 -376 197l138 138q93 -90 196 -90q45 0 76.5 30t31.5 72q0 43 -28.5 72t-69.5 29q-47 0 -76 -38l-213 28q21 165 67 558h576v-241h-310z" />
    <glyph glyph-name="oneeighth" unicode="&#x215b;" horiz-adv-x="2007" 
d="M546 56l699 1434l215 -114l-698 -1433zM375 1434h246v-971h-291v700l-139 -76l-102 192zM1493 302q0 -44 28.5 -73t68.5 -29t68.5 29t28.5 73t-28.5 73t-68.5 29t-68.5 -29t-28.5 -73zM1920 705q0 -55 -24.5 -104.5t-68.5 -79.5q62 -34 97.5 -97.5t35.5 -132.5
q0 -135 -106 -226.5t-264 -91.5t-263.5 91.5t-105.5 226.5q0 69 35 132.5t97 97.5q-43 31 -68 80t-25 104q0 122 94 205t236 83t236 -83t94 -205zM1519 697q0 -31 20 -52.5t51 -21.5t51 21.5t20 52.5t-20 52t-51 21t-51 -21t-20 -52z" />
    <glyph glyph-name="threeeighths" unicode="&#x215c;" horiz-adv-x="2007" 
d="M546 56l699 1434l215 -114l-698 -1433zM1493 302q0 -44 28.5 -73t68.5 -29t68.5 29t28.5 73t-28.5 73t-68.5 29t-68.5 -29t-28.5 -73zM1920 705q0 -55 -24.5 -104.5t-68.5 -79.5q62 -34 97.5 -97.5t35.5 -132.5q0 -135 -106 -226.5t-264 -91.5t-263.5 91.5t-105.5 226.5
q0 69 35 132.5t97 97.5q-43 31 -68 80t-25 104q0 122 94 205t236 83t236 -83t94 -205zM1519 697q0 -31 20 -52.5t51 -21.5t51 21.5t20 52.5t-20 52t-51 21t-51 -21t-20 -52zM468 782q0 41 -28 70t-69 29q-22 0 -52 -15l-111 139l178 188h-287v241h616v-227l-169 -165
q102 -35 159 -112t57 -180q0 -134 -101.5 -223t-253.5 -89q-206 0 -345 202l120 132q90 -90 189 -90q41 0 69 28.5t28 71.5z" />
    <glyph glyph-name="fiveeighths" unicode="&#x215d;" horiz-adv-x="2007" 
d="M546 56l699 1434l215 -114l-698 -1433zM425 1193l-13 -98q149 0 254 -89t105 -229q0 -147 -99.5 -243t-258.5 -96q-232 0 -376 197l138 138q93 -90 196 -90q45 0 76.5 30t31.5 72q0 43 -28.5 72t-69.5 29q-47 0 -76 -38l-213 28q21 165 67 558h576v-241h-310zM1493 302
q0 -44 28.5 -73t68.5 -29t68.5 29t28.5 73t-28.5 73t-68.5 29t-68.5 -29t-28.5 -73zM1920 705q0 -55 -24.5 -104.5t-68.5 -79.5q62 -34 97.5 -97.5t35.5 -132.5q0 -135 -106 -226.5t-264 -91.5t-263.5 91.5t-105.5 226.5q0 69 35 132.5t97 97.5q-43 31 -68 80t-25 104
q0 122 94 205t236 83t236 -83t94 -205zM1519 697q0 -31 20 -52.5t51 -21.5t51 21.5t20 52.5t-20 52t-51 21t-51 -21t-20 -52z" />
    <glyph glyph-name="seveneighths" unicode="&#x215e;" horiz-adv-x="2007" 
d="M546 56l699 1434l215 -114l-698 -1433zM1493 302q0 -44 28.5 -73t68.5 -29t68.5 29t28.5 73t-28.5 73t-68.5 29t-68.5 -29t-28.5 -73zM1920 705q0 -55 -24.5 -104.5t-68.5 -79.5q62 -34 97.5 -97.5t35.5 -132.5q0 -135 -106 -226.5t-264 -91.5t-263.5 91.5t-105.5 226.5
q0 69 35 132.5t97 97.5q-43 31 -68 80t-25 104q0 122 94 205t236 83t236 -83t94 -205zM1519 697q0 -31 20 -52.5t51 -21.5t51 21.5t20 52.5t-20 52t-51 21t-51 -21t-20 -52zM85 1434h669v-211l-312 -760h-305l304 724h-356v247z" />
    <glyph glyph-name="uni215F" unicode="&#x215f;" horiz-adv-x="2007" 
d="M546 56l699 1434l215 -114l-698 -1433zM375 1434h246v-971h-291v700l-139 -76l-102 192z" />
    <glyph glyph-name="arrowleft" unicode="&#x2190;" horiz-adv-x="1761" 
d="M651 205l-557 476l557 476l141 -174l-237 -192h1128v-217h-1132l241 -194z" />
    <glyph glyph-name="arrowup" unicode="&#x2191;" horiz-adv-x="1761" 
d="M400 953l477 557l477 -557l-174 -140l-194 237v-1129h-216v1133l-195 -241z" />
    <glyph glyph-name="arrowright" unicode="&#x2192;" horiz-adv-x="1761" 
d="M1660 681l-558 -476l-139 175l240 194h-1133v217h1129l-236 192l139 174z" />
    <glyph glyph-name="arrowdown" unicode="&#x2193;" horiz-adv-x="1761" 
d="M1353 502l-476 -556l-477 556l175 140l194 -240v1132h216v-1130l194 238z" />
    <glyph glyph-name="arrowboth" unicode="&#x2194;" horiz-adv-x="1761" 
d="M1673 681l-557 -476l-140 175l241 194h-666l241 -194l-141 -175l-557 476l557 476l141 -174l-237 -192h657l-236 192l140 174z" />
    <glyph glyph-name="arrowupdn" unicode="&#x2195;" horiz-adv-x="1761" 
d="M874 -60l-476 558l175 139l195 -241v666l-195 -240l-175 140l476 557l478 -557l-175 -140l-193 237v-659l193 237l175 -139z" />
    <glyph glyph-name="arrowupdnbse" unicode="&#x21a8;" horiz-adv-x="1761" 
d="M484 -14h352l-438 512l175 139l195 -241v666l-195 -240l-175 140l476 557l478 -557l-175 -140l-193 237v-659l193 237l175 -139l-440 -512h358v-219h-786v219z" />
    <glyph glyph-name="partialdiff" unicode="&#x2202;" horiz-adv-x="1281" 
d="M571 957q75 0 143 -30.5t112 -82.5q-17 154 -75.5 219.5t-161.5 65.5q-150 0 -276 -116l-133 289q160 156 410 156q286 0 450.5 -204t164.5 -541q0 -174 -46 -314.5t-126.5 -232.5t-189 -141.5t-234.5 -49.5q-153 0 -280.5 65t-201 178t-73.5 248q0 134 72.5 248
t191 178.5t253.5 64.5zM609 304q85 0 138.5 54.5t72.5 177.5q-87 93 -211 93q-78 0 -130.5 -46.5t-52.5 -116.5q0 -69 52.5 -115.5t130.5 -46.5z" />
    <glyph glyph-name="Delta" unicode="&#x2206;" horiz-adv-x="1430" 
d="M928 1434l481 -1434h-1389l483 1434h425zM715 1031l-211 -715h423z" />
    <glyph glyph-name="product" unicode="&#x220f;" horiz-adv-x="1410" 
d="M1266 1516v-1743h-389v1408h-343v-1408h-391v1743h1123z" />
    <glyph glyph-name="summation" unicode="&#x2211;" horiz-adv-x="1362" 
d="M102 166l468 489l-468 467v394h1160v-332h-734l400 -402v-254l-398 -424h732v-331h-1160v393z" />
    <glyph glyph-name="minus" unicode="&#x2212;" horiz-adv-x="1206" 
d="M1090 513h-973v334h973v-334z" />
    <glyph glyph-name="uni2215" unicode="&#x2215;" horiz-adv-x="337" 
d="M-289 56l700 1434l215 -114l-699 -1433z" />
    <glyph glyph-name="uni2219" unicode="&#x2219;" horiz-adv-x="623" 
d="M94 671q0 88 61.5 147.5t155.5 59.5q95 0 156.5 -59.5t61.5 -147.5t-61.5 -147.5t-156.5 -59.5q-94 0 -155.5 59.5t-61.5 147.5z" />
    <glyph glyph-name="radical" unicode="&#x221a;" horiz-adv-x="1177" 
d="M752 0h-447l-295 768h385l110 -342l280 1151h383z" />
    <glyph glyph-name="infinity" unicode="&#x221e;" horiz-adv-x="1591" 
d="M453 587q51 0 90.5 20t82.5 73q-43 52 -82.5 72t-90.5 20q-42 0 -70 -26t-28 -66q0 -41 28 -67t70 -26zM796 516q-167 -175 -369 -175q-152 0 -254.5 97t-102.5 242q0 144 102.5 241t254.5 97q195 0 369 -176q173 176 368 176q151 0 254 -97t103 -241q0 -145 -103 -242
t-254 -97q-201 0 -368 175zM1138 587q42 0 69.5 26t27.5 67q0 40 -27.5 66t-69.5 26q-50 0 -90 -20t-83 -72q43 -52 83 -72.5t90 -20.5z" />
    <glyph glyph-name="orthogonal" unicode="&#x221f;" horiz-adv-x="1269" 
d="M1244 335v-335h-1101v1178h391v-843h710z" />
    <glyph glyph-name="intersection" unicode="&#x2229;" horiz-adv-x="1338" 
d="M826 0v749q0 71 -45 125t-112 54t-112 -51t-45 -128v-749h-390v761q0 139 72.5 254.5t198 182t276.5 66.5t276.5 -66.5t197.5 -182t72 -254.5v-761h-389z" />
    <glyph glyph-name="integral" unicode="&#x222b;" horiz-adv-x="881" 
d="M251 -98v1304q0 178 110.5 274.5t336.5 96.5q77 0 142 -15v-272q-41 7 -101 7q-109 0 -109 -97v-1304q0 -177 -111 -274t-337 -97q-76 0 -141 15v272q46 -8 100 -8t82 25.5t28 72.5z" />
    <glyph glyph-name="approxequal" unicode="&#x2248;" horiz-adv-x="1206" 
d="M838 147q-126 0 -238 86q-32 24 -49 36.5t-40.5 23.5t-42.5 11q-58 0 -73 -108l-352 61q25 192 108 293.5t217 101.5q127 0 237 -86q88 -70 132 -70q58 0 73 108l352 -61q-25 -192 -107.5 -294t-216.5 -102zM838 668q-126 0 -238 86q-30 24 -48 36.5t-41.5 23t-42.5 10.5
q-58 0 -73 -108l-352 61q25 192 108 293.5t217 101.5q127 0 237 -86q88 -70 132 -70q58 0 73 108l352 -61q-25 -192 -107.5 -293.5t-216.5 -101.5z" />
    <glyph glyph-name="notequal" unicode="&#x2260;" horiz-adv-x="1206" 
d="M1090 286h-566l-141 -276l-193 100l92 176h-165v312h325l85 164h-410v312h571l129 250l192 -99l-78 -151h159v-312h-320l-85 -164h405v-312z" />
    <glyph glyph-name="equivalence" unicode="&#x2261;" horiz-adv-x="1206" 
d="M1090 530h-973v299h973v-299zM1090 153h-973v299h973v-299zM1090 908h-973v299h973v-299z" />
    <glyph glyph-name="lessequal" unicode="&#x2264;" horiz-adv-x="1206" 
d="M1090 0h-974v305h974v-305zM118 966l917 345l84 -229l-556 -243l556 -244l-84 -228l-917 344v255z" />
    <glyph glyph-name="greaterequal" unicode="&#x2265;" horiz-adv-x="1206" 
d="M1089 0h-973v305h973v-305zM171 1311l918 -345v-255l-918 -344l-84 228l556 244l-556 243z" />
    <glyph glyph-name="house" unicode="&#x2302;" horiz-adv-x="1338" 
d="M472 301h395v303l-197 215l-198 -215v-303zM1224 0h-1109v713l555 590l554 -590v-713z" />
    <glyph glyph-name="revlogicalnot" unicode="&#x2310;" horiz-adv-x="1206" 
d="M485 513v-293h-368v627h973v-334h-605z" />
    <glyph glyph-name="uni2318" unicode="&#x2318;" horiz-adv-x="1687" 
d="M535 934v107q0 42 -32 74.5t-74 32.5q-45 0 -74.5 -30.5t-29.5 -76.5t29.5 -76.5t74.5 -30.5h106zM926 579v164h-165v-164h165zM1153 1041v-107h104q46 0 76 30.5t30 76.5t-30 76.5t-76 30.5q-45 0 -74.5 -30.5t-29.5 -76.5zM535 281v107h-106q-45 0 -74.5 -30.5
t-29.5 -76.5t29.5 -76.5t74.5 -30.5q46 0 76 30.5t30 76.5zM535 587v148h-106q-145 0 -242.5 88t-97.5 218t97.5 218.5t242.5 88.5t242.5 -88.5t97.5 -218.5v-107h149v107q0 130 97 218.5t242 88.5t242.5 -88.5t97.5 -218.5q0 -131 -97.5 -218.5t-242.5 -87.5h-104v-148h104
q145 0 242.5 -87.5t97.5 -218.5q0 -130 -97.5 -218t-242.5 -88t-242 88t-97 218v107h-149v-107q0 -130 -97.5 -218t-242.5 -88t-242.5 88t-97.5 218t97.5 218t242.5 88h106zM1153 388v-107q0 -42 31 -74.5t73 -32.5q46 0 76 30.5t30 76.5t-30 76.5t-76 30.5h-104z" />
    <glyph glyph-name="lozenge" unicode="&#x25ca;" horiz-adv-x="1202" 
d="M1132 618l-531 -940l-530 940l530 941zM802 618l-201 391l-201 -391l201 -390z" />
    <glyph glyph-name="H18533" unicode="&#x25cf;" horiz-adv-x="2048" 
d="M332 668q0 187 93 346.5t252.5 252.5t346.5 93t346.5 -93t252.5 -252.5t93 -346.5t-93 -347t-252.5 -253t-346.5 -93t-346.5 93t-252.5 253t-93 347z" />
    <glyph glyph-name="commaaccent" horiz-adv-x="890" 
d="M426 -46l237 -193l-315 -311l-167 134z" />
    <glyph glyph-name="zero.tnum" horiz-adv-x="1174" 
d="M59 717q0 218 60.5 384t181 261.5t287.5 95.5q125 0 225.5 -55t166.5 -153.5t101 -234.5t35 -298q0 -163 -35 -299t-101 -234.5t-166.5 -153.5t-225.5 -55q-167 0 -287.5 95.5t-181 262t-60.5 384.5zM432 717q0 -188 40 -292t116 -104t115.5 104t39.5 292t-39.5 292
t-115.5 104t-116 -104t-40 -292z" />
    <glyph glyph-name="one.tnum" horiz-adv-x="1035" 
d="M450 1434h337v-1434h-389v1079l-218 -120l-137 253z" />
    <glyph glyph-name="two.tnum" horiz-adv-x="1095" 
d="M852 648l-287 -314h455v-334h-928v308l473 521q46 52 66.5 90.5t20.5 81.5q0 51 -31 84t-82 33q-52 0 -85.5 -37t-36.5 -106h-362q3 210 140 346.5t361 136.5q206 0 342 -115t136 -293q0 -202 -182 -402z" />
    <glyph glyph-name="three.tnum" horiz-adv-x="1145" 
d="M682 473q0 69 -48.5 117t-119.5 48q-39 0 -71 -15l-147 184l283 300h-450v327h877v-320l-265 -259q156 -45 245 -159.5t89 -270.5q0 -93 -36.5 -174.5t-102.5 -143t-166.5 -97t-221.5 -35.5q-143 0 -270.5 74.5t-220.5 216.5l177 184q128 -143 280 -143q67 0 117.5 49
t50.5 117z" />
    <glyph glyph-name="four.tnum" horiz-adv-x="1213" 
d="M53 241v306l585 887h351v-870h154v-323h-154v-241h-373v241h-563zM365 564h251v386z" />
    <glyph glyph-name="five.tnum" horiz-adv-x="1165" 
d="M578 1107q-2 -16 -24 -185q30 2 47 2q135 0 247.5 -57.5t179.5 -163t67 -237.5q0 -137 -63.5 -248t-184.5 -177t-279 -66q-160 0 -283.5 70t-224.5 209l173 188q147 -133 296 -133q71 0 123.5 49.5t52.5 119.5q0 72 -49 120.5t-122 48.5q-37 0 -71 -15t-55 -40l-281 37
l96 805h818v-327h-463z" />
    <glyph glyph-name="six.tnum" horiz-adv-x="1222" 
d="M1014 1434l-322 -494q89 -4 172 -41.5t146.5 -99t102 -147.5t38.5 -181q0 -139 -72.5 -253.5t-196 -178.5t-271.5 -64q-149 0 -273 64t-196 178.5t-72 253.5q0 144 71 254l463 709h410zM440 474q0 -75 49 -126t121 -51t121.5 51t49.5 126t-49.5 126t-121.5 51t-121 -51
t-49 -126z" />
    <glyph glyph-name="seven.tnum" horiz-adv-x="1036" 
d="M46 1434h954v-294l-465 -1140h-405l460 1099h-544v335z" />
    <glyph glyph-name="eight.tnum" horiz-adv-x="1202" 
d="M434 449q0 -72 49 -119.5t118 -47.5t118 47.5t49 119.5q0 73 -48.5 120t-118.5 47t-118.5 -47t-48.5 -120zM1073 1046q0 -86 -41.5 -160t-112.5 -114q100 -44 156.5 -139t56.5 -202q0 -127 -69.5 -231.5t-191.5 -164.5t-270 -60t-270 60t-191 164.5t-69 231.5
q0 107 56.5 202t156.5 139q-71 40 -113 114t-42 160q0 174 135 293t337 119t337 -119t135 -293zM475 1033q0 -53 35.5 -89t90.5 -36t90.5 36t35.5 89t-35.5 89t-90.5 36t-90.5 -36t-35.5 -89z" />
    <glyph glyph-name="nine.tnum" horiz-adv-x="1222" 
d="M208 1l321 494q-119 5 -223.5 66.5t-169.5 169t-65 233.5q0 139 72 253t195.5 178t271.5 64q227 0 384.5 -142t157.5 -353q0 -142 -72 -254l-463 -709h-409zM781 961q0 75 -49 126t-121 51t-121.5 -51t-49.5 -126q0 -76 49.5 -127t121.5 -51t121 51.5t49 126.5z" />
    <glyph glyph-name="parenleft.case" horiz-adv-x="906" 
d="M194 717q0 275 106.5 527.5t294.5 431.5l259 -171q-131 -159 -200.5 -362t-69.5 -426t69.5 -427t200.5 -363l-259 -171q-188 179 -294.5 432t-106.5 529z" />
    <glyph glyph-name="parenright.case" horiz-adv-x="906" 
d="M713 717q0 -276 -107 -529t-295 -432l-258 171q130 159 200 363t70 427q0 222 -69.5 425.5t-200.5 362.5l258 171q188 -179 295 -431.5t107 -527.5z" />
    <glyph glyph-name="hyphen.case" horiz-adv-x="880" 
d="M764 560h-647v338h647v-338z" />
    <glyph glyph-name="at.case" horiz-adv-x="1995" 
d="M506 730q0 193 109.5 323t279.5 130q141 0 235 -101v80h318v-540q0 -43 26.5 -66.5t61.5 -23.5q64 0 109.5 72t45.5 186q0 126 -55.5 244t-148.5 205.5t-223 140t-271 52.5q-190 0 -348 -91t-249.5 -249.5t-91.5 -348.5q0 -143 54 -270.5t147.5 -219t227.5 -145
t287 -53.5q263 0 484 151l95 -186q-260 -172 -579 -172q-203 0 -381 69t-303.5 188.5t-198 285t-72.5 352.5q0 186 72.5 352.5t196.5 285t296 188t363 69.5q198 0 374 -69.5t298.5 -186.5t193.5 -273.5t71 -326.5q0 -229 -122.5 -365.5t-350.5 -136.5q-104 0 -179.5 35
t-114.5 98q-92 -135 -268 -135q-170 0 -279.5 129.5t-109.5 322.5zM825 730q0 -78 43.5 -128.5t108.5 -50.5q69 0 110.5 50t41.5 129t-41.5 129t-110.5 50q-65 0 -108.5 -50.5t-43.5 -128.5z" />
    <glyph glyph-name="bracketleft.case" horiz-adv-x="906" 
d="M185 -195v1823h688v-335h-298v-1153h298v-335h-688z" />
    <glyph glyph-name="bracketright.case" horiz-adv-x="906" 
d="M721 1628v-1823h-687v335h297v1153h-297v335h687z" />
    <glyph glyph-name="braceleft.case" horiz-adv-x="906" 
d="M108 549v336q83 0 132 45.5t49 123.5v227q0 148 106.5 247.5t267.5 99.5h210v-335h-78q-52 0 -84.5 -30.5t-32.5 -77.5v-233q0 -91 -46.5 -152t-133.5 -83q87 -22 133.5 -83.5t46.5 -152.5v-232q0 -47 32.5 -78t84.5 -31h78v-335h-210q-161 0 -267.5 100t-106.5 248v226
q0 79 -49 124.5t-132 45.5z" />
    <glyph glyph-name="braceright.case" horiz-adv-x="906" 
d="M799 885v-336q-84 0 -133 -45.5t-49 -124.5v-226q0 -149 -106 -248.5t-267 -99.5h-210v335h79q51 0 83 30.5t32 78.5v232q0 91 47.5 152t133.5 84q-87 23 -134 84t-47 151v233q0 47 -32 77.5t-83 30.5h-79v335h210q161 0 267 -99.5t106 -247.5v-227q0 -78 49.5 -123.5
t132.5 -45.5z" />
    <glyph glyph-name="exclamdown.case" horiz-adv-x="648" 
d="M129 0l48 974h294l48 -974h-390zM95 1252q0 87 66 146.5t163 59.5q98 0 163.5 -59.5t65.5 -146.5t-65.5 -146t-163.5 -59q-97 0 -163 59t-66 146z" />
    <glyph glyph-name="guillemotleft.case" horiz-adv-x="1334" 
d="M77 579v221l517 354l127 -173l-337 -292l337 -293l-127 -173zM633 579v221l517 354l127 -173l-337 -292l337 -293l-127 -173z" />
    <glyph glyph-name="periodcentered.case" horiz-adv-x="623" 
d="M94 725q0 88 61.5 147.5t155.5 59.5q95 0 156.5 -59.5t61.5 -147.5t-61.5 -147.5t-156.5 -59.5q-94 0 -155.5 59.5t-61.5 147.5z" />
    <glyph glyph-name="guillemotright.case" horiz-adv-x="1334" 
d="M1256 800v-221l-517 -356l-127 173l337 293l-337 292l127 173zM700 800v-221l-517 -356l-127 173l337 293l-337 292l127 173z" />
    <glyph glyph-name="questiondown.case" horiz-adv-x="1146" 
d="M422 974h389q0 -165 -56.5 -256t-211.5 -179q-45 -26 -61 -53.5t-16 -69.5q0 -35 28.5 -63t74.5 -28q62 0 99 41.5t37 107.5h373q0 -229 -144.5 -364t-373.5 -135q-107 0 -199 35.5t-154 95t-97 139t-35 166.5q0 127 62.5 219t202.5 170q46 27 64 65.5t18 108.5z
M828 1252q0 -87 -65.5 -146t-162.5 -59q-98 0 -163.5 59t-65.5 146t65.5 146.5t163.5 59.5q97 0 162.5 -59.5t65.5 -146.5z" />
    <glyph glyph-name="endash.case" horiz-adv-x="1024" 
d="M1024 560h-1024v338h1024v-338z" />
    <glyph glyph-name="emdash.case" horiz-adv-x="2048" 
d="M2048 560h-2048v338h2048v-338z" />
    <glyph glyph-name="bullet.case" horiz-adv-x="819" 
d="M93 729q0 132 92 223t225 91q132 0 224 -91t92 -223t-92 -223t-224 -91q-133 0 -225 91t-92 223z" />
    <glyph glyph-name="guilsinglleft.case" horiz-adv-x="779" 
d="M77 579v221l517 354l127 -173l-337 -292l337 -293l-127 -173z" />
    <glyph glyph-name="guilsinglright.case" horiz-adv-x="779" 
d="M700 800v-221l-517 -356l-127 173l337 293l-337 292l127 173z" />
    <glyph glyph-name="zero.numerator" 
d="M48 948q0 229 97.5 369.5t272.5 140.5q174 0 271 -140.5t97 -369.5t-97 -369.5t-271 -140.5q-175 0 -272.5 140.5t-97.5 369.5zM329 948q0 -122 22.5 -190t66.5 -68q43 0 65.5 68t22.5 190t-22.5 190t-65.5 68q-44 0 -66.5 -68t-22.5 -190z" />
    <glyph glyph-name="one.numerator" 
d="M375 1434h246v-971h-291v700l-139 -76l-102 192z" />
    <glyph glyph-name="two.numerator" 
d="M629 907l-183 -199h293v-245h-649v220l323 351q56 60 56 114q0 32 -19.5 52t-50.5 20q-32 0 -54 -26t-23 -71h-254q3 146 94.5 240.5t249.5 94.5q146 0 242 -78.5t96 -200.5q0 -142 -121 -272z" />
    <glyph glyph-name="three.numerator" 
d="M468 782q0 41 -28 70t-69 29q-22 0 -52 -15l-111 139l178 188h-287v241h616v-227l-169 -165q102 -35 159 -112t57 -180q0 -134 -101.5 -223t-253.5 -89q-206 0 -345 202l120 132q90 -90 189 -90q41 0 69 28.5t28 71.5z" />
    <glyph glyph-name="four.numerator" 
d="M30 621v208l401 605h255v-586h101v-227h-101v-158h-268v158h-388zM264 847h154v231z" />
    <glyph glyph-name="five.numerator" 
d="M425 1193l-13 -98q149 0 254 -89t105 -229q0 -147 -99.5 -243t-258.5 -96q-232 0 -376 197l138 138q93 -90 196 -90q45 0 76.5 30t31.5 72q0 43 -28.5 72t-69.5 29q-47 0 -76 -38l-213 28q21 165 67 558h576v-241h-310z" />
    <glyph glyph-name="six.numerator" 
d="M709 1434l-214 -330q126 -19 212 -106t86 -218q0 -146 -109 -244t-267 -98q-159 0 -268 97.5t-109 244.5q0 101 49 175l314 479h306zM317 782q0 -45 28.5 -75.5t70.5 -30.5t70.5 30.5t28.5 75.5t-29 76t-70 31t-70 -31t-29 -76z" />
    <glyph glyph-name="seven.numerator" 
d="M85 1434h669v-211l-312 -760h-305l304 724h-356v247z" />
    <glyph glyph-name="eight.numerator" 
d="M321 767q0 -44 28.5 -73t68.5 -29t68 29t28 73t-28 73t-68 29t-68.5 -29t-28.5 -73zM748 1169q0 -55 -25 -103.5t-69 -79.5q62 -34 97.5 -97.5t35.5 -132.5q0 -135 -105.5 -226.5t-263.5 -91.5t-264 91.5t-106 226.5q0 69 35 132.5t97 97.5q-43 31 -68 79.5t-25 103.5
q0 122 94.5 205.5t236.5 83.5q141 0 235.5 -83.5t94.5 -205.5zM346 1162q0 -31 20.5 -53t51.5 -22t50.5 22t19.5 53t-19.5 52t-50.5 21t-51.5 -21t-20.5 -52z" />
    <glyph glyph-name="nine.numerator" 
d="M125 463l214 329q-126 19 -211.5 105.5t-85.5 217.5q0 147 109 245t266 98q159 0 268 -98t109 -245q0 -99 -50 -175l-313 -477h-306zM517 1113q0 45 -28.5 76t-70.5 31t-71 -31t-29 -76t29 -75.5t71 -30.5q41 0 70 30.5t29 75.5z" />
    <glyph glyph-name="zero.denominator" 
d="M48 485q0 229 97.5 369.5t272.5 140.5q174 0 271 -140.5t97 -369.5t-97 -369.5t-271 -140.5q-175 0 -272.5 140.5t-97.5 369.5zM329 485q0 -122 22.5 -190t66.5 -68q43 0 65.5 68t22.5 190t-22.5 190t-65.5 68q-44 0 -66.5 -68t-22.5 -190z" />
    <glyph glyph-name="one.denominator" 
d="M375 971h246v-971h-291v700l-139 -75l-102 191z" />
    <glyph glyph-name="two.denominator" 
d="M629 444l-183 -199h293v-245h-649v220l323 351q56 60 56 114q0 32 -19.5 52t-50.5 20q-32 0 -54 -26t-23 -71h-254q3 146 94.5 240.5t249.5 94.5q146 0 242 -78.5t96 -200.5q0 -142 -121 -272z" />
    <glyph glyph-name="three.denominator" 
d="M468 319q0 41 -28 70t-69 29q-22 0 -52 -15l-111 139l178 188h-287v241h616v-227l-169 -164q102 -35 159 -112.5t57 -180.5q0 -134 -101.5 -223t-253.5 -89q-206 0 -345 202l120 132q90 -90 189 -90q41 0 69 28.5t28 71.5z" />
    <glyph glyph-name="four.denominator" 
d="M30 158v209l401 604h255v-586h101v-227h-101v-158h-268v158h-388zM264 384h154v231z" />
    <glyph glyph-name="five.denominator" 
d="M425 730l-13 -98q149 0 254 -89t105 -229q0 -147 -99.5 -243t-258.5 -96q-232 0 -376 197l138 138q93 -90 196 -90q45 0 76.5 30.5t31.5 72.5q0 43 -28.5 71.5t-69.5 28.5q-47 0 -76 -38l-213 28q21 165 67 558h576v-241h-310z" />
    <glyph glyph-name="six.denominator" 
d="M709 971l-214 -330q126 -19 212 -106t86 -218q0 -146 -109 -244t-267 -98q-159 0 -268 97.5t-109 244.5q0 102 49 176l314 478h306zM317 319q0 -45 28.5 -75.5t70.5 -30.5t70.5 30.5t28.5 75.5t-29 76t-70 31t-70 -31t-29 -76z" />
    <glyph glyph-name="seven.denominator" 
d="M85 971h669v-211l-312 -760h-305l304 724h-356v247z" />
    <glyph glyph-name="eight.denominator" 
d="M321 304q0 -44 28.5 -73t68.5 -29t68 29t28 73t-28 73.5t-68 29.5t-68.5 -29.5t-28.5 -73.5zM748 707q0 -55 -25 -104t-69 -80q62 -34 97.5 -97.5t35.5 -132.5q0 -135 -105.5 -226.5t-263.5 -91.5t-264 91.5t-106 226.5q0 69 35 132.5t97 97.5q-43 31 -68 80t-25 104
q0 122 94.5 205t236.5 83t236 -83t94 -205zM346 699q0 -31 20.5 -52.5t51.5 -21.5t50.5 21.5t19.5 52.5t-19.5 52t-50.5 21t-51.5 -21t-20.5 -52z" />
    <glyph glyph-name="nine.denominator" 
d="M125 0l214 329q-126 19 -211.5 105.5t-85.5 217.5q0 147 109 245t266 98q159 0 268 -98t109 -245q0 -99 -50 -175l-313 -477h-306zM517 650q0 45 -28.5 76t-70.5 31t-71 -31t-29 -76t29 -75.5t71 -30.5q41 0 70 30.5t29 75.5z" />
    <glyph glyph-name="dollar_osf" horiz-adv-x="1091" 
d="M69 229l140 177q143 -122 315 -122q55 0 85.5 19t30.5 52q0 36 -36.5 60t-124.5 43q-183 40 -283.5 143t-100.5 253q0 161 128.5 265.5t325.5 104.5q212 0 335.5 -112.5t146.5 -290.5h-344q-8 43 -38 68t-74 25q-42 0 -66.5 -18t-24.5 -47q0 -34 34.5 -57.5t125.5 -43.5
q198 -42 298.5 -143t100.5 -251q0 -165 -135.5 -272t-350.5 -107q-135 0 -261 64.5t-227 189.5zM709 1108h-336v273h336v-273zM393 82h336v-264h-336v264z" />
    <glyph glyph-name="zero_osf" horiz-adv-x="1031" 
d="M43 550q0 258 125 416t348 158q222 0 347 -158t125 -416t-125 -416.5t-347 -158.5q-148 0 -256 74t-162.5 203t-54.5 298zM403 550q0 -131 29.5 -203t83.5 -72t83 72t29 203q0 130 -29 202t-83 72t-83.5 -72t-29.5 -202z" />
    <glyph glyph-name="one_osf" horiz-adv-x="908" 
d="M416 1100h319v-1100h-381v758l-188 -93l-128 248z" />
    <glyph glyph-name="two_osf" horiz-adv-x="958" 
d="M760 483l-200 -189h339v-294h-836v262l412 389q68 65 68 111q0 28 -22.5 45t-59.5 17q-40 0 -66 -26t-29 -65h-341q3 171 130 281t315 110q189 0 315 -92.5t126 -234.5q0 -171 -151 -314z" />
    <glyph glyph-name="three_osf" horiz-adv-x="1030" 
d="M601 224q0 58 -40.5 97.5t-100.5 39.5q-36 0 -66 -16l-145 181l244 258h-390v316h810v-302l-228 -225q136 -45 213.5 -149t77.5 -242q0 -172 -137 -295t-332 -123q-142 0 -256.5 71t-192.5 202l164 169q61 -64 117 -91.5t125 -27.5q58 0 97.5 39.5t39.5 97.5z" />
    <glyph glyph-name="four_osf" horiz-adv-x="1089" 
d="M34 6v288l531 806h333v-784h138v-310h-138v-217h-357v217h-507zM344 316h197v304z" />
    <glyph glyph-name="five_osf" horiz-adv-x="1046" 
d="M526 784l-18 -146q12 2 26 2q124 0 228.5 -52.5t167 -150.5t62.5 -220q0 -194 -136 -323.5t-347 -129.5q-270 0 -453 256l176 180q60 -59 115 -85.5t126 -26.5q60 0 104 40.5t44 99.5q0 60 -41.5 100.5t-102.5 40.5q-67 0 -110 -52l-268 36l89 747h756v-316h-418z" />
    <glyph glyph-name="six_osf" horiz-adv-x="1099" 
d="M934 1313l-292 -448q172 -21 288.5 -136t116.5 -296q0 -128 -66.5 -233.5t-180.5 -165t-250 -59.5q-137 0 -251 59.5t-180.5 164.5t-66.5 234q0 131 67 235l422 645h393zM407 436q0 -64 41 -106t102 -42q60 0 101 42t41 106q0 63 -41 106t-101 43q-61 0 -102 -42.5
t-41 -106.5z" />
    <glyph glyph-name="seven_osf" horiz-adv-x="925" 
d="M27 1100h878v-278l-422 -1033h-386l413 987h-483v324z" />
    <glyph glyph-name="eight_osf" horiz-adv-x="1082" 
d="M401 414q0 -61 41 -101t99 -40q59 0 99.5 40t40.5 101t-40.5 100t-99.5 39q-58 0 -99 -39.5t-41 -99.5zM976 953q0 -75 -33.5 -141t-92.5 -106q85 -43 132 -128t47 -181q0 -179 -140 -300.5t-348 -121.5q-207 0 -347.5 121.5t-140.5 300.5q0 96 47 181t132 128
q-59 40 -93 106t-34 141q0 162 125 273t311 111q187 0 311 -111t124 -273zM438 942q0 -43 29.5 -73.5t73.5 -30.5q45 0 74 30.5t29 73.5q0 42 -29 72t-74 30q-44 0 -73.5 -30t-29.5 -72z" />
    <glyph glyph-name="nine_osf" horiz-adv-x="1099" 
d="M167 -211l290 444q-172 21 -288.5 136.5t-116.5 296.5q0 128 67 233.5t180.5 165t249.5 59.5q137 0 251 -59.5t180.5 -164.5t66.5 -234q0 -132 -67 -235l-420 -642h-393zM693 663q0 64 -41 106t-102 42t-102 -42t-41 -106q0 -63 41.5 -106t101.5 -43t101.5 43t41.5 106z
" />
    <glyph glyph-name="cent_osf" horiz-adv-x="1283" 
d="M1020 462l193 -144q-88 -170 -216.5 -256.5t-314.5 -86.5q-174 0 -320 82.5t-231 226.5t-85 317q0 174 81 317.5t224 226.5t317 83q239 0 388.5 -133.5t188.5 -357.5h-375q-20 72 -74 116.5t-128 44.5q-79 0 -138 -45t-86.5 -111t-27.5 -141q0 -55 18 -106.5t53.5 -94.5
t95 -69t134.5 -26q168 0 303 157zM835 1108h-336v275h336v-275zM519 82h336v-267h-336v267z" />
    </font>
</defs>
</svg>
