<?xml version="1.0" standalone="no"?>
<!DOCTYPE svg PUBLIC "-//W3C//DTD SVG 1.1//EN" "http://www.w3.org/Graphics/SVG/1.1/DTD/svg11.dtd" >
<svg xmlns="http://www.w3.org/2000/svg" xmlns:xlink="http://www.w3.org/1999/xlink" version="1.1">
<metadata>
Created by FontForge 20201107 at Tue Jan 23 19:03:46 2024
 By 
Copyright (c) 2017 by Hyun-Seung Lee. All rights reserved.
</metadata>
<defs>
<font id="CarosHeavy-Italic" horiz-adv-x="834" >
  <font-face 
    font-family="Caros Heavy"
    font-weight="800"
    font-style="italic"
    font-stretch="normal"
    units-per-em="2048"
    panose-1="2 11 9 3 3 3 2 2 2 4"
    ascent="1638"
    descent="-410"
    x-height="1061"
    cap-height="1434"
    bbox="-929 -562 2550.94 2093"
    underline-thickness="49"
    underline-position="-423"
    slope="-11"
    unicode-range="U+0009-FB04"
  />
<missing-glyph horiz-adv-x="1024" 
d="M932 0h-840v1536h840v-1536zM394 287h236v962h-236v-962z" />
    <glyph glyph-name="ff" unicode="ff" horiz-adv-x="1588" 
d="M1733 1481l-54 -272q-50 8 -99 8q-54 0 -87 -26t-41 -73l-11 -57h210l-64 -325h-210l-142 -736h-378l142 736h-399l-142 -736h-378l142 736h-153l63 325h154l12 63q35 181 155.5 276t318.5 95q151 0 255 -37l-87 -265q-82 24 -137 24q-54 0 -87 -26t-41 -73l-11 -57h399
l12 63q35 181 155 276t316 95q100 0 187 -14z" />
    <glyph glyph-name="fi" unicode="fi" horiz-adv-x="1455" 
d="M1440 1061l-206 -1061h-378l142 735h-398l-142 -735h-379l142 735h-153l63 326h154l12 63q35 180 155.5 275.5t316.5 95.5q140 0 246 -36q-25 -88 -79 -264q-67 20 -132 20q-55 0 -88 -25.5t-41 -71.5l-11 -57h776zM1093 1332q17 84 88 140.5t161 56.5q89 0 138.5 -56.5
t32.5 -140.5q-16 -84 -87 -140t-160 -56q-90 0 -139.5 56t-33.5 140z" />
    <glyph glyph-name="fl" unicode="fl" horiz-adv-x="1422" 
d="M913 1061l-63 -326h-250l-142 -735h-379l142 735h-161l64 326h161l12 63q35 180 155.5 274t316.5 94q203 0 324 -106l20 109h379l-290 -1495h-379l220 1135q-94 80 -240 80q-54 0 -87 -25.5t-41 -71.5l-11 -57h249z" />
    <glyph glyph-name="ffi" unicode="ffi" horiz-adv-x="2231" 
d="M1735 1480l-53 -272q-45 7 -101 7q-55 0 -88 -25.5t-41 -71.5l-11 -57h775l-206 -1061h-378l143 735h-398l-142 -735h-379l142 735h-398l-142 -735h-379l142 735h-153l63 326h154l12 63q35 180 156 275.5t319 95.5q137 0 255 -37l-88 -265q-73 22 -136 22
q-54 0 -87 -25.5t-41 -71.5l-11 -57h398l12 63q35 180 155.5 275.5t316.5 95.5q106 0 189 -15zM1870 1332q17 84 88.5 140.5t160.5 56.5t138.5 -56.5t32.5 -140.5q-16 -84 -87.5 -140t-160.5 -56t-138.5 56t-33.5 140z" />
    <glyph glyph-name="ffl" unicode="ffl" horiz-adv-x="2199" 
d="M1657 1061l-64 -326h-216l-142 -735h-379l142 735h-398l-142 -735h-379l142 735h-153l63 326h154l12 63q71 368 493 368q154 0 266 -49l-95 -257q-78 29 -158 29q-54 0 -87 -25.5t-41 -71.5l-11 -57h398l12 63q35 180 155.5 274t316.5 94q92 0 178.5 -27t145.5 -79
l20 109h379l-290 -1495h-378l220 1135q-95 80 -241 80q-54 0 -87 -25.5t-41 -71.5l-11 -57h216z" />
    <glyph glyph-name=".notdef" horiz-adv-x="1024" 
d="M932 0h-840v1536h840v-1536zM394 287h236v962h-236v-962z" />
    <glyph glyph-name=".null" horiz-adv-x="0" 
 />
    <glyph glyph-name=".null" horiz-adv-x="0" 
 />
    <glyph glyph-name="nonmarkingreturn" horiz-adv-x="682" 
 />
    <glyph glyph-name="CR" unicode="&#x9;" horiz-adv-x="0" 
 />
    <glyph glyph-name="space" unicode=" " horiz-adv-x="623" 
 />
    <glyph glyph-name="exclam" unicode="!" horiz-adv-x="648" 
d="M164 460l141 974h390l-237 -974h-294zM28 181q17 87 94 146.5t174 59.5q98 0 152 -59.5t37 -146.5t-94 -146.5t-175 -59.5q-97 0 -151 59.5t-37 146.5z" />
    <glyph glyph-name="quotedbl" unicode="&#x22;" horiz-adv-x="1020" 
d="M237 936l49 498h358l-145 -498h-262zM680 936l49 498h358l-145 -498h-262z" />
    <glyph glyph-name="numbersign" unicode="#" horiz-adv-x="1434" 
d="M1457 1434l-107 -295h144l-56 -288h-194l-102 -278h166l-56 -287h-215l-104 -286h-350l104 286h-181l-104 -286h-351l105 286h-145l56 287h193l102 278h-165l56 288h215l107 295h352l-109 -295h180l109 295h350zM713 851l-103 -278h181l103 278h-181z" />
    <glyph glyph-name="dollar" unicode="$" horiz-adv-x="1234" 
d="M50 278l190 176q75 -81 154 -119.5t178 -38.5q75 0 127.5 33t62.5 84q11 56 -33.5 93.5t-180.5 68.5q-189 43 -282.5 157.5t-61.5 280.5q28 149 135.5 261t263.5 158l41 210h377l-41 -210q141 -45 211 -156.5t45 -273.5h-372q7 66 -22 104t-90 38q-60 0 -102 -28.5
t-50 -71.5q-10 -52 30 -92t156 -68q437 -105 371 -447q-31 -156 -147.5 -274t-286.5 -163l-41 -209h-377l42 215q-184 66 -297 272z" />
    <glyph glyph-name="percent" unicode="%" horiz-adv-x="1895" 
d="M380 52l1019 1434l181 -113l-1017 -1433zM477 1075q-8 -44 15.5 -74t69.5 -30t82 30t44 74q8 45 -15.5 75.5t-69.5 30.5t-82 -30.5t-44 -75.5zM189 1075q30 157 164 265t301 108t259.5 -108t62.5 -265q-31 -156 -165 -264t-301 -108t-259.5 108t-61.5 264zM1281 358
q-9 -45 15 -75t70 -30t81.5 30t44.5 75q8 44 -16 74.5t-70 30.5t-81.5 -30.5t-43.5 -74.5zM993 358q30 156 164 264t301 108t259.5 -108t62.5 -264q-31 -157 -165 -264.5t-301 -107.5t-259.5 107.5t-61.5 264.5z" />
    <glyph glyph-name="ampersand" unicode="&#x26;" horiz-adv-x="1538" 
d="M1219 1060l-355 -1q-1 54 -25.5 84.5t-71.5 30.5q-36 0 -64 -23t-34 -57q-16 -90 115 -251l212 -257q44 78 84 190l334 -48q-73 -224 -212 -399l135 -165l-271 -219l-126 152q-200 -122 -424 -122q-228 0 -357.5 114t-96.5 285q49 247 323 414q-59 88 -75.5 157t-1.5 146
q30 156 177.5 261.5t334.5 105.5q197 0 306.5 -111.5t92.5 -286.5zM571 263q100 0 189 58l-203 246q-107 -77 -125 -170q-11 -58 27.5 -96t111.5 -38z" />
    <glyph glyph-name="quotesingle" unicode="'" horiz-adv-x="608" 
d="M252 936l50 498h357l-144 -498h-263z" />
    <glyph glyph-name="parenleft" unicode="(" horiz-adv-x="906" 
d="M212 625q54 275 209.5 527.5t378.5 431.5l226 -171q-162 -159 -271.5 -362.5t-152.5 -425.5t-13 -427t130 -363l-292 -171q-154 179 -211.5 432t-3.5 529z" />
    <glyph glyph-name="parenright" unicode=")" horiz-adv-x="906" 
d="M731 625q-54 -276 -209.5 -529t-378.5 -432l-225 171q161 159 270.5 363.5t152.5 426.5t13 425.5t-129 362.5l291 171q154 -179 211.5 -431.5t3.5 -527.5z" />
    <glyph glyph-name="asterisk" unicode="*" horiz-adv-x="1165" 
d="M874 679l206 -97l-208 -277l-172 140l-21 -242h-321l73 242l-227 -140l-100 277l243 97l-205 97l207 277l173 -141l22 243h320l-72 -243l226 141l100 -277z" />
    <glyph glyph-name="plus" unicode="+" horiz-adv-x="1206" 
d="M353 199l62 314h-302l64 333h302l62 313h369l-61 -313h302l-65 -333h-302l-61 -314h-370z" />
    <glyph glyph-name="comma" unicode="," horiz-adv-x="623" 
d="M31 200q14 72 86.5 130.5t171.5 58.5q92 0 141 -61t30 -159q-32 -165 -165 -306.5t-355 -212.5l-52 117q94 51 145.5 91t67.5 77t5.5 70t-46.5 75q-42 48 -29 120z" />
    <glyph glyph-name="hyphen" unicode="-" horiz-adv-x="880" 
d="M760 511h-647l66 338h647z" />
    <glyph glyph-name="period" unicode="." horiz-adv-x="623" 
d="M27 182q17 88 90 147.5t167 59.5q95 0 145 -59.5t33 -147.5t-90 -147.5t-168 -59.5q-94 0 -144 59.5t-33 147.5z" />
    <glyph glyph-name="slash" unicode="/" horiz-adv-x="1047" 
d="M1222 1471l-1053 -1822l-305 129l1056 1823z" />
    <glyph glyph-name="zero" unicode="0" horiz-adv-x="1247" 
d="M132 717q42 218 134.5 384t231.5 261.5t306 95.5q125 0 215.5 -55t136 -153.5t56.5 -234.5t-23 -298q-43 -218 -135.5 -384.5t-232 -262t-305.5 -95.5q-126 0 -216 55t-135.5 153.5t-56 235t23.5 298.5zM505 717q-37 -185 -17.5 -290.5t95.5 -105.5t136 104t97 292
q36 185 16.5 290.5t-95.5 105.5t-136 -104t-96 -292z" />
    <glyph glyph-name="one" unicode="1" horiz-adv-x="1247" 
d="M730 1434h338l-278 -1434h-390l209 1079l-240 -120l-88 253z" />
    <glyph glyph-name="two" unicode="2" horiz-adv-x="1247" 
d="M961 648l-349 -314h455l-65 -334h-927l59 308l575 521q56 51 83.5 90t36.5 82q9 52 -16 84.5t-75 32.5q-52 0 -92.5 -37t-56.5 -106h-362q44 210 207 346.5t387 136.5q206 0 320 -115t80 -293q-40 -202 -260 -402z" />
    <glyph glyph-name="three" unicode="3" horiz-adv-x="1247" 
d="M716 473q14 69 -25 117t-110 48q-41 0 -74 -15l-112 184l341 300h-449l63 327h877l-63 -320l-314 -259q147 -45 214 -159.5t36 -270.5q-37 -192 -205.5 -321t-409.5 -129q-143 0 -256 74.5t-178 216.5l213 184q100 -143 252 -143q67 0 127 49t73 117z" />
    <glyph glyph-name="four" unicode="4" horiz-adv-x="1247" 
d="M9 241l60 306l757 887h352l-169 -870h153l-63 -323h-154l-46 -241h-373l46 241h-563zM384 564h252l75 386z" />
    <glyph glyph-name="five" unicode="5" horiz-adv-x="1247" 
d="M728 1107q-12 -40 -60 -185q32 2 48 2q206 0 324 -129.5t80 -328.5q-41 -211 -212 -351t-409 -140q-161 0 -271 70t-183 209l209 188q122 -133 270 -133q71 0 133 49.5t75 119.5q14 72 -25.5 120.5t-112.5 48.5q-79 0 -136 -55l-274 37l253 805h818l-63 -327h-464z" />
    <glyph glyph-name="six" unicode="6" horiz-adv-x="1247" 
d="M1202 1434l-418 -494q88 -4 164 -41.5t127.5 -99t73 -147.5t3.5 -181q-41 -211 -225.5 -353.5t-410.5 -142.5q-111 0 -204 38t-152.5 103.5t-84 157.5t-4.5 197q26 142 120 254l602 709h409zM441 474q-14 -75 25.5 -126t111.5 -51t131 51t73 126q15 75 -24.5 126
t-111.5 51t-131 -51t-74 -126z" />
    <glyph glyph-name="seven" unicode="7" horiz-adv-x="1247" 
d="M330 1434h954l-57 -294l-687 -1140h-405l673 1099h-544z" />
    <glyph glyph-name="eight" unicode="8" horiz-adv-x="1247" 
d="M441 449q-14 -72 25.5 -119.5t108.5 -47.5q70 0 128 47.5t72 119.5q13 73 -26 120t-108 47q-70 0 -128.5 -47t-71.5 -120zM1196 1046q-17 -86 -73.5 -160t-134.5 -114q92 -44 130.5 -139t16.5 -202q-38 -194 -215.5 -325t-403.5 -131q-148 0 -258.5 60t-159.5 164.5
t-24 231.5q22 108 97 202.5t182 138.5q-64 40 -91 114t-10 160q34 174 192 293t360 119t314 -119t78 -293zM596 1033q-10 -53 18 -89t83 -36t98 36.5t53 88.5q10 53 -19 89t-84 36t-97 -36t-52 -89z" />
    <glyph glyph-name="nine" unicode="9" horiz-adv-x="1247" 
d="M118 1l417 494q-88 4 -164 41.5t-127.5 99t-73 147.5t-3.5 181q41 211 225.5 353t410.5 142q149 0 260.5 -64t161.5 -178t23 -253q-26 -140 -121 -254l-600 -709h-409zM878 961q14 75 -25.5 126t-111.5 51t-131 -51t-73 -126q-14 -76 25 -127t111 -51t131.5 51.5
t73.5 126.5z" />
    <glyph glyph-name="colon" unicode=":" horiz-adv-x="623" 
d="M27 182q17 88 90 147.5t167 59.5q95 0 145 -59.5t33 -147.5t-90 -147.5t-168 -59.5q-94 0 -144 59.5t-33 147.5zM162 879q17 88 90.5 147t167.5 59q95 0 144.5 -59t32.5 -147t-90 -147.5t-168 -59.5q-94 0 -144 59.5t-33 147.5z" />
    <glyph glyph-name="semicolon" unicode=";" horiz-adv-x="623" 
d="M162 879q17 88 90.5 147t167.5 59q95 0 144.5 -59t32.5 -147t-90 -147.5t-168 -59.5q-94 0 -144 59.5t-33 147.5zM31 200q14 72 86.5 130.5t171.5 58.5q92 0 141.5 -61t30.5 -159q-32 -165 -165 -306.5t-356 -212.5l-51 117q94 51 145.5 91t67 77t5 70t-46.5 75
q-42 48 -29 120z" />
    <glyph glyph-name="less" unicode="&#x3c;" horiz-adv-x="1205" 
d="M162 790l949 474l94 -241l-591 -344l457 -343l-187 -242l-765 474z" />
    <glyph glyph-name="equal" unicode="=" horiz-adv-x="1206" 
d="M1135 761h-973l63 326h973zM1039 271h-972l63 328h973z" />
    <glyph glyph-name="greater" unicode="&#x3e;" horiz-adv-x="1205" 
d="M378 1264l765 -474l-43 -222l-949 -474l-94 242l590 343l-456 344z" />
    <glyph glyph-name="question" unicode="?" horiz-adv-x="1146" 
d="M718 460h-390q32 164 106.5 255t246.5 180q50 26 71 53t30 70q6 35 -17.5 63t-68.5 28q-62 0 -107.5 -42t-57.5 -108h-372q44 229 214 364t399 135q214 0 326 -127.5t77 -307.5q-26 -131 -104.5 -220.5t-236.5 -168.5q-52 -27 -77.5 -65.5t-38.5 -108.5zM257 181
q17 87 94 146.5t174 59.5q98 0 152 -59.5t37 -146.5t-94 -146.5t-175 -59.5q-97 0 -151 59.5t-37 146.5z" />
    <glyph glyph-name="at" unicode="@" horiz-adv-x="1995" 
d="M510 550q37 193 172 322.5t305 129.5q141 0 216 -100l16 80h317l-105 -541q-8 -43 13.5 -66t56.5 -23q64 0 123.5 71.5t81.5 185.5q25 126 -7.5 244t-108.5 205.5t-195.5 140t-260.5 52.5q-190 0 -366 -91t-298.5 -249t-159.5 -348q-37 -192 24 -349t208 -248t351 -91
q263 0 513 151l59 -186q-292 -172 -612 -172q-203 0 -367.5 69t-267 188.5t-143 285t-4.5 352.5q36 186 141 352.5t252.5 285t333 188t376.5 69.5q198 0 360.5 -69.5t262.5 -186.5t140.5 -273.5t7.5 -326.5q-45 -229 -194.5 -366t-377.5 -137q-103 0 -171.5 35t-95.5 98
q-120 -135 -295 -135q-170 0 -254.5 130t-46.5 323zM829 550q-15 -78 18.5 -128.5t98.5 -50.5q70 0 121.5 50t66.5 129t-16.5 129t-101.5 50q-66 0 -119 -50.5t-68 -128.5z" />
    <glyph glyph-name="A" unicode="A" horiz-adv-x="1430" 
d="M679 1434h424l204 -1434h-401l-26 274h-429l-133 -274h-400zM812 1030l-222 -460h266z" />
    <glyph glyph-name="B" unicode="B" horiz-adv-x="1294" 
d="M672 0h-631l278 1434h571q200 0 301.5 -108.5t68.5 -281.5q-20 -101 -85.5 -180t-156.5 -113q107 -31 158 -119.5t27 -212.5q-35 -182 -184.5 -300.5t-346.5 -118.5zM901 1001q11 59 -16 93.5t-82 34.5h-168l-49 -255h168q55 0 95.5 34.5t51.5 92.5zM826 442
q12 62 -17 101t-88 39h-193l-54 -278h193q59 0 103.5 38.5t55.5 99.5z" />
    <glyph glyph-name="C" unicode="C" horiz-adv-x="1550" 
d="M717 -25q-158 0 -286.5 57.5t-209 156.5t-111.5 236.5t-1 291.5q41 210 165.5 379t311 265.5t398.5 96.5q256 0 410.5 -142.5t158.5 -396.5h-411q-6 93 -64.5 147.5t-151.5 54.5q-157 0 -274.5 -114t-151.5 -290q-34 -174 47.5 -290t242.5 -116q132 0 243.5 54.5
t220.5 169.5l179 -157q-144 -189 -324 -296t-392 -107z" />
    <glyph glyph-name="D" unicode="D" horiz-adv-x="1484" 
d="M591 0h-550l278 1434h550q158 0 282 -52.5t198.5 -147t103.5 -226.5t-4 -291q-41 -211 -163 -374t-303 -253t-392 -90zM495 336h130q166 0 281.5 100t151.5 281q35 180 -42 280t-243 100h-130z" />
    <glyph glyph-name="E" unicode="E" horiz-adv-x="1185" 
d="M41 0l278 1434h934l-63 -326h-544l-44 -227h495l-63 -320h-494l-46 -235h562l-63 -326h-952z" />
    <glyph glyph-name="F" unicode="F" horiz-adv-x="1116" 
d="M41 0l278 1434h914l-65 -332h-523l-51 -261h474l-64 -332h-475l-98 -509h-390z" />
    <glyph glyph-name="G" unicode="G" horiz-adv-x="1569" 
d="M824 780h722l-12 -63q-44 -227 -163.5 -396t-293 -257.5t-379.5 -88.5q-147 0 -271 58t-204 156.5t-111.5 236.5t-1.5 291q30 154 113 291.5t199.5 236t263.5 156t300 57.5q124 0 224.5 -31.5t177.5 -95t122 -166t51 -236.5h-415q-27 193 -231 193q-139 0 -260 -114.5
t-155 -290.5q-34 -175 42.5 -290.5t228.5 -115.5q107 0 192.5 55t132.5 148h-324z" />
    <glyph glyph-name="H" unicode="H" horiz-adv-x="1463" 
d="M41 0l278 1434h391l-107 -545h396l107 545h389l-278 -1434h-390l107 553h-396l-107 -553h-390z" />
    <glyph glyph-name="I" unicode="I" horiz-adv-x="681" 
d="M712 1434l-279 -1434h-390l279 1434h390z" />
    <glyph glyph-name="J" unicode="J" horiz-adv-x="965" 
d="M438 487l185 947h389l-191 -977q-30 -158 -110.5 -269t-186 -162t-228.5 -51q-221 0 -362 135l148 252q80 -51 166 -51q71 0 122.5 46.5t67.5 129.5z" />
    <glyph glyph-name="K" unicode="K" horiz-adv-x="1317" 
d="M1044 1434h390q-106 -540 -386 -732l208 -702h-415l-169 585h-128l-113 -585h-390l278 1434h391l-101 -513h50q147 0 239 119t146 394z" />
    <glyph glyph-name="L" unicode="L" horiz-adv-x="1080" 
d="M41 0l278 1434h391l-214 -1099h521l-65 -335h-911z" />
    <glyph glyph-name="M" unicode="M" horiz-adv-x="1842" 
d="M972 223h-220l-187 637l-167 -860h-357l278 1434h407l221 -774l521 774h407l-279 -1434h-356l167 860z" />
    <glyph glyph-name="N" unicode="N" horiz-adv-x="1463" 
d="M41 0l278 1434h419l230 -876l171 876h356l-278 -1434h-418l-231 876l-170 -876h-357z" />
    <glyph glyph-name="O" unicode="O" horiz-adv-x="1703" 
d="M500 717q-34 -173 55 -289.5t255 -116.5t300 116.5t168 289.5q33 173 -55.5 289t-254.5 116t-300.5 -116t-167.5 -289zM110 717q40 206 175 376t332.5 267.5t414.5 97.5t377 -97.5t229.5 -267.5t29.5 -376q-30 -154 -117 -291.5t-210 -236.5t-278.5 -156.5t-318.5 -57.5
t-296.5 57.5t-217.5 156.5t-117 236.5t-3 291.5z" />
    <glyph glyph-name="P" unicode="P" horiz-adv-x="1257" 
d="M683 458h-165l-88 -458h-389l278 1434h554q222 0 339.5 -138.5t76.5 -350.5q-41 -211 -212 -349t-394 -138zM578 760h114q73 0 137 54t79 131q17 84 -22.5 135.5t-121.5 51.5h-115z" />
    <glyph glyph-name="Q" unicode="Q" horiz-adv-x="1703" 
d="M110 717q40 206 175 376t332.5 267.5t414.5 97.5t377 -97.5t229.5 -267.5t29.5 -376q-52 -262 -255 -464l145 -204l-332 -240l-162 224q-158 -58 -320 -58q-163 0 -296.5 57.5t-217.5 156.5t-117 236.5t-3 291.5zM500 717q-34 -173 55 -289.5t255 -116.5t300 116.5
t168 289.5q33 173 -55.5 289t-254.5 116t-300.5 -116t-167.5 -289z" />
    <glyph glyph-name="R" unicode="R" horiz-adv-x="1298" 
d="M575 488h-57l-94 -488h-383l278 1434h554q223 0 341 -131.5t78 -341.5q-27 -140 -116 -247.5t-219 -164.5l192 -549h-421zM572 769h124q70 0 134 52.5t79 128.5q15 82 -24 132t-118 50h-124z" />
    <glyph glyph-name="S" unicode="S" horiz-adv-x="1234" 
d="M50 278l190 176q75 -81 154 -119.5t178 -38.5q75 0 127.5 33t62.5 84q11 56 -33.5 93.5t-180.5 68.5q-189 43 -282.5 157.5t-61.5 280.5q37 194 201.5 319.5t389.5 125.5q147 0 253.5 -53t157.5 -157.5t30 -245.5h-372q7 66 -22 104t-90 38q-60 0 -102 -28.5t-50 -71.5
q-10 -52 30 -92t156 -68q437 -105 371 -447q-39 -199 -211 -330.5t-412 -131.5q-317 0 -484 303z" />
    <glyph glyph-name="T" unicode="T" horiz-adv-x="1149" 
d="M278 0l212 1099h-333l65 335h1058l-66 -335h-333l-213 -1099h-390z" />
    <glyph glyph-name="U" unicode="U" horiz-adv-x="1383" 
d="M695 1434l-186 -955q-13 -73 26.5 -119.5t113.5 -46.5t132 46.5t71 119.5l186 955h390l-189 -973q-26 -136 -122.5 -247.5t-237.5 -174t-295 -62.5q-236 0 -371.5 138.5t-95.5 345.5l189 973h389z" />
    <glyph glyph-name="V" unicode="V" horiz-adv-x="1430" 
d="M824 0h-424l-203 1434h399l100 -999l490 999h399z" />
    <glyph glyph-name="W" unicode="W" horiz-adv-x="2042" 
d="M1002 1434h392l26 -926l378 926h401l-656 -1434h-399l-48 909l-402 -909h-399l-98 1434h400l17 -926z" />
    <glyph glyph-name="X" unicode="X" horiz-adv-x="1348" 
d="M641 1434l124 -436l294 436h424l-519 -698l266 -736h-424l-143 474l-326 -474h-425l552 736l-247 698h424z" />
    <glyph glyph-name="Y" unicode="Y" horiz-adv-x="1358" 
d="M620 1434l135 -519l337 519h422l-634 -877l-108 -557h-390l107 557l-292 877h423z" />
    <glyph glyph-name="Z" unicode="Z" horiz-adv-x="1261" 
d="M57 304l742 795h-556l65 335h1018l-59 -305l-742 -794h608l-65 -335h-1069z" />
    <glyph glyph-name="bracketleft" unicode="[" horiz-adv-x="906" 
d="M27 -287l354 1823h688l-64 -335h-298l-225 -1153h298l-65 -335h-688z" />
    <glyph glyph-name="backslash" unicode="\" horiz-adv-x="1047" 
d="M538 -351l-345 1822l352 130l347 -1823z" />
    <glyph glyph-name="bracketright" unicode="]" horiz-adv-x="906" 
d="M916 1536l-354 -1823h-686l65 335h297l224 1153h-297l64 335h687z" />
    <glyph glyph-name="asciicircum" unicode="^" horiz-adv-x="1288" 
d="M665 1450h317l223 -487l-210 -142l-231 327l-358 -327l-155 142z" />
    <glyph glyph-name="underscore" unicode="_" horiz-adv-x="1024" 
d="M-187 -439l63 327h1023l-63 -327h-1023z" />
    <glyph glyph-name="grave" unicode="`" horiz-adv-x="890" 
d="M595 1087l-254 311l273 192l173 -369z" />
    <glyph glyph-name="a" unicode="a" horiz-adv-x="1353" 
d="M57 530q30 155 116 281.5t211.5 200t265.5 73.5q190 0 295 -132l22 108h368l-206 -1061h-368l20 108q-157 -133 -347 -133q-140 0 -237 73.5t-133.5 200t-6.5 281.5zM429 530q-19 -96 31.5 -161t141.5 -65t166.5 65t94.5 161t-31.5 161.5t-141.5 65.5t-166.5 -65.5
t-94.5 -161.5z" />
    <glyph glyph-name="b" unicode="b" horiz-adv-x="1353" 
d="M1296 530q-46 -237 -212.5 -396t-378.5 -159q-192 0 -296 133l-21 -108h-369l290 1495h369l-106 -542q154 132 349 132q140 0 236.5 -73.5t132.5 -200t6 -281.5zM925 530q19 96 -31 161.5t-141 65.5q-92 0 -168 -65.5t-95 -161.5t32 -161t143 -65q91 0 166 65t94 161z
" />
    <glyph glyph-name="c" unicode="c" horiz-adv-x="1208" 
d="M937 444l147 -144q-231 -325 -559 -325q-117 0 -215 43t-161 117t-88.5 177t-3.5 218q30 154 128 281.5t241.5 200.5t301.5 73q212 0 331.5 -119t115.5 -315h-376q-17 106 -135 106q-79 0 -147.5 -66t-87.5 -161q-19 -99 30.5 -162.5t160.5 -63.5q168 0 317 140z" />
    <glyph glyph-name="d" unicode="d" horiz-adv-x="1353" 
d="M57 530q30 155 116 281.5t211.5 200t265.5 73.5q190 0 295 -132l106 542h368l-290 -1495h-368l20 108q-157 -133 -347 -133q-140 0 -237 73.5t-133.5 200t-6.5 281.5zM429 530q-19 -96 31.5 -161t141.5 -65t166.5 65t94.5 161t-31.5 161.5t-141.5 65.5t-166.5 -65.5
t-94.5 -161.5z" />
    <glyph glyph-name="e" unicode="e" horiz-adv-x="1268" 
d="M416 431q-2 -90 53 -137t163 -47q197 0 358 115l105 -169q-237 -218 -525 -218q-182 0 -310 73.5t-180.5 200t-22.5 281.5q30 154 132 281.5t251.5 200.5t312.5 73q120 0 217 -42t157.5 -114.5t83.5 -172t2 -210.5q-11 -61 -39 -115h-758zM693 814q-78 0 -138 -43
t-94 -124h393q1 82 -40 124.5t-121 42.5z" />
    <glyph glyph-name="f" unicode="f" horiz-adv-x="812" 
d="M955 1481l-53 -272q-50 8 -99 8q-54 0 -87 -26t-41 -73l-11 -57h209l-63 -325h-210l-142 -736h-378l142 736h-161l64 325h161l12 63q35 181 155 276t316 95q99 0 186 -14z" />
    <glyph glyph-name="g" unicode="g" horiz-adv-x="1353" 
d="M57 530q30 155 116 281.5t211.5 200t265.5 73.5q190 0 295 -132l22 108h368l-192 -988q-50 -259 -233.5 -403.5t-447.5 -144.5q-306 0 -479 232l171 190q72 -65 142.5 -93.5t162.5 -28.5q121 0 205.5 60t105.5 165l14 76q-156 -130 -346 -130q-139 0 -236.5 72.5
t-135 194.5t-9.5 267zM429 530q-19 -96 31.5 -161t141.5 -65t166.5 65t94.5 161t-31.5 161.5t-141.5 65.5t-166.5 -65.5t-94.5 -161.5z" />
    <glyph glyph-name="h" unicode="h" horiz-adv-x="1267" 
d="M508 570l-111 -570h-379l290 1495h379l-104 -539q131 129 309 129q165 0 251.5 -113.5t51.5 -295.5l-131 -676h-379l116 600q14 71 -15.5 113.5t-94.5 42.5q-64 0 -114.5 -46.5t-68.5 -139.5z" />
    <glyph glyph-name="i" unicode="i" horiz-adv-x="614" 
d="M15 0l206 1061h379l-206 -1061h-379zM253 1332q17 84 88.5 140.5t160.5 56.5t138.5 -56.5t32.5 -140.5q-17 -83 -88 -139.5t-160 -56.5t-138.5 56.5t-33.5 139.5z" />
    <glyph glyph-name="j" unicode="j" horiz-adv-x="614" 
d="M4 -55l217 1116h379l-227 -1167q-33 -169 -160.5 -269t-306.5 -100q-78 0 -131 21l59 303h57q95 0 113 96zM253 1332q17 84 88.5 140.5t160.5 56.5t138.5 -56.5t32.5 -140.5q-17 -83 -88 -139.5t-160 -56.5t-138.5 56.5t-33.5 139.5z" />
    <glyph glyph-name="k" unicode="k" horiz-adv-x="1166" 
d="M825 1061h379q-78 -397 -293 -547l141 -514h-406l-93 412h-76l-80 -412h-379l290 1495h379l-147 -759h51q171 0 234 325z" />
    <glyph glyph-name="l" unicode="l" horiz-adv-x="614" 
d="M15 0l290 1495h379l-290 -1495h-379z" />
    <glyph glyph-name="m" unicode="m" horiz-adv-x="1917" 
d="M1166 570l-110 -570h-379l116 600q14 72 -13.5 114t-91.5 42q-62 0 -111.5 -45.5t-67.5 -135.5l-112 -575h-379l206 1061h379l-19 -102q139 126 305 126q105 0 181 -51.5t107 -143.5q73 92 169 143.5t201 51.5q161 0 247 -114t51 -295l-131 -676h-379l116 600
q13 67 -15 111.5t-89 44.5q-62 0 -112.5 -47t-68.5 -139z" />
    <glyph glyph-name="n" unicode="n" horiz-adv-x="1267" 
d="M508 570l-111 -570h-379l206 1061h379l-20 -105q126 125 303 125q167 0 256 -110.5t53 -294.5l-131 -676h-379l116 600q13 66 -18 111t-92 45q-64 0 -114.5 -46.5t-68.5 -139.5z" />
    <glyph glyph-name="o" unicode="o" horiz-adv-x="1313" 
d="M57 530q30 154 133 281.5t255.5 200.5t319.5 73q168 0 291 -73.5t176 -200.5t23 -281t-132.5 -281.5t-254 -200.5t-319.5 -73q-167 0 -290.5 73t-177.5 200.5t-24 281.5zM429 530q-19 -96 33 -161t150 -65q99 0 176.5 65t96.5 161t-33.5 161.5t-151.5 65.5
q-98 0 -175 -65t-96 -162z" />
    <glyph glyph-name="p" unicode="p" horiz-adv-x="1353" 
d="M1296 530q-46 -237 -212.5 -396t-378.5 -159q-192 0 -296 133l-114 -583h-369l299 1536h369l-22 -108q154 132 349 132q140 0 236.5 -73.5t132.5 -200t6 -281.5zM925 530q19 96 -31 161.5t-141 65.5q-92 0 -168 -65.5t-95 -161.5t32 -161t143 -65q91 0 166 65t94 161z
" />
    <glyph glyph-name="q" unicode="q" horiz-adv-x="1353" 
d="M57 530q30 155 116 281.5t211.5 200t265.5 73.5q190 0 295 -132l22 108h368l-299 -1536h-368l113 583q-157 -133 -347 -133q-140 0 -237 73.5t-133.5 200t-6.5 281.5zM429 530q-19 -96 31.5 -161t141.5 -65t166.5 65t94.5 161t-31.5 161.5t-141.5 65.5t-166.5 -65.5
t-94.5 -161.5z" />
    <glyph glyph-name="r" unicode="r" horiz-adv-x="875" 
d="M945 1076l-97 -347q-71 27 -140 27q-67 0 -125 -49.5t-76 -141.5l-110 -565h-379l206 1061h379l-21 -108q130 132 305 132q33 0 58 -9z" />
    <glyph glyph-name="s" unicode="s" horiz-adv-x="980" 
d="M1 202l156 156q105 -108 259 -108q48 0 78.5 17t35.5 46q6 32 -21.5 53t-102.5 38q-155 35 -227 127.5t-47 225.5q28 142 160.5 235t307.5 93q189 0 279 -99t80 -258h-306q0 38 -22.5 60.5t-61.5 22.5q-37 0 -62 -16t-30 -42q-6 -30 20.5 -51t104.5 -39
q169 -38 241.5 -128t46.5 -223q-29 -147 -168.5 -242t-330.5 -95q-120 0 -221 57.5t-169 169.5z" />
    <glyph glyph-name="t" unicode="t" horiz-adv-x="836" 
d="M602 736l-65 -337q-18 -99 90 -99q69 0 119 7l-54 -279q-108 -53 -239 -53q-168 0 -252 103t-51 272l74 386h-163l64 325h163l51 264l386 43l-59 -307h215l-64 -325h-215z" />
    <glyph glyph-name="u" unicode="u" horiz-adv-x="1267" 
d="M760 494l110 567h379l-206 -1061h-378l19 102q-125 -122 -302 -122q-167 0 -256 110t-54 294l132 677h379l-117 -601q-13 -66 17.5 -111t91.5 -45q65 0 115.5 48t69.5 142z" />
    <glyph glyph-name="v" unicode="v" horiz-adv-x="1136" 
d="M826 1061h397l-544 -1061h-427l-132 1061h396l29 -650z" />
    <glyph glyph-name="w" unicode="w" horiz-adv-x="1669" 
d="M756 1061h364l6 -618l249 618h380l-507 -1061h-388l-22 546l-234 -546h-388l-95 1061h380l9 -618z" />
    <glyph glyph-name="x" unicode="x" horiz-adv-x="1136" 
d="M-86 0l405 541l-173 520h401l67 -293l182 293h400l-375 -520l196 -541h-401l-90 312l-212 -312h-400z" />
    <glyph glyph-name="y" unicode="y" horiz-adv-x="1136" 
d="M826 1061h397l-833 -1536h-397l290 475l-163 1061h396l42 -581z" />
    <glyph glyph-name="z" unicode="z" horiz-adv-x="1061" 
d="M-28 0l54 275l512 464h-396l63 322h860l-53 -276l-511 -463h441l-62 -322h-908z" />
    <glyph glyph-name="braceleft" unicode="{" horiz-adv-x="906" 
d="M93 457l66 336q83 0 141 45.5t73 123.5l44 227q29 148 154.5 247.5t286.5 99.5h211l-64 -335h-79q-52 0 -91 -30.5t-48 -77.5l-45 -233q-18 -91 -76.5 -152t-149.5 -83q82 -22 117 -83.5t17 -152.5l-45 -232q-9 -48 18 -78.5t78 -30.5h79l-65 -335h-211q-161 0 -248 99.5
t-58 247.5l44 227q15 79 -25.5 124.5t-123.5 45.5z" />
    <glyph glyph-name="bar" unicode="|" horiz-adv-x="684" 
d="M-1 -287l354 1823h369l-354 -1823h-369z" />
    <glyph glyph-name="braceright" unicode="}" horiz-adv-x="906" 
d="M850 793l-66 -336q-83 0 -141 -45.5t-73 -124.5l-44 -227q-29 -148 -154.5 -247.5t-286.5 -99.5h-209l65 335h78q51 0 89.5 31t47.5 78l45 232q18 91 76.5 152.5t149.5 83.5q-82 23 -117 84t-17 151l45 233q9 47 -17 77.5t-77 30.5h-79l64 335h210q161 0 248 -99.5
t58 -247.5l-44 -227q-15 -78 25.5 -123.5t123.5 -45.5z" />
    <glyph glyph-name="asciitilde" unicode="~" horiz-adv-x="1206" 
d="M816 418q-126 0 -221 86q-27 24 -41.5 36t-36 23t-40.5 11q-57 0 -94 -108l-340 61q62 192 164.5 294t236.5 102q128 0 221 -86q26 -24 41.5 -36.5t36.5 -23.5t40 -11q58 0 95 108l340 -61q-62 -191 -165 -293t-237 -102z" />
    <glyph glyph-name="uni00A0" unicode="&#xa0;" horiz-adv-x="623" 
 />
    <glyph glyph-name="exclamdown" unicode="&#xa1;" horiz-adv-x="648" 
d="M-46 -373l203 974h362l-175 -974h-390zM163 880q17 87 94.5 146t174.5 59q98 0 152 -59t37 -146t-94.5 -146.5t-175.5 -59.5q-97 0 -151 59.5t-37 146.5z" />
    <glyph glyph-name="cent" unicode="&#xa2;" horiz-adv-x="1208" 
d="M937 444l147 -144q-168 -235 -382 -299l-36 -189h-336l36 186q-172 51 -259 196.5t-50 335.5q36 189 172.5 333.5t322.5 197.5l36 187h336l-36 -184q139 -41 214.5 -150t72.5 -263h-376q-17 106 -135 106q-79 0 -147.5 -66t-87.5 -161q-19 -99 30.5 -162.5t160.5 -63.5
q168 0 317 140z" />
    <glyph glyph-name="sterling" unicode="&#xa3;" horiz-adv-x="1205" 
d="M297 543h-173l47 247h112q-36 145 -15 257q34 172 195 291.5t361 119.5q205 0 318 -127.5t86 -345.5h-371q4 63 -21.5 99.5t-70.5 36.5q-41 0 -71.5 -28t-38.5 -70q-13 -67 18 -195q1 -5 3.5 -18t3.5 -20h285l-47 -247h-232q-41 -145 -160 -207h551l-64 -336h-988l61 316
q85 29 138.5 88t72.5 139z" />
    <glyph glyph-name="currency" unicode="&#xa4;" horiz-adv-x="1314" 
d="M182 668q23 116 103 222l-138 175l242 196l143 -180q118 52 242 52q125 0 223 -52l213 180l166 -196l-208 -175q42 -102 18 -222q-22 -118 -104 -224l140 -174l-242 -195l-143 179q-114 -51 -243 -51q-130 0 -222 51l-213 -179l-166 195l206 174q-40 101 -17 224z
M519 668q-14 -73 24 -122.5t108 -49.5t127 49.5t71 122.5t-23.5 122.5t-107.5 49.5t-127.5 -49.5t-71.5 -122.5z" />
    <glyph glyph-name="yen" unicode="&#xa5;" horiz-adv-x="1358" 
d="M197 1434h423l133 -526l338 526h423l-493 -673h225l-34 -174h-318l-12 -17l-12 -55h328l-34 -174h-327l-66 -341h-389l65 341h-327l34 174h327l12 55l-7 17h-318l34 174h225z" />
    <glyph glyph-name="brokenbar" unicode="&#xa6;" horiz-adv-x="684" 
d="M195 717l158 819h369l-159 -819h-368zM-1 -287l160 819h368l-159 -819h-369z" />
    <glyph glyph-name="section" unicode="&#xa7;" horiz-adv-x="1057" 
d="M94 583q37 185 232 265q-163 95 -125 286q28 147 173 235.5t364 88.5q192 0 291.5 -94.5t93.5 -256.5h-335q-2 36 -27 62t-62 26t-60.5 -16t-28.5 -42q-6 -31 34 -56.5t163 -70.5q147 -54 201 -131t29 -201q-16 -83 -83 -150.5t-169 -107.5q94 -48 130.5 -118t16.5 -173
q-29 -147 -167.5 -240.5t-356.5 -93.5q-153 0 -270 75t-178 202l163 131q116 -144 294 -144q91 0 103 58q6 30 -22 52.5t-119 53.5q-173 59 -242.5 141t-42.5 219zM551 512q96 40 111 116q14 78 -81 121q-47 -18 -76 -48t-36 -67q-16 -78 82 -122z" />
    <glyph glyph-name="dieresis" unicode="&#xa8;" horiz-adv-x="890" 
d="M203 1323q14 75 76.5 126.5t139.5 51.5q76 0 118.5 -51.5t28.5 -126.5t-76.5 -126.5t-139.5 -51.5t-119 51.5t-28 126.5zM634 1323q14 75 76.5 126.5t138.5 51.5q77 0 119.5 -51.5t28.5 -126.5t-77 -126.5t-140 -51.5q-76 0 -118 51.5t-28 126.5z" />
    <glyph glyph-name="copyright" unicode="&#xa9;" horiz-adv-x="1646" 
d="M82 717q0 153 58 290t157 236t236 157t290 58t290.5 -58t236.5 -157t157 -236t58 -290t-58 -290.5t-157 -236.5t-236.5 -157t-290.5 -58t-290 58t-236 157t-157 236.5t-58 290.5zM217 717q0 -169 80.5 -310.5t220 -223t305.5 -81.5t306 81.5t220.5 223t80.5 310.5
q0 127 -47.5 241t-128.5 195.5t-193.5 129.5t-237.5 48q-166 0 -305.5 -81t-220 -222.5t-80.5 -310.5zM1072 645l136 -103q-125 -237 -368 -237q-179 0 -300.5 117t-121.5 290q0 174 115.5 289.5t292.5 115.5q165 0 269.5 -92.5t124.5 -234.5h-270q-11 39 -42.5 61.5
t-76.5 22.5q-56 0 -97 -45.5t-41 -116.5q0 -74 46 -119t126 -45q119 0 207 97z" />
    <glyph glyph-name="ordfeminine" unicode="&#xaa;" horiz-adv-x="955" 
d="M155 1061q31 163 152 276t263 113q122 0 184 -88l14 72h282l-146 -746h-281l14 71q-98 -87 -218 -87q-142 0 -218.5 113t-45.5 276zM437 1061q-11 -60 17.5 -100.5t84.5 -40.5t100.5 40.5t55.5 100.5q11 61 -17 101t-84 40t-101 -40.5t-56 -100.5z" />
    <glyph glyph-name="guillemotleft" unicode="&#xab;" horiz-adv-x="1334" 
d="M77 529l43 222l586 354l93 -173l-393 -292l279 -293l-160 -173zM633 529l43 222l586 354l93 -173l-393 -292l279 -293l-160 -173z" />
    <glyph glyph-name="logicalnot" unicode="&#xac;" horiz-adv-x="1206" 
d="M660 220l58 293h-604l64 334h973l-122 -627h-369z" />
    <glyph glyph-name="uni00AD" unicode="&#xad;" horiz-adv-x="880" 
d="M760 511h-647l66 338h647z" />
    <glyph glyph-name="registered" unicode="&#xae;" horiz-adv-x="1646" 
d="M82 717q0 153 58 290t157 236t236 157t290 58t290.5 -58t236.5 -157t157 -236t58 -290t-58 -290.5t-157 -236.5t-236.5 -157t-290.5 -58t-290 58t-236 157t-157 236.5t-58 290.5zM217 717q0 -169 80.5 -310.5t220 -223t305.5 -81.5t306 81.5t220.5 223t80.5 310.5
q0 127 -47.5 241t-128.5 195.5t-193.5 129.5t-237.5 48q-166 0 -305.5 -81t-220 -222.5t-80.5 -310.5zM810 583h-25v-261h-234v788h317q123 0 205 -74.5t82 -189.5q0 -69 -32.5 -125.5t-89.5 -90.5l149 -308h-256zM785 754h56q35 0 58.5 24t23.5 61q0 36 -24.5 60t-57.5 24
h-56v-169z" />
    <glyph glyph-name="macron" unicode="&#xaf;" horiz-adv-x="890" 
d="M234 1183l54 272h676l-54 -272h-676z" />
    <glyph glyph-name="degree" unicode="&#xb0;" horiz-adv-x="831" 
d="M98 1159q0 126 92 212.5t226 86.5t225.5 -86.5t91.5 -212.5t-91.5 -213t-225.5 -87t-226 87t-92 213zM330 1159q0 -37 24 -61.5t62 -24.5t62 24.5t24 61.5t-24.5 61t-61.5 24t-61.5 -24t-24.5 -61z" />
    <glyph glyph-name="plusminus" unicode="&#xb1;" horiz-adv-x="1206" 
d="M987 0h-974l59 304h974zM387 371l58 301h-302l60 305h302l58 301h370l-59 -301h303l-60 -305h-302l-58 -301h-370z" />
    <glyph glyph-name="twosuperior" unicode="&#xb2;" 
d="M702 907l-221 -199h293l-48 -245h-649l43 220l391 351q69 61 78 114q6 32 -9 52t-46 20q-33 0 -60 -26t-37 -71h-254q32 146 141.5 240.5t267.5 94.5q146 0 227 -78.5t57 -200.5q-26 -138 -174 -272z" />
    <glyph glyph-name="threesuperior" unicode="&#xb3;" 
d="M517 782q8 41 -14.5 70t-63.5 29q-20 0 -54 -15l-85 139l215 188h-287l47 241h616l-44 -227l-202 -165q96 -35 138 -112t22 -180q-26 -134 -145 -223t-271 -89q-204 0 -305 202l145 132q73 -90 171 -90q41 0 75 28.5t42 71.5z" />
    <glyph glyph-name="acute" unicode="&#xb4;" horiz-adv-x="890" 
d="M880 1398l-375 -311l-143 134l318 369z" />
    <glyph glyph-name="mu" unicode="&#xb5;" horiz-adv-x="1288" 
d="M779 489l112 572h379l-206 -1061h-379l20 102q-120 -116 -311 -116l-90 -461h-379l299 1536h379l-118 -605q-13 -69 17 -110.5t94 -41.5q65 0 115 46.5t68 138.5z" />
    <glyph glyph-name="paragraph" unicode="&#xb6;" horiz-adv-x="1217" 
d="M550 549h-51q-192 0 -323.5 127.5t-131.5 314.5t131.5 315t323.5 128h581v-1702h-218v1478h-94v-1478h-218v817z" />
    <glyph glyph-name="periodcentered" unicode="&#xb7;" horiz-adv-x="623" 
d="M122 671q17 88 90 147.5t167 59.5q95 0 145 -59.5t33 -147.5t-90 -147.5t-168 -59.5q-94 0 -144 59.5t-33 147.5z" />
    <glyph glyph-name="cedilla" unicode="&#xb8;" horiz-adv-x="890" 
d="M358 -299q5 27 -14.5 46.5t-53.5 19.5q-25 0 -45 -5l-50 62l34 176h226l-20 -95q95 -12 139.5 -72t30.5 -136q-19 -98 -124 -163.5t-242 -65.5q-128 0 -203.5 61t-77.5 176h214q6 -67 88 -67q39 0 66 17.5t32 45.5z" />
    <glyph glyph-name="onesuperior" unicode="&#xb9;" 
d="M551 1434h246l-190 -971h-291l137 700l-153 -76l-66 192z" />
    <glyph glyph-name="ordmasculine" unicode="&#xba;" horiz-adv-x="955" 
d="M162 1061q21 107 94 196.5t179.5 141t221.5 51.5q175 0 274.5 -113t68.5 -276q-21 -107 -94 -196.5t-179 -141t-221 -51.5t-201.5 51.5t-125 141t-17.5 196.5zM444 1061q-11 -60 20 -100.5t90 -40.5t106.5 40.5t58.5 100.5t-20.5 100.5t-89.5 40.5q-59 0 -106.5 -40.5
t-58.5 -100.5z" />
    <glyph glyph-name="guillemotright" unicode="&#xbb;" horiz-adv-x="1334" 
d="M1299 751l-43 -222l-585 -355l-94 173l394 293l-281 292l161 173zM743 751l-43 -222l-585 -355l-95 173l395 293l-281 292l161 173z" />
    <glyph glyph-name="onequarter" unicode="&#xbc;" horiz-adv-x="2007" 
d="M454 56l978 1434l193 -114l-977 -1433zM551 1434h246l-190 -971h-291l137 700l-153 -76l-66 192zM1129 158l41 209l520 604h255l-114 -586h101l-45 -227h-101l-30 -158h-268l30 158h-389zM1408 384h154l45 231z" />
    <glyph glyph-name="onehalf" unicode="&#xbd;" horiz-adv-x="2007" 
d="M454 56l978 1434l193 -114l-977 -1433zM551 1434h246l-190 -971h-291l137 700l-153 -76l-66 192zM1785 444l-221 -199h293l-48 -245h-649l42 220l391 351q68 61 79 114q6 32 -9.5 52t-46.5 20q-32 0 -59 -26t-37 -71h-254q32 146 141 240.5t267 94.5q146 0 227 -78.5
t57 -200.5q-26 -141 -173 -272z" />
    <glyph glyph-name="threequarters" unicode="&#xbe;" horiz-adv-x="2007" 
d="M454 56l978 1434l193 -114l-977 -1433zM1129 158l41 209l520 604h255l-114 -586h101l-45 -227h-101l-30 -158h-268l30 158h-389zM1408 384h154l45 231zM517 782q8 41 -14.5 70t-63.5 29q-20 0 -54 -15l-85 139l215 188h-287l47 241h616l-44 -227l-202 -165
q96 -35 138 -112t22 -180q-26 -134 -145 -223t-271 -89q-204 0 -305 202l145 132q73 -90 171 -90q41 0 75 28.5t42 71.5z" />
    <glyph glyph-name="questiondown" unicode="&#xbf;" horiz-adv-x="1146" 
d="M436 601h389q-32 -164 -106.5 -255t-246.5 -180q-50 -26 -71 -53t-29 -70q-7 -35 16 -63t69 -28q62 0 107 41.5t58 107.5h373q-44 -229 -215 -363.5t-400 -134.5q-142 0 -242.5 60t-140.5 159t-17 216q25 127 105 219t236 170q51 26 76 65t39 109zM896 880
q-17 -87 -94 -146.5t-174 -59.5q-98 0 -152.5 59.5t-37.5 146.5t95 146t176 59q97 0 150.5 -59t36.5 -146z" />
    <glyph glyph-name="Agrave" unicode="&#xc0;" horiz-adv-x="1430" 
d="M679 1434h424l204 -1434h-401l-26 274h-429l-133 -274h-400zM812 1030l-222 -460h266zM920 1487l-254 310l273 193l173 -370z" />
    <glyph glyph-name="Aacute" unicode="&#xc1;" horiz-adv-x="1430" 
d="M679 1434h424l204 -1434h-401l-26 274h-429l-133 -274h-400zM812 1030l-222 -460h266zM1245 1797l-375 -310l-142 133l318 370z" />
    <glyph glyph-name="Acircumflex" unicode="&#xc2;" horiz-adv-x="1430" 
d="M679 1434h424l204 -1434h-401l-26 274h-429l-133 -274h-400zM812 1030l-222 -460h266zM801 1895h356l167 -260l-194 -134l-186 213l-270 -213l-140 134z" />
    <glyph glyph-name="Atilde" unicode="&#xc3;" horiz-adv-x="1430" 
d="M679 1434h424l204 -1434h-401l-26 274h-429l-133 -274h-400zM812 1030l-222 -460h266zM931 1587q-60 34 -81 34q-36 0 -65 -71l-271 55q92 250 290 250q79 0 150 -43q57 -33 80 -33q35 0 66 70l270 -54q-45 -124 -118.5 -187.5t-170.5 -63.5q-77 0 -150 43z" />
    <glyph glyph-name="Adieresis" unicode="&#xc4;" horiz-adv-x="1430" 
d="M679 1434h424l204 -1434h-401l-26 274h-429l-133 -274h-400zM812 1030l-222 -460h266zM546 1704q14 75 77 126.5t140 51.5q76 0 118 -51.5t28 -126.5t-76.5 -126.5t-139.5 -51.5t-119 51.5t-28 126.5zM977 1704q14 75 76.5 126.5t139.5 51.5t119 -51.5t28 -126.5
t-77 -126.5t-140 -51.5q-76 0 -118 51.5t-28 126.5z" />
    <glyph glyph-name="Aring" unicode="&#xc5;" horiz-adv-x="1430" 
d="M679 1434h424l204 -1434h-401l-26 274h-429l-133 -274h-400zM812 1030l-222 -460h266zM888 1726q-5 -26 8.5 -42t39.5 -16t46.5 16.5t24.5 41.5q5 25 -9 41.5t-40 16.5t-45.5 -16.5t-24.5 -41.5zM695 1726q20 98 105.5 164t191.5 66q107 0 166.5 -66.5t40.5 -163.5
t-104.5 -163.5t-192.5 -66.5q-106 0 -166 66t-41 164z" />
    <glyph glyph-name="AE" unicode="&#xc6;" horiz-adv-x="1940" 
d="M309 0h-404l1036 1434h1068l-63 -326h-540l-44 -227h490l-62 -320h-491l-46 -235h558l-62 -326h-940l53 275h-366zM1010 1036l-317 -466h227z" />
    <glyph glyph-name="Ccedilla" unicode="&#xc7;" horiz-adv-x="1550" 
d="M732 -299q5 27 -14.5 46.5t-52.5 19.5q-27 0 -47 -5l-50 62l31 160q-176 25 -300.5 126.5t-175 260.5t-13.5 346q40 207 168.5 376.5t318 267t401.5 97.5q251 0 401.5 -142t153.5 -397h-410q-7 94 -65 148.5t-151 54.5q-153 0 -273.5 -115.5t-153.5 -289.5
q-34 -175 46.5 -290.5t243.5 -115.5q132 0 243.5 54.5t221.5 169.5l178 -156q-262 -345 -608 -394l-16 -80q95 -12 139.5 -72t30.5 -136q-19 -98 -124 -163.5t-242 -65.5q-128 0 -203.5 61t-77.5 176h214q7 -67 89 -67q39 0 65.5 17.5t31.5 45.5z" />
    <glyph glyph-name="Egrave" unicode="&#xc8;" horiz-adv-x="1185" 
d="M41 0l278 1434h934l-63 -326h-544l-44 -227h495l-63 -320h-494l-46 -235h562l-63 -326h-952zM776 1487l-254 310l274 193l173 -370z" />
    <glyph glyph-name="Eacute" unicode="&#xc9;" horiz-adv-x="1185" 
d="M41 0l278 1434h934l-63 -326h-544l-44 -227h495l-63 -320h-494l-46 -235h562l-63 -326h-952zM1142 1797l-375 -310l-142 133l317 370z" />
    <glyph glyph-name="Ecircumflex" unicode="&#xca;" horiz-adv-x="1185" 
d="M41 0l278 1434h934l-63 -326h-544l-44 -227h495l-63 -320h-494l-46 -235h562l-63 -326h-952zM692 1895h357l166 -260l-193 -134l-186 213l-271 -213l-140 134z" />
    <glyph glyph-name="Edieresis" unicode="&#xcb;" horiz-adv-x="1185" 
d="M41 0l278 1434h934l-63 -326h-544l-44 -227h495l-63 -320h-494l-46 -235h562l-63 -326h-952zM441 1704q14 75 77 126.5t140 51.5q76 0 118.5 -51.5t28.5 -126.5t-76.5 -126.5t-139.5 -51.5t-119.5 51.5t-28.5 126.5zM872 1704q14 75 77 126.5t140 51.5t119 -51.5
t28 -126.5t-77 -126.5t-140 -51.5q-76 0 -118.5 51.5t-28.5 126.5z" />
    <glyph glyph-name="Igrave" unicode="&#xcc;" horiz-adv-x="681" 
d="M712 1434l-279 -1434h-390l279 1434h390zM544 1487l-254 310l273 193l173 -370z" />
    <glyph glyph-name="Iacute" unicode="&#xcd;" horiz-adv-x="681" 
d="M712 1434l-279 -1434h-390l279 1434h390zM878 1797l-375 -310l-143 133l318 370z" />
    <glyph glyph-name="Icircumflex" unicode="&#xce;" horiz-adv-x="681" 
d="M712 1434l-279 -1434h-390l279 1434h390zM427 1895h356l167 -260l-193 -134l-187 213l-270 -213l-140 134z" />
    <glyph glyph-name="Idieresis" unicode="&#xcf;" horiz-adv-x="681" 
d="M712 1434l-279 -1434h-390l279 1434h390zM172 1704q14 75 77 126.5t140 51.5q76 0 118.5 -51.5t28.5 -126.5t-77 -126.5t-140 -51.5t-119 51.5t-28 126.5zM603 1704q14 75 76.5 126.5t139.5 51.5t119.5 -51.5t28.5 -126.5t-77 -126.5t-140 -51.5q-76 0 -118.5 51.5
t-28.5 126.5z" />
    <glyph glyph-name="Eth" unicode="&#xd0;" horiz-adv-x="1527" 
d="M634 0h-550l117 605h-169l44 222h169l117 607h550q158 0 282 -52.5t198.5 -147t103.5 -226.5t-4 -291q-41 -211 -163 -374t-303 -253t-392 -90zM538 336h130q166 0 281.5 100t151.5 281q35 180 -42 280t-243 100h-130l-52 -270h205l-44 -222h-205z" />
    <glyph glyph-name="Ntilde" unicode="&#xd1;" horiz-adv-x="1463" 
d="M41 0l278 1434h419l230 -876l171 876h356l-278 -1434h-418l-231 876l-170 -876h-357zM947 1587q-60 34 -81 34q-35 0 -64 -71l-272 55q92 250 290 250q80 0 151 -43q57 -33 80 -33q34 0 65 70l270 -54q-91 -251 -288 -251q-78 0 -151 43z" />
    <glyph glyph-name="Ograve" unicode="&#xd2;" horiz-adv-x="1703" 
d="M500 717q-34 -173 55 -289.5t255 -116.5t300 116.5t168 289.5q33 173 -55.5 289t-254.5 116t-300.5 -116t-167.5 -289zM110 717q40 206 175 376t332.5 267.5t414.5 97.5t377 -97.5t229.5 -267.5t29.5 -376q-30 -154 -117 -291.5t-210 -236.5t-278.5 -156.5t-318.5 -57.5
t-296.5 57.5t-217.5 156.5t-117 236.5t-3 291.5zM1025 1487l-254 310l273 193l174 -370z" />
    <glyph glyph-name="Oacute" unicode="&#xd3;" horiz-adv-x="1703" 
d="M500 717q-34 -173 55 -289.5t255 -116.5t300 116.5t168 289.5q33 173 -55.5 289t-254.5 116t-300.5 -116t-167.5 -289zM110 717q40 206 175 376t332.5 267.5t414.5 97.5t377 -97.5t229.5 -267.5t29.5 -376q-30 -154 -117 -291.5t-210 -236.5t-278.5 -156.5t-318.5 -57.5
t-296.5 57.5t-217.5 156.5t-117 236.5t-3 291.5zM1418 1797l-375 -310l-142 133l318 370z" />
    <glyph glyph-name="Ocircumflex" unicode="&#xd4;" horiz-adv-x="1703" 
d="M500 717q-34 -173 55 -289.5t255 -116.5t300 116.5t168 289.5q33 173 -55.5 289t-254.5 116t-300.5 -116t-167.5 -289zM110 717q40 206 175 376t332.5 267.5t414.5 97.5t377 -97.5t229.5 -267.5t29.5 -376q-30 -154 -117 -291.5t-210 -236.5t-278.5 -156.5t-318.5 -57.5
t-296.5 57.5t-217.5 156.5t-117 236.5t-3 291.5zM938 1895h356l167 -260l-193 -134l-187 213l-270 -213l-140 134z" />
    <glyph glyph-name="Otilde" unicode="&#xd5;" horiz-adv-x="1703" 
d="M500 717q-34 -173 55 -289.5t255 -116.5t300 116.5t168 289.5q33 173 -55.5 289t-254.5 116t-300.5 -116t-167.5 -289zM110 717q40 206 175 376t332.5 267.5t414.5 97.5t377 -97.5t229.5 -267.5t29.5 -376q-30 -154 -117 -291.5t-210 -236.5t-278.5 -156.5t-318.5 -57.5
t-296.5 57.5t-217.5 156.5t-117 236.5t-3 291.5zM1068 1587q-60 34 -81 34q-35 0 -64 -71l-272 55q92 250 290 250q80 0 151 -43q57 -33 79 -33q35 0 66 70l270 -54q-91 -251 -288 -251q-78 0 -151 43z" />
    <glyph glyph-name="Odieresis" unicode="&#xd6;" horiz-adv-x="1703" 
d="M500 717q-34 -173 55 -289.5t255 -116.5t300 116.5t168 289.5q33 173 -55.5 289t-254.5 116t-300.5 -116t-167.5 -289zM110 717q40 206 175 376t332.5 267.5t414.5 97.5t377 -97.5t229.5 -267.5t29.5 -376q-30 -154 -117 -291.5t-210 -236.5t-278.5 -156.5t-318.5 -57.5
t-296.5 57.5t-217.5 156.5t-117 236.5t-3 291.5zM683 1704q14 75 77 126.5t140 51.5q76 0 118.5 -51.5t28.5 -126.5t-77 -126.5t-140 -51.5t-119 51.5t-28 126.5zM1114 1704q14 75 76.5 126.5t139.5 51.5t119.5 -51.5t28.5 -126.5t-77 -126.5t-140 -51.5q-76 0 -118.5 51.5
t-28.5 126.5z" />
    <glyph glyph-name="multiply" unicode="&#xd7;" horiz-adv-x="1206" 
d="M79 424l311 256l-212 256l287 239l213 -259l312 259l195 -239l-311 -256l211 -256l-286 -239l-212 258l-314 -258z" />
    <glyph glyph-name="Oslash" unicode="&#xd8;" horiz-adv-x="1703" 
d="M110 717q40 206 175 376t332.5 267.5t414.5 97.5q192 0 343 -80l176 183l147 -130l-165 -171q94 -102 130 -242.5t5 -300.5q-30 -154 -117 -291.5t-210 -236.5t-278.5 -156.5t-318.5 -57.5q-203 0 -361 90l-185 -192l-148 129l180 187q-87 101 -118.5 237t-1.5 291z
M1278 717q25 141 -31 246l-594 -616q70 -36 157 -36q166 0 300 116.5t168 289.5zM500 717q-25 -128 20 -227l582 605q-62 27 -134 27q-166 0 -300.5 -116t-167.5 -289z" />
    <glyph glyph-name="Ugrave" unicode="&#xd9;" horiz-adv-x="1383" 
d="M695 1434l-186 -955q-13 -73 26.5 -119.5t113.5 -46.5t132 46.5t71 119.5l186 955h390l-189 -973q-26 -136 -122.5 -247.5t-237.5 -174t-295 -62.5q-236 0 -371.5 138.5t-95.5 345.5l189 973h389zM860 1487l-254 310l274 193l173 -370z" />
    <glyph glyph-name="Uacute" unicode="&#xda;" horiz-adv-x="1383" 
d="M695 1434l-186 -955q-13 -73 26.5 -119.5t113.5 -46.5t132 46.5t71 119.5l186 955h390l-189 -973q-26 -136 -122.5 -247.5t-237.5 -174t-295 -62.5q-236 0 -371.5 138.5t-95.5 345.5l189 973h389zM1262 1797l-375 -310l-143 133l318 370z" />
    <glyph glyph-name="Ucircumflex" unicode="&#xdb;" horiz-adv-x="1383" 
d="M695 1434l-186 -955q-13 -73 26.5 -119.5t113.5 -46.5t132 46.5t71 119.5l186 955h390l-189 -973q-26 -136 -122.5 -247.5t-237.5 -174t-295 -62.5q-236 0 -371.5 138.5t-95.5 345.5l189 973h389zM777 1895h357l166 -260l-193 -134l-186 213l-271 -213l-140 134z" />
    <glyph glyph-name="Udieresis" unicode="&#xdc;" horiz-adv-x="1383" 
d="M695 1434l-186 -955q-13 -73 26.5 -119.5t113.5 -46.5t132 46.5t71 119.5l186 955h390l-189 -973q-26 -136 -122.5 -247.5t-237.5 -174t-295 -62.5q-236 0 -371.5 138.5t-95.5 345.5l189 973h389zM522 1704q14 75 77 126.5t140 51.5q76 0 118.5 -51.5t28.5 -126.5
t-76.5 -126.5t-139.5 -51.5t-119.5 51.5t-28.5 126.5zM953 1704q14 75 76.5 126.5t139.5 51.5t119.5 -51.5t28.5 -126.5t-77 -126.5t-140 -51.5q-76 0 -118.5 51.5t-28.5 126.5z" />
    <glyph glyph-name="Yacute" unicode="&#xdd;" horiz-adv-x="1358" 
d="M620 1434l135 -519l337 519h422l-634 -877l-108 -557h-390l107 557l-292 877h423zM1250 1797l-374 -310l-143 133l318 370z" />
    <glyph glyph-name="Thorn" unicode="&#xde;" horiz-adv-x="1257" 
d="M639 228h-165l-44 -228h-389l278 1434h390l-45 -230h164q222 0 340 -138t77 -349q-41 -212 -212.5 -350.5t-393.5 -138.5zM532 530h115q82 0 141 51.5t76 135.5q15 83 -23.5 134t-120.5 51h-115z" />
    <glyph glyph-name="germandbls" unicode="&#xdf;" horiz-adv-x="1277" 
d="M450 113l131 246q64 -41 135 -41q52 0 91 43.5t53 114.5q12 66 -17.5 112t-87.5 46q-30 0 -62 -18l-69 194l219 313h-234l-218 -1123h-363l278 1434h932l-58 -299l-203 -276q121 -41 177 -159t21 -298q-27 -138 -96 -236.5t-157 -144t-188 -45.5q-86 0 -163 38t-121 99z
" />
    <glyph glyph-name="agrave" unicode="&#xe0;" horiz-adv-x="1353" 
d="M57 530q30 155 116 281.5t211.5 200t265.5 73.5q190 0 295 -132l22 108h368l-206 -1061h-368l20 108q-157 -133 -347 -133q-140 0 -237 73.5t-133.5 200t-6.5 281.5zM429 530q-19 -96 31.5 -161t141.5 -65t166.5 65t94.5 161t-31.5 161.5t-141.5 65.5t-166.5 -65.5
t-94.5 -161.5zM812 1155l-254 310l273 193l174 -370z" />
    <glyph glyph-name="aacute" unicode="&#xe1;" horiz-adv-x="1353" 
d="M57 530q30 155 116 281.5t211.5 200t265.5 73.5q190 0 295 -132l22 108h368l-206 -1061h-368l20 108q-157 -133 -347 -133q-140 0 -237 73.5t-133.5 200t-6.5 281.5zM429 530q-19 -96 31.5 -161t141.5 -65t166.5 65t94.5 161t-31.5 161.5t-141.5 65.5t-166.5 -65.5
t-94.5 -161.5zM1149 1465l-375 -310l-142 133l317 370z" />
    <glyph glyph-name="acircumflex" unicode="&#xe2;" horiz-adv-x="1353" 
d="M57 530q30 155 116 281.5t211.5 200t265.5 73.5q190 0 295 -132l22 108h368l-206 -1061h-368l20 108q-157 -133 -347 -133q-140 0 -237 73.5t-133.5 200t-6.5 281.5zM429 530q-19 -96 31.5 -161t141.5 -65t166.5 65t94.5 161t-31.5 161.5t-141.5 65.5t-166.5 -65.5
t-94.5 -161.5zM706 1564h356l167 -260l-194 -135l-186 213l-270 -213l-141 135z" />
    <glyph glyph-name="atilde" unicode="&#xe3;" horiz-adv-x="1353" 
d="M57 530q30 155 116 281.5t211.5 200t265.5 73.5q190 0 295 -132l22 108h368l-206 -1061h-368l20 108q-157 -133 -347 -133q-140 0 -237 73.5t-133.5 200t-6.5 281.5zM429 530q-19 -96 31.5 -161t141.5 -65t166.5 65t94.5 161t-31.5 161.5t-141.5 65.5t-166.5 -65.5
t-94.5 -161.5zM822 1248q-59 34 -80 34q-33 0 -65 -71l-270 55q91 251 288 251q80 0 151 -43q60 -34 81 -34q36 0 64 70l272 -54q-46 -124 -119.5 -187.5t-170.5 -63.5q-78 0 -151 43z" />
    <glyph glyph-name="adieresis" unicode="&#xe4;" horiz-adv-x="1353" 
d="M57 530q30 155 116 281.5t211.5 200t265.5 73.5q190 0 295 -132l22 108h368l-206 -1061h-368l20 108q-157 -133 -347 -133q-140 0 -237 73.5t-133.5 200t-6.5 281.5zM429 530q-19 -96 31.5 -161t141.5 -65t166.5 65t94.5 161t-31.5 161.5t-141.5 65.5t-166.5 -65.5
t-94.5 -161.5zM428 1372q14 75 77 126.5t140 51.5q76 0 118.5 -51.5t28.5 -126.5t-77 -126.5t-140 -51.5t-119 51.5t-28 126.5zM859 1372q14 75 76.5 126.5t139.5 51.5t119.5 -51.5t28.5 -126.5t-77 -126.5t-140 -51.5q-76 0 -118.5 51.5t-28.5 126.5z" />
    <glyph glyph-name="aring" unicode="&#xe5;" horiz-adv-x="1353" 
d="M57 530q30 155 116 281.5t211.5 200t265.5 73.5q190 0 295 -132l22 108h368l-206 -1061h-368l20 108q-157 -133 -347 -133q-140 0 -237 73.5t-133.5 200t-6.5 281.5zM429 530q-19 -96 31.5 -161t141.5 -65t166.5 65t94.5 161t-31.5 161.5t-141.5 65.5t-166.5 -65.5
t-94.5 -161.5zM774 1395q-5 -26 8.5 -42.5t39.5 -16.5t46 16.5t25 42.5q5 25 -8.5 41t-39.5 16t-46.5 -16t-24.5 -41zM582 1395q19 97 104.5 163t192.5 66t166 -66t40 -163q-19 -98 -104 -164.5t-191 -66.5q-107 0 -167 67t-41 164z" />
    <glyph glyph-name="ae" unicode="&#xe6;" horiz-adv-x="2115" 
d="M1228 431q-1 -90 54 -137t163 -47q197 0 358 115l105 -169q-92 -98 -210 -158t-240 -60q-107 0 -186 39t-120 107l-23 -121h-368l20 108q-157 -133 -347 -133q-140 0 -237 73.5t-133.5 200t-6.5 281.5t116 281.5t211.5 200t265.5 73.5q190 0 295 -132l22 108h368
l-22 -116q132 140 332 140q142 0 240 -72t134 -194.5t7 -272.5q-11 -61 -39 -115h-759zM429 530q-19 -96 31.5 -161t141.5 -65t166.5 65t94.5 161t-31.5 161.5t-141.5 65.5t-166.5 -65.5t-94.5 -161.5zM1506 814q-75 0 -136.5 -45t-96.5 -122h393q2 167 -160 167z" />
    <glyph glyph-name="ccedilla" unicode="&#xe7;" horiz-adv-x="1208" 
d="M542 -299q5 27 -14.5 46.5t-53.5 19.5q-26 0 -45 -5l-50 62l32 164q-192 38 -292.5 189t-61.5 353q30 154 128 281.5t241.5 200.5t301.5 73q212 0 331.5 -119t115.5 -315h-376q-17 106 -135 106q-79 0 -147.5 -66t-87.5 -161q-19 -99 30.5 -162.5t160.5 -63.5
q168 0 317 140l147 -144q-193 -268 -449 -314l-17 -81q96 -12 140 -72t30 -136q-20 -98 -124 -163.5t-241 -65.5q-128 0 -204 61t-78 176h214q7 -67 89 -67q39 0 66 17.5t32 45.5z" />
    <glyph glyph-name="egrave" unicode="&#xe8;" horiz-adv-x="1268" 
d="M416 431q-2 -90 53 -137t163 -47q197 0 358 115l105 -169q-237 -218 -525 -218q-182 0 -310 73.5t-180.5 200t-22.5 281.5q30 154 132 281.5t251.5 200.5t312.5 73q120 0 217 -42t157.5 -114.5t83.5 -172t2 -210.5q-11 -61 -39 -115h-758zM693 814q-78 0 -138 -43
t-94 -124h393q1 82 -40 124.5t-121 42.5zM748 1155l-254 310l273 193l173 -370z" />
    <glyph glyph-name="eacute" unicode="&#xe9;" horiz-adv-x="1268" 
d="M416 431q-2 -90 53 -137t163 -47q197 0 358 115l105 -169q-237 -218 -525 -218q-182 0 -310 73.5t-180.5 200t-22.5 281.5q30 154 132 281.5t251.5 200.5t312.5 73q120 0 217 -42t157.5 -114.5t83.5 -172t2 -210.5q-11 -61 -39 -115h-758zM693 814q-78 0 -138 -43
t-94 -124h393q1 82 -40 124.5t-121 42.5zM1135 1465l-375 -310l-143 133l318 370z" />
    <glyph glyph-name="ecircumflex" unicode="&#xea;" horiz-adv-x="1268" 
d="M416 431q-2 -90 53 -137t163 -47q197 0 358 115l105 -169q-237 -218 -525 -218q-182 0 -310 73.5t-180.5 200t-22.5 281.5q30 154 132 281.5t251.5 200.5t312.5 73q120 0 217 -42t157.5 -114.5t83.5 -172t2 -210.5q-11 -61 -39 -115h-758zM693 814q-78 0 -138 -43
t-94 -124h393q1 82 -40 124.5t-121 42.5zM655 1564h357l167 -260l-194 -135l-186 213l-271 -213l-140 135z" />
    <glyph glyph-name="edieresis" unicode="&#xeb;" horiz-adv-x="1268" 
d="M416 431q-2 -90 53 -137t163 -47q197 0 358 115l105 -169q-237 -218 -525 -218q-182 0 -310 73.5t-180.5 200t-22.5 281.5q30 154 132 281.5t251.5 200.5t312.5 73q120 0 217 -42t157.5 -114.5t83.5 -172t2 -210.5q-11 -61 -39 -115h-758zM693 814q-78 0 -138 -43
t-94 -124h393q1 82 -40 124.5t-121 42.5zM400 1372q14 75 77 126.5t140 51.5q76 0 118.5 -51.5t28.5 -126.5t-76.5 -126.5t-139.5 -51.5t-119.5 51.5t-28.5 126.5zM831 1372q14 75 77 126.5t140 51.5t119 -51.5t28 -126.5t-77 -126.5t-140 -51.5q-76 0 -118.5 51.5
t-28.5 126.5z" />
    <glyph glyph-name="igrave" unicode="&#xec;" horiz-adv-x="614" 
d="M437 1155l-254 310l274 193l173 -370zM15 0l206 1061h379l-206 -1061h-379z" />
    <glyph glyph-name="iacute" unicode="&#xed;" horiz-adv-x="614" 
d="M787 1465l-374 -310l-143 133l318 370zM15 0l206 1061h379l-206 -1061h-379z" />
    <glyph glyph-name="icircumflex" unicode="&#xee;" horiz-adv-x="614" 
d="M15 0l206 1061h379l-206 -1061h-379zM329 1564h356l167 -260l-194 -135l-186 213l-270 -213l-141 135z" />
    <glyph glyph-name="idieresis" unicode="&#xef;" horiz-adv-x="614" 
d="M74 1372q14 75 77 126.5t140 51.5q76 0 118 -51.5t28 -126.5t-76.5 -126.5t-139.5 -51.5t-119 51.5t-28 126.5zM505 1372q14 75 76.5 126.5t139.5 51.5t119 -51.5t28 -126.5t-77 -126.5t-140 -51.5q-76 0 -118 51.5t-28 126.5zM15 0l206 1061h379l-206 -1061h-379z" />
    <glyph glyph-name="eth" unicode="&#xf0;" horiz-adv-x="1291" 
d="M432 1018l-59 144l177 81q-55 34 -154 80l212 236q74 -32 156.5 -80.5t120.5 -82.5l195 89l58 -153l-123 -55q139 -151 193.5 -343t13.5 -404q-46 -235 -241.5 -395t-448.5 -160q-161 0 -281.5 69.5t-174 190t-25.5 265.5t132 265.5t238.5 185.5t264.5 65q78 0 127 -35
q-47 86 -118 154zM422 511q-17 -88 33.5 -147.5t142.5 -59.5q91 0 165 59.5t91 147.5q18 88 -32.5 148t-142.5 60q-91 0 -165 -59.5t-92 -148.5z" />
    <glyph glyph-name="ntilde" unicode="&#xf1;" horiz-adv-x="1267" 
d="M508 570l-111 -570h-379l206 1061h379l-20 -105q126 125 303 125q167 0 256 -110.5t53 -294.5l-131 -676h-379l116 600q13 66 -18 111t-92 45q-64 0 -114.5 -46.5t-68.5 -139.5zM794 1248q-59 34 -80 34q-34 0 -66 -71l-270 55q45 124 118.5 187.5t170.5 63.5
q79 0 150 -43q60 -34 81 -34q37 0 65 70l271 -54q-46 -124 -119.5 -187.5t-170.5 -63.5q-77 0 -150 43z" />
    <glyph glyph-name="ograve" unicode="&#xf2;" horiz-adv-x="1313" 
d="M57 530q30 154 133 281.5t255.5 200.5t319.5 73q168 0 291 -73.5t176 -200.5t23 -281t-132.5 -281.5t-254 -200.5t-319.5 -73q-167 0 -290.5 73t-177.5 200.5t-24 281.5zM429 530q-19 -96 33 -161t150 -65q99 0 176.5 65t96.5 161t-33.5 161.5t-151.5 65.5
q-98 0 -175 -65t-96 -162zM765 1155l-254 310l273 193l173 -370z" />
    <glyph glyph-name="oacute" unicode="&#xf3;" horiz-adv-x="1313" 
d="M57 530q30 154 133 281.5t255.5 200.5t319.5 73q168 0 291 -73.5t176 -200.5t23 -281t-132.5 -281.5t-254 -200.5t-319.5 -73q-167 0 -290.5 73t-177.5 200.5t-24 281.5zM429 530q-19 -96 33 -161t150 -65q99 0 176.5 65t96.5 161t-33.5 161.5t-151.5 65.5
q-98 0 -175 -65t-96 -162zM1160 1465l-375 -310l-142 133l318 370z" />
    <glyph glyph-name="ocircumflex" unicode="&#xf4;" horiz-adv-x="1313" 
d="M57 530q30 154 133 281.5t255.5 200.5t319.5 73q168 0 291 -73.5t176 -200.5t23 -281t-132.5 -281.5t-254 -200.5t-319.5 -73q-167 0 -290.5 73t-177.5 200.5t-24 281.5zM429 530q-19 -96 33 -161t150 -65q99 0 176.5 65t96.5 161t-33.5 161.5t-151.5 65.5
q-98 0 -175 -65t-96 -162zM678 1564h356l167 -260l-193 -135l-187 213l-270 -213l-140 135z" />
    <glyph glyph-name="otilde" unicode="&#xf5;" horiz-adv-x="1313" 
d="M57 530q30 154 133 281.5t255.5 200.5t319.5 73q168 0 291 -73.5t176 -200.5t23 -281t-132.5 -281.5t-254 -200.5t-319.5 -73q-167 0 -290.5 73t-177.5 200.5t-24 281.5zM429 530q-19 -96 33 -161t150 -65q99 0 176.5 65t96.5 161t-33.5 161.5t-151.5 65.5
q-98 0 -175 -65t-96 -162zM806 1248q-59 34 -80 34q-34 0 -66 -71l-270 55q45 124 118.5 187.5t170.5 63.5q79 0 150 -43q60 -34 81 -34q37 0 65 70l271 -54q-46 -124 -119.5 -187.5t-170.5 -63.5q-77 0 -150 43z" />
    <glyph glyph-name="odieresis" unicode="&#xf6;" horiz-adv-x="1313" 
d="M57 530q30 154 133 281.5t255.5 200.5t319.5 73q168 0 291 -73.5t176 -200.5t23 -281t-132.5 -281.5t-254 -200.5t-319.5 -73q-167 0 -290.5 73t-177.5 200.5t-24 281.5zM429 530q-19 -96 33 -161t150 -65q99 0 176.5 65t96.5 161t-33.5 161.5t-151.5 65.5
q-98 0 -175 -65t-96 -162zM423 1372q14 75 77 126.5t140 51.5q76 0 118 -51.5t28 -126.5t-76.5 -126.5t-139.5 -51.5t-119 51.5t-28 126.5zM854 1372q14 75 76.5 126.5t139.5 51.5t119.5 -51.5t28.5 -126.5t-77.5 -126.5t-140.5 -51.5q-76 0 -118 51.5t-28 126.5z" />
    <glyph glyph-name="divide" unicode="&#xf7;" horiz-adv-x="1206" 
d="M1087 520h-972l62 320h973zM506 1105q17 84 85.5 141.5t153.5 57.5t132 -57.5t30 -141.5t-85 -141t-153 -57t-132.5 57.5t-30.5 140.5zM341 254q17 84 85.5 141t153.5 57t132 -57.5t30 -140.5q-17 -84 -85.5 -141t-153.5 -57t-132 57.5t-30 140.5z" />
    <glyph glyph-name="oslash" unicode="&#xf8;" horiz-adv-x="1313" 
d="M57 530q30 154 133 281.5t255.5 200.5t319.5 73q142 0 253 -54l143 149l135 -118l-134 -138q66 -75 91 -177t2 -217q-30 -154 -132.5 -281.5t-254 -200.5t-319.5 -73q-140 0 -255 55l-144 -149l-137 116l138 141q-66 76 -91 177t-3 215zM898 530q12 62 -7 114l-337 -346
q24 -7 56 -7q103 0 185.5 69t102.5 170zM416 530q-11 -60 6 -112l335 344q-26 8 -54 8q-102 0 -184.5 -69t-102.5 -171z" />
    <glyph glyph-name="ugrave" unicode="&#xf9;" horiz-adv-x="1267" 
d="M760 494l110 567h379l-206 -1061h-378l19 102q-125 -122 -302 -122q-167 0 -256 110t-54 294l132 677h379l-117 -601q-13 -66 17.5 -111t91.5 -45q65 0 115.5 48t69.5 142zM726 1155l-254 310l273 193l174 -370z" />
    <glyph glyph-name="uacute" unicode="&#xfa;" horiz-adv-x="1267" 
d="M760 494l110 567h379l-206 -1061h-378l19 102q-125 -122 -302 -122q-167 0 -256 110t-54 294l132 677h379l-117 -601q-13 -66 17.5 -111t91.5 -45q65 0 115.5 48t69.5 142zM1129 1465l-374 -310l-143 133l318 370z" />
    <glyph glyph-name="ucircumflex" unicode="&#xfb;" horiz-adv-x="1267" 
d="M760 494l110 567h379l-206 -1061h-378l19 102q-125 -122 -302 -122q-167 0 -256 110t-54 294l132 677h379l-117 -601q-13 -66 17.5 -111t91.5 -45q65 0 115.5 48t69.5 142zM645 1564h356l167 -260l-193 -135l-187 213l-270 -213l-140 135z" />
    <glyph glyph-name="udieresis" unicode="&#xfc;" horiz-adv-x="1267" 
d="M760 494l110 567h379l-206 -1061h-378l19 102q-125 -122 -302 -122q-167 0 -256 110t-54 294l132 677h379l-117 -601q-13 -66 17.5 -111t91.5 -45q65 0 115.5 48t69.5 142zM390 1372q14 75 77 126.5t140 51.5q76 0 118.5 -51.5t28.5 -126.5t-76.5 -126.5t-139.5 -51.5
t-119.5 51.5t-28.5 126.5zM821 1372q14 75 76.5 126.5t139.5 51.5t119.5 -51.5t28.5 -126.5t-77 -126.5t-140 -51.5q-76 0 -118.5 51.5t-28.5 126.5z" />
    <glyph glyph-name="yacute" unicode="&#xfd;" horiz-adv-x="1136" 
d="M826 1061h397l-833 -1536h-397l290 475l-163 1061h396l42 -581zM1072 1465l-375 -310l-142 133l317 370z" />
    <glyph glyph-name="thorn" unicode="&#xfe;" horiz-adv-x="1353" 
d="M1296 530q-46 -237 -212.5 -396t-378.5 -159q-192 0 -296 133l-114 -583h-369l383 1970h369l-106 -542q154 132 349 132q140 0 236.5 -73.5t132.5 -200t6 -281.5zM925 530q19 96 -31 161.5t-141 65.5q-92 0 -168 -65.5t-95 -161.5t32 -161t143 -65q91 0 166 65t94 161z
" />
    <glyph glyph-name="ydieresis" unicode="&#xff;" horiz-adv-x="1136" 
d="M826 1061h397l-833 -1536h-397l290 475l-163 1061h396l42 -581zM335 1372q14 75 77 126.5t140 51.5q76 0 118 -51.5t28 -126.5t-76.5 -126.5t-139.5 -51.5t-119 51.5t-28 126.5zM766 1372q14 75 76.5 126.5t139.5 51.5t119 -51.5t28 -126.5t-77 -126.5t-140 -51.5
q-76 0 -118 51.5t-28 126.5z" />
    <glyph glyph-name="Amacron" unicode="&#x100;" horiz-adv-x="1430" 
d="M679 1434h424l204 -1434h-401l-26 274h-429l-133 -274h-400zM812 1030l-222 -460h266zM579 1566l52 272h676l-53 -272h-675z" />
    <glyph glyph-name="amacron" unicode="&#x101;" horiz-adv-x="1353" 
d="M57 530q30 155 116 281.5t211.5 200t265.5 73.5q190 0 295 -132l22 108h368l-206 -1061h-368l20 108q-157 -133 -347 -133q-140 0 -237 73.5t-133.5 200t-6.5 281.5zM429 530q-19 -96 31.5 -161t141.5 -65t166.5 65t94.5 161t-31.5 161.5t-141.5 65.5t-166.5 -65.5
t-94.5 -161.5zM464 1234l52 272h676l-52 -272h-676z" />
    <glyph glyph-name="Abreve" unicode="&#x102;" horiz-adv-x="1430" 
d="M679 1434h424l204 -1434h-401l-26 274h-429l-133 -274h-400zM812 1030l-222 -460h266zM908 1524q-157 0 -254.5 91t-74.5 230h292q-7 -41 16.5 -68t64.5 -27t74.5 27t43.5 68h293q-31 -139 -164.5 -230t-290.5 -91z" />
    <glyph glyph-name="abreve" unicode="&#x103;" horiz-adv-x="1353" 
d="M57 530q30 155 116 281.5t211.5 200t265.5 73.5q190 0 295 -132l22 108h368l-206 -1061h-368l20 108q-157 -133 -347 -133q-140 0 -237 73.5t-133.5 200t-6.5 281.5zM429 530q-19 -96 31.5 -161t141.5 -65t166.5 65t94.5 161t-31.5 161.5t-141.5 65.5t-166.5 -65.5
t-94.5 -161.5zM794 1192q-157 0 -255 91t-75 230h293q-7 -41 16.5 -68t64.5 -27t74 27t43 68h293q-31 -139 -164 -230t-290 -91z" />
    <glyph glyph-name="Aogonek" unicode="&#x104;" horiz-adv-x="1430" 
d="M1069 0h-163q-10 87 -26 274h-429q-22 -46 -66.5 -137t-66.5 -137h-400l761 1434h424l204 -1434q-198 -129 -218 -237q-9 -44 6 -69t46 -25q34 0 61 28t40 74h234q-41 -138 -142 -213t-250 -75q-126 0 -202.5 70.5t-55.5 174.5q14 73 80.5 145t162.5 127zM812 1030
l-222 -460h266z" />
    <glyph glyph-name="aogonek" unicode="&#x105;" horiz-adv-x="1353" 
d="M57 530q30 155 116 281.5t211.5 200t265.5 73.5q190 0 295 -132l22 108h368l-206 -1061q-198 -131 -217 -237q-9 -45 6 -70t46 -25q34 0 61 28t40 75h234q-41 -138 -142 -213t-249 -75q-126 0 -203 70t-56 174q14 74 80.5 146t163.5 127h-132l20 108q-157 -133 -347 -133
q-140 0 -237 73.5t-133.5 200t-6.5 281.5zM429 530q-19 -96 31.5 -161t141.5 -65t166.5 65t94.5 161t-31.5 161.5t-141.5 65.5t-166.5 -65.5t-94.5 -161.5z" />
    <glyph glyph-name="Cacute" unicode="&#x106;" horiz-adv-x="1550" 
d="M717 -25q-158 0 -286.5 57.5t-209 156.5t-111.5 236.5t-1 291.5q41 210 165.5 379t311 265.5t398.5 96.5q256 0 410.5 -142.5t158.5 -396.5h-411q-6 93 -64.5 147.5t-151.5 54.5q-157 0 -274.5 -114t-151.5 -290q-34 -174 47.5 -290t242.5 -116q132 0 243.5 54.5
t220.5 169.5l179 -157q-144 -189 -324 -296t-392 -107zM1339 1797l-374 -310l-143 133l318 370z" />
    <glyph glyph-name="cacute" unicode="&#x107;" horiz-adv-x="1208" 
d="M937 444l147 -144q-231 -325 -559 -325q-117 0 -215 43t-161 117t-88.5 177t-3.5 218q30 154 128 281.5t241.5 200.5t301.5 73q212 0 331.5 -119t115.5 -315h-376q-17 106 -135 106q-79 0 -147.5 -66t-87.5 -161q-19 -99 30.5 -162.5t160.5 -63.5q168 0 317 140z
M1089 1465l-375 -310l-143 133l318 370z" />
    <glyph glyph-name="Ccircumflex" unicode="&#x108;" horiz-adv-x="1550" 
d="M717 -25q-158 0 -286.5 57.5t-209 156.5t-111.5 236.5t-1 291.5q41 210 165.5 379t311 265.5t398.5 96.5q256 0 410.5 -142.5t158.5 -396.5h-411q-6 93 -64.5 147.5t-151.5 54.5q-157 0 -274.5 -114t-151.5 -290q-34 -174 47.5 -290t242.5 -116q132 0 243.5 54.5
t220.5 169.5l179 -157q-144 -189 -324 -296t-392 -107zM895 1895h356l167 -260l-193 -134l-187 213l-270 -213l-140 134z" />
    <glyph glyph-name="ccircumflex" unicode="&#x109;" horiz-adv-x="1208" 
d="M937 444l147 -144q-231 -325 -559 -325q-117 0 -215 43t-161 117t-88.5 177t-3.5 218q30 154 128 281.5t241.5 200.5t301.5 73q212 0 331.5 -119t115.5 -315h-376q-17 106 -135 106q-79 0 -147.5 -66t-87.5 -161q-19 -99 30.5 -162.5t160.5 -63.5q168 0 317 140z
M636 1564h356l167 -260l-193 -135l-187 213l-270 -213l-140 135z" />
    <glyph glyph-name="Cdotaccent" unicode="&#x10a;" horiz-adv-x="1550" 
d="M717 -25q-158 0 -286.5 57.5t-209 156.5t-111.5 236.5t-1 291.5q41 210 165.5 379t311 265.5t398.5 96.5q256 0 410.5 -142.5t158.5 -396.5h-411q-6 93 -64.5 147.5t-151.5 54.5q-157 0 -274.5 -114t-151.5 -290q-34 -174 47.5 -290t242.5 -116q132 0 243.5 54.5
t220.5 169.5l179 -157q-144 -189 -324 -296t-392 -107zM845 1704q15 77 80.5 131t144.5 54t124 -54t30 -131t-81 -131.5t-145 -54.5t-123.5 54.5t-29.5 131.5z" />
    <glyph glyph-name="cdotaccent" unicode="&#x10b;" horiz-adv-x="1208" 
d="M937 444l147 -144q-231 -325 -559 -325q-117 0 -215 43t-161 117t-88.5 177t-3.5 218q30 154 128 281.5t241.5 200.5t301.5 73q212 0 331.5 -119t115.5 -315h-376q-17 106 -135 106q-79 0 -147.5 -66t-87.5 -161q-19 -99 30.5 -162.5t160.5 -63.5q168 0 317 140z
M602 1372q15 77 80.5 131.5t144.5 54.5t124 -54.5t30 -131.5t-80.5 -131.5t-144.5 -54.5t-124 54.5t-30 131.5z" />
    <glyph glyph-name="Ccaron" unicode="&#x10c;" horiz-adv-x="1550" 
d="M717 -25q-158 0 -286.5 57.5t-209 156.5t-111.5 236.5t-1 291.5q41 210 165.5 379t311 265.5t398.5 96.5q256 0 410.5 -142.5t158.5 -396.5h-411q-6 93 -64.5 147.5t-151.5 54.5q-157 0 -274.5 -114t-151.5 -290q-34 -174 47.5 -290t242.5 -116q132 0 243.5 54.5
t220.5 169.5l179 -157q-144 -189 -324 -296t-392 -107zM1184 1544h-357l-167 260l193 134l187 -213l270 213l141 -134z" />
    <glyph glyph-name="ccaron" unicode="&#x10d;" horiz-adv-x="1208" 
d="M937 444l147 -144q-231 -325 -559 -325q-117 0 -215 43t-161 117t-88.5 177t-3.5 218q30 154 128 281.5t241.5 200.5t301.5 73q212 0 331.5 -119t115.5 -315h-376q-17 106 -135 106q-79 0 -147.5 -66t-87.5 -161q-19 -99 30.5 -162.5t160.5 -63.5q168 0 317 140z
M922 1192h-357l-167 260l194 134l186 -213l271 213l140 -134z" />
    <glyph glyph-name="Dcaron" unicode="&#x10e;" horiz-adv-x="1484" 
d="M591 0h-550l278 1434h550q158 0 282 -52.5t198.5 -147t103.5 -226.5t-4 -291q-41 -211 -163 -374t-303 -253t-392 -90zM495 336h130q166 0 281.5 100t151.5 281q35 180 -42 280t-243 100h-130zM1051 1544h-357l-167 260l193 134l187 -213l270 213l141 -134z" />
    <glyph glyph-name="dcaron" unicode="&#x10f;" horiz-adv-x="1757" 
d="M57 530q30 155 116 281.5t211.5 200t265.5 73.5q190 0 295 -132l106 542h368l-290 -1495h-368l20 108q-157 -133 -347 -133q-140 0 -237 73.5t-133.5 200t-6.5 281.5zM429 530q-19 -96 31.5 -161t141.5 -65t166.5 65t94.5 161t-31.5 161.5t-141.5 65.5t-166.5 -65.5
t-94.5 -161.5zM1498 1348q12 65 78.5 118t156.5 53q83 0 127 -55.5t26 -144.5q-29 -149 -149 -276.5t-321 -192.5l-47 104q112 61 159 108.5t43.5 86.5t-46.5 90q-38 44 -27 109z" />
    <glyph glyph-name="Dcroat" unicode="&#x110;" horiz-adv-x="1527" 
d="M634 0h-550l117 605h-169l44 222h169l117 607h550q158 0 282 -52.5t198.5 -147t103.5 -226.5t-4 -291q-41 -211 -163 -374t-303 -253t-392 -90zM538 336h130q166 0 281.5 100t151.5 281q35 180 -42 280t-243 100h-130l-52 -270h205l-44 -222h-205z" />
    <glyph glyph-name="dcroat" unicode="&#x111;" horiz-adv-x="1386" 
d="M57 530q30 155 115.5 281.5t211.5 200t266 73.5q94 0 170.5 -35t124.5 -97l42 211h-258l39 202h258l25 129h368l-24 -129h134l-39 -202h-134l-227 -1164h-368l20 106q-155 -131 -347 -131q-140 0 -237 73.5t-133.5 199.5t-6.5 282zM429 530q-19 -96 31 -161t141 -65
q92 0 167.5 65t94.5 161t-31.5 161t-142.5 65q-91 0 -166 -65t-94 -161z" />
    <glyph glyph-name="Emacron" unicode="&#x112;" horiz-adv-x="1185" 
d="M41 0l278 1434h934l-63 -326h-544l-44 -227h495l-63 -320h-494l-46 -235h562l-63 -326h-952zM464 1566l52 272h676l-52 -272h-676z" />
    <glyph glyph-name="emacron" unicode="&#x113;" horiz-adv-x="1268" 
d="M416 431q-2 -90 53 -137t163 -47q197 0 358 115l105 -169q-237 -218 -525 -218q-182 0 -310 73.5t-180.5 200t-22.5 281.5q30 154 132 281.5t251.5 200.5t312.5 73q120 0 217 -42t157.5 -114.5t83.5 -172t2 -210.5q-11 -61 -39 -115h-758zM693 814q-78 0 -138 -43
t-94 -124h393q1 82 -40 124.5t-121 42.5zM433 1234l52 272h676l-52 -272h-676z" />
    <glyph glyph-name="Ebreve" unicode="&#x114;" horiz-adv-x="1185" 
d="M41 0l278 1434h934l-63 -326h-544l-44 -227h495l-63 -320h-494l-46 -235h562l-63 -326h-952zM801 1524q-157 0 -255 91t-75 230h293q-7 -41 16.5 -68t64.5 -27t74.5 27t43.5 68h292q-31 -139 -164 -230t-290 -91z" />
    <glyph glyph-name="ebreve" unicode="&#x115;" horiz-adv-x="1268" 
d="M416 431q-2 -90 53 -137t163 -47q197 0 358 115l105 -169q-237 -218 -525 -218q-182 0 -310 73.5t-180.5 200t-22.5 281.5q30 154 132 281.5t251.5 200.5t312.5 73q120 0 217 -42t157.5 -114.5t83.5 -172t2 -210.5q-11 -61 -39 -115h-758zM693 814q-78 0 -138 -43
t-94 -124h393q1 82 -40 124.5t-121 42.5zM763 1192q-157 0 -255 91t-75 230h293q-7 -41 16.5 -68t64.5 -27t74.5 27t43.5 68h293q-31 -139 -164.5 -230t-290.5 -91z" />
    <glyph glyph-name="Edotaccent" unicode="&#x116;" horiz-adv-x="1185" 
d="M41 0l278 1434h934l-63 -326h-544l-44 -227h495l-63 -320h-494l-46 -235h562l-63 -326h-952zM653 1704q15 77 81 131t145 54t123.5 -54t29.5 -131t-80.5 -131.5t-144.5 -54.5t-124 54.5t-30 131.5z" />
    <glyph glyph-name="edotaccent" unicode="&#x117;" horiz-adv-x="1268" 
d="M416 431q-2 -90 53 -137t163 -47q197 0 358 115l105 -169q-237 -218 -525 -218q-182 0 -310 73.5t-180.5 200t-22.5 281.5q30 154 132 281.5t251.5 200.5t312.5 73q120 0 217 -42t157.5 -114.5t83.5 -172t2 -210.5q-11 -61 -39 -115h-758zM693 814q-78 0 -138 -43
t-94 -124h393q1 82 -40 124.5t-121 42.5zM608 1372q15 77 81 131.5t145 54.5t123.5 -54.5t29.5 -131.5t-80.5 -131.5t-144.5 -54.5t-124 54.5t-30 131.5z" />
    <glyph glyph-name="Eogonek" unicode="&#x118;" horiz-adv-x="1185" 
d="M41 0l278 1434h934l-63 -326h-544l-44 -227h495l-63 -320h-494l-46 -235h562l-63 -326h-164q-198 -130 -218 -237q-9 -45 6 -70t47 -25q34 0 61 28t39 75h234q-41 -139 -141.5 -213.5t-249.5 -74.5q-126 0 -202.5 70t-55.5 174q14 74 80 146t163 127h-551z" />
    <glyph glyph-name="eogonek" unicode="&#x119;" horiz-adv-x="1268" 
d="M416 431q-2 -90 53 -137t163 -47q197 0 358 115l105 -169q-185 -170 -401 -207q-178 -123 -196 -223q-9 -45 6 -70t46 -25q34 0 61 28t40 75h234q-40 -138 -141 -213t-250 -75q-126 0 -202.5 70t-55.5 174q13 69 71 136t146 122q-220 33 -328 184t-68 361
q30 154 132 281.5t251.5 200.5t312.5 73q120 0 217 -42t157.5 -114.5t83.5 -172t2 -210.5q-11 -61 -39 -115h-758zM693 814q-78 0 -138 -43t-94 -124h393q1 82 -40 124.5t-121 42.5z" />
    <glyph glyph-name="Ecaron" unicode="&#x11a;" horiz-adv-x="1185" 
d="M41 0l278 1434h934l-63 -326h-544l-44 -227h495l-63 -320h-494l-46 -235h562l-63 -326h-952zM981 1544h-356l-167 260l192 134l188 -213l269 213l141 -134z" />
    <glyph glyph-name="ecaron" unicode="&#x11b;" horiz-adv-x="1268" 
d="M416 431q-2 -90 53 -137t163 -47q197 0 358 115l105 -169q-237 -218 -525 -218q-182 0 -310 73.5t-180.5 200t-22.5 281.5q30 154 132 281.5t251.5 200.5t312.5 73q120 0 217 -42t157.5 -114.5t83.5 -172t2 -210.5q-11 -61 -39 -115h-758zM693 814q-78 0 -138 -43
t-94 -124h393q1 82 -40 124.5t-121 42.5zM940 1192h-356l-167 260l193 134l187 -213l270 213l140 -134z" />
    <glyph glyph-name="Gcircumflex" unicode="&#x11c;" horiz-adv-x="1569" 
d="M824 780h722l-12 -63q-44 -227 -163.5 -396t-293 -257.5t-379.5 -88.5q-147 0 -271 58t-204 156.5t-111.5 236.5t-1.5 291q30 154 113 291.5t199.5 236t263.5 156t300 57.5q124 0 224.5 -31.5t177.5 -95t122 -166t51 -236.5h-415q-27 193 -231 193q-139 0 -260 -114.5
t-155 -290.5q-34 -175 42.5 -290.5t228.5 -115.5q107 0 192.5 55t132.5 148h-324zM895 1895h356l167 -260l-193 -134l-187 213l-270 -213l-140 134z" />
    <glyph glyph-name="gcircumflex" unicode="&#x11d;" horiz-adv-x="1353" 
d="M57 530q30 155 116 281.5t211.5 200t265.5 73.5q190 0 295 -132l22 108h368l-192 -988q-50 -259 -233.5 -403.5t-447.5 -144.5q-306 0 -479 232l171 190q72 -65 142.5 -93.5t162.5 -28.5q121 0 205.5 60t105.5 165l14 76q-156 -130 -346 -130q-139 0 -236.5 72.5
t-135 194.5t-9.5 267zM429 530q-19 -96 31.5 -161t141.5 -65t166.5 65t94.5 161t-31.5 161.5t-141.5 65.5t-166.5 -65.5t-94.5 -161.5zM706 1564h356l167 -260l-194 -135l-186 213l-270 -213l-141 135z" />
    <glyph glyph-name="Gbreve" unicode="&#x11e;" horiz-adv-x="1569" 
d="M824 780h722l-12 -63q-44 -227 -163.5 -396t-293 -257.5t-379.5 -88.5q-147 0 -271 58t-204 156.5t-111.5 236.5t-1.5 291q30 154 113 291.5t199.5 236t263.5 156t300 57.5q124 0 224.5 -31.5t177.5 -95t122 -166t51 -236.5h-415q-27 193 -231 193q-139 0 -260 -114.5
t-155 -290.5q-34 -175 42.5 -290.5t228.5 -115.5q107 0 192.5 55t132.5 148h-324zM1002 1524q-157 0 -254.5 91t-74.5 230h293q-7 -41 16.5 -68t64.5 -27t74 27t43 68h293q-31 -139 -164.5 -230t-290.5 -91z" />
    <glyph glyph-name="gbreve" unicode="&#x11f;" horiz-adv-x="1353" 
d="M57 530q30 155 116 281.5t211.5 200t265.5 73.5q190 0 295 -132l22 108h368l-192 -988q-50 -259 -233.5 -403.5t-447.5 -144.5q-306 0 -479 232l171 190q72 -65 142.5 -93.5t162.5 -28.5q121 0 205.5 60t105.5 165l14 76q-156 -130 -346 -130q-139 0 -236.5 72.5
t-135 194.5t-9.5 267zM429 530q-19 -96 31.5 -161t141.5 -65t166.5 65t94.5 161t-31.5 161.5t-141.5 65.5t-166.5 -65.5t-94.5 -161.5zM794 1192q-157 0 -255 91t-75 230h293q-7 -41 16.5 -68t64.5 -27t74 27t43 68h293q-31 -139 -164 -230t-290 -91z" />
    <glyph glyph-name="Gdotaccent" unicode="&#x120;" horiz-adv-x="1569" 
d="M824 780h722l-12 -63q-44 -227 -163.5 -396t-293 -257.5t-379.5 -88.5q-147 0 -271 58t-204 156.5t-111.5 236.5t-1.5 291q30 154 113 291.5t199.5 236t263.5 156t300 57.5q124 0 224.5 -31.5t177.5 -95t122 -166t51 -236.5h-415q-27 193 -231 193q-139 0 -260 -114.5
t-155 -290.5q-34 -175 42.5 -290.5t228.5 -115.5q107 0 192.5 55t132.5 148h-324zM845 1704q15 77 80.5 131t144.5 54t124 -54t30 -131t-81 -131.5t-145 -54.5t-123.5 54.5t-29.5 131.5z" />
    <glyph glyph-name="gdotaccent" unicode="&#x121;" horiz-adv-x="1353" 
d="M57 530q30 155 116 281.5t211.5 200t265.5 73.5q190 0 295 -132l22 108h368l-192 -988q-50 -259 -233.5 -403.5t-447.5 -144.5q-306 0 -479 232l171 190q72 -65 142.5 -93.5t162.5 -28.5q121 0 205.5 60t105.5 165l14 76q-156 -130 -346 -130q-139 0 -236.5 72.5
t-135 194.5t-9.5 267zM429 530q-19 -96 31.5 -161t141.5 -65t166.5 65t94.5 161t-31.5 161.5t-141.5 65.5t-166.5 -65.5t-94.5 -161.5zM637 1372q15 77 80.5 131.5t144.5 54.5t124 -54.5t30 -131.5t-80.5 -131.5t-144.5 -54.5t-124 54.5t-30 131.5z" />
    <glyph glyph-name="Gcommaaccent" unicode="&#x122;" horiz-adv-x="1569" 
d="M824 780h722l-12 -63q-44 -227 -163.5 -396t-293 -257.5t-379.5 -88.5q-147 0 -271 58t-204 156.5t-111.5 236.5t-1.5 291q30 154 113 291.5t199.5 236t263.5 156t300 57.5q124 0 224.5 -31.5t177.5 -95t122 -166t51 -236.5h-415q-27 193 -231 193q-139 0 -260 -114.5
t-155 -290.5q-34 -175 42.5 -290.5t228.5 -115.5q107 0 192.5 55t132.5 148h-324zM649 -58l200 -193l-375 -311l-141 134z" />
    <glyph glyph-name="gcommaaccent" unicode="&#x123;" horiz-adv-x="1353" 
d="M57 530q30 155 116 281.5t211.5 200t265.5 73.5q190 0 295 -132l22 108h368l-192 -988q-50 -259 -233.5 -403.5t-447.5 -144.5q-306 0 -479 232l171 190q72 -65 142.5 -93.5t162.5 -28.5q121 0 205.5 60t105.5 165l14 76q-156 -130 -346 -130q-139 0 -236.5 72.5
t-135 194.5t-9.5 267zM429 530q-19 -96 31.5 -161t141.5 -65t166.5 65t94.5 161t-31.5 161.5t-141.5 65.5t-166.5 -65.5t-94.5 -161.5zM837 1127l-200 193l375 311l141 -134z" />
    <glyph glyph-name="Hcircumflex" unicode="&#x124;" horiz-adv-x="1463" 
d="M41 0l278 1434h391l-107 -545h396l107 545h389l-278 -1434h-390l107 553h-396l-107 -553h-390zM817 1895h357l166 -260l-193 -134l-186 213l-271 -213l-140 134z" />
    <glyph glyph-name="hcircumflex" unicode="&#x125;" horiz-adv-x="1267" 
d="M508 570l-111 -570h-379l290 1495h379l-104 -539q131 129 309 129q165 0 251.5 -113.5t51.5 -295.5l-131 -676h-379l116 600q14 71 -15.5 113.5t-94.5 42.5q-64 0 -114.5 -46.5t-68.5 -139.5zM407 1957h356l167 -260l-194 -134l-186 213l-270 -213l-141 134z" />
    <glyph glyph-name="Hbar" unicode="&#x126;" horiz-adv-x="1477" 
d="M48 0l202 1041h-123l42 214h123l35 179h390l-35 -179h396l35 179h389l-35 -179h123l-42 -214h-123l-201 -1041h-389l108 561h-396l-109 -561h-390zM609 881h397l30 160h-396z" />
    <glyph glyph-name="hbar" unicode="&#x127;" horiz-adv-x="1295" 
d="M144 1164l39 202h128l25 129h379l-25 -129h253l-39 -202h-253l-41 -208q127 126 306 126q166 0 254 -111.5t53 -294.5l-131 -676h-379l115 600q13 66 -17.5 111t-91.5 45q-65 0 -115 -47.5t-69 -142.5l-110 -566h-379l226 1164h-128z" />
    <glyph glyph-name="Itilde" unicode="&#x128;" horiz-adv-x="681" 
d="M712 1434l-279 -1434h-390l279 1434h390zM557 1587q-60 34 -81 34q-35 0 -64 -71l-272 55q92 250 290 250q80 0 151 -43q57 -33 79 -33q35 0 66 70l270 -54q-91 -251 -288 -251q-78 0 -151 43z" />
    <glyph glyph-name="itilde" unicode="&#x129;" horiz-adv-x="614" 
d="M457 1248q-59 34 -80 34q-34 0 -66 -71l-270 55q45 124 118.5 187.5t170.5 63.5q79 0 150 -43q60 -34 81 -34q37 0 65 70l271 -54q-46 -124 -119.5 -187.5t-170.5 -63.5q-77 0 -150 43zM15 0l206 1061h379l-206 -1061h-379z" />
    <glyph glyph-name="Imacron" unicode="&#x12a;" horiz-adv-x="681" 
d="M712 1434l-279 -1434h-390l279 1434h390zM205 1566l52 272h676l-52 -272h-676z" />
    <glyph glyph-name="imacron" unicode="&#x12b;" horiz-adv-x="614" 
d="M106 1234l53 272h676l-53 -272h-676zM15 0l206 1061h379l-206 -1061h-379z" />
    <glyph glyph-name="Ibreve" unicode="&#x12c;" horiz-adv-x="681" 
d="M712 1434l-279 -1434h-390l279 1434h390zM535 1524q-157 0 -255 91t-75 230h293q-7 -41 16.5 -68t64.5 -27t74 27t43 68h293q-31 -139 -164 -230t-290 -91z" />
    <glyph glyph-name="ibreve" unicode="&#x12d;" horiz-adv-x="614" 
d="M436 1192q-157 0 -255 91t-75 230h293q-7 -41 16.5 -68t64.5 -27t74.5 27t43.5 68h293q-31 -139 -164.5 -230t-290.5 -91zM15 0l206 1061h379l-206 -1061h-379z" />
    <glyph glyph-name="Iogonek" unicode="&#x12e;" horiz-adv-x="681" 
d="M197 0h-153l279 1434h389l-279 -1434q-199 -131 -218 -237q-9 -45 6 -70t46 -25q34 0 61.5 28t40.5 75h234q-41 -138 -142 -213t-249 -75q-126 0 -203 70t-56 174q14 74 80.5 146t163.5 127z" />
    <glyph glyph-name="iogonek" unicode="&#x12f;" horiz-adv-x="614" 
d="M15 0l206 1061h379l-206 -1061q-198 -130 -218 -237q-9 -45 5.5 -70t46.5 -25q34 0 61.5 28t39.5 75h234q-41 -138 -142 -213t-249 -75q-126 0 -202 70t-56 174q14 74 80 146t163 127h-142zM253 1332q17 84 88.5 140.5t160.5 56.5t138.5 -56.5t32.5 -140.5
q-17 -83 -88 -139.5t-160 -56.5t-138.5 56.5t-33.5 139.5z" />
    <glyph glyph-name="Idotaccent" unicode="&#x130;" horiz-adv-x="681" 
d="M712 1434l-279 -1434h-390l279 1434h390zM380 1704q15 77 80.5 131t144.5 54t124 -54t30 -131t-80.5 -131.5t-144.5 -54.5t-124 54.5t-30 131.5z" />
    <glyph glyph-name="dotlessi" unicode="&#x131;" horiz-adv-x="614" 
d="M15 0l206 1061h379l-206 -1061h-379z" />
    <glyph glyph-name="IJ" unicode="&#x132;" horiz-adv-x="1607" 
d="M712 1434l-279 -1434h-390l279 1434h390zM1079 487l185 947h389l-191 -977q-30 -158 -110.5 -269t-186 -162t-228.5 -51q-221 0 -362 135l148 252q80 -51 166 -51q71 0 122.5 46.5t67.5 129.5z" />
    <glyph glyph-name="ij" unicode="&#x133;" horiz-adv-x="1228" 
d="M15 0l206 1061h379l-206 -1061h-379zM253 1332q17 84 88.5 140.5t160.5 56.5t138.5 -56.5t32.5 -140.5q-17 -83 -88 -139.5t-160 -56.5t-138.5 56.5t-33.5 139.5zM618 -55l218 1116h378l-227 -1167q-33 -169 -160.5 -269t-306.5 -100q-79 0 -132 21l59 303h58
q95 0 113 96zM867 1332q17 84 88.5 140.5t160.5 56.5t138.5 -56.5t32.5 -140.5q-17 -83 -88 -139.5t-160 -56.5t-138.5 56.5t-33.5 139.5z" />
    <glyph glyph-name="Jcircumflex" unicode="&#x134;" horiz-adv-x="965" 
d="M438 487l185 947h389l-191 -977q-30 -158 -110.5 -269t-186 -162t-228.5 -51q-221 0 -362 135l148 252q80 -51 166 -51q71 0 122.5 46.5t67.5 129.5zM729 1895h356l167 -260l-193 -134l-187 213l-270 -213l-140 134z" />
    <glyph glyph-name="jcircumflex" unicode="&#x135;" horiz-adv-x="614" 
d="M4 -55l217 1116h379l-227 -1167q-33 -169 -160.5 -269t-306.5 -100q-74 0 -132 14l60 310h57q95 0 113 96zM329 1564h356l167 -260l-194 -135l-186 213l-270 -213l-141 135z" />
    <glyph glyph-name="Kcommaaccent" unicode="&#x136;" horiz-adv-x="1317" 
d="M1044 1434h390q-106 -540 -386 -732l208 -702h-415l-169 585h-128l-113 -585h-390l278 1434h391l-101 -513h50q147 0 239 119t146 394zM514 -58l200 -193l-375 -311l-141 134z" />
    <glyph glyph-name="kcommaaccent" unicode="&#x137;" horiz-adv-x="1166" 
d="M825 1061h379q-78 -397 -293 -547l141 -514h-406l-93 412h-76l-80 -412h-379l290 1495h379l-147 -759h51q171 0 234 325zM398 -58l200 -193l-375 -311l-141 134z" />
    <glyph glyph-name="kgreenlandic" unicode="&#x138;" horiz-adv-x="1166" 
d="M826 1061h378q-77 -396 -293 -546l141 -515h-405l-89 413h-81l-80 -413h-378l206 1061h378l-63 -325h52q171 0 234 325z" />
    <glyph glyph-name="Lacute" unicode="&#x139;" horiz-adv-x="1080" 
d="M41 0l278 1434h391l-214 -1099h521l-65 -335h-911zM928 1797l-375 -310l-142 133l317 370z" />
    <glyph glyph-name="lacute" unicode="&#x13a;" horiz-adv-x="614" 
d="M15 0l290 1495h379l-290 -1495h-379zM861 1859l-375 -311l-141 133l318 370z" />
    <glyph glyph-name="Lcommaaccent" unicode="&#x13b;" horiz-adv-x="1080" 
d="M41 0l278 1434h391l-214 -1099h521l-65 -335h-911zM422 -58l200 -193l-375 -311l-142 134z" />
    <glyph glyph-name="lcommaaccent" unicode="&#x13c;" horiz-adv-x="614" 
d="M15 0l290 1495h379l-290 -1495h-379zM129 -58l200 -193l-375 -311l-140 134z" />
    <glyph glyph-name="Lcaron" unicode="&#x13d;" horiz-adv-x="1101" 
d="M41 0l278 1434h391l-214 -1099h521l-65 -335h-911zM814 1286q12 65 78 118t156 53q83 0 127 -55.5t26 -144.5q-29 -149 -149 -276.5t-321 -192.5l-47 105q113 61 160 108.5t43.5 86.5t-47.5 90q-38 44 -26 108z" />
    <glyph glyph-name="lcaron" unicode="&#x13e;" horiz-adv-x="1020" 
d="M15 0l290 1495h379l-290 -1495h-379zM762 1348q12 65 78 118t156 53q83 0 127.5 -55.5t26.5 -144.5q-29 -149 -149 -276.5t-321 -192.5l-47 104q85 46 132 83t61 70.5t4 63.5t-42 68q-37 43 -26 109z" />
    <glyph glyph-name="Ldot" unicode="&#x13f;" horiz-adv-x="1084" 
d="M41 0l278 1434h391l-214 -1099h521l-65 -335h-911zM703 801q14 77 80 131t146 54q79 0 123 -53.5t30 -131.5q-15 -78 -81 -132.5t-145 -54.5t-123.5 54.5t-29.5 132.5z" />
    <glyph glyph-name="ldot" unicode="&#x140;" horiz-adv-x="985" 
d="M15 0l290 1495h379l-290 -1495h-379zM627 770q14 77 79.5 131t145.5 54q79 0 123.5 -54t30.5 -131q-15 -77 -81.5 -131.5t-145.5 -54.5t-123 54t-29 132z" />
    <glyph glyph-name="Lslash" unicode="&#x141;" horiz-adv-x="1103" 
d="M65 0l95 492l-101 -47l-63 196l212 97l135 696h389l-96 -496l260 122l67 -193l-375 -176l-70 -356h522l-64 -335h-911z" />
    <glyph glyph-name="lslash" unicode="&#x142;" horiz-adv-x="695" 
d="M55 0l108 554l-101 -46l-63 195l211 97l135 695h379l-98 -505l101 46l67 -192l-215 -99l-145 -745h-379z" />
    <glyph glyph-name="Nacute" unicode="&#x143;" horiz-adv-x="1463" 
d="M41 0l278 1434h419l230 -876l171 876h356l-278 -1434h-418l-231 876l-170 -876h-357zM1298 1797l-374 -310l-143 133l318 370z" />
    <glyph glyph-name="nacute" unicode="&#x144;" horiz-adv-x="1267" 
d="M508 570l-111 -570h-379l206 1061h379l-20 -105q126 125 303 125q167 0 256 -110.5t53 -294.5l-131 -676h-379l116 600q13 66 -18 111t-92 45q-64 0 -114.5 -46.5t-68.5 -139.5zM1139 1465l-375 -310l-142 133l317 370z" />
    <glyph glyph-name="Ncommaaccent" unicode="&#x145;" horiz-adv-x="1463" 
d="M41 0l278 1434h419l230 -876l171 876h356l-278 -1434h-418l-231 876l-170 -876h-357zM568 -58l200 -193l-375 -311l-141 134z" />
    <glyph glyph-name="ncommaaccent" unicode="&#x146;" horiz-adv-x="1267" 
d="M508 570l-111 -570h-379l206 1061h379l-20 -105q126 125 303 125q167 0 256 -110.5t53 -294.5l-131 -676h-379l116 600q13 66 -18 111t-92 45q-64 0 -114.5 -46.5t-68.5 -139.5zM473 -58l200 -193l-375 -311l-141 134z" />
    <glyph glyph-name="Ncaron" unicode="&#x147;" horiz-adv-x="1463" 
d="M41 0l278 1434h419l230 -876l171 876h356l-278 -1434h-418l-231 876l-170 -876h-357zM1106 1544h-356l-167 260l192 134l188 -213l269 213l141 -134z" />
    <glyph glyph-name="ncaron" unicode="&#x148;" horiz-adv-x="1267" 
d="M508 570l-111 -570h-379l206 1061h379l-20 -105q126 125 303 125q167 0 256 -110.5t53 -294.5l-131 -676h-379l116 600q13 66 -18 111t-92 45q-64 0 -114.5 -46.5t-68.5 -139.5zM945 1192h-356l-167 260l193 134l187 -213l270 213l140 -134z" />
    <glyph glyph-name="napostrophe" unicode="&#x149;" horiz-adv-x="1564" 
d="M805 570l-111 -570h-379l206 1061h379l-20 -105q126 125 303 125q167 0 256 -110.5t53 -294.5l-131 -676h-379l116 600q13 66 -18 111t-92 45q-64 0 -114.5 -46.5t-68.5 -139.5zM200 1348q12 65 78 118t156 53q83 0 127.5 -55.5t26.5 -144.5q-29 -149 -149 -276.5
t-321 -192.5l-47 104q85 46 132 83t61 70.5t4 63.5t-42 68q-37 43 -26 109z" />
    <glyph glyph-name="Eng" unicode="&#x14a;" horiz-adv-x="1463" 
d="M1495 1434l-299 -1538q-34 -172 -173 -271.5t-346 -99.5q-69 0 -122 15l53 272q46 -8 104 -8q54 0 87 25.5t42 72.5l21 113l-295 862l-170 -877h-356l278 1434h369l287 -840l164 840h356z" />
    <glyph glyph-name="eng" unicode="&#x14b;" horiz-adv-x="1267" 
d="M508 570l-111 -570h-379l206 1061h379l-20 -105q131 129 309 129q165 0 251.5 -113.5t51.5 -295.5l-152 -780q-34 -172 -174 -271.5t-347 -99.5q-77 0 -137 15l53 272q45 -8 99 -8q51 0 85.5 26t43.5 72l135 698q13 66 -18 111t-92 45q-64 0 -114.5 -46.5t-68.5 -139.5z
" />
    <glyph glyph-name="Omacron" unicode="&#x14c;" horiz-adv-x="1703" 
d="M500 717q-34 -173 55 -289.5t255 -116.5t300 116.5t168 289.5q33 173 -55.5 289t-254.5 116t-300.5 -116t-167.5 -289zM110 717q40 206 175 376t332.5 267.5t414.5 97.5t377 -97.5t229.5 -267.5t29.5 -376q-30 -154 -117 -291.5t-210 -236.5t-278.5 -156.5t-318.5 -57.5
t-296.5 57.5t-217.5 156.5t-117 236.5t-3 291.5zM716 1566l52 272h676l-52 -272h-676z" />
    <glyph glyph-name="omacron" unicode="&#x14d;" horiz-adv-x="1313" 
d="M57 530q30 154 133 281.5t255.5 200.5t319.5 73q168 0 291 -73.5t176 -200.5t23 -281t-132.5 -281.5t-254 -200.5t-319.5 -73q-167 0 -290.5 73t-177.5 200.5t-24 281.5zM429 530q-19 -96 33 -161t150 -65q99 0 176.5 65t96.5 161t-33.5 161.5t-151.5 65.5
q-98 0 -175 -65t-96 -162zM456 1234l52 272h676l-52 -272h-676z" />
    <glyph glyph-name="Obreve" unicode="&#x14e;" horiz-adv-x="1703" 
d="M500 717q-34 -173 55 -289.5t255 -116.5t300 116.5t168 289.5q33 173 -55.5 289t-254.5 116t-300.5 -116t-167.5 -289zM110 717q40 206 175 376t332.5 267.5t414.5 97.5t377 -97.5t229.5 -267.5t29.5 -376q-30 -154 -117 -291.5t-210 -236.5t-278.5 -156.5t-318.5 -57.5
t-296.5 57.5t-217.5 156.5t-117 236.5t-3 291.5zM1046 1524q-157 0 -255 91t-75 230h293q-7 -41 16.5 -68t64.5 -27t74 27t43 68h293q-31 -139 -164 -230t-290 -91z" />
    <glyph glyph-name="obreve" unicode="&#x14f;" horiz-adv-x="1313" 
d="M57 530q30 154 133 281.5t255.5 200.5t319.5 73q168 0 291 -73.5t176 -200.5t23 -281t-132.5 -281.5t-254 -200.5t-319.5 -73q-167 0 -290.5 73t-177.5 200.5t-24 281.5zM429 530q-19 -96 33 -161t150 -65q99 0 176.5 65t96.5 161t-33.5 161.5t-151.5 65.5
q-98 0 -175 -65t-96 -162zM785 1192q-157 0 -254.5 91t-74.5 230h293q-7 -41 16 -68t64 -27t74.5 27t43.5 68h293q-31 -139 -164.5 -230t-290.5 -91z" />
    <glyph glyph-name="Ohungarumlaut" unicode="&#x150;" horiz-adv-x="1703" 
d="M500 717q-34 -173 55 -289.5t255 -116.5t300 116.5t168 289.5q33 173 -55.5 289t-254.5 116t-300.5 -116t-167.5 -289zM110 717q40 206 175 376t332.5 267.5t414.5 97.5t377 -97.5t229.5 -267.5t29.5 -376q-30 -154 -117 -291.5t-210 -236.5t-278.5 -156.5t-318.5 -57.5
t-296.5 57.5t-217.5 156.5t-117 236.5t-3 291.5zM1212 1818l-374 -311l-119 113l317 370zM1609 1818l-375 -311l-119 113l318 370z" />
    <glyph glyph-name="ohungarumlaut" unicode="&#x151;" horiz-adv-x="1313" 
d="M57 530q30 154 133 281.5t255.5 200.5t319.5 73q168 0 291 -73.5t176 -200.5t23 -281t-132.5 -281.5t-254 -200.5t-319.5 -73q-167 0 -290.5 73t-177.5 200.5t-24 281.5zM429 530q-19 -96 33 -161t150 -65q99 0 176.5 65t96.5 161t-33.5 161.5t-151.5 65.5
q-98 0 -175 -65t-96 -162zM941 1486l-375 -310l-119 112l318 370zM1337 1486l-374 -310l-119 112l317 370z" />
    <glyph glyph-name="OE" unicode="&#x152;" horiz-adv-x="1886" 
d="M109 717q38 197 173.5 362t333 260t412.5 95h926l-64 -327h-539l-44 -226h490l-62 -321h-491l-46 -234h558l-62 -326h-944q-161 0 -295 56t-219.5 151.5t-120.5 228.5t-6 281zM497 717q-16 -84 2 -155.5t62.5 -120.5t111 -77.5t145.5 -30.5l149 767
q-165 -5 -301.5 -111.5t-168.5 -271.5z" />
    <glyph glyph-name="oe" unicode="&#x153;" horiz-adv-x="2215" 
d="M57 530q30 154 133 281.5t255.5 200.5t319.5 73q144 0 256.5 -67.5t168.5 -176.5q96 109 232.5 176.5t277.5 67.5q160 0 276 -71.5t165 -195t20 -272.5q-11 -58 -40 -115h-759q-1 -88 56.5 -136t157.5 -48q92 0 181.5 32.5t161.5 90.5l120 -164q-117 -109 -252.5 -170
t-272.5 -61q-155 0 -272.5 66.5t-173.5 177.5q-99 -109 -237 -176.5t-282 -67.5q-167 0 -290.5 73t-177.5 200.5t-24 281.5zM429 530q-19 -96 33 -161t150 -65q99 0 176.5 65t96.5 161t-33.5 161.5t-151.5 65.5q-98 0 -175 -65t-96 -162zM1640 814q-78 0 -138 -43t-94 -124
h393q0 167 -161 167z" />
    <glyph glyph-name="Racute" unicode="&#x154;" horiz-adv-x="1298" 
d="M575 488h-57l-94 -488h-383l278 1434h554q223 0 341 -131.5t78 -341.5q-27 -140 -116 -247.5t-219 -164.5l192 -549h-421zM572 769h124q70 0 134 52.5t79 128.5q15 82 -24 132t-118 50h-124zM1175 1797l-375 -310l-143 133l318 370z" />
    <glyph glyph-name="racute" unicode="&#x155;" horiz-adv-x="875" 
d="M945 1076l-97 -347q-71 27 -140 27q-67 0 -125 -49.5t-76 -141.5l-110 -565h-379l206 1061h379l-21 -108q130 132 305 132q33 0 58 -9zM901 1465l-375 -310l-142 133l317 370z" />
    <glyph glyph-name="Rcommaaccent" unicode="&#x156;" horiz-adv-x="1298" 
d="M575 488h-57l-94 -488h-383l278 1434h554q223 0 341 -131.5t78 -341.5q-27 -140 -116 -247.5t-219 -164.5l192 -549h-421zM572 769h124q70 0 134 52.5t79 128.5q15 82 -24 132t-118 50h-124zM461 -58l199 -193l-374 -311l-142 134z" />
    <glyph glyph-name="rcommaaccent" unicode="&#x157;" horiz-adv-x="875" 
d="M945 1076l-97 -347q-71 27 -140 27q-67 0 -125 -49.5t-76 -141.5l-110 -565h-379l206 1061h379l-21 -108q130 132 305 132q33 0 58 -9zM133 -58l200 -193l-375 -311l-140 134z" />
    <glyph glyph-name="Rcaron" unicode="&#x158;" horiz-adv-x="1298" 
d="M575 488h-57l-94 -488h-383l278 1434h554q223 0 341 -131.5t78 -341.5q-27 -140 -116 -247.5t-219 -164.5l192 -549h-421zM572 769h124q70 0 134 52.5t79 128.5q15 82 -24 132t-118 50h-124zM999 1544h-356l-167 260l193 134l187 -213l269 213l142 -134z" />
    <glyph glyph-name="rcaron" unicode="&#x159;" horiz-adv-x="875" 
d="M945 1076l-97 -347q-71 27 -140 27q-67 0 -125 -49.5t-76 -141.5l-110 -565h-379l206 1061h379l-21 -108q130 132 305 132q33 0 58 -9zM733 1192h-356l-167 260l193 134l187 -213l270 213l140 -134z" />
    <glyph glyph-name="Sacute" unicode="&#x15a;" horiz-adv-x="1234" 
d="M50 278l190 176q75 -81 154 -119.5t178 -38.5q75 0 127.5 33t62.5 84q11 56 -33.5 93.5t-180.5 68.5q-189 43 -282.5 157.5t-61.5 280.5q37 194 201.5 319.5t389.5 125.5q147 0 253.5 -53t157.5 -157.5t30 -245.5h-372q7 66 -22 104t-90 38q-60 0 -102 -28.5t-50 -71.5
q-10 -52 30 -92t156 -68q437 -105 371 -447q-39 -199 -211 -330.5t-412 -131.5q-317 0 -484 303zM1143 1797l-375 -310l-142 133l317 370z" />
    <glyph glyph-name="sacute" unicode="&#x15b;" horiz-adv-x="980" 
d="M1 202l156 156q105 -108 259 -108q48 0 78.5 17t35.5 46q6 32 -21.5 53t-102.5 38q-155 35 -227 127.5t-47 225.5q28 142 160.5 235t307.5 93q189 0 279 -99t80 -258h-306q0 38 -22.5 60.5t-61.5 22.5q-37 0 -62 -16t-30 -42q-6 -30 20.5 -51t104.5 -39
q169 -38 241.5 -128t46.5 -223q-29 -147 -168.5 -242t-330.5 -95q-120 0 -221 57.5t-169 169.5zM952 1465l-374 -310l-143 133l318 370z" />
    <glyph glyph-name="Scircumflex" unicode="&#x15c;" horiz-adv-x="1234" 
d="M50 278l190 176q75 -81 154 -119.5t178 -38.5q75 0 127.5 33t62.5 84q11 56 -33.5 93.5t-180.5 68.5q-189 43 -282.5 157.5t-61.5 280.5q37 194 201.5 319.5t389.5 125.5q147 0 253.5 -53t157.5 -157.5t30 -245.5h-372q7 66 -22 104t-90 38q-60 0 -102 -28.5t-50 -71.5
q-10 -52 30 -92t156 -68q437 -105 371 -447q-39 -199 -211 -330.5t-412 -131.5q-317 0 -484 303zM707 1895h356l167 -260l-194 -134l-186 213l-270 -213l-141 134z" />
    <glyph glyph-name="scircumflex" unicode="&#x15d;" horiz-adv-x="980" 
d="M1 202l156 156q105 -108 259 -108q48 0 78.5 17t35.5 46q6 32 -21.5 53t-102.5 38q-155 35 -227 127.5t-47 225.5q28 142 160.5 235t307.5 93q189 0 279 -99t80 -258h-306q0 38 -22.5 60.5t-61.5 22.5q-37 0 -62 -16t-30 -42q-6 -30 20.5 -51t104.5 -39
q169 -38 241.5 -128t46.5 -223q-29 -147 -168.5 -242t-330.5 -95q-120 0 -221 57.5t-169 169.5zM503 1564h356l167 -260l-193 -135l-187 213l-270 -213l-140 135z" />
    <glyph glyph-name="Scedilla" unicode="&#x15e;" horiz-adv-x="1234" 
d="M553 -299q5 27 -15 46.5t-54 19.5q-25 0 -45 -5l-50 62l32 163q-239 48 -371 291l190 176q75 -81 154 -119.5t178 -38.5q75 0 127.5 33t62.5 84q11 56 -33.5 93.5t-180.5 68.5q-189 43 -282.5 157.5t-61.5 280.5q37 194 201.5 319.5t389.5 125.5q147 0 253.5 -53
t157.5 -157.5t30 -245.5h-372q7 66 -22 104t-90 38q-60 0 -102 -28.5t-50 -71.5q-10 -52 30 -92t156 -68q437 -105 371 -447q-34 -173 -173 -298t-339 -155l-15 -79q95 -12 139.5 -72t30.5 -136q-19 -98 -124.5 -163.5t-242.5 -65.5q-128 0 -203 61t-77 176h214
q6 -67 88 -67q39 0 66 17.5t32 45.5z" />
    <glyph glyph-name="scedilla" unicode="&#x15f;" horiz-adv-x="980" 
d="M417 -299q5 27 -15 46.5t-54 19.5q-25 0 -45 -5l-50 62l32 164q-179 42 -284 214l156 156q105 -108 259 -108q48 0 78.5 17t35.5 46q6 32 -21.5 53t-102.5 38q-155 35 -227 127.5t-47 225.5q28 142 160.5 235t307.5 93q189 0 279 -99t80 -258h-306q0 38 -22.5 60.5
t-61.5 22.5q-37 0 -62 -16t-30 -42q-6 -30 20.5 -51t104.5 -39q169 -38 241.5 -128t46.5 -223q-24 -122 -127.5 -210t-253.5 -115l-16 -82q96 -12 140.5 -72t30.5 -136q-19 -98 -124.5 -163.5t-242.5 -65.5q-128 0 -203.5 61t-77.5 176h214q6 -67 88 -67q39 0 66.5 17.5
t32.5 45.5z" />
    <glyph glyph-name="Scaron" unicode="&#x160;" horiz-adv-x="1234" 
d="M50 278l190 176q75 -81 154 -119.5t178 -38.5q75 0 127.5 33t62.5 84q11 56 -33.5 93.5t-180.5 68.5q-189 43 -282.5 157.5t-61.5 280.5q37 194 201.5 319.5t389.5 125.5q147 0 253.5 -53t157.5 -157.5t30 -245.5h-372q7 66 -22 104t-90 38q-60 0 -102 -28.5t-50 -71.5
q-10 -52 30 -92t156 -68q437 -105 371 -447q-39 -199 -211 -330.5t-412 -131.5q-317 0 -484 303zM980 1544h-356l-167 260l192 134l188 -213l269 213l141 -134z" />
    <glyph glyph-name="scaron" unicode="&#x161;" horiz-adv-x="980" 
d="M1 202l156 156q105 -108 259 -108q48 0 78.5 17t35.5 46q6 32 -21.5 53t-102.5 38q-155 35 -227 127.5t-47 225.5q28 142 160.5 235t307.5 93q189 0 279 -99t80 -258h-306q0 38 -22.5 60.5t-61.5 22.5q-37 0 -62 -16t-30 -42q-6 -30 20.5 -51t104.5 -39
q169 -38 241.5 -128t46.5 -223q-29 -147 -168.5 -242t-330.5 -95q-120 0 -221 57.5t-169 169.5zM787 1192h-356l-167 260l194 134l186 -213l270 213l141 -134z" />
    <glyph glyph-name="Tcommaaccent" unicode="&#x162;" horiz-adv-x="1149" 
d="M278 0l212 1099h-333l65 335h1058l-66 -335h-333l-213 -1099h-82l-20 -95q96 -12 140 -72t30 -136q-20 -98 -124 -163.5t-241 -65.5q-128 0 -204 61t-78 176h214q7 -67 89 -67q39 0 65.5 17.5t31.5 45.5q5 27 -14 46.5t-53 19.5q-26 0 -45 -5l-50 62l34 176h-83z" />
    <glyph glyph-name="tcommaaccent" unicode="&#x163;" horiz-adv-x="836" 
d="M343 -298q5 27 -14.5 46.5t-53.5 19.5q-22 0 -45 -6q-7 8 -24.5 29.5t-26.5 32.5l44 227q-114 106 -75 299l75 385h-155l63 326h156l51 264l387 43l-59 -307h214l-64 -326h-214l-65 -336q-18 -99 90 -99q69 0 118 7l-54 -280q-105 -51 -257 -51l-14 -71q96 -11 140 -71.5
t30 -135.5q-20 -98 -124.5 -164t-241.5 -66q-128 0 -203.5 61.5t-77.5 176.5h214q7 -67 89 -67q39 0 65.5 17t31.5 46z" />
    <glyph glyph-name="Tcaron" unicode="&#x164;" horiz-adv-x="1149" 
d="M278 0l212 1099h-333l65 335h1058l-66 -335h-333l-213 -1099h-390zM950 1544h-356l-167 260l193 134l187 -213l269 213l142 -134z" />
    <glyph glyph-name="tcaron" unicode="&#x165;" horiz-adv-x="1247" 
d="M602 736l-65 -337q-18 -99 90 -99q69 0 119 7l-54 -279q-108 -53 -239 -53q-168 0 -252 103t-51 272l74 386h-163l64 325h163l51 264l386 43l-59 -307h215l-64 -325h-215zM988 1348q12 65 78.5 118t156.5 53q83 0 127 -55.5t26 -144.5q-29 -149 -149 -276.5t-321 -192.5
l-47 104q112 61 159 108.5t43.5 86.5t-46.5 90q-38 44 -27 109z" />
    <glyph glyph-name="Tbar" unicode="&#x166;" horiz-adv-x="1149" 
d="M278 0l111 574h-207l44 231h207l57 294h-333l65 335h1058l-66 -335h-333l-58 -294h207l-44 -231h-207l-111 -574h-390z" />
    <glyph glyph-name="tbar" unicode="&#x167;" horiz-adv-x="836" 
d="M607 763l-26 -136h169l-39 -202h-169l-11 -52q-18 -100 91 -100q61 0 119 8l-52 -268q-94 -38 -236 -38q-170 0 -254.5 97.5t-52.5 264.5l18 88h-114l39 202h114l26 136h-149l58 298h150l51 264l386 43l-59 -307h215l-59 -298h-215z" />
    <glyph glyph-name="Utilde" unicode="&#x168;" horiz-adv-x="1383" 
d="M695 1434l-186 -955q-13 -73 26.5 -119.5t113.5 -46.5t132 46.5t71 119.5l186 955h390l-189 -973q-26 -136 -122.5 -247.5t-237.5 -174t-295 -62.5q-236 0 -371.5 138.5t-95.5 345.5l189 973h389zM907 1587q-60 34 -81 34q-35 0 -64 -71l-272 55q92 250 290 250
q80 0 151 -43q57 -33 80 -33q34 0 65 70l271 -54q-45 -124 -118.5 -187.5t-170.5 -63.5q-78 0 -151 43z" />
    <glyph glyph-name="utilde" unicode="&#x169;" horiz-adv-x="1267" 
d="M760 494l110 567h379l-206 -1061h-378l19 102q-125 -122 -302 -122q-167 0 -256 110t-54 294l132 677h379l-117 -601q-13 -66 17.5 -111t91.5 -45q65 0 115.5 48t69.5 142zM773 1248q-59 34 -80 34q-33 0 -65 -71l-271 55q45 124 118.5 187.5t170.5 63.5q80 0 151 -43
q60 -34 81 -34q36 0 64 70l271 -54q-46 -124 -119.5 -187.5t-169.5 -63.5q-78 0 -151 43z" />
    <glyph glyph-name="Umacron" unicode="&#x16a;" horiz-adv-x="1383" 
d="M695 1434l-186 -955q-13 -73 26.5 -119.5t113.5 -46.5t132 46.5t71 119.5l186 955h390l-189 -973q-26 -136 -122.5 -247.5t-237.5 -174t-295 -62.5q-236 0 -371.5 138.5t-95.5 345.5l189 973h389zM555 1566l52 272h676l-52 -272h-676z" />
    <glyph glyph-name="umacron" unicode="&#x16b;" horiz-adv-x="1267" 
d="M760 494l110 567h379l-206 -1061h-378l19 102q-125 -122 -302 -122q-167 0 -256 110t-54 294l132 677h379l-117 -601q-13 -66 17.5 -111t91.5 -45q65 0 115.5 48t69.5 142zM423 1234l52 272h676l-52 -272h-676z" />
    <glyph glyph-name="Ubreve" unicode="&#x16c;" horiz-adv-x="1383" 
d="M695 1434l-186 -955q-13 -73 26.5 -119.5t113.5 -46.5t132 46.5t71 119.5l186 955h390l-189 -973q-26 -136 -122.5 -247.5t-237.5 -174t-295 -62.5q-236 0 -371.5 138.5t-95.5 345.5l189 973h389zM885 1524q-157 0 -255 91t-75 230h293q-7 -41 16.5 -68t64.5 -27t74.5 27
t43.5 68h292q-31 -139 -164 -230t-290 -91z" />
    <glyph glyph-name="ubreve" unicode="&#x16d;" horiz-adv-x="1267" 
d="M760 494l110 567h379l-206 -1061h-378l19 102q-125 -122 -302 -122q-167 0 -256 110t-54 294l132 677h379l-117 -601q-13 -66 17.5 -111t91.5 -45q65 0 115.5 48t69.5 142zM753 1192q-157 0 -255 91t-75 230h293q-7 -41 16.5 -68t64.5 -27t74 27t43 68h293
q-31 -139 -164 -230t-290 -91z" />
    <glyph glyph-name="Uring" unicode="&#x16e;" horiz-adv-x="1383" 
d="M695 1434l-186 -955q-13 -73 26.5 -119.5t113.5 -46.5t132 46.5t71 119.5l186 955h390l-189 -973q-26 -136 -122.5 -247.5t-237.5 -174t-295 -62.5q-236 0 -371.5 138.5t-95.5 345.5l189 973h389zM864 1726q-5 -26 8.5 -42t39.5 -16t46.5 16.5t24.5 41.5q5 25 -8.5 41.5
t-39.5 16.5t-46 -16.5t-25 -41.5zM672 1726q20 98 105.5 164t191.5 66q107 0 166.5 -66.5t40.5 -163.5t-104.5 -163.5t-192.5 -66.5t-166.5 66t-40.5 164z" />
    <glyph glyph-name="uring" unicode="&#x16f;" horiz-adv-x="1267" 
d="M760 494l110 567h379l-206 -1061h-378l19 102q-125 -122 -302 -122q-167 0 -256 110t-54 294l132 677h379l-117 -601q-13 -66 17.5 -111t91.5 -45q65 0 115.5 48t69.5 142zM731 1395q-5 -26 8.5 -42.5t39.5 -16.5t46 16.5t25 42.5q5 25 -8.5 41t-39.5 16t-46.5 -16
t-24.5 -41zM539 1395q19 97 104.5 163t192.5 66t166 -66t40 -163q-19 -98 -104.5 -164.5t-191.5 -66.5t-166 66.5t-41 164.5z" />
    <glyph glyph-name="Uhungarumlaut" unicode="&#x170;" horiz-adv-x="1383" 
d="M695 1434l-186 -955q-13 -73 26.5 -119.5t113.5 -46.5t132 46.5t71 119.5l186 955h390l-189 -973q-26 -136 -122.5 -247.5t-237.5 -174t-295 -62.5q-236 0 -371.5 138.5t-95.5 345.5l189 973h389zM1063 1824l-375 -311l-119 113l318 370zM1459 1824l-375 -311l-118 113
l317 370z" />
    <glyph glyph-name="uhungarumlaut" unicode="&#x171;" horiz-adv-x="1267" 
d="M760 494l110 567h379l-206 -1061h-378l19 102q-125 -122 -302 -122q-167 0 -256 110t-54 294l132 677h379l-117 -601q-13 -66 17.5 -111t91.5 -45q65 0 115.5 48t69.5 142zM928 1489l-375 -310l-118 112l318 370zM1324 1489l-375 -310l-118 112l318 370z" />
    <glyph glyph-name="Uogonek" unicode="&#x172;" horiz-adv-x="1383" 
d="M695 1434l-186 -955q-13 -68 27.5 -117t112.5 -49q74 0 132 46.5t71 119.5l186 955h390l-189 -973q-34 -175 -178.5 -304t-339.5 -165q-185 -125 -205 -229q-9 -44 6 -69t46 -25q34 0 61.5 28t40.5 74h233q-40 -138 -141 -213t-249 -75q-126 0 -203 70.5t-56 174.5
q13 69 72.5 137t147.5 123q-190 30 -291 161t-66 312l189 973h389z" />
    <glyph glyph-name="uogonek" unicode="&#x173;" horiz-adv-x="1267" 
d="M806 0h-141l19 102q-127 -124 -307 -124q-165 0 -252.5 111.5t-52.5 294.5l132 677h379l-117 -601q-13 -66 17.5 -111t91.5 -45q65 0 115.5 48t69.5 142l110 567h379l-206 -1061q-198 -129 -218 -237q-9 -45 6 -69.5t47 -24.5q34 0 61 28t39 74h234q-41 -138 -142 -213
t-249 -75q-126 0 -203 70.5t-56 174.5q14 73 80.5 145t163.5 127z" />
    <glyph glyph-name="Wcircumflex" unicode="&#x174;" horiz-adv-x="2042" 
d="M1002 1434h392l26 -926l378 926h401l-656 -1434h-399l-48 909l-402 -909h-399l-98 1434h400l17 -926zM1108 1895h356l167 -260l-193 -134l-187 213l-270 -213l-140 134z" />
    <glyph glyph-name="wcircumflex" unicode="&#x175;" horiz-adv-x="1669" 
d="M756 1061h364l6 -618l249 618h380l-507 -1061h-388l-22 546l-234 -546h-388l-95 1061h380l9 -618zM856 1564h356l167 -260l-193 -135l-187 213l-270 -213l-140 135z" />
    <glyph glyph-name="Ycircumflex" unicode="&#x176;" horiz-adv-x="1358" 
d="M620 1434l135 -519l337 519h422l-634 -877l-108 -557h-390l107 557l-292 877h423zM766 1895h356l167 -260l-193 -134l-187 213l-270 -213l-140 134z" />
    <glyph glyph-name="ycircumflex" unicode="&#x177;" horiz-adv-x="1136" 
d="M826 1061h397l-833 -1536h-397l290 475l-163 1061h396l42 -581zM589 1564h356l167 -260l-193 -135l-187 213l-270 -213l-140 135z" />
    <glyph glyph-name="Ydieresis" unicode="&#x178;" horiz-adv-x="1358" 
d="M620 1434l135 -519l337 519h422l-634 -877l-108 -557h-390l107 557l-292 877h423zM511 1704q14 75 77 126.5t140 51.5q76 0 118 -51.5t28 -126.5t-76.5 -126.5t-139.5 -51.5t-119 51.5t-28 126.5zM942 1704q14 75 76.5 126.5t139.5 51.5t119.5 -51.5t28.5 -126.5
t-77 -126.5t-140 -51.5q-76 0 -118.5 51.5t-28.5 126.5z" />
    <glyph glyph-name="Zacute" unicode="&#x179;" horiz-adv-x="1261" 
d="M57 304l742 795h-556l65 335h1018l-59 -305l-742 -794h608l-65 -335h-1069zM1166 1797l-374 -310l-143 133l318 370z" />
    <glyph glyph-name="zacute" unicode="&#x17a;" horiz-adv-x="1061" 
d="M-28 0l54 275l512 464h-396l63 322h860l-53 -276l-511 -463h441l-62 -322h-908zM994 1465l-374 -310l-143 133l318 370z" />
    <glyph glyph-name="Zdotaccent" unicode="&#x17b;" horiz-adv-x="1261" 
d="M57 304l742 795h-556l65 335h1018l-59 -305l-742 -794h608l-65 -335h-1069zM681 1704q15 77 80.5 131t144.5 54t124 -54t30 -131t-80.5 -131.5t-144.5 -54.5t-124 54.5t-30 131.5z" />
    <glyph glyph-name="zdotaccent" unicode="&#x17c;" horiz-adv-x="1061" 
d="M-28 0l54 275l512 464h-396l63 322h860l-53 -276l-511 -463h441l-62 -322h-908zM506 1372q15 77 80.5 131.5t144.5 54.5t124 -54.5t30 -131.5t-81 -131.5t-145 -54.5t-123.5 54.5t-29.5 131.5z" />
    <glyph glyph-name="Zcaron" unicode="&#x17d;" horiz-adv-x="1261" 
d="M57 304l742 795h-556l65 335h1018l-59 -305l-742 -794h608l-65 -335h-1069zM1005 1544h-357l-167 260l193 134l187 -213l269 213l142 -134z" />
    <glyph glyph-name="zcaron" unicode="&#x17e;" horiz-adv-x="1061" 
d="M-28 0l54 275l512 464h-396l63 322h860l-53 -276l-511 -463h441l-62 -322h-908zM829 1192h-356l-167 260l194 134l186 -213l270 213l141 -134z" />
    <glyph glyph-name="longs" unicode="&#x17f;" horiz-adv-x="811" 
d="M955 1481l-53 -272q-50 8 -99 8q-54 0 -87 -26t-41 -73l-217 -1118h-378l142 736h-153l63 325h154l12 63q35 181 155 276t316 95q99 0 186 -14z" />
    <glyph glyph-name="uni0191" unicode="&#x191;" horiz-adv-x="1116" 
d="M529 509l-116 -599q-33 -171 -177 -278t-342 -107q-103 0 -162 14l62 324q43 -7 104 -7q55 0 90.5 28t44.5 78l286 1472h914l-65 -332h-523l-51 -261h474l-64 -332h-475z" />
    <glyph glyph-name="florin" unicode="&#x192;" horiz-adv-x="812" 
d="M954 1480l-52 -272q-43 7 -99 7q-54 0 -87 -25.5t-41 -71.5l-11 -57h209l-63 -326h-210l-163 -839q-34 -172 -174 -271.5t-346 -99.5q-77 0 -135 15l53 272q42 -8 95 -8q54 0 87 25.5t42 72.5l162 833h-153l63 326h154l12 63q71 370 489 370q98 0 168 -14z" />
    <glyph glyph-name="Aringacute" unicode="&#x1fa;" horiz-adv-x="1430" 
d="M663 1490q18 92 99 155t181 63t156 -63t38 -155q-15 -76 -75 -135h49q33 -226 98 -677.5t98 -677.5h-401q-10 87 -26 274h-429q-22 -46 -66.5 -137t-66.5 -137h-400l721 1355h47q-38 58 -23 135zM899 1727l-86 137l282 229l113 -198zM812 1030l-222 -460h266
q-29 292 -44 460zM840 1490q-5 -26 9 -44t40 -18q25 0 45 18t25 44t-8.5 43.5t-38.5 17.5q-26 0 -46.5 -17.5t-25.5 -43.5z" />
    <glyph glyph-name="aringacute" unicode="&#x1fb;" horiz-adv-x="1353" 
d="M569 1354q19 92 100 155t181 63t156 -63.5t37 -154.5q-18 -92 -98 -155t-180 -63q-101 0 -157.5 63t-38.5 155zM746 1354q-5 -26 9.5 -44t40.5 -18q25 0 45 18t25 44t-8.5 43.5t-38.5 17.5q-26 0 -47 -17.5t-26 -43.5zM809 1591l-86 135l282 231l113 -198zM57 530
q30 155 115.5 281.5t211.5 200t266 73.5q190 0 295 -132l22 108h368l-206 -1061h-368l20 106q-155 -131 -347 -131q-140 0 -237 73.5t-133.5 199.5t-6.5 282zM429 530q-19 -96 31 -161t141 -65q92 0 167.5 65t94.5 161t-31.5 161t-142.5 65q-91 0 -166 -65t-94 -161z" />
    <glyph glyph-name="AEacute" unicode="&#x1fc;" horiz-adv-x="1940" 
d="M309 0h-404l1036 1434h1068l-63 -326h-540l-44 -227h490l-62 -320h-491l-46 -235h558l-62 -326h-940l53 275h-366zM1010 1036l-317 -466h227zM1512 1797l-374 -310l-143 133l318 370z" />
    <glyph glyph-name="aeacute" unicode="&#x1fd;" horiz-adv-x="2101" 
d="M1228 431q-1 -90 54 -137t163 -47q197 0 358 115l105 -169q-92 -98 -210 -158t-240 -60q-107 0 -186 39t-120 107l-23 -121h-368l20 108q-157 -133 -347 -133q-140 0 -237 73.5t-133.5 200t-6.5 281.5t116 281.5t211.5 200t265.5 73.5q190 0 295 -132l22 108h368
l-22 -116q132 140 332 140q142 0 240 -72t134 -194.5t7 -272.5q-11 -61 -39 -115h-759zM429 530q-19 -96 31.5 -161t141.5 -65t166.5 65t94.5 161t-31.5 161.5t-141.5 65.5t-166.5 -65.5t-94.5 -161.5zM1506 814q-75 0 -136.5 -45t-96.5 -122h393q2 167 -160 167zM1519 1465
l-375 -310l-143 133l318 370z" />
    <glyph glyph-name="Oslashacute" unicode="&#x1fe;" horiz-adv-x="1703" 
d="M1418 1797l-375 -310l-142 133l318 370zM110 717q40 206 175 376t332.5 267.5t414.5 97.5q192 0 343 -80l176 183l147 -130l-165 -171q94 -102 130 -242.5t5 -300.5q-30 -154 -117 -291.5t-210 -236.5t-278.5 -156.5t-318.5 -57.5q-203 0 -361 90l-185 -192l-148 129
l180 187q-87 101 -118.5 237t-1.5 291zM1278 717q25 141 -31 246l-594 -616q70 -36 157 -36q166 0 300 116.5t168 289.5zM500 717q-25 -128 20 -227l582 605q-62 27 -134 27q-166 0 -300.5 -116t-167.5 -289z" />
    <glyph glyph-name="oslashacute" unicode="&#x1ff;" horiz-adv-x="1313" 
d="M1160 1465l-375 -310l-142 133l318 370zM57 530q30 154 133 281.5t255.5 200.5t319.5 73q142 0 253 -54l143 149l135 -118l-134 -138q66 -75 91 -177t2 -217q-30 -154 -132.5 -281.5t-254 -200.5t-319.5 -73q-140 0 -255 55l-144 -149l-137 116l138 141q-66 76 -91 177
t-3 215zM898 530q12 62 -7 114l-337 -346q24 -7 56 -7q103 0 185.5 69t102.5 170zM416 530q-11 -60 6 -112l335 344q-26 8 -54 8q-102 0 -184.5 -69t-102.5 -171z" />
    <glyph glyph-name="Scommaaccent" unicode="&#x218;" horiz-adv-x="1234" 
d="M50 278l190 176q75 -81 154 -119.5t178 -38.5q75 0 127.5 33t62.5 84q11 56 -33.5 93.5t-180.5 68.5q-189 43 -282.5 157.5t-61.5 280.5q37 194 201.5 319.5t389.5 125.5q147 0 253.5 -53t157.5 -157.5t30 -245.5h-372q7 66 -22 104t-90 38q-60 0 -102 -28.5t-50 -71.5
q-10 -52 30 -92t156 -68q437 -105 371 -447q-39 -199 -211 -330.5t-412 -131.5q-317 0 -484 303zM500 -58l199 -193l-374 -311l-142 134z" />
    <glyph glyph-name="scommaaccent" unicode="&#x219;" horiz-adv-x="980" 
d="M1 202l156 156q105 -108 259 -108q48 0 78.5 17t35.5 46q6 32 -21.5 53t-102.5 38q-155 35 -227 127.5t-47 225.5q28 142 160.5 235t307.5 93q189 0 279 -99t80 -258h-306q0 38 -22.5 60.5t-61.5 22.5q-37 0 -62 -16t-30 -42q-6 -30 20.5 -51t104.5 -39
q169 -38 241.5 -128t46.5 -223q-29 -147 -168.5 -242t-330.5 -95q-120 0 -221 57.5t-169 169.5zM369 -58l199 -193l-374 -311l-142 134z" />
    <glyph glyph-name="uni021A" unicode="&#x21a;" horiz-adv-x="1149" 
d="M278 0l212 1099h-333l65 335h1058l-66 -335h-333l-213 -1099h-390zM451 -58l199 -193l-375 -311l-141 134z" />
    <glyph glyph-name="uni021B" unicode="&#x21b;" horiz-adv-x="836" 
d="M602 736l-65 -337q-18 -99 90 -99q69 0 119 7l-54 -279q-108 -53 -239 -53q-168 0 -252 103t-51 272l74 386h-163l64 325h163l51 264l386 43l-59 -307h215l-64 -325h-215zM299 -58l200 -193l-375 -311l-141 134z" />
    <glyph glyph-name="dotlessj" unicode="&#x237;" horiz-adv-x="614" 
d="M4 -55l217 1116h379l-227 -1167q-33 -169 -160.5 -269t-306.5 -100q-74 0 -132 14l60 310h57q95 0 113 96z" />
    <glyph glyph-name="apostrophe" unicode="&#x2bc;" horiz-adv-x="890" 
d="M415 1348q12 65 78 118t156 53q83 0 127.5 -55.5t26.5 -144.5q-29 -149 -149 -276.5t-321 -192.5l-47 104q85 46 132 83t61 70.5t4 63.5t-42 68q-37 43 -26 109z" />
    <glyph glyph-name="circumflex" unicode="&#x2c6;" horiz-adv-x="890" 
d="M454 1496h356l167 -260l-193 -134l-187 213l-269 -213l-142 134z" />
    <glyph glyph-name="caron" unicode="&#x2c7;" horiz-adv-x="890" 
d="M742 1145h-356l-167 260l194 134l186 -213l270 213l141 -134z" />
    <glyph glyph-name="uni02C9" unicode="&#x2c9;" horiz-adv-x="890" 
d="M234 1183l54 272h676l-54 -272h-676z" />
    <glyph glyph-name="breve" unicode="&#x2d8;" horiz-adv-x="890" 
d="M566 1153q-157 0 -254.5 91.5t-74.5 230.5h292q-6 -41 17 -68.5t64 -27.5t75 27.5t43 68.5h293q-31 -139 -164.5 -230.5t-290.5 -91.5z" />
    <glyph glyph-name="dotaccent" unicode="&#x2d9;" horiz-adv-x="890" 
d="M411 1323q14 77 79.5 131t145.5 54q79 0 123.5 -54t30.5 -131q-15 -77 -81.5 -131.5t-145.5 -54.5t-123 54t-29 132z" />
    <glyph glyph-name="ring" unicode="&#x2da;" horiz-adv-x="890" 
d="M539 1317q-5 -26 8.5 -42.5t39.5 -16.5t45.5 16.5t24.5 42.5q5 25 -8.5 41t-39.5 16t-45.5 -16t-24.5 -41zM346 1317q19 97 104.5 163t192.5 66t166.5 -66t40.5 -163q-19 -98 -104.5 -164.5t-191.5 -66.5q-107 0 -167 67t-41 164z" />
    <glyph glyph-name="ogonek" unicode="&#x2db;" horiz-adv-x="890" 
d="M225 0h238q-198 -130 -218 -237q-9 -45 5.5 -70t46.5 -25q34 0 61 28t39 75h235q-41 -139 -141.5 -213.5t-249.5 -74.5q-126 0 -202.5 70t-55.5 174q14 74 80 146t162 127z" />
    <glyph glyph-name="tilde" unicode="&#x2dc;" horiz-adv-x="890" 
d="M587 1201q-60 34 -81 34q-36 0 -65 -71l-271 55q45 124 118.5 187t170.5 63q81 0 150 -43q59 -33 81 -33q37 0 65 70l271 -54q-46 -124 -119.5 -187.5t-170.5 -63.5q-78 0 -149 43z" />
    <glyph glyph-name="hungarumlaut" unicode="&#x2dd;" horiz-adv-x="890" 
d="M682 1418l-375 -310l-119 113l318 369zM1078 1418l-375 -310l-118 113l317 369z" />
    <glyph glyph-name="gravecomb" unicode="&#x300;" horiz-adv-x="0" 
d="M-295 1087l-254 311l274 192l173 -369z" />
    <glyph glyph-name="acutecomb" unicode="&#x301;" horiz-adv-x="0" 
d="M-11 1398l-374 -311l-142 134l317 369z" />
    <glyph glyph-name="uni0302" unicode="&#x302;" horiz-adv-x="0" 
d="M-436 1496h355l167 -260l-191 -134l-188 213l-269 -213l-141 134z" />
    <glyph glyph-name="tildecomb" unicode="&#x303;" horiz-adv-x="0" 
d="M-303 1201q-60 34 -81 34q-36 0 -65 -71l-271 55q45 124 118.5 187t170.5 63q81 0 150 -43q59 -33 81 -33q37 0 65 70l270 -54q-45 -124 -119 -187.5t-170 -63.5q-78 0 -149 43z" />
    <glyph glyph-name="uni0304" unicode="&#x304;" horiz-adv-x="0" 
d="M-655 1183l53 272h675l-54 -272h-674z" />
    <glyph glyph-name="uni0306" unicode="&#x306;" horiz-adv-x="0" 
d="M-324 1153q-157 0 -254.5 91.5t-74.5 230.5h293q-6 -41 16.5 -68.5t63.5 -27.5t75 27.5t43 68.5h292q-31 -139 -164 -230.5t-290 -91.5z" />
    <glyph glyph-name="uni0307" unicode="&#x307;" horiz-adv-x="0" 
d="M-479 1323q14 77 79.5 131t145.5 54q79 0 123 -53.5t30 -131.5q-14 -77 -80 -131.5t-146 -54.5q-79 0 -123 54t-29 132z" />
    <glyph glyph-name="uni0308" unicode="&#x308;" horiz-adv-x="0" 
d="M-687 1323q14 75 76.5 126.5t139.5 51.5q76 0 118.5 -51.5t28.5 -126.5t-76.5 -126.5t-139.5 -51.5t-119 51.5t-28 126.5zM-256 1323q14 75 76 126.5t138 51.5q77 0 119.5 -51.5t28.5 -126.5t-76.5 -126.5t-139.5 -51.5q-76 0 -118 51.5t-28 126.5z" />
    <glyph glyph-name="uni030A" unicode="&#x30a;" horiz-adv-x="0" 
d="M-351 1317q-5 -26 8.5 -42.5t39.5 -16.5t46 16.5t25 42.5q5 25 -9 41t-40 16t-45.5 -16t-24.5 -41zM-544 1317q19 97 104.5 163t192.5 66t166 -66t40 -163q-19 -98 -104 -164.5t-191 -66.5q-107 0 -167 67t-41 164z" />
    <glyph glyph-name="uni030C" unicode="&#x30c;" horiz-adv-x="0" 
d="M-147 1145h-357l-167 260l194 134l186 -213l269 213l141 -134z" />
    <glyph glyph-name="uni0327" unicode="&#x327;" horiz-adv-x="0" 
d="M-528 -299q5 27 -15 46.5t-54 19.5q-25 0 -45 -5l-50 62l34 176h225l-19 -95q95 -12 139.5 -72t30.5 -136q-19 -98 -124 -163.5t-242 -65.5q-128 0 -203.5 61t-77.5 176h214q6 -67 88 -67q39 0 66.5 17.5t32.5 45.5z" />
    <glyph glyph-name="tonos" unicode="&#x384;" horiz-adv-x="890" 
d="M878 1398l-375 -311l-142 134l317 369z" />
    <glyph glyph-name="dieresistonos" unicode="&#x385;" horiz-adv-x="890" 
d="M211 1170q12 65 67.5 109.5t124.5 44.5t107.5 -44.5t26.5 -109.5q-12 -64 -67.5 -108t-125.5 -44q-69 0 -107 44t-26 108zM603 1170q12 65 68 109.5t125 44.5t107 -44.5t26 -109.5q-12 -64 -68 -108t-125 -44t-107 44t-26 108zM571 1299l-92 129l270 242l123 -188z" />
    <glyph glyph-name="Alphatonos" unicode="&#x386;" horiz-adv-x="1600" 
d="M849 1434h424l204 -1434h-401l-26 274h-429l-133 -274h-400zM982 1030l-222 -460h266zM710 1336l-375 -310l-140 133l316 370z" />
    <glyph glyph-name="anoteleia" unicode="&#x387;" horiz-adv-x="623" 
d="M122 671q17 88 90 147.5t167 59.5q95 0 145 -59.5t33 -147.5t-90 -147.5t-168 -59.5q-94 0 -144 59.5t-33 147.5z" />
    <glyph glyph-name="Epsilontonos" unicode="&#x388;" horiz-adv-x="1660" 
d="M515 0l279 1434h933l-63 -326h-544l-44 -227h495l-63 -320h-494l-46 -235h562l-63 -326h-952zM710 1336l-375 -310l-140 133l316 370z" />
    <glyph glyph-name="Etatonos" unicode="&#x389;" horiz-adv-x="1937" 
d="M515 0l279 1434h390l-107 -545h397l106 545h389l-278 -1434h-389l106 553h-396l-107 -553h-390zM710 1336l-375 -310l-140 133l316 370z" />
    <glyph glyph-name="Iotatonos" unicode="&#x38a;" horiz-adv-x="1154" 
d="M1184 1434l-279 -1434h-390l279 1434h390zM710 1336l-375 -310l-140 133l316 370z" />
    <glyph glyph-name="Omicrontonos" unicode="&#x38c;" horiz-adv-x="2026" 
d="M822 717q-34 -173 55.5 -289.5t255.5 -116.5t300 116.5t168 289.5q33 173 -56 289t-255 116t-300.5 -116t-167.5 -289zM432 717q40 206 175 376t333 267.5t415 97.5t377 -97.5t229.5 -267.5t29.5 -376q-30 -154 -117 -291.5t-210 -236.5t-278.5 -156.5t-318.5 -57.5
t-296.5 57.5t-217.5 156.5t-117.5 236.5t-3.5 291.5zM710 1336l-375 -310l-140 133l316 370z" />
    <glyph glyph-name="Upsilontonos" unicode="&#x38e;" horiz-adv-x="1939" 
d="M1199 1434l135 -519l337 519h423l-635 -877l-107 -557h-390l107 557l-293 877h423zM710 1336l-375 -310l-140 133l316 370z" />
    <glyph glyph-name="Omegatonos" unicode="&#x38f;" horiz-adv-x="2008" 
d="M710 1336l-375 -310l-140 133l316 370zM1578 745q31 159 -52 268t-236 109t-278.5 -109t-156.5 -268q-28 -142 26 -255.5t179 -177.5l-61 -312h-655l65 336h232q-112 82 -154 198t-15 256q27 138 110 262t200.5 213t267 141t305.5 52t285.5 -52t212 -141t117 -213
t7.5 -262q-57 -290 -345 -454h233l-65 -336h-655l60 312q150 64 247.5 177.5t125.5 255.5z" />
    <glyph glyph-name="iotadieresistonos" unicode="&#x390;" horiz-adv-x="675" 
d="M81 341l140 720h379l-124 -635q-18 -98 78 -98h41l-64 -323q-52 -5 -118 -5q-204 0 -284.5 85.5t-47.5 255.5zM99 1308q12 64 68 108.5t125 44.5t107 -44t26 -109q-12 -64 -68 -108.5t-125 -44.5t-107 44.5t-26 108.5zM492 1308q12 65 67.5 109t124.5 44t107 -44t26 -109
q-12 -64 -67.5 -108.5t-124.5 -44.5t-107 44.5t-26 108.5zM460 1437l-92 129l269 241l124 -188z" />
    <glyph glyph-name="Alpha" unicode="&#x391;" horiz-adv-x="1430" 
d="M679 1434h424l204 -1434h-401l-26 274h-429l-133 -274h-400zM812 1030l-222 -460h266z" />
    <glyph glyph-name="Beta" unicode="&#x392;" horiz-adv-x="1294" 
d="M672 0h-631l278 1434h571q200 0 301.5 -108.5t68.5 -281.5q-20 -101 -85.5 -180t-156.5 -113q107 -31 158 -119.5t27 -212.5q-35 -182 -184.5 -300.5t-346.5 -118.5zM901 1001q11 59 -16 93.5t-82 34.5h-168l-49 -255h168q55 0 95.5 34.5t51.5 92.5zM826 442
q12 62 -17 101t-88 39h-193l-54 -278h193q59 0 103.5 38.5t55.5 99.5z" />
    <glyph glyph-name="Gamma" unicode="&#x393;" horiz-adv-x="1081" 
d="M41 0l278 1434h913l-66 -335h-522l-213 -1099h-390z" />
    <glyph glyph-name="uni0394" unicode="&#x394;" horiz-adv-x="1430" 
d="M1104 1434l203 -1434h-1389l761 1434h425zM812 1031l-349 -715h423z" />
    <glyph glyph-name="Epsilon" unicode="&#x395;" horiz-adv-x="1185" 
d="M41 0l278 1434h934l-63 -326h-544l-44 -227h495l-63 -320h-494l-46 -235h562l-63 -326h-952z" />
    <glyph glyph-name="Zeta" unicode="&#x396;" horiz-adv-x="1261" 
d="M57 304l742 795h-556l65 335h1018l-59 -305l-742 -794h608l-65 -335h-1069z" />
    <glyph glyph-name="Eta" unicode="&#x397;" horiz-adv-x="1463" 
d="M41 0l278 1434h391l-107 -545h396l107 545h389l-278 -1434h-390l107 553h-396l-107 -553h-390z" />
    <glyph glyph-name="Theta" unicode="&#x398;" horiz-adv-x="1703" 
d="M600 568l58 297h519l-59 -297h-518zM110 717q40 206 175 376t332.5 267.5t414.5 97.5t377 -97.5t229.5 -267.5t29.5 -376q-30 -154 -117 -291.5t-210 -236.5t-278.5 -156.5t-318.5 -57.5t-296.5 57.5t-217.5 156.5t-117 236.5t-3 291.5zM484 717q-35 -178 58.5 -299.5
t264.5 -121.5q170 0 310.5 121.5t175.5 299.5q34 178 -59 299.5t-264 121.5t-311.5 -121.5t-174.5 -299.5z" />
    <glyph glyph-name="Iota" unicode="&#x399;" horiz-adv-x="681" 
d="M712 1434l-279 -1434h-390l279 1434h390z" />
    <glyph glyph-name="Kappa" unicode="&#x39a;" horiz-adv-x="1317" 
d="M1044 1434h390q-106 -540 -386 -732l208 -702h-415l-169 585h-128l-113 -585h-390l278 1434h391l-101 -513h50q147 0 239 119t146 394z" />
    <glyph glyph-name="Lambda" unicode="&#x39b;" horiz-adv-x="1430" 
d="M679 1434h424l204 -1434h-401l-96 1017l-492 -1017h-400z" />
    <glyph glyph-name="Mu" unicode="&#x39c;" horiz-adv-x="1774" 
d="M972 223h-220l-187 637l-167 -860h-357l278 1434h407l221 -774l521 774h407l-279 -1434h-356l167 860z" />
    <glyph glyph-name="Nu" unicode="&#x39d;" horiz-adv-x="1463" 
d="M41 0l278 1434h419l230 -876l171 876h356l-278 -1434h-418l-231 876l-170 -876h-357z" />
    <glyph glyph-name="Xi" unicode="&#x39e;" horiz-adv-x="1190" 
d="M224 1108l64 326h967l-63 -326h-968zM-12 0l62 326h1011l-63 -326h-1010zM1011 561h-833l63 320h832z" />
    <glyph glyph-name="Omicron" unicode="&#x39f;" horiz-adv-x="1703" 
d="M500 717q-34 -173 55 -289.5t255 -116.5t300 116.5t168 289.5q33 173 -55.5 289t-254.5 116t-300.5 -116t-167.5 -289zM110 717q40 206 175 376t332.5 267.5t414.5 97.5t377 -97.5t229.5 -267.5t29.5 -376q-30 -154 -117 -291.5t-210 -236.5t-278.5 -156.5t-318.5 -57.5
t-296.5 57.5t-217.5 156.5t-117 236.5t-3 291.5z" />
    <glyph glyph-name="Pi" unicode="&#x3a0;" horiz-adv-x="1410" 
d="M1442 1434l-279 -1434h-389l213 1099h-343l-213 -1099h-390l278 1434h1123z" />
    <glyph glyph-name="Rho" unicode="&#x3a1;" horiz-adv-x="1257" 
d="M683 458h-165l-88 -458h-389l278 1434h554q222 0 339.5 -138.5t76.5 -350.5q-41 -211 -212 -349t-394 -138zM578 760h114q73 0 137 54t79 131q17 84 -22.5 135.5t-121.5 51.5h-115z" />
    <glyph glyph-name="Sigma" unicode="&#x3a3;" horiz-adv-x="1216" 
d="M72 375l388 344l-256 340l74 375h1013l-64 -332h-588l228 -275l-43 -219l-338 -276h590l-63 -332h-1014z" />
    <glyph glyph-name="Tau" unicode="&#x3a4;" horiz-adv-x="1149" 
d="M278 0l212 1099h-333l65 335h1058l-66 -335h-333l-213 -1099h-390z" />
    <glyph glyph-name="Upsilon" unicode="&#x3a5;" horiz-adv-x="1358" 
d="M620 1434l135 -519l337 519h422l-634 -877l-108 -557h-390l107 557l-292 877h423z" />
    <glyph glyph-name="Phi" unicode="&#x3a6;" horiz-adv-x="1603" 
d="M916 197l-37 -197h-360l38 197q-160 0 -278 68t-170.5 187t-24.5 263t126.5 263t243.5 187t305 68l39 201h359l-39 -201q160 0 278 -68t170 -187t24 -263t-126 -263t-243 -187t-305 -68zM620 517l75 393q-91 0 -163 -56t-89 -139q-16 -84 34.5 -141t142.5 -57zM1055 910
l-76 -393q91 0 163 57t89 141q16 83 -34 139t-142 56z" />
    <glyph glyph-name="Chi" unicode="&#x3a7;" horiz-adv-x="1348" 
d="M641 1434l124 -436l294 436h424l-519 -698l266 -736h-424l-143 474l-326 -474h-425l552 736l-247 698h424z" />
    <glyph glyph-name="Psi" unicode="&#x3a8;" horiz-adv-x="1451" 
d="M1069 1434l-148 -762q61 34 103.5 90t55.5 122l108 550h334l-110 -561q-37 -194 -192 -342.5t-365 -197.5l-64 -333h-335l64 333q-191 49 -288 197.5t-60 342.5l110 561h333l-107 -550q-13 -67 8 -123t70 -89l148 762h335z" />
    <glyph glyph-name="uni03A9" unicode="&#x3a9;" horiz-adv-x="1667" 
d="M1237 745q31 159 -52 268t-236 109t-278.5 -109t-156.5 -268q-28 -142 26 -255.5t179 -177.5l-61 -312h-655l65 336h232q-112 82 -154 198t-15 256q27 138 110 262t200.5 213t267 141t305.5 52t285.5 -52t212 -141t117 -213t7.5 -262q-57 -290 -345 -454h233l-65 -336
h-655l60 312q150 64 247.5 177.5t125.5 255.5z" />
    <glyph glyph-name="Iotadieresis" unicode="&#x3aa;" horiz-adv-x="681" 
d="M712 1434l-279 -1434h-390l279 1434h390zM172 1704q14 75 77 126.5t140 51.5q76 0 118.5 -51.5t28.5 -126.5t-77 -126.5t-140 -51.5t-119 51.5t-28 126.5zM603 1704q14 75 76.5 126.5t139.5 51.5t119.5 -51.5t28.5 -126.5t-77 -126.5t-140 -51.5q-76 0 -118.5 51.5
t-28.5 126.5z" />
    <glyph glyph-name="Upsilondieresis" unicode="&#x3ab;" horiz-adv-x="1358" 
d="M620 1434l135 -519l337 519h422l-634 -877l-108 -557h-390l107 557l-292 877h423zM511 1704q14 75 77 126.5t140 51.5q76 0 118 -51.5t28 -126.5t-76.5 -126.5t-139.5 -51.5t-119 51.5t-28 126.5zM942 1704q14 75 76.5 126.5t139.5 51.5t119.5 -51.5t28.5 -126.5
t-77 -126.5t-140 -51.5q-76 0 -118.5 51.5t-28.5 126.5z" />
    <glyph glyph-name="alphatonos" unicode="&#x3ac;" horiz-adv-x="1422" 
d="M1149 1465l-375 -310l-142 133l317 370zM1336 1061l-124 -635q-18 -98 78 -98h41l-63 -323q-50 -5 -109 -5q-249 0 -298 152q-84 -84 -188 -130.5t-218 -46.5q-143 0 -244.5 73t-142.5 200t-11 282q45 234 220 394.5t386 160.5q89 0 163 -32.5t120 -88.5l20 97h370z
M429 530q-19 -96 31 -161t141 -65q92 0 167 65t94 161t-31 161t-142 65q-91 0 -166 -65t-94 -161z" />
    <glyph glyph-name="epsilontonos" unicode="&#x3ad;" horiz-adv-x="1002" 
d="M964 1465l-375 -310l-143 133l318 370zM557 670h145l-52 -270h-145q-49 0 -87 -22.5t-45 -59.5q-7 -35 23 -61.5t73 -26.5q68 0 142 32.5t137 88.5l131 -154q-220 -222 -468 -222q-203 0 -319.5 90.5t-89.5 228.5q17 87 88.5 152.5t166.5 94.5q-69 27 -102 95t-17 150
q25 127 163 213t320 86q168 0 259.5 -91.5t83.5 -251.5h-315q1 40 -19 63t-56 23q-35 0 -58 -18.5t-28 -48.5q-7 -40 12.5 -65.5t56.5 -25.5z" />
    <glyph glyph-name="etatonos" unicode="&#x3ae;" horiz-adv-x="1267" 
d="M508 570l-111 -570h-379l206 1061h379l-20 -105q131 129 309 129q165 0 251.5 -113.5t51.5 -295.5l-224 -1151h-379l209 1075q14 71 -15.5 113.5t-94.5 42.5q-64 0 -114.5 -46.5t-68.5 -139.5zM1139 1465l-375 -310l-142 133l317 370z" />
    <glyph glyph-name="iotatonos" unicode="&#x3af;" horiz-adv-x="675" 
d="M81 341l140 720h379l-124 -635q-18 -98 78 -98h41l-64 -323q-52 -5 -118 -5q-204 0 -284.5 85.5t-47.5 255.5zM788 1465l-374 -310l-143 133l318 370z" />
    <glyph glyph-name="upsilondieresistonos" unicode="&#x3b0;" horiz-adv-x="1209" 
d="M498 -25q-212 0 -333 128.5t-85 314.5l125 643h378l-121 -624q-11 -58 16.5 -95.5t82.5 -37.5t98 37.5t54 95.5l121 624h378l-125 -643q-36 -186 -207 -314.5t-382 -128.5zM397 1308q12 64 68 108.5t125 44.5t107 -44t26 -109q-12 -64 -68 -108.5t-125 -44.5t-107 44.5
t-26 108.5zM790 1308q12 65 67.5 109t124.5 44t107 -44t26 -109q-12 -64 -67.5 -108.5t-124.5 -44.5t-107 44.5t-26 108.5zM758 1437l-92 129l269 241l124 -188z" />
    <glyph glyph-name="alpha" unicode="&#x3b1;" horiz-adv-x="1422" 
d="M1336 1061l-124 -635q-18 -98 78 -98h41l-63 -323q-50 -5 -109 -5q-249 0 -298 152q-84 -84 -188 -130.5t-218 -46.5q-143 0 -244.5 73t-142.5 200t-11 282q45 234 220 394.5t386 160.5q89 0 163 -32.5t120 -88.5l20 97h370zM429 530q-19 -96 31 -161t141 -65
q92 0 167 65t94 161t-31 161t-142 65q-91 0 -166 -65t-94 -161z" />
    <glyph glyph-name="beta" unicode="&#x3b2;" horiz-adv-x="1257" 
d="M452 113l131 246q64 -41 135 -41q52 0 91 43.5t53 114.5q12 66 -17.5 112t-87.5 46q-30 0 -62 -18l-69 194l219 313h-234l-311 -1598h-363l371 1909h932l-58 -299l-203 -276q121 -41 177 -159t21 -298q-27 -138 -96 -236.5t-157 -144t-188 -45.5q-86 0 -163 38t-121 99z
" />
    <glyph glyph-name="gamma" unicode="&#x3b3;" horiz-adv-x="1137" 
d="M184 -475l94 478l-157 1058h395l40 -595l271 595h397l-569 -1058l-93 -478h-378z" />
    <glyph glyph-name="delta" unicode="&#x3b4;" horiz-adv-x="1180" 
d="M481 -25q-221 0 -349.5 138.5t-89.5 341.5q32 164 164 290.5t313 167.5l-196 250l53 271h789l-63 -326h-329l263 -334q108 -136 72 -319q-26 -134 -119.5 -244.5t-228 -173t-279.5 -62.5zM414 455q-13 -68 24.5 -114.5t105.5 -46.5t124 46.5t69 114.5q13 67 -25 113
t-106 46t-123.5 -46t-68.5 -113z" />
    <glyph glyph-name="epsilon" unicode="&#x3b5;" horiz-adv-x="1002" 
d="M557 670h145l-52 -270h-145q-49 0 -87 -22.5t-45 -59.5q-7 -35 23 -61.5t73 -26.5q68 0 142 32.5t137 88.5l131 -154q-220 -222 -468 -222q-203 0 -319.5 90.5t-89.5 228.5q17 87 88.5 152.5t166.5 94.5q-69 27 -102 95t-17 150q25 127 163 213t320 86q168 0 259.5 -91.5
t83.5 -251.5h-315q1 40 -19 63t-56 23q-35 0 -58 -18.5t-28 -48.5q-7 -40 12.5 -65.5t56.5 -25.5z" />
    <glyph glyph-name="zeta" unicode="&#x3b6;" horiz-adv-x="987" 
d="M18 373q35 180 263 398l350 338h-365l64 325h790l-58 -300l-509 -509q-125 -127 -146 -236q-22 -119 78 -183l205 -131q72 -46 100 -122.5t10 -166.5q-25 -132 -149 -261h-373q48 49 83.5 108t45.5 111q9 45 -6.5 82.5t-50.5 59.5l-153 95q-108 66 -155.5 167t-23.5 225z
" />
    <glyph glyph-name="eta" unicode="&#x3b7;" horiz-adv-x="1267" 
d="M508 570l-111 -570h-379l206 1061h379l-20 -105q131 129 309 129q165 0 251.5 -113.5t51.5 -295.5l-224 -1151h-379l209 1075q14 71 -15.5 113.5t-94.5 42.5q-64 0 -114.5 -46.5t-68.5 -139.5z" />
    <glyph glyph-name="theta" unicode="&#x3b8;" horiz-adv-x="1330" 
d="M88 717q30 152 103 289t173.5 236t226.5 157.5t255 58.5q172 0 294.5 -99t169.5 -269t7 -373t-152.5 -373t-273.5 -269.5t-333 -99.5q-173 0 -295 99.5t-168.5 269.5t-6.5 373zM785 1146q-84 0 -159.5 -78t-123.5 -205h455q2 127 -43.5 205t-128.5 78zM618 288
q83 0 159.5 77.5t123.5 204.5h-456q-2 -127 43.5 -204.5t129.5 -77.5z" />
    <glyph glyph-name="iota" unicode="&#x3b9;" horiz-adv-x="675" 
d="M81 341l140 720h379l-124 -635q-18 -98 78 -98h41l-64 -323q-52 -5 -118 -5q-204 0 -284.5 85.5t-47.5 255.5z" />
    <glyph glyph-name="kappa" unicode="&#x3ba;" horiz-adv-x="1166" 
d="M826 1061h378q-77 -396 -293 -546l141 -515h-405l-89 413h-81l-80 -413h-378l206 1061h378l-63 -325h52q171 0 234 325z" />
    <glyph glyph-name="lambda" unicode="&#x3bb;" horiz-adv-x="1136" 
d="M1017 0h-396l-49 554l-262 -554h-396l566 1040l-102 455h397z" />
    <glyph glyph-name="uni03BC" unicode="&#x3bc;" horiz-adv-x="1288" 
d="M779 489l112 572h379l-206 -1061h-379l20 102q-120 -116 -311 -116l-90 -461h-379l299 1536h379l-118 -605q-13 -69 17 -110.5t94 -41.5q65 0 115 46.5t68 138.5z" />
    <glyph glyph-name="nu" unicode="&#x3bd;" horiz-adv-x="1136" 
d="M826 1061h397l-544 -1061h-427l-132 1061h396l29 -650z" />
    <glyph glyph-name="xi" unicode="&#x3be;" horiz-adv-x="996" 
d="M335 -127l-96 39q-134 53 -195.5 176t-32.5 270q27 138 126 252.5t232 163.5q-93 45 -133 130t-19 188q30 155 176.5 260.5t332.5 105.5q195 0 292 -112.5t60 -301.5h-306q10 51 -13 81.5t-69 30.5t-82 -34t-46 -88q-11 -55 16.5 -93t86.5 -38h216l-61 -308h-165
q-89 0 -163 -60.5t-92 -154.5q-12 -63 14 -115t90 -78l113 -46q105 -42 155 -131t28 -199q-14 -75 -56 -150.5t-98 -135.5h-375q109 109 128 216q9 47 -8 82t-56 50z" />
    <glyph glyph-name="omicron" unicode="&#x3bf;" horiz-adv-x="1313" 
d="M57 530q30 154 133 281.5t255.5 200.5t319.5 73q168 0 291 -73.5t176 -200.5t23 -281t-132.5 -281.5t-254 -200.5t-319.5 -73q-167 0 -290.5 73t-177.5 200.5t-24 281.5zM429 530q-19 -96 33 -161t150 -65q99 0 176.5 65t96.5 161t-33.5 161.5t-151.5 65.5
q-98 0 -175 -65t-96 -162z" />
    <glyph glyph-name="pi" unicode="&#x3c0;" horiz-adv-x="1203" 
d="M553 732l-141 -732h-372l141 732h-109l64 329h1139l-65 -329h-110l-142 -732h-371l141 732h-175z" />
    <glyph glyph-name="rho" unicode="&#x3c1;" horiz-adv-x="1333" 
d="M-94 -475l195 1005q30 153 131.5 280t251.5 201t314 74q163 0 283.5 -74t172.5 -201t22 -280q-29 -152 -132 -280.5t-245.5 -201.5t-288.5 -73q-155 0 -231 85l-105 -535h-368zM470 530l-23 -117q26 -50 76.5 -79.5t115.5 -29.5q94 0 170 65t95 161t-30.5 161.5
t-142.5 65.5t-167.5 -65.5t-93.5 -161.5z" />
    <glyph glyph-name="sigma1" unicode="&#x3c2;" horiz-adv-x="1118" 
d="M435 530q-38 -192 130 -280l156 -82q108 -57 153 -149.5t22 -208.5q-14 -74 -53 -150t-92 -135h-372q108 112 128 216q20 102 -70 149l-152 77q-148 74 -207 220t-21 343q30 154 133 281.5t255.5 200.5t319.5 73q247 0 391 -155l-227 -266q-97 93 -222 93
q-98 0 -175.5 -65.5t-96.5 -161.5z" />
    <glyph glyph-name="sigma" unicode="&#x3c3;" horiz-adv-x="1368" 
d="M55 518q29 150 131 274.5t251 196.5t311 72h683l-65 -329h-209q44 -43 61.5 -110.5t3.5 -139.5q-18 -95 -80 -186.5t-152 -162.5t-209.5 -114.5t-243.5 -43.5q-162 0 -283 72t-174.5 196.5t-24.5 274.5zM426 518q-18 -91 32 -152.5t142 -61.5t166.5 61.5t92.5 152.5
t-33 152.5t-143 61.5q-91 0 -165 -61.5t-92 -152.5z" />
    <glyph glyph-name="tau" unicode="&#x3c4;" horiz-adv-x="1018" 
d="M279 372l69 359h-279l64 330h959l-65 -330h-301l-56 -291q-11 -58 10.5 -85.5t75.5 -27.5h46l-64 -323q-41 -4 -118 -4q-215 0 -296.5 90.5t-44.5 281.5z" />
    <glyph glyph-name="upsilon" unicode="&#x3c5;" horiz-adv-x="1209" 
d="M498 -25q-212 0 -333 128.5t-85 314.5l125 643h378l-121 -624q-11 -58 16.5 -95.5t82.5 -37.5t98 37.5t54 95.5l121 624h378l-125 -643q-36 -186 -207 -314.5t-382 -128.5z" />
    <glyph glyph-name="phi" unicode="&#x3c6;" horiz-adv-x="1452" 
d="M358 966l168 -225q-56 -39 -95 -94.5t-51 -116.5q-16 -84 24 -147.5t122 -83.5l154 786h231q164 0 285.5 -73.5t174.5 -201t23 -280.5q-41 -213 -215.5 -367.5t-400.5 -181.5l-89 -456h-313l89 456q-218 26 -333.5 180t-74.5 369q26 132 106 245.5t195 190.5zM1072 530
q16 82 -24 145t-118 85l-90 -460q88 22 152 84.5t80 145.5z" />
    <glyph glyph-name="chi" unicode="&#x3c7;" horiz-adv-x="1140" 
d="M1210 1061l-443 -749l165 -787h-398l-68 469l-251 -469h-396l471 787l-153 749h398l58 -417l219 417h398z" />
    <glyph glyph-name="psi" unicode="&#x3c8;" horiz-adv-x="1427" 
d="M94 498l110 563h322l-103 -531q-12 -65 13.5 -116.5t81.5 -80.5l141 728h315l-141 -728q67 29 113 81t58 116l103 531h323l-110 -563q-36 -185 -190.5 -324t-363.5 -181l-91 -468h-315l92 468q-193 42 -293.5 180.5t-64.5 324.5z" />
    <glyph glyph-name="omega" unicode="&#x3c9;" horiz-adv-x="1672" 
d="M766 171q-64 -86 -163.5 -141t-204.5 -55q-124 0 -213 71.5t-124 197t-6 276.5q28 144 108 285.5t180 255.5h372q-103 -123 -180.5 -267t-103.5 -274q-15 -80 2.5 -148t64.5 -68q56 0 98 81.5t67 213.5l47 239h372l-47 -239q-57 -295 50 -295q48 0 90.5 61t60.5 155
q24 143 3.5 280.5t-76.5 260.5h372q35 -73 57 -152.5t32 -184.5t-12 -204q-44 -230 -204.5 -387.5t-349.5 -157.5q-105 0 -183.5 55t-108.5 141z" />
    <glyph glyph-name="iotadieresis" unicode="&#x3ca;" horiz-adv-x="675" 
d="M81 341l140 720h379l-124 -635q-18 -98 78 -98h41l-64 -323q-52 -5 -118 -5q-204 0 -284.5 85.5t-47.5 255.5zM74 1372q14 75 77 126.5t140 51.5q76 0 118 -51.5t28 -126.5t-76.5 -126.5t-139.5 -51.5t-119 51.5t-28 126.5zM505 1372q14 75 76.5 126.5t139.5 51.5
t119 -51.5t28 -126.5t-77 -126.5t-140 -51.5q-76 0 -118 51.5t-28 126.5z" />
    <glyph glyph-name="upsilondieresis" unicode="&#x3cb;" horiz-adv-x="1209" 
d="M498 -25q-212 0 -333 128.5t-85 314.5l125 643h378l-121 -624q-11 -58 16.5 -95.5t82.5 -37.5t98 37.5t54 95.5l121 624h378l-125 -643q-36 -186 -207 -314.5t-382 -128.5zM372 1372q14 75 77 126.5t140 51.5q76 0 118 -51.5t28 -126.5t-76.5 -126.5t-139.5 -51.5
t-119 51.5t-28 126.5zM803 1372q14 75 76.5 126.5t139.5 51.5t119 -51.5t28 -126.5t-77 -126.5t-140 -51.5q-76 0 -118 51.5t-28 126.5z" />
    <glyph glyph-name="omicrontonos" unicode="&#x3cc;" horiz-adv-x="1313" 
d="M57 530q30 154 133 281.5t255.5 200.5t319.5 73q168 0 291 -73.5t176 -200.5t23 -281t-132.5 -281.5t-254 -200.5t-319.5 -73q-167 0 -290.5 73t-177.5 200.5t-24 281.5zM429 530q-19 -96 33 -161t150 -65q99 0 176.5 65t96.5 161t-33.5 161.5t-151.5 65.5
q-98 0 -175 -65t-96 -162zM1160 1465l-375 -310l-142 133l318 370z" />
    <glyph glyph-name="upsilontonos" unicode="&#x3cd;" horiz-adv-x="1209" 
d="M1104 1465l-375 -310l-142 133l317 370zM498 -25q-212 0 -333 128.5t-85 314.5l125 643h378l-121 -624q-11 -58 16.5 -95.5t82.5 -37.5t98 37.5t54 95.5l121 624h378l-125 -643q-36 -186 -207 -314.5t-382 -128.5z" />
    <glyph glyph-name="omegatonos" unicode="&#x3ce;" horiz-adv-x="1672" 
d="M1343 1465l-374 -310l-143 133l318 370zM766 171q-64 -86 -163.5 -141t-204.5 -55q-124 0 -213 71.5t-124 197t-6 276.5q28 144 108 285.5t180 255.5h372q-103 -123 -180.5 -267t-103.5 -274q-15 -80 2.5 -148t64.5 -68q56 0 98 81.5t67 213.5l47 239h372l-47 -239
q-57 -295 50 -295q48 0 90.5 61t60.5 155q24 143 3.5 280.5t-76.5 260.5h372q35 -73 57 -152.5t32 -184.5t-12 -204q-44 -230 -204.5 -387.5t-349.5 -157.5q-105 0 -183.5 55t-108.5 141z" />
    <glyph glyph-name="uni0400" unicode="&#x400;" horiz-adv-x="1185" 
d="M41 0l278 1434h934l-63 -326h-544l-44 -227h495l-63 -320h-494l-46 -235h562l-63 -326h-952zM776 1487l-254 310l274 193l173 -370z" />
    <glyph glyph-name="afii10023" unicode="&#x401;" horiz-adv-x="1185" 
d="M41 0l278 1434h934l-63 -326h-544l-44 -227h495l-63 -320h-494l-46 -235h562l-63 -326h-952zM449 1704q14 75 77 126.5t140 51.5q76 0 118 -51.5t28 -126.5t-76.5 -126.5t-139.5 -51.5t-119 51.5t-28 126.5zM880 1704q14 75 76.5 126.5t139.5 51.5t119 -51.5t28 -126.5
t-77 -126.5t-140 -51.5q-76 0 -118 51.5t-28 126.5z" />
    <glyph glyph-name="afii10051" unicode="&#x402;" horiz-adv-x="1502" 
d="M914 -4q-76 0 -123 4l61 321h41q53 0 93 31t50 80l7 40q8 41 -28 77.5t-82 36.5q-63 0 -117 -47t-67 -116l-82 -423h-389l215 1107h-335l63 327h1059l-63 -327h-335l-57 -286q117 101 273 101q183 0 280.5 -117t62.5 -295l-22 -112q-33 -170 -178.5 -286t-326.5 -116z
" />
    <glyph glyph-name="afii10052" unicode="&#x403;" horiz-adv-x="1081" 
d="M41 0l278 1434h913l-66 -335h-522l-213 -1099h-390zM1103 1810l-375 -310l-141 133l317 370z" />
    <glyph glyph-name="afii10053" unicode="&#x404;" horiz-adv-x="1550" 
d="M710 -25q-155 0 -282.5 57.5t-207.5 156.5t-110.5 236.5t-0.5 291.5q30 155 113 292t200 235.5t267 156t308 57.5q251 0 401.5 -142.5t154.5 -396.5h-411q-6 93 -64.5 147.5t-151.5 54.5q-120 0 -221.5 -72t-158.5 -192h546l-55 -282h-544q11 -120 90.5 -192t206.5 -72
q132 0 243.5 54.5t220.5 169.5l179 -157q-306 -403 -723 -403z" />
    <glyph glyph-name="afii10054" unicode="&#x405;" horiz-adv-x="1234" 
d="M50 278l190 176q75 -81 154 -119.5t178 -38.5q75 0 127.5 33t62.5 84q11 56 -33.5 93.5t-180.5 68.5q-189 43 -282.5 157.5t-61.5 280.5q37 194 201.5 319.5t389.5 125.5q147 0 253.5 -53t157.5 -157.5t30 -245.5h-372q7 66 -22 104t-90 38q-60 0 -102 -28.5t-50 -71.5
q-10 -52 30 -92t156 -68q437 -105 371 -447q-39 -199 -211 -330.5t-412 -131.5q-317 0 -484 303z" />
    <glyph glyph-name="afii10055" unicode="&#x406;" horiz-adv-x="681" 
d="M712 1434l-279 -1434h-390l279 1434h390z" />
    <glyph glyph-name="afii10056" unicode="&#x407;" horiz-adv-x="681" 
d="M712 1434l-279 -1434h-390l279 1434h390zM172 1704q14 75 77 126.5t140 51.5q76 0 118.5 -51.5t28.5 -126.5t-77 -126.5t-140 -51.5t-119 51.5t-28 126.5zM603 1704q14 75 76.5 126.5t139.5 51.5t119.5 -51.5t28.5 -126.5t-77 -126.5t-140 -51.5q-76 0 -118.5 51.5
t-28.5 126.5z" />
    <glyph glyph-name="afii10057" unicode="&#x408;" horiz-adv-x="965" 
d="M438 487l185 947h389l-191 -977q-30 -158 -110.5 -269t-186 -162t-228.5 -51q-221 0 -362 135l148 252q80 -51 166 -51q71 0 122.5 46.5t67.5 129.5z" />
    <glyph glyph-name="afii10058" unicode="&#x409;" horiz-adv-x="2106" 
d="M1504 1434l-98 -505h211q224 0 345 -132.5t83 -332.5q-39 -199 -211.5 -331.5t-396.5 -132.5h-601l213 1099h-325l-136 -704q-78 -399 -561 -399q-65 0 -104 4l64 331h57q141 0 173 159l183 944h1104zM1655 464q13 69 -21.5 110.5t-106.5 41.5h-181l-60 -304h181
q72 0 123 41.5t65 110.5z" />
    <glyph glyph-name="afii10059" unicode="&#x40a;" horiz-adv-x="2093" 
d="M1491 1434l-98 -505h210q224 0 345.5 -132.5t83.5 -332.5q-39 -199 -212.5 -331.5t-397.5 -132.5h-600l107 553h-391l-107 -553h-390l278 1434h391l-107 -545h391l107 545h390zM1641 464q13 69 -21.5 110.5t-106.5 41.5h-181l-59 -304h181q72 0 122.5 41.5t64.5 110.5z
" />
    <glyph glyph-name="afii10060" unicode="&#x40b;" horiz-adv-x="1546" 
d="M744 402l-77 -402h-389l215 1107h-335l63 327h1059l-63 -327h-335l-62 -312q129 127 314 127q166 0 254.5 -114.5t53.5 -295.5l-100 -512h-390l84 436q14 72 -12 114t-90 42q-70 0 -121 -49t-69 -141z" />
    <glyph glyph-name="afii10061" unicode="&#x40c;" horiz-adv-x="1317" 
d="M1044 1434h390q-106 -540 -386 -732l208 -702h-415l-169 585h-128l-113 -585h-390l278 1434h391l-101 -513h50q147 0 239 119t146 394zM1204 1797l-375 -310l-142 133l318 370z" />
    <glyph glyph-name="uni040D" unicode="&#x40d;" horiz-adv-x="1463" 
d="M931 1487l-254 310l273 193l173 -370zM1495 1434l-278 -1434h-357l170 876l-570 -876h-419l278 1434h358l-171 -876l571 876h418z" />
    <glyph glyph-name="afii10062" unicode="&#x40e;" horiz-adv-x="1359" 
d="M874 1524q-157 0 -254.5 91t-74.5 230h293q-7 -41 16.5 -68t64.5 -27t74 27t43 68h293q-31 -139 -164.5 -230t-290.5 -91zM1516 1434l-776 -1186q-162 -248 -425 -248h-231l64 335h136q81 0 127 69l45 66l-259 964h421l123 -593l353 593h422z" />
    <glyph glyph-name="afii10145" unicode="&#x40f;" horiz-adv-x="1410" 
d="M1442 1434l-279 -1434h-366l-57 -287h-389l57 287h-367l278 1434h390l-214 -1099h343l214 1099h390z" />
    <glyph glyph-name="afii10017" unicode="&#x410;" horiz-adv-x="1430" 
d="M679 1434h424l204 -1434h-401l-26 274h-429l-133 -274h-400zM812 1030l-222 -460h266z" />
    <glyph glyph-name="afii10018" unicode="&#x411;" horiz-adv-x="1313" 
d="M41 0l278 1434h977l-61 -313h-588l-37 -192h211q224 0 345.5 -133t83.5 -332q-39 -199 -212 -331.5t-397 -132.5h-600zM859 464q14 78 -27 115t-129 37h-153l-60 -305h154q184 0 215 153z" />
    <glyph glyph-name="afii10019" unicode="&#x412;" horiz-adv-x="1294" 
d="M672 0h-631l278 1434h571q200 0 301.5 -108.5t68.5 -281.5q-20 -101 -85.5 -180t-156.5 -113q107 -31 158 -119.5t27 -212.5q-35 -182 -184.5 -300.5t-346.5 -118.5zM901 1001q11 59 -16 93.5t-82 34.5h-168l-49 -255h168q55 0 95.5 34.5t51.5 92.5zM826 442
q12 62 -17 101t-88 39h-193l-54 -278h193q59 0 103.5 38.5t55.5 99.5z" />
    <glyph glyph-name="afii10020" unicode="&#x413;" horiz-adv-x="1081" 
d="M41 0l278 1434h913l-66 -335h-522l-213 -1099h-390z" />
    <glyph glyph-name="afii10021" unicode="&#x414;" horiz-adv-x="1419" 
d="M1329 304l-115 -591h-373l56 287h-580l-56 -287h-373l114 591h100q225 354 322 850l54 280h937l-220 -1130h134zM497 304h324l161 825h-194q-94 -488 -291 -825z" />
    <glyph glyph-name="afii10022" unicode="&#x415;" horiz-adv-x="1185" 
d="M41 0l278 1434h934l-63 -326h-544l-44 -227h495l-63 -320h-494l-46 -235h562l-63 -326h-952z" />
    <glyph glyph-name="afii10024" unicode="&#x416;" horiz-adv-x="1921" 
d="M1638 1434h390q-108 -545 -392 -737l207 -697h-415l-168 585h-95l-112 -585h-390l112 585h-94l-394 -585h-415l477 697q-212 194 -105 737h390q-52 -280 -8 -397t191 -117h24l100 514h390l-100 -514h22q150 0 238 118t147 396z" />
    <glyph glyph-name="afii10025" unicode="&#x417;" horiz-adv-x="1110" 
d="M385 911h167q61 0 113.5 39.5t61.5 90.5q10 50 -20 81.5t-86 31.5q-55 0 -104 -35.5t-59 -87.5h-301q39 189 193 308t357 119q195 0 305 -110t78 -270q-20 -101 -91.5 -187.5t-175.5 -130.5q112 -43 169.5 -139.5t33.5 -218.5q-38 -197 -200.5 -312t-380.5 -115
q-153 0 -274 71t-191 214l188 156q59 -72 124.5 -104.5t154.5 -32.5q71 0 128.5 45.5t70.5 116.5q15 78 -27 119.5t-135 41.5h-158z" />
    <glyph glyph-name="afii10026" unicode="&#x418;" horiz-adv-x="1463" 
d="M1495 1434l-278 -1434h-357l170 876l-570 -876h-419l278 1434h358l-171 -876l571 876h418z" />
    <glyph glyph-name="afii10027" unicode="&#x419;" horiz-adv-x="1463" 
d="M925 1524q-157 0 -255 91t-75 230h293q-7 -41 16.5 -68t64.5 -27t74 27t43 68h293q-31 -139 -164 -230t-290 -91zM1495 1434l-278 -1434h-357l170 876l-570 -876h-419l278 1434h358l-171 -876l571 876h418z" />
    <glyph glyph-name="afii10028" unicode="&#x41a;" horiz-adv-x="1317" 
d="M1044 1434h390q-106 -540 -386 -732l208 -702h-415l-169 585h-128l-113 -585h-390l278 1434h391l-101 -513h50q147 0 239 119t146 394z" />
    <glyph glyph-name="afii10029" unicode="&#x41b;" horiz-adv-x="1504" 
d="M1536 1434l-279 -1434h-390l213 1098h-356l-136 -703q-78 -399 -561 -399q-47 0 -105 4l64 331h57q141 0 173 159l183 944h1137z" />
    <glyph glyph-name="afii10030" unicode="&#x41c;" horiz-adv-x="1774" 
d="M972 223h-220l-187 637l-167 -860h-357l278 1434h407l221 -774l521 774h407l-279 -1434h-356l167 860z" />
    <glyph glyph-name="afii10031" unicode="&#x41d;" horiz-adv-x="1463" 
d="M41 0l278 1434h391l-107 -545h396l107 545h389l-278 -1434h-390l107 553h-396l-107 -553h-390z" />
    <glyph glyph-name="afii10032" unicode="&#x41e;" horiz-adv-x="1703" 
d="M500 717q-34 -173 55 -289.5t255 -116.5t300 116.5t168 289.5q33 173 -55.5 289t-254.5 116t-300.5 -116t-167.5 -289zM110 717q40 206 175 376t332.5 267.5t414.5 97.5t377 -97.5t229.5 -267.5t29.5 -376q-30 -154 -117 -291.5t-210 -236.5t-278.5 -156.5t-318.5 -57.5
t-296.5 57.5t-217.5 156.5t-117 236.5t-3 291.5z" />
    <glyph glyph-name="afii10033" unicode="&#x41f;" horiz-adv-x="1410" 
d="M1442 1434l-279 -1434h-389l213 1099h-343l-213 -1099h-390l278 1434h1123z" />
    <glyph glyph-name="afii10034" unicode="&#x420;" horiz-adv-x="1257" 
d="M683 458h-165l-88 -458h-389l278 1434h554q222 0 339.5 -138.5t76.5 -350.5q-41 -211 -212 -349t-394 -138zM578 760h114q73 0 137 54t79 131q17 84 -22.5 135.5t-121.5 51.5h-115z" />
    <glyph glyph-name="afii10035" unicode="&#x421;" horiz-adv-x="1550" 
d="M717 -25q-158 0 -286.5 57.5t-209 156.5t-111.5 236.5t-1 291.5q41 210 165.5 379t311 265.5t398.5 96.5q256 0 410.5 -142.5t158.5 -396.5h-411q-6 93 -64.5 147.5t-151.5 54.5q-157 0 -274.5 -114t-151.5 -290q-34 -174 47.5 -290t242.5 -116q132 0 243.5 54.5
t220.5 169.5l179 -157q-144 -189 -324 -296t-392 -107z" />
    <glyph glyph-name="afii10036" unicode="&#x422;" horiz-adv-x="1149" 
d="M278 0l212 1099h-333l65 335h1058l-66 -335h-333l-213 -1099h-390z" />
    <glyph glyph-name="afii10037" unicode="&#x423;" horiz-adv-x="1359" 
d="M1516 1434l-776 -1186q-162 -248 -425 -248h-231l64 335h136q81 0 127 69l45 66l-259 964h421l123 -593l353 593h422z" />
    <glyph glyph-name="afii10038" unicode="&#x424;" horiz-adv-x="1603" 
d="M916 197l-37 -197h-360l38 197q-160 0 -278 68t-170.5 187t-24.5 263t126.5 263t243.5 187t305 68l39 201h359l-39 -201q160 0 278 -68t170 -187t24 -263t-126 -263t-243 -187t-305 -68zM620 517l75 393q-91 0 -163 -56t-89 -139q-16 -84 34.5 -141t142.5 -57zM1055 910
l-76 -393q91 0 163 57t89 141q16 83 -34 139t-142 56z" />
    <glyph glyph-name="afii10039" unicode="&#x425;" horiz-adv-x="1348" 
d="M641 1434l124 -436l294 436h424l-519 -698l266 -736h-424l-143 474l-326 -474h-425l552 736l-247 698h424z" />
    <glyph glyph-name="afii10040" unicode="&#x426;" horiz-adv-x="1442" 
d="M1442 1434l-214 -1099h131l-121 -622h-350l56 287h-903l278 1434h390l-214 -1099h343l214 1099h390z" />
    <glyph glyph-name="afii10041" unicode="&#x427;" horiz-adv-x="1350" 
d="M908 998l85 436h389l-278 -1434h-389l116 605q-61 -61 -150 -93.5t-180 -32.5q-168 0 -266 115.5t-64 294.5l107 545h389l-92 -469q-13 -67 23.5 -112t102.5 -45q69 0 129 48.5t78 141.5z" />
    <glyph glyph-name="afii10042" unicode="&#x428;" horiz-adv-x="2034" 
d="M1464 335l214 1099h389l-278 -1434h-1748l278 1434h391l-214 -1099h288l214 1099h391l-214 -1099h289z" />
    <glyph glyph-name="afii10043" unicode="&#x429;" horiz-adv-x="2068" 
d="M1513 -287l57 287h-1529l278 1434h390l-214 -1099h289l214 1099h390l-214 -1099h289l214 1099h390l-214 -1099h130l-120 -622h-350z" />
    <glyph glyph-name="afii10044" unicode="&#x42a;" horiz-adv-x="1521" 
d="M221 1434h698l-99 -505h211q224 0 345 -132.5t83 -332.5q-26 -131 -113 -237t-217 -166.5t-278 -60.5h-601l217 1121h-307zM1069 464q14 78 -27 115t-129 37h-153l-60 -305h154q184 0 215 153z" />
    <glyph glyph-name="afii10045" unicode="&#x42b;" horiz-adv-x="1874" 
d="M319 1434h390l-99 -505h211q224 0 345.5 -133t83.5 -332q-39 -199 -212 -331.5t-397 -132.5h-600zM859 464q14 78 -27 115t-129 37h-153l-60 -305h154q184 0 215 153zM1907 1434l-279 -1434h-389l279 1434h389z" />
    <glyph glyph-name="afii10046" unicode="&#x42c;" horiz-adv-x="1311" 
d="M319 1434h391l-99 -505h211q224 0 345 -132.5t83 -332.5q-26 -131 -113 -237t-217 -166.5t-278 -60.5h-601zM860 464q13 69 -21.5 110.5t-106.5 41.5h-181l-59 -304h181q72 0 122.5 42t64.5 110z" />
    <glyph glyph-name="afii10047" unicode="&#x42d;" horiz-adv-x="1550" 
d="M625 -25q-216 0 -356.5 107t-211.5 296l240 157q64 -115 155.5 -169.5t224.5 -54.5q127 0 233 72t165 192h-545l55 282h545q-10 120 -83.5 192t-192.5 72q-90 0 -172.5 -55.5t-122.5 -146.5h-412q102 254 308 396.5t457 142.5q212 0 364 -97.5t215 -267t23 -376.5
q-30 -154 -114.5 -291.5t-202.5 -236.5t-267 -156.5t-305 -57.5z" />
    <glyph glyph-name="afii10048" unicode="&#x42e;" horiz-adv-x="2256" 
d="M538 553l-107 -553h-390l278 1434h391l-107 -545h128q71 164 202.5 293t304 202.5t354.5 73.5q213 0 371.5 -98t227.5 -268t30 -375q-40 -205 -175 -375.5t-331.5 -268.5t-409.5 -98q-278 0 -455.5 162.5t-185.5 415.5h-126zM1068 717q-34 -172 54 -289t248 -117t293 117
t167 289q33 172 -54.5 288.5t-247.5 116.5t-293.5 -116.5t-166.5 -288.5z" />
    <glyph glyph-name="afii10049" unicode="&#x42f;" horiz-adv-x="1298" 
d="M763 488h-57q-155 -219 -341 -488h-421l404 549q-109 57 -155.5 164.5t-19.5 247.5q40 210 209.5 341.5t393.5 131.5h554l-278 -1434h-383zM693 769h124l71 363h-124q-80 0 -138.5 -50t-73.5 -132q-17 -81 21.5 -131t119.5 -50z" />
    <glyph glyph-name="afii10065" unicode="&#x430;" horiz-adv-x="1353" 
d="M57 530q30 155 116 281.5t211.5 200t265.5 73.5q190 0 295 -132l22 108h368l-206 -1061h-368l20 108q-157 -133 -347 -133q-140 0 -237 73.5t-133.5 200t-6.5 281.5zM429 530q-19 -96 31.5 -161t141.5 -65t166.5 65t94.5 161t-31.5 161.5t-141.5 65.5t-166.5 -65.5
t-94.5 -161.5z" />
    <glyph glyph-name="afii10066" unicode="&#x431;" horiz-adv-x="1276" 
d="M574 911q106 68 235 68q214 0 329 -142.5t74 -352.5q-27 -142 -123.5 -258.5t-240 -183.5t-303.5 -67q-120 0 -216 40t-160.5 119t-86.5 196.5t7 272.5q30 155 72 274t103 214.5t139 163t184 117t233.5 78.5t292.5 45l-7 -329q-180 -19 -283 -48t-160 -77t-89 -130z
M450 534q-22 -116 22.5 -173t135.5 -57q88 0 153 48.5t79 124.5q14 74 -29.5 123.5t-124.5 49.5q-67 0 -129 -31t-107 -85z" />
    <glyph glyph-name="afii10067" unicode="&#x432;" horiz-adv-x="1081" 
d="M524 0h-505l206 1061h472q156 0 246.5 -86t65.5 -213q-12 -65 -59.5 -118t-116.5 -79q79 -22 117.5 -91t21.5 -153q-26 -136 -155.5 -228.5t-292.5 -92.5zM547 433h-118l-35 -178h118q47 0 82 24.5t42 63.5q7 40 -17.5 65t-71.5 25zM472 656h105q40 0 69 21t35 54
q7 33 -14.5 54t-61.5 21h-104z" />
    <glyph glyph-name="afii10068" unicode="&#x433;" horiz-adv-x="884" 
d="M882 732h-343l-142 -732h-378l206 1061h721z" />
    <glyph glyph-name="afii10069" unicode="&#x434;" horiz-adv-x="1191" 
d="M1098 259l-93 -476h-331l43 217h-447l-43 -217h-329l92 476h99q186 281 288 802h769l-156 -802h108zM441 259h219l106 543h-119q-27 -140 -82 -285t-124 -258z" />
    <glyph glyph-name="afii10070" unicode="&#x435;" horiz-adv-x="1268" 
d="M416 431q-2 -90 53 -137t163 -47q197 0 358 115l105 -169q-237 -218 -525 -218q-182 0 -310 73.5t-180.5 200t-22.5 281.5q30 154 132 281.5t251.5 200.5t312.5 73q120 0 217 -42t157.5 -114.5t83.5 -172t2 -210.5q-11 -61 -39 -115h-758zM693 814q-78 0 -138 -43
t-94 -124h393q1 82 -40 124.5t-121 42.5z" />
    <glyph glyph-name="afii10072" unicode="&#x436;" horiz-adv-x="1711" 
d="M169 1061h378q-63 -325 108 -325h52l63 325h378l-64 -325h53q171 0 234 325h378q-77 -396 -293 -546l140 -515h-404l-89 413h-81l-80 -413h-378l80 413h-81l-249 -413h-404l339 515q-157 151 -80 546z" />
    <glyph glyph-name="afii10073" unicode="&#x437;" horiz-adv-x="1002" 
d="M353 670h145q38 0 67 25.5t36 66.5q6 30 -9 48t-50 18t-64.5 -23t-45.5 -63h-313q55 159 182.5 251t295.5 92q182 0 286 -86t79 -213q-17 -82 -77 -150t-139 -95q84 -30 130 -95t29 -152q-27 -139 -177 -229t-353 -90q-133 0 -225.5 57t-157.5 165l190 154
q41 -56 103 -88.5t130 -32.5q52 0 88 26t43 62q7 38 -21.5 60t-78.5 22h-145z" />
    <glyph glyph-name="afii10074" unicode="&#x438;" horiz-adv-x="1288" 
d="M1270 1061l-206 -1061h-367l101 519l-454 -519h-325l206 1061h367l-102 -519l455 519h325z" />
    <glyph glyph-name="afii10075" unicode="&#x439;" horiz-adv-x="1288" 
d="M773 1192q-157 0 -255 91t-75 230h293q-7 -41 16.5 -68t64.5 -27t74.5 27t43.5 68h293q-31 -139 -164.5 -230t-290.5 -91zM1270 1061l-206 -1061h-367l101 519l-454 -519h-325l206 1061h367l-102 -519l455 519h325z" />
    <glyph glyph-name="afii10076" unicode="&#x43a;" horiz-adv-x="1166" 
d="M826 1061h378q-77 -396 -293 -546l141 -515h-405l-89 413h-81l-80 -413h-378l206 1061h378l-63 -325h52q171 0 234 325z" />
    <glyph glyph-name="afii10077" unicode="&#x43b;" horiz-adv-x="1300" 
d="M1282 1061l-206 -1061h-378l144 739h-203l-78 -397q-30 -156 -170 -253t-324 -97q-79 0 -127 8l62 323h55q56 0 96 30.5t50 85.5l121 622h958z" />
    <glyph glyph-name="afii10078" unicode="&#x43c;" horiz-adv-x="1428" 
d="M609 1061l117 -468l300 468h385l-206 -1061h-349l114 589l-204 -313h-201l-84 313l-113 -589h-349l206 1061h384z" />
    <glyph glyph-name="afii10079" unicode="&#x43d;" horiz-adv-x="1288" 
d="M1270 1061l-206 -1061h-379l75 387h-288l-75 -387h-379l206 1061h379l-68 -352h287l69 352h379z" />
    <glyph glyph-name="afii10080" unicode="&#x43e;" horiz-adv-x="1313" 
d="M57 530q30 154 133 281.5t255.5 200.5t319.5 73q168 0 291 -73.5t176 -200.5t23 -281t-132.5 -281.5t-254 -200.5t-319.5 -73q-167 0 -290.5 73t-177.5 200.5t-24 281.5zM429 530q-19 -96 33 -161t150 -65q99 0 176.5 65t96.5 161t-33.5 161.5t-151.5 65.5
q-98 0 -175 -65t-96 -162z" />
    <glyph glyph-name="afii10081" unicode="&#x43f;" horiz-adv-x="1288" 
d="M1270 1061l-206 -1061h-379l143 738h-287l-144 -738h-379l206 1061h1046z" />
    <glyph glyph-name="afii10082" unicode="&#x440;" horiz-adv-x="1353" 
d="M1296 530q-46 -237 -212.5 -396t-378.5 -159q-192 0 -296 133l-114 -583h-369l299 1536h369l-22 -108q154 132 349 132q140 0 236.5 -73.5t132.5 -200t6 -281.5zM925 530q19 96 -31 161.5t-141 65.5q-92 0 -168 -65.5t-95 -161.5t32 -161t143 -65q91 0 166 65t94 161z
" />
    <glyph glyph-name="afii10083" unicode="&#x441;" horiz-adv-x="1208" 
d="M937 444l147 -144q-231 -325 -559 -325q-117 0 -215 43t-161 117t-88.5 177t-3.5 218q30 154 128 281.5t241.5 200.5t301.5 73q212 0 331.5 -119t115.5 -315h-376q-17 106 -135 106q-79 0 -147.5 -66t-87.5 -161q-19 -99 30.5 -162.5t160.5 -63.5q168 0 317 140z" />
    <glyph glyph-name="afii10084" unicode="&#x442;" horiz-adv-x="1026" 
d="M362 731h-282l64 330h943l-64 -330h-283l-141 -731h-378z" />
    <glyph glyph-name="afii10085" unicode="&#x443;" horiz-adv-x="1136" 
d="M826 1061h397l-833 -1536h-397l290 475l-163 1061h396l42 -581z" />
    <glyph glyph-name="afii10086" unicode="&#x444;" horiz-adv-x="2095" 
d="M57 530q30 155 115.5 281.5t211.5 200t266 73.5q192 0 295 -132l106 542h368l-105 -542q154 132 347 132q140 0 237 -73.5t133.5 -200t6.5 -281.5q-45 -237 -213 -396t-380 -159q-192 0 -295 131l-114 -581h-368l113 581q-153 -131 -347 -131q-140 0 -237 73.5
t-133.5 199.5t-6.5 282zM1666 530q19 96 -31.5 161t-141.5 65t-166.5 -65t-94.5 -161t31.5 -161t141.5 -65t166.5 65t94.5 161zM429 530q-19 -96 31 -161t141 -65q92 0 167.5 65t94.5 161t-31.5 161t-142.5 65q-91 0 -166 -65t-94 -161z" />
    <glyph glyph-name="afii10087" unicode="&#x445;" horiz-adv-x="1136" 
d="M-86 0l405 541l-173 520h401l67 -293l182 293h400l-375 -520l196 -541h-401l-90 312l-212 -312h-400z" />
    <glyph glyph-name="afii10088" unicode="&#x446;" horiz-adv-x="1338" 
d="M1125 321h130l-117 -608h-341l56 287h-835l206 1061h379l-144 -740h287l145 740h379z" />
    <glyph glyph-name="afii10089" unicode="&#x447;" horiz-adv-x="1162" 
d="M560 0l73 378q-112 -99 -251 -99q-163 0 -246 104t-45 299l74 379h379l-67 -340q-10 -53 9.5 -86.5t68.5 -33.5q63 0 100 41.5t56 135.5l55 283h378l-206 -1061h-378z" />
    <glyph glyph-name="afii10090" unicode="&#x448;" horiz-adv-x="1644" 
d="M1626 1061l-206 -1061h-1401l206 1061h358l-144 -739h166l144 739h355l-143 -739h164l144 739h357z" />
    <glyph glyph-name="afii10091" unicode="&#x449;" horiz-adv-x="1695" 
d="M1153 -287l56 287h-1191l206 1061h359l-145 -740h165l145 740h355l-145 -740h166l145 740h357l-144 -740h130l-118 -608h-341z" />
    <glyph glyph-name="afii10092" unicode="&#x44a;" horiz-adv-x="1276" 
d="M835 372q10 52 -18.5 84.5t-81.5 32.5h-107l-45 -234h107q53 0 94 33t51 84zM1191 372q-31 -157 -170.5 -264.5t-312.5 -107.5h-532l149 765h-237l57 296h594l-61 -317h174q173 0 271.5 -107.5t67.5 -264.5z" />
    <glyph glyph-name="afii10093" unicode="&#x44b;" horiz-adv-x="1636" 
d="M678 372q10 52 -18.5 84.5t-81.5 32.5h-108l-45 -234h107q53 0 94.5 33t51.5 84zM1034 372q-31 -157 -170.5 -264.5t-312.5 -107.5h-532l206 1061h357l-62 -317h175q173 0 271.5 -107.5t67.5 -264.5zM1034 0l206 1061h379l-206 -1061h-379z" />
    <glyph glyph-name="afii10094" unicode="&#x44c;" horiz-adv-x="1120" 
d="M678 372q10 52 -18.5 84.5t-81.5 32.5h-108l-45 -234h107q53 0 94.5 33t51.5 84zM1034 372q-31 -157 -170.5 -264.5t-312.5 -107.5h-532l206 1061h357l-62 -317h175q173 0 271.5 -107.5t67.5 -264.5z" />
    <glyph glyph-name="afii10095" unicode="&#x44d;" horiz-adv-x="1207" 
d="M35 291l188 132q48 -66 118 -101.5t153 -35.5q88 0 154.5 37.5t105.5 102.5h-363l40 204h365q-11 66 -54.5 105.5t-106.5 39.5q-127 0 -190 -100h-359q74 185 238 297.5t371 112.5q118 0 214 -43t156 -117t83.5 -177t1.5 -218q-29 -153 -131 -281t-249 -201t-304 -73
q-321 0 -431 316z" />
    <glyph glyph-name="afii10096" unicode="&#x44e;" horiz-adv-x="1824" 
d="M595 1061l-71 -365h105q89 173 266 281t381 108q168 0 291 -73.5t176 -200.5t23 -281t-132.5 -281.5t-254 -200.5t-319.5 -73q-207 0 -341.5 109t-155.5 284h-103l-71 -368h-371l206 1061h371zM940 530q-19 -97 33 -161.5t150 -64.5q99 0 176 64.5t96 161.5
q19 96 -33 161t-151 65q-98 0 -175 -65t-96 -161z" />
    <glyph glyph-name="afii10097" unicode="&#x44f;" horiz-adv-x="1162" 
d="M328 0h-387q8 9 361 388q-103 38 -153 125.5t-28 199.5q19 97 86 177t166.5 125.5t209.5 45.5h561l-206 -1061h-342l67 347h-43q-37 -43 -143.5 -171.5t-148.5 -175.5zM752 806h-150q-44 0 -80 -27.5t-44 -65.5q-8 -41 17 -68t71 -27h150z" />
    <glyph glyph-name="uni0450" unicode="&#x450;" horiz-adv-x="1268" 
d="M416 431q-2 -90 53 -137t163 -47q197 0 358 115l105 -169q-237 -218 -525 -218q-182 0 -310 73.5t-180.5 200t-22.5 281.5q30 154 132 281.5t251.5 200.5t312.5 73q120 0 217 -42t157.5 -114.5t83.5 -172t2 -210.5q-11 -61 -39 -115h-758zM693 814q-78 0 -138 -43
t-94 -124h393q1 82 -40 124.5t-121 42.5zM748 1155l-254 310l273 193l173 -370z" />
    <glyph glyph-name="afii10071" unicode="&#x451;" horiz-adv-x="1268" 
d="M416 431q-2 -90 53 -137t163 -47q197 0 358 115l105 -169q-237 -218 -525 -218q-182 0 -310 73.5t-180.5 200t-22.5 281.5q30 154 132 281.5t251.5 200.5t312.5 73q120 0 217 -42t157.5 -114.5t83.5 -172t2 -210.5q-11 -61 -39 -115h-758zM693 814q-78 0 -138 -43
t-94 -124h393q1 82 -40 124.5t-121 42.5zM400 1372q14 75 77 126.5t140 51.5q76 0 118.5 -51.5t28.5 -126.5t-76.5 -126.5t-139.5 -51.5t-119.5 51.5t-28.5 126.5zM831 1372q14 75 77 126.5t140 51.5t119 -51.5t28 -126.5t-77 -126.5t-140 -51.5q-76 0 -118.5 51.5
t-28.5 126.5z" />
    <glyph glyph-name="afii10099" unicode="&#x452;" horiz-adv-x="1295" 
d="M904 1164h-253l-41 -208q127 126 306 126q166 0 254 -111.5t53 -294.5l-152 -780q-34 -172 -174 -271.5t-346 -99.5q-78 0 -138 15l53 272q45 -8 98 -8q111 0 131 107l133 689q13 66 -17.5 111t-91.5 45q-65 0 -115 -47.5t-69 -142.5l-110 -566h-379l226 1164h-128
l39 202h128l25 129h379l-25 -129h253z" />
    <glyph glyph-name="afii10100" unicode="&#x453;" horiz-adv-x="884" 
d="M915 1465l-374 -310l-143 133l318 370zM882 732h-343l-142 -732h-378l206 1061h721z" />
    <glyph glyph-name="afii10101" unicode="&#x454;" horiz-adv-x="1207" 
d="M943 423l137 -132q-232 -316 -554 -316q-157 0 -275.5 73t-170.5 201t-23 281q30 154 128.5 281.5t242.5 200.5t301 73q207 0 327 -112t123 -298h-360q-26 100 -150 100q-63 0 -122 -39.5t-96 -105.5h364l-40 -204h-363q13 -65 66.5 -102.5t141.5 -37.5q169 0 323 137z
" />
    <glyph glyph-name="afii10102" unicode="&#x455;" horiz-adv-x="980" 
d="M1 202l156 156q105 -108 259 -108q48 0 78.5 17t35.5 46q6 32 -21.5 53t-102.5 38q-155 35 -227 127.5t-47 225.5q28 142 160.5 235t307.5 93q189 0 279 -99t80 -258h-306q0 38 -22.5 60.5t-61.5 22.5q-37 0 -62 -16t-30 -42q-6 -30 20.5 -51t104.5 -39
q169 -38 241.5 -128t46.5 -223q-29 -147 -168.5 -242t-330.5 -95q-120 0 -221 57.5t-169 169.5z" />
    <glyph glyph-name="afii10103" unicode="&#x456;" horiz-adv-x="614" 
d="M15 0l206 1061h379l-206 -1061h-379zM253 1332q17 84 88.5 140.5t160.5 56.5t138.5 -56.5t32.5 -140.5q-17 -83 -88 -139.5t-160 -56.5t-138.5 56.5t-33.5 139.5z" />
    <glyph glyph-name="afii10104" unicode="&#x457;" horiz-adv-x="614" 
d="M74 1372q14 75 77 126.5t140 51.5q76 0 118 -51.5t28 -126.5t-76.5 -126.5t-139.5 -51.5t-119 51.5t-28 126.5zM505 1372q14 75 76.5 126.5t139.5 51.5t119 -51.5t28 -126.5t-77 -126.5t-140 -51.5q-76 0 -118 51.5t-28 126.5zM15 0l206 1061h379l-206 -1061h-379z" />
    <glyph glyph-name="afii10105" unicode="&#x458;" horiz-adv-x="614" 
d="M4 -55l217 1116h379l-227 -1167q-33 -169 -160.5 -269t-306.5 -100q-78 0 -131 21l59 303h57q95 0 113 96zM253 1332q17 84 88.5 140.5t160.5 56.5t138.5 -56.5t32.5 -140.5q-17 -83 -88 -139.5t-160 -56.5t-138.5 56.5t-33.5 139.5z" />
    <glyph glyph-name="afii10106" unicode="&#x459;" horiz-adv-x="1786" 
d="M1345 372q10 51 -19 84t-82 33h-107l-45 -235h107q53 0 94.5 33.5t51.5 84.5zM1248 1061l-61 -317h175q173 0 271.5 -107.5t67.5 -264.5t-170.5 -264.5t-312.5 -107.5h-532l144 746h-190l-79 -404q-30 -156 -170 -253t-324 -97q-79 0 -128 8l62 322h55q56 0 96 31t50 86
l121 622h925z" />
    <glyph glyph-name="afii10107" unicode="&#x45a;" horiz-adv-x="1774" 
d="M1689 372q-31 -157 -171 -264.5t-313 -107.5h-531l75 388h-277l-75 -388h-378l206 1061h378l-68 -351h276l69 351h356l-61 -317h175q173 0 271.5 -107.5t67.5 -264.5zM1332 372q10 52 -18 84.5t-81 32.5h-109l-45 -234h109q53 0 93.5 33t50.5 84z" />
    <glyph glyph-name="afii10108" unicode="&#x45b;" horiz-adv-x="1295" 
d="M144 1164l39 202h128l25 129h379l-25 -129h253l-39 -202h-253l-41 -208q127 126 306 126q166 0 254 -111.5t53 -294.5l-131 -676h-379l115 600q13 66 -17.5 111t-91.5 45q-65 0 -115 -47.5t-69 -142.5l-110 -566h-379l226 1164h-128z" />
    <glyph glyph-name="afii10109" unicode="&#x45c;" horiz-adv-x="1166" 
d="M1041 1465l-374 -310l-143 133l318 370zM826 1061h378q-77 -396 -293 -546l141 -515h-405l-89 413h-81l-80 -413h-378l206 1061h378l-63 -325h52q171 0 234 325z" />
    <glyph glyph-name="uni045D" unicode="&#x45d;" horiz-adv-x="1288" 
d="M764 1155l-254 310l273 193l173 -370zM1270 1061l-206 -1061h-367l101 519l-454 -519h-325l206 1061h367l-102 -519l455 519h325z" />
    <glyph glyph-name="afii10110" unicode="&#x45e;" horiz-adv-x="1136" 
d="M826 1061h397l-833 -1536h-397l290 475l-163 1061h396l42 -581zM696 1192q-157 0 -254.5 91t-74.5 230h292q-7 -41 16.5 -68t64.5 -27t74.5 27t43.5 68h293q-31 -139 -164.5 -230t-290.5 -91z" />
    <glyph glyph-name="afii10193" unicode="&#x45f;" horiz-adv-x="1288" 
d="M1270 1061l-206 -1061h-334l-56 -287h-378l56 287h-334l206 1061h379l-144 -740h287l145 740h379z" />
    <glyph glyph-name="afii10050" unicode="&#x490;" horiz-adv-x="1088" 
d="M41 0l278 1434h570l55 286h349l-121 -622h-529l-213 -1098h-389z" />
    <glyph glyph-name="afii10098" unicode="&#x491;" horiz-adv-x="891" 
d="M888 731h-349l-142 -731h-379l206 1061h387l56 287h341z" />
    <glyph glyph-name="Wgrave" unicode="&#x1e80;" horiz-adv-x="2042" 
d="M1002 1434h392l26 -926l378 926h401l-656 -1434h-399l-48 909l-402 -909h-399l-98 1434h400l17 -926zM1194 1487l-254 310l273 193l173 -370z" />
    <glyph glyph-name="wgrave" unicode="&#x1e81;" horiz-adv-x="1669" 
d="M756 1061h364l6 -618l249 618h380l-507 -1061h-388l-22 546l-234 -546h-388l-95 1061h380l9 -618zM939 1155l-254 310l273 193l174 -370z" />
    <glyph glyph-name="Wacute" unicode="&#x1e82;" horiz-adv-x="2042" 
d="M1002 1434h392l26 -926l378 926h401l-656 -1434h-399l-48 909l-402 -909h-399l-98 1434h400l17 -926zM1590 1797l-375 -310l-142 133l318 370z" />
    <glyph glyph-name="wacute" unicode="&#x1e83;" horiz-adv-x="1669" 
d="M756 1061h364l6 -618l249 618h380l-507 -1061h-388l-22 546l-234 -546h-388l-95 1061h380l9 -618zM1340 1465l-374 -310l-143 133l318 370z" />
    <glyph glyph-name="Wdieresis" unicode="&#x1e84;" horiz-adv-x="2042" 
d="M1002 1434h392l26 -926l378 926h401l-656 -1434h-399l-48 909l-402 -909h-399l-98 1434h400l17 -926zM853 1704q14 75 77 126.5t140 51.5q76 0 118.5 -51.5t28.5 -126.5t-77 -126.5t-140 -51.5t-119 51.5t-28 126.5zM1284 1704q14 75 76.5 126.5t139.5 51.5t119.5 -51.5
t28.5 -126.5t-77 -126.5t-140 -51.5q-76 0 -118.5 51.5t-28.5 126.5z" />
    <glyph glyph-name="wdieresis" unicode="&#x1e85;" horiz-adv-x="1669" 
d="M756 1061h364l6 -618l249 618h380l-507 -1061h-388l-22 546l-234 -546h-388l-95 1061h380l9 -618zM601 1372q14 75 77 126.5t140 51.5q76 0 118.5 -51.5t28.5 -126.5t-76.5 -126.5t-139.5 -51.5t-119.5 51.5t-28.5 126.5zM1032 1372q14 75 76.5 126.5t139.5 51.5
t119.5 -51.5t28.5 -126.5t-77 -126.5t-140 -51.5q-76 0 -118.5 51.5t-28.5 126.5z" />
    <glyph glyph-name="Ygrave" unicode="&#x1ef2;" horiz-adv-x="1358" 
d="M620 1434l135 -519l337 519h422l-634 -877l-108 -557h-390l107 557l-292 877h423zM852 1487l-254 310l273 193l173 -370z" />
    <glyph glyph-name="ygrave" unicode="&#x1ef3;" horiz-adv-x="1136" 
d="M826 1061h397l-833 -1536h-397l290 475l-163 1061h396l42 -581zM671 1155l-254 310l273 193l173 -370z" />
    <glyph glyph-name="thinspace" unicode="&#x2009;" horiz-adv-x="409" 
 />
    <glyph glyph-name="uni2010" unicode="&#x2010;" horiz-adv-x="880" 
d="M760 511h-647l66 338h647z" />
    <glyph glyph-name="figuredash" unicode="&#x2012;" horiz-adv-x="1228" 
d="M1122 511h-1024l67 338h1024z" />
    <glyph glyph-name="endash" unicode="&#x2013;" horiz-adv-x="1024" 
d="M1020 511h-1024l66 338h1024z" />
    <glyph glyph-name="emdash" unicode="&#x2014;" horiz-adv-x="2048" 
d="M2044 511h-2048l66 338h2048z" />
    <glyph glyph-name="afii00208" unicode="&#x2015;" horiz-adv-x="2048" 
d="M1839 511h-1638l66 338h1639z" />
    <glyph glyph-name="uni2016" unicode="&#x2016;" horiz-adv-x="1091" 
d="M-13 -287l354 1823h346l-354 -1823h-346zM441 -287l355 1823h346l-355 -1823h-346z" />
    <glyph glyph-name="underscoredbl" unicode="&#x2017;" horiz-adv-x="1228" 
d="M-99 -509l48 247h1024l-48 -247h-1024zM-39 -197l48 247h1024l-48 -247h-1024z" />
    <glyph glyph-name="quoteleft" unicode="&#x2018;" horiz-adv-x="623" 
d="M647 1140q-14 -72 -86.5 -131t-171.5 -59q-92 0 -141 61t-29 159q21 107 82 204t174 182.5t263 133.5l53 -117q-94 -51 -146 -91t-68 -77t-5.5 -70t46.5 -75q42 -49 29 -120z" />
    <glyph glyph-name="quoteright" unicode="&#x2019;" horiz-adv-x="623" 
d="M265 1406q14 72 86.5 130.5t171.5 58.5q92 0 141 -61t30 -159q-33 -166 -165.5 -307t-354.5 -212l-52 117q94 51 146 91t68 77t5.5 70t-46.5 75q-43 49 -30 120z" />
    <glyph glyph-name="quotesinglbase" unicode="&#x201a;" horiz-adv-x="623" 
d="M31 200q14 72 86.5 130.5t171.5 58.5q92 0 141 -61t30 -159q-32 -165 -165 -306.5t-355 -212.5l-52 117q94 51 145.5 91t67.5 77t5.5 70t-46.5 75q-42 48 -29 120z" />
    <glyph glyph-name="quotereversed" unicode="&#x201b;" horiz-adv-x="623" 
d="M699 1403q-14 -71 -75 -120q-52 -42 -75.5 -75t-22.5 -70t37.5 -77t111.5 -91l-97 -116q-131 48 -211.5 133t-104.5 182t-3 204q19 98 91.5 159t164.5 61q99 0 148.5 -59t35.5 -131z" />
    <glyph glyph-name="quotedblleft" unicode="&#x201c;" horiz-adv-x="1097" 
d="M1114 1140q-14 -72 -86.5 -131t-171.5 -59q-92 0 -141 61t-29 159q21 107 82 204t174 182.5t263 133.5l52 -117q-94 -51 -146 -91t-68 -77t-5 -70t47 -75q42 -49 29 -120zM636 1140q-14 -72 -86.5 -131t-171.5 -59q-92 0 -141 61t-29 159q21 107 82 204t174 182.5
t263 133.5l52 -117q-94 -51 -146 -91t-68 -77t-5 -70t47 -75q42 -49 29 -120z" />
    <glyph glyph-name="quotedblright" unicode="&#x201d;" horiz-adv-x="1097" 
d="M751 1406q14 72 86.5 130.5t171.5 58.5q92 0 141 -61t30 -159q-33 -165 -166 -306.5t-355 -212.5l-52 117q94 51 146 91t68 77t5.5 70t-46.5 75q-42 48 -29 120zM271 1406q14 72 86.5 130.5t171.5 58.5q92 0 141 -61t30 -159q-33 -166 -165.5 -307t-354.5 -212l-52 117
q94 51 146 91t68 77t5.5 70t-46.5 75q-43 49 -30 120z" />
    <glyph glyph-name="quotedblbase" unicode="&#x201e;" horiz-adv-x="1097" 
d="M511 200q14 72 86.5 130.5t171.5 58.5q92 0 141 -61t30 -159q-32 -165 -165 -306.5t-355 -212.5l-52 117q94 51 146 91t68 77t5.5 70t-46.5 75q-43 49 -30 120zM31 200q14 72 86.5 130.5t171.5 58.5q92 0 141 -61t30 -159q-32 -165 -165 -306.5t-355 -212.5l-52 117
q94 51 145.5 91t67.5 77t5.5 70t-46.5 75q-42 48 -29 120z" />
    <glyph glyph-name="uni201F" unicode="&#x201f;" horiz-adv-x="1097" 
d="M1174 1403q-14 -70 -76 -120q-52 -42 -75.5 -75t-22.5 -70t37.5 -77t111.5 -91l-97 -116q-131 48 -211.5 133t-104.5 182t-3 204q19 98 91.5 159t164.5 61q99 0 149 -59t36 -131zM699 1403q-14 -71 -75 -120q-52 -42 -75.5 -75t-22.5 -70t37.5 -77t111.5 -91l-97 -116
q-131 48 -211.5 133t-104.5 182t-3 204q19 98 91.5 159t164.5 61q99 0 148.5 -59t35.5 -131z" />
    <glyph glyph-name="dagger" unicode="&#x2020;" horiz-adv-x="1163" 
d="M237 -268l225 1161h-288l63 321h287l62 318h380l-62 -318h288l-63 -321h-287l-226 -1161h-379z" />
    <glyph glyph-name="daggerdbl" unicode="&#x2021;" horiz-adv-x="1163" 
d="M360 370l102 523h-288l63 321h287l62 318h380l-62 -318h288l-63 -321h-287l-102 -523h288l-62 -322h-288l-62 -316h-379l61 316h-288l63 322h287z" />
    <glyph glyph-name="bullet" unicode="&#x2022;" horiz-adv-x="819" 
d="M93 680q0 132 92 223t225 91q132 0 224 -91t92 -223t-92 -223t-224 -91q-133 0 -225 91t-92 223z" />
    <glyph glyph-name="onedotenleader" unicode="&#x2024;" horiz-adv-x="623" 
d="M27 182q17 88 90 147.5t167 59.5q95 0 145 -59.5t33 -147.5t-90 -147.5t-168 -59.5q-94 0 -144 59.5t-33 147.5z" />
    <glyph glyph-name="twodotenleader" unicode="&#x2025;" horiz-adv-x="1247" 
d="M650 182q17 88 90 147.5t167 59.5q95 0 145 -59.5t33 -147.5t-90 -147.5t-168 -59.5q-94 0 -144 59.5t-33 147.5zM27 182q17 88 90 147.5t167 59.5q95 0 145 -59.5t33 -147.5t-90 -147.5t-168 -59.5q-94 0 -144 59.5t-33 147.5z" />
    <glyph glyph-name="ellipsis" unicode="&#x2026;" horiz-adv-x="1870" 
d="M650 182q17 88 90 147.5t167 59.5q95 0 145 -59.5t33 -147.5t-90 -147.5t-168 -59.5q-94 0 -144 59.5t-33 147.5zM1265 182q17 88 90 147.5t167 59.5q95 0 145 -59.5t33 -147.5t-90 -147.5t-168 -59.5q-94 0 -144 59.5t-33 147.5zM36 182q17 88 90 147.5t167 59.5
q95 0 145 -59.5t33 -147.5t-90 -147.5t-168 -59.5q-94 0 -144 59.5t-33 147.5z" />
    <glyph glyph-name="perthousand" unicode="&#x2030;" horiz-adv-x="2659" 
d="M354 51l1017 1434l183 -109l-1015 -1433zM473 1075q-9 -44 13.5 -74t65.5 -30t77 29.5t43 74.5q8 45 -14 75.5t-65 30.5t-77.5 -30.5t-42.5 -75.5zM189 1075q30 157 161.5 265t293.5 108t251.5 -107.5t59.5 -265.5q-31 -157 -162 -264.5t-293 -107.5t-252 107.5
t-59 264.5zM1240 357q-8 -45 14.5 -74.5t65.5 -29.5t77 29.5t42 74.5q9 45 -13.5 75.5t-65.5 30.5t-77 -30.5t-43 -75.5zM957 357q31 157 162.5 265t292.5 108q162 0 251.5 -107.5t58.5 -265.5q-30 -157 -161 -264t-293 -107q-161 0 -251 107t-60 264zM2060 357
q-8 -45 14.5 -74.5t65.5 -29.5t77 29.5t42 74.5q9 45 -13.5 75.5t-65.5 30.5t-77 -30.5t-43 -75.5zM1777 357q31 158 162 265.5t293 107.5t252 -108t59 -265q-30 -157 -161.5 -264t-293.5 -107t-251.5 107t-59.5 264z" />
    <glyph glyph-name="minute" unicode="&#x2032;" horiz-adv-x="676" 
d="M755 1350l-374 -311l-142 133l316 370z" />
    <glyph glyph-name="second" unicode="&#x2033;" horiz-adv-x="1161" 
d="M1239 1350l-374 -311l-142 133l316 370zM755 1350l-374 -311l-142 133l316 370z" />
    <glyph glyph-name="guilsinglleft" unicode="&#x2039;" horiz-adv-x="779" 
d="M77 529l43 222l586 354l93 -173l-393 -292l279 -293l-160 -173z" />
    <glyph glyph-name="guilsinglright" unicode="&#x203a;" horiz-adv-x="779" 
d="M743 751l-43 -222l-585 -355l-95 173l395 293l-281 292l161 173z" />
    <glyph glyph-name="exclamdbl" unicode="&#x203c;" horiz-adv-x="1195" 
d="M711 460l141 974h390l-237 -974h-294zM574 181q17 87 94.5 146.5t174.5 59.5q98 0 152 -59.5t37 -146.5t-94 -146.5t-175 -59.5q-97 0 -151.5 59.5t-37.5 146.5zM164 460l141 974h390l-237 -974h-294zM28 181q17 87 94 146.5t174 59.5q98 0 152 -59.5t37 -146.5
t-94 -146.5t-175 -59.5q-97 0 -151 59.5t-37 146.5z" />
    <glyph glyph-name="uni203E" unicode="&#x203e;" horiz-adv-x="890" 
d="M234 1183l54 272h676l-54 -272h-676z" />
    <glyph glyph-name="fraction" unicode="&#x2044;" horiz-adv-x="337" 
d="M-380 56l977 1434l194 -114l-976 -1433z" />
    <glyph glyph-name="zerosuperior" unicode="&#x2070;" 
d="M129 948q45 229 169.5 369.5t299.5 140.5q174 0 244 -140.5t25 -369.5q-44 -229 -168.5 -369.5t-298.5 -140.5q-117 0 -189 66t-90 179.5t8 264.5zM410 948q-24 -120 -14 -189t54 -69q43 0 78 68t59 190q24 120 14.5 189t-52.5 69q-87 0 -139 -258z" />
    <glyph glyph-name="uni2071" unicode="&#x2071;" 
d="M269 463l134 686h270l-134 -686h-270zM420 1325q11 59 62.5 99t115.5 40t100 -40t25 -99t-62.5 -98.5t-115.5 -39.5t-100 39.5t-25 98.5z" />
    <glyph glyph-name="foursuperior" unicode="&#x2074;" 
d="M47 621l41 208l519 605h255l-114 -586h101l-44 -227h-102l-30 -158h-269l31 158h-388zM326 847h153l45 231z" />
    <glyph glyph-name="fivesuperior" unicode="&#x2075;" 
d="M554 1193l-33 -98q149 0 237 -89t61 -229q-29 -147 -147 -243t-277 -96q-231 0 -338 197l165 138q76 -90 178 -90q45 0 83 30.5t46 71.5q8 43 -14.5 72t-63.5 29q-44 0 -84 -38l-207 28q8 25 74.5 236.5t100.5 321.5h576l-47 -241h-310z" />
    <glyph glyph-name="sixsuperior" unicode="&#x2076;" 
d="M885 1434l-279 -330q122 -19 191.5 -106t44.5 -218q-29 -146 -157.5 -244t-285.5 -98q-159 0 -249 97.5t-61 244.5q19 101 83 175l408 479h305zM367 782q-9 -46 13.5 -76t63.5 -30q42 0 76.5 30.5t43.5 75.5q8 45 -15 76t-64 31t-75.5 -31t-42.5 -76z" />
    <glyph glyph-name="sevensuperior" unicode="&#x2077;" 
d="M261 1434h669l-41 -211l-460 -760h-305l445 724h-356z" />
    <glyph glyph-name="eightsuperior" unicode="&#x2078;" 
d="M367 767q-8 -44 14.5 -73t62.5 -29t74 29t42 73q9 44 -13.5 73t-62.5 29t-74 -29t-43 -73zM871 1169q-10 -55 -44 -103.5t-84 -79.5q56 -34 78.5 -97.5t9.5 -132.5q-26 -135 -149.5 -226.5t-281.5 -91.5t-246 91.5t-62 226.5q13 69 60.5 132.5t116.5 97.5q-38 30 -53 79
t-5 104q24 122 134.5 205.5t252.5 83.5q141 0 219 -83.5t54 -205.5zM469 1162q-6 -31 10 -53t47 -22t55 22t30 53t-9.5 52t-46.5 21t-55.5 -21t-30.5 -52z" />
    <glyph glyph-name="ninesuperior" unicode="&#x2079;" 
d="M112 463l278 329q-122 19 -191 105.5t-43 217.5q29 147 156.5 245t284.5 98q159 0 249 -98t61 -245q-19 -98 -83 -175l-406 -477h-306zM631 1113q8 46 -15 76.5t-64 30.5q-42 0 -77 -31t-43 -76q-9 -45 14 -75.5t65 -30.5q41 0 76 30.5t44 75.5z" />
    <glyph glyph-name="uni207A" unicode="&#x207a;" 
d="M297 616l40 208h-206l48 247h206l40 208h275l-40 -208h206l-48 -247h-206l-40 -208h-275z" />
    <glyph glyph-name="uni207B" unicode="&#x207b;" 
d="M818 824h-687l48 247h687z" />
    <glyph glyph-name="uni207C" unicode="&#x207c;" 
d="M786 660h-687l46 240h688zM852 996h-687l46 239h687z" />
    <glyph glyph-name="uni207D" unicode="&#x207d;" 
d="M349 948q33 168 130.5 329t235.5 285l171 -129q-207 -217 -259 -485q-52 -269 70 -485l-221 -129q-90 124 -124.5 284.5t-2.5 329.5z" />
    <glyph glyph-name="uni207E" unicode="&#x207e;" 
d="M647 948q-32 -169 -129 -329.5t-235 -284.5l-172 129q207 216 259 485q53 270 -71 485l222 129q90 -124 124.5 -285t1.5 -329z" />
    <glyph glyph-name="uni207F" unicode="&#x207f;" 
d="M411 838l-74 -375h-267l134 686h267l-12 -60q30 34 77 54t98 20q104 0 160 -76t33 -192l-84 -432h-267l77 394q7 33 -8.5 54.5t-46.5 21.5q-28 0 -53.5 -25.5t-33.5 -69.5z" />
    <glyph glyph-name="zeroinferior" unicode="&#x2080;" 
d="M-12 217q44 229 169 369.5t300 140.5q174 0 243.5 -140.5t25.5 -369.5q-45 -229 -169.5 -369.5t-298.5 -140.5q-88 0 -151 38t-95 105.5t-39.5 161.5t15.5 205zM268 217q-25 -120 -15 -189t54 -69q86 0 138 258q24 120 15 189t-52 69q-44 0 -80 -68t-60 -190z" />
    <glyph glyph-name="oneinferior" unicode="&#x2081;" 
d="M409 702h245l-188 -970h-291l136 700l-153 -76l-66 192z" />
    <glyph glyph-name="twoinferior" unicode="&#x2082;" 
d="M560 176l-221 -200h293l-47 -244h-650l42 220l392 351q67 60 78 114q6 32 -9.5 51.5t-46.5 19.5q-33 0 -59.5 -25.5t-36.5 -70.5h-254q32 146 142 240.5t268 94.5q146 0 226.5 -79t55.5 -201q-26 -140 -173 -271z" />
    <glyph glyph-name="threeinferior" unicode="&#x2083;" 
d="M375 51q8 41 -14.5 70t-63.5 29q-20 0 -54 -15l-85 138l215 189h-287l47 240h616l-44 -226l-201 -165q95 -35 137 -112.5t22 -180.5q-26 -134 -145 -222.5t-271 -88.5q-204 0 -305 202l145 132q73 -90 171 -90q41 0 75 28.5t42 71.5z" />
    <glyph glyph-name="fourinferior" unicode="&#x2084;" 
d="M-94 -111l40 209l519 604h255l-114 -585h102l-44 -228h-102l-31 -157h-268l31 157h-388zM183 116h154l45 231z" />
    <glyph glyph-name="fiveinferior" unicode="&#x2085;" 
d="M412 462l-32 -98q149 0 237 -89t60 -229q-28 -147 -146 -243t-278 -96q-231 0 -338 197l165 138q76 -90 178 -90q45 0 83 30.5t46 71.5q8 43 -15 72t-64 29q-45 0 -83 -38l-208 27q25 80 85 268.5t91 289.5h576l-47 -240h-310z" />
    <glyph glyph-name="sixinferior" unicode="&#x2086;" 
d="M742 702l-278 -329q122 -19 191.5 -106t43.5 -218q-28 -146 -156 -244t-286 -98q-159 0 -248.5 97.5t-61.5 244.5q19 98 83 175l407 478h305zM224 51q-8 -46 14.5 -76t63.5 -30q42 0 77 30.5t43 75.5q9 45 -14.5 76t-64.5 31t-75.5 -31t-43.5 -76z" />
    <glyph glyph-name="seveninferior" unicode="&#x2087;" 
d="M119 702h668l-41 -210l-458 -760h-305l444 724h-356z" />
    <glyph glyph-name="eightinferior" unicode="&#x2088;" 
d="M224 36q-8 -44 15 -73.5t63 -29.5t74 29.5t42 73.5q9 44 -13.5 73t-62.5 29q-41 0 -75 -29t-43 -73zM730 438q-11 -55 -45 -104t-84 -79q56 -34 78.5 -97.5t9.5 -132.5q-26 -135 -149.5 -226.5t-281.5 -91.5t-246 91.5t-62 226.5q13 69 60.5 132.5t116.5 97.5
q-37 31 -52.5 79.5t-4.5 103.5q23 122 134 205.5t253 83.5q141 0 218.5 -83.5t54.5 -205.5zM327 431q-5 -31 10.5 -53t46.5 -22t55.5 22t29.5 53q6 31 -9.5 52t-46.5 21t-55.5 -21t-30.5 -52z" />
    <glyph glyph-name="nineinferior" unicode="&#x2089;" 
d="M-30 -268l278 328q-122 19 -191 106t-44 218q29 147 157.5 245t285.5 98q159 0 248.5 -98t60.5 -245q-19 -101 -83 -175l-406 -477h-306zM488 382q9 45 -13.5 75.5t-64.5 30.5t-76.5 -30.5t-43.5 -75.5q-8 -45 15 -76t64 -31t76 31t43 76z" />
    <glyph glyph-name="uni208A" unicode="&#x208a;" 
d="M155 -115l40 208h-206l48 247h206l40 208h275l-40 -208h206l-48 -247h-206l-40 -208h-275z" />
    <glyph glyph-name="uni208B" unicode="&#x208b;" 
d="M676 93h-687l48 247h687z" />
    <glyph glyph-name="uni208C" unicode="&#x208c;" 
d="M644 -71h-687l47 240h687zM710 265h-687l46 239h687z" />
    <glyph glyph-name="uni208D" unicode="&#x208d;" 
d="M208 217q32 168 129 328.5t235 284.5l172 -129q-207 -216 -259 -484q-53 -270 71 -485l-222 -129q-90 124 -124.5 284.5t-1.5 329.5z" />
    <glyph glyph-name="uni208E" unicode="&#x208e;" 
d="M506 217q-33 -169 -130 -329.5t-236 -284.5l-171 129q207 218 259 485q52 268 -70 484l221 129q90 -124 124.5 -284.5t2.5 -328.5z" />
    <glyph glyph-name="uni2090" unicode="&#x2090;" 
d="M358 -279l12 60q-86 -74 -198 -74q-128 0 -197 104t-41 255q29 151 138.5 254.5t238.5 103.5q53 0 97.5 -20t71.5 -54l12 60h260l-134 -689h-260zM195 66q-10 -54 15 -91t75 -37t90 37t50 91q11 55 -14.5 91.5t-76.5 36.5q-50 0 -89 -36.5t-50 -91.5z" />
    <glyph glyph-name="uni2091" unicode="&#x2091;" 
d="M209 -5q3 -45 33.5 -70.5t81.5 -25.5q121 0 230 70l80 -117q-171 -145 -353 -145q-168 0 -260 103.5t-63 255.5t157.5 255t287.5 103q155 0 239.5 -100.5t55.5 -247.5q-7 -37 -27 -81h-462zM361 231q-80 0 -120 -83h206q-5 83 -86 83z" />
    <glyph glyph-name="uni2092" unicode="&#x2092;" 
d="M-55 66q29 152 158.5 255t292.5 103t252.5 -103t60.5 -255q-30 -153 -159.5 -256t-292.5 -103t-252.5 103.5t-59.5 255.5zM205 66q-11 -54 16.5 -91t80.5 -37t95 37t53 91q11 55 -17.5 91.5t-81.5 36.5t-94 -36.5t-52 -91.5z" />
    <glyph glyph-name="uni2093" unicode="&#x2093;" 
d="M-105 -279l266 352l-117 337h287l30 -160l93 160h287l-247 -337l132 -352h-287l-46 179l-112 -179h-286z" />
    <glyph glyph-name="uni2094" unicode="&#x2094;" 
d="M-16 136h461q-3 46 -33 71t-81 25q-122 0 -231 -70l-80 118q169 144 354 144q168 0 259.5 -103t62.5 -255q-30 -152 -158 -255.5t-287 -103.5q-155 0 -239.5 100.5t-55.5 247.5q6 33 28 81zM292 -100q82 0 122 83h-207q5 -83 85 -83z" />
    <glyph glyph-name="uni20A0" unicode="&#x20a0;" horiz-adv-x="1635" 
d="M587 432q-153 0 -265.5 67.5t-162 185t-21.5 260.5q28 142 122.5 260t233 185.5t291.5 67.5q201 0 316 -110.5t104 -291.5h-311q-8 53 -50.5 84t-106.5 31q-90 0 -163 -64.5t-92 -161.5t29 -162t138 -65q115 0 221 82l38 193h686l-50 -257h-365l-22 -113h334l-48 -245
h-334l-24 -120h378l-49 -257h-698l94 487q-114 -56 -223 -56z" />
    <glyph glyph-name="colonmonetary" unicode="&#x20a1;" horiz-adv-x="1550" 
d="M451 -209h-207l105 285q-150 96 -215 265t-25 376q37 189 143 346t264 258t343 128l72 193h207l-70 -188q35 -4 75 -12l75 200h206l-100 -272q108 -68 167.5 -182.5t61.5 -268.5h-411q-6 93 -64.5 147.5t-151.5 54.5q-157 0 -274.5 -114t-151.5 -290q-34 -174 47.5 -290
t242.5 -116q132 0 243.5 54.5t220.5 169.5l179 -157q-270 -355 -626 -397l-70 -190h-207l72 194q-34 4 -75 14z" />
    <glyph glyph-name="uni20A2" unicode="&#x20a2;" horiz-adv-x="1440" 
d="M710 -25q-155 0 -282.5 57.5t-207.5 156.5t-110.5 236.5t-0.5 291.5q30 155 113 292t200 235.5t267 156t308 57.5q251 0 401.5 -142.5t154.5 -396.5h-411q-6 93 -64.5 147.5t-151.5 54.5q-153 0 -273 -115t-153 -289q-25 -124 10 -221t120 -144l98 506h305l-14 -78
q84 92 178 92q52 0 90 -23l-73 -241q-48 23 -82 23q-51 0 -105 -42t-68 -112l-28 -147q167 40 323 205l179 -157q-306 -403 -723 -403z" />
    <glyph glyph-name="franc" unicode="&#x20a3;" horiz-adv-x="1162" 
d="M97 0l83 428h-172l33 172h172l15 78h-172l34 173h172l114 583h913l-65 -333h-525l-48 -250h289l-34 -173h-289l-15 -78h289l-33 -172h-289l-83 -428h-389z" />
    <glyph glyph-name="lira" unicode="&#x20a4;" horiz-adv-x="1205" 
d="M256 450h-203l32 163h213q0 47 -3 71h-197l32 164h132q-17 108 0 199q34 172 194.5 291.5t360.5 119.5q194 0 304 -113t100 -309h-366q-17 86 -102 86q-40 0 -72.5 -28.5t-39.5 -70.5q-14 -68 10 -175h306l-31 -164h-244q3 -40 2 -71h228l-31 -163h-247
q-44 -84 -123 -129h556l-61 -321h-988l59 301q120 45 179 149z" />
    <glyph glyph-name="uni20A6" unicode="&#x20a6;" horiz-adv-x="1518" 
d="M69 0l90 465h-151l38 194h151l21 115h-150l37 195h151l91 465h419l229 -876l171 876h357l-91 -465h156l-38 -195h-156l-22 -115h157l-38 -194h-157l-90 -465h-418l-230 876l-170 -876h-357z" />
    <glyph glyph-name="peseta" unicode="&#x20a7;" horiz-adv-x="1257" 
d="M1324 872h-54q-61 -184 -223 -299t-364 -115h-165l-88 -458h-389l169 872h-116l29 146h116l80 416h554q201 0 318 -116t107 -300h55zM649 1132l-21 -114h282q-8 53 -46 83.5t-100 30.5h-115zM578 760h114q60 0 110 30t80 82h-283z" />
    <glyph glyph-name="uni20A9" unicode="&#x20a9;" horiz-adv-x="2079" 
d="M1021 1434h391l12 -465h202l191 465h400l-213 -465h138l-38 -195h-189l-52 -115h220l-38 -194h-271l-212 -465h-400l-24 465h-220l-205 -465h-400l-31 465h-274l38 194h222l-9 115h-191l37 195h141l-31 465h400l9 -465h201zM627 774l6 -266l110 266h-116zM1431 774
l8 -266l107 266h-115zM1114 909l-110 -250h123z" />
    <glyph glyph-name="afii57636" unicode="&#x20aa;" horiz-adv-x="1823" 
d="M41 0l278 1434h596q148 0 258.5 -63.5t160 -174t23.5 -242.5l-82 -417h-319l71 363q20 100 -33 166.5t-153 66.5h-261l-220 -1133h-319zM1857 1434l-279 -1434h-596q-148 0 -258.5 63t-160 173t-23.5 243l82 418h318l-71 -363q-20 -100 33.5 -166.5t153.5 -66.5h261
l220 1133h320z" />
    <glyph glyph-name="dong" unicode="&#x20ab;" horiz-adv-x="1408" 
d="M57 530q30 155 115.5 281.5t211.5 200t266 73.5q94 0 170.5 -35t124.5 -97l42 211h-258l39 202h258l25 129h368l-24 -129h134l-39 -202h-134l-227 -1164h-368l20 106q-155 -131 -347 -131q-140 0 -237 73.5t-133.5 199.5t-6.5 282zM170 -410l53 274h776l-53 -274h-776z
M429 530q-19 -96 31 -161t141 -65q92 0 167.5 65t94.5 161t-31.5 161t-142.5 65q-91 0 -166 -65t-94 -161z" />
    <glyph glyph-name="Euro" unicode="&#x20ac;" horiz-adv-x="1620" 
d="M47 669h124q1 5 2.5 15t3 18t3.5 15q2 8 5 24t5 24h-123l33 176h156q114 232 334 374.5t479 142.5q251 0 401.5 -142t153.5 -397h-411q-7 94 -65 148.5t-151 54.5q-96 0 -182 -48.5t-146 -132.5h418l-81 -176h-423q-10 -32 -13 -48q-5 -23 -7 -48h405l-81 -176h-303
q31 -85 102.5 -133.5t173.5 -48.5q132 0 244.5 54.5t221.5 169.5l177 -156q-306 -404 -722 -404q-254 0 -420.5 143.5t-191.5 374.5h-156z" />
    <glyph glyph-name="ruble" unicode="&#x20bd;" horiz-adv-x="1257" 
d="M795 189h-329l-36 -189h-389l36 189h-116l35 177h116l17 92h-116l60 302h115l131 674h554q222 0 339.5 -138.5t76.5 -350.5q-41 -211 -212 -349t-394 -138h-165l-17 -92h328zM578 760h114q73 0 137 54t79 131q17 84 -22.5 135.5t-121.5 51.5h-115z" />
    <glyph glyph-name="afii61248" unicode="&#x2105;" horiz-adv-x="2179" 
d="M1140 409q23 119 104.5 219t200.5 157.5t249 57.5t227 -57.5t139.5 -157.5t19.5 -219q-35 -182 -195.5 -308t-358.5 -126t-309.5 126t-76.5 308zM1442 409q-14 -70 25.5 -118t110.5 -48t128 48t71 118q14 69 -25.5 116.5t-110.5 47.5t-128 -47.5t-71 -116.5zM852 954
l124 -112q-182 -252 -440 -252q-190 0 -296.5 125t-70.5 310t186 309.5t335 124.5q176 0 269 -99t84 -253h-290q-3 36 -33.5 57t-71.5 21q-63 0 -114 -46t-64 -114q-15 -79 23 -125t121 -46q128 0 238 100zM508 57l980 1434l194 -114l-976 -1432z" />
    <glyph glyph-name="uni2109" unicode="&#x2109;" horiz-adv-x="1720" 
d="M645 0l279 1434h913l-64 -332h-524l-51 -261h474l-64 -332h-474l-99 -509h-390zM164 1159q24 126 132.5 212.5t242.5 86.5t209 -86.5t51 -212.5q-25 -126 -133.5 -213t-242.5 -87t-209 87t-50 213zM395 1159q-7 -37 12 -61.5t57 -24.5q37 0 66 24t37 62q7 37 -12.5 61
t-56.5 24q-38 0 -67 -24t-36 -61z" />
    <glyph glyph-name="afii61289" unicode="&#x2113;" horiz-adv-x="1178" 
d="M1226 1086l-8 -43q-70 -358 -634 -632l-11 -54q-7 -38 12.5 -62.5t56.5 -24.5q101 0 176 119l235 -153q-69 -120 -196.5 -190.5t-270.5 -70.5q-156 0 -256 80.5t-106 207.5q-91 -33 -141 -48l-41 282q170 61 233 85l99 504q30 157 174 264.5t323 107.5t282 -107.5
t73 -264.5zM713 1074l-60 -308q103 66 156 137t71 162l1 6q8 40 -10.5 66.5t-55.5 26.5q-38 0 -66 -25t-36 -65z" />
    <glyph glyph-name="afii61352" unicode="&#x2116;" horiz-adv-x="2276" 
d="M41 0l278 1434h325l232 -790l153 790h340l-278 -1434h-324l-232 790l-153 -790h-341zM2050 0h-829l53 278h829zM1658 742q-10 -52 17.5 -86t79.5 -34q53 0 94 34t51 86q11 53 -17 87.5t-80 34.5t-93 -34.5t-52 -87.5zM1343 742q33 167 182 283.5t332 116.5t286.5 -116.5
t70.5 -283.5q-21 -109 -96 -200.5t-185.5 -144.5t-230.5 -53q-183 0 -287 115.5t-72 282.5z" />
    <glyph glyph-name="uni2117" unicode="&#x2117;" horiz-adv-x="1646" 
d="M890 562h-96v-240h-246v788h342q129 0 216.5 -78.5t87.5 -195.5t-87.5 -195.5t-216.5 -78.5zM82 717q0 153 58 290t157 236t236 157t290 58t290.5 -58t236.5 -157t157 -236t58 -290t-58 -290.5t-157 -236.5t-236.5 -157t-290.5 -58t-290 58t-236 157t-157 236.5
t-58 290.5zM217 717q0 -169 80.5 -310.5t220 -223t305.5 -81.5t306 81.5t220.5 223t80.5 310.5q0 127 -47.5 241t-128.5 195.5t-193.5 129.5t-237.5 48q-166 0 -305.5 -81t-220 -222.5t-80.5 -310.5zM794 757h70q33 0 57.5 23t24.5 56q0 34 -23 56t-59 22h-70v-157z" />
    <glyph glyph-name="uni2120" unicode="&#x2120;" horiz-adv-x="1642" 
d="M118 829l111 107q73 -79 188 -79q66 0 75 45q4 21 -16 35.5t-72 26.5q-110 26 -161 90.5t-32 157.5q20 102 113.5 167.5t217.5 65.5q130 0 195 -70t57 -182h-213q1 27 -16.5 43t-45.5 16q-25 0 -41.5 -10.5t-19.5 -28.5q-5 -24 13 -39t72 -27q242 -57 205 -245
q-20 -104 -118 -170.5t-233 -66.5q-86 0 -158 41.5t-121 122.5zM1262 842h-133l-67 204l-72 -370h-232l147 758h218l121 -342l254 342h217l-147 -758h-232l71 366z" />
    <glyph glyph-name="uni2121" unicode="&#x2121;" horiz-adv-x="2358" 
d="M1158 431q-6 -88 30.5 -136t107.5 -48q155 0 287 109l115 -168q-211 -213 -461 -213q-153 0 -259.5 73.5t-147 200t-10.5 281.5q45 234 219.5 394.5t386.5 160.5q135 0 232 -71.5t135 -195t9 -272.5q-11 -55 -38 -115h-606zM249 0l213 1099h-305l65 335h978l-65 -335
h-306l-213 -1099h-367zM1754 0l290 1495h357l-290 -1495h-357zM1368 814q-53 0 -95.5 -43t-70.5 -124h260q12 167 -94 167z" />
    <glyph glyph-name="trademark" unicode="&#x2122;" horiz-adv-x="1614" 
d="M248 676l106 548h-175l41 210h601l-41 -210h-175l-106 -548h-251zM1234 842h-133l-68 204l-71 -370h-233l148 758h218l120 -342l254 342h219l-148 -758h-232l70 366z" />
    <glyph glyph-name="Omega" unicode="&#x2126;" horiz-adv-x="1667" 
d="M1237 745q31 159 -52 268t-236 109t-278.5 -109t-156.5 -268q-28 -142 26 -255.5t179 -177.5l-61 -312h-655l65 336h232q-112 82 -154 198t-15 256q27 138 110 262t200.5 213t267 141t305.5 52t285.5 -52t212 -141t117 -213t7.5 -262q-57 -290 -345 -454h233l-65 -336
h-655l60 312q150 64 247.5 177.5t125.5 255.5z" />
    <glyph glyph-name="estimated" unicode="&#x212e;" horiz-adv-x="1646" 
d="M1271 812l53 274q-59 85 -150 132t-207 47q-236 0 -428 -179l-54 -274h786zM447 621l-53 -276q57 -84 149 -130.5t210 -46.5q135 0 262.5 63t225.5 179l148 -116q-133 -151 -310 -235t-363 -84q-153 0 -279 58t-205.5 157t-111 236.5t-1.5 290.5q29 153 114 290t203 236
t266.5 157t301.5 58t279 -58t206 -157t111 -236t2 -290l-20 -96h-1135z" />
    <glyph glyph-name="onethird" unicode="&#x2153;" horiz-adv-x="2007" 
d="M454 56l978 1434l193 -114l-977 -1433zM551 1434h246l-190 -971h-291l137 700l-153 -76l-66 192zM1599 319q8 41 -14 70t-63 29q-21 0 -55 -15l-85 139l215 188h-286l47 241h615l-44 -227l-200 -164q95 -35 136.5 -112t21.5 -181q-26 -134 -145 -223t-271 -89
q-204 0 -305 202l146 132q73 -90 171 -90q41 0 74.5 28.5t41.5 71.5z" />
    <glyph glyph-name="twothirds" unicode="&#x2154;" horiz-adv-x="2007" 
d="M454 56l978 1434l193 -114l-977 -1433zM702 907l-221 -199h293l-48 -245h-649l43 220l391 351q69 61 78 114q6 32 -9 52t-46 20q-33 0 -60 -26t-37 -71h-254q32 146 141.5 240.5t267.5 94.5q146 0 227 -78.5t57 -200.5q-26 -138 -174 -272zM1599 319q8 41 -14 70t-63 29
q-21 0 -55 -15l-85 139l215 188h-286l47 241h615l-44 -227l-200 -164q95 -35 136.5 -112t21.5 -181q-26 -134 -145 -223t-271 -89q-204 0 -305 202l146 132q73 -90 171 -90q41 0 74.5 28.5t41.5 71.5z" />
    <glyph glyph-name="onefifth" unicode="&#x2155;" horiz-adv-x="2007" 
d="M454 56l978 1434l193 -114l-977 -1433zM551 1434h246l-190 -971h-291l137 700l-153 -76l-66 192zM1636 728l-32 -98q149 0 237 -89t61 -229q-29 -147 -147 -243t-278 -96q-230 0 -337 197l165 138q76 -90 178 -90q45 0 82.5 30.5t45.5 72.5q8 43 -15 71.5t-64 28.5
q-45 0 -83 -38l-208 28q102 321 175 558h577l-46 -241h-311z" />
    <glyph glyph-name="twofifths" unicode="&#x2156;" horiz-adv-x="2007" 
d="M454 56l978 1434l193 -114l-977 -1433zM702 907l-221 -199h293l-48 -245h-649l43 220l391 351q69 61 78 114q6 32 -9 52t-46 20q-33 0 -60 -26t-37 -71h-254q32 146 141.5 240.5t267.5 94.5q146 0 227 -78.5t57 -200.5q-26 -138 -174 -272zM1636 728l-32 -98
q149 0 237 -89t61 -229q-29 -147 -147 -243t-278 -96q-230 0 -337 197l165 138q76 -90 178 -90q45 0 82.5 30.5t45.5 72.5q8 43 -15 71.5t-64 28.5q-45 0 -83 -38l-208 28q102 321 175 558h577l-46 -241h-311z" />
    <glyph glyph-name="threefifths" unicode="&#x2157;" horiz-adv-x="2007" 
d="M454 56l978 1434l193 -114l-977 -1433zM1636 728l-32 -98q149 0 237 -89t61 -229q-29 -147 -147 -243t-278 -96q-230 0 -337 197l165 138q76 -90 178 -90q45 0 82.5 30.5t45.5 72.5q8 43 -15 71.5t-64 28.5q-45 0 -83 -38l-208 28q102 321 175 558h577l-46 -241h-311z
M517 782q8 41 -14.5 70t-63.5 29q-20 0 -54 -15l-85 139l215 188h-287l47 241h616l-44 -227l-202 -165q96 -35 138 -112t22 -180q-26 -134 -145 -223t-271 -89q-204 0 -305 202l145 132q73 -90 171 -90q41 0 75 28.5t42 71.5z" />
    <glyph glyph-name="fourfifths" unicode="&#x2158;" horiz-adv-x="2007" 
d="M454 56l978 1434l193 -114l-977 -1433zM1636 728l-32 -98q149 0 237 -89t61 -229q-29 -147 -147 -243t-278 -96q-230 0 -337 197l165 138q76 -90 178 -90q45 0 82.5 30.5t45.5 72.5q8 43 -15 71.5t-64 28.5q-45 0 -83 -38l-208 28q102 321 175 558h577l-46 -241h-311z
M47 621l41 208l519 605h255l-114 -586h101l-44 -227h-102l-30 -158h-269l31 158h-388zM326 847h153l45 231z" />
    <glyph glyph-name="onesixth" unicode="&#x2159;" horiz-adv-x="2007" 
d="M454 56l978 1434l193 -114l-977 -1433zM551 1434h246l-190 -971h-291l137 700l-153 -76l-66 192zM1967 971l-278 -330q122 -19 191.5 -106t43.5 -218q-29 -147 -157 -244.5t-285 -97.5q-159 0 -249.5 98t-61.5 244q19 102 83 176l408 478h305zM1449 319
q-9 -45 13.5 -75.5t64.5 -30.5t76.5 30.5t43.5 75.5t-14.5 76t-64.5 31t-75.5 -31t-43.5 -76z" />
    <glyph glyph-name="fivesixths" unicode="&#x215a;" horiz-adv-x="2007" 
d="M454 56l978 1434l193 -114l-977 -1433zM1967 971l-278 -330q122 -19 191.5 -106t43.5 -218q-29 -147 -157 -244.5t-285 -97.5q-159 0 -249.5 98t-61.5 244q19 102 83 176l408 478h305zM1449 319q-9 -45 13.5 -75.5t64.5 -30.5t76.5 30.5t43.5 75.5t-14.5 76t-64.5 31
t-75.5 -31t-43.5 -76zM554 1193l-33 -98q149 0 237 -89t61 -229q-29 -147 -147 -243t-277 -96q-231 0 -338 197l165 138q76 -90 178 -90q45 0 83 30.5t46 71.5q8 43 -14.5 72t-63.5 29q-44 0 -84 -38l-207 28q8 25 74.5 236.5t100.5 321.5h576l-47 -241h-310z" />
    <glyph glyph-name="oneeighth" unicode="&#x215b;" horiz-adv-x="2007" 
d="M454 56l978 1434l193 -114l-977 -1433zM551 1434h246l-190 -971h-291l137 700l-153 -76l-66 192zM1449 302q-8 -44 14.5 -73t62.5 -29t74 29t42 73t-14 73t-62 29q-41 0 -75 -29t-42 -73zM1954 705q-11 -56 -45 -105t-84 -79q56 -34 79 -97.5t10 -132.5
q-26 -135 -150 -226.5t-282 -91.5t-245.5 91.5t-61.5 226.5q12 68 59.5 132t116.5 98q-37 31 -53 80t-5 104q24 122 134.5 205t252.5 83t220 -83.5t54 -204.5zM1551 697q-6 -31 10.5 -52.5t47.5 -21.5t55 21.5t30 52.5t-10 52t-47 21t-55.5 -21t-30.5 -52z" />
    <glyph glyph-name="threeeighths" unicode="&#x215c;" horiz-adv-x="2007" 
d="M454 56l978 1434l193 -114l-977 -1433zM1449 302q-8 -44 14.5 -73t62.5 -29t74 29t42 73t-14 73t-62 29q-41 0 -75 -29t-42 -73zM1954 705q-11 -56 -45 -105t-84 -79q56 -34 79 -97.5t10 -132.5q-26 -135 -150 -226.5t-282 -91.5t-245.5 91.5t-61.5 226.5q12 68 59.5 132
t116.5 98q-37 31 -53 80t-5 104q24 122 134.5 205t252.5 83t220 -83.5t54 -204.5zM1551 697q-6 -31 10.5 -52.5t47.5 -21.5t55 21.5t30 52.5t-10 52t-47 21t-55.5 -21t-30.5 -52zM517 782q8 41 -14.5 70t-63.5 29q-20 0 -54 -15l-85 139l215 188h-287l47 241h616l-44 -227
l-202 -165q96 -35 138 -112t22 -180q-26 -134 -145 -223t-271 -89q-204 0 -305 202l145 132q73 -90 171 -90q41 0 75 28.5t42 71.5z" />
    <glyph glyph-name="fiveeighths" unicode="&#x215d;" horiz-adv-x="2007" 
d="M454 56l978 1434l193 -114l-977 -1433zM554 1193l-33 -98q149 0 237 -89t61 -229q-29 -147 -147 -243t-277 -96q-231 0 -338 197l165 138q76 -90 178 -90q45 0 83 30.5t46 71.5q8 43 -14.5 72t-63.5 29q-44 0 -84 -38l-207 28q8 25 74.5 236.5t100.5 321.5h576l-47 -241
h-310zM1449 302q-8 -44 14.5 -73t62.5 -29t74 29t42 73t-14 73t-62 29q-41 0 -75 -29t-42 -73zM1954 705q-11 -56 -45 -105t-84 -79q56 -34 79 -97.5t10 -132.5q-26 -135 -150 -226.5t-282 -91.5t-245.5 91.5t-61.5 226.5q12 68 59.5 132t116.5 98q-37 31 -53 80t-5 104
q24 122 134.5 205t252.5 83t220 -83.5t54 -204.5zM1551 697q-6 -31 10.5 -52.5t47.5 -21.5t55 21.5t30 52.5t-10 52t-47 21t-55.5 -21t-30.5 -52z" />
    <glyph glyph-name="seveneighths" unicode="&#x215e;" horiz-adv-x="2007" 
d="M454 56l978 1434l193 -114l-977 -1433zM1449 302q-8 -44 14.5 -73t62.5 -29t74 29t42 73t-14 73t-62 29q-41 0 -75 -29t-42 -73zM1954 705q-11 -56 -45 -105t-84 -79q56 -34 79 -97.5t10 -132.5q-26 -135 -150 -226.5t-282 -91.5t-245.5 91.5t-61.5 226.5q12 68 59.5 132
t116.5 98q-37 31 -53 80t-5 104q24 122 134.5 205t252.5 83t220 -83.5t54 -204.5zM1551 697q-6 -31 10.5 -52.5t47.5 -21.5t55 21.5t30 52.5t-10 52t-47 21t-55.5 -21t-30.5 -52zM261 1434h669l-41 -211l-460 -760h-305l445 724h-356z" />
    <glyph glyph-name="uni215F" unicode="&#x215f;" horiz-adv-x="2007" 
d="M454 56l978 1434l193 -114l-977 -1433zM551 1434h246l-190 -971h-291l137 700l-153 -76l-66 192z" />
    <glyph glyph-name="arrowleft" unicode="&#x2190;" horiz-adv-x="1761" 
d="M651 205l-557 476l557 476l141 -174l-237 -192h1128v-217h-1132l241 -194z" />
    <glyph glyph-name="arrowup" unicode="&#x2191;" horiz-adv-x="1761" 
d="M400 953l477 557l477 -557l-174 -140l-194 237v-1129h-216v1133l-195 -241z" />
    <glyph glyph-name="arrowright" unicode="&#x2192;" horiz-adv-x="1761" 
d="M1660 681l-558 -476l-139 175l240 194h-1133v217h1129l-236 192l139 174z" />
    <glyph glyph-name="arrowdown" unicode="&#x2193;" horiz-adv-x="1761" 
d="M1353 502l-476 -556l-477 556l175 140l194 -240v1132h216v-1130l194 238z" />
    <glyph glyph-name="arrowboth" unicode="&#x2194;" horiz-adv-x="1761" 
d="M1673 681l-557 -476l-140 175l241 194h-666l241 -194l-141 -175l-557 476l557 476l141 -174l-237 -192h657l-236 192l140 174z" />
    <glyph glyph-name="arrowupdn" unicode="&#x2195;" horiz-adv-x="1761" 
d="M874 -60l-476 558l175 139l195 -241v666l-195 -240l-175 140l476 557l478 -557l-175 -140l-193 237v-659l193 237l175 -139z" />
    <glyph glyph-name="arrowupdnbse" unicode="&#x21a8;" horiz-adv-x="1761" 
d="M484 -14h352l-438 512l175 139l195 -241v666l-195 -240l-175 140l476 557l478 -557l-175 -140l-193 237v-659l193 237l175 -139l-440 -512h358v-219h-786v219z" />
    <glyph glyph-name="partialdiff" unicode="&#x2202;" horiz-adv-x="1281" 
d="M654 957q75 0 137.5 -30.5t96.5 -82.5q13 154 -33 219.5t-149 65.5q-151 0 -298 -116l-77 289q189 156 439 156q143 0 249 -54t164 -152.5t75 -235.5t-17 -303q-34 -174 -107 -314.5t-171.5 -232.5t-216.5 -141.5t-244 -49.5q-153 0 -268 65t-166.5 178t-25.5 248
q26 134 120 248t225.5 178.5t266.5 64.5zM565 304q175 0 256 232q-69 93 -192 93q-78 0 -140 -46.5t-75 -116.5q-14 -69 29.5 -115.5t121.5 -46.5z" />
    <glyph glyph-name="Delta" unicode="&#x2206;" horiz-adv-x="1430" 
d="M1104 1434l203 -1434h-1389l761 1434h425zM812 1031l-349 -715h423z" />
    <glyph glyph-name="product" unicode="&#x220f;" horiz-adv-x="1410" 
d="M1457 1516l-339 -1743h-389l275 1408h-344l-274 -1408h-390l339 1743h1122z" />
    <glyph glyph-name="summation" unicode="&#x2211;" horiz-adv-x="1362" 
d="M32 166l563 489l-377 467l76 394h1159l-64 -332h-734l322 -402l-49 -254l-481 -424h732l-65 -331h-1159z" />
    <glyph glyph-name="minus" unicode="&#x2212;" horiz-adv-x="1206" 
d="M1086 513h-972l64 334h973z" />
    <glyph glyph-name="uni2215" unicode="&#x2215;" horiz-adv-x="337" 
d="M-380 56l977 1434l194 -114l-976 -1433z" />
    <glyph glyph-name="uni2219" unicode="&#x2219;" horiz-adv-x="623" 
d="M122 671q17 88 90 147.5t167 59.5q95 0 145 -59.5t33 -147.5t-90 -147.5t-168 -59.5q-94 0 -144 59.5t-33 147.5z" />
    <glyph glyph-name="radical" unicode="&#x221a;" horiz-adv-x="1177" 
d="M649 0h-446l-147 768h385l43 -342l505 1151h383z" />
    <glyph glyph-name="infinity" unicode="&#x221e;" horiz-adv-x="1591" 
d="M464 587q51 0 94.5 20t96.5 73q-33 52 -68.5 72t-86.5 20q-42 0 -75 -26t-40 -66q-8 -41 14.5 -67t64.5 -26zM793 516q-201 -175 -403 -175q-152 0 -235.5 97t-55.5 242q28 144 149.5 241t273.5 97q195 0 334 -176q207 176 404 176q151 0 234.5 -97t55.5 -241
q-28 -145 -150 -242t-273 -97q-98 0 -180 40t-154 135zM1149 587q42 0 75 26t41 67q7 40 -15.5 66t-64.5 26q-50 0 -94 -20t-97 -72q33 -52 69 -72.5t86 -20.5z" />
    <glyph glyph-name="orthogonal" unicode="&#x221f;" horiz-adv-x="1269" 
d="M1206 335l-64 -335h-1101l228 1178h390l-163 -843h710z" />
    <glyph glyph-name="intersection" unicode="&#x2229;" horiz-adv-x="1338" 
d="M724 0l145 749q13 71 -22 125t-101 54q-67 0 -122 -51t-69 -128l-145 -749h-391l148 761q27 139 121.5 254.5t233 182t289.5 66.5t263.5 -66.5t163 -182t23.5 -254.5l-148 -761h-389z" />
    <glyph glyph-name="integral" unicode="&#x222b;" horiz-adv-x="881" 
d="M129 -98l253 1304q35 178 164.5 274.5t355.5 96.5q76 0 138 -15l-53 -272q-39 7 -98 7q-110 0 -129 -97l-253 -1304q-35 -178 -164.5 -274.5t-355.5 -96.5q-76 0 -138 15l53 272q45 -8 98 -8q54 0 87 25.5t42 72.5z" />
    <glyph glyph-name="approxequal" unicode="&#x2248;" horiz-adv-x="1206" 
d="M763 147q-125 0 -220 86q-27 24 -42 36.5t-36.5 23.5t-40.5 11q-57 0 -93 -108l-341 61q62 192 164.5 293.5t236.5 101.5q128 0 221 -86q75 -70 119 -70q56 0 93 108l341 -61q-63 -192 -165.5 -294t-236.5 -102zM864 668q-125 0 -220 86q-39 36 -65.5 53t-53.5 17
q-57 0 -94 -108l-340 61q62 191 165 293t237 102q126 0 221 -86q37 -35 63.5 -52.5t53.5 -17.5q58 0 95 108l340 -61q-62 -191 -165 -293t-237 -102z" />
    <glyph glyph-name="notequal" unicode="&#x2260;" horiz-adv-x="1206" 
d="M1042 286h-565l-195 -276l-173 100l125 176h-164l60 312h326l116 164h-410l60 312h572l178 250l172 -99l-108 -151h159l-60 -312h-320l-117 -164h405z" />
    <glyph glyph-name="equivalence" unicode="&#x2261;" horiz-adv-x="1206" 
d="M1090 530h-973l58 299h973zM1016 153h-973l58 299h973zM1163 908h-973l59 299h973z" />
    <glyph glyph-name="lessequal" unicode="&#x2264;" horiz-adv-x="1206" 
d="M987 0h-974l59 305h974zM203 966l984 345l40 -229l-603 -243l508 -244l-128 -228l-851 344z" />
    <glyph glyph-name="greaterequal" unicode="&#x2265;" horiz-adv-x="1206" 
d="M986 0h-973l59 305h972zM323 1311l851 -345l-51 -255l-984 -344l-40 228l604 244l-508 243z" />
    <glyph glyph-name="house" unicode="&#x2302;" horiz-adv-x="1338" 
d="M428 301h395l59 303l-156 215l-240 -215zM1121 0h-1109l139 713l669 590l440 -590z" />
    <glyph glyph-name="revlogicalnot" unicode="&#x2310;" horiz-adv-x="1206" 
d="M482 513l-57 -293h-369l122 627h973l-65 -334h-604z" />
    <glyph glyph-name="uni2318" unicode="&#x2318;" horiz-adv-x="1687" 
d="M613 934l21 107q8 41 -17.5 74t-67.5 33q-45 0 -80.5 -30.5t-44.5 -76.5t15 -76.5t69 -30.5h105zM935 579l33 164h-165l-33 -164h165zM1252 1041l-20 -107h104q46 0 81.5 30.5t44.5 76.5t-15 76.5t-70 30.5q-45 0 -80.5 -30.5t-44.5 -76.5zM486 281l21 107h-106
q-45 0 -80.5 -30.5t-44.5 -76.5t15 -76.5t69 -30.5q46 0 81.5 30.5t44.5 76.5zM546 587l28 148h-105q-145 0 -225.5 88t-55.5 218q26 130 141 218.5t259 88.5q145 0 225.5 -88.5t54.5 -218.5l-20 -107h148l21 107q26 130 140 218.5t259 88.5t226 -88.5t55 -218.5
q-26 -131 -140.5 -218.5t-259.5 -87.5h-104l-29 -148h105q145 0 225.5 -87.5t54.5 -218.5q-26 -130 -140 -218t-259 -88t-226 88t-55 218l21 107h-149l-20 -107q-26 -130 -140 -218t-259 -88t-226 88t-55 218q26 131 140 218.5t259 87.5h106zM1125 388l-20 -107
q-8 -42 17 -74.5t67 -32.5q46 0 81.5 30.5t44.5 76.5t-15 76.5t-70 30.5h-105z" />
    <glyph glyph-name="lozenge" unicode="&#x25ca;" horiz-adv-x="1202" 
d="M1149 618l-714 -940l-347 940l713 941zM819 618l-125 391l-276 -391l125 -390z" />
    <glyph glyph-name="H18533" unicode="&#x25cf;" horiz-adv-x="2048" 
d="M358 668q37 187 161 346.5t302 252.5t365 93t328.5 -93t203.5 -252.5t25 -346.5q-27 -140 -107 -268.5t-191 -221.5t-250 -148t-279 -55q-187 0 -328.5 93t-203.5 253t-26 347z" />
    <glyph glyph-name="commaaccent" horiz-adv-x="890" 
d="M314 -46l199 -193l-375 -311l-140 134z" />
    <glyph glyph-name="zero.tnum" horiz-adv-x="1174" 
d="M96 717q42 218 134.5 384t231.5 261.5t306 95.5q125 0 215.5 -55t136 -153.5t56.5 -234.5t-23 -298q-43 -218 -135.5 -384.5t-232 -262t-305.5 -95.5q-126 0 -216 55t-135.5 153.5t-56 235t23.5 298.5zM469 717q-37 -185 -17.5 -290.5t95.5 -105.5t136 104t97 292
q36 185 16.5 290.5t-95.5 105.5t-136 -104t-96 -292z" />
    <glyph glyph-name="one.tnum" horiz-adv-x="1035" 
d="M626 1434h338l-279 -1434h-389l209 1079l-241 -120l-88 253z" />
    <glyph glyph-name="two.tnum" horiz-adv-x="1095" 
d="M876 648l-349 -314h455l-64 -334h-928l59 308l575 521q56 51 83.5 90t36.5 82q9 52 -16 84.5t-75 32.5q-52 0 -92.5 -37t-56.5 -106h-362q44 210 207 346.5t387 136.5q206 0 320 -115t80 -293q-40 -202 -260 -402z" />
    <glyph glyph-name="three.tnum" horiz-adv-x="1145" 
d="M671 473q14 69 -25 117t-110 48q-41 0 -74 -15l-112 184l341 300h-449l63 327h877l-63 -320l-314 -259q147 -45 214 -159.5t36 -270.5q-37 -192 -205.5 -321t-409.5 -129q-143 0 -256 74.5t-178 216.5l213 184q100 -143 252 -143q67 0 127 49t73 117z" />
    <glyph glyph-name="four.tnum" horiz-adv-x="1213" 
d="M-3 241l59 306l758 887h351l-169 -870h154l-64 -323h-153l-46 -241h-373l46 241h-563zM372 564h252l74 386z" />
    <glyph glyph-name="five.tnum" horiz-adv-x="1165" 
d="M690 1107q-12 -40 -60 -185q32 2 48 2q206 0 324 -129.5t80 -328.5q-41 -211 -212 -351t-409 -140q-161 0 -271 70t-183 209l209 188q122 -133 270 -133q71 0 133 49.5t75 119.5q14 72 -25.5 120.5t-112.5 48.5q-79 0 -136 -55l-274 37l253 805h819l-64 -327h-464z" />
    <glyph glyph-name="six.tnum" horiz-adv-x="1222" 
d="M1190 1434l-418 -494q88 -4 164 -41.5t127.5 -99t73 -147.5t3.5 -181q-41 -211 -225.5 -353.5t-410.5 -142.5q-149 0 -260.5 64t-162 178.5t-23.5 253.5q26 140 121 254l601 709h410zM429 474q-14 -75 25 -126t111 -51t131.5 51t73.5 126q15 75 -24.5 126t-111.5 51
t-131 -51t-74 -126z" />
    <glyph glyph-name="seven.tnum" horiz-adv-x="1036" 
d="M222 1434h955l-58 -294l-687 -1140h-404l672 1099h-543z" />
    <glyph glyph-name="eight.tnum" horiz-adv-x="1202" 
d="M419 449q-14 -72 25.5 -119.5t108.5 -47.5q70 0 128 47.5t72 119.5q13 73 -26.5 120t-108.5 47q-70 0 -128 -47t-71 -120zM1174 1046q-17 -86 -73.5 -160t-134.5 -114q92 -44 130 -139t16 -202q-38 -194 -215 -325t-403 -131q-148 0 -258.5 60t-160 164.5t-24.5 231.5
q22 108 97 202.5t183 138.5q-64 40 -91.5 114.5t-10.5 159.5q34 174 192 293t360 119t314.5 -119t78.5 -293zM573 1033q-10 -53 18.5 -89t83.5 -36t97.5 36.5t52.5 88.5q10 53 -18.5 89t-83.5 36t-97.5 -36t-52.5 -89z" />
    <glyph glyph-name="nine.tnum" horiz-adv-x="1222" 
d="M105 1l417 494q-88 4 -164 41.5t-127 99t-72.5 147.5t-3.5 181q41 211 225.5 353t410.5 142q149 0 260.5 -64t161.5 -178t23 -253q-26 -140 -121 -254l-600 -709h-410zM865 961q14 75 -25 126t-111 51t-131.5 -51t-73.5 -126q-14 -76 25 -127t111 -51t131.5 51.5
t73.5 126.5z" />
    <glyph glyph-name="parenleft.case" horiz-adv-x="906" 
d="M230 717q54 275 209.5 527.5t378.5 431.5l225 -171q-162 -159 -270.5 -362t-151.5 -426q-44 -222 -14 -426.5t130 -363.5l-293 -171q-154 179 -211 432t-3 529z" />
    <glyph glyph-name="parenright.case" horiz-adv-x="906" 
d="M750 717q-54 -276 -210 -529t-379 -432l-224 171q161 159 269.5 363t152.5 427q43 222 13 425.5t-129 362.5l292 171q154 -179 211.5 -431.5t3.5 -527.5z" />
    <glyph glyph-name="hyphen.case" horiz-adv-x="880" 
d="M770 560h-647l65 338h648z" />
    <glyph glyph-name="at.case" horiz-adv-x="1995" 
d="M545 730q37 193 172 323t305 130q141 0 216 -101l15 80h318l-106 -540q-8 -43 14.5 -66.5t57.5 -23.5q64 0 123 72t81 186q33 168 -31.5 316t-209 237t-332.5 89q-190 0 -365.5 -91t-297.5 -249.5t-159 -348.5q-38 -192 23 -349t208 -248t351 -91q262 0 514 151l58 -186
q-292 -172 -612 -172q-203 0 -367.5 69t-267.5 188.5t-143 285t-4 352.5q48 248 211.5 454t399.5 323.5t492 117.5q114 0 218 -23.5t187.5 -66t153.5 -103t116 -134.5t76 -159t33 -178t-14 -192q-44 -229 -193 -365.5t-377 -136.5q-104 0 -172.5 35t-95.5 98
q-120 -135 -295 -135q-170 0 -254 129.5t-47 322.5zM864 730q-15 -78 18.5 -128.5t98.5 -50.5q70 0 121 50t66 129t-16.5 129t-100.5 50q-66 0 -119 -50.5t-68 -128.5z" />
    <glyph glyph-name="bracketleft.case" horiz-adv-x="906" 
d="M45 -195l354 1823h688l-65 -335h-298l-224 -1153h298l-65 -335h-688z" />
    <glyph glyph-name="bracketright.case" horiz-adv-x="906" 
d="M935 1628l-354 -1823h-686l63 335h297l224 1153h-297l66 335h687z" />
    <glyph glyph-name="braceleft.case" horiz-adv-x="906" 
d="M112 549l64 336q83 0 141.5 45.5t73.5 123.5l44 227q29 148 155 247.5t287 99.5h210l-65 -335h-79q-52 0 -90.5 -30.5t-47.5 -77.5l-45 -233q-18 -91 -76 -152t-149 -83q82 -22 117 -83.5t17 -152.5l-45 -232q-9 -48 17.5 -78.5t77.5 -30.5h79l-65 -335h-211
q-161 0 -248.5 100t-58.5 248l44 226q15 79 -24.5 124.5t-122.5 45.5z" />
    <glyph glyph-name="braceright.case" horiz-adv-x="906" 
d="M867 885l-64 -336q-84 0 -142 -46t-73 -124l-44 -226q-29 -148 -154.5 -248t-286.5 -100h-208l63 335h79q51 0 89.5 31t47.5 78l45 232q18 91 76.5 152.5t149.5 83.5q-83 23 -118 83.5t-17 151.5l45 233q9 47 -17 77.5t-77 30.5h-79l66 335h210q161 0 248 -99.5
t58 -247.5l-44 -227q-15 -78 24.5 -123.5t122.5 -45.5z" />
    <glyph glyph-name="exclamdown.case" horiz-adv-x="648" 
d="M27 0l236 974h294l-140 -974h-390zM236 1252q17 87 94 146.5t174 59.5q98 0 152 -59.5t37 -146.5t-94 -146t-175 -59q-97 0 -151 59t-37 146z" />
    <glyph glyph-name="guillemotleft.case" horiz-adv-x="1334" 
d="M86 579l43 221l587 354l93 -173l-394 -292l280 -293l-160 -173zM642 579l43 221l587 354l93 -173l-394 -292l280 -293l-160 -173z" />
    <glyph glyph-name="periodcentered.case" horiz-adv-x="623" 
d="M132 725q17 88 90 147.5t167 59.5q95 0 145 -59.5t33 -147.5t-90 -147.5t-168 -59.5q-94 0 -144 59.5t-33 147.5z" />
    <glyph glyph-name="guillemotright.case" horiz-adv-x="1334" 
d="M1309 800l-43 -221l-586 -356l-93 173l393 293l-280 292l161 173zM753 800l-43 -221l-586 -356l-93 173l393 293l-280 292l161 173z" />
    <glyph glyph-name="questiondown.case" horiz-adv-x="1146" 
d="M508 974h389q-32 -165 -106.5 -256t-245.5 -179q-50 -26 -71.5 -53t-30.5 -70q-6 -36 17 -63.5t69 -27.5q62 0 107 41.5t57 107.5h374q-44 -229 -214.5 -364t-399.5 -135q-142 0 -243 60.5t-141.5 159.5t-17.5 216q25 127 105 219t236 170q52 27 77.5 65.5t38.5 108.5z
M969 1252q-17 -87 -94.5 -146t-174.5 -59q-98 0 -152 59t-37 146t94 146.5t175 59.5q97 0 151.5 -59.5t37.5 -146.5z" />
    <glyph glyph-name="endash.case" horiz-adv-x="1024" 
d="M1030 560h-1024l66 338h1024z" />
    <glyph glyph-name="emdash.case" horiz-adv-x="2048" 
d="M2054 560h-2048l66 338h2048z" />
    <glyph glyph-name="bullet.case" horiz-adv-x="819" 
d="M93 729q0 132 92 223t225 91q132 0 224 -91t92 -223t-92 -223t-224 -91q-133 0 -225 91t-92 223z" />
    <glyph glyph-name="guilsinglleft.case" horiz-adv-x="779" 
d="M86 579l43 221l587 354l93 -173l-394 -292l280 -293l-160 -173z" />
    <glyph glyph-name="guilsinglright.case" horiz-adv-x="779" 
d="M753 800l-43 -221l-586 -356l-93 173l393 293l-280 292l161 173z" />
    <glyph glyph-name="zero.numerator" 
d="M129 948q45 229 169.5 369.5t299.5 140.5q174 0 244 -140.5t25 -369.5q-44 -229 -168.5 -369.5t-298.5 -140.5q-117 0 -189 66t-90 179.5t8 264.5zM410 948q-24 -120 -14 -189t54 -69q43 0 78 68t59 190q24 120 14.5 189t-52.5 69q-87 0 -139 -258z" />
    <glyph glyph-name="one.numerator" 
d="M551 1434h246l-190 -971h-291l137 700l-153 -76l-66 192z" />
    <glyph glyph-name="two.numerator" 
d="M702 907l-221 -199h293l-48 -245h-649l43 220l391 351q69 61 78 114q6 32 -9 52t-46 20q-33 0 -60 -26t-37 -71h-254q32 146 141.5 240.5t267.5 94.5q146 0 227 -78.5t57 -200.5q-26 -138 -174 -272z" />
    </font>
</defs>
</svg>
