<?xml version="1.0" standalone="no"?>
<!DOCTYPE svg PUBLIC "-//W3C//DTD SVG 1.1//EN" "http://www.w3.org/Graphics/SVG/1.1/DTD/svg11.dtd" >
<svg xmlns="http://www.w3.org/2000/svg" xmlns:xlink="http://www.w3.org/1999/xlink" version="1.1">
<metadata>
Created by FontForge 20201107 at Tue Jan 23 19:03:47 2024
 By 
Copyright (c) 2017 by Hyun-Seung Lee. All rights reserved.
</metadata>
<defs>
<font id="CarosExtraLight-Italic" horiz-adv-x="794" >
  <font-face 
    font-family="Caros ExtraLight"
    font-weight="200"
    font-style="italic"
    font-stretch="normal"
    units-per-em="2048"
    panose-1="2 11 2 3 3 3 2 2 2 4"
    ascent="1638"
    descent="-410"
    x-height="1061"
    cap-height="1434"
    bbox="-853 -532 2462.16 2020"
    underline-thickness="49"
    underline-position="-423"
    slope="-11"
    unicode-range="U+0009-FB04"
  />
<missing-glyph horiz-adv-x="1024" 
d="M870 0h-716v1536h716v-1536zM237 77h550v1381h-550v-1381z" />
    <glyph glyph-name="ff" unicode="ff" horiz-adv-x="1445" 
d="M1583 1487l-16 -81q-35 7 -93 7q-250 0 -305 -279l-14 -73h345l-16 -82h-345l-190 -979h-92l190 979h-605l-189 -979h-92l189 979h-214l17 82h214l14 75q34 174 139 266.5t278 92.5q78 0 145 -20l-34 -81q-56 19 -127 19q-254 0 -309 -279l-14 -73h604l14 75
q34 174 137 266.5t270 92.5q49 0 99 -8z" />
    <glyph glyph-name="fi" unicode="fi" horiz-adv-x="1267" 
d="M442 979l-189 -979h-92l189 979h-214l17 82h214l14 75q34 174 138.5 266.5t276.5 92.5q50 0 106 -8l-16 -81q-39 7 -101 7q-257 0 -312 -279l-14 -73h696l-206 -1061h-92l190 979h-605zM1094 1372q6 33 32.5 55t58.5 22q33 0 50 -22t11 -55q-6 -32 -32 -54t-59 -22
q-32 0 -49.5 22t-11.5 54z" />
    <glyph glyph-name="fl" unicode="fl" horiz-adv-x="1266" 
d="M857 0l253 1305q-72 51 -160 79.5t-173 28.5q-249 0 -304 -279l-14 -73h345l-17 -82h-345l-189 -979h-92l189 979h-224l16 82h225l14 75q34 174 136.5 266.5t269.5 92.5q196 0 339 -109l21 109h92l-290 -1495h-92z" />
    <glyph glyph-name="ffi" unicode="ffi" horiz-adv-x="1964" 
d="M367 1061l14 75q34 174 139 266.5t278 92.5q78 0 145 -20l-34 -81q-56 19 -127 19q-254 0 -309 -279l-14 -73h604l14 75q34 174 139 266.5t275 92.5q53 0 107 -8l-16 -81q-36 7 -101 7q-257 0 -312 -279l-14 -73h696l-205 -1061h-93l190 979h-604l-190 -979h-92l190 979
h-605l-189 -979h-92l189 979h-214l17 82h214zM1790 1372q6 33 32.5 55t58.5 22q33 0 50.5 -22t11.5 -55q-6 -32 -32.5 -54t-59.5 -22q-32 0 -49.5 22t-11.5 54z" />
    <glyph glyph-name="ffl" unicode="ffl" horiz-adv-x="1963" 
d="M1553 0l253 1305q-72 51 -159.5 79.5t-172.5 28.5q-250 0 -305 -279l-14 -73h345l-16 -82h-345l-190 -979h-92l190 979h-605l-189 -979h-92l189 979h-214l17 82h214l14 75q34 174 139 266.5t278 92.5q78 0 145 -20l-34 -81q-56 19 -127 19q-254 0 -309 -279l-14 -73h604
l14 75q34 174 137 266.5t270 92.5q196 0 339 -109l20 109h92l-289 -1495h-93z" />
    <glyph glyph-name=".notdef" horiz-adv-x="1024" 
d="M870 0h-716v1536h716v-1536zM237 77h550v1381h-550v-1381z" />
    <glyph glyph-name=".null" horiz-adv-x="0" 
 />
    <glyph glyph-name=".null" horiz-adv-x="0" 
 />
    <glyph glyph-name="nonmarkingreturn" horiz-adv-x="682" 
 />
    <glyph glyph-name="CR" unicode="&#x9;" horiz-adv-x="0" 
 />
    <glyph glyph-name="space" unicode=" " horiz-adv-x="595" 
 />
    <glyph glyph-name="exclam" unicode="!" horiz-adv-x="620" 
d="M245 383l194 1051h95l-216 -1051h-73zM140 53q6 33 32 55.5t60 22.5t52 -22.5t12 -55.5q-7 -33 -33.5 -55.5t-59.5 -22.5q-34 0 -52 22.5t-11 55.5z" />
    <glyph glyph-name="quotedbl" unicode="&#x22;" horiz-adv-x="949" 
d="M357 936l87 498h93l-108 -498h-72zM678 936l87 498h92l-107 -498h-72z" />
    <glyph glyph-name="numbersign" unicode="#" horiz-adv-x="1369" 
d="M668 0l144 398h-417l-144 -398h-94l144 398h-239l16 80h253l175 477h-259l15 80h273l146 399h94l-146 -399h417l146 399h94l-146 -399h239l-15 -80h-253l-175 -477h259l-15 -80h-274l-144 -398h-94zM600 955l-175 -477h417l175 477h-417z" />
    <glyph glyph-name="dollar" unicode="$" horiz-adv-x="1179" 
d="M69 215l63 55q58 -90 147 -147.5t199 -63.5l125 644q-194 45 -284.5 145t-62.5 242q31 158 168.5 261.5t325.5 106.5l35 184h80l-36 -188q148 -17 235 -106t92 -250h-95q-7 116 -74 185.5t-175 85.5l-116 -595q413 -102 352 -412q-30 -158 -170 -265t-336 -120l-36 -186
h-80l36 185q-253 13 -393 239zM952 359q46 237 -272 326l-122 -624q152 14 261 95.5t133 202.5zM353 1097q-22 -108 48.5 -185t219.5 -119l112 581q-148 -4 -252.5 -82t-127.5 -195z" />
    <glyph glyph-name="percent" unicode="%" horiz-adv-x="1817" 
d="M401 20l1018 1434l69 -42l-1018 -1434zM217 1099q27 140 148 244.5t274 104.5t233.5 -104.5t53.5 -244.5t-148 -244.5t-274 -104.5t-233.5 104.5t-53.5 244.5zM308 1099q-21 -106 37.5 -188t173.5 -82t205 82t111 188t-37.5 187.5t-173.5 81.5t-205 -81.5t-111 -187.5z
M965 335q27 140 147.5 244.5t273.5 104.5t233.5 -104.5t53.5 -244.5t-148 -244.5t-274 -104.5t-233 104.5t-53 244.5zM1056 335q-21 -106 37.5 -187.5t173.5 -81.5t204.5 81.5t110.5 187.5t-37.5 187.5t-173.5 81.5t-204.5 -81.5t-110.5 -187.5z" />
    <glyph glyph-name="ampersand" unicode="&#x26;" horiz-adv-x="1469" 
d="M1116 1130h-89q-3 120 -76 184.5t-185 64.5t-204 -72.5t-112 -173.5q-9 -51 7 -100t49 -93.5t98 -115.5l424 -466q124 159 192 369l88 -13q-72 -235 -224 -419l235 -257l-69 -63l-232 250q-115 -118 -250.5 -184t-277.5 -66q-192 0 -300 116t-76 281q25 127 126 235
t259 188q-90 104 -124 176.5t-17 160.5q27 136 150.5 231t272.5 95q157 0 246.5 -85.5t88.5 -242.5zM506 57q119 0 237.5 60t220.5 169l-411 449q-145 -71 -235.5 -163.5t-110.5 -195.5q-26 -130 61 -224.5t238 -94.5z" />
    <glyph glyph-name="quotesingle" unicode="'" horiz-adv-x="628" 
d="M357 936l87 498h93l-108 -498h-72z" />
    <glyph glyph-name="parenleft" unicode="(" horiz-adv-x="833" 
d="M286 625q54 277 206 530t362 422l54 -53q-198 -164 -338 -402.5t-190 -496.5t-3 -496.5t181 -402.5l-75 -54q-143 170 -196.5 423.5t-0.5 529.5z" />
    <glyph glyph-name="parenright" unicode=")" horiz-adv-x="833" 
d="M585 625q-53 -276 -205.5 -529.5t-363.5 -423.5l-54 54q198 164 338 402.5t190 496.5t3 496.5t-181 402.5l75 53q144 -170 198 -423.5t0 -528.5z" />
    <glyph glyph-name="asterisk" unicode="*" horiz-adv-x="1112" 
d="M265 943l295 -194l72 384h82l-76 -384l371 194l26 -72l-372 -191l298 -192l-55 -71l-295 194l-72 -384h-82l77 384l-371 -194l-28 71l374 192l-299 191z" />
    <glyph glyph-name="plus" unicode="+" horiz-adv-x="1150" 
d="M468 215l83 424h-410l16 81h409l83 425h92l-83 -425h410l-15 -81h-410l-83 -424h-92z" />
    <glyph glyph-name="comma" unicode="," horiz-adv-x="595" 
d="M126 61q6 31 34 53.5t62 22.5q36 0 54 -24.5t9 -71.5q-16 -83 -80 -170.5t-145 -127.5l-29 45q70 49 96 114.5t3 121.5q-7 22 -4 37z" />
    <glyph glyph-name="hyphen" unicode="-" horiz-adv-x="806" 
d="M710 637h-572l18 86h571z" />
    <glyph glyph-name="period" unicode="." horiz-adv-x="595" 
d="M125 56q7 34 34.5 57.5t62.5 23.5q34 0 53 -23t12 -58q-7 -34 -34.5 -57.5t-62.5 -23.5q-34 0 -53 23t-12 58z" />
    <glyph glyph-name="slash" unicode="/" horiz-adv-x="916" 
d="M1044 1519l-1053 -1823l-80 36l1054 1822z" />
    <glyph glyph-name="zero" unicode="0" horiz-adv-x="1191" 
d="M164 717q31 158 86.5 292t132 234.5t177.5 157.5t216 57q92 0 162 -37t112 -103.5t62.5 -159.5t17 -204t-27.5 -237q-42 -213 -124.5 -377.5t-210 -264.5t-279.5 -100q-92 0 -162 37t-112 104t-62 159.5t-16.5 204t28.5 237.5zM257 717q-27 -140 -27 -258t27.5 -208
t90.5 -140.5t157 -50.5t176.5 50.5t145.5 140.5t109 208t73 258t27 257.5t-28 207.5t-91 140.5t-157 50.5t-176.5 -50.5t-145 -140.5t-108.5 -207.5t-73 -257.5z" />
    <glyph glyph-name="one" unicode="1" horiz-adv-x="1191" 
d="M818 1434h88l-278 -1434h-93l260 1338l-372 -191l-26 73z" />
    <glyph glyph-name="two" unicode="2" horiz-adv-x="1191" 
d="M869 679l-642 -597h694l-16 -82h-817l14 79l704 650q197 183 230 355q24 123 -52.5 207.5t-215.5 84.5q-144 0 -256.5 -89.5t-138.5 -224.5h-93q34 174 181 285t322 111q180 0 279 -107t67 -267q-40 -201 -260 -405z" />
    <glyph glyph-name="three" unicode="3" horiz-adv-x="1191" 
d="M902 424q30 154 -62.5 260.5t-256.5 106.5q-63 0 -122 -19l-30 51l570 528h-649l17 83h761l-16 -83l-543 -498q12 1 36 1q202 0 312.5 -124t74.5 -312q-36 -184 -198 -313.5t-370 -129.5q-136 0 -231 59.5t-142 165.5l76 57q38 -92 118 -146t192 -54q165 0 299 106
t164 261z" />
    <glyph glyph-name="four" unicode="4" horiz-adv-x="1191" 
d="M45 332l16 84l888 1018h93l-197 -1017h199l-17 -85h-200l-63 -332h-93l63 332h-689zM170 416h581l168 863z" />
    <glyph glyph-name="five" unicode="5" horiz-adv-x="1191" 
d="M450 -25q-128 0 -225 60t-146 159l76 57q42 -90 122 -142t186 -52q163 0 293.5 106t161.5 265t-58.5 265t-252.5 106q-95 0 -179.5 -43t-140.5 -112l-63 8l239 782h690l-16 -83h-608l-182 -583q126 112 293 112q124 0 217.5 -57t136 -161t17.5 -233q-38 -196 -197.5 -325
t-363.5 -129z" />
    <glyph glyph-name="six" unicode="6" horiz-adv-x="1191" 
d="M952 1434l-514 -616q108 69 234 69q193 0 303 -131t73 -324q-38 -193 -202 -325t-359 -132q-128 0 -225 59.5t-140 165t-18 232.5q24 130 113 238l632 764h103zM954 432q30 157 -59.5 265.5t-247.5 108.5t-288.5 -108.5t-160.5 -265.5q-31 -157 57.5 -266t246.5 -109
t289.5 109t162.5 266z" />
    <glyph glyph-name="seven" unicode="7" horiz-adv-x="1191" 
d="M352 1434h847l-16 -81l-852 -1353h-97l852 1351h-750z" />
    <glyph glyph-name="eight" unicode="8" horiz-adv-x="1191" 
d="M488 -25q-129 0 -226 56t-140.5 153t-20.5 214q26 136 133.5 242t260.5 145q-105 32 -155 121t-29 195q30 151 163.5 254t301.5 103t262 -103t64 -254q-21 -107 -104 -195.5t-200 -120.5q138 -39 202.5 -145t38.5 -242q-35 -178 -194.5 -300.5t-356.5 -122.5zM637 742
q-158 0 -286 -100.5t-156 -242.5q-27 -141 62 -241.5t247 -100.5t286.5 100.5t155.5 241.5q28 142 -61.5 242.5t-247.5 100.5zM653 822q128 0 231.5 81t126.5 197t-49 196t-201 80t-232.5 -80t-126.5 -196t50 -197t201 -81z" />
    <glyph glyph-name="nine" unicode="9" horiz-adv-x="1191" 
d="M313 0l513 615q-106 -68 -233 -68q-126 0 -221 59t-137 163.5t-17 231.5q24 127 108.5 232.5t204 165t246.5 59.5q196 0 308.5 -132t75.5 -325q-26 -130 -112 -237l-632 -764h-104zM311 1001q-20 -103 13.5 -188.5t111 -135t181.5 -49.5q158 0 289 108t162 265
q30 158 -58.5 266.5t-246.5 108.5q-159 0 -290.5 -109t-161.5 -266z" />
    <glyph glyph-name="colon" unicode=":" horiz-adv-x="595" 
d="M125 56q7 34 34.5 57.5t62.5 23.5q34 0 53 -23t12 -58q-7 -34 -34.5 -57.5t-62.5 -23.5q-34 0 -53 23t-12 58zM309 1005q7 34 35 57t63 23q34 0 52.5 -22.5t11.5 -57.5t-34.5 -58t-61.5 -23q-35 0 -54 23.5t-12 57.5z" />
    <glyph glyph-name="semicolon" unicode=";" horiz-adv-x="595" 
d="M309 1005q7 34 35 57t63 23q34 0 52.5 -22.5t11.5 -57.5t-34.5 -58t-61.5 -23q-35 0 -54 23.5t-12 57.5zM126 61q6 31 34 53.5t62 22.5q36 0 54 -24.5t9 -71.5q-16 -83 -80 -170.5t-145 -127.5l-29 45q70 49 96 114.5t3 121.5q-7 22 -4 37z" />
    <glyph glyph-name="less" unicode="&#x3c;" horiz-adv-x="1150" 
d="M179 714l923 490l37 -76l-851 -448l676 -449l-66 -75l-732 490z" />
    <glyph glyph-name="equal" unicode="=" horiz-adv-x="1150" 
d="M1100 881h-912l16 81h911zM1006 398h-912l16 81h911z" />
    <glyph glyph-name="greater" unicode="&#x3e;" horiz-adv-x="1150" 
d="M311 1204l732 -490l-13 -68l-922 -490l-37 75l852 449l-677 448z" />
    <glyph glyph-name="question" unicode="?" horiz-adv-x="1096" 
d="M544 398h-99q34 155 99.5 243t190.5 156q127 71 190.5 136.5t83.5 166.5q24 121 -58.5 197.5t-235.5 76.5q-134 0 -235.5 -71t-145.5 -203h-101q54 171 192.5 264.5t316.5 93.5q191 0 292 -106.5t69 -268.5q-22 -109 -93.5 -191t-218.5 -157q-118 -61 -167 -130t-80 -207
zM352 53q6 33 32 55.5t60 22.5t52 -22.5t12 -55.5q-7 -33 -33.5 -55.5t-59.5 -22.5q-34 0 -52 22.5t-11 55.5z" />
    <glyph glyph-name="at" unicode="@" horiz-adv-x="1927" 
d="M861 115q-168 0 -256.5 126t-53.5 310q36 184 174 310t306 126q100 0 171.5 -48t105.5 -133l31 161h82l-117 -609q-14 -71 22 -120t97 -49q117 0 221.5 122.5t140.5 305.5q41 212 -31.5 388t-238 277t-387.5 101q-221 0 -426.5 -108.5t-348.5 -297t-187 -414.5
q-24 -139 -11 -261.5t69.5 -225.5t140.5 -177t203.5 -115t259.5 -41q291 0 552 164l20 -70q-280 -169 -586 -169q-191 0 -346 69.5t-251 188.5t-133 284.5t-1 352.5q36 186 137.5 352.5t243 285t319 188t360.5 69.5q186 0 338 -65t248 -176.5t134.5 -267.5t4.5 -332
q-42 -215 -175.5 -358.5t-290.5 -143.5q-75 0 -128.5 50.5t-54.5 140.5q-67 -89 -160.5 -140t-197.5 -51zM876 189q135 0 243.5 104t138.5 258t-38 257.5t-203 103.5t-243.5 -103.5t-138.5 -257.5t38 -258t203 -104z" />
    <glyph glyph-name="A" unicode="A" horiz-adv-x="1366" 
d="M1198 0h-105l-81 418h-701l-242 -418h-106l846 1434h100zM997 501l-159 823l-480 -823h639z" />
    <glyph glyph-name="B" unicode="B" horiz-adv-x="1242" 
d="M583 0h-497l279 1434h462q181 0 269.5 -102t57.5 -263q-23 -122 -108.5 -207t-197.5 -111q135 -20 210.5 -115.5t46.5 -244.5q-34 -172 -179 -281.5t-343 -109.5zM1059 1066q25 127 -46 206t-209 79h-362l-110 -568h361q138 0 239.5 78t126.5 205zM1010 393
q27 137 -56.5 223t-243.5 86h-394l-120 -619h393q161 0 277.5 85.5t143.5 224.5z" />
    <glyph glyph-name="C" unicode="C" horiz-adv-x="1552" 
d="M1333 390l62 -45q-127 -173 -310.5 -271.5t-387.5 -98.5q-152 0 -275 57t-197 157t-104 235.5t3 292.5q40 207 165.5 376.5t309 267t386.5 97.5q240 0 397 -131.5t170 -350.5h-102q-17 174 -149.5 286t-331.5 112q-175 0 -335.5 -88t-270 -238.5t-144.5 -330.5t16 -331
t177.5 -239t301.5 -88q178 0 342.5 90t276.5 241z" />
    <glyph glyph-name="D" unicode="D" horiz-adv-x="1405" 
d="M365 1434h451q154 0 272 -52.5t185.5 -147t91.5 -226.5t-9 -291q-63 -322 -285.5 -519.5t-532.5 -197.5h-452zM800 1350h-358l-246 -1266h357q265 0 458.5 173t249.5 460t-70 460t-391 173z" />
    <glyph glyph-name="E" unicode="E" horiz-adv-x="1133" 
d="M86 0l279 1434h795l-16 -83h-702l-114 -589h644l-17 -83h-644l-115 -596h719l-15 -83h-814z" />
    <glyph glyph-name="F" unicode="F" horiz-adv-x="1051" 
d="M86 0l279 1434h775l-17 -83h-681l-113 -587h623l-16 -83h-624l-132 -681h-94z" />
    <glyph glyph-name="G" unicode="G" horiz-adv-x="1579" 
d="M846 729h685l-2 -12q-31 -157 -105 -292.5t-181 -235.5t-249.5 -157t-301.5 -57q-198 0 -342.5 97.5t-205 268t-20.5 376.5q30 155 110 292t193 235.5t257 156t296 57.5q242 0 403.5 -132.5t174.5 -345.5h-103q-16 177 -153 285.5t-338 108.5q-132 0 -257.5 -51.5
t-223.5 -140t-168 -209.5t-96 -256q-35 -180 17 -331t177 -239t296 -88q130 0 246.5 45t206 124.5t154.5 186t100 231.5h-587z" />
    <glyph glyph-name="H" unicode="H" horiz-adv-x="1398" 
d="M86 0l279 1434h94l-131 -672h833l131 672h94l-278 -1434h-94l131 679h-834l-131 -679h-94z" />
    <glyph glyph-name="I" unicode="I" horiz-adv-x="571" 
d="M415 1434h94l-279 -1434h-94z" />
    <glyph glyph-name="J" unicode="J" horiz-adv-x="903" 
d="M615 412l199 1022h94l-198 -1022q-42 -216 -164 -326.5t-307 -110.5q-154 0 -262 80l42 73q111 -69 232 -69q141 0 235.5 89.5t128.5 263.5z" />
    <glyph glyph-name="K" unicode="K" horiz-adv-x="1200" 
d="M1155 1434h94q-117 -596 -516 -722l337 -712h-114l-328 687q-59 -8 -118 -8h-199l-131 -679h-94l279 1434h94l-131 -672h180q268 0 425.5 173t221.5 499z" />
    <glyph glyph-name="L" unicode="L" horiz-adv-x="1054" 
d="M86 0l279 1434h94l-263 -1351h709l-15 -83h-804z" />
    <glyph glyph-name="M" unicode="M" horiz-adv-x="1832" 
d="M893 239h-66l-406 1010l-243 -1249h-92l279 1434h88l430 -1078l850 1078h88l-279 -1434h-92l243 1249z" />
    <glyph glyph-name="N" unicode="N" horiz-adv-x="1414" 
d="M86 0l279 1434h89l609 -1268l247 1268h92l-279 -1434h-89l-610 1268l-246 -1268h-92z" />
    <glyph glyph-name="O" unicode="O" horiz-adv-x="1640" 
d="M729 59q176 0 340 88t277.5 239t148.5 331q35 179 -20 330t-185 239t-306 88t-339.5 -88t-277 -238.5t-148.5 -330.5q-29 -137 -0.5 -256.5t94.5 -209t175 -141t241 -51.5zM1000 1458q122 0 227.5 -37t181.5 -103.5t127 -159t63.5 -204t-9.5 -237.5q-30 -154 -114 -291.5
t-200.5 -236.5t-263.5 -156.5t-299 -57.5t-277.5 57t-202.5 157t-109.5 235.5t0.5 292.5q40 206 169 376t316.5 267.5t390.5 97.5z" />
    <glyph glyph-name="P" unicode="P" horiz-adv-x="1165" 
d="M606 582h-313l-113 -582h-94l279 1434h407q220 0 330.5 -116.5t73.5 -309.5t-193.5 -309.5t-376.5 -116.5zM1080 1008q30 156 -58.5 249.5t-267.5 93.5h-312l-133 -686h312q179 0 304 93.5t155 249.5z" />
    <glyph glyph-name="Q" unicode="Q" horiz-adv-x="1640" 
d="M1000 1458q122 0 227.5 -37t181.5 -103.5t127 -159t63.5 -204t-9.5 -237.5q-32 -163 -121.5 -304.5t-220.5 -244.5l167 -226l-75 -59l-169 231q-219 -139 -458 -139q-152 0 -277.5 57t-202.5 157t-109.5 235.5t0.5 292.5q40 206 169 376t316.5 267.5t390.5 97.5zM729 59
q205 0 394 120l-247 338l73 58l250 -341q112 91 190 216.5t106 266.5q35 179 -20 330t-185 239t-306 88t-339.5 -88t-277 -238.5t-148.5 -330.5q-29 -137 -0.5 -256.5t94.5 -209t175 -141t241 -51.5z" />
    <glyph glyph-name="R" unicode="R" horiz-adv-x="1201" 
d="M895 0l-306 582h-296l-113 -582h-94l279 1434h407q220 0 330.5 -116.5t73.5 -309.5q-34 -173 -164.5 -285.5t-319.5 -135.5l309 -587h-106zM1080 1008q30 156 -58.5 249.5t-267.5 93.5h-312l-133 -686h312q179 0 304 93.5t155 249.5z" />
    <glyph glyph-name="S" unicode="S" horiz-adv-x="1179" 
d="M69 215l63 55q62 -94 158 -152.5t213 -58.5q170 0 296.5 84t152.5 216q25 127 -58 213.5t-272 126.5q-204 44 -299 144.5t-67 246.5q32 160 172 264t330 104q179 0 285.5 -90t112.5 -270h-95q-7 133 -92.5 204.5t-219.5 71.5q-153 0 -263 -78.5t-133 -198.5
q-23 -118 62 -198.5t259 -119.5q436 -99 374 -417q-33 -168 -187.5 -277.5t-367.5 -109.5q-274 0 -424 240z" />
    <glyph glyph-name="T" unicode="T" horiz-adv-x="1101" 
d="M401 0l263 1351h-437l17 83h966l-16 -83h-436l-262 -1351h-95z" />
    <glyph glyph-name="U" unicode="U" horiz-adv-x="1339" 
d="M1346 1434l-185 -948q-44 -227 -211.5 -368t-387.5 -141t-332 140.5t-68 368.5l184 948h94l-186 -955q-35 -185 56 -301.5t269 -116.5t314.5 116.5t171.5 301.5l186 955h95z" />
    <glyph glyph-name="V" unicode="V" horiz-adv-x="1359" 
d="M600 119l769 1315h105l-845 -1434h-103l-287 1434h104z" />
    <glyph glyph-name="W" unicode="W" horiz-adv-x="1927" 
d="M1089 1434h102l124 -1298l625 1298h101l-699 -1434h-102l-126 1303l-632 -1303h-102l-141 1434h100l120 -1298z" />
    <glyph glyph-name="X" unicode="X" horiz-adv-x="1263" 
d="M63 0h-108l658 729l-361 705h108l325 -632l570 632h109l-636 -705l376 -729h-109l-339 656z" />
    <glyph glyph-name="Y" unicode="Y" horiz-adv-x="1304" 
d="M346 1434l336 -752l629 752h107l-707 -846l-114 -588h-94l113 588l-377 846h107z" />
    <glyph glyph-name="Z" unicode="Z" horiz-adv-x="1205" 
d="M39 83l1078 1268h-801l17 83h910l-16 -83l-1079 -1268h852l-15 -83h-961z" />
    <glyph glyph-name="bracketleft" unicode="[" horiz-adv-x="833" 
d="M96 -287l355 1823h508l-16 -83h-415l-321 -1657h415l-17 -83h-509z" />
    <glyph glyph-name="backslash" unicode="\" horiz-adv-x="916" 
d="M603 -304l-345 1823l94 35l345 -1822z" />
    <glyph glyph-name="bracketright" unicode="]" horiz-adv-x="833" 
d="M774 1536l-354 -1823h-509l16 83h415l322 1657h-415l16 83h509z" />
    <glyph glyph-name="asciicircum" unicode="^" horiz-adv-x="1230" 
d="M742 1434h99l194 -380l-85 -53l-176 345l-309 -345l-65 53z" />
    <glyph glyph-name="underscore" unicode="_" horiz-adv-x="1024" 
d="M-164 -316l16 75h1022l-15 -75h-1023z" />
    <glyph glyph-name="grave" unicode="`" horiz-adv-x="835" 
d="M435 1520l221 -335l-67 -47l-223 335z" />
    <glyph glyph-name="a" unicode="a" horiz-adv-x="1296" 
d="M708 1085q147 0 248 -70.5t144 -191.5l46 238h92l-206 -1061h-92l46 238q-91 -121 -219 -192t-275 -71q-152 0 -256.5 76.5t-143 202.5t-9.5 276t116.5 276t222 202.5t286.5 76.5zM518 58q191 0 338.5 138t185.5 334q25 127 -7 234t-119.5 172.5t-214.5 65.5
q-191 0 -339 -138t-186 -334q-25 -127 7.5 -234t120 -172.5t214.5 -65.5z" />
    <glyph glyph-name="b" unicode="b" horiz-adv-x="1296" 
d="M806 1085q152 0 256 -76.5t142 -202t9 -276.5q-22 -112 -78.5 -213t-137 -177t-187 -120.5t-220.5 -44.5q-148 0 -249 71t-143 192l-46 -238h-93l290 1495h92l-130 -672q89 121 218 191.5t277 70.5zM596 58q191 0 338.5 138t185.5 334q25 127 -7 234t-119.5 172.5
t-214.5 65.5q-191 0 -339 -138t-186 -334q-25 -127 7.5 -234t120 -172.5t214.5 -65.5z" />
    <glyph glyph-name="c" unicode="c" horiz-adv-x="1215" 
d="M992 309l63 -44q-215 -290 -537 -290q-155 0 -265.5 76t-154.5 203t-15 276q22 112 82 213.5t145.5 177t196 120t227.5 44.5q187 0 304 -98.5t131 -268.5h-99q-15 130 -110.5 207t-241.5 77q-128 0 -244.5 -65t-195 -173t-102.5 -234t12 -234t127.5 -173t219.5 -65
q138 0 253.5 68t203.5 183z" />
    <glyph glyph-name="d" unicode="d" horiz-adv-x="1296" 
d="M708 1085q147 0 248 -70.5t144 -191.5l130 672h92l-290 -1495h-92l46 238q-91 -121 -219 -192t-275 -71q-152 0 -256.5 76.5t-143 202.5t-9.5 276t116.5 276t222 202.5t286.5 76.5zM518 58q191 0 338.5 138t185.5 334q25 127 -7 234t-119.5 172.5t-214.5 65.5
q-191 0 -339 -138t-186 -334q-25 -127 7.5 -234t120 -172.5t214.5 -65.5z" />
    <glyph glyph-name="e" unicode="e" horiz-adv-x="1226" 
d="M173 507q-20 -122 18.5 -225t131 -164.5t221.5 -61.5q109 0 214.5 48t192.5 135l44 -51q-201 -213 -466 -213q-160 0 -273 75.5t-157.5 202t-15.5 277.5q29 150 123 277t233.5 202.5t292.5 75.5q149 0 255 -70.5t148.5 -190.5t14.5 -264q-4 -22 -15 -53h-962zM716 1005
q-174 0 -324 -122.5t-201 -296.5h869q23 182 -73.5 300.5t-270.5 118.5z" />
    <glyph glyph-name="f" unicode="f" horiz-adv-x="749" 
d="M887 1487l-17 -81q-35 7 -93 7q-249 0 -304 -279l-14 -73h345l-17 -82h-345l-189 -979h-92l189 979h-224l16 82h225l14 75q34 174 136.5 266.5t269.5 92.5q50 0 100 -8z" />
    <glyph glyph-name="g" unicode="g" horiz-adv-x="1296" 
d="M708 1085q147 0 248 -70.5t144 -191.5l46 238h92l-209 -1073q-40 -207 -199 -335t-380 -128q-262 0 -403 217l62 53q56 -87 146 -138t210 -51q177 0 307.5 104.5t163.5 273.5l50 254q-91 -121 -219 -192t-275 -71q-152 0 -256.5 76.5t-143 202.5t-9.5 276t116.5 276
t222 202.5t286.5 76.5zM518 58q191 0 338.5 138t185.5 334q25 127 -7 234t-119.5 172.5t-214.5 65.5q-191 0 -339 -138t-186 -334q-25 -127 7.5 -234t120 -172.5t214.5 -65.5z" />
    <glyph glyph-name="h" unicode="h" horiz-adv-x="1211" 
d="M768 1085q169 0 265.5 -119.5t62.5 -294.5l-130 -671h-93l129 665q28 143 -48.5 240t-222.5 97q-155 0 -291.5 -109.5t-165.5 -258.5l-122 -634h-93l290 1495h92l-123 -635q79 103 199 164t251 61z" />
    <glyph glyph-name="i" unicode="i" horiz-adv-x="523" 
d="M113 0l205 1061h93l-206 -1061h-92zM349 1372q6 33 32.5 55t58.5 22q33 0 50.5 -22t11.5 -55q-6 -32 -32 -54t-59 -22q-32 0 -50 22t-12 54z" />
    <glyph glyph-name="j" unicode="j" horiz-adv-x="523" 
d="M349 1372q6 33 32.5 55t58.5 22q33 0 50.5 -22t11.5 -55q-6 -32 -32 -54t-59 -22q-32 0 -50 22t-12 54zM74 -200l244 1261h93l-245 -1260q-27 -136 -107.5 -206t-196.5 -70q-46 0 -75 4l15 81q28 -3 69 -3q76 0 130 48.5t73 144.5z" />
    <glyph glyph-name="k" unicode="k" horiz-adv-x="1031" 
d="M930 1061h92q-81 -416 -412 -507l294 -554h-112l-285 535q-58 -7 -101 -7h-152l-102 -528h-93l290 1495h92l-172 -886h154q420 0 507 452z" />
    <glyph glyph-name="l" unicode="l" horiz-adv-x="522" 
d="M113 0l289 1495h93l-290 -1495h-92z" />
    <glyph glyph-name="m" unicode="m" horiz-adv-x="1886" 
d="M1482 1085q159 0 241 -118t47 -296l-130 -671h-92l129 665q28 145 -34 241t-198 96q-146 0 -271.5 -108.5t-154.5 -259.5l-123 -634h-92l129 665q28 145 -34.5 241t-198.5 96q-146 0 -271.5 -108.5t-154.5 -259.5l-122 -634h-93l206 1061h92l-36 -192q75 100 184.5 158
t231.5 58q121 0 199.5 -71.5t95.5 -191.5q72 120 192.5 191.5t257.5 71.5z" />
    <glyph glyph-name="n" unicode="n" horiz-adv-x="1211" 
d="M768 1085q169 0 265.5 -119.5t62.5 -294.5l-130 -671h-93l129 665q28 143 -48.5 240t-222.5 97q-155 0 -291.5 -109.5t-165.5 -258.5l-122 -634h-93l206 1061h92l-39 -201q79 103 199 164t251 61z" />
    <glyph glyph-name="o" unicode="o" horiz-adv-x="1271" 
d="M545 58q96 0 189.5 38.5t166.5 102.5t125 150.5t70 180.5q24 126 -14.5 234t-132 173t-221.5 65q-194 0 -354.5 -140t-197.5 -332q-24 -125 14.5 -233.5t132.5 -173.5t222 -65zM744 1085q155 0 268 -76t159.5 -203t17.5 -276q-22 -111 -83.5 -213t-149 -177.5
t-199.5 -120t-229 -44.5q-155 0 -268 76t-159.5 203t-17.5 276q22 111 83.5 213t149 177.5t199.5 120t229 44.5z" />
    <glyph glyph-name="p" unicode="p" horiz-adv-x="1296" 
d="M806 1085q152 0 256 -76.5t142 -202t9 -276.5q-22 -112 -78.5 -213t-137 -177t-187 -120.5t-220.5 -44.5q-148 0 -249 71t-143 192l-140 -713h-92l299 1536h92l-46 -238q89 121 218 191.5t277 70.5zM596 58q191 0 338.5 138t185.5 334q25 127 -7 234t-119.5 172.5
t-214.5 65.5q-191 0 -339 -138t-186 -334q-25 -127 7.5 -234t120 -172.5t214.5 -65.5z" />
    <glyph glyph-name="q" unicode="q" horiz-adv-x="1296" 
d="M708 1085q147 0 248 -70.5t144 -191.5l46 238h92l-299 -1536h-92l139 713q-91 -121 -219 -192t-275 -71q-152 0 -256.5 76.5t-143 202.5t-9.5 276t116.5 276t222 202.5t286.5 76.5zM518 58q191 0 338.5 138t185.5 334q25 127 -7 234t-119.5 172.5t-214.5 65.5
q-191 0 -339 -138t-186 -334q-25 -127 7.5 -234t120 -172.5t214.5 -65.5z" />
    <glyph glyph-name="r" unicode="r" horiz-adv-x="776" 
d="M842 1078l-26 -86q-39 10 -85 10q-155 0 -291.5 -109.5t-165.5 -258.5l-122 -634h-93l206 1061h92l-39 -201q79 103 199 164t251 61q40 0 74 -7z" />
    <glyph glyph-name="s" unicode="s" horiz-adv-x="934" 
d="M19 161l60 51q60 -81 129.5 -118.5t172.5 -37.5q130 0 220 60t109 156q18 89 -49.5 151t-204.5 89q-163 32 -235.5 107.5t-51.5 183.5q23 120 132 201t262 81q150 0 231.5 -75t83.5 -200h-92q-5 84 -65.5 139.5t-168.5 55.5q-113 0 -193.5 -58.5t-97.5 -144.5
q-14 -74 48 -130.5t191 -82.5q169 -33 247.5 -113.5t54.5 -204.5q-25 -130 -141.5 -213t-290.5 -83q-233 0 -351 186z" />
    <glyph glyph-name="t" unicode="t" horiz-adv-x="763" 
d="M451 979l-129 -667q-51 -255 193 -255q55 0 103 8l-14 -71q-45 -19 -109 -19q-331 0 -266 336l129 668h-232l16 82h233l55 284l96 23l-59 -307h333l-17 -82h-332z" />
    <glyph glyph-name="u" unicode="u" horiz-adv-x="1211" 
d="M444 -25q-169 0 -265 120t-62 295l130 671h92l-129 -665q-28 -143 48.5 -240.5t222.5 -97.5q101 0 200 50t168.5 135.5t88.5 183.5l123 634h92l-206 -1061h-92l39 201q-81 -104 -200.5 -165t-249.5 -61z" />
    <glyph glyph-name="v" unicode="v" horiz-adv-x="1047" 
d="M1109 1061l-640 -1061h-95l-229 1061h101l198 -936l565 936h100z" />
    <glyph glyph-name="w" unicode="w" horiz-adv-x="1564" 
d="M839 1061h94l110 -922l483 922h100l-562 -1061h-94l-111 923l-469 -923h-94l-151 1061h101l124 -922z" />
    <glyph glyph-name="x" unicode="x" horiz-adv-x="1047" 
d="M47 0h-107l529 545l-297 516h108l259 -451l436 451h107l-497 -516l318 -545h-107l-283 479z" />
    <glyph glyph-name="y" unicode="y" horiz-adv-x="1062" 
d="M88 -475l299 488l-242 1048h101l213 -928l565 928h100l-936 -1536h-100z" />
    <glyph glyph-name="z" unicode="z" horiz-adv-x="1015" 
d="M3 0l15 82l841 897h-640l17 82h752l-16 -82l-840 -897h686l-15 -82h-800z" />
    <glyph glyph-name="braceleft" unicode="{" horiz-adv-x="833" 
d="M174 584l16 82q100 0 175.5 60.5t94.5 154.5l68 354q25 127 129 214t233 87h80l-17 -83h-75q-91 0 -164 -64t-92 -158l-70 -360q-19 -94 -81 -157.5t-153 -88.5q81 -26 119 -89.5t19 -157.5l-70 -360q-19 -94 30 -158t140 -64h76l-17 -83h-79q-129 0 -199.5 87t-45.5 214
l68 355q19 94 -33 154.5t-152 60.5z" />
    <glyph glyph-name="bar" unicode="|" horiz-adv-x="651" 
d="M122 -287l354 1823h90l-354 -1823h-90z" />
    <glyph glyph-name="braceright" unicode="}" horiz-adv-x="833" 
d="M696 666l-16 -82q-99 0 -174.5 -60.5t-94.5 -154.5l-69 -355q-25 -127 -128.5 -214t-232.5 -87h-80l16 83h76q91 0 164 64t92 158l69 360q19 94 81 158t153 89q-81 26 -118.5 89t-18.5 157l69 360q19 94 -30 158t-140 64h-75l16 83h80q129 0 199.5 -87t45.5 -214
l-69 -354q-19 -94 33 -154.5t152 -60.5z" />
    <glyph glyph-name="asciitilde" unicode="~" horiz-adv-x="1150" 
d="M573 633q-22 28 -38 46t-41 40t-52.5 33t-56.5 11q-153 0 -231 -221l-82 21q47 135 129.5 209t194.5 74q133 0 237 -137q23 -29 38.5 -46t40.5 -39.5t52 -33.5t56 -11q154 0 232 221l82 -22q-46 -135 -129 -208.5t-195 -73.5q-133 0 -237 137z" />
    <glyph glyph-name="uni00A0" unicode="&#xa0;" horiz-adv-x="595" 
 />
    <glyph glyph-name="exclamdown" unicode="&#xa1;" horiz-adv-x="620" 
d="M88 -373l214 1051h74l-194 -1051h-94zM326 1008q6 33 32.5 55t60.5 22q33 0 50.5 -22t11.5 -55q-7 -33 -33.5 -55.5t-59.5 -22.5q-34 0 -51.5 22.5t-10.5 55.5z" />
    <glyph glyph-name="cent" unicode="&#xa2;" horiz-adv-x="1215" 
d="M992 309l63 -44q-199 -270 -492 -288l-32 -165h-81l31 165q-144 9 -245.5 86t-141 200t-11.5 267q28 143 115 266t218.5 200.5t279.5 86.5l33 166h82l-33 -166q168 -11 273 -108.5t118 -256.5h-99q-14 119 -97 194.5t-211 87.5l-182 -940q239 21 412 249zM176 530
q-36 -184 54.5 -320.5t267.5 -150.5l182 941q-182 -14 -325 -150t-179 -320z" />
    <glyph glyph-name="sterling" unicode="&#xa3;" horiz-adv-x="1152" 
d="M179 690h152l-13 53q-47 174 -23 304q34 172 178.5 291.5t319.5 119.5q155 0 253.5 -97.5t90.5 -256.5h-90q1 125 -78.5 197.5t-192.5 72.5q-135 0 -247 -95t-139 -232q-21 -113 22 -273q10 -38 18 -84h442l-15 -79h-418q5 -95 -7 -158q-21 -106 -84.5 -204t-151.5 -165
h750l-15 -84h-880l16 81q106 72 178 170.5t92 201.5q13 68 5 158h-178z" />
    <glyph glyph-name="currency" unicode="&#xa4;" horiz-adv-x="1254" 
d="M206 668q33 162 159 282l-160 199l71 60l163 -199q143 100 300 100q160 0 262 -100l241 199l49 -60l-237 -199q81 -120 48 -282q-33 -165 -159 -285l161 -198l-73 -60l-163 200q-140 -100 -301 -100t-261 100l-240 -200l-49 60l237 198q-80 124 -48 285zM297 668
q-29 -151 54 -256.5t233 -105.5t274 105.5t153 256.5t-54 256t-233 105t-274 -105t-153 -256z" />
    <glyph glyph-name="yen" unicode="&#xa5;" horiz-adv-x="1304" 
d="M346 1434l336 -752l629 752h107l-628 -752h353l-15 -74h-400l-17 -20l-24 -122h414l-15 -74h-413l-76 -392h-94l76 392h-414l14 74h414l23 122l-9 20h-400l14 74h353l-335 752h107z" />
    <glyph glyph-name="brokenbar" unicode="&#xa6;" horiz-adv-x="651" 
d="M317 717l159 819h90l-158 -819h-91zM122 -287l160 819h90l-160 -819h-90z" />
    <glyph glyph-name="section" unicode="&#xa7;" horiz-adv-x="1011" 
d="M909 643q-22 -109 -102.5 -176.5t-202.5 -93.5q239 -83 201 -277q-28 -140 -147.5 -220.5t-300.5 -80.5q-220 0 -357 174l51 45q62 -69 148 -107t179 -38q136 0 227.5 62.5t110.5 160.5q18 91 -44 150t-219 100q-167 44 -242 119t-52 190q20 97 99.5 172t193.5 101
q-110 40 -159.5 103t-30.5 157q24 122 136.5 198t277.5 76q142 0 227.5 -67.5t89.5 -206.5h-88q-2 101 -72.5 150.5t-177.5 49.5q-122 0 -206 -56t-101 -146q-17 -82 47 -134.5t217 -95.5q181 -51 250 -122t47 -187zM568 885l-26 -4q-115 -18 -196 -78t-98 -146
q-18 -90 41 -147.5t198 -93.5q133 5 223.5 64.5t109.5 158.5q19 98 -41.5 153t-210.5 93z" />
    <glyph glyph-name="dieresis" unicode="&#xa8;" horiz-adv-x="835" 
d="M323 1323q6 32 32 54.5t59 22.5t50.5 -22.5t11.5 -54.5q-7 -33 -33 -55t-59 -22t-50.5 22.5t-10.5 54.5zM669 1323q6 32 32 54.5t59 22.5t50.5 -22.5t11.5 -54.5q-7 -33 -33 -55t-59 -22t-50.5 22.5t-10.5 54.5z" />
    <glyph glyph-name="copyright" unicode="&#xa9;" horiz-adv-x="1630" 
d="M74 717q0 153 58 290t157 236t236 157t290 58t290 -58t236 -157t157 -236t58 -290t-58 -290.5t-157 -236.5t-236 -157t-290 -58t-290 58t-236 157t-157 236.5t-58 290.5zM141 717q0 -186 89.5 -342t244.5 -246.5t340 -90.5t340 90.5t244.5 246.5t89.5 342t-89.5 342
t-244.5 246.5t-340 90.5t-340 -90.5t-244.5 -246.5t-89.5 -342zM1105 557l61 -32q-113 -207 -344 -207q-167 0 -277.5 116.5t-110.5 281.5q0 164 110.5 280t277.5 116q134 0 231.5 -70.5t131.5 -192.5h-83q-30 93 -103 142t-177 49q-131 0 -220 -95.5t-89 -228.5
q0 -134 89 -230.5t220 -96.5q187 0 283 168z" />
    <glyph glyph-name="ordfeminine" unicode="&#xaa;" horiz-adv-x="915" 
d="M178 1061q32 166 153 277.5t280 111.5q94 0 161 -42t101 -115l28 141h85l-145 -746h-85l27 139q-134 -155 -323 -155q-105 0 -177 52t-99 140.5t-6 196.5zM264 1061q-26 -133 35.5 -222.5t185.5 -89.5t220.5 89.5t122.5 222.5t-36 222t-186 89t-220 -89t-122 -222z" />
    <glyph glyph-name="guillemotleft" unicode="&#xab;" horiz-adv-x="1274" 
d="M126 614l9 50l581 335l30 -61l-521 -299l405 -299l-55 -61zM628 614l9 50l581 335l30 -61l-521 -299l405 -299l-55 -61z" />
    <glyph glyph-name="logicalnot" unicode="&#xac;" horiz-adv-x="1150" 
d="M885 251l76 388h-820l16 81h911l-91 -469h-92z" />
    <glyph glyph-name="uni00AD" unicode="&#xad;" horiz-adv-x="806" 
d="M710 637h-572l18 86h571z" />
    <glyph glyph-name="registered" unicode="&#xae;" horiz-adv-x="1630" 
d="M810 633h-137v-303h-78v771h231q119 0 193 -65t74 -169q0 -89 -54.5 -149.5t-146.5 -77.5l219 -310h-88zM1016 865q0 73 -53.5 118.5t-140.5 45.5h-149v-329h149q87 0 140.5 45.5t53.5 119.5zM74 717q0 153 58 290t157 236t236 157t290 58t290 -58t236 -157t157 -236
t58 -290t-58 -290.5t-157 -236.5t-236 -157t-290 -58t-290 58t-236 157t-157 236.5t-58 290.5zM141 717q0 -186 89.5 -342t244.5 -246.5t340 -90.5t340 90.5t244.5 246.5t89.5 342t-89.5 342t-244.5 246.5t-340 90.5t-340 -90.5t-244.5 -246.5t-89.5 -342z" />
    <glyph glyph-name="macron" unicode="&#xaf;" horiz-adv-x="835" 
d="M288 1283l14 76h553l-14 -76h-553z" />
    <glyph glyph-name="degree" unicode="&#xb0;" 
d="M203 1182q0 -83 56 -140.5t138 -57.5t138.5 57.5t56.5 140.5t-56.5 140t-138.5 57t-138 -57t-56 -140zM126 1182q0 113 78.5 190.5t192.5 77.5t193 -78t79 -190q0 -113 -79 -191t-193 -78t-192.5 78t-78.5 191z" />
    <glyph glyph-name="plusminus" unicode="&#xb1;" horiz-adv-x="1150" 
d="M483 292l82 422h-409l15 81h410l82 422h92l-82 -422h409l-15 -81h-410l-82 -422h-92zM929 0h-912l16 81h911z" />
    <glyph glyph-name="twosuperior" unicode="&#xb2;" 
d="M632 922l-418 -386h459l-15 -73h-574l13 64l477 439q131 120 152 233q15 78 -34 132t-140 54q-95 0 -164.5 -59.5t-99.5 -154.5h-82q33 128 133 207.5t227 79.5t197.5 -74.5t48.5 -184.5q-26 -135 -180 -277z" />
    <glyph glyph-name="threesuperior" unicode="&#xb3;" 
d="M654 748q20 99 -40.5 167.5t-164.5 68.5q-43 0 -89 -13l-26 44l377 345h-429l14 74h535l-13 -67l-352 -320q140 -5 220 -88.5t54 -215.5q-25 -127 -138 -216t-258 -89q-183 0 -258 165l57 41q38 -68 86.5 -100.5t126.5 -32.5q105 0 192 68.5t106 168.5z" />
    <glyph glyph-name="acute" unicode="&#xb4;" horiz-adv-x="835" 
d="M434 1186l351 335l52 -50l-355 -334z" />
    <glyph glyph-name="mu" unicode="&#xb5;" horiz-adv-x="1229" 
d="M463 -25q-94 0 -169.5 40t-118.5 111l-117 -601h-92l299 1536h92l-129 -665q-28 -143 49 -240.5t223 -97.5q101 0 199.5 50t168 135.5t88.5 183.5l123 634h92l-205 -1061h-93l39 201q-81 -104 -200 -165t-249 -61z" />
    <glyph glyph-name="paragraph" unicode="&#xb6;" horiz-adv-x="1163" 
d="M633 549h-75q-192 0 -323.5 127.5t-131.5 314.5t131.5 315t323.5 128h413v-1702h-77v1630h-184v-1630h-77v817z" />
    <glyph glyph-name="periodcentered" unicode="&#xb7;" horiz-adv-x="595" 
d="M246 675q6 34 33.5 57.5t62.5 23.5q34 0 53 -23t13 -58q-7 -34 -35 -57.5t-63 -23.5q-34 0 -52.5 23t-11.5 58z" />
    <glyph glyph-name="cedilla" unicode="&#xb8;" horiz-adv-x="835" 
d="M244 -199q-27 0 -48 -3l-17 15l37 187h75l-28 -140q103 -4 147.5 -60t29.5 -136q-17 -84 -94 -140t-177 -56q-84 0 -137.5 46.5t-55.5 141.5h78q-1 -61 33.5 -92t91.5 -31q68 0 120 38t63 94q10 55 -25.5 95.5t-92.5 40.5z" />
    <glyph glyph-name="onesuperior" unicode="&#xb9;" 
d="M611 1434h73l-189 -971h-85l172 880l-245 -122l-23 64z" />
    <glyph glyph-name="ordmasculine" unicode="&#xba;" horiz-adv-x="915" 
d="M174 1061q21 107 90 196.5t168 141t205 51.5q161 0 251.5 -113t59.5 -276q-21 -107 -90 -196.5t-168 -141t-205 -51.5q-161 0 -251.5 113t-59.5 276zM260 1061q-25 -131 45 -221.5t196 -90.5t231 90.5t130 221.5t-44.5 221t-195.5 90t-231.5 -90t-130.5 -221z" />
    <glyph glyph-name="guillemotright" unicode="&#xbb;" horiz-adv-x="1274" 
d="M1194 664l-9 -50l-581 -335l-30 61l522 299l-405 299l53 61zM692 664l-9 -50l-581 -335l-29 61l521 299l-405 299l54 61z" />
    <glyph glyph-name="onequarter" unicode="&#xbc;" horiz-adv-x="1917" 
d="M474 18l978 1434l62 -38l-977 -1433zM611 1434h73l-189 -971h-85l172 880l-245 -122l-23 64zM1109 219l13 68l603 684h80l-132 -677h135l-14 -75h-135l-42 -219h-85l42 219h-465zM1223 294h365l105 536z" />
    <glyph glyph-name="onehalf" unicode="&#xbd;" horiz-adv-x="1917" 
d="M611 1434h73l-189 -971h-85l172 880l-245 -122l-23 64zM474 18l978 1434l62 -38l-977 -1433zM1666 459l-419 -386h459l-13 -73h-575l12 65l478 438q130 119 151 233q15 78 -34 132.5t-139 54.5q-95 0 -165 -59.5t-100 -154.5h-82q33 128 133 207t227 79t197.5 -74.5
t48.5 -184.5q-24 -133 -179 -277z" />
    <glyph glyph-name="threequarters" unicode="&#xbe;" horiz-adv-x="1917" 
d="M654 748q20 99 -40.5 167.5t-164.5 68.5q-43 0 -89 -13l-26 44l377 345h-429l14 74h535l-13 -67l-352 -320q140 -5 220 -88.5t54 -215.5q-25 -127 -138 -216t-258 -89q-183 0 -258 165l57 41q38 -68 86.5 -100.5t126.5 -32.5q105 0 192 68.5t106 168.5zM474 18l978 1434
l62 -38l-977 -1433zM1109 219l13 68l603 684h80l-132 -677h135l-14 -75h-135l-42 -219h-85l42 219h-465zM1223 294h365l105 536z" />
    <glyph glyph-name="questiondown" unicode="&#xbf;" horiz-adv-x="1096" 
d="M577 663h98q-37 -160 -101 -245.5t-188 -153.5q-127 -70 -190.5 -136t-83.5 -167q-23 -121 59.5 -197.5t234.5 -76.5q133 0 234.5 71t145.5 203h101q-53 -170 -192 -264t-317 -94q-191 0 -291.5 106t-69.5 268q22 108 94 190.5t219 158.5q118 61 167 130t80 207z
M769 1008q-7 -33 -33.5 -55.5t-59.5 -22.5q-34 0 -52 22.5t-11 55.5q6 33 33 55t61 22q33 0 50.5 -22t11.5 -55z" />
    <glyph glyph-name="Agrave" unicode="&#xc0;" horiz-adv-x="1366" 
d="M1198 0h-105l-81 418h-701l-242 -418h-106l846 1434h100zM997 501l-159 823l-480 -823h639zM839 1911l222 -335l-68 -47l-224 335z" />
    <glyph glyph-name="Aacute" unicode="&#xc1;" horiz-adv-x="1366" 
d="M1198 0h-105l-81 418h-701l-242 -418h-106l846 1434h100zM997 501l-159 823l-480 -823h639zM787 1577l352 335l51 -49l-353 -335z" />
    <glyph glyph-name="Acircumflex" unicode="&#xc2;" horiz-adv-x="1366" 
d="M1198 0h-105l-81 418h-701l-242 -418h-106l846 1434h100zM997 501l-159 823l-480 -823h639zM1136 1528l-203 287l-313 -287l-47 47l340 311h68l217 -311z" />
    <glyph glyph-name="Atilde" unicode="&#xc3;" horiz-adv-x="1366" 
d="M1198 0h-105l-81 418h-701l-242 -418h-106l846 1434h100zM997 501l-159 823l-480 -823h639zM897 1645l-17 22q-21 27 -33 40.5t-32 25.5t-40 12q-74 0 -133 -149l-77 17q84 208 217 208q79 0 143 -85l16 -22q28 -37 51 -56t51 -19q75 0 134 149l76 -16
q-84 -208 -218 -208q-76 0 -138 81z" />
    <glyph glyph-name="Adieresis" unicode="&#xc4;" horiz-adv-x="1366" 
d="M1198 0h-105l-81 418h-701l-242 -418h-106l846 1434h100zM997 501l-159 823l-480 -823h639zM662 1704q6 32 32.5 54.5t59.5 22.5t50 -22t11 -55q-6 -32 -32.5 -54.5t-59.5 -22.5t-50 22t-11 55zM1008 1704q6 32 32.5 54.5t59.5 22.5t50 -22t11 -55q-6 -32 -32.5 -54.5
t-59.5 -22.5t-50 22t-11 55z" />
    <glyph glyph-name="Aring" unicode="&#xc5;" horiz-adv-x="1366" 
d="M1198 0h-105l-81 418h-701l-242 -418h-106l846 1434h100zM997 501l-159 823l-480 -823h639zM783 1725q-10 -56 20.5 -94t86.5 -38t102 38t56 94t-20.5 94.5t-86.5 38.5t-102 -38.5t-56 -94.5zM713 1725q17 83 86 139.5t154 56.5q86 0 133.5 -56.5t31.5 -139.5t-85 -139
t-155 -56t-133.5 56t-31.5 139z" />
    <glyph glyph-name="AE" unicode="&#xc6;" horiz-adv-x="1883" 
d="M62 0h-109l1128 1434h829l-17 -83h-688l-114 -589h631l-16 -83h-632l-116 -596h707l-15 -83h-801l81 418h-540zM454 501h492l161 831z" />
    <glyph glyph-name="Ccedilla" unicode="&#xc7;" horiz-adv-x="1552" 
d="M700 -199q-27 0 -48 -3l-16 15l32 163q-194 7 -332.5 106.5t-195 266.5t-16.5 368q40 207 165.5 376.5t309 267t386.5 97.5q240 0 397 -131.5t170 -350.5h-102q-17 174 -149.5 286t-331.5 112q-175 0 -335.5 -88t-270 -238.5t-144.5 -330.5t16 -331t177.5 -239t301.5 -88
q178 0 342.5 90t276.5 241l62 -45q-121 -163 -291 -260.5t-362 -107.5l-22 -117q103 -4 147.5 -60t29.5 -136q-17 -84 -94 -140t-177 -56q-84 0 -137.5 46.5t-55.5 141.5h78q-1 -61 33.5 -92t91.5 -31q68 0 120 38t63 94q10 55 -26 95.5t-93 40.5z" />
    <glyph glyph-name="Egrave" unicode="&#xc8;" horiz-adv-x="1133" 
d="M86 0l279 1434h795l-16 -83h-702l-114 -589h644l-17 -83h-644l-115 -596h719l-15 -83h-814zM722 1911l222 -335l-67 -47l-225 335z" />
    <glyph glyph-name="Eacute" unicode="&#xc9;" horiz-adv-x="1133" 
d="M86 0l279 1434h795l-16 -83h-702l-114 -589h644l-17 -83h-644l-115 -596h719l-15 -83h-814zM693 1577l351 335l52 -49l-354 -335z" />
    <glyph glyph-name="Ecircumflex" unicode="&#xca;" horiz-adv-x="1133" 
d="M86 0l279 1434h795l-16 -83h-702l-114 -589h644l-17 -83h-644l-115 -596h719l-15 -83h-814zM1038 1528l-202 287l-314 -287l-46 47l340 311h68l217 -311z" />
    <glyph glyph-name="Edieresis" unicode="&#xcb;" horiz-adv-x="1133" 
d="M86 0l279 1434h795l-16 -83h-702l-114 -589h644l-17 -83h-644l-115 -596h719l-15 -83h-814zM557 1704q6 32 32.5 54.5t59.5 22.5t50.5 -22.5t11.5 -54.5t-33 -54.5t-60 -22.5t-50 22t-11 55zM903 1704q6 32 32.5 54.5t59.5 22.5t50.5 -22.5t11.5 -54.5t-32.5 -54.5
t-59.5 -22.5t-50.5 22.5t-11.5 54.5z" />
    <glyph glyph-name="Igrave" unicode="&#xcc;" horiz-adv-x="571" 
d="M415 1434h94l-279 -1434h-94zM441 1911l223 -335l-68 -47l-224 335z" />
    <glyph glyph-name="Iacute" unicode="&#xcd;" horiz-adv-x="571" 
d="M415 1434h94l-279 -1434h-94zM393 1577l351 335l52 -49l-354 -335z" />
    <glyph glyph-name="Icircumflex" unicode="&#xce;" horiz-adv-x="571" 
d="M415 1434h94l-279 -1434h-94zM738 1528l-202 287l-314 -287l-46 47l340 311h68l217 -311z" />
    <glyph glyph-name="Idieresis" unicode="&#xcf;" horiz-adv-x="571" 
d="M415 1434h94l-279 -1434h-94zM264 1704q6 32 32.5 54.5t59.5 22.5t50.5 -22.5t11.5 -54.5t-32.5 -54.5t-59.5 -22.5t-50.5 22.5t-11.5 54.5zM610 1704q6 32 32.5 54.5t59.5 22.5t50.5 -22.5t11.5 -54.5t-32.5 -54.5t-59.5 -22.5t-50.5 22.5t-11.5 54.5z" />
    <glyph glyph-name="Eth" unicode="&#xd0;" horiz-adv-x="1464" 
d="M423 1434h451q154 0 272 -52.5t185.5 -147t91.5 -226.5t-9 -291q-63 -322 -285.5 -519.5t-532.5 -197.5h-452l131 678h-192l15 78h193zM858 1350h-357l-116 -594h361l-15 -78h-361l-116 -594h357q265 0 458.5 173t249.5 460t-70 460t-391 173z" />
    <glyph glyph-name="Ntilde" unicode="&#xd1;" horiz-adv-x="1414" 
d="M86 0l279 1434h89l609 -1268l247 1268h92l-279 -1434h-89l-610 1268l-246 -1268h-92zM921 1645l-18 22q-22 28 -33.5 40.5t-31 25t-39.5 12.5q-74 0 -133 -149l-77 17q84 208 217 208q78 0 142 -85l17 -22q28 -37 51 -56t51 -19q74 0 133 149l77 -16q-84 -208 -218 -208
q-76 0 -138 81z" />
    <glyph glyph-name="Ograve" unicode="&#xd2;" horiz-adv-x="1640" 
d="M729 59q176 0 340 88t277.5 239t148.5 331q35 179 -20 330t-185 239t-306 88t-339.5 -88t-277 -238.5t-148.5 -330.5q-29 -137 -0.5 -256.5t94.5 -209t175 -141t241 -51.5zM1000 1458q122 0 227.5 -37t181.5 -103.5t127 -159t63.5 -204t-9.5 -237.5q-30 -154 -114 -291.5
t-200.5 -236.5t-263.5 -156.5t-299 -57.5t-277.5 57t-202.5 157t-109.5 235.5t0.5 292.5q40 206 169 376t316.5 267.5t390.5 97.5zM976 1911l222 -335l-68 -47l-224 335z" />
    <glyph glyph-name="Oacute" unicode="&#xd3;" horiz-adv-x="1640" 
d="M729 59q176 0 340 88t277.5 239t148.5 331q35 179 -20 330t-185 239t-306 88t-339.5 -88t-277 -238.5t-148.5 -330.5q-29 -137 -0.5 -256.5t94.5 -209t175 -141t241 -51.5zM1000 1458q122 0 227.5 -37t181.5 -103.5t127 -159t63.5 -204t-9.5 -237.5q-30 -154 -114 -291.5
t-200.5 -236.5t-263.5 -156.5t-299 -57.5t-277.5 57t-202.5 157t-109.5 235.5t0.5 292.5q40 206 169 376t316.5 267.5t390.5 97.5zM942 1577l351 335l52 -49l-354 -335z" />
    <glyph glyph-name="Ocircumflex" unicode="&#xd4;" horiz-adv-x="1640" 
d="M729 59q176 0 340 88t277.5 239t148.5 331q35 179 -20 330t-185 239t-306 88t-339.5 -88t-277 -238.5t-148.5 -330.5q-29 -137 -0.5 -256.5t94.5 -209t175 -141t241 -51.5zM1000 1458q122 0 227.5 -37t181.5 -103.5t127 -159t63.5 -204t-9.5 -237.5q-30 -154 -114 -291.5
t-200.5 -236.5t-263.5 -156.5t-299 -57.5t-277.5 57t-202.5 157t-109.5 235.5t0.5 292.5q40 206 169 376t316.5 267.5t390.5 97.5zM1273 1528l-203 287l-313 -287l-46 47l340 311h67l217 -311z" />
    <glyph glyph-name="Otilde" unicode="&#xd5;" horiz-adv-x="1640" 
d="M729 59q176 0 340 88t277.5 239t148.5 331q35 179 -20 330t-185 239t-306 88t-339.5 -88t-277 -238.5t-148.5 -330.5q-29 -137 -0.5 -256.5t94.5 -209t175 -141t241 -51.5zM1000 1458q122 0 227.5 -37t181.5 -103.5t127 -159t63.5 -204t-9.5 -237.5q-30 -154 -114 -291.5
t-200.5 -236.5t-263.5 -156.5t-299 -57.5t-277.5 57t-202.5 157t-109.5 235.5t0.5 292.5q40 206 169 376t316.5 267.5t390.5 97.5zM1034 1645l-17 22q-21 27 -33 40.5t-32 25.5t-40 12q-74 0 -133 -149l-77 17q84 208 218 208q78 0 142 -85l16 -22q28 -36 51.5 -55.5
t51.5 -19.5q74 0 133 149l77 -16q-84 -208 -219 -208q-76 0 -138 81z" />
    <glyph glyph-name="Odieresis" unicode="&#xd6;" horiz-adv-x="1640" 
d="M729 59q176 0 340 88t277.5 239t148.5 331q35 179 -20 330t-185 239t-306 88t-339.5 -88t-277 -238.5t-148.5 -330.5q-29 -137 -0.5 -256.5t94.5 -209t175 -141t241 -51.5zM1000 1458q122 0 227.5 -37t181.5 -103.5t127 -159t63.5 -204t-9.5 -237.5q-30 -154 -114 -291.5
t-200.5 -236.5t-263.5 -156.5t-299 -57.5t-277.5 57t-202.5 157t-109.5 235.5t0.5 292.5q40 206 169 376t316.5 267.5t390.5 97.5zM799 1704q6 32 32.5 54.5t59.5 22.5t50 -22t11 -55q-6 -32 -32.5 -54.5t-59.5 -22.5t-50 22t-11 55zM1145 1704q6 32 32.5 54.5t59.5 22.5
t50 -22t11 -55q-6 -32 -32.5 -54.5t-59.5 -22.5t-50 22t-11 55z" />
    <glyph glyph-name="multiply" unicode="&#xd7;" horiz-adv-x="1150" 
d="M174 255l-50 64l416 355l-277 354l75 65l277 -356l417 356l50 -65l-416 -354l278 -355l-75 -64l-278 354z" />
    <glyph glyph-name="Oslash" unicode="&#xd8;" horiz-adv-x="1640" 
d="M1000 1458q235 0 395 -129l183 188l54 -47l-185 -188q99 -103 137 -249.5t6 -315.5q-30 -154 -114 -291.5t-200.5 -236.5t-263.5 -156.5t-299 -57.5q-246 0 -410 142l-199 -203l-53 46l202 206q-92 102 -126.5 244.5t-2.5 306.5q40 206 169 376t316.5 267.5t390.5 97.5z
M729 59q176 0 340 88t277.5 239t148.5 331q28 145 -4 273t-115 220l-1004 -1023q142 -128 357 -128zM219 717q-27 -139 1.5 -262.5t103.5 -215.5l1001 1019q-140 116 -341 116q-176 0 -339.5 -88t-277 -238.5t-148.5 -330.5z" />
    <glyph glyph-name="Ugrave" unicode="&#xd9;" horiz-adv-x="1339" 
d="M1346 1434l-185 -948q-44 -227 -211.5 -368t-387.5 -141t-332 140.5t-68 368.5l184 948h94l-186 -955q-35 -185 56 -301.5t269 -116.5t314.5 116.5t171.5 301.5l186 955h95zM825 1911l223 -335l-68 -47l-224 335z" />
    <glyph glyph-name="Uacute" unicode="&#xda;" horiz-adv-x="1339" 
d="M1346 1434l-185 -948q-44 -227 -211.5 -368t-387.5 -141t-332 140.5t-68 368.5l184 948h94l-186 -955q-35 -185 56 -301.5t269 -116.5t314.5 116.5t171.5 301.5l186 955h95zM793 1577l351 335l51 -49l-353 -335z" />
    <glyph glyph-name="Ucircumflex" unicode="&#xdb;" horiz-adv-x="1339" 
d="M1346 1434l-185 -948q-44 -227 -211.5 -368t-387.5 -141t-332 140.5t-68 368.5l184 948h94l-186 -955q-35 -185 56 -301.5t269 -116.5t314.5 116.5t171.5 301.5l186 955h95zM1122 1528l-202 287l-314 -287l-46 47l340 311h68l217 -311z" />
    <glyph glyph-name="Udieresis" unicode="&#xdc;" horiz-adv-x="1339" 
d="M1346 1434l-185 -948q-44 -227 -211.5 -368t-387.5 -141t-332 140.5t-68 368.5l184 948h94l-186 -955q-35 -185 56 -301.5t269 -116.5t314.5 116.5t171.5 301.5l186 955h95zM648 1704q6 32 32.5 54.5t59.5 22.5t50.5 -22.5t11.5 -54.5t-32.5 -54.5t-59.5 -22.5
t-50.5 22.5t-11.5 54.5zM994 1704q6 32 32.5 54.5t59.5 22.5t50.5 -22.5t11.5 -54.5t-32.5 -54.5t-59.5 -22.5t-50.5 22.5t-11.5 54.5z" />
    <glyph glyph-name="Yacute" unicode="&#xdd;" horiz-adv-x="1304" 
d="M346 1434l336 -752l629 752h107l-707 -846l-114 -588h-94l113 588l-377 846h107zM783 1577l352 335l51 -49l-353 -335z" />
    <glyph glyph-name="Thorn" unicode="&#xde;" horiz-adv-x="1165" 
d="M550 291h-313l-57 -291h-94l279 1434h94l-58 -291h314q220 0 330.5 -116.5t73.5 -309.5t-193 -309.5t-376 -116.5zM1024 717q30 156 -59 249.5t-268 93.5h-311l-134 -686h311q179 0 304.5 93.5t156.5 249.5z" />
    <glyph glyph-name="germandbls" unicode="&#xdf;" horiz-adv-x="1221" 
d="M291 69l59 71q91 -83 231 -83q160 0 275 104t146 263q30 154 -62.5 260.5t-256.5 106.5q-63 0 -122 -19l-30 51l397 528h-504l-262 -1351h-94l278 1434h706l-17 -83l-379 -500q19 3 52 3q202 0 312.5 -124t74.5 -312q-18 -91 -63 -171t-112 -140.5t-158.5 -96
t-194.5 -35.5q-168 0 -276 94z" />
    <glyph glyph-name="agrave" unicode="&#xe0;" horiz-adv-x="1296" 
d="M708 1085q147 0 248 -70.5t144 -191.5l46 238h92l-206 -1061h-92l46 238q-91 -121 -219 -192t-275 -71q-152 0 -256.5 76.5t-143 202.5t-9.5 276t116.5 276t222 202.5t286.5 76.5zM518 58q191 0 338.5 138t185.5 334q25 127 -7 234t-119.5 172.5t-214.5 65.5
q-191 0 -339 -138t-186 -334q-25 -127 7.5 -234t120 -172.5t214.5 -65.5zM739 1579l223 -335l-68 -47l-224 335z" />
    <glyph glyph-name="aacute" unicode="&#xe1;" horiz-adv-x="1296" 
d="M708 1085q147 0 248 -70.5t144 -191.5l46 238h92l-206 -1061h-92l46 238q-91 -121 -219 -192t-275 -71q-152 0 -256.5 76.5t-143 202.5t-9.5 276t116.5 276t222 202.5t286.5 76.5zM518 58q191 0 338.5 138t185.5 334q25 127 -7 234t-119.5 172.5t-214.5 65.5
q-191 0 -339 -138t-186 -334q-25 -127 7.5 -234t120 -172.5t214.5 -65.5zM660 1245l352 335l51 -49l-353 -335z" />
    <glyph glyph-name="acircumflex" unicode="&#xe2;" horiz-adv-x="1296" 
d="M708 1085q147 0 248 -70.5t144 -191.5l46 238h92l-206 -1061h-92l46 238q-91 -121 -219 -192t-275 -71q-152 0 -256.5 76.5t-143 202.5t-9.5 276t116.5 276t222 202.5t286.5 76.5zM518 58q191 0 338.5 138t185.5 334q25 127 -7 234t-119.5 172.5t-214.5 65.5
q-191 0 -339 -138t-186 -334q-25 -127 7.5 -234t120 -172.5t214.5 -65.5zM1017 1196l-203 287l-313 -287l-46 47l340 311h67l217 -311z" />
    <glyph glyph-name="atilde" unicode="&#xe3;" horiz-adv-x="1296" 
d="M708 1085q147 0 248 -70.5t144 -191.5l46 238h92l-206 -1061h-92l46 238q-91 -121 -219 -192t-275 -71q-152 0 -256.5 76.5t-143 202.5t-9.5 276t116.5 276t222 202.5t286.5 76.5zM518 58q191 0 338.5 138t185.5 334q25 127 -7 234t-119.5 172.5t-214.5 65.5
q-191 0 -339 -138t-186 -334q-25 -127 7.5 -234t120 -172.5t214.5 -65.5zM778 1313l-17 22q-21 27 -33 40.5t-32 25.5t-40 12q-74 0 -133 -148l-77 16q84 208 218 208q78 0 142 -85l16 -22q28 -36 51.5 -55t51.5 -19q74 0 133 148l77 -16q-84 -208 -219 -208q-76 0 -138 81z
" />
    <glyph glyph-name="adieresis" unicode="&#xe4;" horiz-adv-x="1296" 
d="M708 1085q147 0 248 -70.5t144 -191.5l46 238h92l-206 -1061h-92l46 238q-91 -121 -219 -192t-275 -71q-152 0 -256.5 76.5t-143 202.5t-9.5 276t116.5 276t222 202.5t286.5 76.5zM518 58q191 0 338.5 138t185.5 334q25 127 -7 234t-119.5 172.5t-214.5 65.5
q-191 0 -339 -138t-186 -334q-25 -127 7.5 -234t120 -172.5t214.5 -65.5zM539 1372q6 32 32.5 54.5t59.5 22.5t50 -22t11 -55q-6 -32 -32.5 -54.5t-59.5 -22.5t-50 22t-11 55zM885 1372q6 32 32.5 54.5t59.5 22.5t50 -22t11 -55q-6 -32 -32.5 -54.5t-59.5 -22.5t-50 22
t-11 55z" />
    <glyph glyph-name="aring" unicode="&#xe5;" horiz-adv-x="1296" 
d="M708 1085q147 0 248 -70.5t144 -191.5l46 238h92l-206 -1061h-92l46 238q-91 -121 -219 -192t-275 -71q-152 0 -256.5 76.5t-143 202.5t-9.5 276t116.5 276t222 202.5t286.5 76.5zM518 58q191 0 338.5 138t185.5 334q25 127 -7 234t-119.5 172.5t-214.5 65.5
q-191 0 -339 -138t-186 -334q-25 -127 7.5 -234t120 -172.5t214.5 -65.5zM659 1394q-10 -56 20.5 -94t86.5 -38t102 38t56 94t-20.5 94t-86.5 38t-102 -38t-56 -94zM589 1394q16 83 85 139t155 56t133.5 -56t31.5 -139q-17 -83 -86 -139.5t-154 -56.5q-86 0 -133.5 56.5
t-31.5 139.5z" />
    <glyph glyph-name="ae" unicode="&#xe6;" horiz-adv-x="2186" 
d="M1133 507q-20 -122 18 -225t130.5 -164.5t221.5 -61.5q110 0 215.5 48t192.5 135l44 -51q-201 -213 -466 -213q-151 0 -257.5 68.5t-154.5 193.5l-45 -237h-92l46 238q-91 -121 -219 -192t-275 -71q-152 0 -256.5 76.5t-143 202.5t-9.5 276t116.5 276t222 202.5
t286.5 76.5q147 0 248 -70.5t144 -191.5l46 238h92l-46 -238q95 125 225 193.5t275 68.5q149 0 254.5 -70.5t148 -190.5t14.5 -264q-4 -22 -15 -53h-961zM518 58q191 0 338.5 138t185.5 334q25 127 -7 234t-119.5 172.5t-214.5 65.5q-191 0 -339 -138t-186 -334
q-25 -127 7.5 -234t120 -172.5t214.5 -65.5zM1675 1005q-174 0 -323.5 -122.5t-200.5 -296.5h868q23 182 -73.5 300.5t-270.5 118.5z" />
    <glyph glyph-name="ccedilla" unicode="&#xe7;" horiz-adv-x="1215" 
d="M517 -199q-27 0 -48 -3l-16 15l31 163q-146 8 -248 85.5t-141.5 201t-11.5 267.5q22 112 82 213.5t145.5 177t196 120t227.5 44.5q187 0 304 -98.5t131 -268.5h-99q-15 130 -110.5 207t-241.5 77q-128 0 -244.5 -65t-195 -173t-102.5 -234t12 -234t127.5 -173t219.5 -65
q138 0 253.5 68t203.5 183l63 -44q-199 -271 -496 -288l-22 -117q103 -4 147.5 -60t29.5 -136q-17 -84 -94.5 -140t-177.5 -56q-84 0 -137 46.5t-55 141.5h78q-1 -61 33.5 -92t91.5 -31q68 0 120 38t63 94q10 55 -26 95.5t-93 40.5z" />
    <glyph glyph-name="egrave" unicode="&#xe8;" horiz-adv-x="1226" 
d="M173 507q-20 -122 18.5 -225t131 -164.5t221.5 -61.5q109 0 214.5 48t192.5 135l44 -51q-201 -213 -466 -213q-160 0 -273 75.5t-157.5 202t-15.5 277.5q29 150 123 277t233.5 202.5t292.5 75.5q149 0 255 -70.5t148.5 -190.5t14.5 -264q-4 -22 -15 -53h-962zM716 1005
q-174 0 -324 -122.5t-201 -296.5h869q23 182 -73.5 300.5t-270.5 118.5zM705 1579l222 -335l-68 -47l-224 335z" />
    <glyph glyph-name="eacute" unicode="&#xe9;" horiz-adv-x="1226" 
d="M173 507q-20 -122 18.5 -225t131 -164.5t221.5 -61.5q109 0 214.5 48t192.5 135l44 -51q-201 -213 -466 -213q-160 0 -273 75.5t-157.5 202t-15.5 277.5q29 150 123 277t233.5 202.5t292.5 75.5q149 0 255 -70.5t148.5 -190.5t14.5 -264q-4 -22 -15 -53h-962zM716 1005
q-174 0 -324 -122.5t-201 -296.5h869q23 182 -73.5 300.5t-270.5 118.5zM662 1245l351 335l51 -49l-353 -335z" />
    <glyph glyph-name="ecircumflex" unicode="&#xea;" horiz-adv-x="1226" 
d="M173 507q-20 -122 18.5 -225t131 -164.5t221.5 -61.5q109 0 214.5 48t192.5 135l44 -51q-201 -213 -466 -213q-160 0 -273 75.5t-157.5 202t-15.5 277.5q29 150 123 277t233.5 202.5t292.5 75.5q149 0 255 -70.5t148.5 -190.5t14.5 -264q-4 -22 -15 -53h-962zM716 1005
q-174 0 -324 -122.5t-201 -296.5h869q23 182 -73.5 300.5t-270.5 118.5zM1001 1196l-202 287l-314 -287l-46 47l340 311h68l217 -311z" />
    <glyph glyph-name="edieresis" unicode="&#xeb;" horiz-adv-x="1226" 
d="M173 507q-20 -122 18.5 -225t131 -164.5t221.5 -61.5q109 0 214.5 48t192.5 135l44 -51q-201 -213 -466 -213q-160 0 -273 75.5t-157.5 202t-15.5 277.5q29 150 123 277t233.5 202.5t292.5 75.5q149 0 255 -70.5t148.5 -190.5t14.5 -264q-4 -22 -15 -53h-962zM716 1005
q-174 0 -324 -122.5t-201 -296.5h869q23 182 -73.5 300.5t-270.5 118.5zM527 1372q6 32 33 54.5t60 22.5t50 -22t11 -55q-6 -32 -32.5 -54.5t-59.5 -22.5t-50.5 22.5t-11.5 54.5zM873 1372q6 32 33 54.5t60 22.5t50 -22t11 -55q-6 -32 -32.5 -54.5t-59.5 -22.5t-50.5 22.5
t-11.5 54.5z" />
    <glyph glyph-name="igrave" unicode="&#xec;" horiz-adv-x="523" 
d="M113 0l205 1061h93l-206 -1061h-92zM352 1579l222 -335l-67 -47l-224 335z" />
    <glyph glyph-name="iacute" unicode="&#xed;" horiz-adv-x="523" 
d="M113 0l205 1061h93l-206 -1061h-92zM308 1245l351 335l52 -49l-354 -335z" />
    <glyph glyph-name="icircumflex" unicode="&#xee;" horiz-adv-x="523" 
d="M113 0l205 1061h93l-206 -1061h-92zM649 1196l-203 287l-313 -287l-46 47l340 311h68l217 -311z" />
    <glyph glyph-name="idieresis" unicode="&#xef;" horiz-adv-x="523" 
d="M113 0l205 1061h93l-206 -1061h-92zM176 1372q6 32 32.5 54.5t59.5 22.5t50.5 -22.5t11.5 -54.5t-32.5 -54.5t-59.5 -22.5t-50.5 22.5t-11.5 54.5zM522 1372q6 32 32.5 54.5t59.5 22.5t50.5 -22.5t11.5 -54.5t-32.5 -54.5t-59.5 -22.5t-50.5 22.5t-11.5 54.5z" />
    <glyph glyph-name="eth" unicode="&#xf0;" horiz-adv-x="1232" 
d="M392 1091l-18 63l356 156q-91 70 -217 133l46 67q134 -55 264 -159l273 118l17 -63l-236 -103q163 -142 232 -359t21 -463q-27 -139 -119.5 -255.5t-227 -183.5t-279.5 -67t-253.5 67t-156 183.5t-20.5 255.5q27 138 119 254t224.5 183t273.5 67q128 0 226.5 -59.5
t134.5 -160.5q-44 309 -265 499zM685 906q-119 0 -230 -56.5t-188 -154t-100 -213.5t16 -213.5t128.5 -154t208.5 -56.5q182 0 332.5 123.5t185.5 300.5q23 116 -16 213.5t-128 154t-209 56.5z" />
    <glyph glyph-name="ntilde" unicode="&#xf1;" horiz-adv-x="1211" 
d="M768 1085q169 0 265.5 -119.5t62.5 -294.5l-130 -671h-93l129 665q28 143 -48.5 240t-222.5 97q-155 0 -291.5 -109.5t-165.5 -258.5l-122 -634h-93l206 1061h92l-39 -201q79 103 199 164t251 61zM764 1313l-18 22q-22 28 -33.5 40.5t-31 25t-39.5 12.5q-74 0 -133 -148
l-77 16q84 208 217 208q79 0 143 -85l16 -22q28 -36 51 -55t51 -19q74 0 133 148l77 -16q-84 -208 -218 -208q-76 0 -138 81z" />
    <glyph glyph-name="ograve" unicode="&#xf2;" horiz-adv-x="1271" 
d="M545 58q96 0 189.5 38.5t166.5 102.5t125 150.5t70 180.5q24 126 -14.5 234t-132 173t-221.5 65q-194 0 -354.5 -140t-197.5 -332q-24 -125 14.5 -233.5t132.5 -173.5t222 -65zM744 1085q155 0 268 -76t159.5 -203t17.5 -276q-22 -111 -83.5 -213t-149 -177.5
t-199.5 -120t-229 -44.5q-155 0 -268 76t-159.5 203t-17.5 276q22 111 83.5 213t149 177.5t199.5 120t229 44.5zM727 1579l222 -335l-67 -47l-225 335z" />
    <glyph glyph-name="oacute" unicode="&#xf3;" horiz-adv-x="1271" 
d="M545 58q96 0 189.5 38.5t166.5 102.5t125 150.5t70 180.5q24 126 -14.5 234t-132 173t-221.5 65q-194 0 -354.5 -140t-197.5 -332q-24 -125 14.5 -233.5t132.5 -173.5t222 -65zM744 1085q155 0 268 -76t159.5 -203t17.5 -276q-22 -111 -83.5 -213t-149 -177.5
t-199.5 -120t-229 -44.5q-155 0 -268 76t-159.5 203t-17.5 276q22 111 83.5 213t149 177.5t199.5 120t229 44.5zM683 1245l351 335l51 -49l-353 -335z" />
    <glyph glyph-name="ocircumflex" unicode="&#xf4;" horiz-adv-x="1271" 
d="M545 58q96 0 189.5 38.5t166.5 102.5t125 150.5t70 180.5q24 126 -14.5 234t-132 173t-221.5 65q-194 0 -354.5 -140t-197.5 -332q-24 -125 14.5 -233.5t132.5 -173.5t222 -65zM744 1085q155 0 268 -76t159.5 -203t17.5 -276q-22 -111 -83.5 -213t-149 -177.5
t-199.5 -120t-229 -44.5q-155 0 -268 76t-159.5 203t-17.5 276q22 111 83.5 213t149 177.5t199.5 120t229 44.5zM1024 1196l-203 287l-313 -287l-46 47l340 311h67l217 -311z" />
    <glyph glyph-name="otilde" unicode="&#xf5;" horiz-adv-x="1271" 
d="M545 58q96 0 189.5 38.5t166.5 102.5t125 150.5t70 180.5q24 126 -14.5 234t-132 173t-221.5 65q-194 0 -354.5 -140t-197.5 -332q-24 -125 14.5 -233.5t132.5 -173.5t222 -65zM744 1085q155 0 268 -76t159.5 -203t17.5 -276q-22 -111 -83.5 -213t-149 -177.5
t-199.5 -120t-229 -44.5q-155 0 -268 76t-159.5 203t-17.5 276q22 111 83.5 213t149 177.5t199.5 120t229 44.5zM785 1313l-17 22q-22 28 -33.5 40.5t-31 25t-39.5 12.5q-75 0 -134 -148l-76 16q84 208 217 208q78 0 142 -85l16 -22q28 -36 51.5 -55t51.5 -19q74 0 133 148
l77 -16q-84 -208 -218 -208q-77 0 -139 81z" />
    <glyph glyph-name="odieresis" unicode="&#xf6;" horiz-adv-x="1271" 
d="M545 58q96 0 189.5 38.5t166.5 102.5t125 150.5t70 180.5q24 126 -14.5 234t-132 173t-221.5 65q-194 0 -354.5 -140t-197.5 -332q-24 -125 14.5 -233.5t132.5 -173.5t222 -65zM744 1085q155 0 268 -76t159.5 -203t17.5 -276q-22 -111 -83.5 -213t-149 -177.5
t-199.5 -120t-229 -44.5q-155 0 -268 76t-159.5 203t-17.5 276q22 111 83.5 213t149 177.5t199.5 120t229 44.5zM550 1372q6 32 32.5 54.5t59.5 22.5t50 -22t11 -55q-6 -32 -32.5 -54.5t-59.5 -22.5t-50 22t-11 55zM896 1372q6 32 32.5 54.5t59.5 22.5t50.5 -22.5
t11.5 -54.5t-33 -54.5t-60 -22.5t-50 22t-11 55z" />
    <glyph glyph-name="divide" unicode="&#xf7;" horiz-adv-x="1150" 
d="M1053 639h-912l16 81h911zM599 1067q7 35 34.5 58t61.5 23q35 0 54 -23.5t12 -57.5q-7 -35 -34.5 -58t-61.5 -23q-35 0 -54 23.5t-12 57.5zM449 292q7 35 34.5 58t61.5 23t53 -23t12 -58t-34.5 -58t-61.5 -23t-53 23t-12 58z" />
    <glyph glyph-name="oslash" unicode="&#xf8;" horiz-adv-x="1271" 
d="M744 1085q180 0 299 -100l164 163l46 -50l-159 -160q67 -77 92.5 -183.5t2.5 -224.5q-22 -111 -83.5 -213t-149 -177.5t-199.5 -120t-229 -44.5q-178 0 -301 101l-162 -162l-46 50l159 159q-67 77 -92.5 183t-2.5 224q22 111 83.5 213t149 177.5t199.5 120t229 44.5z
M545 58q96 0 189.5 38.5t166.5 102.5t125 150.5t70 180.5q19 96 -0.5 184t-73.5 154l-726 -724q100 -86 249 -86zM176 530q-18 -96 1 -183.5t72 -153.5l726 723q-99 86 -247 86q-194 0 -354.5 -140t-197.5 -332z" />
    <glyph glyph-name="ugrave" unicode="&#xf9;" horiz-adv-x="1211" 
d="M444 -25q-169 0 -265 120t-62 295l130 671h92l-129 -665q-28 -143 48.5 -240.5t222.5 -97.5q101 0 200 50t168.5 135.5t88.5 183.5l123 634h92l-206 -1061h-92l39 201q-81 -104 -200.5 -165t-249.5 -61zM696 1579l223 -335l-68 -47l-224 335z" />
    <glyph glyph-name="uacute" unicode="&#xfa;" horiz-adv-x="1211" 
d="M444 -25q-169 0 -265 120t-62 295l130 671h92l-129 -665q-28 -143 48.5 -240.5t222.5 -97.5q101 0 200 50t168.5 135.5t88.5 183.5l123 634h92l-206 -1061h-92l39 201q-81 -104 -200.5 -165t-249.5 -61zM571 1245l352 335l51 -49l-353 -335z" />
    <glyph glyph-name="ucircumflex" unicode="&#xfb;" horiz-adv-x="1211" 
d="M444 -25q-169 0 -265 120t-62 295l130 671h92l-129 -665q-28 -143 48.5 -240.5t222.5 -97.5q101 0 200 50t168.5 135.5t88.5 183.5l123 634h92l-206 -1061h-92l39 201q-81 -104 -200.5 -165t-249.5 -61zM984 1196l-203 287l-313 -287l-46 47l340 311h67l218 -311z" />
    <glyph glyph-name="udieresis" unicode="&#xfc;" horiz-adv-x="1211" 
d="M444 -25q-169 0 -265 120t-62 295l130 671h92l-129 -665q-28 -143 48.5 -240.5t222.5 -97.5q101 0 200 50t168.5 135.5t88.5 183.5l123 634h92l-206 -1061h-92l39 201q-81 -104 -200.5 -165t-249.5 -61zM510 1372q6 32 32.5 54.5t59.5 22.5t50.5 -22.5t11.5 -54.5
t-33 -54.5t-60 -22.5t-50 22t-11 55zM856 1372q6 32 32.5 54.5t59.5 22.5t50.5 -22.5t11.5 -54.5t-32.5 -54.5t-59.5 -22.5t-50.5 22.5t-11.5 54.5z" />
    <glyph glyph-name="yacute" unicode="&#xfd;" horiz-adv-x="1062" 
d="M88 -475l299 488l-242 1048h101l213 -928l565 928h100l-936 -1536h-100zM498 1245l351 335l51 -49l-353 -335z" />
    <glyph glyph-name="thorn" unicode="&#xfe;" horiz-adv-x="1296" 
d="M806 1085q152 0 256 -76.5t142 -202t9 -276.5q-22 -112 -78.5 -213t-137 -177t-187 -120.5t-220.5 -44.5q-148 0 -249 71t-143 192l-140 -713h-92l383 1970h92l-130 -672q89 121 218 191.5t277 70.5zM596 58q191 0 338.5 138t185.5 334q25 127 -7 234t-119.5 172.5
t-214.5 65.5q-191 0 -339 -138t-186 -334q-25 -127 7.5 -234t120 -172.5t214.5 -65.5z" />
    <glyph glyph-name="ydieresis" unicode="&#xff;" horiz-adv-x="1062" 
d="M88 -475l299 488l-242 1048h101l213 -928l565 928h100l-936 -1536h-100zM445 1372q6 32 33 54.5t60 22.5t50 -22t11 -55q-6 -32 -32.5 -54.5t-59.5 -22.5t-50.5 22.5t-11.5 54.5zM792 1372q6 32 32.5 54.5t59.5 22.5t50 -22t11 -55q-6 -32 -32.5 -54.5t-59.5 -22.5
t-50 22t-11 55z" />
    <glyph glyph-name="Amacron" unicode="&#x100;" horiz-adv-x="1366" 
d="M1198 0h-105l-81 418h-701l-242 -418h-106l846 1434h100zM997 501l-159 823l-480 -823h639zM627 1662l14 76h553l-14 -76h-553z" />
    <glyph glyph-name="amacron" unicode="&#x101;" horiz-adv-x="1296" 
d="M708 1085q147 0 248 -70.5t144 -191.5l46 238h92l-206 -1061h-92l46 238q-91 -121 -219 -192t-275 -71q-152 0 -256.5 76.5t-143 202.5t-9.5 276t116.5 276t222 202.5t286.5 76.5zM518 58q191 0 338.5 138t185.5 334q25 127 -7 234t-119.5 172.5t-214.5 65.5
q-191 0 -339 -138t-186 -334q-25 -127 7.5 -234t120 -172.5t214.5 -65.5zM515 1330l14 76h553l-14 -76h-553z" />
    <glyph glyph-name="Abreve" unicode="&#x102;" horiz-adv-x="1366" 
d="M1198 0h-105l-81 418h-701l-242 -418h-106l846 1434h100zM997 501l-159 823l-480 -823h639zM878 1531q-130 0 -199.5 87t-49.5 219h86q-14 -101 32.5 -166.5t144.5 -65.5t170.5 65.5t96.5 166.5h86q-32 -132 -134.5 -219t-232.5 -87z" />
    <glyph glyph-name="abreve" unicode="&#x103;" horiz-adv-x="1296" 
d="M708 1085q147 0 248 -70.5t144 -191.5l46 238h92l-206 -1061h-92l46 238q-91 -121 -219 -192t-275 -71q-152 0 -256.5 76.5t-143 202.5t-9.5 276t116.5 276t222 202.5t286.5 76.5zM518 58q191 0 338.5 138t185.5 334q25 127 -7 234t-119.5 172.5t-214.5 65.5
q-191 0 -339 -138t-186 -334q-25 -127 7.5 -234t120 -172.5t214.5 -65.5zM765 1199q-130 0 -199.5 87t-49.5 219h86q-14 -101 32.5 -166.5t144.5 -65.5q99 0 171.5 65.5t96.5 166.5h86q-32 -132 -135 -219t-233 -87z" />
    <glyph glyph-name="Aogonek" unicode="&#x104;" horiz-adv-x="1366" 
d="M1093 0l-81 418h-701l-242 -418h-106l846 1434h100l289 -1434q-120 -83 -179.5 -140t-71.5 -121q-11 -61 20.5 -101t89.5 -40q61 0 106 38t68 110h76q-74 -215 -274 -215q-87 0 -134.5 58t-30.5 143q15 77 68.5 135t156.5 133zM997 501l-159 823l-480 -823h639z" />
    <glyph glyph-name="aogonek" unicode="&#x105;" horiz-adv-x="1296" 
d="M708 1085q147 0 248 -70.5t144 -191.5l46 238h92l-206 -1061q-120 -83 -179.5 -140t-71.5 -121q-11 -61 20.5 -101t89.5 -40q61 0 106 38t68 110h76q-74 -215 -274 -215q-87 0 -134.5 58t-30.5 143q15 78 75.5 141t162.5 127l46 238q-91 -121 -219 -192t-275 -71
q-152 0 -256.5 76.5t-143 202.5t-9.5 276t116.5 276t222 202.5t286.5 76.5zM518 58q191 0 338.5 138t185.5 334q25 127 -7 234t-119.5 172.5t-214.5 65.5q-191 0 -339 -138t-186 -334q-25 -127 7.5 -234t120 -172.5t214.5 -65.5z" />
    <glyph glyph-name="Cacute" unicode="&#x106;" horiz-adv-x="1552" 
d="M1333 390l62 -45q-127 -173 -310.5 -271.5t-387.5 -98.5q-152 0 -275 57t-197 157t-104 235.5t3 292.5q40 207 165.5 376.5t309 267t386.5 97.5q240 0 397 -131.5t170 -350.5h-102q-17 174 -149.5 286t-331.5 112q-175 0 -335.5 -88t-270 -238.5t-144.5 -330.5t16 -331
t177.5 -239t301.5 -88q178 0 342.5 90t276.5 241zM888 1577l351 335l51 -49l-353 -335z" />
    <glyph glyph-name="cacute" unicode="&#x107;" horiz-adv-x="1215" 
d="M992 309l63 -44q-215 -290 -537 -290q-155 0 -265.5 76t-154.5 203t-15 276q22 112 82 213.5t145.5 177t196 120t227.5 44.5q187 0 304 -98.5t131 -268.5h-99q-15 130 -110.5 207t-241.5 77q-128 0 -244.5 -65t-195 -173t-102.5 -234t12 -234t127.5 -173t219.5 -65
q138 0 253.5 68t203.5 183zM649 1245l351 335l52 -49l-354 -335z" />
    <glyph glyph-name="Ccircumflex" unicode="&#x108;" horiz-adv-x="1552" 
d="M1333 390l62 -45q-127 -173 -310.5 -271.5t-387.5 -98.5q-152 0 -275 57t-197 157t-104 235.5t3 292.5q40 207 165.5 376.5t309 267t386.5 97.5q240 0 397 -131.5t170 -350.5h-102q-17 174 -149.5 286t-331.5 112q-175 0 -335.5 -88t-270 -238.5t-144.5 -330.5t16 -331
t177.5 -239t301.5 -88q178 0 342.5 90t276.5 241zM1229 1528l-203 287l-313 -287l-46 47l340 311h67l217 -311z" />
    <glyph glyph-name="ccircumflex" unicode="&#x109;" horiz-adv-x="1215" 
d="M992 309l63 -44q-215 -290 -537 -290q-155 0 -265.5 76t-154.5 203t-15 276q22 112 82 213.5t145.5 177t196 120t227.5 44.5q187 0 304 -98.5t131 -268.5h-99q-15 130 -110.5 207t-241.5 77q-128 0 -244.5 -65t-195 -173t-102.5 -234t12 -234t127.5 -173t219.5 -65
q138 0 253.5 68t203.5 183zM995 1196l-202 287l-314 -287l-46 47l340 311h68l217 -311z" />
    <glyph glyph-name="Cdotaccent" unicode="&#x10a;" horiz-adv-x="1552" 
d="M1333 390l62 -45q-127 -173 -310.5 -271.5t-387.5 -98.5q-152 0 -275 57t-197 157t-104 235.5t3 292.5q40 207 165.5 376.5t309 267t386.5 97.5q240 0 397 -131.5t170 -350.5h-102q-17 174 -149.5 286t-331.5 112q-175 0 -335.5 -88t-270 -238.5t-144.5 -330.5t16 -331
t177.5 -239t301.5 -88q178 0 342.5 90t276.5 241zM933 1704q6 32 33 54.5t59 22.5t49.5 -22.5t11.5 -54.5t-33 -54.5t-59 -22.5t-49.5 22.5t-11.5 54.5z" />
    <glyph glyph-name="cdotaccent" unicode="&#x10b;" horiz-adv-x="1215" 
d="M992 309l63 -44q-215 -290 -537 -290q-155 0 -265.5 76t-154.5 203t-15 276q22 112 82 213.5t145.5 177t196 120t227.5 44.5q187 0 304 -98.5t131 -268.5h-99q-15 130 -110.5 207t-241.5 77q-128 0 -244.5 -65t-195 -173t-102.5 -234t12 -234t127.5 -173t219.5 -65
q138 0 253.5 68t203.5 183zM699 1372q6 32 33.5 54.5t59.5 22.5t49.5 -22.5t11.5 -54.5t-33 -54.5t-59 -22.5t-50 22.5t-12 54.5z" />
    <glyph glyph-name="Ccaron" unicode="&#x10c;" horiz-adv-x="1552" 
d="M1333 390l62 -45q-127 -173 -310.5 -271.5t-387.5 -98.5q-152 0 -275 57t-197 157t-104 235.5t3 292.5q40 207 165.5 376.5t309 267t386.5 97.5q240 0 397 -131.5t170 -350.5h-102q-17 174 -149.5 286t-331.5 112q-175 0 -335.5 -88t-270 -238.5t-144.5 -330.5t16 -331
t177.5 -239t301.5 -88q178 0 342.5 90t276.5 241zM991 1623l314 287l45 -47l-339 -312h-68l-218 312l63 47z" />
    <glyph glyph-name="ccaron" unicode="&#x10d;" horiz-adv-x="1215" 
d="M992 309l63 -44q-215 -290 -537 -290q-155 0 -265.5 76t-154.5 203t-15 276q22 112 82 213.5t145.5 177t196 120t227.5 44.5q187 0 304 -98.5t131 -268.5h-99q-15 130 -110.5 207t-241.5 77q-128 0 -244.5 -65t-195 -173t-102.5 -234t12 -234t127.5 -173t219.5 -65
q138 0 253.5 68t203.5 183zM745 1271l314 287l45 -48l-339 -311h-68l-218 311l64 48z" />
    <glyph glyph-name="Dcaron" unicode="&#x10e;" horiz-adv-x="1405" 
d="M365 1434h451q154 0 272 -52.5t185.5 -147t91.5 -226.5t-9 -291q-63 -322 -285.5 -519.5t-532.5 -197.5h-452zM800 1350h-358l-246 -1266h357q265 0 458.5 173t249.5 460t-70 460t-391 173zM888 1623l313 287l45 -47l-339 -312h-67l-218 312l63 47z" />
    <glyph glyph-name="dcaron" unicode="&#x10f;" horiz-adv-x="1536" 
d="M708 1085q147 0 248 -70.5t144 -191.5l130 672h92l-290 -1495h-92l46 238q-91 -121 -219 -192t-275 -71q-152 0 -256.5 76.5t-143 202.5t-9.5 276t116.5 276t222 202.5t286.5 76.5zM518 58q191 0 338.5 138t185.5 334q25 127 -7 234t-119.5 172.5t-214.5 65.5
q-191 0 -339 -138t-186 -334q-25 -127 7.5 -234t120 -172.5t214.5 -65.5zM1491 1449q5 27 32.5 49t59.5 22q35 0 53 -24.5t10 -64.5q-14 -72 -75 -151t-139 -113l-30 39q68 41 91.5 94.5t0.5 109.5q-7 18 -3 39z" />
    <glyph glyph-name="Dcroat" unicode="&#x110;" horiz-adv-x="1464" 
d="M423 1434h451q154 0 272 -52.5t185.5 -147t91.5 -226.5t-9 -291q-63 -322 -285.5 -519.5t-532.5 -197.5h-452l131 678h-192l15 78h193zM858 1350h-357l-116 -594h361l-15 -78h-361l-116 -594h357q265 0 458.5 173t249.5 460t-70 460t-391 173z" />
    <glyph glyph-name="dcroat" unicode="&#x111;" horiz-adv-x="1351" 
d="M777 1229l15 75h401l37 191h92l-37 -191h174l-14 -75h-174l-239 -1229h-92l46 238q-91 -121 -219 -192t-275 -71q-152 0 -256.5 76.5t-143 202.5t-9.5 276t116.5 276t222 202.5t286.5 76.5q147 0 248 -70.5t144 -191.5l79 406h-402zM518 58q191 0 338.5 138t185.5 334
q25 127 -7 234t-119.5 172.5t-214.5 65.5q-191 0 -339 -138t-186 -334q-25 -127 7.5 -234t120 -172.5t214.5 -65.5z" />
    <glyph glyph-name="Emacron" unicode="&#x112;" horiz-adv-x="1133" 
d="M86 0l279 1434h795l-16 -83h-702l-114 -589h644l-17 -83h-644l-115 -596h719l-15 -83h-814zM521 1662l15 76h553l-15 -76h-553z" />
    <glyph glyph-name="emacron" unicode="&#x113;" horiz-adv-x="1226" 
d="M173 507q-20 -122 18.5 -225t131 -164.5t221.5 -61.5q109 0 214.5 48t192.5 135l44 -51q-201 -213 -466 -213q-160 0 -273 75.5t-157.5 202t-15.5 277.5q29 150 123 277t233.5 202.5t292.5 75.5q149 0 255 -70.5t148.5 -190.5t14.5 -264q-4 -22 -15 -53h-962zM716 1005
q-174 0 -324 -122.5t-201 -296.5h869q23 182 -73.5 300.5t-270.5 118.5zM493 1330l14 76h553l-14 -76h-553z" />
    <glyph glyph-name="Ebreve" unicode="&#x114;" horiz-adv-x="1133" 
d="M86 0l279 1434h795l-16 -83h-702l-114 -589h644l-17 -83h-644l-115 -596h719l-15 -83h-814zM773 1531q-130 0 -199.5 87t-49.5 219h86q-14 -101 32.5 -166.5t144.5 -65.5q99 0 171.5 65.5t96.5 166.5h86q-32 -132 -135 -219t-233 -87z" />
    <glyph glyph-name="ebreve" unicode="&#x115;" horiz-adv-x="1226" 
d="M173 507q-20 -122 18.5 -225t131 -164.5t221.5 -61.5q109 0 214.5 48t192.5 135l44 -51q-201 -213 -466 -213q-160 0 -273 75.5t-157.5 202t-15.5 277.5q29 150 123 277t233.5 202.5t292.5 75.5q149 0 255 -70.5t148.5 -190.5t14.5 -264q-4 -22 -15 -53h-962zM716 1005
q-174 0 -324 -122.5t-201 -296.5h869q23 182 -73.5 300.5t-270.5 118.5zM743 1199q-130 0 -199 87t-49 219h86q-14 -101 32.5 -166.5t144.5 -65.5t170.5 65.5t96.5 166.5h86q-32 -132 -135 -219t-233 -87z" />
    <glyph glyph-name="Edotaccent" unicode="&#x116;" horiz-adv-x="1133" 
d="M86 0l279 1434h795l-16 -83h-702l-114 -589h644l-17 -83h-644l-115 -596h719l-15 -83h-814zM736 1704q6 32 33 54.5t59 22.5t50 -22.5t12 -54.5t-33 -54.5t-59 -22.5t-50 22.5t-12 54.5z" />
    <glyph glyph-name="edotaccent" unicode="&#x117;" horiz-adv-x="1226" 
d="M173 507q-20 -122 18.5 -225t131 -164.5t221.5 -61.5q109 0 214.5 48t192.5 135l44 -51q-201 -213 -466 -213q-160 0 -273 75.5t-157.5 202t-15.5 277.5q29 150 123 277t233.5 202.5t292.5 75.5q149 0 255 -70.5t148.5 -190.5t14.5 -264q-4 -22 -15 -53h-962zM716 1005
q-174 0 -324 -122.5t-201 -296.5h869q23 182 -73.5 300.5t-270.5 118.5zM700 1372q6 32 33.5 54.5t59.5 22.5t49.5 -22.5t11.5 -54.5t-33 -54.5t-59 -22.5t-50 22.5t-12 54.5z" />
    <glyph glyph-name="Eogonek" unicode="&#x118;" horiz-adv-x="1133" 
d="M86 0l279 1434h795l-16 -83h-702l-114 -589h644l-17 -83h-644l-115 -596h719l-15 -83h-174q-120 -83 -179.5 -140t-71.5 -121q-11 -61 20.5 -101t89.5 -40q61 0 106 38t68 110h76q-74 -215 -274 -215q-87 0 -134.5 58t-30.5 143q15 77 77.5 139t169.5 129h-557z" />
    <glyph glyph-name="eogonek" unicode="&#x119;" horiz-adv-x="1226" 
d="M173 507q-20 -122 18.5 -225t131 -164.5t221.5 -61.5q109 0 214.5 48t192.5 135l44 -51q-184 -195 -418 -211q-102 -71 -154.5 -125t-63.5 -113q-11 -61 20.5 -101t89.5 -40q61 0 106 38t68 110h76q-74 -215 -274 -215q-86 0 -133.5 58t-30.5 143q13 69 66.5 127
t142.5 118q-149 9 -252 86t-143 199.5t-12 267.5q29 150 123 277t233.5 202.5t292.5 75.5q149 0 255 -70.5t148.5 -190.5t14.5 -264q-4 -22 -15 -53h-962zM716 1005q-174 0 -324 -122.5t-201 -296.5h869q23 182 -73.5 300.5t-270.5 118.5z" />
    <glyph glyph-name="Ecaron" unicode="&#x11a;" horiz-adv-x="1133" 
d="M86 0l279 1434h795l-16 -83h-702l-114 -589h644l-17 -83h-644l-115 -596h719l-15 -83h-814zM795 1623l313 287l45 -47l-339 -312h-68l-218 312l64 47z" />
    <glyph glyph-name="ecaron" unicode="&#x11b;" horiz-adv-x="1226" 
d="M173 507q-20 -122 18.5 -225t131 -164.5t221.5 -61.5q109 0 214.5 48t192.5 135l44 -51q-201 -213 -466 -213q-160 0 -273 75.5t-157.5 202t-15.5 277.5q29 150 123 277t233.5 202.5t292.5 75.5q149 0 255 -70.5t148.5 -190.5t14.5 -264q-4 -22 -15 -53h-962zM716 1005
q-174 0 -324 -122.5t-201 -296.5h869q23 182 -73.5 300.5t-270.5 118.5zM758 1271l313 287l45 -48l-339 -311h-67l-218 311l63 48z" />
    <glyph glyph-name="Gcircumflex" unicode="&#x11c;" horiz-adv-x="1579" 
d="M846 729h685l-2 -12q-31 -157 -105 -292.5t-181 -235.5t-249.5 -157t-301.5 -57q-198 0 -342.5 97.5t-205 268t-20.5 376.5q30 155 110 292t193 235.5t257 156t296 57.5q242 0 403.5 -132.5t174.5 -345.5h-103q-16 177 -153 285.5t-338 108.5q-132 0 -257.5 -51.5
t-223.5 -140t-168 -209.5t-96 -256q-35 -180 17 -331t177 -239t296 -88q130 0 246.5 45t206 124.5t154.5 186t100 231.5h-587zM1231 1528l-203 287l-313 -287l-46 47l340 311h67l217 -311z" />
    <glyph glyph-name="gcircumflex" unicode="&#x11d;" horiz-adv-x="1296" 
d="M708 1085q147 0 248 -70.5t144 -191.5l46 238h92l-209 -1073q-40 -207 -199 -335t-380 -128q-262 0 -403 217l62 53q56 -87 146 -138t210 -51q177 0 307.5 104.5t163.5 273.5l50 254q-91 -121 -219 -192t-275 -71q-152 0 -256.5 76.5t-143 202.5t-9.5 276t116.5 276
t222 202.5t286.5 76.5zM518 58q191 0 338.5 138t185.5 334q25 127 -7 234t-119.5 172.5t-214.5 65.5q-191 0 -339 -138t-186 -334q-25 -127 7.5 -234t120 -172.5t214.5 -65.5zM1018 1196l-203 287l-313 -287l-46 47l340 311h67l217 -311z" />
    <glyph glyph-name="Gbreve" unicode="&#x11e;" horiz-adv-x="1579" 
d="M846 729h685l-2 -12q-31 -157 -105 -292.5t-181 -235.5t-249.5 -157t-301.5 -57q-198 0 -342.5 97.5t-205 268t-20.5 376.5q30 155 110 292t193 235.5t257 156t296 57.5q242 0 403.5 -132.5t174.5 -345.5h-103q-16 177 -153 285.5t-338 108.5q-132 0 -257.5 -51.5
t-223.5 -140t-168 -209.5t-96 -256q-35 -180 17 -331t177 -239t296 -88q130 0 246.5 45t206 124.5t154.5 186t100 231.5h-587zM974 1531q-130 0 -199.5 87t-49.5 219h86q-14 -101 32.5 -166.5t144.5 -65.5t170.5 65.5t96.5 166.5h86q-32 -132 -134.5 -219t-232.5 -87z" />
    <glyph glyph-name="gbreve" unicode="&#x11f;" horiz-adv-x="1296" 
d="M708 1085q147 0 248 -70.5t144 -191.5l46 238h92l-209 -1073q-40 -207 -199 -335t-380 -128q-262 0 -403 217l62 53q56 -87 146 -138t210 -51q177 0 307.5 104.5t163.5 273.5l50 254q-91 -121 -219 -192t-275 -71q-152 0 -256.5 76.5t-143 202.5t-9.5 276t116.5 276
t222 202.5t286.5 76.5zM518 58q191 0 338.5 138t185.5 334q25 127 -7 234t-119.5 172.5t-214.5 65.5q-191 0 -339 -138t-186 -334q-25 -127 7.5 -234t120 -172.5t214.5 -65.5zM758 1199q-130 0 -199.5 87t-49.5 219h86q-14 -101 32.5 -166.5t144.5 -65.5t170.5 65.5
t96.5 166.5h86q-32 -132 -134.5 -219t-232.5 -87z" />
    <glyph glyph-name="Gdotaccent" unicode="&#x120;" horiz-adv-x="1579" 
d="M846 729h685l-2 -12q-31 -157 -105 -292.5t-181 -235.5t-249.5 -157t-301.5 -57q-198 0 -342.5 97.5t-205 268t-20.5 376.5q30 155 110 292t193 235.5t257 156t296 57.5q242 0 403.5 -132.5t174.5 -345.5h-103q-16 177 -153 285.5t-338 108.5q-132 0 -257.5 -51.5
t-223.5 -140t-168 -209.5t-96 -256q-35 -180 17 -331t177 -239t296 -88q130 0 246.5 45t206 124.5t154.5 186t100 231.5h-587zM929 1704q6 32 33 54.5t59 22.5t49.5 -22.5t11.5 -54.5t-33 -54.5t-59 -22.5t-49.5 22.5t-11.5 54.5z" />
    <glyph glyph-name="gdotaccent" unicode="&#x121;" horiz-adv-x="1296" 
d="M708 1085q147 0 248 -70.5t144 -191.5l46 238h92l-209 -1073q-40 -207 -199 -335t-380 -128q-262 0 -403 217l62 53q56 -87 146 -138t210 -51q177 0 307.5 104.5t163.5 273.5l50 254q-91 -121 -219 -192t-275 -71q-152 0 -256.5 76.5t-143 202.5t-9.5 276t116.5 276
t222 202.5t286.5 76.5zM518 58q191 0 338.5 138t185.5 334q25 127 -7 234t-119.5 172.5t-214.5 65.5q-191 0 -339 -138t-186 -334q-25 -127 7.5 -234t120 -172.5t214.5 -65.5zM712 1372q6 32 33 54.5t59 22.5t49.5 -22.5t11.5 -54.5t-33 -54.5t-59 -22.5t-49.5 22.5
t-11.5 54.5z" />
    <glyph glyph-name="Gcommaaccent" unicode="&#x122;" horiz-adv-x="1579" 
d="M846 729h685l-2 -12q-31 -157 -105 -292.5t-181 -235.5t-249.5 -157t-301.5 -57q-198 0 -342.5 97.5t-205 268t-20.5 376.5q30 155 110 292t193 235.5t257 156t296 57.5q242 0 403.5 -132.5t174.5 -345.5h-103q-16 177 -153 285.5t-338 108.5q-132 0 -257.5 -51.5
t-223.5 -140t-168 -209.5t-96 -256q-35 -180 17 -331t177 -239t296 -88q130 0 246.5 45t206 124.5t154.5 186t100 231.5h-587zM539 -501l-62 39l230 350l70 -39z" />
    <glyph glyph-name="gcommaaccent" unicode="&#x123;" horiz-adv-x="1296" 
d="M708 1085q147 0 248 -70.5t144 -191.5l46 238h92l-209 -1073q-40 -207 -199 -335t-380 -128q-262 0 -403 217l62 53q56 -87 146 -138t210 -51q177 0 307.5 104.5t163.5 273.5l50 254q-91 -121 -219 -192t-275 -71q-152 0 -256.5 76.5t-143 202.5t-9.5 276t116.5 276
t222 202.5t286.5 76.5zM518 58q191 0 338.5 138t185.5 334q25 127 -7 234t-119.5 172.5t-214.5 65.5q-191 0 -339 -138t-186 -334q-25 -127 7.5 -234t120 -172.5t214.5 -65.5zM900 1570l63 -39l-230 -350l-70 39z" />
    <glyph glyph-name="Hcircumflex" unicode="&#x124;" horiz-adv-x="1398" 
d="M86 0l279 1434h94l-131 -672h833l131 672h94l-278 -1434h-94l131 679h-834l-131 -679h-94zM1152 1528l-203 287l-313 -287l-46 47l340 311h67l217 -311z" />
    <glyph glyph-name="hcircumflex" unicode="&#x125;" horiz-adv-x="1211" 
d="M768 1085q169 0 265.5 -119.5t62.5 -294.5l-130 -671h-93l129 665q28 143 -48.5 240t-222.5 97q-155 0 -291.5 -109.5t-165.5 -258.5l-122 -634h-93l290 1495h92l-123 -635q79 103 199 164t251 61zM672 1589l-202 287l-314 -287l-45 47l339 312h67l218 -312z" />
    <glyph glyph-name="Hbar" unicode="&#x126;" horiz-adv-x="1427" 
d="M100 0l215 1107h-138l14 76h139l49 251h94l-49 -251h833l50 251h94l-49 -251h138l-14 -76h-139l-215 -1107h-94l131 679h-833l-131 -679h-95zM342 762h834l67 345h-833z" />
    <glyph glyph-name="hbar" unicode="&#x127;" horiz-adv-x="1266" 
d="M497 1495l-37 -191h401l-14 -75h-402l-71 -369q79 103 198.5 164t250.5 61q169 0 265.5 -119.5t62.5 -294.5l-130 -671h-92l129 665q28 143 -49 240t-223 97q-101 0 -199.5 -50t-168 -135t-88.5 -183l-123 -634h-92l238 1229h-174l15 75h174l36 191h93z" />
    <glyph glyph-name="Itilde" unicode="&#x128;" horiz-adv-x="571" 
d="M415 1434h94l-279 -1434h-94zM500 1645l-18 22q-22 28 -33.5 40.5t-31 25t-39.5 12.5q-74 0 -133 -149l-77 17q84 208 217 208q78 0 142 -85l17 -22q28 -37 51 -56t51 -19q74 0 133 149l77 -16q-84 -208 -218 -208q-76 0 -138 81z" />
    <glyph glyph-name="itilde" unicode="&#x129;" horiz-adv-x="523" 
d="M113 0l205 1061h93l-206 -1061h-92zM412 1313l-18 22q-22 28 -33.5 40.5t-31 25t-39.5 12.5q-74 0 -133 -148l-77 16q84 208 217 208q78 0 142 -85l17 -22q28 -36 51 -55t51 -19q74 0 133 148l77 -16q-84 -208 -218 -208q-76 0 -138 81z" />
    <glyph glyph-name="Imacron" unicode="&#x12a;" horiz-adv-x="571" 
d="M415 1434h94l-279 -1434h-94zM229 1662l15 76h553l-15 -76h-553z" />
    <glyph glyph-name="imacron" unicode="&#x12b;" horiz-adv-x="523" 
d="M113 0l205 1061h93l-206 -1061h-92zM141 1330l15 76h553l-15 -76h-553z" />
    <glyph glyph-name="Ibreve" unicode="&#x12c;" horiz-adv-x="571" 
d="M415 1434h94l-279 -1434h-94zM480 1531q-130 0 -199.5 87t-49.5 219h86q-14 -101 33 -166.5t145 -65.5t170.5 65.5t96.5 166.5h86q-32 -132 -135 -219t-233 -87z" />
    <glyph glyph-name="ibreve" unicode="&#x12d;" horiz-adv-x="523" 
d="M113 0l205 1061h93l-206 -1061h-92zM392 1199q-130 0 -199.5 87t-49.5 219h86q-14 -101 33 -166.5t145 -65.5t170.5 65.5t96.5 166.5h86q-32 -132 -135 -219t-233 -87z" />
    <glyph glyph-name="Iogonek" unicode="&#x12e;" horiz-adv-x="571" 
d="M147 0h-11l279 1434h94l-279 -1434q-119 -83 -178.5 -140t-71.5 -121q-11 -61 20 -101t89 -40q61 0 106 38t68 110h76q-74 -215 -273 -215q-86 0 -133.5 58t-31.5 143q15 77 77.5 139t168.5 129z" />
    <glyph glyph-name="iogonek" unicode="&#x12f;" horiz-adv-x="523" 
d="M113 0l205 1061h93l-206 -1061q-120 -83 -179.5 -140t-71.5 -121q-11 -61 20 -101t89 -40q61 0 106.5 38t68.5 110h75q-74 -215 -273 -215q-86 0 -133.5 58t-30.5 143q15 77 77.5 139t168.5 129h-9zM349 1372q6 33 32.5 55t58.5 22q33 0 50.5 -22t11.5 -55
q-6 -32 -32 -54t-59 -22q-32 0 -50 22t-12 54z" />
    <glyph glyph-name="Idotaccent" unicode="&#x130;" horiz-adv-x="571" 
d="M415 1434h94l-279 -1434h-94zM437 1704q6 32 33 54.5t59 22.5t50 -22.5t12 -54.5t-33 -54.5t-59 -22.5t-50 22.5t-12 54.5z" />
    <glyph glyph-name="dotlessi" unicode="&#x131;" horiz-adv-x="523" 
d="M113 0l205 1061h93l-206 -1061h-92z" />
    <glyph glyph-name="IJ" unicode="&#x132;" horiz-adv-x="1464" 
d="M415 1434h94l-279 -1434h-94zM1177 412l198 1022h94l-198 -1022q-42 -216 -164 -326.5t-307 -110.5q-153 0 -261 80l42 73q111 -69 231 -69q141 0 236 89.5t129 263.5z" />
    <glyph glyph-name="ij" unicode="&#x133;" horiz-adv-x="1046" 
d="M113 0l205 1061h93l-206 -1061h-92zM349 1372q6 33 32.5 55t58.5 22q33 0 50.5 -22t11.5 -55q-6 -32 -32 -54t-59 -22q-32 0 -50 22t-12 54zM872 1372q6 33 32.5 55t59.5 22t50 -22t11 -55q-6 -32 -32 -54t-59 -22q-32 0 -50 22t-12 54zM597 -200l245 1261h92l-245 -1260
q-27 -136 -107.5 -206t-197.5 -70q-46 0 -75 4l16 81q29 -3 68 -3q76 0 130.5 48.5t73.5 144.5z" />
    <glyph glyph-name="Jcircumflex" unicode="&#x134;" horiz-adv-x="903" 
d="M615 412l199 1022h94l-198 -1022q-42 -216 -164 -326.5t-307 -110.5q-154 0 -262 80l42 73q111 -69 232 -69q141 0 235.5 89.5t128.5 263.5zM1137 1528l-203 287l-313 -287l-47 47l340 311h68l217 -311z" />
    <glyph glyph-name="jcircumflex" unicode="&#x135;" horiz-adv-x="523" 
d="M74 -200l244 1261h93l-245 -1260q-27 -136 -107.5 -206t-196.5 -70q-46 0 -75 4l15 81q28 -3 69 -3q76 0 130 48.5t73 144.5zM649 1196l-203 287l-313 -287l-46 47l340 311h68l217 -311z" />
    <glyph glyph-name="Kcommaaccent" unicode="&#x136;" horiz-adv-x="1200" 
d="M1155 1434h94q-117 -596 -516 -722l337 -712h-114l-328 687q-59 -8 -118 -8h-199l-131 -679h-94l279 1434h94l-131 -672h180q268 0 425.5 173t221.5 499zM319 -501l-61 39l229 350l71 -39z" />
    <glyph glyph-name="kcommaaccent" unicode="&#x137;" horiz-adv-x="1031" 
d="M930 1061h92q-81 -416 -412 -507l294 -554h-112l-285 535q-58 -7 -101 -7h-152l-102 -528h-93l290 1495h92l-172 -886h154q420 0 507 452zM264 -501l-61 39l229 350l71 -39z" />
    <glyph glyph-name="kgreenlandic" unicode="&#x138;" horiz-adv-x="1031" 
d="M930 1061h92q-41 -213 -147.5 -343t-268.5 -177l298 -541h-112l-288 520q-50 -6 -102 -6h-151l-99 -514h-93l206 1061h92l-91 -466h154q200 0 332 114.5t178 351.5z" />
    <glyph glyph-name="Lacute" unicode="&#x139;" horiz-adv-x="1054" 
d="M86 0l279 1434h94l-263 -1351h709l-15 -83h-804zM414 1577l351 335l51 -49l-353 -335z" />
    <glyph glyph-name="lacute" unicode="&#x13a;" horiz-adv-x="522" 
d="M113 0l289 1495h93l-290 -1495h-92zM376 1638l351 335l51 -49l-354 -335z" />
    <glyph glyph-name="Lcommaaccent" unicode="&#x13b;" horiz-adv-x="1054" 
d="M86 0l279 1434h94l-263 -1351h709l-15 -83h-804zM276 -501l-61 39l229 350l71 -39z" />
    <glyph glyph-name="lcommaaccent" unicode="&#x13c;" horiz-adv-x="522" 
d="M113 0l289 1495h93l-290 -1495h-92zM10 -501l-61 39l229 350l71 -39z" />
    <glyph glyph-name="Lcaron" unicode="&#x13d;" horiz-adv-x="1054" 
d="M86 0l279 1434h94l-263 -1351h709l-15 -83h-804zM821 1388q5 27 32.5 48.5t59.5 21.5q35 0 53 -24.5t10 -64.5q-14 -72 -75 -150.5t-139 -112.5l-29 39q68 42 91.5 95.5t-0.5 108.5q-7 20 -3 39z" />
    <glyph glyph-name="lcaron" unicode="&#x13e;" horiz-adv-x="768" 
d="M113 0l289 1495h93l-290 -1495h-92zM726 1449q5 27 32.5 49t59.5 22q35 0 53 -24.5t10 -64.5q-14 -72 -75 -151t-139 -113l-30 39q68 41 91.5 94.5t0.5 109.5q-7 18 -3 39z" />
    <glyph glyph-name="Ldot" unicode="&#x13f;" horiz-adv-x="1054" 
d="M86 0l279 1434h94l-263 -1351h709l-15 -83h-804zM694 770q6 32 32.5 54.5t58.5 22.5t50.5 -22.5t12.5 -54.5t-33 -54.5t-59 -22.5t-50 22.5t-12 54.5z" />
    <glyph glyph-name="ldot" unicode="&#x140;" horiz-adv-x="775" 
d="M113 0l289 1495h93l-290 -1495h-92zM605 770q6 32 32.5 54.5t58.5 22.5t50.5 -22.5t12.5 -54.5t-33 -54.5t-59 -22.5t-50 22.5t-12 54.5z" />
    <glyph glyph-name="Lslash" unicode="&#x141;" horiz-adv-x="1089" 
d="M848 895l-506 -237l-112 -575h710l-15 -83h-804l118 610l-155 -72l-25 65l196 91l144 740h95l-135 -691l465 218z" />
    <glyph glyph-name="lslash" unicode="&#x142;" horiz-adv-x="599" 
d="M642 876l-252 -116l-147 -760h-92l138 713l-210 -97l-25 66l251 115l135 698h92l-125 -651l210 97z" />
    <glyph glyph-name="Nacute" unicode="&#x143;" horiz-adv-x="1414" 
d="M86 0l279 1434h89l609 -1268l247 1268h92l-279 -1434h-89l-610 1268l-246 -1268h-92zM818 1577l351 335l52 -49l-354 -335z" />
    <glyph glyph-name="nacute" unicode="&#x144;" horiz-adv-x="1211" 
d="M768 1085q169 0 265.5 -119.5t62.5 -294.5l-130 -671h-93l129 665q28 143 -48.5 240t-222.5 97q-155 0 -291.5 -109.5t-165.5 -258.5l-122 -634h-93l206 1061h92l-39 -201q79 103 199 164t251 61zM662 1245l351 335l51 -49l-353 -335z" />
    <glyph glyph-name="Ncommaaccent" unicode="&#x145;" horiz-adv-x="1414" 
d="M86 0l279 1434h89l609 -1268l247 1268h92l-279 -1434h-89l-610 1268l-246 -1268h-92zM456 -501l-62 39l230 350l70 -39z" />
    <glyph glyph-name="ncommaaccent" unicode="&#x146;" horiz-adv-x="1211" 
d="M768 1085q169 0 265.5 -119.5t62.5 -294.5l-130 -671h-93l129 665q28 143 -48.5 240t-222.5 97q-155 0 -291.5 -109.5t-165.5 -258.5l-122 -634h-93l206 1061h92l-39 -201q79 103 199 164t251 61zM354 -501l-61 39l229 350l71 -39z" />
    <glyph glyph-name="Ncaron" unicode="&#x147;" horiz-adv-x="1414" 
d="M86 0l279 1434h89l609 -1268l247 1268h92l-279 -1434h-89l-610 1268l-246 -1268h-92zM920 1623l313 287l45 -47l-339 -312h-68l-218 312l64 47z" />
    <glyph glyph-name="ncaron" unicode="&#x148;" horiz-adv-x="1211" 
d="M768 1085q169 0 265.5 -119.5t62.5 -294.5l-130 -671h-93l129 665q28 143 -48.5 240t-222.5 97q-155 0 -291.5 -109.5t-165.5 -258.5l-122 -634h-93l206 1061h92l-39 -201q79 103 199 164t251 61zM759 1271l313 287l45 -48l-339 -311h-67l-218 311l63 48z" />
    <glyph glyph-name="napostrophe" unicode="&#x149;" horiz-adv-x="1348" 
d="M905 1085q169 0 265.5 -119.5t62.5 -294.5l-130 -671h-92l129 665q28 143 -49 240t-223 97q-101 0 -199.5 -50t-168 -135t-88.5 -183l-123 -634h-92l205 1061h93l-39 -201q79 103 198.5 164t250.5 61zM275 1449q5 27 33 49t60 22q35 0 52.5 -24.5t9.5 -64.5
q-14 -72 -75 -151t-139 -113l-30 39q68 42 92 95t1 109q-8 19 -4 39z" />
    <glyph glyph-name="Eng" unicode="&#x14a;" horiz-adv-x="1414" 
d="M1402 1434l-301 -1550q-34 -172 -140 -265.5t-273 -93.5q-53 0 -93 8l15 81q36 -7 95 -7q249 0 304 279l22 119l-607 1263l-246 -1268h-92l279 1434h89l609 -1268l247 1268h92z" />
    <glyph glyph-name="eng" unicode="&#x14b;" horiz-adv-x="1211" 
d="M768 1085q169 0 265.5 -119.5t62.5 -294.5l-153 -787q-34 -174 -137 -266.5t-270 -92.5q-47 0 -99 8l16 81q36 -7 94 -7q249 0 304 279l151 779q28 143 -48.5 240t-222.5 97q-155 0 -291.5 -109.5t-165.5 -258.5l-122 -634h-93l206 1061h92l-39 -201q79 103 199 164
t251 61z" />
    <glyph glyph-name="Omacron" unicode="&#x14c;" horiz-adv-x="1640" 
d="M729 59q176 0 340 88t277.5 239t148.5 331q35 179 -20 330t-185 239t-306 88t-339.5 -88t-277 -238.5t-148.5 -330.5q-29 -137 -0.5 -256.5t94.5 -209t175 -141t241 -51.5zM1000 1458q122 0 227.5 -37t181.5 -103.5t127 -159t63.5 -204t-9.5 -237.5q-30 -154 -114 -291.5
t-200.5 -236.5t-263.5 -156.5t-299 -57.5t-277.5 57t-202.5 157t-109.5 235.5t0.5 292.5q40 206 169 376t316.5 267.5t390.5 97.5zM764 1662l14 76h553l-14 -76h-553z" />
    <glyph glyph-name="omacron" unicode="&#x14d;" horiz-adv-x="1271" 
d="M545 58q96 0 189.5 38.5t166.5 102.5t125 150.5t70 180.5q24 126 -14.5 234t-132 173t-221.5 65q-194 0 -354.5 -140t-197.5 -332q-24 -125 14.5 -233.5t132.5 -173.5t222 -65zM744 1085q155 0 268 -76t159.5 -203t17.5 -276q-22 -111 -83.5 -213t-149 -177.5
t-199.5 -120t-229 -44.5q-155 0 -268 76t-159.5 203t-17.5 276q22 111 83.5 213t149 177.5t199.5 120t229 44.5zM515 1330l14 76h553l-14 -76h-553z" />
    <glyph glyph-name="Obreve" unicode="&#x14e;" horiz-adv-x="1640" 
d="M729 59q176 0 340 88t277.5 239t148.5 331q35 179 -20 330t-185 239t-306 88t-339.5 -88t-277 -238.5t-148.5 -330.5q-29 -137 -0.5 -256.5t94.5 -209t175 -141t241 -51.5zM1000 1458q122 0 227.5 -37t181.5 -103.5t127 -159t63.5 -204t-9.5 -237.5q-30 -154 -114 -291.5
t-200.5 -236.5t-263.5 -156.5t-299 -57.5t-277.5 57t-202.5 157t-109.5 235.5t0.5 292.5q40 206 169 376t316.5 267.5t390.5 97.5zM1015 1531q-130 0 -199.5 87t-49.5 219h86q-14 -101 32.5 -166.5t144.5 -65.5t170.5 65.5t96.5 166.5h86q-32 -132 -134.5 -219t-232.5 -87z
" />
    <glyph glyph-name="obreve" unicode="&#x14f;" horiz-adv-x="1271" 
d="M545 58q96 0 189.5 38.5t166.5 102.5t125 150.5t70 180.5q24 126 -14.5 234t-132 173t-221.5 65q-194 0 -354.5 -140t-197.5 -332q-24 -125 14.5 -233.5t132.5 -173.5t222 -65zM744 1085q155 0 268 -76t159.5 -203t17.5 -276q-22 -111 -83.5 -213t-149 -177.5
t-199.5 -120t-229 -44.5q-155 0 -268 76t-159.5 203t-17.5 276q22 111 83.5 213t149 177.5t199.5 120t229 44.5zM766 1199q-130 0 -199.5 87t-49.5 219h86q-14 -101 32.5 -166.5t144.5 -65.5q99 0 171.5 65.5t96.5 166.5h86q-32 -132 -135 -219t-233 -87z" />
    <glyph glyph-name="Ohungarumlaut" unicode="&#x150;" horiz-adv-x="1640" 
d="M729 59q176 0 340 88t277.5 239t148.5 331q35 179 -20 330t-185 239t-306 88t-339.5 -88t-277 -238.5t-148.5 -330.5q-29 -137 -0.5 -256.5t94.5 -209t175 -141t241 -51.5zM1000 1458q122 0 227.5 -37t181.5 -103.5t127 -159t63.5 -204t-9.5 -237.5q-30 -154 -114 -291.5
t-200.5 -236.5t-263.5 -156.5t-299 -57.5t-277.5 57t-202.5 157t-109.5 235.5t0.5 292.5q40 206 169 376t316.5 267.5t390.5 97.5zM799 1577l351 335l51 -49l-353 -335zM1095 1577l351 335l51 -49l-353 -335z" />
    <glyph glyph-name="ohungarumlaut" unicode="&#x151;" horiz-adv-x="1271" 
d="M545 58q96 0 189.5 38.5t166.5 102.5t125 150.5t70 180.5q24 126 -14.5 234t-132 173t-221.5 65q-194 0 -354.5 -140t-197.5 -332q-24 -125 14.5 -233.5t132.5 -173.5t222 -65zM744 1085q155 0 268 -76t159.5 -203t17.5 -276q-22 -111 -83.5 -213t-149 -177.5
t-199.5 -120t-229 -44.5q-155 0 -268 76t-159.5 203t-17.5 276q22 111 83.5 213t149 177.5t199.5 120t229 44.5zM454 1245l351 335l51 -49l-353 -335zM750 1245l351 335l51 -49l-353 -335z" />
    <glyph glyph-name="OE" unicode="&#x152;" horiz-adv-x="1818" 
d="M791 84h9l247 1266h-10q-192 0 -368 -83.5t-296 -229t-154 -320.5t29.5 -320.5t207 -229t335.5 -83.5zM1585 0h-810q-218 0 -381 94.5t-236 259t-34 363.5q38 198 175 363t337 259.5t418 94.5h791l-16 -83h-688l-115 -589h632l-17 -83h-631l-116 -596h707z" />
    <glyph glyph-name="oe" unicode="&#x153;" horiz-adv-x="2160" 
d="M720 1085q164 0 276.5 -97.5t137.5 -253.5q84 155 232 253t315 98q145 0 247.5 -70.5t143 -190.5t12.5 -264q-2 -11 -17 -53h-930q-15 -91 3 -173.5t63 -144t120 -97.5t169 -36q208 0 393 183l52 -61q-95 -95 -213.5 -149t-244.5 -54q-176 0 -289 97t-137 253
q-85 -156 -235 -253t-314 -97q-146 0 -253.5 74t-152.5 201.5t-15 279.5q45 232 230 393.5t407 161.5zM520 58q183 0 336 137t191 335q25 130 -11.5 238.5t-124.5 171t-208 62.5q-90 0 -178 -37t-158 -100t-121 -150.5t-70 -184.5q-25 -130 11.5 -238.5t124.5 -171
t208 -62.5zM1665 1005q-168 0 -313.5 -122.5t-196.5 -296.5h838q23 182 -68.5 300.5t-259.5 118.5z" />
    <glyph glyph-name="Racute" unicode="&#x154;" horiz-adv-x="1201" 
d="M895 0l-306 582h-296l-113 -582h-94l279 1434h407q220 0 330.5 -116.5t73.5 -309.5q-34 -173 -164.5 -285.5t-319.5 -135.5l309 -587h-106zM1080 1008q30 156 -58.5 249.5t-267.5 93.5h-312l-133 -686h312q179 0 304 93.5t155 249.5zM688 1577l351 335l52 -49l-354 -335z
" />
    <glyph glyph-name="racute" unicode="&#x155;" horiz-adv-x="776" 
d="M842 1078l-26 -86q-39 10 -85 10q-155 0 -291.5 -109.5t-165.5 -258.5l-122 -634h-93l206 1061h92l-39 -201q79 103 199 164t251 61q40 0 74 -7zM423 1245l351 335l51 -49l-353 -335z" />
    <glyph glyph-name="Rcommaaccent" unicode="&#x156;" horiz-adv-x="1201" 
d="M895 0l-306 582h-296l-113 -582h-94l279 1434h407q220 0 330.5 -116.5t73.5 -309.5q-34 -173 -164.5 -285.5t-319.5 -135.5l309 -587h-106zM1080 1008q30 156 -58.5 249.5t-267.5 93.5h-312l-133 -686h312q179 0 304 93.5t155 249.5zM294 -501l-62 39l230 350l70 -39z
" />
    <glyph glyph-name="rcommaaccent" unicode="&#x157;" horiz-adv-x="776" 
d="M842 1078l-26 -86q-39 10 -85 10q-155 0 -291.5 -109.5t-165.5 -258.5l-122 -634h-93l206 1061h92l-39 -201q79 103 199 164t251 61q40 0 74 -7zM-103 -501l-62 39l228 350l71 -39z" />
    <glyph glyph-name="Rcaron" unicode="&#x158;" horiz-adv-x="1201" 
d="M895 0l-306 582h-296l-113 -582h-94l279 1434h407q220 0 330.5 -116.5t73.5 -309.5q-34 -173 -164.5 -285.5t-319.5 -135.5l309 -587h-106zM1080 1008q30 156 -58.5 249.5t-267.5 93.5h-312l-133 -686h312q179 0 304 93.5t155 249.5zM768 1623l313 287l45 -47l-339 -312
h-67l-218 312l63 47z" />
    <glyph glyph-name="rcaron" unicode="&#x159;" horiz-adv-x="776" 
d="M842 1078l-26 -86q-39 10 -85 10q-155 0 -291.5 -109.5t-165.5 -258.5l-122 -634h-93l206 1061h92l-39 -201q79 103 199 164t251 61q40 0 74 -7zM528 1271l314 287l45 -48l-339 -311h-68l-218 311l64 48z" />
    <glyph glyph-name="Sacute" unicode="&#x15a;" horiz-adv-x="1179" 
d="M69 215l63 55q62 -94 158 -152.5t213 -58.5q170 0 296.5 84t152.5 216q25 127 -58 213.5t-272 126.5q-204 44 -299 144.5t-67 246.5q32 160 172 264t330 104q179 0 285.5 -90t112.5 -270h-95q-7 133 -92.5 204.5t-219.5 71.5q-153 0 -263 -78.5t-133 -198.5
q-23 -118 62 -198.5t259 -119.5q436 -99 374 -417q-33 -168 -187.5 -277.5t-367.5 -109.5q-274 0 -424 240zM692 1577l351 335l52 -49l-354 -335z" />
    <glyph glyph-name="sacute" unicode="&#x15b;" horiz-adv-x="934" 
d="M19 161l60 51q60 -81 129.5 -118.5t172.5 -37.5q130 0 220 60t109 156q18 89 -49.5 151t-204.5 89q-163 32 -235.5 107.5t-51.5 183.5q23 120 132 201t262 81q150 0 231.5 -75t83.5 -200h-92q-5 84 -65.5 139.5t-168.5 55.5q-113 0 -193.5 -58.5t-97.5 -144.5
q-14 -74 48 -130.5t191 -82.5q169 -33 247.5 -113.5t54.5 -204.5q-25 -130 -141.5 -213t-290.5 -83q-233 0 -351 186zM485 1245l352 335l51 -49l-353 -335z" />
    <glyph glyph-name="Scircumflex" unicode="&#x15c;" horiz-adv-x="1179" 
d="M69 215l63 55q62 -94 158 -152.5t213 -58.5q170 0 296.5 84t152.5 216q25 127 -58 213.5t-272 126.5q-204 44 -299 144.5t-67 246.5q32 160 172 264t330 104q179 0 285.5 -90t112.5 -270h-95q-7 133 -92.5 204.5t-219.5 71.5q-153 0 -263 -78.5t-133 -198.5
q-23 -118 62 -198.5t259 -119.5q436 -99 374 -417q-33 -168 -187.5 -277.5t-367.5 -109.5q-274 0 -424 240zM1033 1528l-203 287l-313 -287l-46 47l340 311h68l217 -311z" />
    <glyph glyph-name="scircumflex" unicode="&#x15d;" horiz-adv-x="934" 
d="M19 161l60 51q60 -81 129.5 -118.5t172.5 -37.5q130 0 220 60t109 156q18 89 -49.5 151t-204.5 89q-163 32 -235.5 107.5t-51.5 183.5q23 120 132 201t262 81q150 0 231.5 -75t83.5 -200h-92q-5 84 -65.5 139.5t-168.5 55.5q-113 0 -193.5 -58.5t-97.5 -144.5
q-14 -74 48 -130.5t191 -82.5q169 -33 247.5 -113.5t54.5 -204.5q-25 -130 -141.5 -213t-290.5 -83q-233 0 -351 186zM841 1196l-203 287l-313 -287l-46 47l339 311h68l217 -311z" />
    <glyph glyph-name="Scedilla" unicode="&#x15e;" horiz-adv-x="1179" 
d="M482 -199q-27 0 -48 -3l-16 15l32 164q-246 17 -381 238l63 55q62 -94 158 -152.5t213 -58.5q170 0 296.5 84t152.5 216q25 127 -58 213.5t-272 126.5q-204 44 -299 144.5t-67 246.5q32 160 172 264t330 104q179 0 285.5 -90t112.5 -270h-95q-7 133 -92.5 204.5
t-219.5 71.5q-153 0 -263 -78.5t-133 -198.5q-23 -118 62 -198.5t259 -119.5q436 -99 374 -417q-31 -161 -176.5 -269.5t-347.5 -116.5l-22 -116q103 -4 147.5 -60t29.5 -136q-17 -84 -94 -140t-177 -56q-84 0 -137.5 46.5t-55.5 141.5h78q-1 -61 33.5 -92t91.5 -31
q68 0 120 38t63 94q10 55 -26 95.5t-93 40.5z" />
    <glyph glyph-name="scedilla" unicode="&#x15f;" horiz-adv-x="934" 
d="M355 -199q-27 0 -48 -3l-16 15l32 164q-198 17 -304 184l60 51q60 -81 129.5 -118.5t172.5 -37.5q130 0 220 60t109 156q18 89 -49.5 151t-204.5 89q-163 32 -235.5 107.5t-51.5 183.5q23 120 132 201t262 81q150 0 231.5 -75t83.5 -200h-92q-5 84 -65.5 139.5
t-168.5 55.5q-113 0 -193.5 -58.5t-97.5 -144.5q-14 -74 48 -130.5t191 -82.5q169 -33 247.5 -113.5t54.5 -204.5q-25 -125 -133.5 -206.5t-271.5 -88.5l-22 -116q103 -4 147.5 -60t29.5 -136q-17 -84 -94 -140t-177 -56q-84 0 -137.5 46.5t-55.5 141.5h78q-1 -61 33.5 -92
t91.5 -31q68 0 120 38t63 94q10 55 -26 95.5t-93 40.5z" />
    <glyph glyph-name="Scaron" unicode="&#x160;" horiz-adv-x="1179" 
d="M69 215l63 55q62 -94 158 -152.5t213 -58.5q170 0 296.5 84t152.5 216q25 127 -58 213.5t-272 126.5q-204 44 -299 144.5t-67 246.5q32 160 172 264t330 104q179 0 285.5 -90t112.5 -270h-95q-7 133 -92.5 204.5t-219.5 71.5q-153 0 -263 -78.5t-133 -198.5
q-23 -118 62 -198.5t259 -119.5q436 -99 374 -417q-33 -168 -187.5 -277.5t-367.5 -109.5q-274 0 -424 240zM794 1623l313 287l45 -47l-339 -312h-68l-218 312l64 47z" />
    <glyph glyph-name="scaron" unicode="&#x161;" horiz-adv-x="934" 
d="M19 161l60 51q60 -81 129.5 -118.5t172.5 -37.5q130 0 220 60t109 156q18 89 -49.5 151t-204.5 89q-163 32 -235.5 107.5t-51.5 183.5q23 120 132 201t262 81q150 0 231.5 -75t83.5 -200h-92q-5 84 -65.5 139.5t-168.5 55.5q-113 0 -193.5 -58.5t-97.5 -144.5
q-14 -74 48 -130.5t191 -82.5q169 -33 247.5 -113.5t54.5 -204.5q-25 -130 -141.5 -213t-290.5 -83q-233 0 -351 186zM603 1271l313 287l46 -48l-339 -311h-68l-218 311l63 48z" />
    <glyph glyph-name="Tcommaaccent" unicode="&#x162;" horiz-adv-x="1100" 
d="M401 0l263 1351h-437l17 83h966l-16 -83h-436l-262 -1351h-10l-27 -140q103 -4 147.5 -60t29.5 -136q-17 -84 -94 -140t-177 -56q-84 0 -137.5 46.5t-55.5 141.5h78q-1 -61 33.5 -92t91.5 -31q68 0 120 38t63 94q10 55 -26 95.5t-93 40.5q-27 0 -48 -3l-16 15l37 187h-11
z" />
    <glyph glyph-name="tcommaaccent" unicode="&#x163;" horiz-adv-x="763" 
d="M285 -199q-27 0 -48 -3l-17 15l47 241q-73 83 -38 257l129 668h-232l16 82h233l55 284l96 23l-59 -307h333l-17 -82h-332l-129 -667q-51 -255 193 -255q55 0 103 8l-14 -71q-45 -19 -109 -19q-95 0 -163 30l-28 -145q103 -4 147.5 -60t29.5 -136q-17 -84 -94 -140
t-177 -56q-84 0 -137.5 46.5t-55.5 141.5h78q-1 -61 33.5 -92t91.5 -31q68 0 120 38t63 94q10 55 -25.5 95.5t-92.5 40.5z" />
    <glyph glyph-name="Tcaron" unicode="&#x164;" horiz-adv-x="1101" 
d="M401 0l263 1351h-437l17 83h966l-16 -83h-436l-262 -1351h-95zM763 1623l313 287l45 -47l-339 -312h-67l-218 312l63 47z" />
    <glyph glyph-name="tcaron" unicode="&#x165;" horiz-adv-x="914" 
d="M451 979l-129 -667q-51 -255 193 -255q55 0 103 8l-14 -71q-45 -19 -109 -19q-331 0 -266 336l129 668h-232l16 82h233l55 284l96 23l-59 -307h333l-17 -82h-332zM857 1449q5 27 32.5 49t59.5 22q35 0 53 -24.5t10 -64.5q-14 -72 -75 -151t-139 -113l-30 39
q68 41 91.5 94.5t0.5 109.5q-7 18 -3 39z" />
    <glyph glyph-name="Tbar" unicode="&#x166;" horiz-adv-x="1100" 
d="M401 0l131 678h-301l16 77h301l116 596h-437l17 83h966l-16 -83h-436l-116 -596h301l-15 -77h-301l-131 -678h-95z" />
    <glyph glyph-name="tbar" unicode="&#x167;" horiz-adv-x="763" 
d="M451 979l-76 -393h284l-14 -73h-285l-38 -201q-51 -255 193 -255q55 0 103 8l-14 -71q-45 -19 -109 -19q-331 0 -266 336l39 202h-191l14 73h192l75 393h-232l16 82h233l55 284l96 23l-59 -307h333l-17 -82h-332z" />
    <glyph glyph-name="Utilde" unicode="&#x168;" horiz-adv-x="1339" 
d="M1346 1434l-185 -948q-44 -227 -211.5 -368t-387.5 -141t-332 140.5t-68 368.5l184 948h94l-186 -955q-35 -185 56 -301.5t269 -116.5t314.5 116.5t171.5 301.5l186 955h95zM884 1645l-18 22q-22 28 -33.5 40.5t-31 25t-39.5 12.5q-74 0 -133 -149l-77 17q84 208 217 208
q78 0 142 -85l17 -22q28 -37 51 -56t51 -19q74 0 133 149l77 -16q-84 -208 -218 -208q-76 0 -138 81z" />
    <glyph glyph-name="utilde" unicode="&#x169;" horiz-adv-x="1211" 
d="M444 -25q-169 0 -265 120t-62 295l130 671h92l-129 -665q-28 -143 48.5 -240.5t222.5 -97.5q101 0 200 50t168.5 135.5t88.5 183.5l123 634h92l-206 -1061h-92l39 201q-81 -104 -200.5 -165t-249.5 -61zM745 1313l-17 22q-22 28 -33.5 40.5t-31 25t-39.5 12.5
q-75 0 -134 -148l-76 16q84 208 217 208q78 0 142 -85l17 -22q28 -36 51 -55t51 -19q74 0 133 148l77 -16q-84 -208 -218 -208q-77 0 -139 81z" />
    <glyph glyph-name="Umacron" unicode="&#x16a;" horiz-adv-x="1339" 
d="M1346 1434l-185 -948q-44 -227 -211.5 -368t-387.5 -141t-332 140.5t-68 368.5l184 948h94l-186 -955q-35 -185 56 -301.5t269 -116.5t314.5 116.5t171.5 301.5l186 955h95zM613 1662l15 76h553l-15 -76h-553z" />
    <glyph glyph-name="umacron" unicode="&#x16b;" horiz-adv-x="1211" 
d="M444 -25q-169 0 -265 120t-62 295l130 671h92l-129 -665q-28 -143 48.5 -240.5t222.5 -97.5q101 0 200 50t168.5 135.5t88.5 183.5l123 634h92l-206 -1061h-92l39 201q-81 -104 -200.5 -165t-249.5 -61zM475 1330l14 76h553l-14 -76h-553z" />
    <glyph glyph-name="Ubreve" unicode="&#x16c;" horiz-adv-x="1339" 
d="M1346 1434l-185 -948q-44 -227 -211.5 -368t-387.5 -141t-332 140.5t-68 368.5l184 948h94l-186 -955q-35 -185 56 -301.5t269 -116.5t314.5 116.5t171.5 301.5l186 955h95zM864 1531q-130 0 -199.5 87t-49.5 219h86q-14 -101 33 -166.5t145 -65.5t170.5 65.5t96.5 166.5
h86q-32 -132 -135 -219t-233 -87z" />
    <glyph glyph-name="ubreve" unicode="&#x16d;" horiz-adv-x="1211" 
d="M444 -25q-169 0 -265 120t-62 295l130 671h92l-129 -665q-28 -143 48.5 -240.5t222.5 -97.5q101 0 200 50t168.5 135.5t88.5 183.5l123 634h92l-206 -1061h-92l39 201q-81 -104 -200.5 -165t-249.5 -61zM726 1199q-130 0 -199.5 87t-49.5 219h86q-14 -101 32.5 -166.5
t144.5 -65.5q99 0 171.5 65.5t96.5 166.5h86q-32 -132 -135 -219t-233 -87z" />
    <glyph glyph-name="Uring" unicode="&#x16e;" horiz-adv-x="1339" 
d="M1346 1434l-185 -948q-44 -227 -211.5 -368t-387.5 -141t-332 140.5t-68 368.5l184 948h94l-186 -955q-35 -185 56 -301.5t269 -116.5t314.5 116.5t171.5 301.5l186 955h95zM770 1725q-10 -56 20.5 -94t86.5 -38t101.5 38t55.5 94q11 56 -20 94.5t-86 38.5
q-56 0 -102 -38.5t-56 -94.5zM699 1725q16 83 85.5 139.5t155.5 56.5t133.5 -56.5t31.5 -139.5t-85.5 -139t-155.5 -56t-133.5 56t-31.5 139z" />
    <glyph glyph-name="uring" unicode="&#x16f;" horiz-adv-x="1211" 
d="M444 -25q-169 0 -265 120t-62 295l130 671h92l-129 -665q-28 -143 48.5 -240.5t222.5 -97.5q101 0 200 50t168.5 135.5t88.5 183.5l123 634h92l-206 -1061h-92l39 201q-81 -104 -200.5 -165t-249.5 -61zM632 1394q-10 -56 20 -94t86 -38t102 38t56 94t-20 94t-86 38
t-102 -38t-56 -94zM561 1394q16 83 85.5 139t155.5 56t133.5 -56t31.5 -139t-85.5 -139.5t-155.5 -56.5t-133.5 56.5t-31.5 139.5z" />
    <glyph glyph-name="Uhungarumlaut" unicode="&#x170;" horiz-adv-x="1339" 
d="M1346 1434l-185 -948q-44 -227 -211.5 -368t-387.5 -141t-332 140.5t-68 368.5l184 948h94l-186 -955q-35 -185 56 -301.5t269 -116.5t314.5 116.5t171.5 301.5l186 955h95zM646 1577l351 335l52 -49l-354 -335zM942 1577l351 335l52 -49l-354 -335z" />
    <glyph glyph-name="uhungarumlaut" unicode="&#x171;" horiz-adv-x="1211" 
d="M444 -25q-169 0 -265 120t-62 295l130 671h92l-129 -665q-28 -143 48.5 -240.5t222.5 -97.5q101 0 200 50t168.5 135.5t88.5 183.5l123 634h92l-206 -1061h-92l39 201q-81 -104 -200.5 -165t-249.5 -61zM423 1245l351 335l51 -49l-353 -335zM719 1245l351 335l51 -49
l-353 -335z" />
    <glyph glyph-name="Uogonek" unicode="&#x172;" horiz-adv-x="1339" 
d="M1346 1434l-185 -948q-40 -206 -183 -342t-337 -161q-104 -73 -158.5 -128t-66.5 -116q-11 -61 20 -101t89 -40q61 0 106 38t68 110h76q-74 -215 -273 -215q-87 0 -134.5 58t-30.5 143q13 70 67 127.5t144 118.5q-214 5 -321.5 144.5t-64.5 363.5l184 948h94l-186 -955
q-35 -185 56 -301.5t269 -116.5t314.5 116.5t171.5 301.5l186 955h95z" />
    <glyph glyph-name="uogonek" unicode="&#x173;" horiz-adv-x="1211" 
d="M444 -25q-169 0 -265 120t-62 295l130 671h92l-129 -665q-28 -143 48.5 -240.5t222.5 -97.5q101 0 200 50t168.5 135.5t88.5 183.5l123 634h92l-206 -1061q-120 -83 -179.5 -140t-71.5 -121q-11 -61 20.5 -101t89.5 -40q61 0 106 38t68 110h76q-74 -215 -274 -215
q-87 0 -134.5 58t-30.5 143q15 77 77.5 139t169.5 129h-9l39 201q-81 -104 -200.5 -165t-249.5 -61z" />
    <glyph glyph-name="Wcircumflex" unicode="&#x174;" horiz-adv-x="1927" 
d="M1089 1434h102l124 -1298l625 1298h101l-699 -1434h-102l-126 1303l-632 -1303h-102l-141 1434h100l120 -1298zM1416 1528l-203 287l-313 -287l-46 47l340 311h68l217 -311z" />
    <glyph glyph-name="wcircumflex" unicode="&#x175;" horiz-adv-x="1564" 
d="M839 1061h94l110 -922l483 922h100l-562 -1061h-94l-111 923l-469 -923h-94l-151 1061h101l124 -922zM1170 1196l-202 287l-314 -287l-46 47l340 311h68l217 -311z" />
    <glyph glyph-name="Ycircumflex" unicode="&#x176;" horiz-adv-x="1304" 
d="M346 1434l336 -752l629 752h107l-707 -846l-114 -588h-94l113 588l-377 846h107zM1105 1528l-203 287l-313 -287l-46 47l340 311h67l217 -311z" />
    <glyph glyph-name="ycircumflex" unicode="&#x177;" horiz-adv-x="1062" 
d="M88 -475l299 488l-242 1048h101l213 -928l565 928h100l-936 -1536h-100zM924 1196l-203 287l-313 -287l-47 47l340 311h68l217 -311z" />
    <glyph glyph-name="Ydieresis" unicode="&#x178;" horiz-adv-x="1304" 
d="M346 1434l336 -752l629 752h107l-707 -846l-114 -588h-94l113 588l-377 846h107zM631 1704q6 32 32.5 54.5t59.5 22.5t50 -22t11 -55q-6 -32 -32.5 -54.5t-59.5 -22.5t-50 22t-11 55zM977 1704q6 32 32.5 54.5t59.5 22.5t50 -22t11 -55q-6 -32 -32.5 -54.5t-59.5 -22.5
t-50 22t-11 55z" />
    <glyph glyph-name="Zacute" unicode="&#x179;" horiz-adv-x="1205" 
d="M39 83l1078 1268h-801l17 83h910l-16 -83l-1079 -1268h852l-15 -83h-961zM698 1577l352 335l51 -49l-353 -335z" />
    <glyph glyph-name="zacute" unicode="&#x17a;" horiz-adv-x="1015" 
d="M3 0l15 82l841 897h-640l17 82h752l-16 -82l-840 -897h686l-15 -82h-800zM530 1245l352 335l51 -49l-353 -335z" />
    <glyph glyph-name="Zdotaccent" unicode="&#x17b;" horiz-adv-x="1205" 
d="M39 83l1078 1268h-801l17 83h910l-16 -83l-1079 -1268h852l-15 -83h-961zM759 1704q6 32 33 54.5t59 22.5t49.5 -22.5t11.5 -54.5t-33 -54.5t-59 -22.5t-49.5 22.5t-11.5 54.5z" />
    <glyph glyph-name="zdotaccent" unicode="&#x17c;" horiz-adv-x="1015" 
d="M3 0l15 82l841 897h-640l17 82h752l-16 -82l-840 -897h686l-15 -82h-800zM599 1372q6 32 33 54.5t59 22.5t50 -22.5t12 -54.5t-33.5 -54.5t-59.5 -22.5t-49.5 22.5t-11.5 54.5z" />
    <glyph glyph-name="Zcaron" unicode="&#x17d;" horiz-adv-x="1205" 
d="M39 83l1078 1268h-801l17 83h910l-16 -83l-1079 -1268h852l-15 -83h-961zM823 1623l314 287l45 -47l-339 -312h-68l-218 312l64 47z" />
    <glyph glyph-name="zcaron" unicode="&#x17e;" horiz-adv-x="1015" 
d="M3 0l15 82l841 897h-640l17 82h752l-16 -82l-840 -897h686l-15 -82h-800zM653 1271l314 287l45 -48l-339 -311h-68l-218 311l64 48z" />
    <glyph glyph-name="longs" unicode="&#x17f;" horiz-adv-x="749" 
d="M887 1487l-17 -81q-35 7 -93 7q-249 0 -304 -279l-220 -1134h-92l189 979h-214l17 82h214l14 75q34 174 136.5 266.5t269.5 92.5q50 0 100 -8z" />
    <glyph glyph-name="uni0191" unicode="&#x191;" horiz-adv-x="1051" 
d="M63 -114l302 1548h775l-17 -83h-681l-113 -587h623l-16 -83h-624l-154 -797q-34 -173 -137 -266t-268 -93q-45 0 -97 8l15 81q36 -7 92 -7q245 0 300 279z" />
    <glyph glyph-name="florin" unicode="&#x192;" horiz-adv-x="749" 
d="M138 -114l212 1093h-214l17 82h214l14 75q34 174 136.5 266.5t269.5 92.5q50 0 100 -8l-17 -81q-35 7 -93 7q-249 0 -304 -279l-14 -73h345l-17 -82h-345l-212 -1095q-34 -174 -136.5 -266.5t-269.5 -92.5q-48 0 -98 8l15 81q35 -7 94 -7q248 0 303 279z" />
    <glyph glyph-name="Aringacute" unicode="&#x1fa;" horiz-adv-x="1366" 
d="M997 501l-159 823l-480 -823h639zM900 1645q-53 0 -93.5 -32t-49.5 -78q-9 -47 19 -78.5t81 -31.5t93.5 31.5t49.5 78.5q9 46 -19 78t-81 32zM912 1708q82 0 127.5 -49.5t31.5 -123.5q-10 -56 -51 -99t-99 -61l277 -1375h-105l-81 418h-701l-242 -418h-106l812 1375
q-51 18 -75 61t-14 99q14 74 79 123.5t147 49.5zM856 1724l-48 49l260 247l50 -48z" />
    <glyph glyph-name="aringacute" unicode="&#x1fb;" horiz-adv-x="1296" 
d="M708 1085q147 0 248 -70.5t144 -191.5l46 238h92l-206 -1061h-92l46 238q-91 -121 -219 -192t-275 -71q-152 0 -256.5 76.5t-143 202.5t-9.5 276t116.5 276t222 202.5t286.5 76.5zM518 58q191 0 338.5 138t185.5 334q25 127 -7 234t-119.5 172.5t-214.5 65.5
q-191 0 -339 -138t-186 -334q-25 -127 7.5 -234t120 -172.5t214.5 -65.5zM604 1362q16 82 85.5 138t155.5 56t133.5 -56t31.5 -138q-16 -83 -85.5 -139.5t-155.5 -56.5t-133.5 56.5t-31.5 139.5zM675 1362q-10 -56 20.5 -94t85.5 -38t101.5 38t56.5 94t-20.5 93.5
t-85.5 37.5t-101.5 -37.5t-56.5 -93.5zM808 1597l-48 49l260 247l50 -48z" />
    <glyph glyph-name="AEacute" unicode="&#x1fc;" horiz-adv-x="1883" 
d="M62 0h-109l1128 1434h829l-17 -83h-688l-114 -589h631l-16 -83h-632l-116 -596h707l-15 -83h-801l81 418h-540zM454 501h492l161 831zM1081 1577l352 335l51 -49l-354 -335z" />
    <glyph glyph-name="aeacute" unicode="&#x1fd;" horiz-adv-x="2052" 
d="M1133 507q-20 -122 18 -225t130.5 -164.5t221.5 -61.5q110 0 215.5 48t192.5 135l44 -51q-201 -213 -466 -213q-151 0 -257.5 68.5t-154.5 193.5l-45 -237h-92l46 238q-91 -121 -219 -192t-275 -71q-152 0 -256.5 76.5t-143 202.5t-9.5 276t116.5 276t222 202.5
t286.5 76.5q147 0 248 -70.5t144 -191.5l46 238h92l-46 -238q95 125 225 193.5t275 68.5q149 0 254.5 -70.5t148 -190.5t14.5 -264q-4 -22 -15 -53h-961zM518 58q191 0 338.5 138t185.5 334q25 127 -7 234t-119.5 172.5t-214.5 65.5q-191 0 -339 -138t-186 -334
q-25 -127 7.5 -234t120 -172.5t214.5 -65.5zM1675 1005q-174 0 -323.5 -122.5t-200.5 -296.5h868q23 182 -73.5 300.5t-270.5 118.5zM1058 1245l351 335l51 -49l-353 -335z" />
    <glyph glyph-name="Oslashacute" unicode="&#x1fe;" horiz-adv-x="1640" 
d="M1000 1458q235 0 395 -129l183 188l54 -47l-185 -188q99 -103 137 -249.5t6 -315.5q-30 -154 -114 -291.5t-200.5 -236.5t-263.5 -156.5t-299 -57.5q-246 0 -410 142l-199 -203l-53 46l202 206q-92 102 -126.5 244.5t-2.5 306.5q40 206 169 376t316.5 267.5t390.5 97.5z
M729 59q176 0 340 88t277.5 239t148.5 331q28 145 -4 273t-115 220l-1004 -1023q142 -128 357 -128zM219 717q-27 -139 1.5 -262.5t103.5 -215.5l1001 1019q-140 116 -341 116q-176 0 -339.5 -88t-277 -238.5t-148.5 -330.5zM942 1577l351 335l52 -49l-354 -335z" />
    <glyph glyph-name="oslashacute" unicode="&#x1ff;" horiz-adv-x="1271" 
d="M744 1085q180 0 299 -100l164 163l46 -50l-159 -160q67 -77 92.5 -183.5t2.5 -224.5q-22 -111 -83.5 -213t-149 -177.5t-199.5 -120t-229 -44.5q-178 0 -301 101l-162 -162l-46 50l159 159q-67 77 -92.5 183t-2.5 224q22 111 83.5 213t149 177.5t199.5 120t229 44.5z
M545 58q96 0 189.5 38.5t166.5 102.5t125 150.5t70 180.5q19 96 -0.5 184t-73.5 154l-726 -724q100 -86 249 -86zM176 530q-18 -96 1 -183.5t72 -153.5l726 723q-99 86 -247 86q-194 0 -354.5 -140t-197.5 -332zM683 1245l351 335l51 -49l-353 -335z" />
    <glyph glyph-name="Scommaaccent" unicode="&#x218;" horiz-adv-x="1179" 
d="M69 215l63 55q62 -94 158 -152.5t213 -58.5q170 0 296.5 84t152.5 216q25 127 -58 213.5t-272 126.5q-204 44 -299 144.5t-67 246.5q32 160 172 264t330 104q179 0 285.5 -90t112.5 -270h-95q-7 133 -92.5 204.5t-219.5 71.5q-153 0 -263 -78.5t-133 -198.5
q-23 -118 62 -198.5t259 -119.5q436 -99 374 -417q-33 -168 -187.5 -277.5t-367.5 -109.5q-274 0 -424 240zM318 -501l-61 39l229 350l71 -39z" />
    <glyph glyph-name="scommaaccent" unicode="&#x219;" horiz-adv-x="934" 
d="M19 161l60 51q60 -81 129.5 -118.5t172.5 -37.5q130 0 220 60t109 156q18 89 -49.5 151t-204.5 89q-163 32 -235.5 107.5t-51.5 183.5q23 120 132 201t262 81q150 0 231.5 -75t83.5 -200h-92q-5 84 -65.5 139.5t-168.5 55.5q-113 0 -193.5 -58.5t-97.5 -144.5
q-14 -74 48 -130.5t191 -82.5q169 -33 247.5 -113.5t54.5 -204.5q-25 -130 -141.5 -213t-290.5 -83q-233 0 -351 186zM216 -501l-61 39l229 350l71 -39z" />
    <glyph glyph-name="uni021A" unicode="&#x21a;" horiz-adv-x="1101" 
d="M401 0l263 1351h-437l17 83h966l-16 -83h-436l-262 -1351h-95zM300 -501l-61 39l229 350l71 -39z" />
    <glyph glyph-name="uni021B" unicode="&#x21b;" horiz-adv-x="763" 
d="M451 979l-129 -667q-51 -255 193 -255q55 0 103 8l-14 -71q-45 -19 -109 -19q-331 0 -266 336l129 668h-232l16 82h233l55 284l96 23l-59 -307h333l-17 -82h-332zM131 -501l-61 39l229 350l71 -39z" />
    <glyph glyph-name="dotlessj" unicode="&#x237;" horiz-adv-x="523" 
d="M74 -200l244 1261h93l-245 -1260q-27 -136 -107.5 -206t-196.5 -70q-46 0 -75 4l15 81q28 -3 69 -3q76 0 130 48.5t73 144.5z" />
    <glyph glyph-name="apostrophe" unicode="&#x2bc;" horiz-adv-x="835" 
d="M510 1403q5 27 32.5 49t59.5 22q35 0 53 -25t10 -65q-14 -72 -75 -150.5t-139 -112.5l-29 39q67 42 90.5 95t0.5 109q-7 20 -3 39z" />
    <glyph glyph-name="circumflex" unicode="&#x2c6;" horiz-adv-x="835" 
d="M793 1128l-203 287l-314 -287l-45 48l339 311h68l218 -311z" />
    <glyph glyph-name="caron" unicode="&#x2c7;" horiz-adv-x="835" 
d="M553 1224l313 286l45 -47l-339 -311h-67l-218 311l63 47z" />
    <glyph glyph-name="uni02C9" unicode="&#x2c9;" horiz-adv-x="835" 
d="M288 1283l14 76h553l-14 -76h-553z" />
    <glyph glyph-name="breve" unicode="&#x2d8;" horiz-adv-x="835" 
d="M541 1160q-130 0 -199.5 87t-49.5 219h86q-15 -101 32 -166.5t145 -65.5t170 65.5t97 166.5h86q-32 -132 -134.5 -219t-232.5 -87z" />
    <glyph glyph-name="dotaccent" unicode="&#x2d9;" horiz-adv-x="835" 
d="M496 1323q6 32 32.5 54.5t58.5 22.5t50 -22.5t12 -54.5q-7 -32 -33.5 -54.5t-58.5 -22.5t-50 22.5t-11 54.5z" />
    <glyph glyph-name="ring" unicode="&#x2da;" horiz-adv-x="835" 
d="M438 1316q-10 -56 20.5 -94t86.5 -38t101.5 38t55.5 94t-20 94t-86 38t-102 -38t-56 -94zM368 1316q16 83 85 139t155 56t133.5 -56t31.5 -139t-85.5 -139.5t-155.5 -56.5t-133 56.5t-31 139.5z" />
    <glyph glyph-name="ogonek" unicode="&#x2db;" horiz-adv-x="835" 
d="M295 0h83q-120 -83 -179.5 -140t-71.5 -121q-11 -61 20.5 -101t89.5 -40q61 0 106 38t68 110h75q-74 -215 -273 -215q-87 0 -134.5 58t-30.5 143q15 77 77.5 139t169.5 129z" />
    <glyph glyph-name="tilde" unicode="&#x2dc;" horiz-adv-x="835" 
d="M558 1266l-17 22q-21 27 -33 40.5t-32 25.5t-40 12q-74 0 -133 -148l-77 16q84 208 217 208q79 0 143 -85l16 -22q28 -36 51.5 -55t51.5 -19q74 0 133 148l76 -16q-84 -208 -218 -208q-76 0 -138 81z" />
    <glyph glyph-name="hungarumlaut" unicode="&#x2dd;" horiz-adv-x="835" 
d="M281 1186l351 335l51 -50l-354 -334zM577 1186l351 335l51 -50l-354 -334z" />
    <glyph glyph-name="gravecomb" unicode="&#x300;" horiz-adv-x="0" 
d="M-399 1520l221 -335l-68 -47l-223 335z" />
    <glyph glyph-name="acutecomb" unicode="&#x301;" horiz-adv-x="0" 
d="M-398 1186l350 335l51 -50l-353 -334z" />
    <glyph glyph-name="uni0302" unicode="&#x302;" horiz-adv-x="0" 
d="M-43 1128l-202 287l-313 -287l-45 48l339 311h67l217 -311z" />
    <glyph glyph-name="tildecomb" unicode="&#x303;" horiz-adv-x="0" 
d="M-276 1266l-18 22q-22 28 -33.5 40.5t-31 25t-39.5 12.5q-74 0 -133 -148l-77 16q84 208 217 208q78 0 142 -85l17 -22q28 -36 51 -55t51 -19q73 0 132 148l77 -16q-84 -208 -217 -208q-76 0 -138 81z" />
    <glyph glyph-name="uni0304" unicode="&#x304;" horiz-adv-x="0" 
d="M-547 1285l16 76h551l-15 -76h-552z" />
    <glyph glyph-name="uni0306" unicode="&#x306;" horiz-adv-x="0" 
d="M-293 1160q-130 0 -199.5 87t-49.5 219h86q-15 -101 32 -166.5t145 -65.5t170 65.5t97 166.5h86q-32 -132 -134.5 -219t-232.5 -87z" />
    <glyph glyph-name="uni0307" unicode="&#x307;" horiz-adv-x="0" 
d="M-339 1323q6 32 32.5 54.5t58.5 22.5t50.5 -22.5t12.5 -54.5q-7 -32 -34 -54.5t-59 -22.5t-50 22.5t-11 54.5z" />
    <glyph glyph-name="uni0308" unicode="&#x308;" horiz-adv-x="0" 
d="M-511 1323q6 32 32 54.5t59 22.5t51 -22.5t12 -54.5q-7 -32 -33.5 -54.5t-59.5 -22.5t-50.5 22.5t-10.5 54.5zM-165 1323q6 32 32 54.5t58 22.5q33 0 51 -22.5t12 -54.5q-7 -32 -33 -54.5t-58 -22.5q-33 0 -51 22.5t-11 54.5z" />
    <glyph glyph-name="uni030A" unicode="&#x30a;" horiz-adv-x="0" 
d="M-396 1316q-10 -56 20 -94t86 -38t102 38t56 94t-20.5 94t-86.5 38t-101.5 -38t-55.5 -94zM-467 1316q16 83 85.5 139t155.5 56t133 -56t31 -139q-17 -83 -86 -139.5t-154 -56.5q-86 0 -133.5 56.5t-31.5 139.5z" />
    <glyph glyph-name="uni030C" unicode="&#x30c;" horiz-adv-x="0" 
d="M-282 1224l313 286l45 -47l-338 -311h-68l-218 311l64 47z" />
    <glyph glyph-name="uni0327" unicode="&#x327;" horiz-adv-x="0" 
d="M-586 -199q-27 0 -48 -3l-16 15l36 187h74l-26 -140q103 -4 147.5 -60t29.5 -136q-17 -84 -94 -140t-177 -56q-84 0 -137.5 46.5t-55.5 141.5h78q-1 -61 33.5 -92t91.5 -31q68 0 120 38t63 94q10 55 -26 95.5t-93 40.5z" />
    <glyph glyph-name="tonos" unicode="&#x384;" horiz-adv-x="835" 
d="M423 1133l245 380l71 -37l-253 -381z" />
    <glyph glyph-name="dieresistonos" unicode="&#x385;" horiz-adv-x="835" 
d="M292 1167q6 32 32.5 54.5t59.5 22.5t50 -22t11 -55q-6 -32 -32 -54t-59 -22t-50.5 22t-11.5 54zM638 1167q6 32 32.5 54.5t59.5 22.5t50.5 -22.5t11.5 -54.5t-32.5 -54t-59.5 -22t-50.5 22t-11.5 54zM553 1300l-47 46l281 268l50 -45z" />
    <glyph glyph-name="Alphatonos" unicode="&#x386;" horiz-adv-x="1378" 
d="M1210 0h-105l-81 418h-700l-243 -418h-106l846 1434h101zM1010 501l-160 823l-479 -823h639zM185 1071l244 381l72 -38l-252 -381z" />
    <glyph glyph-name="anoteleia" unicode="&#x387;" horiz-adv-x="595" 
d="M229 595q7 34 35 57.5t63 23.5q34 0 52.5 -23t11.5 -58q-6 -34 -33.5 -57.5t-62.5 -23.5q-34 0 -53 23t-13 58z" />
    <glyph glyph-name="Epsilontonos" unicode="&#x388;" horiz-adv-x="1455" 
d="M408 0l278 1434h796l-17 -83h-701l-115 -589h644l-16 -83h-644l-116 -596h720l-15 -83h-814zM185 1071l244 381l72 -38l-252 -381z" />
    <glyph glyph-name="Etatonos" unicode="&#x389;" horiz-adv-x="1720" 
d="M408 0l278 1434h94l-131 -672h834l131 672h94l-278 -1434h-95l131 679h-833l-131 -679h-94zM185 1071l244 381l72 -38l-252 -381z" />
    <glyph glyph-name="Iotatonos" unicode="&#x38a;" horiz-adv-x="842" 
d="M686 1434h94l-278 -1434h-94zM185 1071l244 381l72 -38l-252 -381z" />
    <glyph glyph-name="Omicrontonos" unicode="&#x38c;" horiz-adv-x="1853" 
d="M942 59q176 0 340 88t277.5 239t148.5 331q35 179 -20 330t-185 239t-306 88t-339.5 -88t-277 -238.5t-148.5 -330.5q-29 -137 -0.5 -256.5t94.5 -209t175 -141t241 -51.5zM1213 1458q122 0 227.5 -37t181.5 -103.5t127 -159t63.5 -204t-9.5 -237.5q-30 -154 -114 -291.5
t-200.5 -236.5t-263.5 -156.5t-299 -57.5t-277.5 57t-202.5 157t-109.5 235.5t0.5 292.5q40 206 169 376t316.5 267.5t390.5 97.5zM185 1071l244 381l72 -38l-252 -381z" />
    <glyph glyph-name="Upsilontonos" unicode="&#x38e;" horiz-adv-x="1692" 
d="M734 1434l336 -752l629 752h107l-707 -846l-114 -588h-94l114 588l-378 846h107zM185 1071l244 381l72 -38l-252 -381z" />
    <glyph glyph-name="Omegatonos" unicode="&#x38f;" horiz-adv-x="1809" 
d="M185 1071l244 381l72 -38l-252 -381zM1658 745q18 88 11.5 168.5t-31 150.5t-69.5 127t-102.5 97.5t-132 63t-157.5 22.5q-124 0 -245.5 -49.5t-218 -133.5t-166.5 -200.5t-95 -245.5q-83 -427 355 -663l-15 -82h-564l16 84h425q-204 119 -278 291t-34 376
q38 194 162 356.5t303 256.5t371 94t334.5 -94t203.5 -256.5t23 -356.5q-40 -204 -180 -376t-391 -291h425l-16 -84h-563l15 82q532 237 614 663z" />
    <glyph glyph-name="iotadieresistonos" unicode="&#x390;" horiz-adv-x="559" 
d="M154 213l164 848h93l-162 -831q-14 -77 13.5 -112.5t97.5 -35.5h63l-15 -80q-40 -2 -75 -2q-221 0 -179 213zM163 1305q6 32 32.5 54t59.5 22t50 -21.5t11 -54.5q-6 -32 -32 -54.5t-59 -22.5t-50.5 22.5t-11.5 54.5zM509 1305q6 32 32.5 54t59.5 22t50.5 -22t11.5 -54
t-32.5 -54.5t-59.5 -22.5t-50.5 22.5t-11.5 54.5zM424 1438l-47 45l281 268l50 -45z" />
    <glyph glyph-name="Alpha" unicode="&#x391;" horiz-adv-x="1366" 
d="M1198 0h-105l-81 418h-701l-242 -418h-106l846 1434h100zM997 501l-159 823l-480 -823h639z" />
    <glyph glyph-name="Beta" unicode="&#x392;" horiz-adv-x="1242" 
d="M583 0h-497l279 1434h462q181 0 269.5 -102t57.5 -263q-23 -122 -108.5 -207t-197.5 -111q135 -20 210.5 -115.5t46.5 -244.5q-34 -172 -179 -281.5t-343 -109.5zM1059 1066q25 127 -46 206t-209 79h-362l-110 -568h361q138 0 239.5 78t126.5 205zM1010 393
q27 137 -56.5 223t-243.5 86h-394l-120 -619h393q161 0 277.5 85.5t143.5 224.5z" />
    <glyph glyph-name="Gamma" unicode="&#x393;" horiz-adv-x="1048" 
d="M86 0l279 1434h797l-16 -83h-704l-262 -1351h-94z" />
    <glyph glyph-name="uni0394" unicode="&#x394;" horiz-adv-x="1366" 
d="M909 1434l289 -1434h-1235l846 1434h100zM838 1324l-724 -1241h964z" />
    <glyph glyph-name="Epsilon" unicode="&#x395;" horiz-adv-x="1133" 
d="M86 0l279 1434h795l-16 -83h-702l-114 -589h644l-17 -83h-644l-115 -596h719l-15 -83h-814z" />
    <glyph glyph-name="Zeta" unicode="&#x396;" horiz-adv-x="1205" 
d="M39 83l1078 1268h-801l17 83h910l-16 -83l-1079 -1268h852l-15 -83h-961z" />
    <glyph glyph-name="Eta" unicode="&#x397;" horiz-adv-x="1398" 
d="M86 0l279 1434h94l-131 -672h833l131 672h94l-278 -1434h-94l131 679h-834l-131 -679h-94z" />
    <glyph glyph-name="Theta" unicode="&#x398;" horiz-adv-x="1640" 
d="M554 675l15 83h590l-15 -83h-590zM729 59q176 0 340 88t277.5 239t148.5 331q35 179 -20 330t-185 239t-306 88t-339.5 -88t-277 -238.5t-148.5 -330.5q-29 -137 -0.5 -256.5t94.5 -209t175 -141t241 -51.5zM1000 1458q122 0 227.5 -37t181.5 -103.5t127 -159t63.5 -204
t-9.5 -237.5q-30 -154 -114 -291.5t-200.5 -236.5t-263.5 -156.5t-299 -57.5t-277.5 57t-202.5 157t-109.5 235.5t0.5 292.5q40 206 169 376t316.5 267.5t390.5 97.5z" />
    <glyph glyph-name="Iota" unicode="&#x399;" horiz-adv-x="571" 
d="M415 1434h94l-279 -1434h-94z" />
    <glyph glyph-name="Kappa" unicode="&#x39a;" horiz-adv-x="1200" 
d="M1155 1434h94q-117 -596 -516 -722l337 -712h-114l-328 687q-59 -8 -118 -8h-199l-131 -679h-94l279 1434h94l-131 -672h180q268 0 425.5 173t221.5 499z" />
    <glyph glyph-name="Lambda" unicode="&#x39b;" horiz-adv-x="1366" 
d="M1093 0l-256 1319l-768 -1319h-106l846 1434h100l289 -1434h-105z" />
    <glyph glyph-name="Mu" unicode="&#x39c;" horiz-adv-x="1710" 
d="M893 239h-66l-406 1010l-243 -1249h-92l279 1434h88l430 -1078l850 1078h88l-279 -1434h-92l243 1249z" />
    <glyph glyph-name="Nu" unicode="&#x39d;" horiz-adv-x="1414" 
d="M86 0l279 1434h89l609 -1268l247 1268h92l-279 -1434h-89l-610 1268l-246 -1268h-92z" />
    <glyph glyph-name="Xi" unicode="&#x39e;" horiz-adv-x="1188" 
d="M309 1351l17 83h889l-16 -83h-890zM29 0l15 83h927l-16 -83h-926zM998 676h-771l17 83h771z" />
    <glyph glyph-name="Omicron" unicode="&#x39f;" horiz-adv-x="1640" 
d="M729 59q176 0 340 88t277.5 239t148.5 331q35 179 -20 330t-185 239t-306 88t-339.5 -88t-277 -238.5t-148.5 -330.5q-29 -137 -0.5 -256.5t94.5 -209t175 -141t241 -51.5zM1000 1458q122 0 227.5 -37t181.5 -103.5t127 -159t63.5 -204t-9.5 -237.5q-30 -154 -114 -291.5
t-200.5 -236.5t-263.5 -156.5t-299 -57.5t-277.5 57t-202.5 157t-109.5 235.5t0.5 292.5q40 206 169 376t316.5 267.5t390.5 97.5z" />
    <glyph glyph-name="Pi" unicode="&#x3a0;" horiz-adv-x="1368" 
d="M1356 1434l-279 -1434h-94l262 1351h-803l-262 -1351h-94l279 1434h991z" />
    <glyph glyph-name="Rho" unicode="&#x3a1;" horiz-adv-x="1165" 
d="M606 582h-313l-113 -582h-94l279 1434h407q220 0 330.5 -116.5t73.5 -309.5t-193.5 -309.5t-376.5 -116.5zM1080 1008q30 156 -58.5 249.5t-267.5 93.5h-312l-133 -686h312q179 0 304 93.5t155 249.5z" />
    <glyph glyph-name="Sigma" unicode="&#x3a3;" horiz-adv-x="1161" 
d="M40 82l628 637l-381 633l16 82h906l-16 -83h-790l370 -612l-8 -42l-609 -614h790l-15 -83h-906z" />
    <glyph glyph-name="Tau" unicode="&#x3a4;" horiz-adv-x="1101" 
d="M401 0l263 1351h-437l17 83h966l-16 -83h-436l-262 -1351h-95z" />
    <glyph glyph-name="Upsilon" unicode="&#x3a5;" horiz-adv-x="1304" 
d="M346 1434l336 -752l629 752h107l-707 -846l-114 -588h-94l113 588l-377 846h107z" />
    <glyph glyph-name="Phi" unicode="&#x3a6;" horiz-adv-x="1507" 
d="M658 280l169 870q-145 0 -278.5 -58t-223 -158t-112.5 -219q-17 -89 8.5 -169.5t85 -138.5t151 -92.5t200.5 -34.5zM698 0h-94l38 197q-128 0 -235.5 40.5t-177.5 109.5t-101 165.5t-10 202.5q28 142 134.5 261t264 188t327.5 69l39 201h94l-39 -201q128 0 235.5 -40.5
t177.5 -110t100.5 -165.5t9.5 -202q-28 -142 -134 -261.5t-263 -188t-328 -68.5zM922 1150l-169 -870q145 0 278 58t222.5 158t112.5 219q35 181 -94 308t-350 127z" />
    <glyph glyph-name="Chi" unicode="&#x3a7;" horiz-adv-x="1263" 
d="M63 0h-108l658 729l-361 705h108l325 -632l570 632h109l-636 -705l376 -729h-109l-339 656z" />
    <glyph glyph-name="Psi" unicode="&#x3a8;" horiz-adv-x="1386" 
d="M916 1434l-194 -1001q177 15 320 145t180 321l104 535h94l-104 -537q-28 -147 -118.5 -269.5t-220 -196.5t-272.5 -85l-67 -346h-94l66 346q-213 17 -326 172.5t-70 378.5l104 537h95l-105 -535q-37 -192 55 -322t265 -144l194 1001h94z" />
    <glyph glyph-name="uni03A9" unicode="&#x3a9;" horiz-adv-x="1593" 
d="M1442 745q18 88 11.5 168.5t-31 150.5t-69.5 127t-102.5 97.5t-132 63t-157.5 22.5q-124 0 -245.5 -49.5t-218 -133.5t-166.5 -200.5t-95 -245.5q-83 -427 355 -663l-16 -82h-563l16 84h425q-204 119 -278 291t-34 376q38 194 162 356.5t303 256.5t371 94t334.5 -94
t203.5 -256.5t23 -356.5q-40 -204 -180 -376t-391 -291h425l-16 -84h-563l15 82q532 237 614 663z" />
    <glyph glyph-name="Iotadieresis" unicode="&#x3aa;" horiz-adv-x="571" 
d="M415 1434h94l-279 -1434h-94zM264 1704q6 32 32.5 54.5t59.5 22.5t50.5 -22.5t11.5 -54.5t-32.5 -54.5t-59.5 -22.5t-50.5 22.5t-11.5 54.5zM610 1704q6 32 32.5 54.5t59.5 22.5t50.5 -22.5t11.5 -54.5t-32.5 -54.5t-59.5 -22.5t-50.5 22.5t-11.5 54.5z" />
    <glyph glyph-name="Upsilondieresis" unicode="&#x3ab;" horiz-adv-x="1304" 
d="M346 1434l336 -752l629 752h107l-707 -846l-114 -588h-94l113 588l-377 846h107zM631 1704q6 32 32.5 54.5t59.5 22.5t50 -22t11 -55q-6 -32 -32.5 -54.5t-59.5 -22.5t-50 22t-11 55zM977 1704q6 32 32.5 54.5t59.5 22.5t50 -22t11 -55q-6 -32 -32.5 -54.5t-59.5 -22.5
t-50 22t-11 55z" />
    <glyph glyph-name="alphatonos" unicode="&#x3ac;" horiz-adv-x="1396" 
d="M708 1085q147 0 248 -70.5t144 -191.5l46 238h92l-162 -831q-14 -76 13.5 -112t98.5 -36h62l-15 -80q-40 -2 -75 -2q-221 0 -179 213l5 25q-91 -121 -219 -192t-275 -71q-152 0 -256.5 76.5t-143 202.5t-9.5 276t116.5 276t222 202.5t286.5 76.5zM518 58q191 0 338.5 138
t185.5 334q25 127 -7 234t-119.5 172.5t-214.5 65.5q-191 0 -339 -138t-186 -334q-25 -127 7.5 -234t120 -172.5t214.5 -65.5zM665 1245l351 335l51 -49l-353 -335z" />
    <glyph glyph-name="epsilontonos" unicode="&#x3ad;" horiz-adv-x="961" 
d="M401 57q200 0 358 156l46 -51q-90 -96 -190.5 -141.5t-228.5 -45.5q-173 0 -274 91t-75 224q20 103 111.5 179.5t201.5 101.5q-96 29 -140.5 94t-29.5 146q23 116 143 195t273 79q91 0 165.5 -31t120.5 -95.5t42 -151.5h-93q-3 90 -73.5 144t-177.5 54q-113 0 -202.5 -57
t-105.5 -141q-17 -84 50 -141t181 -57h157l-15 -79h-151q-134 0 -239.5 -68.5t-125.5 -167.5t59 -168t213 -69zM446 1245l352 335l51 -49l-353 -335z" />
    <glyph glyph-name="etatonos" unicode="&#x3ae;" horiz-adv-x="1211" 
d="M768 1085q169 0 265.5 -119.5t62.5 -294.5l-224 -1146h-92l222 1140q28 143 -48.5 240t-222.5 97q-155 0 -291.5 -109.5t-165.5 -258.5l-122 -634h-93l206 1061h92l-39 -201q79 103 199 164t251 61zM571 1245l352 335l51 -49l-353 -335z" />
    <glyph glyph-name="iotatonos" unicode="&#x3af;" horiz-adv-x="559" 
d="M154 213l164 848h93l-162 -831q-14 -77 13.5 -112.5t97.5 -35.5h63l-15 -80q-40 -2 -75 -2q-221 0 -179 213zM246 1245l351 335l51 -49l-353 -335z" />
    <glyph glyph-name="upsilondieresistonos" unicode="&#x3b0;" horiz-adv-x="1155" 
d="M470 -25q-183 0 -284 125.5t-66 308.5l127 652h92l-126 -649q-29 -150 50 -252t223 -102t263 102t148 252l126 649h92l-127 -652q-35 -183 -185 -308.5t-333 -125.5zM478 1305q6 32 32.5 54t59.5 22t50.5 -22t11.5 -54t-32 -54.5t-59 -22.5t-51 22.5t-12 54.5zM824 1305
q6 32 32.5 54t59.5 22t50.5 -22t11.5 -54t-32 -54.5t-59 -22.5t-51 22.5t-12 54.5zM739 1438l-47 45l282 268l49 -45z" />
    <glyph glyph-name="alpha" unicode="&#x3b1;" horiz-adv-x="1396" 
d="M708 1085q147 0 248 -70.5t144 -191.5l46 238h92l-162 -831q-14 -76 13.5 -112t98.5 -36h62l-15 -80q-40 -2 -75 -2q-221 0 -179 213l5 25q-91 -121 -219 -192t-275 -71q-152 0 -256.5 76.5t-143 202.5t-9.5 276t116.5 276t222 202.5t286.5 76.5zM518 58q191 0 338.5 138
t185.5 334q25 127 -7 234t-119.5 172.5t-214.5 65.5q-191 0 -339 -138t-186 -334q-25 -127 7.5 -234t120 -172.5t214.5 -65.5z" />
    <glyph glyph-name="beta" unicode="&#x3b2;" horiz-adv-x="1221" 
d="M291 69l59 71q91 -83 231 -83q160 0 275 104t146 263q30 154 -62.5 260.5t-256.5 106.5q-63 0 -122 -19l-30 51l397 528h-504l-349 -1797h-94l365 1880h706l-17 -83l-379 -500q19 3 52 3q202 0 312.5 -124t74.5 -312q-18 -91 -63 -171t-112 -140.5t-158.5 -96
t-194.5 -35.5q-168 0 -276 94z" />
    <glyph glyph-name="gamma" unicode="&#x3b3;" horiz-adv-x="1062" 
d="M290 -475l95 486l-240 1050h101l209 -929l569 929h100l-647 -1050l-95 -486h-92z" />
    <glyph glyph-name="delta" unicode="&#x3b4;" horiz-adv-x="1128" 
d="M62 455q38 198 204 335t364 137q62 0 122 -21l-380 448l16 80h713l-17 -83h-589l460 -552q56 -68 78 -157t3 -187q-40 -202 -209.5 -341t-371.5 -139q-131 0 -230.5 63t-144 173.5t-18.5 243.5zM156 455q-32 -167 59 -282.5t256 -115.5t302.5 116t169.5 282t-60 281.5
t-257 115.5t-301.5 -115.5t-168.5 -281.5z" />
    <glyph glyph-name="epsilon" unicode="&#x3b5;" horiz-adv-x="961" 
d="M401 57q200 0 358 156l46 -51q-90 -96 -190.5 -141.5t-228.5 -45.5q-173 0 -274 91t-75 224q20 103 111.5 179.5t201.5 101.5q-96 29 -140.5 94t-29.5 146q23 116 143 195t273 79q91 0 165.5 -31t120.5 -95.5t42 -151.5h-93q-3 90 -73.5 144t-177.5 54q-113 0 -202.5 -57
t-105.5 -141q-17 -84 50 -141t181 -57h157l-15 -79h-151q-134 0 -239.5 -68.5t-125.5 -167.5t59 -168t213 -69z" />
    <glyph glyph-name="zeta" unicode="&#x3b6;" horiz-adv-x="936" 
d="M55 384q19 96 83.5 184.5t175.5 195.5l599 587h-573l16 83h683l-16 -80l-646 -635q-100 -99 -157.5 -177t-73.5 -158q-36 -183 172 -280l212 -98q207 -96 178 -243q-22 -111 -137 -238h-96q117 123 138 229q19 104 -147 180l-208 97q-120 56 -173 145t-30 208z" />
    <glyph glyph-name="eta" unicode="&#x3b7;" horiz-adv-x="1211" 
d="M768 1085q169 0 265.5 -119.5t62.5 -294.5l-224 -1146h-92l222 1140q28 143 -48.5 240t-222.5 97q-155 0 -291.5 -109.5t-165.5 -258.5l-122 -634h-93l206 1061h92l-39 -201q79 103 199 164t251 61z" />
    <glyph glyph-name="theta" unicode="&#x3b8;" horiz-adv-x="1290" 
d="M121 717q40 203 145.5 373t253.5 269t305 99t267 -99t150.5 -269t0.5 -373t-146 -373t-254 -269.5t-305 -99.5t-266.5 99.5t-150 269.5t-0.5 373zM554 58q125 0 246 82.5t210.5 224t129.5 311.5h-932q-27 -170 8 -311.5t124 -224t214 -82.5zM810 1375
q-125 0 -246.5 -82.5t-211.5 -224t-129 -311.5h932q27 170 -7.5 311.5t-123.5 224t-214 82.5z" />
    <glyph glyph-name="iota" unicode="&#x3b9;" horiz-adv-x="559" 
d="M154 213l164 848h93l-162 -831q-14 -77 13.5 -112.5t97.5 -35.5h63l-15 -80q-40 -2 -75 -2q-221 0 -179 213z" />
    <glyph glyph-name="kappa" unicode="&#x3ba;" horiz-adv-x="1031" 
d="M930 1061h92q-41 -213 -147.5 -343t-268.5 -177l298 -541h-112l-288 520q-50 -6 -102 -6h-151l-99 -514h-93l206 1061h92l-91 -466h154q200 0 332 114.5t178 351.5z" />
    <glyph glyph-name="lambda" unicode="&#x3bb;" horiz-adv-x="1062" 
d="M585 1034l-104 461h101l337 -1495h-101l-208 914l-570 -914h-100z" />
    <glyph glyph-name="uni03BC" unicode="&#x3bc;" horiz-adv-x="1229" 
d="M463 -25q-94 0 -169.5 40t-118.5 111l-117 -601h-92l299 1536h92l-129 -665q-28 -143 49 -240.5t223 -97.5q101 0 199.5 50t168 135.5t88.5 183.5l123 634h92l-205 -1061h-93l39 201q-81 -104 -200 -165t-249 -61z" />
    <glyph glyph-name="nu" unicode="&#x3bd;" horiz-adv-x="1047" 
d="M1109 1061l-640 -1061h-95l-229 1061h101l198 -936l565 936h100z" />
    <glyph glyph-name="xi" unicode="&#x3be;" horiz-adv-x="947" 
d="M154 386q-21 -108 26.5 -192.5t166.5 -128.5l184 -71q226 -87 196 -234q-21 -107 -149 -235h-99q137 128 155 226q11 57 -30 97t-127 73l-182 69q-142 53 -201 159t-34 235q27 137 136 246t256 153q-104 37 -156.5 124.5t-30.5 200.5q29 147 160 248.5t293 101.5
q119 0 208 -63.5t92 -177.5h-92q-7 72 -71 117t-153 45q-124 0 -224 -80t-123 -198q-23 -117 46.5 -197.5t193.5 -80.5h201l-16 -79h-179q-159 0 -288.5 -103.5t-158.5 -254.5z" />
    <glyph glyph-name="omicron" unicode="&#x3bf;" horiz-adv-x="1271" 
d="M545 58q96 0 189.5 38.5t166.5 102.5t125 150.5t70 180.5q24 126 -14.5 234t-132 173t-221.5 65q-194 0 -354.5 -140t-197.5 -332q-24 -125 14.5 -233.5t132.5 -173.5t222 -65zM744 1085q155 0 268 -76t159.5 -203t17.5 -276q-22 -111 -83.5 -213t-149 -177.5
t-199.5 -120t-229 -44.5q-155 0 -268 76t-159.5 203t-17.5 276q22 111 83.5 213t149 177.5t199.5 120t229 44.5z" />
    <glyph glyph-name="pi" unicode="&#x3c0;" horiz-adv-x="1148" 
d="M422 978l-190 -978h-92l190 978h-192l17 83h1046l-16 -83h-192l-189 -978h-92l189 978h-479z" />
    <glyph glyph-name="rho" unicode="&#x3c1;" horiz-adv-x="1292" 
d="M234 530l-17 -92q-2 -173 101.5 -276.5t261.5 -103.5q187 0 342.5 137t193.5 335t-62.5 335t-285.5 137q-122 0 -236 -62.5t-193.5 -171t-104.5 -238.5zM573 -25q-150 0 -252 78t-140 201l-142 -729h-92l195 1005q30 152 124.5 279.5t232 201.5t285.5 74t256.5 -74
t153.5 -201t15 -280q-29 -151 -123 -278.5t-230.5 -202t-282.5 -74.5z" />
    <glyph glyph-name="sigma1" unicode="&#x3c2;" horiz-adv-x="1091" 
d="M83 530q22 111 83.5 213t149 177.5t199.5 120t229 44.5q223 0 351 -149l-63 -75q-114 141 -304 141q-194 0 -354.5 -140t-197.5 -332q-29 -151 33.5 -260t204.5 -170l235 -100q101 -43 144 -100t28 -137q-23 -115 -149 -238h-100q136 127 156 230q11 58 -24 97.5
t-117 75.5l-230 99q-161 69 -234.5 197.5t-39.5 305.5z" />
    <glyph glyph-name="sigma" unicode="&#x3c3;" horiz-adv-x="1304" 
d="M727 1061h630l-17 -83h-378q119 -63 174 -188t25 -277q-29 -147 -124.5 -271t-234 -195.5t-286.5 -71.5t-258.5 72t-158 197t-18.5 274t125 274t234.5 197t286.5 72zM174 518q-25 -127 14 -232.5t130 -166.5t214 -61q188 0 343.5 133.5t193.5 326.5q24 126 -14.5 232
t-129.5 167t-214 61q-187 0 -343.5 -134t-193.5 -326z" />
    <glyph glyph-name="tau" unicode="&#x3c4;" horiz-adv-x="980" 
d="M378 245l142 733h-383l17 83h880l-16 -83h-406l-142 -733q-32 -164 119 -164h67l-15 -80q-40 -2 -76 -2q-121 0 -166.5 59.5t-20.5 186.5z" />
    <glyph glyph-name="upsilon" unicode="&#x3c5;" horiz-adv-x="1155" 
d="M470 -25q-183 0 -284 125.5t-66 308.5l127 652h92l-126 -649q-29 -150 50 -252t223 -102t263 102t148 252l126 649h92l-127 -652q-35 -183 -185 -308.5t-333 -125.5z" />
    <glyph glyph-name="phi" unicode="&#x3c6;" horiz-adv-x="1392" 
d="M362 953l54 -59q-92 -69 -155.5 -163.5t-84.5 -200.5q-37 -194 73.5 -330t309.5 -141l200 1026h78q161 0 280 -73.5t171 -201t22 -280.5q-29 -151 -128 -277.5t-244 -200.5t-303 -77l-88 -450h-92l88 450q-239 5 -371.5 165t-88.5 390q25 127 99 237t180 186zM1217 530
q37 193 -73.5 329t-309.5 141l-183 -941q132 3 253 66t204.5 170.5t108.5 234.5z" />
    <glyph glyph-name="chi" unicode="&#x3c7;" horiz-adv-x="1052" 
d="M1105 1061l-570 -751l291 -785h-102l-258 695l-528 -695h-102l596 785l-277 751h102l245 -660l500 660h103z" />
    <glyph glyph-name="psi" unicode="&#x3c8;" horiz-adv-x="1389" 
d="M634 -22l-88 -453h-93l88 453q-139 10 -240.5 83.5t-144.5 194.5t-15 264l106 541h93l-104 -538q-36 -183 56.5 -314.5t264.5 -146.5l195 999h93l-195 -999q179 15 322.5 146.5t179.5 314.5l104 538h94l-106 -541q-42 -217 -217 -372t-393 -170z" />
    <glyph glyph-name="omega" unicode="&#x3c9;" horiz-adv-x="1599" 
d="M741 230q-68 -111 -167.5 -183t-205.5 -72q-108 0 -185 73.5t-102.5 194.5t0.5 277q51 261 288 541h94q-238 -283 -289 -541q-22 -133 -4.5 -235.5t76 -164.5t142.5 -62q106 0 210.5 105.5t130.5 240.5l85 434h92l-85 -434q-26 -135 38 -240.5t171 -105.5
q127 0 240.5 133.5t150.5 328.5q50 253 -76 541h93q126 -283 76 -541q-29 -151 -104.5 -276t-179.5 -197t-212 -72q-107 0 -179 71.5t-98 183.5z" />
    <glyph glyph-name="iotadieresis" unicode="&#x3ca;" horiz-adv-x="559" 
d="M154 213l164 848h93l-162 -831q-14 -77 13.5 -112.5t97.5 -35.5h63l-15 -80q-40 -2 -75 -2q-221 0 -179 213zM176 1372q6 32 32.5 54.5t59.5 22.5t50.5 -22.5t11.5 -54.5t-32.5 -54.5t-59.5 -22.5t-50.5 22.5t-11.5 54.5zM522 1372q6 32 32.5 54.5t59.5 22.5t50.5 -22.5
t11.5 -54.5t-32.5 -54.5t-59.5 -22.5t-50.5 22.5t-11.5 54.5z" />
    <glyph glyph-name="upsilondieresis" unicode="&#x3cb;" horiz-adv-x="1155" 
d="M470 -25q-183 0 -284 125.5t-66 308.5l127 652h92l-126 -649q-29 -150 50 -252t223 -102t263 102t148 252l126 649h92l-127 -652q-35 -183 -185 -308.5t-333 -125.5zM492 1372q6 32 32.5 54.5t59.5 22.5t50 -22t11 -55q-6 -32 -32.5 -54.5t-59.5 -22.5t-50 22t-11 55z
M838 1372q6 32 32.5 54.5t59.5 22.5t50 -22t11 -55q-6 -32 -32.5 -54.5t-59.5 -22.5t-50 22t-11 55z" />
    <glyph glyph-name="omicrontonos" unicode="&#x3cc;" horiz-adv-x="1271" 
d="M545 58q96 0 189.5 38.5t166.5 102.5t125 150.5t70 180.5q24 126 -14.5 234t-132 173t-221.5 65q-194 0 -354.5 -140t-197.5 -332q-24 -125 14.5 -233.5t132.5 -173.5t222 -65zM744 1085q155 0 268 -76t159.5 -203t17.5 -276q-22 -111 -83.5 -213t-149 -177.5
t-199.5 -120t-229 -44.5q-155 0 -268 76t-159.5 203t-17.5 276q22 111 83.5 213t149 177.5t199.5 120t229 44.5zM683 1245l351 335l51 -49l-353 -335z" />
    <glyph glyph-name="upsilontonos" unicode="&#x3cd;" horiz-adv-x="1155" 
d="M470 -25q-183 0 -284 125.5t-66 308.5l127 652h92l-126 -649q-29 -150 50 -252t223 -102t263 102t148 252l126 649h92l-127 -652q-35 -183 -185 -308.5t-333 -125.5zM608 1245l351 335l52 -49l-354 -335z" />
    <glyph glyph-name="omegatonos" unicode="&#x3ce;" horiz-adv-x="1599" 
d="M741 230q-68 -111 -167.5 -183t-205.5 -72q-108 0 -185 73.5t-102.5 194.5t0.5 277q51 261 288 541h94q-238 -283 -289 -541q-22 -133 -4.5 -235.5t76 -164.5t142.5 -62q106 0 210.5 105.5t130.5 240.5l85 434h92l-85 -434q-26 -135 38 -240.5t171 -105.5
q127 0 240.5 133.5t150.5 328.5q50 253 -76 541h93q126 -283 76 -541q-29 -151 -104.5 -276t-179.5 -197t-212 -72q-107 0 -179 71.5t-98 183.5zM845 1245l351 335l51 -49l-353 -335z" />
    <glyph glyph-name="uni0400" unicode="&#x400;" horiz-adv-x="1133" 
d="M86 0l279 1434h795l-16 -83h-702l-114 -589h644l-17 -83h-644l-115 -596h719l-15 -83h-814zM663 1911l222 -335l-68 -47l-224 335z" />
    <glyph glyph-name="afii10023" unicode="&#x401;" horiz-adv-x="1133" 
d="M86 0l279 1434h795l-16 -83h-702l-114 -589h644l-17 -83h-644l-115 -596h719l-15 -83h-814zM557 1704q6 32 32.5 54.5t59.5 22.5t50.5 -22.5t11.5 -54.5t-33 -54.5t-60 -22.5t-50 22t-11 55zM903 1704q6 32 32.5 54.5t59.5 22.5t50.5 -22.5t11.5 -54.5t-32.5 -54.5
t-59.5 -22.5t-50.5 22.5t-11.5 54.5z" />
    <glyph glyph-name="afii10051" unicode="&#x402;" horiz-adv-x="1437" 
d="M757 1351l-124 -639q74 98 180.5 154t230.5 56q166 0 251.5 -118.5t51.5 -296.5l-23 -117q-32 -166 -170.5 -280t-309.5 -114q-53 0 -85 4l15 81q24 -3 78 -3q134 0 243 90.5t135 223.5l21 109q29 147 -35 242.5t-207 95.5q-152 0 -272.5 -108t-150.5 -261l-91 -470h-95
l263 1351h-436l17 83h965l-16 -83h-436z" />
    <glyph glyph-name="afii10052" unicode="&#x403;" horiz-adv-x="1048" 
d="M86 0l279 1434h797l-16 -83h-704l-262 -1351h-94zM718 1624l351 335l51 -49l-354 -335z" />
    <glyph glyph-name="afii10053" unicode="&#x404;" horiz-adv-x="1552" 
d="M1333 390l62 -45q-127 -173 -310.5 -271.5t-387.5 -98.5q-152 0 -275 57t-197 157t-104 235.5t3 292.5q40 207 165.5 376.5t309 267t386.5 97.5q240 0 397 -131.5t170 -350.5h-102q-17 174 -149.5 286t-331.5 112q-169 0 -324.5 -82t-265 -222.5t-152.5 -311.5h804
l-15 -83h-804q-18 -128 10 -241.5t93 -196t168.5 -130.5t230.5 -48q178 0 342.5 90t276.5 241z" />
    <glyph glyph-name="afii10054" unicode="&#x405;" horiz-adv-x="1179" 
d="M69 215l63 55q62 -94 158 -152.5t213 -58.5q170 0 296.5 84t152.5 216q25 127 -58 213.5t-272 126.5q-204 44 -299 144.5t-67 246.5q32 160 172 264t330 104q179 0 285.5 -90t112.5 -270h-95q-7 133 -92.5 204.5t-219.5 71.5q-153 0 -263 -78.5t-133 -198.5
q-23 -118 62 -198.5t259 -119.5q436 -99 374 -417q-33 -168 -187.5 -277.5t-367.5 -109.5q-274 0 -424 240z" />
    <glyph glyph-name="afii10055" unicode="&#x406;" horiz-adv-x="571" 
d="M415 1434h94l-279 -1434h-94z" />
    <glyph glyph-name="afii10056" unicode="&#x407;" horiz-adv-x="571" 
d="M415 1434h94l-279 -1434h-94zM264 1704q6 32 32.5 54.5t59.5 22.5t50.5 -22.5t11.5 -54.5t-32.5 -54.5t-59.5 -22.5t-50.5 22.5t-11.5 54.5zM610 1704q6 32 32.5 54.5t59.5 22.5t50.5 -22.5t11.5 -54.5t-32.5 -54.5t-59.5 -22.5t-50.5 22.5t-11.5 54.5z" />
    <glyph glyph-name="afii10057" unicode="&#x408;" horiz-adv-x="903" 
d="M615 412l199 1022h94l-198 -1022q-42 -216 -164 -326.5t-307 -110.5q-154 0 -262 80l42 73q111 -69 232 -69q141 0 235.5 89.5t128.5 263.5z" />
    <glyph glyph-name="afii10058" unicode="&#x409;" horiz-adv-x="2052" 
d="M1107 83h262q183 0 322 106.5t170 267.5q32 161 -66 267t-281 106h-262zM1356 0h-359l263 1351h-708l-209 -1077q-26 -130 -109 -204t-199 -74q-41 0 -75 4l15 82q28 -3 69 -3q76 0 130.5 48.5t73.5 144.5l226 1162h896l-101 -521h264q224 0 342 -129.5t80 -326.5
t-206.5 -327t-392.5 -130z" />
    <glyph glyph-name="afii10059" unicode="&#x40a;" horiz-adv-x="2061" 
d="M86 0l279 1434h94l-131 -672h820l131 672h94l-101 -521h270q224 0 342 -129.5t80 -326.5t-206.5 -327t-392.5 -130h-365l132 679h-821l-131 -679h-94zM1110 83h267q184 0 323 106.5t170 267.5q32 161 -65.5 267t-281.5 106h-268z" />
    <glyph glyph-name="afii10060" unicode="&#x40b;" horiz-adv-x="1494" 
d="M1044 922q166 0 251.5 -118.5t51.5 -296.5l-99 -507h-94l97 501q29 147 -35 242.5t-207 95.5q-152 0 -272.5 -108t-150.5 -261l-91 -470h-95l263 1351h-436l17 83h965l-16 -83h-436l-124 -639q74 98 180.5 154t230.5 56z" />
    <glyph glyph-name="afii10061" unicode="&#x40c;" horiz-adv-x="1200" 
d="M1155 1434h94q-117 -596 -516 -722l337 -712h-114l-328 687q-59 -8 -118 -8h-199l-131 -679h-94l279 1434h94l-131 -672h180q268 0 425.5 173t221.5 499zM665 1577l351 335l51 -49l-353 -335z" />
    <glyph glyph-name="uni040D" unicode="&#x40d;" horiz-adv-x="1414" 
d="M1402 1434l-279 -1434h-92l246 1268l-1102 -1268h-89l279 1434h92l-247 -1268l1103 1268h89zM763 1911l222 -335l-67 -47l-225 335z" />
    <glyph glyph-name="afii10062" unicode="&#x40e;" horiz-adv-x="1304" 
d="M435 207l149 205l-345 1022h104l311 -923l660 923h104l-907 -1267q-120 -167 -289 -167h-104l15 83h97q116 0 205 124zM853 1531q-130 0 -199.5 87t-49.5 219h86q-14 -101 32.5 -166.5t144.5 -65.5q99 0 171.5 65.5t96.5 166.5h86q-32 -132 -135 -219t-233 -87z" />
    <glyph glyph-name="afii10145" unicode="&#x40f;" horiz-adv-x="1368" 
d="M1356 1434l-279 -1434h-448l-57 -287h-94l57 287h-449l279 1434h94l-263 -1351h802l264 1351h94z" />
    <glyph glyph-name="afii10017" unicode="&#x410;" horiz-adv-x="1366" 
d="M1198 0h-105l-81 418h-701l-242 -418h-106l846 1434h100zM997 501l-159 823l-480 -823h639z" />
    <glyph glyph-name="afii10018" unicode="&#x411;" horiz-adv-x="1184" 
d="M86 0l279 1434h772l-17 -83h-678l-85 -438h280q224 0 342 -129.5t80 -326.5t-206.5 -327t-392.5 -130h-374zM196 83h277q183 0 321.5 106.5t169.5 267.5q32 161 -65.5 267t-280.5 106h-277z" />
    <glyph glyph-name="afii10019" unicode="&#x412;" horiz-adv-x="1242" 
d="M583 0h-497l279 1434h462q181 0 269.5 -102t57.5 -263q-23 -122 -108.5 -207t-197.5 -111q135 -20 210.5 -115.5t46.5 -244.5q-34 -172 -179 -281.5t-343 -109.5zM1059 1066q25 127 -46 206t-209 79h-362l-110 -568h361q138 0 239.5 78t126.5 205zM1010 393
q27 137 -56.5 223t-243.5 86h-394l-120 -619h393q161 0 277.5 85.5t143.5 224.5z" />
    <glyph glyph-name="afii10020" unicode="&#x413;" horiz-adv-x="1048" 
d="M86 0l279 1434h797l-16 -83h-704l-262 -1351h-94z" />
    <glyph glyph-name="afii10021" unicode="&#x414;" horiz-adv-x="1318" 
d="M1161 83l-71 -370h-95l57 287h-990l-56 -287h-94l72 370h115q274 450 436 1279l14 72h737l-263 -1351h138zM202 83h727l247 1268h-550q-157 -810 -424 -1268z" />
    <glyph glyph-name="afii10022" unicode="&#x415;" horiz-adv-x="1133" 
d="M86 0l279 1434h795l-16 -83h-702l-114 -589h644l-17 -83h-644l-115 -596h719l-15 -83h-814z" />
    <glyph glyph-name="afii10024" unicode="&#x416;" horiz-adv-x="1847" 
d="M1788 1434h94q-117 -596 -516 -722l337 -712h-114l-328 687q-59 -8 -118 -8h-144l-131 -679h-94l131 679h-143q-57 0 -115 8l-594 -687h-113l612 712q-352 127 -235 722h95q-132 -672 385 -672h125l131 672h94l-131 -672h125q268 0 425.5 173t221.5 499z" />
    <glyph glyph-name="afii10025" unicode="&#x417;" horiz-adv-x="1058" 
d="M851 399q29 146 -64.5 244.5t-261.5 98.5h-159l16 80h165q135 0 240 80t128 198q23 117 -51 196.5t-205 79.5q-120 0 -210 -58.5t-133 -163.5h-91q57 141 177 222.5t278 81.5q169 0 262.5 -103t64.5 -254q-21 -107 -105 -193.5t-203 -123.5q133 -38 202.5 -142.5
t42.5 -243.5q-34 -178 -195.5 -300.5t-361.5 -122.5q-136 0 -229 52.5t-152 171.5l69 53q56 -102 136 -148.5t191 -46.5q160 0 290.5 99.5t158.5 242.5z" />
    <glyph glyph-name="afii10026" unicode="&#x418;" horiz-adv-x="1414" 
d="M1402 1434l-279 -1434h-92l246 1268l-1102 -1268h-89l279 1434h92l-247 -1268l1103 1268h89z" />
    <glyph glyph-name="afii10027" unicode="&#x419;" horiz-adv-x="1414" 
d="M1402 1434l-279 -1434h-92l246 1268l-1102 -1268h-89l279 1434h92l-247 -1268l1103 1268h89zM901 1531q-130 0 -199.5 87t-49.5 219h86q-14 -101 32.5 -166.5t144.5 -65.5q99 0 171.5 65.5t96.5 166.5h86q-32 -132 -135 -219t-233 -87z" />
    <glyph glyph-name="afii10028" unicode="&#x41a;" horiz-adv-x="1200" 
d="M1155 1434h94q-117 -596 -516 -722l337 -712h-114l-328 687q-59 -8 -118 -8h-199l-131 -679h-94l279 1434h94l-131 -672h180q268 0 425.5 173t221.5 499z" />
    <glyph glyph-name="afii10029" unicode="&#x41b;" horiz-adv-x="1422" 
d="M552 1351l-209 -1077q-26 -130 -109 -204t-199 -74q-41 0 -75 4l15 82q28 -3 69 -3q76 0 130.5 48.5t73.5 144.5l226 1162h936l-278 -1434h-95l262 1351h-747z" />
    <glyph glyph-name="afii10030" unicode="&#x41c;" horiz-adv-x="1710" 
d="M893 239h-66l-406 1010l-243 -1249h-92l279 1434h88l430 -1078l850 1078h88l-279 -1434h-92l243 1249z" />
    <glyph glyph-name="afii10031" unicode="&#x41d;" horiz-adv-x="1398" 
d="M86 0l279 1434h94l-131 -672h833l131 672h94l-278 -1434h-94l131 679h-834l-131 -679h-94z" />
    <glyph glyph-name="afii10032" unicode="&#x41e;" horiz-adv-x="1640" 
d="M729 59q176 0 340 88t277.5 239t148.5 331q35 179 -20 330t-185 239t-306 88t-339.5 -88t-277 -238.5t-148.5 -330.5q-29 -137 -0.5 -256.5t94.5 -209t175 -141t241 -51.5zM1000 1458q122 0 227.5 -37t181.5 -103.5t127 -159t63.5 -204t-9.5 -237.5q-30 -154 -114 -291.5
t-200.5 -236.5t-263.5 -156.5t-299 -57.5t-277.5 57t-202.5 157t-109.5 235.5t0.5 292.5q40 206 169 376t316.5 267.5t390.5 97.5z" />
    <glyph glyph-name="afii10033" unicode="&#x41f;" horiz-adv-x="1368" 
d="M1356 1434l-279 -1434h-94l262 1351h-803l-262 -1351h-94l279 1434h991z" />
    <glyph glyph-name="afii10034" unicode="&#x420;" horiz-adv-x="1165" 
d="M606 582h-313l-113 -582h-94l279 1434h407q220 0 330.5 -116.5t73.5 -309.5t-193.5 -309.5t-376.5 -116.5zM1080 1008q30 156 -58.5 249.5t-267.5 93.5h-312l-133 -686h312q179 0 304 93.5t155 249.5z" />
    <glyph glyph-name="afii10035" unicode="&#x421;" horiz-adv-x="1552" 
d="M1333 390l62 -45q-127 -173 -310.5 -271.5t-387.5 -98.5q-152 0 -275 57t-197 157t-104 235.5t3 292.5q40 207 165.5 376.5t309 267t386.5 97.5q240 0 397 -131.5t170 -350.5h-102q-17 174 -149.5 286t-331.5 112q-175 0 -335.5 -88t-270 -238.5t-144.5 -330.5t16 -331
t177.5 -239t301.5 -88q178 0 342.5 90t276.5 241z" />
    <glyph glyph-name="afii10036" unicode="&#x422;" horiz-adv-x="1101" 
d="M401 0l263 1351h-437l17 83h966l-16 -83h-436l-262 -1351h-95z" />
    <glyph glyph-name="afii10037" unicode="&#x423;" horiz-adv-x="1304" 
d="M435 207l149 205l-345 1022h104l311 -923l660 923h104l-907 -1267q-120 -167 -289 -167h-104l15 83h97q116 0 205 124z" />
    <glyph glyph-name="afii10038" unicode="&#x424;" horiz-adv-x="1507" 
d="M658 280l169 870q-145 0 -278.5 -58t-223 -158t-112.5 -219q-17 -89 8.5 -169.5t85 -138.5t151 -92.5t200.5 -34.5zM698 0h-94l38 197q-128 0 -235.5 40.5t-177.5 109.5t-101 165.5t-10 202.5q28 142 134.5 261t264 188t327.5 69l39 201h94l-39 -201q128 0 235.5 -40.5
t177.5 -110t100.5 -165.5t9.5 -202q-28 -142 -134 -261.5t-263 -188t-328 -68.5zM922 1150l-169 -870q145 0 278 58t222.5 158t112.5 219q35 181 -94 308t-350 127z" />
    <glyph glyph-name="afii10039" unicode="&#x425;" horiz-adv-x="1263" 
d="M63 0h-108l658 729l-361 705h108l325 -632l570 632h109l-636 -705l376 -729h-109l-339 656z" />
    <glyph glyph-name="afii10040" unicode="&#x426;" horiz-adv-x="1381" 
d="M1356 1434l-263 -1351h131l-72 -370h-94l56 287h-1028l279 1434h94l-263 -1351h802l264 1351h94z" />
    <glyph glyph-name="afii10041" unicode="&#x427;" horiz-adv-x="1220" 
d="M542 512q-168 0 -262 119.5t-60 295.5l99 507h93l-98 -501q-28 -144 45.5 -241t218.5 -97q154 0 285.5 109.5t160.5 259.5l92 470h92l-278 -1434h-92l141 732q-78 -102 -193.5 -161t-243.5 -59z" />
    <glyph glyph-name="afii10042" unicode="&#x428;" horiz-adv-x="1925" 
d="M1555 83l264 1351h94l-279 -1434h-1548l279 1434h94l-263 -1351h632l264 1351h94l-263 -1351h632z" />
    <glyph glyph-name="afii10043" unicode="&#x429;" horiz-adv-x="1937" 
d="M86 0l279 1434h94l-263 -1351h632l264 1351h94l-263 -1351h632l264 1351h94l-263 -1351h130l-72 -370h-94l56 287h-1584z" />
    <glyph glyph-name="afii10044" unicode="&#x42a;" horiz-adv-x="1429" 
d="M622 1351h-395l17 83h488l-101 -521h279q224 0 342 -129.5t80 -326.5t-206.5 -327t-392.5 -130h-374zM469 83h277q183 0 322 106.5t170 267.5q32 161 -65.5 267t-280.5 106h-278z" />
    <glyph glyph-name="afii10045" unicode="&#x42b;" horiz-adv-x="1592" 
d="M196 83h277q183 0 322 106.5t170 267.5q32 161 -66 267t-281 106h-277zM1486 1434h94l-278 -1434h-95zM460 0h-374l279 1434h94l-102 -521h280q224 0 342 -129.5t80 -326.5t-206.5 -327t-392.5 -130z" />
    <glyph glyph-name="afii10046" unicode="&#x42c;" horiz-adv-x="1156" 
d="M196 83h277q183 0 322 106.5t170 267.5q32 161 -66 267t-281 106h-277zM460 0h-374l279 1434h94l-102 -521h280q224 0 342 -129.5t80 -326.5t-206.5 -327t-392.5 -130z" />
    <glyph glyph-name="afii10047" unicode="&#x42d;" horiz-adv-x="1552" 
d="M86 345l80 45q54 -151 183 -241t307 -90q169 0 324.5 82t265 222.5t152.5 311.5h-804l15 83h804q18 128 -10 241.5t-93 196t-168.5 130.5t-230.5 48q-199 0 -375 -112t-260 -286h-102q99 220 306.5 351t447.5 131q122 0 226 -37t177.5 -103.5t122 -159t59.5 -204
t-11 -237.5q-41 -207 -166.5 -376.5t-309 -267.5t-386.5 -98q-204 0 -349 98.5t-205 271.5z" />
    <glyph glyph-name="afii10048" unicode="&#x42e;" horiz-adv-x="2104" 
d="M311 676l-131 -676h-94l279 1434h94l-131 -675h270q48 196 177 356t311 251.5t378 91.5q122 0 227.5 -37t181.5 -103.5t127 -159t63.5 -204t-9.5 -237.5q-30 -154 -114 -291.5t-200.5 -236.5t-263.5 -156.5t-299 -57.5q-147 0 -269 54t-200.5 147t-112.5 223t-13 277
h-271zM1193 59q176 0 340 88t277.5 239t148.5 331q35 179 -20 330t-185 239t-306 88t-339.5 -88t-277 -238.5t-148.5 -330.5q-29 -137 -0.5 -256.5t94.5 -209t175 -141t241 -51.5z" />
    <glyph glyph-name="afii10049" unicode="&#x42f;" horiz-adv-x="1201" 
d="M633 582l-532 -582h-106l536 587q-180 23 -266.5 135.5t-52.5 285.5q37 193 193 309.5t376 116.5h408l-279 -1434h-94l113 582h-296zM307 1008q-30 -156 59 -249.5t268 -93.5h311l133 686h-311q-179 0 -304.5 -94t-155.5 -249z" />
    <glyph glyph-name="afii10065" unicode="&#x430;" horiz-adv-x="1296" 
d="M708 1085q147 0 248 -70.5t144 -191.5l46 238h92l-206 -1061h-92l46 238q-91 -121 -219 -192t-275 -71q-152 0 -256.5 76.5t-143 202.5t-9.5 276t116.5 276t222 202.5t286.5 76.5zM518 58q191 0 338.5 138t185.5 334q25 127 -7 234t-119.5 172.5t-214.5 65.5
q-191 0 -339 -138t-186 -334q-25 -127 7.5 -234t120 -172.5t214.5 -65.5z" />
    <glyph glyph-name="afii10066" unicode="&#x431;" horiz-adv-x="1219" 
d="M109 551q32 165 71.5 290t96 229t128.5 176.5t169.5 125.5t218.5 82t277 41l-3 -83q-137 -11 -242.5 -35t-189 -65.5t-145 -95.5t-109 -132t-81.5 -167.5t-63 -209.5q94 109 219.5 175t264.5 66q137 0 239 -64.5t145.5 -176t17.5 -245.5q-26 -135 -115 -246.5
t-219.5 -176t-275.5 -64.5q-151 0 -254.5 72.5t-143 203.5t-6.5 300zM210 592l-8 -41q-42 -217 45 -355t282 -138q178 0 323 117t178 287t-64.5 286.5t-269.5 116.5q-135 0 -259 -73.5t-227 -199.5z" />
    <glyph glyph-name="afii10067" unicode="&#x432;" horiz-adv-x="1037" 
d="M471 0h-412l206 1061h384q141 0 223 -78t60 -192q-16 -80 -80 -142.5t-151 -92.5q97 -23 149.5 -97.5t33.5 -168.5q-24 -122 -143 -206t-270 -84zM265 589h288q105 0 187 56t98 139t-44 139.5t-164 56.5h-288zM167 81h316q114 0 203 61.5t106 152.5q18 91 -47 153
t-179 62h-316z" />
    <glyph glyph-name="afii10068" unicode="&#x433;" horiz-adv-x="825" 
d="M862 978h-521l-189 -978h-93l206 1061h614z" />
    <glyph glyph-name="afii10069" unicode="&#x434;" horiz-adv-x="1103" 
d="M957 82l-58 -299h-92l43 217h-801l-43 -217h-92l58 299h111q229 344 353 979h565l-190 -979h146zM182 82h538l174 897h-385q-48 -246 -132 -485t-195 -412z" />
    <glyph glyph-name="afii10070" unicode="&#x435;" horiz-adv-x="1226" 
d="M173 507q-20 -122 18.5 -225t131 -164.5t221.5 -61.5q109 0 214.5 48t192.5 135l44 -51q-201 -213 -466 -213q-160 0 -273 75.5t-157.5 202t-15.5 277.5q29 150 123 277t233.5 202.5t292.5 75.5q149 0 255 -70.5t148.5 -190.5t14.5 -264q-4 -22 -15 -53h-962zM716 1005
q-174 0 -324 -122.5t-201 -296.5h869q23 182 -73.5 300.5t-270.5 118.5z" />
    <glyph glyph-name="afii10072" unicode="&#x436;" horiz-adv-x="1585" 
d="M226 1061h92q-46 -238 41 -352t287 -114h113l91 466h92l-91 -466h113q200 0 332 114.5t178 351.5h92q-41 -213 -147.5 -343t-268.5 -177l298 -541h-113l-287 520q-50 -6 -102 -6h-110l-100 -514h-92l99 514h-110q-55 0 -101 6l-487 -520h-113l507 541q-295 97 -213 520z
" />
    <glyph glyph-name="afii10073" unicode="&#x437;" horiz-adv-x="961" 
d="M374 57q134 0 239 69t125 168t-59 167.5t-213 68.5h-152l16 79h157q114 0 203 57t106 141q16 84 -51 141t-181 57q-107 0 -198 -54t-129 -144h-93q44 129 170 203.5t267 74.5q153 0 241.5 -79t65.5 -195q-15 -81 -85 -146t-177 -94q100 -25 162 -101t42 -180
q-17 -87 -85.5 -159.5t-171 -114t-215.5 -41.5q-128 0 -211 46t-136 141l67 51q98 -156 296 -156z" />
    <glyph glyph-name="afii10074" unicode="&#x438;" horiz-adv-x="1229" 
d="M1171 1061l-205 -1061h-90l179 926l-907 -926h-89l206 1061h90l-180 -926l907 926h89z" />
    <glyph glyph-name="afii10075" unicode="&#x439;" horiz-adv-x="1229" 
d="M1171 1061l-205 -1061h-90l179 926l-907 -926h-89l206 1061h90l-180 -926l907 926h89zM744 1199q-130 0 -199 87t-49 219h86q-14 -101 32.5 -166.5t144.5 -65.5t170.5 65.5t96.5 166.5h86q-32 -132 -135 -219t-233 -87z" />
    <glyph glyph-name="afii10076" unicode="&#x43a;" horiz-adv-x="1031" 
d="M930 1061h92q-41 -213 -147.5 -343t-268.5 -177l298 -541h-112l-288 520q-50 -6 -102 -6h-151l-99 -514h-93l206 1061h92l-91 -466h154q200 0 332 114.5t178 351.5z" />
    <glyph glyph-name="afii10077" unicode="&#x43b;" horiz-adv-x="1247" 
d="M212 256l157 805h820l-206 -1061h-92l189 978h-636l-141 -726q-23 -116 -103 -186.5t-181 -70.5q-38 0 -71 5l15 82q27 -3 60 -3q69 0 120.5 46.5t68.5 130.5z" />
    <glyph glyph-name="afii10078" unicode="&#x43c;" horiz-adv-x="1354" 
d="M353 1061l304 -633l551 633h88l-205 -1061h-91l178 912l-509 -581h-61l-281 581l-177 -912h-91l206 1061h88z" />
    <glyph glyph-name="afii10079" unicode="&#x43d;" horiz-adv-x="1229" 
d="M1171 1061l-205 -1061h-93l99 507h-722l-98 -507h-93l206 1061h92l-92 -471h722l92 471h92z" />
    <glyph glyph-name="afii10080" unicode="&#x43e;" horiz-adv-x="1271" 
d="M545 58q96 0 189.5 38.5t166.5 102.5t125 150.5t70 180.5q24 126 -14.5 234t-132 173t-221.5 65q-194 0 -354.5 -140t-197.5 -332q-24 -125 14.5 -233.5t132.5 -173.5t222 -65zM744 1085q155 0 268 -76t159.5 -203t17.5 -276q-22 -111 -83.5 -213t-149 -177.5
t-199.5 -120t-229 -44.5q-155 0 -268 76t-159.5 203t-17.5 276q22 111 83.5 213t149 177.5t199.5 120t229 44.5z" />
    <glyph glyph-name="afii10081" unicode="&#x43f;" horiz-adv-x="1229" 
d="M1171 1061l-205 -1061h-93l190 978h-722l-189 -978h-93l206 1061h906z" />
    <glyph glyph-name="afii10082" unicode="&#x440;" horiz-adv-x="1296" 
d="M806 1085q152 0 256 -76.5t142 -202t9 -276.5q-22 -112 -78.5 -213t-137 -177t-187 -120.5t-220.5 -44.5q-148 0 -249 71t-143 192l-140 -713h-92l299 1536h92l-46 -238q89 121 218 191.5t277 70.5zM596 58q191 0 338.5 138t185.5 334q25 127 -7 234t-119.5 172.5
t-214.5 65.5q-191 0 -339 -138t-186 -334q-25 -127 7.5 -234t120 -172.5t214.5 -65.5z" />
    <glyph glyph-name="afii10083" unicode="&#x441;" horiz-adv-x="1215" 
d="M992 309l63 -44q-215 -290 -537 -290q-155 0 -265.5 76t-154.5 203t-15 276q22 112 82 213.5t145.5 177t196 120t227.5 44.5q187 0 304 -98.5t131 -268.5h-99q-15 130 -110.5 207t-241.5 77q-128 0 -244.5 -65t-195 -173t-102.5 -234t12 -234t127.5 -173t219.5 -65
q138 0 253.5 68t203.5 183z" />
    <glyph glyph-name="afii10084" unicode="&#x442;" horiz-adv-x="950" 
d="M516 978h-379l17 83h850l-17 -83h-379l-189 -978h-92z" />
    <glyph glyph-name="afii10085" unicode="&#x443;" horiz-adv-x="1062" 
d="M88 -475l299 488l-242 1048h101l213 -928l565 928h100l-936 -1536h-100z" />
    <glyph glyph-name="afii10086" unicode="&#x444;" horiz-adv-x="2177" 
d="M1687 1085q152 0 256 -76.5t142 -202t9 -276.5q-29 -150 -116.5 -276t-221.5 -202.5t-286 -76.5q-147 0 -248.5 70.5t-144.5 190.5l-138 -711h-92l139 713q-91 -121 -219 -192t-275 -71q-152 0 -256.5 76.5t-143 202.5t-9.5 276t116.5 276t222 202.5t286.5 76.5
q147 0 248 -70.5t144 -191.5l130 672h92l-130 -670q90 120 219 190t276 70zM518 58q191 0 338.5 138t185.5 334q25 127 -7 234t-119.5 172.5t-214.5 65.5q-191 0 -339 -138t-186 -334q-25 -127 7.5 -234t120 -172.5t214.5 -65.5zM1477 58q191 0 338.5 138t185.5 334
q25 127 -7 234t-119.5 172.5t-214.5 65.5q-191 0 -339 -138t-186 -334q-25 -127 7.5 -234t120 -172.5t214.5 -65.5z" />
    <glyph glyph-name="afii10087" unicode="&#x445;" horiz-adv-x="1047" 
d="M47 0h-107l529 545l-297 516h108l259 -451l436 451h107l-497 -516l318 -545h-107l-283 479z" />
    <glyph glyph-name="afii10088" unicode="&#x446;" horiz-adv-x="1258" 
d="M948 -287l57 287h-946l206 1061h92l-190 -978h722l190 978h92l-190 -978h131l-72 -370h-92z" />
    <glyph glyph-name="afii10089" unicode="&#x447;" horiz-adv-x="1099" 
d="M434 295q-165 0 -243 117.5t-43 297.5l69 350h92l-67 -344q-29 -148 29 -243t200 -95q151 0 268.5 107t147.5 261l61 314h92l-205 -1060h-93l97 500q-72 -96 -177 -150.5t-228 -54.5z" />
    <glyph glyph-name="afii10090" unicode="&#x448;" horiz-adv-x="1587" 
d="M1529 1061l-206 -1061h-1264l206 1061h92l-190 -978h493l191 978h92l-190 -978h493l191 978h92z" />
    <glyph glyph-name="afii10091" unicode="&#x449;" horiz-adv-x="1615" 
d="M59 0l206 1061h92l-190 -978h493l191 978h92l-190 -978h493l191 978h92l-191 -978h131l-71 -370h-92l56 287h-1303z" />
    <glyph glyph-name="afii10092" unicode="&#x44a;" horiz-adv-x="1197" 
d="M654 0h-385l191 980h-322l16 81h413l-70 -363h293q158 0 246.5 -101t59.5 -248t-156.5 -248t-285.5 -101zM1004 349q22 113 -46 190.5t-189 77.5h-288l-104 -536h288q121 0 219 77t120 191z" />
    <glyph glyph-name="afii10093" unicode="&#x44b;" horiz-adv-x="1378" 
d="M444 0h-385l206 1061h92l-70 -363h293q158 0 246.5 -101t59.5 -248t-156.5 -248t-285.5 -101zM794 349q22 113 -46 190.5t-189 77.5h-288l-104 -536h288q121 0 219 77t120 191zM1022 0l206 1061h92l-206 -1061h-92z" />
    <glyph glyph-name="afii10094" unicode="&#x44c;" horiz-adv-x="987" 
d="M444 0h-385l206 1061h92l-70 -363h293q158 0 246.5 -101t59.5 -248t-156.5 -248t-285.5 -101zM794 349q22 113 -46 190.5t-189 77.5h-288l-104 -536h288q121 0 219 77t120 191z" />
    <glyph glyph-name="afii10095" unicode="&#x44d;" horiz-adv-x="1215" 
d="M58 265l79 44q43 -115 133.5 -183t228.5 -68q183 0 332.5 125.5t199.5 306.5h-593l16 79h593q14 118 -26 216.5t-129 157.5t-210 59q-146 0 -271.5 -77t-191.5 -207h-99q81 170 236 268.5t342 98.5q155 0 265.5 -76t154.5 -203t15 -276q-22 -112 -82 -213.5t-145.5 -177
t-196 -120t-227.5 -44.5q-325 0 -424 290z" />
    <glyph glyph-name="afii10096" unicode="&#x44e;" horiz-adv-x="1639" 
d="M1112 1085q117 0 211.5 -44.5t152 -120t80 -177.5t0.5 -213q-29 -149 -124.5 -276t-238 -203t-297.5 -76q-149 0 -259 69.5t-160.5 186.5t-33.5 258h-197l-94 -489h-93l206 1061h92l-95 -489h198q58 215 243 364t409 149zM912 58q96 0 189.5 38.5t166.5 102.5t125 150.5
t70 180.5q24 126 -14 234t-131.5 173t-221.5 65q-194 0 -354.5 -140t-197.5 -332q-24 -126 14.5 -234t132 -173t221.5 -65z" />
    <glyph glyph-name="afii10097" unicode="&#x44f;" horiz-adv-x="1100" 
d="M821 395h-346l-390 -395h-107l399 404q-124 26 -189.5 115.5t-41.5 208.5q27 140 157.5 236.5t293.5 96.5h445l-205 -1061h-93zM485 476h352l98 504h-351q-125 0 -224.5 -72.5t-120.5 -179.5q-22 -107 49 -179.5t197 -72.5z" />
    <glyph glyph-name="uni0450" unicode="&#x450;" horiz-adv-x="1226" 
d="M173 507q-20 -122 18.5 -225t131 -164.5t221.5 -61.5q109 0 214.5 48t192.5 135l44 -51q-201 -213 -466 -213q-160 0 -273 75.5t-157.5 202t-15.5 277.5q29 150 123 277t233.5 202.5t292.5 75.5q149 0 255 -70.5t148.5 -190.5t14.5 -264q-4 -22 -15 -53h-962zM716 1005
q-174 0 -324 -122.5t-201 -296.5h869q23 182 -73.5 300.5t-270.5 118.5zM623 1579l222 -335l-68 -47l-224 335z" />
    <glyph glyph-name="afii10071" unicode="&#x451;" horiz-adv-x="1226" 
d="M173 507q-20 -122 18.5 -225t131 -164.5t221.5 -61.5q109 0 214.5 48t192.5 135l44 -51q-201 -213 -466 -213q-160 0 -273 75.5t-157.5 202t-15.5 277.5q29 150 123 277t233.5 202.5t292.5 75.5q149 0 255 -70.5t148.5 -190.5t14.5 -264q-4 -22 -15 -53h-962zM716 1005
q-174 0 -324 -122.5t-201 -296.5h869q23 182 -73.5 300.5t-270.5 118.5zM527 1372q6 32 33 54.5t60 22.5t50 -22t11 -55q-6 -32 -32.5 -54.5t-59.5 -22.5t-50.5 22.5t-11.5 54.5zM873 1372q6 32 33 54.5t60 22.5t50 -22t11 -55q-6 -32 -32.5 -54.5t-59.5 -22.5t-50.5 22.5
t-11.5 54.5z" />
    <glyph glyph-name="afii10099" unicode="&#x452;" horiz-adv-x="1266" 
d="M823 1085q169 0 265.5 -119.5t62.5 -294.5l-153 -787q-35 -176 -138.5 -267.5t-272.5 -91.5q-42 0 -94 8l15 81q38 -7 94 -7q249 0 304 279l152 779q28 143 -49 240t-223 97q-101 0 -199.5 -50t-168 -135t-88.5 -183l-123 -634h-92l238 1229h-174l15 75h174l36 191h93
l-37 -191h401l-14 -75h-402l-71 -369q79 103 198.5 164t250.5 61z" />
    <glyph glyph-name="afii10100" unicode="&#x453;" horiz-adv-x="825" 
d="M862 978h-521l-189 -978h-93l206 1061h614zM449 1245l351 335l51 -49l-353 -335z" />
    <glyph glyph-name="afii10101" unicode="&#x454;" horiz-adv-x="1215" 
d="M992 309l63 -44q-215 -290 -537 -290q-155 0 -265.5 76t-154.5 203t-15 276q22 112 82 213.5t145.5 177t196 120t227.5 44.5q187 0 304 -98.5t131 -268.5h-99q-15 130 -110.5 207t-241.5 77q-183 0 -334 -126t-199 -307h593l-15 -79h-593q-21 -181 80.5 -306.5
t284.5 -125.5q138 0 253.5 68t203.5 183z" />
    <glyph glyph-name="afii10102" unicode="&#x455;" horiz-adv-x="934" 
d="M19 161l60 51q60 -81 129.5 -118.5t172.5 -37.5q130 0 220 60t109 156q18 89 -49.5 151t-204.5 89q-163 32 -235.5 107.5t-51.5 183.5q23 120 132 201t262 81q150 0 231.5 -75t83.5 -200h-92q-5 84 -65.5 139.5t-168.5 55.5q-113 0 -193.5 -58.5t-97.5 -144.5
q-14 -74 48 -130.5t191 -82.5q169 -33 247.5 -113.5t54.5 -204.5q-25 -130 -141.5 -213t-290.5 -83q-233 0 -351 186z" />
    <glyph glyph-name="afii10103" unicode="&#x456;" horiz-adv-x="523" 
d="M113 0l205 1061h93l-206 -1061h-92zM349 1372q6 33 32.5 55t58.5 22q33 0 50.5 -22t11.5 -55q-6 -32 -32 -54t-59 -22q-32 0 -50 22t-12 54z" />
    <glyph glyph-name="afii10104" unicode="&#x457;" horiz-adv-x="523" 
d="M113 0l205 1061h93l-206 -1061h-92zM176 1372q6 32 32.5 54.5t59.5 22.5t50.5 -22.5t11.5 -54.5t-32.5 -54.5t-59.5 -22.5t-50.5 22.5t-11.5 54.5zM522 1372q6 32 32.5 54.5t59.5 22.5t50.5 -22.5t11.5 -54.5t-32.5 -54.5t-59.5 -22.5t-50.5 22.5t-11.5 54.5z" />
    <glyph glyph-name="afii10105" unicode="&#x458;" horiz-adv-x="523" 
d="M349 1372q6 33 32.5 55t58.5 22q33 0 50.5 -22t11.5 -55q-6 -32 -32 -54t-59 -22q-32 0 -50 22t-12 54zM74 -200l244 1261h93l-245 -1260q-27 -136 -107.5 -206t-196.5 -70q-46 0 -75 4l15 81q28 -3 69 -3q76 0 130 48.5t73 144.5z" />
    <glyph glyph-name="afii10106" unicode="&#x459;" horiz-adv-x="1762" 
d="M444 978l-141 -726q-23 -116 -103 -186.5t-181 -70.5q-38 0 -71 5l15 82q27 -3 60 -3q69 0 120.5 46.5t68.5 130.5l157 805h779l-71 -363h278q158 0 246.5 -101t59.5 -248t-156 -248t-285 -101h-370l189 978h-595zM957 81h273q121 0 219 77t120 191q22 113 -46 190.5
t-189 77.5h-272z" />
    <glyph glyph-name="afii10107" unicode="&#x45a;" horiz-adv-x="1744" 
d="M1202 0h-369l98 507h-681l-98 -507h-93l206 1061h92l-92 -471h681l92 471h92l-70 -363h277q158 0 247 -101.5t60 -247.5q-29 -147 -156.5 -248t-285.5 -101zM1551 349q22 113 -45.5 190.5t-188.5 77.5h-273l-104 -536h272q121 0 219 77t120 191z" />
    <glyph glyph-name="afii10108" unicode="&#x45b;" horiz-adv-x="1266" 
d="M497 1495l-37 -191h401l-14 -75h-402l-71 -369q79 103 198.5 164t250.5 61q169 0 265.5 -119.5t62.5 -294.5l-130 -671h-92l129 665q28 143 -49 240t-223 97q-101 0 -199.5 -50t-168 -135t-88.5 -183l-123 -634h-92l238 1229h-174l15 75h174l36 191h93z" />
    <glyph glyph-name="afii10109" unicode="&#x45c;" horiz-adv-x="1031" 
d="M930 1061h92q-41 -213 -147.5 -343t-268.5 -177l298 -541h-112l-288 520q-50 -6 -102 -6h-151l-99 -514h-93l206 1061h92l-91 -466h154q200 0 332 114.5t178 351.5zM523 1245l351 335l52 -49l-354 -335z" />
    <glyph glyph-name="uni045D" unicode="&#x45d;" horiz-adv-x="1229" 
d="M1171 1061l-205 -1061h-90l179 926l-907 -926h-89l206 1061h90l-180 -926l907 926h89zM610 1579l223 -335l-68 -47l-224 335z" />
    <glyph glyph-name="afii10110" unicode="&#x45e;" horiz-adv-x="1062" 
d="M88 -475l299 488l-242 1048h101l213 -928l565 928h100l-936 -1536h-100zM663 1199q-130 0 -199.5 87t-49.5 219h86q-14 -101 32.5 -166.5t144.5 -65.5t170.5 65.5t96.5 166.5h86q-32 -132 -134.5 -219t-232.5 -87z" />
    <glyph glyph-name="afii10193" unicode="&#x45f;" horiz-adv-x="1230" 
d="M1172 1061l-205 -1061h-408l-56 -287h-92l56 287h-408l206 1061h92l-190 -978h723l190 978h92z" />
    <glyph glyph-name="afii10050" unicode="&#x490;" horiz-adv-x="1048" 
d="M86 0l279 1434h703l55 286h95l-72 -369h-704l-262 -1351h-94z" />
    <glyph glyph-name="afii10098" unicode="&#x491;" horiz-adv-x="825" 
d="M862 978h-521l-189 -978h-93l206 1061h521l56 287h92z" />
    <glyph glyph-name="Wgrave" unicode="&#x1e80;" horiz-adv-x="1927" 
d="M1089 1434h102l124 -1298l625 1298h101l-699 -1434h-102l-126 1303l-632 -1303h-102l-141 1434h100l120 -1298zM1044 1911l223 -335l-68 -47l-224 335z" />
    <glyph glyph-name="wgrave" unicode="&#x1e81;" horiz-adv-x="1564" 
d="M839 1061h94l110 -922l483 922h100l-562 -1061h-94l-111 923l-469 -923h-94l-151 1061h101l124 -922zM779 1579l222 -335l-67 -47l-224 335z" />
    <glyph glyph-name="Wacute" unicode="&#x1e82;" horiz-adv-x="1927" 
d="M1089 1434h102l124 -1298l625 1298h101l-699 -1434h-102l-126 1303l-632 -1303h-102l-141 1434h100l120 -1298zM1070 1577l351 335l52 -49l-354 -335z" />
    <glyph glyph-name="wacute" unicode="&#x1e83;" horiz-adv-x="1564" 
d="M839 1061h94l110 -922l483 922h100l-562 -1061h-94l-111 923l-469 -923h-94l-151 1061h101l124 -922zM841 1245l351 335l51 -49l-353 -335z" />
    <glyph glyph-name="Wdieresis" unicode="&#x1e84;" horiz-adv-x="1927" 
d="M1089 1434h102l124 -1298l625 1298h101l-699 -1434h-102l-126 1303l-632 -1303h-102l-141 1434h100l120 -1298zM942 1704q6 32 32.5 54.5t59.5 22.5t50.5 -22.5t11.5 -54.5t-32.5 -54.5t-59.5 -22.5t-50.5 22.5t-11.5 54.5zM1288 1704q6 32 32.5 54.5t59.5 22.5
t50.5 -22.5t11.5 -54.5t-32.5 -54.5t-59.5 -22.5t-50.5 22.5t-11.5 54.5z" />
    <glyph glyph-name="wdieresis" unicode="&#x1e85;" horiz-adv-x="1564" 
d="M839 1061h94l110 -922l483 922h100l-562 -1061h-94l-111 923l-469 -923h-94l-151 1061h101l124 -922zM696 1372q6 32 32.5 54.5t59.5 22.5t50.5 -22.5t11.5 -54.5t-32.5 -54.5t-59.5 -22.5t-50.5 22.5t-11.5 54.5zM1042 1372q6 32 33 54.5t60 22.5t50 -22t11 -55
q-6 -32 -32.5 -54.5t-59.5 -22.5t-50.5 22.5t-11.5 54.5z" />
    <glyph glyph-name="Ygrave" unicode="&#x1ef2;" horiz-adv-x="1304" 
d="M346 1434l336 -752l629 752h107l-707 -846l-114 -588h-94l113 588l-377 846h107zM708 1911l222 -335l-68 -47l-224 335z" />
    <glyph glyph-name="ygrave" unicode="&#x1ef3;" horiz-adv-x="1062" 
d="M88 -475l299 488l-242 1048h101l213 -928l565 928h100l-936 -1536h-100zM519 1579l222 -335l-67 -47l-224 335z" />
    <glyph glyph-name="thinspace" unicode="&#x2009;" horiz-adv-x="409" 
 />
    <glyph glyph-name="uni2010" unicode="&#x2010;" horiz-adv-x="806" 
d="M710 637h-572l18 86h571z" />
    <glyph glyph-name="figuredash" unicode="&#x2012;" horiz-adv-x="1228" 
d="M1147 637h-1024l17 86h1024z" />
    <glyph glyph-name="endash" unicode="&#x2013;" horiz-adv-x="1024" 
d="M1044 637h-1024l18 86h1024z" />
    <glyph glyph-name="emdash" unicode="&#x2014;" horiz-adv-x="2048" 
d="M2068 637h-2048l18 86h2048z" />
    <glyph glyph-name="afii00208" unicode="&#x2015;" horiz-adv-x="2048" 
d="M1864 637h-1639l18 86h1638z" />
    <glyph glyph-name="uni2016" unicode="&#x2016;" horiz-adv-x="921" 
d="M87 -287l354 1823h88l-354 -1823h-88zM429 -287l354 1823h88l-354 -1823h-88z" />
    <glyph glyph-name="underscoredbl" unicode="&#x2017;" horiz-adv-x="1228" 
d="M-84 -428l15 78h1024l-15 -78h-1024zM-30 -150l16 78h1024l-16 -78h-1024z" />
    <glyph glyph-name="quoteleft" unicode="&#x2018;" horiz-adv-x="595" 
d="M516 1236q-6 -31 -34 -53.5t-61 -22.5q-36 0 -54.5 24.5t-9.5 71.5q16 83 80 170.5t146 127.5l28 -45q-70 -49 -96 -114t-3 -121q8 -18 4 -38z" />
    <glyph glyph-name="quoteright" unicode="&#x2019;" horiz-adv-x="595" 
d="M398 1462q6 31 34 53.5t62 22.5q36 0 54 -24.5t9 -71.5q-16 -83 -79.5 -170.5t-144.5 -127.5l-30 45q70 49 96 114t3 121q-7 22 -4 38z" />
    <glyph glyph-name="quotesinglbase" unicode="&#x201a;" horiz-adv-x="595" 
d="M126 61q6 31 34 53.5t62 22.5q36 0 54 -24.5t9 -71.5q-16 -83 -80 -170.5t-145 -127.5l-29 45q70 49 96 114.5t3 121.5q-7 22 -4 37z" />
    <glyph glyph-name="quotereversed" unicode="&#x201b;" horiz-adv-x="595" 
d="M560 1462q-4 -21 -18 -38q-45 -53 -44.5 -119.5t51.5 -115.5l-46 -45q-66 40 -96 127.5t-14 170.5q9 47 37 71.5t64 24.5q34 0 53 -22.5t13 -53.5z" />
    <glyph glyph-name="quotedblleft" unicode="&#x201c;" horiz-adv-x="868" 
d="M788 1236q-6 -31 -34 -53.5t-61 -22.5q-36 0 -54 24.5t-9 71.5q16 83 79.5 170.5t145.5 127.5l29 -45q-70 -49 -96.5 -114.5t-3.5 -120.5q8 -18 4 -38zM516 1236q-6 -31 -34 -53.5t-61 -22.5q-36 0 -54.5 24.5t-9.5 71.5q16 83 80 170.5t146 127.5l28 -45
q-70 -49 -96 -114t-3 -121q8 -18 4 -38z" />
    <glyph glyph-name="quotedblright" unicode="&#x201d;" horiz-adv-x="868" 
d="M671 1462q6 31 34 53.5t61 22.5q36 0 54 -24.5t9 -71.5q-16 -83 -79.5 -170.5t-144.5 -127.5l-30 45q70 49 96.5 114.5t3.5 120.5q-7 22 -4 38zM398 1462q6 31 34 53.5t62 22.5q36 0 54 -24.5t9 -71.5q-16 -83 -79.5 -170.5t-144.5 -127.5l-30 45q70 49 96 114t3 121
q-7 22 -4 38z" />
    <glyph glyph-name="quotedblbase" unicode="&#x201e;" horiz-adv-x="868" 
d="M126 61q6 31 34 53.5t62 22.5q36 0 54 -24.5t9 -71.5q-16 -83 -80 -170.5t-145 -127.5l-29 45q70 49 96 114.5t3 121.5q-7 22 -4 37zM398 61q6 31 34.5 53.5t62.5 22.5q36 0 53.5 -24.5t8.5 -71.5q-16 -83 -79.5 -170.5t-144.5 -127.5l-30 45q70 49 96 114.5t3 121.5
q-7 22 -4 37z" />
    <glyph glyph-name="uni201F" unicode="&#x201f;" horiz-adv-x="868" 
d="M560 1462q-4 -21 -18 -38q-45 -53 -44.5 -119.5t51.5 -115.5l-46 -45q-66 40 -96 127.5t-14 170.5q9 47 37 71.5t64 24.5q34 0 53 -22.5t13 -53.5zM833 1462q-4 -19 -19 -38q-45 -53 -44.5 -119.5t51.5 -115.5l-46 -45q-66 40 -95.5 127.5t-13.5 170.5q9 47 36.5 71.5
t63.5 24.5q34 0 53.5 -22.5t13.5 -53.5z" />
    <glyph glyph-name="dagger" unicode="&#x2020;" horiz-adv-x="1146" 
d="M372 -268l257 1323h-369l15 83h369l77 394h94l-77 -394h369l-15 -83h-369l-257 -1323h-94z" />
    <glyph glyph-name="daggerdbl" unicode="&#x2021;" horiz-adv-x="1146" 
d="M464 209l165 846h-369l15 83h369l77 394h94l-77 -394h369l-15 -83h-369l-165 -846h369l-17 -83h-368l-76 -394h-94l75 394h-368l16 83h369z" />
    <glyph glyph-name="bullet" unicode="&#x2022;" horiz-adv-x="819" 
d="M410 458q-95 0 -160 64t-65 158q0 93 65.5 157.5t159.5 64.5t159 -64.5t65 -157.5q0 -94 -64.5 -158t-159.5 -64z" />
    <glyph glyph-name="onedotenleader" unicode="&#x2024;" horiz-adv-x="595" 
d="M125 56q7 34 34.5 57.5t62.5 23.5q34 0 53 -23t12 -58q-7 -34 -34.5 -57.5t-62.5 -23.5q-34 0 -53 23t-12 58z" />
    <glyph glyph-name="twodotenleader" unicode="&#x2025;" horiz-adv-x="1191" 
d="M125 56q7 34 34.5 57.5t62.5 23.5q34 0 53 -23t12 -58q-7 -34 -34.5 -57.5t-62.5 -23.5q-34 0 -53 23t-12 58zM721 56q7 34 34.5 57.5t62.5 23.5q34 0 53 -23t12 -58q-7 -34 -34.5 -57.5t-62.5 -23.5q-34 0 -53 23t-12 58z" />
    <glyph glyph-name="ellipsis" unicode="&#x2026;" horiz-adv-x="1787" 
d="M125 56q7 34 34.5 57.5t62.5 23.5q34 0 53 -23t12 -58q-7 -34 -34.5 -57.5t-62.5 -23.5q-34 0 -53 23t-12 58zM1317 56q7 34 34.5 57.5t62.5 23.5q34 0 53 -23t12 -58q-7 -34 -34.5 -57.5t-62.5 -23.5q-34 0 -53 23t-12 58zM721 56q7 34 34.5 57.5t62.5 23.5q34 0 53 -23
t12 -58q-7 -34 -34.5 -57.5t-62.5 -23.5q-34 0 -53 23t-12 58z" />
    <glyph glyph-name="perthousand" unicode="&#x2030;" horiz-adv-x="2598" 
d="M308 1099q-22 -113 37.5 -191.5t167.5 -78.5t197 78.5t112 191.5q22 113 -37.5 191t-167.5 78t-197 -78t-112 -191zM217 1099q28 147 149 248t267 101t227 -101t53 -248t-148.5 -248t-266.5 -101t-227.5 101t-53.5 248zM1043 335q-22 -113 37.5 -191t167.5 -78t198 78
t112 191t-37.5 191t-167.5 78t-198 -78t-112 -191zM952 335q28 147 149 248t267 101t227.5 -101t53.5 -248t-149 -248t-267 -101t-227.5 101t-53.5 248zM1849 335q-22 -113 37.5 -191t167.5 -78t197 78t112 191q22 113 -37 191t-167 78t-198 -78t-112 -191zM1758 335
q28 147 149 248t267 101t227.5 -101t53.5 -248t-149 -248t-267 -101t-227.5 101t-53.5 248zM391 20l1018 1434l69 -42l-1018 -1434z" />
    <glyph glyph-name="minute" unicode="&#x2032;" horiz-adv-x="556" 
d="M260 1072l262 381l69 -41l-273 -381z" />
    <glyph glyph-name="second" unicode="&#x2033;" horiz-adv-x="846" 
d="M260 1072l262 381l69 -41l-273 -381zM551 1072l262 381l69 -41l-273 -381z" />
    <glyph glyph-name="guilsinglleft" unicode="&#x2039;" horiz-adv-x="773" 
d="M126 614l9 50l581 335l30 -61l-521 -299l405 -299l-55 -61z" />
    <glyph glyph-name="guilsinglright" unicode="&#x203a;" horiz-adv-x="773" 
d="M692 664l-9 -50l-581 -335l-29 61l521 299l-405 299l54 61z" />
    <glyph glyph-name="exclamdbl" unicode="&#x203c;" horiz-adv-x="1022" 
d="M245 383l194 1051h95l-216 -1051h-73zM140 53q6 33 32 55.5t60 22.5t52 -22.5t12 -55.5q-7 -33 -33.5 -55.5t-59.5 -22.5q-34 0 -52 22.5t-11 55.5zM647 383l195 1051h94l-215 -1051h-74zM543 53q6 33 32 55.5t60 22.5q33 0 51 -22.5t12 -55.5q-7 -33 -33.5 -55.5
t-59.5 -22.5q-34 0 -51.5 22.5t-10.5 55.5z" />
    <glyph glyph-name="uni203E" unicode="&#x203e;" horiz-adv-x="835" 
d="M288 1283l14 76h553l-14 -76h-553z" />
    <glyph glyph-name="fraction" unicode="&#x2044;" horiz-adv-x="330" 
d="M-318 18l976 1434l63 -38l-977 -1433z" />
    <glyph glyph-name="zerosuperior" unicode="&#x2070;" 
d="M150 948q29 146 86.5 259.5t146 182t195.5 68.5q80 0 136 -39.5t82 -108.5t30 -162t-19 -200q-43 -225 -155.5 -367.5t-271.5 -142.5q-80 0 -136.5 39.5t-82 108t-30 161.5t18.5 201zM234 948q-22 -125 -16.5 -221.5t51 -155t125.5 -58.5q120 0 205.5 121t122.5 314
q22 125 17 221.5t-50.5 155t-125.5 58.5q-119 0 -205 -121t-124 -314z" />
    <glyph glyph-name="uni2071" unicode="&#x2071;" 
d="M341 463l134 686h86l-134 -686h-86zM500 1373q5 26 26 43.5t47 17.5t40.5 -17.5t9.5 -43.5q-4 -25 -25.5 -42t-47.5 -17t-40.5 16.5t-9.5 42.5z" />
    <glyph glyph-name="foursuperior" unicode="&#x2074;" 
d="M76 682l13 68l603 684h80l-132 -677h135l-14 -75h-135l-43 -219h-85l43 219h-465zM189 757h366l104 536z" />
    <glyph glyph-name="fivesuperior" unicode="&#x2075;" 
d="M350 438q-90 0 -158.5 42t-103.5 113l70 51q30 -63 82.5 -98t121.5 -35q105 0 189.5 68t104.5 171q20 102 -37.5 170.5t-162.5 68.5q-60 0 -116 -29.5t-94 -75.5l-60 9l165 541h488l-15 -74h-410l-114 -360q78 61 182 61q133 0 209.5 -87.5t50.5 -222.5t-137.5 -224
t-254.5 -89z" />
    <glyph glyph-name="sixsuperior" unicode="&#x2076;" 
d="M713 1434l-333 -397q62 30 126 30q135 0 212 -90.5t52 -222.5q-27 -134 -140.5 -225t-249.5 -91q-137 0 -216 91t-52 225q16 89 76 162l432 518h93zM685 754q19 101 -39 170.5t-160 69.5t-186 -69.5t-103 -170.5q-20 -102 36.5 -172.5t158.5 -70.5t187.5 70.5
t105.5 172.5z" />
    <glyph glyph-name="sevensuperior" unicode="&#x2077;" 
d="M278 1434h593l-12 -64l-571 -907h-91l567 897h-501z" />
    <glyph glyph-name="eightsuperior" unicode="&#x2078;" 
d="M380 438q-139 0 -217.5 85t-54.5 209q17 87 84.5 158.5t164.5 104.5q-63 26 -91 84.5t-15 127.5q20 106 114 178.5t213 72.5t184.5 -72.5t45.5 -178.5q-13 -68 -65 -126.5t-126 -85.5q85 -33 125 -104.5t23 -158.5q-24 -124 -135 -209t-250 -85zM480 956
q-102 0 -184.5 -65t-100.5 -158q-19 -93 38 -157.5t160 -64.5q102 0 185 64.5t102 157.5q18 93 -40 158t-160 65zM494 1027q83 0 149.5 52.5t80.5 127.5t-32 126.5t-129 51.5t-148.5 -51.5t-79.5 -126.5q-14 -76 31 -128t128 -52z" />
    <glyph glyph-name="ninesuperior" unicode="&#x2079;" 
d="M245 463l333 396q-62 -30 -126 -30q-135 0 -212.5 91t-52.5 223q27 134 141 224.5t250 90.5q137 0 216 -90.5t52 -224.5q-16 -89 -77 -163l-431 -517h-93zM272 1143q-19 -101 39 -171t160 -70t186.5 70t103.5 171q20 102 -37.5 172t-159.5 70t-187 -70t-105 -172z" />
    <glyph glyph-name="uni207A" unicode="&#x207a;" 
d="M792 911h-278l-55 -286h-85l55 286h-278l15 75h278l56 286h85l-56 -286h278z" />
    <glyph glyph-name="uni207B" unicode="&#x207b;" 
d="M792 911h-641l15 75h641z" />
    <glyph glyph-name="uni207C" unicode="&#x207c;" 
d="M762 756h-641l14 74h641zM822 1067h-641l15 75h641z" />
    <glyph glyph-name="uni207D" unicode="&#x207d;" 
d="M402 948q33 166 124 318.5t223 272.5l52 -41q-119 -115 -201 -256.5t-112 -293.5q-28 -157 -2 -296t101 -254l-69 -41q-85 120 -116.5 272.5t0.5 318.5z" />
    <glyph glyph-name="uni207E" unicode="&#x207e;" 
d="M554 948q-32 -166 -122.5 -318.5t-222.5 -272.5l-52 41q119 115 200.5 257t110.5 293q29 158 3 296t-100 254l68 41q85 -121 115.5 -269t-0.5 -322z" />
    <glyph glyph-name="uni207F" unicode="&#x207f;" 
d="M547 1163q115 0 175 -77t37 -193l-84 -430h-84l83 427q17 84 -26 141.5t-126 57.5q-85 0 -163.5 -63.5t-96.5 -152.5l-80 -410h-84l134 686h84l-23 -120q50 63 117 98.5t137 35.5z" />
    <glyph glyph-name="zeroinferior" unicode="&#x2080;" 
d="M8 217q28 146 85.5 259.5t146.5 182t196 68.5q80 0 136.5 -39.5t82 -108.5t30 -162t-18.5 -200q-29 -147 -86.5 -260t-146 -181.5t-195.5 -68.5q-80 0 -136.5 39.5t-82 108t-30 161.5t18.5 201zM93 217q-22 -125 -17 -221.5t50.5 -155t125.5 -58.5q120 0 205.5 121
t123.5 314q22 125 16.5 221.5t-51 155t-125.5 58.5q-119 0 -205 -121t-123 -314z" />
    <glyph glyph-name="oneinferior" unicode="&#x2081;" 
d="M469 702h73l-189 -970h-85l171 880l-244 -123l-22 65z" />
    <glyph glyph-name="twoinferior" unicode="&#x2082;" 
d="M490 190l-418 -386h458l-13 -72h-574l12 64l477 438q131 120 152 234q15 78 -34 132t-139 54q-96 0 -166 -59.5t-100 -154.5h-82q33 127 133.5 207t228.5 80q126 0 196.5 -74.5t48.5 -184.5q-24 -133 -180 -278z" />
    <glyph glyph-name="threeinferior" unicode="&#x2083;" 
d="M513 16q19 99 -41.5 168t-164.5 69q-42 0 -89 -13l-27 44l377 345h-429l15 73h535l-13 -66l-352 -321q140 -5 220 -88t54 -215q-25 -127 -138 -216t-258 -89q-183 0 -258 165l57 41q38 -68 86.5 -100.5t127.5 -32.5q105 0 191.5 67.5t106.5 168.5z" />
    <glyph glyph-name="fourinferior" unicode="&#x2084;" 
d="M-67 -49l14 67l603 684h80l-132 -676h135l-15 -75h-135l-42 -219h-85l42 219h-465zM47 26h366l104 536z" />
    <glyph glyph-name="fiveinferior" unicode="&#x2085;" 
d="M208 -293q-90 0 -158.5 42t-103.5 113l69 51q30 -63 83.5 -98t122.5 -35q106 0 189.5 67.5t103.5 170.5q20 102 -38 171t-163 69q-60 0 -116 -29.5t-94 -75.5l-59 9l165 540h487l-14 -73h-411l-112 -360q76 61 181 61q133 0 210 -88t50 -223q-26 -135 -137.5 -223.5
t-254.5 -88.5z" />
    <glyph glyph-name="sixinferior" unicode="&#x2086;" 
d="M570 702l-331 -396q60 30 125 30q135 0 212.5 -90.5t51.5 -222.5q-26 -134 -140 -225t-250 -91q-137 0 -216 91t-53 225q16 88 78 162l430 517h93zM543 23q19 101 -39 170.5t-160 69.5t-186.5 -69.5t-103.5 -170.5q-20 -102 37.5 -172.5t159.5 -70.5t187 70.5t105 172.5z
" />
    <glyph glyph-name="seveninferior" unicode="&#x2087;" 
d="M135 702h594l-12 -63l-571 -907h-91l567 897h-501z" />
    <glyph glyph-name="eightinferior" unicode="&#x2088;" 
d="M238 -293q-139 0 -218 85t-54 209q17 87 85 158.5t165 104.5q-64 26 -92 84.5t-15 127.5q21 106 115 178.5t212 72.5q119 0 185 -73t45 -178q-13 -68 -65 -126.5t-125 -85.5q84 -33 124.5 -104.5t23.5 -158.5q-25 -124 -136 -209t-250 -85zM338 225q-102 0 -185 -65
t-101 -158q-19 -93 39 -157.5t161 -64.5q102 0 184.5 64.5t101.5 157.5q18 93 -40 158t-160 65zM352 296q83 0 149.5 52.5t80.5 127.5t-31.5 126.5t-128.5 51.5t-149 -51.5t-80 -126.5q-14 -76 31 -128t128 -52z" />
    <glyph glyph-name="nineinferior" unicode="&#x2089;" 
d="M103 -268l332 396q-62 -30 -126 -30q-135 0 -212 91t-51 223q26 134 140 224.5t250 90.5q137 0 216 -90.5t53 -224.5q-18 -90 -78 -163l-430 -517h-94zM131 412q-20 -101 38 -171t160 -70q101 0 186 70t105 171q20 102 -37.5 172t-159.5 70t-187 -70t-105 -172z" />
    <glyph glyph-name="uni208A" unicode="&#x208a;" 
d="M650 180h-277l-57 -286h-85l57 286h-279l15 75h278l55 286h85l-55 -286h278z" />
    <glyph glyph-name="uni208B" unicode="&#x208b;" 
d="M650 180h-641l15 75h641z" />
    <glyph glyph-name="uni208C" unicode="&#x208c;" 
d="M620 25h-642l15 74h641zM680 336h-641l14 75h641z" />
    <glyph glyph-name="uni208D" unicode="&#x208d;" 
d="M261 217q32 166 122.5 318.5t222.5 272.5l52 -41q-119 -115 -200.5 -257t-110.5 -293q-28 -157 -2.5 -296t99.5 -254l-67 -41q-85 120 -116 269t0 322z" />
    <glyph glyph-name="uni208E" unicode="&#x208e;" 
d="M413 217q-32 -166 -123 -318t-222 -273l-54 41q120 115 202 257t111 293q28 157 2 296t-101 254l69 41q85 -120 116.5 -272.5t-0.5 -318.5z" />
    <glyph glyph-name="uni2090" unicode="&#x2090;" 
d="M349 424q81 0 140 -36.5t90 -100.5l23 123h85l-133 -689h-85l24 122q-120 -136 -283 -136q-141 0 -211.5 103.5t-40.5 255.5t140 255t251 103zM234 -219q108 0 193 82t109 203q24 120 -29 201.5t-162 81.5t-193.5 -81t-108.5 -202t29 -203t162 -82z" />
    <glyph glyph-name="uni2091" unicode="&#x2091;" 
d="M634 40h-583q-14 -110 45 -185t169 -75q134 0 250 119l44 -54q-63 -64 -143 -101t-164 -37q-154 0 -232 104t-49 255q29 149 147.5 253.5t264.5 104.5q143 0 217 -98.5t46 -241.5q-4 -24 -12 -44zM369 351q-99 0 -184 -69.5t-118 -171.5h498q11 107 -43 174t-153 67z" />
    <glyph glyph-name="uni2092" unicode="&#x2092;" 
d="M252 -219q110 0 202.5 83t115.5 202q23 118 -37.5 200.5t-170.5 82.5q-111 0 -203.5 -82t-115.5 -201t37.5 -202t171.5 -83zM377 424q147 0 227 -104t51 -254t-149.5 -254.5t-267.5 -104.5t-228 104.5t-52 254.5t150.5 254t268.5 104z" />
    <glyph glyph-name="uni2093" unicode="&#x2093;" 
d="M20 -279h-97l336 355l-187 334h97l153 -270l257 270h97l-317 -334l199 -355h-97l-164 290z" />
    <glyph glyph-name="uni2094" unicode="&#x2094;" 
d="M-19 91h582q14 110 -45 185t-169 75q-134 0 -250 -119l-44 54q63 64 143 101t164 37q154 0 232 -103.5t49 -254.5q-29 -149 -147.5 -254t-264.5 -105q-143 0 -217 98.5t-47 241.5q7 30 14 44zM246 -220q99 0 184 70t118 172h-499q-11 -107 43.5 -174.5t153.5 -67.5z" />
    <glyph glyph-name="uni20A0" unicode="&#x20a0;" horiz-adv-x="1563" 
d="M144 944q27 141 118 259.5t223 186.5t274 68q139 0 243 -70t125 -205h-93q-21 95 -104 144.5t-187 49.5q-178 0 -325 -125.5t-182 -307.5q-23 -119 13.5 -218t122.5 -156t203 -57q145 0 274 80l78 400h591l-16 -80h-500l-72 -373h467l-16 -80h-467l-73 -380h512l-16 -80
h-603l96 500q-132 -68 -270 -68q-142 0 -247.5 68t-151 185.5t-17.5 258.5z" />
    <glyph glyph-name="colonmonetary" unicode="&#x20a1;" horiz-adv-x="1552" 
d="M531 -209l71 191q-79 10 -158 41l-86 -232h-78l98 264q-158 92 -227 268t-27 394q37 191 148.5 352t274.5 262t349 122l71 189h79l-69 -184h8q82 0 159 -17l75 201h78l-83 -222q148 -53 238 -168.5t100 -275.5h-102q-12 121 -82.5 215.5t-184.5 141.5l-473 -1274h4
q178 0 342.5 90t276.5 241l62 -45q-127 -173 -310.5 -271.5t-387.5 -98.5q-3 0 -9 0.5t-9 0.5l-69 -185h-79zM219 717q-36 -181 16.5 -332.5t176.5 -237.5l452 1218q-236 -37 -417 -219.5t-228 -428.5zM476 111q69 -34 157 -46l479 1292q-70 17 -143 17q-16 0 -24 -1z" />
    <glyph glyph-name="uni20A2" unicode="&#x20a2;" horiz-adv-x="1552" 
d="M1333 390l62 -45q-127 -173 -310.5 -271.5t-387.5 -98.5q-152 0 -275 57t-197 157t-104 235.5t3 292.5q40 207 165.5 376.5t309 267t386.5 97.5q240 0 397 -131.5t170 -350.5h-102q-17 174 -149.5 286t-331.5 112q-175 0 -335.5 -88t-270 -238.5t-144.5 -330.5
q-33 -166 8 -307.5t147 -232.5t257 -112l152 788h93l-34 -175q70 94 168.5 147t214.5 53q36 0 74 -8l-26 -86q-41 11 -85 11q-137 0 -251 -108.5t-144 -260.5l-71 -367q175 2 337.5 91.5t273.5 239.5z" />
    <glyph glyph-name="franc" unicode="&#x20a3;" horiz-adv-x="1119" 
d="M179 0l99 510h-218l15 71h217l29 149h-218l14 70h217l124 634h775l-16 -83h-681l-108 -551h400l-13 -70h-400l-29 -149h400l-14 -71h-400l-99 -510h-94z" />
    <glyph glyph-name="lira" unicode="&#x20a4;" horiz-adv-x="1154" 
d="M92 569h253q-5 79 -21 151h-203l13 70h172q-32 147 -11 257q34 172 178.5 291.5t319.5 119.5q155 0 253.5 -97.5t90.5 -256.5h-90q1 125 -78.5 197.5t-192.5 72.5q-135 0 -247 -95t-139 -232q-19 -104 18 -257h438l-13 -70h-408q13 -75 16 -151h363l-14 -69h-352
q-2 -27 -6 -47q-21 -106 -84.5 -204t-151.5 -165h750l-15 -84h-880l16 81q106 72 178 170.5t92 201.5q4 20 6 47h-265z" />
    <glyph glyph-name="uni20A6" unicode="&#x20a6;" horiz-adv-x="1468" 
d="M86 642h152l29 150h-151l13 67h152l111 575h89l275 -575h470l111 575h93l-112 -575h150l-13 -67h-150l-30 -150h150l-12 -68h-150l-112 -574h-89l-276 574h-469l-111 -574h-92l111 574h-151zM453 1272l-80 -413h277zM893 574l197 -412l80 412h-277zM359 792l-29 -150h424
l-71 150h-324zM788 792l71 -150h324l29 150h-424z" />
    <glyph glyph-name="peseta" unicode="&#x20a7;" horiz-adv-x="1165" 
d="M1241 974h-75q-47 -179 -198.5 -285.5t-361.5 -106.5h-313l-113 -582h-94l188 974h-113l14 69h114l76 391h407q209 0 320 -106t89 -285h74zM621 665q168 0 290 84t160 225h-702l-60 -309h312zM442 1351l-59 -308h702q14 140 -75 224t-256 84h-312z" />
    <glyph glyph-name="uni20A9" unicode="&#x20a9;" horiz-adv-x="1986" 
d="M63 647h282l-14 149h-238l12 67h219l-56 571h101l51 -571h422l276 571h103l53 -571h422l274 571h101l-279 -571h218l-12 -67h-239l-72 -149h281l-12 -67h-302l-282 -580h-102l-56 580h-422l-280 -580h-102l-58 580h-301zM1146 1313l-218 -450h259zM446 580l41 -450
l219 450h-260zM1302 580l41 -450l217 450h-258zM896 796l-73 -149h384l-13 149h-298zM1281 796l13 -149h297l73 149h-383zM427 796l12 -149h298l73 149h-383z" />
    <glyph glyph-name="afii57636" unicode="&#x20aa;" horiz-adv-x="1746" 
d="M86 0l279 1434h463q140 0 239.5 -66.5t139 -181.5t12.5 -255l-77 -394h-94l76 394q23 117 -9.5 213t-112 151.5t-190.5 55.5h-370l-262 -1351h-94zM1735 1434l-279 -1434h-464q-140 0 -239.5 66.5t-139 181.5t-12.5 255l77 394h94l-77 -394q-35 -178 54.5 -299
t258.5 -121h369l263 1351h95z" />
    <glyph glyph-name="dong" unicode="&#x20ab;" horiz-adv-x="1351" 
d="M777 1229l15 75h401l37 191h92l-37 -191h174l-14 -75h-174l-239 -1229h-92l46 238q-91 -121 -219 -192t-275 -71q-152 0 -256.5 76.5t-143 202.5t-9.5 276t116.5 276t222 202.5t286.5 76.5q147 0 248 -70.5t144 -191.5l79 406h-402zM518 58q191 0 338.5 138t185.5 334
q25 127 -7 234t-119.5 172.5t-214.5 65.5q-191 0 -339 -138t-186 -334q-25 -127 7.5 -234t120 -172.5t214.5 -65.5zM204 -296l15 76h691l-15 -76h-691z" />
    <glyph glyph-name="Euro" unicode="&#x20ac;" horiz-adv-x="1639" 
d="M53 622h144q5 53 14 95q10 51 22 94h-143l14 71h155q101 254 325 415t488 161q240 0 397 -131.5t170 -350.5h-102q-17 174 -149.5 286t-331.5 112q-223 0 -415 -137.5t-285 -354.5h685l-34 -71h-677q-18 -62 -24 -94q-10 -47 -13 -95h641l-34 -71h-607
q8 -217 146.5 -354.5t361.5 -137.5q178 0 342.5 90t276.5 241l62 -45q-127 -173 -310.5 -271.5t-387.5 -98.5q-131 0 -241 43t-185.5 119t-118 182.5t-44.5 231.5h-155z" />
    <glyph glyph-name="ruble" unicode="&#x20bd;" horiz-adv-x="1165" 
d="M688 339h-442l-66 -339h-94l66 339h-114l13 70h114l34 173h-114l16 83h114l150 769h407q220 0 330.5 -116.5t73.5 -309.5t-193.5 -309.5t-376.5 -116.5h-313l-34 -173h442zM1080 1008q30 156 -58.5 249.5t-267.5 93.5h-312l-133 -686h312q179 0 304 93.5t155 249.5z" />
    <glyph glyph-name="afii61248" unicode="&#x2105;" horiz-adv-x="2082" 
d="M1483 53q146 0 267 103t150 253q29 149 -52 252t-227 103q-147 0 -268.5 -103t-150.5 -252q-29 -150 52.5 -253t228.5 -103zM1635 843q185 0 287.5 -126t67.5 -308q-23 -120 -100 -220t-189.5 -157.5t-233.5 -57.5q-185 0 -287.5 126t-67.5 309q23 119 100 219
t189.5 157.5t233.5 57.5zM521 18l978 1434l67 -40l-979 -1434zM848 819l54 -50q-76 -85 -174 -132t-208 -47q-185 0 -287 125.5t-67 308.5q36 183 182.5 308.5t330.5 125.5q136 0 227.5 -72.5t111.5 -196.5h-96q-23 89 -90.5 139.5t-167.5 50.5q-146 0 -262.5 -102.5
t-145.5 -252.5t52 -252.5t228 -102.5q181 0 312 150z" />
    <glyph glyph-name="uni2109" unicode="&#x2109;" horiz-adv-x="1591" 
d="M626 0l278 1434h775l-16 -83h-681l-114 -587h624l-16 -83h-624l-132 -681h-94zM253 1182q-17 -83 28.5 -140.5t127.5 -57.5q81 0 148.5 57.5t84.5 140.5q16 82 -29.5 139.5t-127.5 57.5q-81 0 -148 -57t-84 -140zM176 1182q22 112 116 190t208 78t177.5 -77.5
t41.5 -190.5q-23 -113 -116.5 -191t-207.5 -78t-177.5 78.5t-41.5 190.5z" />
    <glyph glyph-name="afii61289" unicode="&#x2113;" horiz-adv-x="1125" 
d="M563 -25q-155 0 -236 104.5t-51 260.5l13 64l-213 -80l-14 79q123 45 245 95l117 600q29 152 152.5 256t273.5 104q151 0 233.5 -104t53.5 -256l-9 -42q-35 -180 -214 -322.5t-523 -288.5l-20 -106q-23 -118 38.5 -199.5t170.5 -81.5q93 0 175 55.5t145 162.5l70 -46
q-75 -123 -180 -189t-227 -66zM1035 1061l6 32q23 120 -37 201t-169 81q-110 0 -202.5 -81t-115.5 -201l-106 -550q296 128 445 246t179 272z" />
    <glyph glyph-name="afii61352" unicode="&#x2116;" horiz-adv-x="2224" 
d="M86 0l279 1434h91l498 -1256l245 1256h92l-278 -1434h-91l-500 1255l-244 -1255h-92zM1964 0h-768l15 81h768zM1308 682q32 164 171 277.5t309 113.5t265.5 -113.5t63.5 -277.5t-171.5 -277.5t-309.5 -113.5t-265 113.5t-63 277.5zM1399 682q-26 -131 47 -220.5
t206 -89.5q132 0 240 89.5t133 220.5q26 131 -47 220.5t-205 89.5q-133 0 -240.5 -89.5t-133.5 -220.5z" />
    <glyph glyph-name="uni2117" unicode="&#x2117;" horiz-adv-x="1630" 
d="M856 631h-165v-301h-78v771h243q119 0 194 -65t75 -170t-75 -170t-194 -65zM1048 866q0 73 -53.5 118t-139.5 45h-164v-327h164q86 0 139.5 45.5t53.5 118.5zM74 717q0 153 58 290t157 236t236 157t290 58t290 -58t236 -157t157 -236t58 -290t-58 -290.5t-157 -236.5
t-236 -157t-290 -58t-290 58t-236 157t-157 236.5t-58 290.5zM141 717q0 -186 89.5 -342t244.5 -246.5t340 -90.5t340 90.5t244.5 246.5t89.5 342t-89.5 342t-244.5 246.5t-340 90.5t-340 -90.5t-244.5 -246.5t-89.5 -342z" />
    <glyph glyph-name="uni2120" unicode="&#x2120;" horiz-adv-x="1568" 
d="M141 802l50 43q80 -114 192 -114q80 0 140.5 39.5t72.5 100.5q22 116 -161 161q-109 27 -160.5 81.5t-36.5 131.5q18 88 95.5 144.5t189.5 56.5q91 0 150 -52t57 -139h-74q-1 55 -42.5 89t-99.5 34q-78 0 -132 -37t-64 -92q-11 -54 30.5 -91t124.5 -58q237 -60 204 -227
q-17 -91 -102 -150t-202 -59q-74 0 -135.5 37.5t-96.5 100.5zM1157 790h-51l-162 479l-115 -593h-78l147 758h71l181 -552l396 552h71l-148 -758h-78l114 593z" />
    <glyph glyph-name="uni2121" unicode="&#x2121;" horiz-adv-x="2159" 
d="M903 507q-21 -122 5.5 -225t98 -164.5t174.5 -61.5q86 0 174.5 49.5t163.5 138.5l52 -62q-83 -97 -188 -152t-216 -55q-133 0 -224 75.5t-124 202t-4 277.5q29 150 111.5 277t200.5 202.5t245 75.5q123 0 209 -70.5t117.5 -190.5t3.5 -264q-5 -27 -14 -53h-785z
M1356 1005q-139 0 -263.5 -122.5t-171.5 -296.5h693q25 182 -47 300.5t-211 118.5zM389 0l262 1351h-424l17 83h940l-17 -83h-424l-262 -1351h-92zM1779 0l289 1495h91l-290 -1495h-90z" />
    <glyph glyph-name="trademark" unicode="&#x2122;" horiz-adv-x="1546" 
d="M318 676l135 690h-226l14 68h529l-13 -68h-226l-134 -690h-79zM1137 790h-52l-161 479l-115 -593h-79l148 758h70l181 -552l397 552h70l-147 -758h-79l115 593z" />
    <glyph glyph-name="Omega" unicode="&#x2126;" horiz-adv-x="1593" 
d="M1442 745q18 88 11.5 168.5t-31 150.5t-69.5 127t-102.5 97.5t-132 63t-157.5 22.5q-124 0 -245.5 -49.5t-218 -133.5t-166.5 -200.5t-95 -245.5q-83 -427 355 -663l-16 -82h-563l16 84h425q-204 119 -278 291t-34 376q38 194 162 356.5t303 256.5t371 94t334.5 -94
t203.5 -256.5t23 -356.5q-40 -204 -180 -376t-391 -291h425l-16 -84h-563l15 82q532 237 614 663z" />
    <glyph glyph-name="estimated" unicode="&#x212e;" horiz-adv-x="1646" 
d="M430 685l-97 -498q151 -149 395 -149q166 0 324.5 75t280.5 209l46 -38q-133 -147 -307.5 -228t-355.5 -81q-153 0 -279 58t-205.5 157t-111 236.5t-1.5 290.5q29 153 114 290t203 236t266.5 157t301.5 58t279 -58t206 -157t111 -236t2 -290l-7 -32h-1165zM991 1396
q-241 0 -452 -151l-98 -497h848l97 497q-71 70 -172.5 110.5t-222.5 40.5z" />
    <glyph glyph-name="onethird" unicode="&#x2153;" horiz-adv-x="1917" 
d="M611 1434h73l-189 -971h-85l172 880l-245 -122l-23 64zM474 18l978 1434l62 -38l-977 -1433zM1689 285q19 99 -42 167.5t-165 68.5q-42 0 -88 -13l-27 44l377 345h-429l14 74h536l-14 -67l-352 -320q140 -5 220.5 -88.5t54.5 -214.5q-25 -127 -138.5 -216.5t-258.5 -89.5
q-183 0 -258 165l58 41q38 -68 86.5 -100.5t127.5 -32.5q105 0 191.5 68t106.5 169z" />
    <glyph glyph-name="twothirds" unicode="&#x2154;" horiz-adv-x="1917" 
d="M632 922l-418 -386h459l-15 -73h-574l13 64l477 439q131 120 152 233q15 78 -34 132t-140 54q-95 0 -164.5 -59.5t-99.5 -154.5h-82q33 128 133 207.5t227 79.5t197.5 -74.5t48.5 -184.5q-26 -135 -180 -277zM474 18l978 1434l62 -38l-977 -1433zM1689 285
q19 99 -42 167.5t-165 68.5q-42 0 -88 -13l-27 44l377 345h-429l14 74h536l-14 -67l-352 -320q140 -5 220.5 -88.5t54.5 -214.5q-25 -127 -138.5 -216.5t-258.5 -89.5q-183 0 -258 165l58 41q38 -68 86.5 -100.5t127.5 -32.5q105 0 191.5 68t106.5 169z" />
    <glyph glyph-name="onefifth" unicode="&#x2155;" horiz-adv-x="1917" 
d="M611 1434h73l-189 -971h-85l172 880l-245 -122l-23 64zM474 18l978 1434l62 -38l-977 -1433zM1382 -27q-90 0 -158.5 42t-102.5 113l70 51q30 -63 83 -98t122 -35q105 0 189 68t105 171q20 102 -38 170.5t-163 68.5q-60 0 -116.5 -29.5t-93.5 -75.5l-59 9l163 541h488
l-14 -74h-411l-113 -359q77 60 183 60q133 0 209.5 -87.5t50.5 -222.5q-27 -135 -139 -224t-255 -89z" />
    <glyph glyph-name="twofifths" unicode="&#x2156;" horiz-adv-x="1917" 
d="M632 922l-418 -386h459l-15 -73h-574l13 64l477 439q131 120 152 233q15 78 -34 132t-140 54q-95 0 -164.5 -59.5t-99.5 -154.5h-82q33 128 133 207.5t227 79.5t197.5 -74.5t48.5 -184.5q-26 -135 -180 -277zM474 18l978 1434l62 -38l-977 -1433zM1382 -27
q-90 0 -158.5 42t-102.5 113l70 51q30 -63 83 -98t122 -35q105 0 189 68t105 171q20 102 -38 170.5t-163 68.5q-60 0 -116.5 -29.5t-93.5 -75.5l-59 9l163 541h488l-14 -74h-411l-113 -359q77 60 183 60q133 0 209.5 -87.5t50.5 -222.5q-27 -135 -139 -224t-255 -89z" />
    <glyph glyph-name="threefifths" unicode="&#x2157;" horiz-adv-x="1917" 
d="M654 748q20 99 -40.5 167.5t-164.5 68.5q-43 0 -89 -13l-26 44l377 345h-429l14 74h535l-13 -67l-352 -320q140 -5 220 -88.5t54 -215.5q-25 -127 -138 -216t-258 -89q-183 0 -258 165l57 41q38 -68 86.5 -100.5t126.5 -32.5q105 0 192 68.5t106 168.5zM474 18l978 1434
l62 -38l-977 -1433zM1382 -27q-90 0 -158.5 42t-102.5 113l70 51q30 -63 83 -98t122 -35q105 0 189 68t105 171q20 102 -38 170.5t-163 68.5q-60 0 -116.5 -29.5t-93.5 -75.5l-59 9l163 541h488l-14 -74h-411l-113 -359q77 60 183 60q133 0 209.5 -87.5t50.5 -222.5
q-27 -135 -139 -224t-255 -89z" />
    <glyph glyph-name="fourfifths" unicode="&#x2158;" horiz-adv-x="1917" 
d="M76 682l13 68l603 684h80l-132 -677h135l-14 -75h-135l-43 -219h-85l43 219h-465zM189 757h366l104 536zM474 18l978 1434l62 -38l-977 -1433zM1382 -27q-90 0 -158.5 42t-102.5 113l70 51q30 -63 83 -98t122 -35q105 0 189 68t105 171q20 102 -38 170.5t-163 68.5
q-60 0 -116.5 -29.5t-93.5 -75.5l-59 9l163 541h488l-14 -74h-411l-113 -359q77 60 183 60q133 0 209.5 -87.5t50.5 -222.5q-27 -135 -139 -224t-255 -89z" />
    <glyph glyph-name="onesixth" unicode="&#x2159;" horiz-adv-x="1917" 
d="M611 1434h73l-189 -971h-85l172 880l-245 -122l-23 64zM474 18l978 1434l62 -38l-977 -1433zM1745 971l-332 -397q60 30 125 30q135 0 212.5 -90.5t51.5 -222.5q-27 -134 -140.5 -225t-249.5 -91q-137 0 -216 91t-52 225q16 90 78 163l430 517h93zM1717 291
q19 101 -38.5 170.5t-159.5 69.5t-186.5 -69.5t-103.5 -170.5q-20 -102 37 -172.5t159 -70.5t187 70.5t105 172.5z" />
    <glyph glyph-name="fivesixths" unicode="&#x215a;" horiz-adv-x="1917" 
d="M350 438q-90 0 -158.5 42t-103.5 113l70 51q30 -63 82.5 -98t121.5 -35q105 0 189.5 68t104.5 171q20 102 -37.5 170.5t-162.5 68.5q-60 0 -116 -29.5t-94 -75.5l-60 9l165 541h488l-15 -74h-410l-114 -360q78 61 182 61q133 0 209.5 -87.5t50.5 -222.5t-137.5 -224
t-254.5 -89zM474 18l978 1434l62 -38l-977 -1433zM1745 971l-332 -397q60 30 125 30q135 0 212.5 -90.5t51.5 -222.5q-27 -134 -140.5 -225t-249.5 -91q-137 0 -216 91t-52 225q16 90 78 163l430 517h93zM1717 291q19 101 -38.5 170.5t-159.5 69.5t-186.5 -69.5
t-103.5 -170.5q-20 -102 37 -172.5t159 -70.5t187 70.5t105 172.5z" />
    <glyph glyph-name="oneeighth" unicode="&#x215b;" horiz-adv-x="1917" 
d="M611 1434h73l-189 -971h-85l172 880l-245 -122l-23 64zM474 18l978 1434l62 -38l-977 -1433zM1412 -27q-139 0 -217 85t-54 209q17 87 85 158.5t165 104.5q-63 27 -92 85t-16 127q21 106 115 178.5t213 72.5t184.5 -72.5t44.5 -178.5q-13 -69 -64 -127t-125 -85
q85 -33 124.5 -104.5t22.5 -158.5q-24 -124 -135.5 -209t-250.5 -85zM1513 492q-102 0 -184.5 -65.5t-101.5 -158.5q-18 -93 39.5 -157.5t159.5 -64.5q103 0 185.5 64.5t100.5 157.5q19 93 -39 158.5t-160 65.5zM1527 562q83 0 149 52.5t80 127.5t-31.5 127t-128.5 52
t-149 -52t-80 -127q-14 -76 31.5 -128t128.5 -52z" />
    <glyph glyph-name="threeeighths" unicode="&#x215c;" horiz-adv-x="1917" 
d="M654 748q20 99 -40.5 167.5t-164.5 68.5q-43 0 -89 -13l-26 44l377 345h-429l14 74h535l-13 -67l-352 -320q140 -5 220 -88.5t54 -215.5q-25 -127 -138 -216t-258 -89q-183 0 -258 165l57 41q38 -68 86.5 -100.5t126.5 -32.5q105 0 192 68.5t106 168.5zM474 18l978 1434
l62 -38l-977 -1433zM1412 -27q-139 0 -217 85t-54 209q17 87 85 158.5t165 104.5q-63 27 -92 85t-16 127q21 106 115 178.5t213 72.5t184.5 -72.5t44.5 -178.5q-13 -69 -64 -127t-125 -85q85 -33 124.5 -104.5t22.5 -158.5q-24 -124 -135.5 -209t-250.5 -85zM1513 492
q-102 0 -184.5 -65.5t-101.5 -158.5q-18 -93 39.5 -157.5t159.5 -64.5q103 0 185.5 64.5t100.5 157.5q19 93 -39 158.5t-160 65.5zM1527 562q83 0 149 52.5t80 127.5t-31.5 127t-128.5 52t-149 -52t-80 -127q-14 -76 31.5 -128t128.5 -52z" />
    <glyph glyph-name="fiveeighths" unicode="&#x215d;" horiz-adv-x="1917" 
d="M350 438q-90 0 -158.5 42t-103.5 113l70 51q30 -63 82.5 -98t121.5 -35q105 0 189.5 68t104.5 171q20 102 -37.5 170.5t-162.5 68.5q-60 0 -116 -29.5t-94 -75.5l-60 9l165 541h488l-15 -74h-410l-114 -360q78 61 182 61q133 0 209.5 -87.5t50.5 -222.5t-137.5 -224
t-254.5 -89zM474 18l978 1434l62 -38l-977 -1433zM1412 -27q-139 0 -217 85t-54 209q17 87 85 158.5t165 104.5q-63 27 -92 85t-16 127q21 106 115 178.5t213 72.5t184.5 -72.5t44.5 -178.5q-13 -69 -64 -127t-125 -85q85 -33 124.5 -104.5t22.5 -158.5
q-24 -124 -135.5 -209t-250.5 -85zM1513 492q-102 0 -184.5 -65.5t-101.5 -158.5q-18 -93 39.5 -157.5t159.5 -64.5q103 0 185.5 64.5t100.5 157.5q19 93 -39 158.5t-160 65.5zM1527 562q83 0 149 52.5t80 127.5t-31.5 127t-128.5 52t-149 -52t-80 -127q-14 -76 31.5 -128
t128.5 -52z" />
    <glyph glyph-name="seveneighths" unicode="&#x215e;" horiz-adv-x="1917" 
d="M278 1434h593l-12 -64l-571 -907h-91l567 897h-501zM474 18l978 1434l62 -38l-977 -1433zM1412 -27q-139 0 -217 85t-54 209q17 87 85 158.5t165 104.5q-63 27 -92 85t-16 127q21 106 115 178.5t213 72.5t184.5 -72.5t44.5 -178.5q-13 -69 -64 -127t-125 -85
q85 -33 124.5 -104.5t22.5 -158.5q-24 -124 -135.5 -209t-250.5 -85zM1513 492q-102 0 -184.5 -65.5t-101.5 -158.5q-18 -93 39.5 -157.5t159.5 -64.5q103 0 185.5 64.5t100.5 157.5q19 93 -39 158.5t-160 65.5zM1527 562q83 0 149 52.5t80 127.5t-31.5 127t-128.5 52
t-149 -52t-80 -127q-14 -76 31.5 -128t128.5 -52z" />
    <glyph glyph-name="uni215F" unicode="&#x215f;" horiz-adv-x="1917" 
d="M611 1434h73l-189 -971h-85l172 880l-245 -122l-23 64zM474 18l978 1434l62 -38l-977 -1433z" />
    <glyph glyph-name="arrowleft" unicode="&#x2190;" horiz-adv-x="1761" 
d="M572 292l-461 387l461 388l56 -63l-348 -285h1408v-80h-1408l348 -284z" />
    <glyph glyph-name="arrowup" unicode="&#x2191;" horiz-adv-x="1761" 
d="M493 1038l387 462l388 -462l-64 -55l-284 348v-1408h-80v1408l-284 -348z" />
    <glyph glyph-name="arrowright" unicode="&#x2192;" horiz-adv-x="1761" 
d="M1651 679l-462 -387l-55 63l348 284h-1408v80h1408l-348 285l55 63z" />
    <glyph glyph-name="arrowdown" unicode="&#x2193;" horiz-adv-x="1761" 
d="M880 -41l-387 462l63 55l284 -348v1408h80v-1408l284 348l64 -55z" />
    <glyph glyph-name="arrowboth" unicode="&#x2194;" horiz-adv-x="1761" 
d="M572 292l-461 387l461 388l56 -63l-348 -285h1202l-348 285l55 63l462 -388l-462 -387l-55 63l348 284h-1202l348 -284z" />
    <glyph glyph-name="arrowupdn" unicode="&#x2195;" horiz-adv-x="1761" 
d="M494 1035l387 462l388 -462l-64 -55l-284 348v-1202l284 348l64 -55l-388 -462l-387 462l63 55l284 -348v1202l-284 -348z" />
    <glyph glyph-name="arrowupdnbse" unicode="&#x21a8;" horiz-adv-x="1761" 
d="M567 -180v78h627v-78h-627zM494 1035l387 462l388 -462l-64 -55l-284 348v-1202l284 348l64 -55l-388 -462l-387 462l63 55l284 -348v1202l-284 -348z" />
    <glyph glyph-name="partialdiff" unicode="&#x2202;" horiz-adv-x="1223" 
d="M68 443q25 128 111.5 236t212 170t259.5 62q139 0 239.5 -63.5t163.5 -158.5q32 155 26 281t-44 216t-115 139.5t-188 49.5q-194 0 -367 -151l-29 74q89 76 196 118t216 42q170 0 278 -93t139 -258.5t-10 -393.5q-66 -342 -250.5 -540t-431.5 -198q-138 0 -240 62
t-146.5 169.5t-19.5 236.5zM640 828q-169 0 -308 -112t-170 -273q-31 -162 63.5 -273.5t264.5 -111.5q185 0 326.5 137t213.5 390q-64 112 -162 177.5t-228 65.5z" />
    <glyph glyph-name="Delta" unicode="&#x2206;" horiz-adv-x="1366" 
d="M909 1434l289 -1434h-1235l846 1434h100zM838 1324l-724 -1241h964z" />
    <glyph glyph-name="product" unicode="&#x220f;" horiz-adv-x="1368" 
d="M1371 1516l-339 -1743h-94l323 1660h-803l-323 -1660h-94l339 1743h991z" />
    <glyph glyph-name="summation" unicode="&#x2211;" horiz-adv-x="1303" 
d="M10 -146l746 801l-439 780l16 81h1021l-17 -83h-906l426 -755l-8 -45l-725 -777h907l-16 -83h-1021z" />
    <glyph glyph-name="minus" unicode="&#x2212;" horiz-adv-x="1150" 
d="M1053 639h-912l16 81h911z" />
    <glyph glyph-name="uni2215" unicode="&#x2215;" horiz-adv-x="330" 
d="M-318 18l976 1434l63 -38l-977 -1433z" />
    <glyph glyph-name="uni2219" unicode="&#x2219;" horiz-adv-x="595" 
d="M246 675q6 34 33.5 57.5t62.5 23.5q34 0 53 -23t13 -58q-7 -34 -35 -57.5t-63 -23.5q-34 0 -52.5 23t-11.5 58z" />
    <glyph glyph-name="radical" unicode="&#x221a;" horiz-adv-x="1121" 
d="M432 0h-92l-231 768h104l189 -643l763 1452h98z" />
    <glyph glyph-name="infinity" unicode="&#x221e;" horiz-adv-x="1523" 
d="M738 680q-74 118 -132 169.5t-145 51.5q-100 0 -179 -63.5t-97 -157.5q-19 -94 35.5 -157.5t154.5 -63.5q87 0 164.5 51.5t198.5 169.5zM845 680q73 -117 131.5 -169t145.5 -52q99 0 178 63.5t98 157.5q18 94 -36.5 157.5t-153.5 63.5q-87 0 -165.5 -52t-197.5 -169z
M779 622q-127 -123 -221.5 -182t-200.5 -59q-134 0 -209.5 86t-50.5 213t133.5 213t242.5 86q56 0 102.5 -16.5t86.5 -51.5t71 -74t70 -99q127 123 221.5 182t200.5 59q134 0 210 -86t51 -213t-134 -213t-243 -86q-56 0 -102.5 16.5t-86.5 51.5t-71 74t-70 99z" />
    <glyph glyph-name="orthogonal" unicode="&#x221f;" horiz-adv-x="1222" 
d="M1073 83l-15 -83h-978l228 1178h94l-213 -1095h884z" />
    <glyph glyph-name="intersection" unicode="&#x2229;" horiz-adv-x="1280" 
d="M782 1264q100 0 183 -38.5t133.5 -105.5t72.5 -157.5t0 -193.5l-148 -769h-94l148 764q34 175 -55.5 296t-254.5 121t-301.5 -121t-170.5 -296l-149 -764h-94l149 769q41 207 209 351t372 144z" />
    <glyph glyph-name="integral" unicode="&#x222b;" horiz-adv-x="860" 
d="M259 -114l259 1332q33 174 136 266.5t271 92.5q48 0 98 -8l-15 -81q-35 7 -95 7q-249 0 -304 -280l-258 -1331q-34 -174 -137 -266.5t-270 -92.5q-48 0 -98 8l16 81q35 -7 93 -7q249 0 304 279z" />
    <glyph glyph-name="approxequal" unicode="&#x2248;" horiz-adv-x="1150" 
d="M616 858q-23 29 -38.5 46t-40.5 39.5t-52 33.5t-56 11q-153 0 -231 -221l-82 21q47 135 129.5 209t194.5 74q131 0 237 -137q23 -29 38.5 -46t40.5 -39.5t52 -33.5t56 -11q154 0 232 221l82 -21q-46 -135 -129.5 -209t-195.5 -74q-131 0 -237 137zM529 408
q-23 29 -38.5 46t-40.5 39.5t-52 33.5t-56 11q-154 0 -231 -222l-82 22q46 135 128.5 209t194.5 74q132 0 237 -138q22 -28 38 -46t41 -40t52.5 -33t56.5 -11q154 0 232 221l81 -21q-46 -135 -129 -209t-195 -74q-132 0 -237 138z" />
    <glyph glyph-name="notequal" unicode="&#x2260;" horiz-adv-x="1150" 
d="M1006 398h-557l-243 -340l-60 34l220 306h-272l16 81h313l289 402h-524l16 81h565l226 314l59 -34l-202 -280h263l-15 -81h-305l-289 -402h515z" />
    <glyph glyph-name="equivalence" unicode="&#x2261;" horiz-adv-x="1150" 
d="M1117 973h-911l16 81h912zM987 305h-911l16 81h912zM1053 639h-912l16 81h911z" />
    <glyph glyph-name="lessequal" unicode="&#x2264;" horiz-adv-x="1150" 
d="M306 784l691 -387l-51 -70l-761 423l14 69l924 423l25 -71zM929 0h-912l16 81h911z" />
    <glyph glyph-name="greaterequal" unicode="&#x2265;" horiz-adv-x="1150" 
d="M929 0h-912l16 81h911zM102 397l841 387l-690 387l51 71l761 -423l-13 -69l-925 -423z" />
    <glyph glyph-name="house" unicode="&#x2302;" horiz-adv-x="1280" 
d="M154 83h798l117 601l-305 481l-494 -481zM1031 0h-987l138 713l609 590l378 -590z" />
    <glyph glyph-name="revlogicalnot" unicode="&#x2310;" horiz-adv-x="1150" 
d="M233 639l-75 -388h-92l91 469h911l-15 -81h-820z" />
    <glyph glyph-name="uni2318" unicode="&#x2318;" horiz-adv-x="1650" 
d="M670 510h303l59 303h-303zM1165 1080l-38 -194h205q87 0 157 55.5t86 138.5t-32 139t-135 56q-88 0 -157 -56t-86 -139zM458 886h205l37 194q16 83 -31.5 139t-134.5 56q-88 0 -157 -56t-86 -139q-16 -83 31.5 -138.5t135.5 -55.5zM589 510l59 303h-205q-121 0 -188 77
t-45 190t119 190.5t218 77.5t188.5 -77.5t45.5 -190.5l-38 -194h304l37 194q22 113 119 190.5t218 77.5t189 -77.5t46 -190.5t-119.5 -190t-218.5 -77h-205l-59 -303h204q121 0 189 -77t46 -190q-23 -113 -120 -190.5t-218 -77.5t-188 77.5t-45 190.5l37 194h-303l-38 -194
q-23 -113 -119.5 -190.5t-217.5 -77.5t-188.5 77.5t-45.5 190.5t119 190t218 77h205zM1040 437l-38 -194q-16 -83 31.5 -139t135.5 -56q87 0 157 56t86 139t-32 138.5t-135 55.5h-205zM575 437h-204q-88 0 -157.5 -55.5t-85.5 -138.5t31.5 -139t135.5 -56q87 0 157 56
t86 139z" />
    </font>
</defs>
</svg>
