<svg width="234" height="703" viewBox="0 0 234 703" fill="none" xmlns="http://www.w3.org/2000/svg">
<path d="M134.499 602.284L131 642.57L159 640.199V605.839L134.499 602.284Z" fill="#FFB8B8"/>
<path d="M108.5 602.284L112 642.57L84 640.199V605.839L108.5 602.284Z" fill="#FFB8B8"/>
<path d="M182.554 293.085C182.554 293.085 192 349.928 192 358.218C192 366.508 188.458 419.799 182.554 430.457C176.651 441.115 175.47 445.852 177.832 450.589C180.193 455.326 179.012 454.142 177.832 457.695C176.651 461.248 174.289 460.063 177.832 464.8C179.278 466.886 180.053 469.365 180.053 471.906C180.053 474.446 179.278 476.926 177.832 479.011C175.47 482.564 182.554 578.488 173.109 585.593C163.663 592.699 161.302 616.384 161.302 616.384L130.603 612.831V586.778C130.603 586.778 123.519 567.83 128.242 555.987C132.965 544.145 135.326 481.38 135.326 481.38C135.326 481.38 134.145 475.459 135.326 471.906C136.507 468.353 135.326 465.985 132.965 464.8C130.603 463.616 129.423 458.879 129.423 458.879L125.88 372.429L111.712 457.695C111.712 457.695 125.88 573.751 111.712 589.146V616.384H81.0137L85.7365 586.778C85.7365 586.778 76.2908 559.54 81.0137 553.619C85.7365 547.697 66.8452 452.958 69.2066 449.405C71.568 445.852 70.3873 444.668 69.2066 442.3C68.0259 439.931 64.4838 437.563 65.6645 435.194C66.8452 432.826 65.6645 428.089 65.6645 428.089C65.6645 428.089 43.2311 316.769 53.8574 306.111C64.4838 295.453 182.554 293.085 182.554 293.085Z" fill="#2F2E41"/>
<path d="M137.62 626.723C137.62 626.723 139.952 615.292 158.608 619.22C158.608 619.22 163.271 629.106 163.271 633.874C163.271 638.641 167.935 670.821 167.935 670.821C167.935 670.821 186.591 703 163.271 703C139.952 703 131.791 694.657 130.625 686.314C129.459 677.972 131.791 675.588 127.127 672.012C122.463 668.437 120.131 668.437 121.297 663.67C122.463 658.902 124.795 635.066 124.795 635.066C124.795 635.066 125.961 617.188 132.374 621.955L138.786 626.723" fill="#2F2E41"/>
<path d="M104.38 626.723C104.38 626.723 102.048 615.292 83.3924 619.22C83.3924 619.22 78.7285 629.106 78.7285 633.874C78.7285 638.641 74.0647 670.821 74.0647 670.821C74.0647 670.821 55.4095 703 78.7285 703C102.048 703 110.209 694.657 111.375 686.314C112.541 677.972 110.209 675.588 114.873 672.012C119.537 668.437 121.869 668.437 120.703 663.67C119.537 658.902 117.205 635.066 117.205 635.066C117.205 635.066 116.039 617.188 109.626 621.955L103.214 626.723" fill="#2F2E41"/>
<path d="M139 75.5373C156.673 75.5373 171 61.1077 171 43.308C171 25.5083 156.673 11.0788 139 11.0788C121.327 11.0788 107 25.5083 107 43.308C107 61.1077 121.327 75.5373 139 75.5373Z" fill="#FFB8B8"/>
<path d="M113.312 47.3367C113.312 47.3367 100.416 98.5992 98.0713 99.7914C95.7266 100.984 152 105.752 152 105.752C152 105.752 137.932 61.6425 152 54.4896L113.312 47.3367Z" fill="#FFB8B8"/>
<path d="M104.794 78.5653L104.793 78.5587L66 105.643L73.0588 318.264C73.0588 318.264 124.824 312.325 136.588 313.512C148.353 314.7 186 302.822 186 302.822L169.51 103.031C169.188 99.1274 167.493 95.4686 164.732 92.7163C161.971 89.9639 158.326 88.2995 154.455 88.0239L147.39 87.5209C147.39 87.5209 140.332 105.165 119.095 96.0625C115.514 94.49 112.353 92.0853 109.867 89.0446C107.382 86.0039 105.644 82.4132 104.794 78.5653Z" fill="#D0CDE1"/>
<path d="M105.43 76.5444L57.7981 99.5862L48.4522 235.972C48.4522 235.972 29.7602 317.804 44.9474 341.523C60.1347 365.243 85.8362 367.615 85.8362 367.615C85.8362 367.615 119.715 231.228 110.369 184.976C101.023 138.723 105.43 76.5444 105.43 76.5444Z" fill="#575A89"/>
<path d="M15.0708 282.006V299.998C15.0708 299.998 7.92491 339.58 30.5534 338.38C53.182 337.181 42.4632 295.2 42.4632 295.2L35.3173 282.006H15.0708Z" fill="#FFB8B8"/>
<path d="M222.274 317.629L219.967 337.913C219.967 337.913 231.501 378.483 209.585 379.676C187.67 380.869 203.578 338.162 203.578 338.162L210.739 315.242L222.274 317.629Z" fill="#FFB8B8"/>
<path d="M146.927 83.5946C168.338 88.9076 188.179 99.2982 204.797 113.901L205 114.079L188.549 201.681L186.199 233.644C186.199 233.644 229.677 389.907 179.148 367.414C179.148 367.414 135.671 231.276 141.546 168.535C147.421 105.793 146.927 83.5946 146.927 83.5946Z" fill="#575A89"/>
<path d="M189.447 113.092C190.619 111.907 204.689 114.739 204.689 114.739C204.689 114.739 230.483 206.696 230.483 222.099C230.483 237.503 234 325.182 234 325.182L203.051 328.335L178 206.512L189.447 113.092Z" fill="#575A89"/>
<path d="M65.625 99.7092H57.4219C57.4219 99.7092 33.9844 109.2 32.8125 119.877C31.6406 130.554 0 238.512 0 238.512L8.20313 293.085L38.6719 288.339L44.5312 227.835L75 161.4L65.625 99.7092Z" fill="#575A89"/>
<path d="M132.831 52.0036L134.047 43.5282C134.331 41.5528 135.487 38.9554 137.41 39.4926C139.046 39.9496 142.608 41.3489 143.205 40.9265C145.439 39.3446 148.819 42.1107 151.169 40.7054C152.153 40.1166 152.795 38.8553 153.939 38.7711C154.706 38.8201 155.429 39.1475 155.972 39.692C157.497 41.0176 159.294 41.9933 161.237 42.5506C162.211 42.8159 163.239 42.8157 164.213 42.5502C165.188 42.2847 166.073 41.7635 166.779 41.0406C167.028 40.6555 167.363 40.334 167.759 40.1016C168.223 39.9678 168.718 39.9906 169.168 40.1663L175.17 41.7999C176.053 38.6005 176.234 35.2482 175.701 31.9723C175.169 28.6964 173.935 25.574 172.084 22.8186C169.649 19.5147 166.697 16.6249 163.342 14.2603C159.625 11.4336 155.789 8.77489 151.834 6.28415C147.641 3.31863 142.882 1.24882 137.853 0.203864C132.791 -0.564457 127.124 0.810141 123.94 4.81786C122.442 3.73445 121.317 2.21446 120.718 0.466354C120.361 0.791015 120.079 1.19007 119.893 1.63531C119.708 2.08055 119.622 2.56113 119.642 3.04314C119.662 3.52515 119.788 3.99684 120.011 4.4249C120.233 4.85296 120.547 5.22697 120.93 5.52051L115.854 2.28018C114.427 3.77792 117.215 6.49381 115.999 8.1674C115.632 8.58133 115.16 8.88931 114.633 9.05934C111.876 10.1332 109.35 11.7226 107.19 13.7423C104.454 16.8578 102.451 20.5461 101.328 24.5364C98.3027 33.2111 96.1042 43.1592 100.402 51.2793C100.889 52.1998 107.321 67.3941 108.177 67.9866C111.074 69.9894 109.188 65.1423 111.264 67.9866C112.891 70.217 112.587 61.6804 115.006 63.5542C115.954 64.2324 117.079 64.6213 118.243 64.6737C119.408 64.726 120.563 64.4397 121.569 63.8492C122.572 63.154 122.248 59.2936 121.707 55.7485C121.604 55.0733 121.668 54.383 121.893 53.7381C122.119 53.0932 122.499 52.5134 123.001 52.0496C123.502 51.5858 124.11 51.2522 124.771 51.0778C125.432 50.9035 126.125 50.8939 126.791 51.0497C129.803 51.7582 132.78 52.3635 132.831 52.0036Z" fill="#2F2E41"/>
<path opacity="0.2" d="M192 220.569L205 328.335H196.727L192 220.569Z" fill="black"/>
<path opacity="0.2" d="M55.8455 178.268L49 220.569L62 178.268H58.307H55.8455Z" fill="black"/>
</svg>
