<svg width="189" height="189" viewBox="0 0 189 189" fill="none" xmlns="http://www.w3.org/2000/svg">
<path d="M94.1923 147.006C123.377 147.006 147.035 123.354 147.035 94.1775C147.035 65.0013 123.377 41.3493 94.1923 41.3493C65.0079 41.3493 41.3492 65.0013 41.3492 94.1775C41.3492 123.354 65.0079 147.006 94.1923 147.006Z" fill="#121D50"/>
<path opacity="0.5" d="M95.4109 154.098C128.163 154.098 154.714 127.555 154.714 94.812C154.714 62.069 128.163 35.5255 95.4109 35.5255C62.6586 35.5255 36.1077 62.069 36.1077 94.812C36.1077 127.555 62.6586 154.098 95.4109 154.098Z" fill="url(#paint0_linear)"/>
<path d="M94.055 33.6142C92.2549 33.6142 90.5285 32.9057 89.2556 31.6445C87.9827 30.3834 87.2676 28.6729 87.2676 26.8894V6.71468C87.2703 4.9329 87.9866 3.225 89.2592 1.96605C90.5318 0.707104 92.2567 0 94.0551 0C95.8534 0 97.5783 0.707104 98.8509 1.96605C100.124 3.225 100.84 4.9329 100.843 6.71468V26.8894C100.843 27.7725 100.667 28.647 100.326 29.4629C99.9848 30.2788 99.4848 31.0201 98.8545 31.6446C98.2242 32.269 97.476 32.7644 96.6525 33.1023C95.829 33.4403 94.9464 33.6142 94.055 33.6142V33.6142Z" fill="#121D50"/>
<path d="M94.055 188.11C93.1637 188.11 92.2811 187.937 91.4576 187.599C90.6341 187.261 89.8858 186.766 89.2555 186.142C88.6253 185.518 88.1253 184.777 87.7842 183.962C87.4431 183.146 87.2676 182.272 87.2676 181.39V161.227C87.2662 160.344 87.4408 159.469 87.7813 158.652C88.1218 157.836 88.6215 157.093 89.2519 156.468C89.8823 155.843 90.631 155.347 91.4552 155.009C92.2794 154.67 93.1628 154.496 94.055 154.496C94.9473 154.496 95.8308 154.67 96.6549 155.009C97.4791 155.347 98.2278 155.843 98.8582 156.468C99.4886 157.093 99.9884 157.836 100.329 158.652C100.669 159.469 100.844 160.344 100.843 161.227V181.39C100.843 182.272 100.667 183.146 100.326 183.962C99.9848 184.777 99.4849 185.518 98.8546 186.142C98.2243 186.766 97.4761 187.261 96.6526 187.599C95.8291 187.937 94.9464 188.11 94.055 188.11V188.11Z" fill="#121D50"/>
<path d="M141.691 53.007C140.388 53.0069 139.115 52.6205 138.031 51.8965C136.948 51.1726 136.103 50.1436 135.605 48.9397C135.106 47.7358 134.976 46.4111 135.23 45.1331C135.484 43.8551 136.111 42.6811 137.033 41.7597L151.009 27.784C152.245 26.5496 153.92 25.8565 155.667 25.8571C157.413 25.8576 159.088 26.5517 160.324 27.7869C161.559 29.022 162.253 30.697 162.253 32.4437C162.254 34.1905 161.56 35.8658 160.326 37.1016L146.35 51.0774C145.739 51.69 145.013 52.1759 144.213 52.507C143.414 52.8382 142.557 53.0081 141.691 53.007V53.007Z" fill="#121D50"/>
<path d="M32.4448 162.253C31.1418 162.253 29.8682 161.867 28.7849 161.143C27.7015 160.419 26.8572 159.39 26.3586 158.187C25.86 156.983 25.7295 155.658 25.9836 154.38C26.2377 153.103 26.8651 151.929 27.7864 151.007L41.7607 137.033C42.9962 135.797 44.6718 135.103 46.419 135.103C48.1662 135.103 49.8419 135.797 51.0774 137.033C52.3129 138.268 53.007 139.944 53.007 141.691C53.007 143.438 52.313 145.114 51.0776 146.349L37.1032 160.324C36.4921 160.936 35.7659 161.422 34.9665 161.753C34.167 162.084 33.3101 162.254 32.4448 162.253V162.253Z" fill="#121D50"/>
<path d="M181.377 100.843H161.209C159.427 100.84 157.72 100.124 156.462 98.851C155.203 97.5784 154.496 95.8535 154.496 94.0552C154.496 92.2568 155.203 90.532 156.462 89.2594C157.72 87.9868 159.427 87.2704 161.209 87.2677H181.377C182.261 87.2663 183.136 87.4409 183.953 87.7814C184.77 88.1219 185.512 88.6216 186.138 89.2521C186.763 89.8825 187.259 90.6312 187.598 91.4554C187.936 92.2795 188.11 93.163 188.11 94.0552C188.11 94.9474 187.936 95.8308 187.598 96.655C187.259 97.4792 186.763 98.2279 186.138 98.8583C185.512 99.4887 184.77 99.9884 183.953 100.329C183.136 100.669 182.261 100.844 181.377 100.843V100.843Z" fill="#121D50"/>
<path d="M26.9015 100.843H6.73308C5.84936 100.844 4.97403 100.669 4.1572 100.329C3.34036 99.9884 2.59804 99.4887 1.97268 98.8583C1.34732 98.2279 0.851189 97.4792 0.512694 96.655C0.174199 95.8308 0 94.9474 0 94.0552C0 93.163 0.174199 92.2795 0.512694 91.4554C0.851189 90.6312 1.34732 89.8825 1.97268 89.2521C2.59804 88.6216 3.34036 88.1219 4.1572 87.7814C4.97403 87.4409 5.84936 87.2663 6.73308 87.2677H26.9016C28.6828 87.2704 30.3902 87.9868 31.6488 89.2594C32.9073 90.532 33.6142 92.2568 33.6142 94.0552C33.6142 95.8535 32.9073 97.5784 31.6488 98.851C30.3902 100.124 28.6828 100.84 26.9016 100.843H26.9015Z" fill="#121D50"/>
<path d="M155.667 162.253C154.802 162.254 153.945 162.084 153.146 161.753C152.346 161.422 151.62 160.936 151.009 160.324L137.038 146.352C136.425 145.741 135.939 145.015 135.607 144.215C135.275 143.416 135.104 142.559 135.103 141.693C135.103 140.828 135.273 139.971 135.604 139.171C135.935 138.371 136.42 137.645 137.032 137.032C137.644 136.42 138.371 135.935 139.171 135.604C139.971 135.273 140.828 135.103 141.693 135.103C142.559 135.104 143.416 135.275 144.215 135.607C145.015 135.939 145.741 136.425 146.352 137.038L160.324 151.009C161.245 151.931 161.872 153.104 162.127 154.382C162.381 155.659 162.25 156.984 161.752 158.187C161.253 159.391 160.409 160.419 159.326 161.143C158.243 161.867 156.969 162.253 155.667 162.253V162.253Z" fill="#121D50"/>
<path d="M46.4194 53.007C45.5541 53.0081 44.6971 52.8382 43.8977 52.5071C43.0983 52.1759 42.3722 51.6901 41.7612 51.0774L27.7866 37.1033C27.1749 36.4916 26.6896 35.7653 26.3585 34.966C26.0274 34.1668 25.8571 33.3101 25.8571 32.4449C25.8571 31.5798 26.0274 30.7232 26.3585 29.9239C26.6896 29.1246 27.1749 28.3984 27.7866 27.7866C28.3984 27.1749 29.1246 26.6896 29.9239 26.3585C30.7232 26.0274 31.5799 25.8571 32.445 25.8571C33.3102 25.8571 34.1668 26.0274 34.9661 26.3585C35.7654 26.6896 36.4917 27.1749 37.1034 27.7866L51.0776 41.7611C51.9989 42.6824 52.6263 43.8562 52.8804 45.1341C53.1346 46.4119 53.0041 47.7365 52.5055 48.9402C52.0069 50.144 51.1626 51.1728 50.0793 51.8967C48.9959 52.6206 47.7223 53.007 46.4194 53.007V53.007Z" fill="#121D50"/>
<path d="M94.0551 134.457C86.0644 134.457 78.2531 132.087 71.6091 127.648C64.9651 123.209 59.7867 116.899 56.7288 109.516C53.6709 102.134 52.8708 94.0104 54.4297 86.1733C55.9886 78.3361 59.8365 71.1372 65.4868 65.4869C71.1371 59.8366 78.336 55.9887 86.1731 54.4298C94.0103 52.8709 102.134 53.671 109.516 56.7289C116.899 59.7868 123.208 64.9652 127.648 71.6092C132.087 78.2533 134.457 86.0645 134.457 94.0552C134.445 104.767 130.184 115.036 122.61 122.61C115.036 130.184 104.767 134.445 94.0551 134.457V134.457ZM94.0551 67.1207C88.7279 67.1207 83.5204 68.7004 79.0911 71.66C74.6617 74.6196 71.2095 78.8262 69.1709 83.7478C67.1323 88.6695 66.5989 94.0851 67.6382 99.3099C68.6774 104.535 71.2427 109.334 75.0095 113.101C78.7764 116.868 83.5757 119.433 88.8004 120.472C94.0252 121.511 99.4408 120.978 104.362 118.939C109.284 116.901 113.491 113.449 116.45 109.019C119.41 104.59 120.99 99.3824 120.99 94.0552C120.981 86.9142 118.141 80.068 113.092 75.0186C108.042 69.9692 101.196 67.1288 94.0551 67.1207V67.1207Z" fill="#121D50"/>
<defs>
<linearGradient id="paint0_linear" x1="23669.6" y1="19279.9" x2="23669.6" y2="35.5255" gradientUnits="userSpaceOnUse">
<stop stop-color="#808080" stop-opacity="0.25"/>
<stop offset="0.54" stop-color="#808080" stop-opacity="0.12"/>
<stop offset="1" stop-color="#808080" stop-opacity="0.1"/>
</linearGradient>
</defs>
</svg>
