<svg width="105" height="105" viewBox="0 0 105 105" fill="none" xmlns="http://www.w3.org/2000/svg">
<path d="M53.7209 97.6744C79.3444 97.6744 100.116 76.9025 100.116 51.279C100.116 25.6556 79.3444 4.88367 53.7209 4.88367C28.0975 4.88367 7.32558 25.6556 7.32558 51.279C7.32558 76.9025 28.0975 97.6744 53.7209 97.6744Z" stroke="white" stroke-width="2"/>
<path d="M17.8839 60.1562C17.0448 59.7613 16.6252 59.169 16.6252 58.3793C16.6252 58.1325 16.6622 57.8857 16.7363 57.6389C16.9337 56.7505 17.2915 55.4795 17.8098 53.8259C18.3528 52.1724 18.834 50.9261 19.2536 50.087C19.4263 49.7908 19.5621 49.4824 19.6608 49.1615C19.7595 48.8407 19.8212 48.6309 19.8459 48.5322C19.9693 48.088 20.0434 47.8288 20.068 47.7548L20.031 47.3846C20.031 47.2859 20.0557 47.1872 20.105 47.0884C20.1544 46.9897 20.2408 46.8786 20.3641 46.7553C20.7097 46.4591 21.0799 45.8791 21.4747 45.0154L22.8814 40.9803L23.3257 39.7216C23.3504 39.6229 23.3997 39.4502 23.4738 39.2033C23.5478 38.9565 23.5848 38.7838 23.5848 38.6851C23.5848 38.5863 23.5602 38.537 23.5108 38.537C23.3134 38.5863 22.9185 38.6234 22.3262 38.6481C22.03 38.6974 21.8079 38.7344 21.6598 38.7591C21.5117 38.7591 21.4007 38.7714 21.3266 38.7961H21.0675C20.5986 38.7961 20.3641 38.6234 20.3641 38.2779C20.4382 37.8336 20.5863 37.4141 20.8084 37.0192C21.0552 36.6243 21.3513 36.4146 21.6968 36.3899L23.1406 36.0567C23.3627 36.0074 23.6712 35.9827 24.0661 35.9827C24.4116 35.9827 24.7694 36.0197 25.1396 36.0937C25.4358 35.8963 25.5962 35.7235 25.6209 35.5755C25.7196 35.1559 25.9417 34.8228 26.2872 34.5759C26.6328 34.3291 26.9906 34.2057 27.3608 34.2057C27.6569 34.2057 27.9037 34.2921 28.1012 34.4649C28.2986 34.613 28.3973 34.8474 28.3973 35.1682C28.3973 35.3163 28.385 35.4274 28.3603 35.5014C28.3603 35.5261 28.3603 35.5755 28.3603 35.6495C28.3603 35.6988 28.4343 35.7235 28.5824 35.7235C28.8292 35.7235 29.5573 35.5878 30.7665 35.3163C30.964 35.2916 31.2972 35.267 31.7661 35.2423C32.2597 35.193 32.6669 35.1682 32.9877 35.1682C33.4566 35.1682 33.8145 35.2053 34.0613 35.2793C34.2834 35.23 34.4809 35.2053 34.6536 35.2053C34.8263 35.2053 34.9744 35.193 35.0978 35.1682C35.5174 35.1682 35.7765 35.1312 35.8752 35.0572C36.0973 35.1065 36.3441 35.1559 36.6156 35.2053C36.9117 35.23 37.1215 35.267 37.2449 35.3163C37.3684 35.3657 37.4794 35.4274 37.5781 35.5014C37.6521 35.6002 37.6891 35.6865 37.6891 35.7606C37.6891 35.8346 37.6768 35.8839 37.6521 35.9086L37.5781 35.8716C37.6028 35.8716 37.6398 35.8963 37.6891 35.9457C37.7632 35.9704 37.8372 36.0197 37.9113 36.0937C38.1087 36.1925 38.2074 36.4392 38.2074 36.8341C38.2074 37.1303 38.1581 37.4264 38.0593 37.7226C38.0347 37.8707 37.973 37.9817 37.8742 38.0557C37.8002 38.1051 37.6028 38.1421 37.2819 38.1668C36.9611 38.1668 36.5415 38.1545 36.0233 38.1298C35.0855 38.0064 34.3081 37.9447 33.6911 37.9447C32.8273 37.9447 31.4946 38.0681 29.693 38.3149C29.2488 38.3396 28.8292 38.4012 28.4343 38.5C28.0641 38.5987 27.8297 38.6604 27.731 38.6851C27.6076 38.6851 27.4225 38.8702 27.1757 39.2404C26.9289 39.6106 26.7068 40.0795 26.5093 40.6471C26.3613 40.8692 25.9047 41.9428 25.1396 43.8678C24.5473 45.2498 24.2512 45.9408 24.2512 45.9408C24.5473 46.0396 25.115 46.0889 25.954 46.0889C27.0646 46.0889 28.6812 45.9902 30.8036 45.7928C31.7661 45.5954 32.4201 45.5213 32.7656 45.5707C32.9877 45.5954 33.1728 45.7557 33.3209 46.0519C33.4936 46.3234 33.58 46.6319 33.58 46.9774C33.58 47.2242 33.5307 47.4463 33.4319 47.6437C33.3333 47.8411 33.1975 47.9892 33.0247 48.088C32.5064 48.4088 31.4329 48.6556 29.804 48.8283C28.7182 48.9271 27.2251 48.9764 25.3247 48.9764C24.3129 48.9764 23.7083 48.9517 23.5108 48.9024C23.4614 48.9271 23.3874 49.0011 23.2887 49.1245C23.2146 49.2479 23.1776 49.3959 23.1776 49.5687C22.7334 50.3831 22.104 51.8269 21.2896 53.9C20.4999 55.9731 20.105 57.2317 20.105 57.6759C19.9323 58.1202 19.7965 58.6261 19.6978 59.1937C19.6732 59.2925 19.6361 59.4282 19.5867 59.6009C19.5374 59.7737 19.4881 59.8848 19.4387 59.9341C19.3646 60.3043 19.1179 60.4894 18.6983 60.4894C18.3528 60.4894 18.0813 60.3783 17.8839 60.1562ZM34.4887 58.4533C34.4147 58.3053 34.2049 58.1078 33.8594 57.861C33.5139 57.6142 33.3411 57.4661 33.3411 57.4168C33.3411 57.3181 33.2794 57.1824 33.156 57.0096C33.0573 56.8122 32.9586 56.6394 32.8599 56.4913C32.6625 56.2939 32.7982 55.6522 33.2671 54.5663C33.736 53.4804 34.3654 52.1971 35.1551 50.7163C35.3032 50.5682 35.4882 50.3091 35.7104 49.9389C35.9572 49.5687 36.1176 49.3589 36.1916 49.3096C36.1916 49.2109 36.2286 49.1245 36.3027 49.0505C36.3767 48.9517 36.4631 48.9024 36.5618 48.9024L36.858 48.3101C36.9567 48.088 37.4379 47.5574 38.3017 46.7182C39.1655 45.8791 39.8442 45.3115 40.3378 45.0154C40.8067 44.6945 41.3126 44.5341 41.8556 44.5341C42.4479 44.5341 42.9538 44.7069 43.3733 45.0524L44.3729 45.9038C45.1132 46.5208 45.5328 46.8786 45.6315 46.9774L47.0012 48.199L46.3719 50.05C46.1498 50.7163 46.0387 51.3456 46.0387 51.938C46.0387 52.8758 46.2979 53.7519 46.8161 54.5663C46.9395 54.8378 47.1 55.0476 47.2974 55.1956C47.5195 55.3437 47.8033 55.4425 48.1488 55.4918C48.6918 55.5905 48.9632 55.862 48.9632 56.3062C48.9632 56.8492 48.8645 57.2564 48.6671 57.5279C48.4697 57.7993 48.2352 57.9721 47.9637 58.0461C47.5688 58.0955 47.2974 58.1202 47.1493 58.1202C46.4336 58.1202 45.7796 57.9351 45.1873 57.5649C44.595 57.1947 44.0767 56.5654 43.6325 55.6769C43.5337 55.5288 43.398 55.2574 43.2253 54.8625C43.0772 54.4676 42.9908 54.1961 42.9661 54.0481C42.7934 54.2949 42.5096 54.6157 42.1147 55.0106C39.5727 57.5772 37.512 58.8605 35.9325 58.8605C35.3895 58.8605 34.9083 58.7248 34.4887 58.4533ZM36.5248 55.3807C36.9197 55.4301 37.6847 54.9859 38.82 54.0481C38.9434 53.9493 39.0791 53.8383 39.2272 53.7149C39.3753 53.5668 39.5357 53.4187 39.7084 53.2706C40.3995 52.703 40.9301 52.2341 41.3003 51.8639C41.6952 51.469 42.09 51.0002 42.4849 50.4572L43.2993 49.1245C43.0525 48.5815 42.8304 48.2237 42.633 48.0509C42.4355 47.8535 42.2381 47.7548 42.0407 47.7548C41.5471 47.7548 40.9301 48.199 40.1897 49.0875C39.4493 49.9512 38.5608 51.2716 37.5243 53.0485C37.2529 53.4928 37.0307 53.9617 36.858 54.4553C36.6852 54.9242 36.5741 55.2327 36.5248 55.3807ZM54.3047 41.6096C54.1073 41.3628 54.0086 41.0173 54.0086 40.5731C54.0086 40.1782 54.0826 39.7709 54.2307 39.3514C54.3788 38.9072 54.5762 38.5247 54.823 38.2038C55.1685 37.7843 55.6744 37.5745 56.3408 37.5745C56.785 37.5745 57.1552 37.6856 57.4514 37.9077C57.7968 38.5 57.9696 39.0059 57.9696 39.4255C57.9696 39.7957 57.8709 40.1165 57.6735 40.388C57.2539 40.8569 56.8097 41.2147 56.3408 41.4615C55.8718 41.7083 55.44 41.8317 55.0451 41.8317C54.7242 41.8317 54.4775 41.7577 54.3047 41.6096ZM48.8259 66.9678C48.3076 67.5109 47.6413 67.7822 46.8268 67.7822C45.9384 67.7822 45.1857 67.4611 44.5687 66.8197C44.0997 66.2274 43.7542 65.6227 43.5321 65.0057C43.31 64.3887 43.1989 63.8334 43.1989 63.3399C43.1989 62.945 43.273 62.6242 43.4211 62.3774C43.5691 62.1553 43.7789 62.0442 44.0504 62.0442C44.2725 62.0442 44.581 62.1553 44.9759 62.3774C45.3461 62.5995 45.5312 62.8339 45.5312 63.0807C45.5312 63.525 45.5805 63.8705 45.6792 64.1173C45.7533 64.3641 45.9384 64.4998 46.2345 64.5245C46.3086 64.5492 46.4073 64.5615 46.5307 64.5615C46.9996 64.5615 47.4562 64.216 47.9004 63.525C48.3199 62.982 48.8012 61.9702 49.3441 60.4894C49.9117 59.0333 50.2326 58.2065 50.3066 58.0091C50.5041 57.3181 50.6768 56.553 50.8249 55.7139C50.9977 54.8748 51.1087 54.3442 51.1581 54.1221L51.6393 51.5307C51.7134 50.9631 51.8121 50.4202 51.9355 49.9019C52.0836 49.3836 52.1699 49.0628 52.1946 48.9394C52.1946 48.3224 52.281 47.8411 52.4538 47.4957C52.4538 47.1748 52.5031 46.78 52.6018 46.311C52.7252 45.8175 52.7869 45.5089 52.7869 45.3856C52.8857 45.2868 53.1571 45.3238 53.6014 45.4966C54.0456 45.6447 54.3664 45.8175 54.5639 46.0149C54.86 46.3357 55.0698 46.6442 55.1932 46.9404C55.3413 47.2118 55.4153 47.6931 55.4153 48.3841C55.4153 48.8036 55.3783 49.3713 55.3042 50.087C55.3042 50.3831 55.1809 51.1358 54.934 52.3452C54.6872 53.5545 54.4528 54.6033 54.2307 55.4918C54.1073 55.9607 54.0209 56.2692 53.9715 56.4173C53.8235 56.9355 53.7247 57.3428 53.6754 57.6389C53.6507 57.8363 53.4903 58.3423 53.1941 59.1567C52.898 59.8724 52.7252 60.3783 52.6759 60.6745C52.6018 61.1928 52.3057 61.9949 51.7874 63.0807C51.6146 63.525 51.1581 64.216 50.4177 65.1538C49.702 66.0916 49.1714 66.6963 48.8259 66.9678ZM60.8531 58.4533C60.6557 58.4533 60.3718 58.404 60.0016 58.3053C59.6562 58.2065 59.4463 58.1202 59.3723 58.0461C59.2242 57.9227 59.0762 57.7377 58.9281 57.4908C58.78 57.2194 58.706 56.9108 58.706 56.5654C58.706 56.0224 58.9034 55.4548 59.2983 54.8625C59.4464 54.5663 59.8165 53.5421 60.4088 51.7899L61.1492 49.7538C61.1986 49.3343 61.1739 49.0381 61.0752 48.8654C60.9765 48.6679 60.7667 48.5569 60.4459 48.5322C60.1744 48.5322 59.9769 48.4458 59.8536 48.2731C59.7302 48.0756 59.6685 47.7671 59.6685 47.3476C59.7425 46.6319 60.0263 46.1136 60.5199 45.7928C60.9148 45.5954 61.4577 45.4966 62.1488 45.4966C62.7658 45.4966 63.173 45.583 63.3704 45.7557C63.5678 45.9038 63.7406 46.237 63.8887 46.7553C64.0367 47.2735 64.1478 47.7548 64.2218 48.199C64.3452 48.125 64.6661 47.7918 65.1843 47.1995L65.9988 46.3481C66.4183 46.0519 66.8995 45.7681 67.4423 45.4966C67.9855 45.2252 68.3678 45.0894 68.5899 45.0894C68.8369 45.0894 69.158 45.2128 69.5524 45.4596C69.9475 45.7064 70.2066 45.9408 70.3298 46.163C70.7 46.854 70.8851 47.4216 70.8851 47.8658C70.8851 48.2113 70.7989 48.4828 70.626 48.6803C69.9596 49.5194 69.2192 49.9389 68.4048 49.9389C68.2076 49.9389 68.0474 49.9266 67.9236 49.9019C67.8004 49.8772 67.6523 49.7045 67.4793 49.3836C67.3067 49.0628 67.2081 48.816 67.1834 48.6432C67.1834 48.5692 66.9983 48.7173 66.6281 49.0875C66.2826 49.433 66.0605 49.6551 65.9617 49.7538L65.3324 50.4202C64.9375 50.8891 64.5303 51.506 64.1108 52.2711C63.7159 53.0362 63.1236 54.1961 62.3338 55.7509L61.8526 56.8985C61.6058 57.4661 61.4207 57.8733 61.2973 58.1202C61.1739 58.3423 61.0259 58.4533 60.8531 58.4533ZM77.3769 43.8307C77.3029 43.9048 77.2288 43.9418 77.1548 43.9418C77.0559 43.9418 76.8957 43.8678 76.6736 43.7197C76.4265 43.695 76.0934 43.4853 75.674 43.0904C75.2789 42.6955 75.0817 42.4363 75.0817 42.313C75.0568 42.0168 75.0817 41.5973 75.1558 41.0543C75.2298 40.4867 75.3651 39.9807 75.563 39.5365C75.7851 39.0923 76.0685 38.8579 76.4144 38.8332C76.5867 38.8579 76.8216 38.9195 77.1178 39.0182C77.4139 39.0923 77.7471 39.2033 78.1173 39.3514C78.5858 40.2892 78.8207 41.0913 78.8207 41.7577C78.8207 42.7449 78.3394 43.4359 77.3769 43.8307ZM73.9712 59.1937C73.3788 59.1937 72.8606 58.8853 72.4163 58.2682C71.9963 57.6512 71.7372 56.8862 71.6389 55.9731C71.7372 55.0599 71.8112 54.3935 71.8611 53.974C72.1323 52.7647 72.4655 51.3456 72.8606 49.7168C73.2799 48.0633 73.5269 47.1502 73.601 46.9774C73.7241 46.7553 73.9213 46.6442 74.1933 46.6442C74.4645 46.6442 74.7607 46.7553 75.0817 46.9774C75.427 47.1748 75.7111 47.4586 75.9332 47.8288C76.1304 48.1003 76.2293 48.4088 76.2293 48.7543C76.2293 49.2726 75.9823 50.3584 75.4889 52.012C75.143 53.2459 74.9209 54.1221 74.8226 54.6404C74.7236 55.1586 74.6866 55.7139 74.7115 56.3062C74.6126 57.4168 74.5136 58.1819 74.4154 58.6014C74.3164 59.0209 74.1684 59.2184 73.9712 59.1937ZM90.1593 58.1202C89.7891 58.1202 89.4189 58.0214 89.0487 57.824C88.6785 57.6266 88.3824 57.3304 88.1603 56.9355L87.9752 56.5654C87.679 55.7262 87.531 54.9118 87.531 54.1221V52.4932C87.531 52.2218 87.5061 52.086 87.4569 52.086C87.259 52.086 86.4076 52.8881 84.9026 54.4923C83.8411 55.6029 82.9157 56.4666 82.1261 57.0836C81.3609 57.6759 80.8305 57.9721 80.5343 57.9721C80.4354 57.9721 80.2012 57.8857 79.831 57.713C79.4608 57.5155 79.2259 57.3675 79.1276 57.2687C78.9546 57.0959 78.8436 56.8862 78.7944 56.6394C78.7446 56.3926 78.7204 55.9237 78.7204 55.2327C78.7204 54.4429 78.8806 53.5545 79.2016 52.5673C79.522 51.5554 80.0652 50.2104 80.8305 48.5322C81.0277 48.1867 81.2249 47.7671 81.4228 47.2735C81.9902 45.9902 82.5206 45.1017 83.0146 44.6082C83.2118 44.6082 83.3478 44.6205 83.4218 44.6452C83.7422 44.6699 84.1124 44.8179 84.5324 45.0894C84.9766 45.3609 85.2479 45.7187 85.3468 46.163C85.3468 46.5825 85.2849 47.0021 85.1617 47.4216C85.0379 47.8411 84.7545 48.3594 84.3103 48.9764C84.0384 49.3466 83.681 50.1487 83.2367 51.3827C83.1129 51.5801 82.9406 51.8886 82.7185 52.3081C82.5206 52.703 82.4223 52.9252 82.4223 52.9745C82.4465 52.9992 82.5206 52.9498 82.6444 52.8264C82.7676 52.6783 82.8908 52.5426 83.0146 52.4192L84.0141 51.4197C85.9634 49.47 87.469 48.4705 88.5305 48.4211C89.073 48.4211 89.5542 48.705 89.9742 49.2726C90.3935 49.8402 90.6035 50.5189 90.6035 51.3086C90.6035 51.4567 90.5787 51.8762 90.5295 52.5673V54.6774C91.0969 54.5293 91.529 54.3935 91.8252 54.2702C92.4417 54.048 93.0838 53.9123 93.7502 53.863C93.7004 54.2825 93.4661 54.8378 93.0468 55.5288C92.6517 56.2199 92.1826 56.8245 91.6401 57.3428C91.0969 57.861 90.6036 58.1202 90.1593 58.1202Z" fill="white"/>
<path d="M61.4304 68.4654C61.4304 68.4924 61.4068 68.5058 61.3597 68.5058C61.326 68.5058 61.2857 68.4924 61.2385 68.4654C61.1914 68.4385 61.1544 68.4015 61.1275 68.3544C61.0736 68.24 61.0467 68.0986 61.0467 67.9303L61.0568 67.5164C61.2655 66.2914 61.5111 65.0597 61.7938 63.8212C61.8881 63.4914 61.9655 63.1784 62.026 62.8823C62.0934 62.5861 62.1337 62.3976 62.1472 62.3169C62.1472 62.2967 62.127 62.3068 62.0866 62.3472C62.053 62.3808 62.0193 62.4246 61.9857 62.4784C61.952 62.5255 61.9385 62.5592 61.9453 62.5794L61.6929 62.9529C61.6525 62.9933 61.5583 63.1481 61.4102 63.4174C61.3092 63.6327 61.2184 63.801 61.1376 63.9222L60.8549 64.4573C60.6462 64.8409 60.5184 65.0731 60.4712 65.1539C60.4039 65.2549 60.3063 65.4299 60.1784 65.6789C60.1111 65.8404 59.99 66.0323 59.815 66.2544C59.7611 66.3284 59.7073 66.4092 59.6534 66.4967C59.6063 66.5842 59.576 66.6414 59.5626 66.6683C59.5626 66.702 59.4919 66.8164 59.3506 67.0116C59.216 67.2068 59.0914 67.3683 58.977 67.4962C58.8222 67.6577 58.6943 67.7755 58.5934 67.8496C58.4924 67.9169 58.3982 67.9505 58.3107 67.9505C58.1962 67.9505 58.0717 67.8866 57.9371 67.7587C57.8496 67.6645 57.7857 67.5534 57.7453 67.4255C57.7116 67.2977 57.6948 67.1395 57.6948 66.951C57.6948 66.7827 57.7184 66.5001 57.7655 66.1029C57.7722 66.0693 57.8361 65.7092 57.9573 65.0227C58.0852 64.3294 58.1626 63.9491 58.1895 63.8818C58.1962 63.8414 58.1996 63.7943 58.1996 63.7404C58.1996 63.6799 58.1895 63.6496 58.1693 63.6496C58.1491 63.6496 58.1121 63.6933 58.0583 63.7808C58.0381 63.8077 57.9169 63.9962 57.6948 64.3462C57.4794 64.6962 57.2472 65.1438 56.9982 65.689C56.6078 66.4092 56.3184 66.951 56.1299 67.3145C55.9414 67.6712 55.8034 67.927 55.7159 68.0818C55.6015 68.3039 55.5342 68.4251 55.514 68.4452C55.4131 68.4452 55.2852 68.3611 55.1304 68.1928C55.1102 68.1525 55.1001 68.1154 55.1001 68.0818C55.1001 68.0347 55.1203 67.9573 55.1607 67.8496C55.2078 67.7419 55.2717 67.6005 55.3525 67.4255C55.5611 67.015 55.6991 66.7827 55.7664 66.7289C55.8472 66.6212 55.8943 66.5034 55.9078 66.3755C55.9953 66.2544 56.1198 66.0356 56.2813 65.7193C56.3823 65.5577 56.5001 65.3558 56.6347 65.1135C56.776 64.8712 56.9006 64.639 57.0083 64.4169L57.2909 63.9222C57.5534 63.4645 57.7621 63.1111 57.9169 62.8621C58.0784 62.613 58.1996 62.4481 58.2804 62.3674C58.3881 62.2395 58.4419 62.1385 58.4419 62.0645C58.4419 61.9231 58.4688 61.7952 58.5227 61.6808C58.5833 61.5597 58.6438 61.5058 58.7044 61.5193C58.7852 61.5193 58.8491 61.5294 58.8962 61.5496C58.9501 61.563 59.0039 61.6034 59.0578 61.6707C59.0712 61.6909 59.0914 61.7246 59.1184 61.7717C59.152 61.8121 59.1756 61.8592 59.189 61.913C59.2092 61.9602 59.2193 62.0207 59.2193 62.0948C59.2193 62.1755 59.2092 62.2765 59.189 62.3977C59.1823 62.4852 59.1554 62.6837 59.1083 62.9933C59.0813 63.1414 59.0679 63.2323 59.0679 63.2659C58.8929 63.7977 58.7347 64.464 58.5934 65.265C58.4587 66.0592 58.3914 66.6178 58.3914 66.9409C58.3914 67.015 58.3982 67.0654 58.4116 67.0924C58.4587 67.126 58.4991 67.1294 58.5328 67.1025C58.5732 67.0755 58.6304 66.988 58.7044 66.84C58.7919 66.6784 58.94 66.4698 59.1486 66.214C59.1621 66.1938 59.2934 65.9717 59.5424 65.5477C60.1616 64.5313 60.764 63.5116 61.3496 62.4885L61.6121 62.0746C61.7131 61.913 61.8107 61.765 61.9049 61.6303C61.9991 61.489 62.0732 61.3981 62.127 61.3577C62.1943 61.3039 62.2583 61.277 62.3188 61.277C62.4467 61.277 62.5611 61.3544 62.6621 61.5092C62.7631 61.664 62.8135 61.8592 62.8135 62.0948C62.8135 62.2765 62.7765 62.5558 62.7025 62.9327C62.6284 63.3029 62.5309 63.6765 62.4097 64.0534C62.3693 64.2419 62.3121 64.4775 62.2381 64.7601C62.164 65.0428 62.0866 65.2986 62.0059 65.5275C61.9924 65.6419 61.9655 65.7866 61.9251 65.9616C61.9184 65.9952 61.8982 66.0996 61.8645 66.2746C61.8376 66.4428 61.8309 66.5573 61.8443 66.6178C61.7434 66.7996 61.6929 67.163 61.6929 67.7082L61.6626 67.9404C61.6491 68.1289 61.6357 68.2568 61.6222 68.3241C61.6087 68.3914 61.5885 68.4217 61.5616 68.415C61.5482 68.4082 61.528 68.4049 61.501 68.4049C61.4539 68.4049 61.4304 68.4251 61.4304 68.4654ZM63.1036 67.6174C63.0834 67.577 63.0497 67.5366 63.0026 67.4962C62.9622 67.4491 62.942 67.4188 62.942 67.4053C62.942 67.3313 62.9252 67.2741 62.8916 67.2337C62.8781 67.2202 62.8714 67.19 62.8714 67.1428C62.8714 67.0351 62.9218 66.8534 63.0228 66.5976C63.1305 66.3351 63.2685 66.0525 63.4367 65.7496C63.4771 65.7092 63.5276 65.6385 63.5882 65.5376C63.6555 65.4366 63.6992 65.3794 63.7194 65.3659C63.7194 65.339 63.7295 65.3154 63.7497 65.2952C63.7699 65.2683 63.7935 65.2549 63.8204 65.2549V65.1943C63.8204 65.1337 63.9315 64.989 64.1536 64.7601C64.3757 64.5246 64.5574 64.363 64.6988 64.2755C64.867 64.1611 65.0387 64.1039 65.2137 64.1039C65.3348 64.1039 65.4392 64.1376 65.5267 64.2049C65.5603 64.2452 65.7151 64.39 65.9911 64.639L66.3646 64.9722L66.1829 65.477C66.1223 65.6587 66.092 65.8236 66.092 65.9717C66.092 66.2275 66.1661 66.4731 66.3142 66.7087C66.3478 66.7827 66.4151 66.8534 66.5161 66.9207C66.617 66.988 66.718 67.0284 66.819 67.0419C66.967 67.0688 67.0411 67.1428 67.0411 67.264C67.0411 67.3986 66.9805 67.4794 66.8593 67.5063C66.8324 67.513 66.792 67.5164 66.7382 67.5164C66.3411 67.5164 65.9978 67.2371 65.7084 66.6784C65.6815 66.638 65.6444 66.564 65.5973 66.4563C65.5569 66.3486 65.5334 66.2746 65.5267 66.2342C65.4863 66.288 65.4358 66.352 65.3752 66.426C65.3146 66.5001 65.2574 66.564 65.2036 66.6178C64.4699 67.3515 63.8911 67.7183 63.467 67.7183C63.3324 67.7183 63.2113 67.6847 63.1036 67.6174ZM63.467 67.052C63.467 67.0856 63.5007 67.0957 63.568 67.0823C63.642 67.0688 63.7295 67.0351 63.8305 66.9813C63.9382 66.9275 64.0459 66.8568 64.1536 66.7693C64.7324 66.2712 65.1497 65.8371 65.4055 65.4669L65.6276 65.1034C65.5603 64.9621 65.4896 64.8611 65.4156 64.8005C65.3416 64.7332 65.2742 64.6996 65.2137 64.6996C65.0723 64.6996 64.8502 64.8779 64.5473 65.2347C64.2444 65.5847 63.9685 65.9986 63.7194 66.4765C63.6589 66.5909 63.605 66.7087 63.5579 66.8299C63.5108 66.9443 63.4805 67.0183 63.467 67.052ZM67.7432 67.4356C67.6422 67.4356 67.5648 67.4121 67.511 67.365C67.4571 67.3178 67.4201 67.2808 67.3999 67.2539C67.3864 67.227 67.3797 67.1933 67.3797 67.1529C67.3797 67.126 67.4033 67.0015 67.4504 66.7794L67.5412 66.4462C67.6085 66.1702 67.6691 65.9414 67.723 65.7597C67.7499 65.5914 67.8004 65.413 67.8744 65.2246C67.9552 65.0361 68.0023 64.9217 68.0158 64.8813C68.0696 64.6861 68.1739 64.3832 68.3287 63.9726L68.6316 63.1549C68.8672 62.5154 69.0085 62.1251 69.0557 61.9837L69.2172 61.5395C69.2172 61.4318 69.271 61.3779 69.3787 61.3779C69.473 61.3779 69.5504 61.4318 69.6109 61.5395C69.6783 61.6404 69.7119 61.7582 69.7119 61.8928C69.7119 61.9938 69.6917 62.0914 69.6513 62.1856C69.5571 62.3876 69.4528 62.6433 69.3384 62.9529C69.2307 63.2558 69.16 63.4544 69.1263 63.5486C68.8975 64.1948 68.7326 64.6255 68.6316 64.8409C68.6316 64.8678 68.6215 64.915 68.6013 64.9823C68.5811 65.0496 68.5576 65.1102 68.5307 65.164L68.4196 65.3861C68.4196 65.4063 68.3826 65.5477 68.3085 65.8102C68.2143 66.0996 68.1571 66.3116 68.1369 66.4462C68.1706 66.3856 68.2412 66.2948 68.3489 66.1736C68.4566 66.0457 68.5576 65.9414 68.6518 65.8606C69.022 65.5443 69.2509 65.3558 69.3384 65.2952C69.4191 65.2481 69.4864 65.2044 69.5403 65.164C69.5941 65.1236 69.6311 65.0967 69.6513 65.0832C69.6513 65.0496 69.6884 65.0327 69.7624 65.0327C69.7893 65.0327 69.8028 65.0294 69.8028 65.0227C69.8095 65.0159 69.8129 64.9991 69.8129 64.9722C69.8129 64.9251 69.8903 64.8847 70.0451 64.851C70.1999 64.8106 70.3379 64.7904 70.459 64.7904C70.5398 64.7904 70.6037 64.8073 70.6509 64.8409C70.698 64.8746 70.7585 64.9486 70.8326 65.063C70.947 65.2246 71.0042 65.3996 71.0042 65.588C71.0042 65.6957 70.984 65.8068 70.9436 65.9212C70.9436 65.9751 70.9335 66.0592 70.9134 66.1736C70.8999 66.2813 70.8932 66.3755 70.8932 66.4563L70.8326 66.7794H70.9941C71.0412 66.7794 71.085 66.7861 71.1254 66.7996C71.1725 66.813 71.2028 66.8231 71.2162 66.8299C71.2768 66.9039 71.3307 66.9409 71.3778 66.9409C71.4384 66.9409 71.4686 66.9645 71.4686 67.0116C71.4686 67.0385 71.4552 67.0722 71.4283 67.1126C71.4013 67.1529 71.3643 67.1866 71.3172 67.2135C71.1422 67.3212 70.9941 67.3751 70.873 67.3751C70.7585 67.3751 70.6408 67.3212 70.5196 67.2135C70.3715 67.0654 70.2975 66.8871 70.2975 66.6784C70.2975 66.5707 70.3177 66.4428 70.3581 66.2948L70.3884 65.9717C70.4018 65.8101 70.4085 65.7092 70.4085 65.6688C70.4085 65.514 70.3715 65.4366 70.2975 65.4366C70.2033 65.4366 70.0215 65.5207 69.7523 65.689C69.4898 65.8505 69.2172 66.0558 68.9345 66.3049C68.6518 66.5472 68.4263 66.7928 68.2581 67.0419C68.1571 67.1698 68.0696 67.2674 67.9956 67.3347C67.9283 67.3952 67.8643 67.4289 67.8037 67.4356H67.7432ZM75.0211 64.2351C75.075 64.3428 75.1019 64.4606 75.1019 64.5885C75.1019 64.7904 75.0481 64.9722 74.9404 65.1337C74.8731 65.2279 74.8125 65.3693 74.7586 65.5577C74.7115 65.7462 74.6644 65.9986 74.6173 66.315C74.5567 66.5707 74.4827 66.9645 74.3952 67.4962C74.2875 67.7789 74.2202 67.9909 74.1933 68.1323C74.1865 68.1726 74.1529 68.2568 74.0923 68.3847C74.0385 68.5126 73.9947 68.6135 73.961 68.6876C73.6985 69.2327 73.399 69.6501 73.0625 69.9395C72.726 70.2289 72.3591 70.3871 71.962 70.414C71.8543 70.4275 71.7904 70.4342 71.7702 70.4342C71.7096 70.4342 71.6524 70.4241 71.5985 70.4039C71.5514 70.3837 71.4976 70.3568 71.437 70.3231C71.4101 70.3097 71.3731 70.2861 71.326 70.2525C71.2788 70.2188 71.2452 70.1919 71.225 70.1717C71.2115 70.1582 71.2048 70.1414 71.2048 70.1212C71.2048 70.0876 71.225 70.0539 71.2654 70.0202C71.3058 69.9866 71.3697 69.9698 71.4572 69.9698C71.5043 69.9967 71.5851 70.0101 71.6995 70.0101C71.8139 70.0101 71.8812 69.9967 71.9014 69.9698C71.9149 69.9563 71.9553 69.9327 72.0226 69.8991C72.0899 69.8722 72.1673 69.8486 72.2548 69.8284C72.4635 69.7275 72.6485 69.5962 72.8101 69.4347C72.9784 69.2799 73.1332 69.0813 73.2745 68.839C73.4428 68.5832 73.5538 68.351 73.6077 68.1424C73.6683 68.001 73.7356 67.7991 73.8096 67.5366C73.8904 67.2674 73.9543 67.0251 74.0014 66.8097L73.8702 66.9308C73.8365 66.9712 73.7524 67.0318 73.6178 67.1126C73.4832 67.1866 73.4024 67.2236 73.3755 67.2236C73.3687 67.2236 73.3586 67.227 73.3452 67.2337C73.3317 67.2404 73.325 67.2539 73.325 67.2741C73.325 67.301 73.2375 67.3448 73.0625 67.4053C72.8875 67.4592 72.7764 67.4861 72.7293 67.4861C72.662 67.4861 72.588 67.4525 72.5072 67.3851C72.4332 67.3111 72.3793 67.2404 72.3457 67.1731C72.3255 67.126 72.2985 67.0722 72.2649 67.0116C72.2312 66.951 72.2043 66.8938 72.1841 66.84C72.1639 66.7794 72.1538 66.7121 72.1538 66.638C72.1538 66.5505 72.1606 66.4832 72.174 66.4361C72.2548 66.1332 72.3894 65.7058 72.5779 65.1539C72.7731 64.602 72.9211 64.2486 73.0221 64.0938C73.076 64.0198 73.1399 63.9827 73.2139 63.9827C73.3149 63.9827 73.3957 64.0366 73.4562 64.1443C73.5168 64.2251 73.5471 64.2924 73.5471 64.3462C73.5471 64.3866 73.5303 64.4438 73.4966 64.5178C73.463 64.5919 73.4192 64.6794 73.3654 64.7803C73.3385 64.8544 73.3048 64.9352 73.2644 65.0227C73.224 65.1102 73.2038 65.164 73.2038 65.1842C73.1971 65.2111 73.1769 65.2952 73.1433 65.4366C73.1096 65.5712 73.0793 65.6385 73.0524 65.6385C73.0053 65.6789 72.9548 65.8337 72.901 66.1029C72.8471 66.3722 72.8202 66.5808 72.8202 66.7289C72.8202 66.8029 72.8303 66.84 72.8505 66.84C73.2476 66.84 73.6784 66.5438 74.1428 65.9515C74.2034 65.6553 74.2572 65.4063 74.3043 65.2044C74.3918 64.8611 74.4591 64.5549 74.5062 64.2856C74.5466 64.1914 74.5769 64.1376 74.5971 64.1241C74.6173 64.1039 74.661 64.0938 74.7284 64.0938C74.8091 64.0938 74.8663 64.1005 74.9 64.114C74.9336 64.1275 74.974 64.1678 75.0211 64.2351ZM77.9369 67.9606C77.8898 67.9876 77.8259 67.9775 77.7451 67.9303C77.6711 67.8832 77.597 67.8126 77.523 67.7183C77.4691 67.6308 77.4355 67.54 77.422 67.4457C77.4153 67.3515 77.4119 67.1563 77.4119 66.8601C77.4119 66.7928 77.3985 66.7592 77.3715 66.7592C77.3513 66.7592 77.3042 66.7928 77.2302 66.8601C77.1561 66.9207 77.0653 67.0049 76.9576 67.1126C76.7826 67.2808 76.621 67.4121 76.473 67.5063C76.3249 67.6005 76.2037 67.6443 76.1095 67.6376C76.0355 67.6376 75.9547 67.5871 75.8672 67.4861C75.7864 67.3851 75.7225 67.2674 75.6754 67.1327C75.6552 67.052 75.6451 66.9577 75.6451 66.8501C75.6451 66.5674 75.7023 66.2241 75.8167 65.8202C75.9379 65.4164 76.0759 65.0698 76.2307 64.7803C76.3922 64.4842 76.5335 64.3361 76.6547 64.3361C76.7557 64.3361 76.8499 64.4472 76.9374 64.6693C76.9576 64.7097 76.9677 64.7433 76.9677 64.7702C76.9677 64.8174 76.9408 64.8645 76.8869 64.9116C76.786 65.0395 76.6682 65.2683 76.5335 65.5981C76.3989 65.9279 76.2912 66.2342 76.2105 66.5169C76.1364 66.7996 76.123 66.9409 76.1701 66.9409C76.2643 66.9409 76.3754 66.9039 76.5033 66.8299C76.6311 66.7558 76.759 66.6582 76.8869 66.5371C77.0148 66.4092 77.1292 66.2746 77.2302 66.1332C77.3311 65.9851 77.4557 65.7866 77.6037 65.5376C77.8864 65.0866 78.0412 64.8241 78.0682 64.7501C78.1691 64.5616 78.2398 64.4404 78.2802 64.3866C78.3273 64.326 78.3845 64.2856 78.4518 64.2654H78.5932C78.6335 64.2722 78.6807 64.3025 78.7345 64.3563C78.7816 64.3765 78.8085 64.4001 78.8153 64.427C78.8287 64.4472 78.8355 64.4775 78.8355 64.5178L78.6739 64.8914L78.5831 65.1034C78.5763 65.1303 78.5393 65.2077 78.472 65.3356C78.3172 65.6789 78.1994 65.9549 78.1186 66.1635C78.0379 66.3722 77.9773 66.5876 77.9369 66.8097C77.9302 66.8433 77.9268 66.9005 77.9268 66.9813C77.9268 67.1832 77.947 67.3246 77.9874 67.4053C78.048 67.5265 78.1085 67.614 78.1691 67.6678C78.2028 67.6948 78.2196 67.7217 78.2196 67.7486C78.2196 67.7957 78.1792 67.8428 78.0985 67.89C78.0244 67.9371 77.9706 67.9606 77.9369 67.9606ZM81.5527 67.9505C81.5056 67.9707 81.4652 67.9808 81.4315 67.9808C81.4046 67.9808 81.371 67.9674 81.3306 67.9404C81.2902 67.9135 81.2397 67.8765 81.1791 67.8294C81.132 67.7553 81.1017 67.688 81.0883 67.6275C81.0815 67.5669 81.0782 67.4457 81.0782 67.264C81.0984 67.0755 81.1758 66.7424 81.3104 66.2645C81.445 65.7799 81.5426 65.4669 81.6032 65.3255C81.6301 65.238 81.6436 65.164 81.6436 65.1034C81.6436 65.0496 81.6267 65.0159 81.5931 65.0025C81.5594 64.9823 81.4921 64.9654 81.3911 64.952C81.1421 64.9251 80.9099 65.0025 80.6945 65.1842C80.4859 65.3659 80.2604 65.6486 80.0181 66.0323C79.8027 66.3688 79.695 66.6616 79.695 66.9106C79.695 66.9577 79.7017 67.0015 79.7152 67.0419C79.7354 67.0957 79.7892 67.1226 79.8767 67.1226C79.9373 67.1226 80.0113 67.1092 80.0988 67.0823C80.1931 67.0553 80.2738 67.0217 80.3411 66.9813C80.3815 66.9611 80.5094 66.9039 80.7248 66.8097C80.7652 66.8097 80.7921 66.8231 80.8056 66.8501C80.8258 66.8702 80.8359 66.914 80.8359 66.9813C80.8359 67.0351 80.8695 67.0755 80.9368 67.1025C80.9637 67.1361 80.9234 67.2001 80.8157 67.2943C80.708 67.3818 80.5498 67.4861 80.3411 67.6073C80.1729 67.6544 80.0214 67.6779 79.8868 67.6779C79.7522 67.6779 79.621 67.6342 79.4931 67.5467C79.271 67.4188 79.1599 67.19 79.1599 66.8601C79.1599 66.638 79.2171 66.3621 79.3315 66.0323C79.446 65.763 79.5705 65.5376 79.7051 65.3558C79.8464 65.1674 80.0282 64.9587 80.2503 64.7299C80.2839 64.6962 80.3512 64.6525 80.4522 64.5986C80.5599 64.538 80.6777 64.4876 80.8056 64.4472C81.021 64.3799 81.1993 64.3462 81.3407 64.3462C81.4618 64.3462 81.5695 64.3765 81.6637 64.4371L81.795 64.4573C81.8488 64.4573 81.8892 64.4337 81.9161 64.3866C81.9498 64.3395 82.0003 64.2318 82.0676 64.0635L82.32 63.3972C82.3738 63.2558 82.4546 63.0404 82.5623 62.751C82.6767 62.4616 82.781 62.2058 82.8753 61.9837C82.9224 61.8962 82.9594 61.8053 82.9863 61.7111C83.02 61.6169 83.0469 61.5597 83.0671 61.5395H83.2589C83.2926 61.5395 83.3431 61.5664 83.4104 61.6202C83.4777 61.6674 83.5214 61.7279 83.5416 61.802C83.5416 61.876 83.5113 62.0207 83.4508 62.2361C83.3902 62.4448 83.3061 62.677 83.1984 62.9327C83.1445 63.0674 83.1008 63.1683 83.0671 63.2356C82.8315 63.7943 82.67 64.2116 82.5825 64.4876L82.4008 64.952C82.32 65.1202 82.2729 65.2448 82.2594 65.3255C82.2123 65.5207 82.1585 65.6924 82.0979 65.8404C82.0373 65.9818 82.0036 66.0626 81.9969 66.0827L81.9061 66.3553C81.7916 66.6851 81.7142 66.9174 81.6738 67.052C81.6402 67.1799 81.6234 67.3111 81.6234 67.4457C81.6234 67.5803 81.6301 67.6914 81.6436 67.7789C81.6436 67.8529 81.6133 67.9102 81.5527 67.9505ZM85.9102 68.1727C85.7419 68.213 85.6275 68.139 85.5669 67.9505C85.4727 67.688 85.4256 67.4121 85.4256 67.1226C85.4256 67.0419 85.4289 66.9847 85.4357 66.951L85.4559 66.739L85.0621 67.052C84.8467 67.2404 84.6313 67.3818 84.416 67.476C84.2073 67.5702 84.0155 67.6174 83.8405 67.6174C83.7261 67.5972 83.615 67.5501 83.5073 67.476C83.4063 67.3952 83.3323 67.301 83.2852 67.1933C83.2583 67.1395 83.2448 67.0587 83.2448 66.951C83.2448 66.702 83.3121 66.4092 83.4467 66.0726C83.5813 65.7294 83.7496 65.4467 83.9515 65.2246C84.241 64.7871 84.564 64.5683 84.9208 64.5683C85.089 64.5683 85.2573 64.6188 85.4256 64.7198C85.5938 64.7871 85.6914 64.8207 85.7184 64.8207C85.7587 64.8207 85.789 64.8039 85.8092 64.7702C85.8294 64.7366 85.8496 64.676 85.8698 64.5885C85.9438 64.2789 86.0145 64.0198 86.0818 63.8111C86.2299 63.3669 86.3578 63.0101 86.4655 62.7409C86.5732 62.4717 86.7044 62.1755 86.8592 61.8525C86.9265 61.7111 86.9837 61.6202 87.0309 61.5799C87.0847 61.5327 87.1419 61.5126 87.2025 61.5193C87.3506 61.5193 87.465 61.6202 87.5458 61.8222C87.5659 61.8693 87.5761 61.9164 87.5761 61.9635C87.5761 62.0106 87.5559 62.0746 87.5155 62.1553C87.3405 62.4582 87.1251 62.9529 86.8693 63.6395C86.6136 64.326 86.415 64.9217 86.2736 65.4265C86.2131 65.6486 86.1592 65.9683 86.1121 66.3856C86.0717 66.8029 86.0515 67.1496 86.0515 67.4255C86.0515 67.5467 86.0583 67.6342 86.0717 67.688C86.1054 67.8025 86.1222 67.9034 86.1222 67.9909C86.1222 68.0582 86.1054 68.102 86.0717 68.1222C86.0381 68.1491 85.9842 68.1659 85.9102 68.1727ZM84.2039 67.052C84.3587 67.0183 84.5472 66.9174 84.7693 66.7491C84.8097 66.7222 84.9073 66.6515 85.0621 66.5371C85.2169 66.4227 85.3347 66.3015 85.4155 66.1736C85.4962 66.0457 85.5535 65.901 85.5871 65.7395C85.5938 65.6183 85.5804 65.5207 85.5467 65.4467C85.5198 65.3659 85.4626 65.2885 85.3751 65.2145C85.3078 65.1674 85.2236 65.1438 85.1227 65.1438C84.941 65.1438 84.7727 65.2178 84.6179 65.3659C84.4361 65.5275 84.2746 65.7361 84.1333 65.9919C83.9919 66.2476 83.8842 66.5438 83.8102 66.8803C83.79 67.0082 83.8573 67.0722 84.0121 67.0722C84.0929 67.0722 84.1568 67.0654 84.2039 67.052ZM88.904 63.6597C88.7761 63.6597 88.6449 63.5924 88.5103 63.4577C88.3824 63.3164 88.3185 63.1717 88.3185 63.0236C88.3185 62.99 88.3588 62.9126 88.4396 62.7914C88.5204 62.6702 88.5608 62.6029 88.5608 62.5895C88.6079 62.5895 88.6483 62.5928 88.6819 62.5996C88.7156 62.6063 88.756 62.6198 88.8031 62.64C88.8637 62.7746 88.9579 62.9126 89.0858 63.0539C89.1261 63.1077 89.1632 63.1582 89.1968 63.2053C89.2305 63.2525 89.2473 63.2928 89.2473 63.3265C89.2473 63.4409 89.2406 63.5183 89.2271 63.5587C89.2204 63.5991 89.1935 63.626 89.1463 63.6395C89.106 63.6529 89.0252 63.6597 88.904 63.6597ZM87.4199 67.4861C87.3997 67.4861 87.3728 67.4794 87.3391 67.4659C87.3055 67.4525 87.2819 67.4424 87.2685 67.4356C87.2685 67.4154 87.2584 67.3818 87.2382 67.3347C87.2247 67.2808 87.218 67.2472 87.218 67.2337C87.1641 67.2068 87.1372 67.1731 87.1372 67.1327C87.1372 67.0991 87.1473 67.052 87.1675 66.9914C87.255 66.8366 87.4098 66.4866 87.6319 65.9414C87.854 65.3895 87.9786 65.063 88.0055 64.9621C88.0055 64.9351 88.0156 64.9015 88.0358 64.8611C88.056 64.8207 88.0795 64.7871 88.1064 64.7601C88.1334 64.7332 88.1636 64.7198 88.1973 64.7198C88.2713 64.7198 88.3386 64.7702 88.3992 64.8712C88.4665 64.9722 88.5002 65.0832 88.5002 65.2044C88.5002 65.2851 88.4228 65.5174 88.268 65.901C88.1199 66.2779 87.9516 66.6582 87.7632 67.0419C87.7362 67.0957 87.6959 67.1731 87.642 67.2741C87.5949 67.3751 87.5579 67.4356 87.531 67.4558C87.504 67.476 87.467 67.4861 87.4199 67.4861ZM92.2412 67.8597C92.1402 67.8597 92.0359 67.7823 91.9282 67.6275C91.8272 67.4659 91.7767 67.3077 91.7767 67.1529C91.7767 67.0452 91.8003 66.8534 91.8474 66.5775C91.9012 66.2948 91.9652 66.0188 92.0392 65.7496C92.0796 65.6284 92.0998 65.5409 92.0998 65.4871C92.0998 65.4534 92.0863 65.4366 92.0594 65.4366C92.0325 65.4366 91.9517 65.477 91.8171 65.5577C91.6017 65.6722 91.4536 65.7765 91.3729 65.8707C91.3392 65.8976 91.2854 65.9448 91.2113 66.0121C91.1373 66.0794 91.07 66.1332 91.0094 66.1736C90.8815 66.2746 90.7099 66.4226 90.4945 66.6178C90.2859 66.8063 90.1142 66.9678 89.9796 67.1025C89.9392 67.1765 89.882 67.2135 89.808 67.2135C89.7878 67.2135 89.7575 67.2068 89.7171 67.1933C89.6363 67.1731 89.5657 67.1294 89.5051 67.0621C89.4445 66.988 89.4142 66.9106 89.4142 66.8299C89.4142 66.7289 89.4714 66.5169 89.5859 66.1938C89.707 65.8707 89.8551 65.5174 90.0301 65.1337C90.057 65.0866 90.0806 65.0193 90.1008 64.9318C90.121 64.8376 90.131 64.7501 90.131 64.6693C90.131 64.6222 90.1411 64.5683 90.1613 64.5077C90.1815 64.4472 90.2051 64.4034 90.232 64.3765C90.2522 64.3428 90.2825 64.326 90.3229 64.326C90.4104 64.326 90.4844 64.3765 90.545 64.4775C90.6527 64.5784 90.7065 64.7063 90.7065 64.8611C90.7065 64.989 90.6695 65.1539 90.5955 65.3558C90.5484 65.4501 90.5113 65.5275 90.4844 65.588C90.4642 65.6419 90.4508 65.6789 90.444 65.6991C90.4642 65.6991 90.5517 65.652 90.7065 65.5577L90.9589 65.4063L91.2618 65.1741C91.4166 65.0529 91.5041 64.9924 91.5243 64.9924C91.5512 64.9924 91.5849 64.9823 91.6253 64.9621C91.6657 64.9419 91.6993 64.9183 91.7262 64.8914C91.7464 64.8712 91.7633 64.8577 91.7767 64.851C91.7969 64.8443 91.8104 64.8409 91.8171 64.8409C91.8238 64.8409 91.8407 64.8376 91.8676 64.8308C91.8945 64.8241 91.9181 64.8106 91.9383 64.7904C91.9652 64.7635 92.0123 64.7501 92.0796 64.7501C92.1738 64.7501 92.2681 64.7803 92.3623 64.8409C92.4565 64.9015 92.5037 64.9688 92.5037 65.0428C92.5037 65.063 92.5104 65.0832 92.5238 65.1034C92.5373 65.1169 92.5474 65.127 92.5541 65.1337C92.5811 65.1337 92.6046 65.1707 92.6248 65.2448C92.645 65.3121 92.6551 65.3962 92.6551 65.4972C92.6551 65.6452 92.6383 65.7698 92.6046 65.8707C92.6046 65.9448 92.5911 66.039 92.5642 66.1534C92.5373 66.2678 92.5205 66.3419 92.5137 66.3755L92.4532 66.638C92.3657 66.9073 92.3219 67.1294 92.3219 67.3044C92.3219 67.439 92.3488 67.5433 92.4027 67.6174C92.4161 67.6443 92.4229 67.6712 92.4229 67.6981C92.4229 67.7385 92.4061 67.7755 92.3724 67.8092C92.3455 67.8428 92.3017 67.8597 92.2412 67.8597Z" fill="white"/>
</svg>
